<?xml version="1.0" encoding="UTF-8" standalone="no"?>
<svg xmlns:xlink="http://www.w3.org/1999/xlink" height="38.0px" width="750.0px" xmlns="http://www.w3.org/2000/svg">
  <g transform="matrix(1.0, 0.0, 0.0, 1.0, 0.0, 0.0)">
    <path d="M716.45 1.0 L749.0 1.0 749.0 37.0 716.45 37.0 716.45 1.0 M52.5 36.9 L1.0 36.85 1.0 1.0 62.0 1.0 67.5 1.0 67.5 23.7 67.5 25.9 62.0 29.95 52.5 36.9" fill="url(#gradient0)" fill-rule="evenodd" stroke="none"/>
    <path d="M656.95 37.0 L574.5 36.95 574.5 1.0 679.55 1.0 656.95 37.0 M539.3 36.95 L529.3 36.95 539.7 1.0 549.7 1.0 539.3 36.95 M204.0 36.9 L151.0 36.9 151.0 1.0 204.0 1.0 204.0 36.9" fill="url(#gradient1)" fill-rule="evenodd" stroke="none"/>
    <path d="M669.8 37.0 L656.95 37.0 679.55 1.0 680.25 1.0 669.8 37.0" fill="url(#gradient2)" fill-rule="evenodd" stroke="none"/>
    <path d="M716.45 37.0 L683.95 37.0 669.8 37.0 680.25 1.0 683.95 1.0 716.45 1.0 716.45 37.0 M683.95 1.0 L683.95 37.0 683.95 1.0" fill="url(#gradient3)" fill-rule="evenodd" stroke="none"/>
    <path d="M574.5 36.95 L539.3 36.95 549.7 1.0 574.5 1.0 574.5 36.95" fill="url(#gradient4)" fill-rule="evenodd" stroke="none"/>
    <path d="M151.0 36.9 L135.0 36.9 135.0 1.0 151.0 1.0 151.0 36.9" fill="url(#gradient5)" fill-rule="evenodd" stroke="none"/>
    <path d="M67.5 36.9 L62.0 36.9 52.5 36.9 62.0 29.95 67.5 25.9 67.5 36.9" fill="url(#gradient6)" fill-rule="evenodd" stroke="none"/>
    <path d="M390.3 36.95 L290.8 36.9 301.2 1.0 400.6 1.0 390.3 36.95 M229.3 36.9 L204.0 36.9 204.0 1.0 239.7 1.0 229.3 36.9" fill="url(#gradient7)" fill-rule="evenodd" stroke="none"/>
    <path d="M135.0 36.9 L90.8 36.9 101.2 1.0 135.0 1.0 135.0 36.9" fill="url(#gradient8)" fill-rule="evenodd" stroke="none"/>
    <path d="M529.3 36.95 L390.3 36.95 400.6 1.0 539.7 1.0 529.3 36.95 M290.8 36.9 L229.3 36.9 239.7 1.0 301.2 1.0 290.8 36.9 M90.8 36.9 L67.5 36.9 67.5 25.9 67.5 23.7 98.5 1.0 98.7 1.0 101.2 1.0 90.8 36.9" fill="url(#gradient9)" fill-rule="evenodd" stroke="none"/>
    <path d="M67.5 1.0 L98.5 1.0 67.5 23.7 67.5 1.0" fill="url(#gradient10)" fill-rule="evenodd" stroke="none"/>
    <path d="M716.45 1.0 L749.0 1.0 749.0 37.0 716.45 37.0 683.95 37.0 669.8 37.0 656.95 37.0 574.5 36.95 539.3 36.95 529.3 36.95 390.3 36.95 290.8 36.9 229.3 36.9 204.0 36.9 151.0 36.9 135.0 36.9 90.8 36.9 67.5 36.9 62.0 36.9 52.5 36.9 1.0 36.85 1.0 1.0 62.0 1.0 67.5 1.0 98.5 1.0 M98.7 1.0 L101.2 1.0 135.0 1.0 151.0 1.0 204.0 1.0 239.7 1.0 301.2 1.0 400.6 1.0 539.7 1.0 549.7 1.0 574.5 1.0 679.55 1.0 680.25 1.0 683.95 1.0 716.45 1.0" fill="none" stroke="#000000" stroke-linecap="round" stroke-linejoin="round" stroke-width="2.0"/>
    <path d="M669.8 37.0 L680.25 1.0 M539.7 1.0 L529.3 36.95 M400.6 1.0 L390.3 36.95 M301.2 1.0 L290.8 36.9 M239.7 1.0 L229.3 36.9 M101.2 1.0 L90.8 36.9" fill="none" stroke="#000000" stroke-linecap="round" stroke-linejoin="round" stroke-width="1.5"/>
  </g>
  <defs>
    <linearGradient gradientTransform="matrix(0.0, -0.0344, 0.0304, 0.0, 375.0, 25.0)" gradientUnits="userSpaceOnUse" id="gradient0" spreadMethod="pad" x1="-819.2" x2="819.2">
      <stop offset="0.0" stop-color="#888888"/>
      <stop offset="1.0" stop-color="#cccccc"/>
    </linearGradient>
    <linearGradient gradientTransform="matrix(0.0, -0.0344, 0.0304, 0.0, 375.0, 25.0)" gradientUnits="userSpaceOnUse" id="gradient1" spreadMethod="pad" x1="-819.2" x2="819.2">
      <stop offset="0.0" stop-color="#aeaeae"/>
      <stop offset="1.0" stop-color="#d9d9d9"/>
    </linearGradient>
    <linearGradient gradientTransform="matrix(0.0, -0.0344, 0.0304, 0.0, 380.0, 25.0)" gradientUnits="userSpaceOnUse" id="gradient2" spreadMethod="pad" x1="-819.2" x2="819.2">
      <stop offset="0.0" stop-color="#aeaeae"/>
      <stop offset="1.0" stop-color="#d9d9d9"/>
    </linearGradient>
    <linearGradient gradientTransform="matrix(0.0, -0.0344, 0.0304, 0.0, 380.0, 25.0)" gradientUnits="userSpaceOnUse" id="gradient3" spreadMethod="pad" x1="-819.2" x2="819.2">
      <stop offset="0.0" stop-color="#888888"/>
      <stop offset="1.0" stop-color="#cccccc"/>
    </linearGradient>
    <linearGradient gradientTransform="matrix(0.0, -0.0344, 0.0304, 0.0, 401.5, 25.0)" gradientUnits="userSpaceOnUse" id="gradient4" spreadMethod="pad" x1="-819.2" x2="819.2">
      <stop offset="0.0" stop-color="#aeaeae"/>
      <stop offset="1.0" stop-color="#d9d9d9"/>
    </linearGradient>
    <linearGradient gradientTransform="matrix(0.0, -0.0344, 0.0304, 0.0, 328.5, 25.0)" gradientUnits="userSpaceOnUse" id="gradient5" spreadMethod="pad" x1="-819.2" x2="819.2">
      <stop offset="0.0" stop-color="#aeaeae"/>
      <stop offset="1.0" stop-color="#d9d9d9"/>
    </linearGradient>
    <linearGradient gradientTransform="matrix(0.0, -0.0344, 0.0304, 0.0, 328.5, 25.0)" gradientUnits="userSpaceOnUse" id="gradient6" spreadMethod="pad" x1="-819.2" x2="819.2">
      <stop offset="0.0" stop-color="#888888"/>
      <stop offset="1.0" stop-color="#cccccc"/>
    </linearGradient>
    <linearGradient gradientTransform="matrix(0.0, -0.0344, 0.0304, 0.0, 350.0, 25.0)" gradientUnits="userSpaceOnUse" id="gradient7" spreadMethod="pad" x1="-819.2" x2="819.2">
      <stop offset="0.0" stop-color="#aeaeae"/>
      <stop offset="1.0" stop-color="#d9d9d9"/>
    </linearGradient>
    <linearGradient gradientTransform="matrix(0.0, -0.0344, 0.0304, 0.0, 325.5, 25.0)" gradientUnits="userSpaceOnUse" id="gradient8" spreadMethod="pad" x1="-819.2" x2="819.2">
      <stop offset="0.0" stop-color="#aeaeae"/>
      <stop offset="1.0" stop-color="#d9d9d9"/>
    </linearGradient>
    <linearGradient gradientTransform="matrix(0.0, -0.0344, 0.0304, 0.0, 325.5, 25.0)" gradientUnits="userSpaceOnUse" id="gradient9" spreadMethod="pad" x1="-819.2" x2="819.2">
      <stop offset="0.0" stop-color="#888888"/>
      <stop offset="1.0" stop-color="#cccccc"/>
    </linearGradient>
    <linearGradient gradientTransform="matrix(0.0, -0.0344, 0.0304, 0.0, 372.0, 25.0)" gradientUnits="userSpaceOnUse" id="gradient10" spreadMethod="pad" x1="-819.2" x2="819.2">
      <stop offset="0.0" stop-color="#888888"/>
      <stop offset="1.0" stop-color="#cccccc"/>
    </linearGradient>
  </defs>
</svg>
