<?xml version="1.0" encoding="UTF-8" standalone="no"?>
<svg xmlns:xlink="http://www.w3.org/1999/xlink" height="17.75px" width="18.25px" xmlns="http://www.w3.org/2000/svg">
  <g transform="matrix(1.0, 0.0, 0.0, 1.0, -317.0, -10.05)">
    <path d="M322.4 15.9 L328.9 15.9 328.9 22.95 328.9 27.3 317.5 27.3 317.5 15.9 322.4 15.9" fill="#ffffff" fill-rule="evenodd" stroke="none"/>
    <path d="M328.9 22.95 L328.9 15.9 322.4 15.9 Q322.65 13.9 324.15 12.35 326.0 10.55 328.55 10.55 331.1 10.55 332.9 12.35 334.75 14.2 334.75 16.75 334.75 19.3 332.9 21.1 331.2 22.8 328.9 22.95" fill="#666666" fill-rule="evenodd" stroke="none"/>
    <path d="M322.4 15.9 L328.9 15.9 328.9 22.95 Q331.2 22.8 332.9 21.1 334.75 19.3 334.75 16.75 334.75 14.2 332.9 12.35 331.1 10.55 328.55 10.55 326.0 10.55 324.15 12.35 322.65 13.9 322.4 15.9 L317.5 15.9 317.5 27.3 328.9 27.3 328.9 22.95" fill="none" stroke="#000000" stroke-linecap="round" stroke-linejoin="round" stroke-width="1.0"/>
  </g>
</svg>
