<?xml version="1.0" encoding="UTF-8" standalone="no"?>
<svg xmlns:xlink="http://www.w3.org/1999/xlink" height="17.75px" width="18.25px" xmlns="http://www.w3.org/2000/svg">
  <g transform="matrix(1.0, 0.0, 0.0, 1.0, -356.0, -10.05)">
    <path d="M361.4 15.9 L361.35 16.75 Q361.35 19.3 363.15 21.1 364.35 22.3 365.9 22.75 L367.55 22.95 367.9 22.95 367.9 27.3 356.5 27.3 356.5 15.9 361.4 15.9" fill="#ffffff" fill-rule="evenodd" stroke="none"/>
    <path d="M361.4 15.9 Q361.65 13.9 363.15 12.35 365.0 10.55 367.55 10.55 370.1 10.55 371.9 12.35 373.75 14.2 373.75 16.75 373.75 19.3 371.9 21.1 370.2 22.8 367.9 22.95 L367.55 22.95 365.9 22.75 Q364.35 22.3 363.15 21.1 361.35 19.3 361.35 16.75 L361.4 15.9" fill="#666666" fill-rule="evenodd" stroke="none"/>
    <path d="M367.9 22.95 Q370.2 22.8 371.9 21.1 373.75 19.3 373.75 16.75 373.75 14.2 371.9 12.35 370.1 10.55 367.55 10.55 365.0 10.55 363.15 12.35 361.65 13.9 361.4 15.9 L361.35 16.75 Q361.35 19.3 363.15 21.1 364.35 22.3 365.9 22.75 L367.55 22.95 367.9 22.95 367.9 27.3 356.5 27.3 356.5 15.9 361.4 15.9" fill="none" stroke="#000000" stroke-linecap="round" stroke-linejoin="round" stroke-width="1.0"/>
  </g>
</svg>
