<?xml version="1.0" encoding="UTF-8" standalone="no"?>
<svg xmlns:xlink="http://www.w3.org/1999/xlink" height="19.8px" width="14.15px" xmlns="http://www.w3.org/2000/svg">
  <g transform="matrix(1.0, 0.0, 0.0, 1.0, 0.75, 1.65)">
    <path d="M8.65 7.8 L8.65 3.85 Q8.65 2.95 8.15 2.35 7.6 1.75 6.8 1.75 L5.65 1.75 Q4.9 1.75 4.4 2.35 3.85 2.95 3.85 3.85 L3.85 5.6 1.65 5.6 1.65 2.65 Q1.65 1.2 2.65 0.15 3.7 -0.9 5.15 -0.9 L7.4 -0.9 Q8.85 -0.9 9.85 0.15 10.9 1.2 10.9 2.65 L10.9 7.8 8.65 7.8 10.9 7.8 12.65 7.8 12.65 15.5 Q12.6 17.4 10.7 17.4 L2.0 17.4 Q0.05 17.4 0.0 15.5 L0.0 7.8 8.65 7.8 M5.85 11.45 Q5.7 11.65 5.7 11.9 L5.7 13.75 5.85 14.15 6.3 14.35 6.35 14.35 Q6.6 14.35 6.75 14.15 L6.95 13.75 6.95 11.9 6.75 11.45 6.35 11.3 6.3 11.3 Q6.05 11.3 5.85 11.45" fill="#cccccc" fill-rule="evenodd" stroke="none"/>
    <path d="M10.9 7.8 L10.9 2.65 Q10.9 1.2 9.85 0.15 8.85 -0.9 7.4 -0.9 L5.15 -0.9 Q3.7 -0.9 2.65 0.15 1.65 1.2 1.65 2.65 L1.65 5.6 3.85 5.6 3.85 3.85 Q3.85 2.95 4.4 2.35 4.9 1.75 5.65 1.75 L6.8 1.75 Q7.6 1.75 8.15 2.35 8.65 2.95 8.65 3.85 L8.65 7.8 10.9 7.8 12.65 7.8 12.65 15.5 Q12.6 17.4 10.7 17.4 L2.0 17.4 Q0.05 17.4 0.0 15.5 L0.0 7.8 8.65 7.8" fill="none" stroke="#000000" stroke-linecap="round" stroke-linejoin="round" stroke-width="1.5"/>
    <path d="M5.85 11.45 Q5.7 11.65 5.7 11.9 L5.7 13.75 5.85 14.15 6.3 14.35 6.35 14.35 Q6.6 14.35 6.75 14.15 L6.95 13.75 6.95 11.9 6.75 11.45 6.35 11.3 6.3 11.3 Q6.05 11.3 5.85 11.45" fill="none" stroke="#000000" stroke-linecap="round" stroke-linejoin="round" stroke-width="1.0"/>
  </g>
</svg>
