<?xml version="1.0" encoding="UTF-8" standalone="no"?>
<svg xmlns:xlink="http://www.w3.org/1999/xlink" height="13.25px" width="27.65px" xmlns="http://www.w3.org/2000/svg">
  <g transform="matrix(1.0, 0.0, 0.0, 1.0, 52.8, 18.6)">
    <path d="M-35.1 -15.25 L-31.85 -12.0 -28.6 -15.2 M-28.6 -8.75 L-31.85 -12.0 -35.05 -8.75" fill="none" stroke="#000000" stroke-linecap="round" stroke-linejoin="round" stroke-width="2.0"/>
    <path d="M-40.05 -18.1 L-40.05 -5.85 -52.3 -5.85 -52.3 -18.1 -40.05 -18.1" fill="none" stroke="#000000" stroke-linecap="round" stroke-linejoin="round" stroke-width="1.0"/>
    <path d="M-25.65 -17.1 L-25.65 -18.1 -27.65 -18.1 M-29.65 -18.1 L-31.65 -18.1 M-33.65 -18.1 L-35.65 -18.1 M-25.65 -9.1 L-25.65 -11.1 M-25.65 -13.1 L-25.65 -15.1 M-34.4 -5.85 L-32.4 -5.85 M-30.4 -5.85 L-28.4 -5.85 M-26.4 -5.85 L-25.65 -5.85 -25.65 -7.1 M-37.9 -6.35 L-37.9 -5.85 -36.4 -5.85 M-37.9 -10.35 L-37.9 -8.35 M-37.9 -14.35 L-37.9 -12.35 M-37.65 -18.1 L-37.9 -18.1 -37.9 -16.35" fill="none" stroke="#000000" stroke-linecap="round" stroke-linejoin="round" stroke-width="1.0"/>
  </g>
</svg>
