<?xml version="1.0" encoding="UTF-8" standalone="no"?>
<svg xmlns:xlink="http://www.w3.org/1999/xlink" height="13.25px" width="27.65px" xmlns="http://www.w3.org/2000/svg">
  <g transform="matrix(1.0, 0.0, 0.0, 1.0, 13.8, 18.6)">
    <path d="M7.3 -15.35 L7.3 -11.85 10.8 -11.85 M7.3 -8.35 L7.3 -11.85 3.8 -11.85" fill="none" stroke="#000000" stroke-linecap="round" stroke-linejoin="round" stroke-width="2.0"/>
    <path d="M-13.3 -5.85 L-13.3 -18.1 -1.05 -18.1 -1.05 -5.85 -13.3 -5.85" fill="none" stroke="#000000" stroke-linecap="round" stroke-linejoin="round" stroke-width="1.0"/>
    <path d="M13.35 -17.1 L13.35 -18.1 11.35 -18.1 M13.35 -13.1 L13.35 -15.1 M13.35 -9.1 L13.35 -11.1 M12.6 -5.85 L13.35 -5.85 13.35 -7.1 M4.6 -5.85 L6.6 -5.85 M1.1 -6.35 L1.1 -5.85 2.6 -5.85 M1.1 -10.35 L1.1 -8.35 M1.1 -14.35 L1.1 -12.35 M1.35 -18.1 L1.1 -18.1 1.1 -16.35 M5.35 -18.1 L3.35 -18.1 M8.6 -5.85 L10.6 -5.85 M9.35 -18.1 L7.35 -18.1" fill="none" stroke="#000000" stroke-linecap="round" stroke-linejoin="round" stroke-width="1.0"/>
  </g>
</svg>
