<?xml version="1.0" encoding="UTF-8" standalone="no"?>
<svg xmlns:xlink="http://www.w3.org/1999/xlink" height="19.2px" width="29.25px" xmlns="http://www.w3.org/2000/svg">
  <g transform="matrix(1.0, 0.0, 0.0, 1.0, 14.65, 9.6)">
    <path d="M14.1 -0.95 L5.95 -0.95 5.95 -9.1 14.1 -9.1 14.1 -0.95 M4.05 -9.1 L4.05 -0.95 -4.1 -0.95 -4.1 -9.1 4.05 -9.1 M-14.15 -0.95 L-14.15 -9.1 -6.0 -9.1 -6.0 -0.95 -14.15 -0.95" fill="none" stroke="#000000" stroke-linecap="round" stroke-linejoin="round" stroke-width="1.0"/>
    <path d="M-0.05 7.1 L-0.05 5.05 -2.05 5.05 M-0.05 3.05 L-0.05 5.05 2.0 5.05" fill="none" stroke="#000000" stroke-linecap="round" stroke-linejoin="round" stroke-width="1.5"/>
    <path d="M14.1 1.75 L14.1 0.95 12.1 0.95 M14.1 5.75 L14.1 3.75 M13.45 9.1 L14.1 9.1 14.1 7.75 M9.45 9.1 L11.45 9.1 M10.1 0.95 L8.1 0.95 M-13.9 0.95 L-14.15 0.95 -14.15 2.7 M-14.15 4.7 L-14.15 6.7 M-14.15 8.7 L-14.15 9.1 -12.55 9.1 M2.1 0.95 L0.1 0.95 M6.1 0.95 L4.1 0.95 M-2.55 9.1 L-0.55 9.1 M1.45 9.1 L3.45 9.1 M-9.9 0.95 L-11.9 0.95 M-5.9 0.95 L-7.9 0.95 M-10.55 9.1 L-8.55 9.1 M-6.55 9.1 L-4.55 9.1 M-1.9 0.95 L-3.9 0.95 M5.45 9.1 L7.45 9.1" fill="none" stroke="#000000" stroke-linecap="round" stroke-linejoin="round" stroke-width="1.0"/>
  </g>
</svg>
