<?xml version="1.0" encoding="UTF-8" standalone="no"?>
<svg xmlns:xlink="http://www.w3.org/1999/xlink" height="18.85px" width="22.55px" xmlns="http://www.w3.org/2000/svg">
  <g transform="matrix(1.0, 0.0, 0.0, 1.0, -13.5, -10.05)">
    <path d="M22.5 15.7 L22.5 22.4 25.85 22.4 20.0 28.25 14.15 22.4 17.5 22.4 17.5 13.2 Q17.5 12.15 18.25 11.45 18.95 10.7 20.0 10.7 L32.9 10.7 Q33.95 10.7 34.7 11.45 35.4 12.15 35.4 13.2 L35.4 22.35 30.4 22.35 30.4 15.7 22.5 15.7" fill="#cccccc" fill-rule="evenodd" stroke="none"/>
    <path d="M22.5 15.7 L30.4 15.7 30.4 22.35 35.4 22.35 35.4 13.2 Q35.4 12.15 34.7 11.45 33.95 10.7 32.9 10.7 L20.0 10.7 Q18.95 10.7 18.25 11.45 17.5 12.15 17.5 13.2 L17.5 22.4 14.15 22.4 20.0 28.25 25.85 22.4 22.5 22.4 22.5 15.7 Z" fill="none" stroke="#000000" stroke-linecap="square" stroke-linejoin="round" stroke-width="1.0"/>
  </g>
</svg>
