<?xml version="1.0" encoding="UTF-8" standalone="no"?>
<svg xmlns:xlink="http://www.w3.org/1999/xlink" height="18.85px" width="22.55px" xmlns="http://www.w3.org/2000/svg">
  <g transform="matrix(1.0, 0.0, 0.0, 1.0, -54.7, -10.05)">
    <path d="M68.25 15.7 L68.25 22.4 64.9 22.4 70.75 28.25 76.6 22.4 73.25 22.4 73.25 13.2 Q73.25 12.15 72.5 11.45 71.8 10.7 70.75 10.7 L57.85 10.7 Q56.8 10.7 56.05 11.45 55.35 12.15 55.35 13.2 L55.35 22.35 60.35 22.35 60.35 15.7 68.25 15.7" fill="#cccccc" fill-rule="evenodd" stroke="none"/>
    <path d="M68.25 15.7 L60.35 15.7 60.35 22.35 55.35 22.35 55.35 13.2 Q55.35 12.15 56.05 11.45 56.8 10.7 57.85 10.7 L70.75 10.7 Q71.8 10.7 72.5 11.45 73.25 12.15 73.25 13.2 L73.25 22.4 76.6 22.4 70.75 28.25 64.9 22.4 68.25 22.4 68.25 15.7 Z" fill="none" stroke="#000000" stroke-linecap="square" stroke-linejoin="round" stroke-width="1.0"/>
  </g>
</svg>
