<?xml version="1.0" encoding="UTF-8" standalone="no"?>
<svg xmlns:xlink="http://www.w3.org/1999/xlink" height="12.0px" width="12.0px" xmlns="http://www.w3.org/2000/svg">
  <g transform="matrix(1.0, 0.0, 0.0, 1.0, 0.5, 0.5)">
    <path d="M3.5 11.0 L7.5 11.0 7.5 7.5 11.0 7.5 11.0 3.55 11.0 7.5 7.5 7.5 7.5 11.0 3.5 11.0 3.5 7.55 0.0 7.55 0.0 7.5 0.0 3.55 3.5 3.55 3.5 3.5 3.5 0.0 7.5 0.0 7.5 3.5 7.55 3.5 7.55 3.55 11.0 3.55 11.05 3.55 11.05 7.55 7.55 7.55 7.55 11.1 3.5 11.1 3.5 11.0 M7.55 3.5 L7.5 3.5 7.5 0.0 7.55 0.0 7.55 3.5 M3.5 7.55 L3.5 7.5 0.0 7.5 3.5 7.5 3.5 7.55" fill="#ffffff" fill-rule="evenodd" stroke="none"/>
    <path d="M11.0 3.55 L11.0 7.5 7.5 7.5 7.5 11.0 3.5 11.0 M11.0 3.55 L11.0 3.5 7.55 3.5 M7.5 0.0 L7.5 3.5 7.55 3.5 M7.5 0.0 L3.5 0.0 3.5 3.5 M0.0 3.55 L0.0 7.5 3.5 7.5 3.5 7.55 3.5 11.0 M0.0 3.55 L0.0 3.5 3.5 3.5" fill="none" stroke="#000000" stroke-linecap="round" stroke-linejoin="round" stroke-width="1.0"/>
  </g>
</svg>
