<?xml version="1.0" encoding="UTF-8" standalone="no"?>
<svg xmlns:xlink="http://www.w3.org/1999/xlink" height="22.0px" width="148.0px" xmlns="http://www.w3.org/2000/svg">
  <g transform="matrix(1.0, 0.0, 0.0, 1.0, 0.0, 0.0)">
    <path d="M126.0 21.0 L125.0 21.0 125.0 1.0 126.0 1.0 126.0 21.0" fill="url(#gradient0)" fill-rule="evenodd" stroke="none"/>
    <path d="M126.0 21.0 L144.15 21.0 Q147.0 20.95 147.0 18.0 L147.0 4.0 Q147.0 1.05 144.15 1.0 L126.0 1.0 125.0 1.0 3.9 1.0 Q1.0 1.05 1.0 4.0 L1.0 18.0 Q1.0 20.95 3.9 21.0 L125.0 21.0 126.0 21.0 M144.0 0.0 Q148.0 0.0 148.0 4.0 L148.0 18.0 Q148.0 22.0 144.0 22.0 L4.0 22.0 Q0.0 22.0 0.0 18.0 L0.0 4.0 Q0.0 0.0 4.0 0.0 L144.0 0.0" fill="url(#gradient1)" fill-rule="evenodd" stroke="none"/>
    <path d="M147.0 4.0 L147.0 18.0 Q147.0 20.95 144.15 21.0 L3.9 21.0 Q1.0 20.95 1.0 18.0 L1.0 4.0 Q1.0 1.05 3.9 1.0 L144.15 1.0 Q147.0 1.05 147.0 4.0" fill="url(#gradient2)" fill-rule="evenodd" stroke="none"/>
    <path d="M147.0 12.0 L1.0 12.0 1.0 4.0 Q1.0 1.0 4.0 1.0 L144.0 1.0 Q146.95 1.0 147.0 4.0 L147.0 12.0" fill="url(#gradient3)" fill-rule="evenodd" stroke="none"/>
    <path d="M135.0 12.0 L134.0 12.0 134.0 11.0 133.0 11.0 133.0 10.0 132.0 10.0 132.0 9.0 139.0 9.0 139.0 10.0 138.0 10.0 138.0 11.0 137.0 11.0 137.0 12.0 136.0 12.0 136.0 13.0 135.0 13.0 135.0 12.0" fill="#000000" fill-rule="evenodd" stroke="none"/>
  </g>
  <defs>
    <linearGradient gradientTransform="matrix(0.0, -0.0183, 0.0183, 0.0, 125.65, 15.95)" gradientUnits="userSpaceOnUse" id="gradient0" spreadMethod="pad" x1="-819.2" x2="819.2">
      <stop offset="0.0" stop-color="#585f63"/>
      <stop offset="1.0" stop-color="#b7babc"/>
    </linearGradient>
    <linearGradient gradientTransform="matrix(0.0, -0.0134, 0.0134, 0.0, 137.0, 11.0)" gradientUnits="userSpaceOnUse" id="gradient1" spreadMethod="pad" x1="-819.2" x2="819.2">
      <stop offset="0.0" stop-color="#585f63"/>
      <stop offset="1.0" stop-color="#b7babc"/>
    </linearGradient>
    <linearGradient gradientTransform="matrix(0.0, -0.0134, -0.0134, 0.0, 11.0, 11.0)" gradientUnits="userSpaceOnUse" id="gradient2" spreadMethod="pad" x1="-819.2" x2="819.2">
      <stop offset="0.0" stop-color="#cccccc" stop-opacity="0.4"/>
      <stop offset="1.0" stop-color="#ffffff" stop-opacity="0.6"/>
    </linearGradient>
    <linearGradient gradientTransform="matrix(0.0, -0.0064, 0.0183, 0.0, 61.5, 6.75)" gradientUnits="userSpaceOnUse" id="gradient3" spreadMethod="pad" x1="-819.2" x2="819.2">
      <stop offset="0.0" stop-color="#cccccc" stop-opacity="0.0"/>
      <stop offset="1.0" stop-color="#ffffff" stop-opacity="0.3019608"/>
    </linearGradient>
  </defs>
</svg>
