<?xml version="1.0" encoding="UTF-8" standalone="no"?>
<svg xmlns:xlink="http://www.w3.org/1999/xlink" height="22.0px" width="152.0px" xmlns="http://www.w3.org/2000/svg">
  <g transform="matrix(1.0, 0.0, 0.0, 1.0, 0.0, 0.0)">
    <path d="M151.0 22.0 L151.0 21.0 151.0 1.0 151.0 0.0 152.0 0.0 152.0 22.0 151.0 22.0 M1.0 21.0 L1.0 22.0 0.0 22.0 0.0 1.0 1.0 1.0 1.0 21.0" fill="#c9cbcc" fill-opacity="0.3019608" fill-rule="evenodd" stroke="none"/>
    <path d="M151.0 0.0 L151.0 1.0 1.0 1.0 0.0 1.0 0.0 0.0 151.0 0.0" fill="#6d6f70" fill-opacity="0.3019608" fill-rule="evenodd" stroke="none"/>
    <path d="M151.0 21.0 L151.0 22.0 1.0 22.0 1.0 21.0 151.0 21.0" fill="#d3d5d6" fill-opacity="0.3019608" fill-rule="evenodd" stroke="none"/>
    <path d="M151.0 1.0 L151.0 21.0 1.0 21.0 1.0 1.0 151.0 1.0" fill="#ffffff" fill-opacity="0.3019608" fill-rule="evenodd" stroke="none"/>
  </g>
</svg>
