<?xml version="1.0" encoding="UTF-8" standalone="no"?>
<svg xmlns:xlink="http://www.w3.org/1999/xlink" height="87.6px" width="669.45px" xmlns="http://www.w3.org/2000/svg">
  <g transform="matrix(1.0, 0.0, 0.0, 1.0, -72.7, -32.7)">
    <path d="M74.0 119.0 L74.0 34.05 222.0 34.05 222.0 119.0 74.0 119.0" fill="#cccccc" fill-rule="evenodd" stroke="none"/>
    <path d="M74.0 119.0 L74.0 34.05 222.0 34.05 222.0 119.0 74.0 119.0 Z" fill="none" stroke="#000000" stroke-linecap="square" stroke-linejoin="miter" stroke-miterlimit="3.0" stroke-width="2.0"/>
    <path d="M231.0 118.95 L231.0 34.0 359.0 34.0 359.0 118.95 231.0 118.95" fill="#cccccc" fill-rule="evenodd" stroke="none"/>
    <path d="M231.0 118.95 L231.0 34.0 359.0 34.0 359.0 118.95 231.0 118.95 Z" fill="none" stroke="#000000" stroke-linecap="square" stroke-linejoin="miter" stroke-miterlimit="3.0" stroke-width="2.0"/>
    <path d="M368.0 118.95 L368.0 34.0 496.0 34.0 496.0 118.95 368.0 118.95" fill="#cccccc" fill-rule="evenodd" stroke="none"/>
    <path d="M368.0 118.95 L368.0 34.0 496.0 34.0 496.0 118.95 368.0 118.95 Z" fill="none" stroke="#000000" stroke-linecap="square" stroke-linejoin="miter" stroke-miterlimit="3.0" stroke-width="2.0"/>
    <path d="M505.05 118.95 L505.05 34.0 633.05 34.0 633.05 118.95 505.05 118.95" fill="#cccccc" fill-rule="evenodd" stroke="none"/>
    <path d="M505.05 118.95 L505.05 34.0 633.05 34.0 633.05 118.95 505.05 118.95 Z" fill="none" stroke="#000000" stroke-linecap="square" stroke-linejoin="miter" stroke-miterlimit="3.0" stroke-width="2.0"/>
    <path d="M641.85 119.0 L641.85 34.0 740.85 34.0 740.85 119.0 641.85 119.0" fill="#cccccc" fill-rule="evenodd" stroke="none"/>
    <path d="M641.85 119.0 L641.85 34.0 740.85 34.0 740.85 119.0 641.85 119.0 Z" fill="none" stroke="#000000" stroke-linecap="square" stroke-linejoin="miter" stroke-miterlimit="3.0" stroke-width="2.0"/>
  </g>
</svg>
