<?xml version="1.0" encoding="UTF-8" standalone="no"?>
<svg xmlns:xlink="http://www.w3.org/1999/xlink" height="55.0px" width="108.0px" xmlns="http://www.w3.org/2000/svg">
  <g transform="matrix(1.0, 0.0, 0.0, 1.0, 4.05, 3.5)">
    <path d="M103.95 -3.5 L103.95 51.5 -4.05 51.5 -4.05 -3.5 103.95 -3.5" fill="#010101" fill-opacity="0.0" fill-rule="evenodd" stroke="none"/>
    <path d="M100.0 48.0 L78.0 48.0 78.0 26.0 100.0 26.0 100.0 48.0 M100.0 22.0 L78.0 22.0 78.0 0.0 100.0 0.0 100.0 22.0 M74.0 22.0 L52.0 22.0 52.0 0.0 74.0 0.0 74.0 22.0 M48.0 22.0 L26.0 22.0 26.0 0.0 48.0 0.0 48.0 22.0 M52.0 26.0 L74.0 26.0 74.0 48.0 52.0 48.0 52.0 26.0 M48.0 48.0 L26.0 48.0 26.0 26.0 48.0 26.0 48.0 48.0 M22.0 22.0 L0.0 22.0 0.0 0.0 22.0 0.0 22.0 22.0 M0.0 26.0 L22.0 26.0 22.0 48.0 0.0 48.0 0.0 26.0" fill="#ffffff" fill-rule="evenodd" stroke="none"/>
    <path d="M100.0 48.0 L78.0 48.0 78.0 26.0 100.0 26.0 100.0 48.0 M100.0 22.0 L78.0 22.0 78.0 0.0 100.0 0.0 100.0 22.0 M74.0 22.0 L52.0 22.0 52.0 0.0 74.0 0.0 74.0 22.0 M48.0 22.0 L26.0 22.0 26.0 0.0 48.0 0.0 48.0 22.0 M52.0 26.0 L74.0 26.0 74.0 48.0 52.0 48.0 52.0 26.0 M48.0 48.0 L26.0 48.0 26.0 26.0 48.0 26.0 48.0 48.0 M22.0 22.0 L0.0 22.0 0.0 0.0 22.0 0.0 22.0 22.0 M0.0 26.0 L22.0 26.0 22.0 48.0 0.0 48.0 0.0 26.0" fill="none" stroke="#000000" stroke-linecap="square" stroke-linejoin="miter" stroke-miterlimit="3.0" stroke-width="1.5"/>
  </g>
</svg>
