<?xml version="1.0" encoding="UTF-8" standalone="no"?>
<svg xmlns:xlink="http://www.w3.org/1999/xlink" height="53.35px" width="47.15px" xmlns="http://www.w3.org/2000/svg">
  <g transform="matrix(1.0, 0.0, 0.0, 1.0, 23.55, 26.75)">
    <path d="M18.15 -2.7 L-18.1 -2.7 Q-18.85 -2.7 -18.85 -2.1 L-18.85 21.4 Q-18.85 22.1 -18.1 22.1 L18.15 22.1 Q18.9 22.1 18.9 21.4 L18.9 -2.1 Q18.9 -2.7 18.15 -2.7 M22.2 -6.45 Q23.1 -6.45 23.1 -5.6 L23.1 25.2 Q23.1 26.1 22.2 26.1 L-22.2 26.1 Q-23.05 26.1 -23.05 25.2 L-23.05 -5.6 Q-23.05 -6.45 -22.2 -6.45 L22.2 -6.45" fill="#cccccc" fill-rule="evenodd" stroke="none"/>
    <path d="M18.15 -2.7 Q18.9 -2.7 18.9 -2.1 L18.9 21.4 Q18.9 22.1 18.15 22.1 L-18.1 22.1 Q-18.85 22.1 -18.85 21.4 L-18.85 -2.1 Q-18.85 -2.7 -18.1 -2.7 L18.15 -2.7" fill="#00ccff" fill-rule="evenodd" stroke="none"/>
    <path d="M18.15 -2.7 L-18.1 -2.7 Q-18.85 -2.7 -18.85 -2.1 L-18.85 21.4 Q-18.85 22.1 -18.1 22.1 L18.15 22.1 Q18.9 22.1 18.9 21.4 L18.9 -2.1 Q18.9 -2.7 18.15 -2.7 M22.2 -6.45 L-22.2 -6.45 Q-23.05 -6.45 -23.05 -5.6 L-23.05 25.2 Q-23.05 26.1 -22.2 26.1 L22.2 26.1 Q23.1 26.1 23.1 25.2 L23.1 -5.6 Q23.1 -6.45 22.2 -6.45" fill="none" stroke="#000000" stroke-linecap="round" stroke-linejoin="round" stroke-width="1.0"/>
    <path d="M0.0 -26.25 L12.1 -11.0 6.15 -11.0 6.15 3.75 -6.1 3.75 -6.1 -11.0 -12.05 -11.0 0.0 -26.25" fill="#00cc33" fill-rule="evenodd" stroke="none"/>
    <path d="M0.0 -26.25 L12.1 -11.0 6.15 -11.0 6.15 3.75 -6.1 3.75 -6.1 -11.0 -12.05 -11.0 0.0 -26.25 Z" fill="none" stroke="#000000" stroke-linecap="round" stroke-linejoin="round" stroke-width="1.0"/>
  </g>
</svg>
