<?xml version="1.0" encoding="UTF-8" standalone="no"?>
<svg xmlns:xlink="http://www.w3.org/1999/xlink" height="37.85px" width="53.15px" xmlns="http://www.w3.org/2000/svg">
  <g transform="matrix(1.0, 0.0, 0.0, 1.0, 22.15, 20.6)">
    <path d="M31.0 -20.6 L30.1 17.25 -22.15 17.25 -22.15 -20.6 31.0 -20.6" fill="#ffffff" fill-opacity="0.0" fill-rule="evenodd" stroke="none"/>
    <path d="M15.0 -0.35 L15.0 0.35 12.75 0.35 10.0 0.35 7.2 0.35 3.6 0.35 0.0 0.35 -3.6 0.35 -7.2 0.35 -15.0 0.35 -15.0 -0.35 -7.2 -0.35 -3.6 -0.35 0.0 -0.35 3.6 -0.35 7.2 -0.35 15.0 -0.35" fill="#ffffff" fill-rule="evenodd" stroke="none"/>
    <path d="M15.0 -0.35 L15.0 0.35 12.75 0.35 10.0 0.35 7.2 0.35 3.6 0.35 0.0 0.35 -3.6 0.35 -7.2 0.35 -15.0 0.35 -15.0 -0.35 -7.2 -0.35 -3.6 -0.35 0.0 -0.35 3.6 -0.35 7.2 -0.35 15.0 -0.35 Z" fill="none" stroke="#000000" stroke-linecap="round" stroke-linejoin="round" stroke-width="3.0"/>
  </g>
</svg>
