<?xml version="1.0" encoding="UTF-8" standalone="no"?>
<svg xmlns:xlink="http://www.w3.org/1999/xlink" height="17.0px" width="21.7px" xmlns="http://www.w3.org/2000/svg">
  <g transform="matrix(1.0, 0.0, 0.0, 1.0, 6.75, 1.8)">
    <path d="M14.95 -1.8 L14.95 15.2 -6.75 15.2 -6.75 -1.8 14.95 -1.8" fill="#ffffff" fill-opacity="0.0" fill-rule="evenodd" stroke="none"/>
    <path d="M12.65 6.35 Q12.65 8.95 10.8 10.8 L10.3 11.2 Q8.6 12.65 6.35 12.65 3.7 12.65 1.9 10.8 0.0 8.95 0.0 6.35 0.0 3.7 1.9 1.9 3.7 0.0 6.35 0.0 8.55 0.0 10.25 1.35 L10.8 1.9 Q12.65 3.7 12.65 6.35" fill="#ffffff" fill-rule="evenodd" stroke="none"/>
    <path d="M12.65 6.35 Q12.65 8.95 10.8 10.8 L10.3 11.2 Q8.6 12.65 6.35 12.65 3.7 12.65 1.9 10.8 0.0 8.95 0.0 6.35 0.0 3.7 1.9 1.9 3.7 0.0 6.35 0.0 8.55 0.0 10.25 1.35 L10.8 1.9 Q12.65 3.7 12.65 6.35 Z" fill="none" stroke="#000000" stroke-linecap="round" stroke-linejoin="round" stroke-width="1.5"/>
  </g>
</svg>
