<?xml version="1.0" encoding="UTF-8" standalone="no"?>
<svg xmlns:xlink="http://www.w3.org/1999/xlink" height="17.0px" width="21.95px" xmlns="http://www.w3.org/2000/svg">
  <g transform="matrix(1.0, 0.0, 0.0, 1.0, 6.75, 1.8)">
    <path d="M15.2 -1.8 L15.2 15.2 -6.75 15.2 -6.75 -1.8 15.2 -1.8" fill="#ffffff" fill-opacity="0.0" fill-rule="evenodd" stroke="none"/>
    <path d="M11.85 9.35 L10.25 8.95 Q5.55 8.05 0.8 9.4 0.0 8.05 0.0 6.3 0.0 3.7 1.85 1.9 3.65 0.0 6.3 0.0 8.55 0.0 10.25 1.45 L10.75 1.9 Q12.65 3.7 12.65 6.3 12.65 8.0 11.85 9.35" fill="#ffffff" fill-rule="evenodd" stroke="none"/>
    <path d="M0.8 9.4 Q5.55 8.05 10.25 8.95 L11.85 9.35 10.75 10.8 10.25 11.2 Q8.55 12.65 6.3 12.65 3.65 12.65 1.85 10.8 L0.8 9.4" fill="#cccccc" fill-rule="evenodd" stroke="none"/>
    <path d="M11.85 9.35 L10.25 8.95 Q5.55 8.05 0.8 9.4 L1.85 10.8 Q3.65 12.65 6.3 12.65 8.55 12.65 10.25 11.2 L10.75 10.8 11.85 9.35 Q12.65 8.0 12.65 6.3 12.65 3.7 10.75 1.9 L10.25 1.45 Q8.55 0.0 6.3 0.0 3.65 0.0 1.85 1.9 0.0 3.7 0.0 6.3 0.0 8.05 0.8 9.4" fill="none" stroke="#000000" stroke-linecap="round" stroke-linejoin="round" stroke-width="1.5"/>
  </g>
</svg>
