<?xml version="1.0" encoding="UTF-8" standalone="no"?>
<svg xmlns:xlink="http://www.w3.org/1999/xlink" height="12.95px" width="13.0px" xmlns="http://www.w3.org/2000/svg">
  <g transform="matrix(1.0, 0.0, 0.0, 1.0, 0.75, 0.75)">
    <path d="M6.8 4.75 Q6.35 4.35 5.8 4.35 5.2 4.35 4.8 4.75 4.4 5.15 4.35 5.7 L4.35 5.8 Q4.4 6.35 4.8 6.75 5.2 7.2 5.8 7.2 6.35 7.2 6.8 6.75 7.2 6.35 7.2 5.8 7.2 5.15 6.8 4.75 M4.75 0.05 L5.75 0.0 Q8.1 0.0 9.8 1.65 L10.8 2.95 Q11.5 4.2 11.5 5.7 11.5 7.25 10.8 8.5 L9.8 9.75 Q8.1 11.45 5.75 11.45 L4.75 11.4 Q3.0 11.1 1.7 9.75 0.0 8.1 0.0 5.7 0.0 3.35 1.7 1.65 3.0 0.3 4.75 0.05" fill="#ffffff" fill-rule="evenodd" stroke="none"/>
    <path d="M4.75 0.05 L5.75 0.0 Q8.1 0.0 9.8 1.65 L10.8 2.95 Q11.5 4.2 11.5 5.7 11.5 7.25 10.8 8.5 L9.8 9.75 Q8.1 11.45 5.75 11.45 L4.75 11.4 Q3.0 11.1 1.7 9.75 0.0 8.1 0.0 5.7 0.0 3.35 1.7 1.65 3.0 0.3 4.75 0.05 Z" fill="none" stroke="#000000" stroke-linecap="round" stroke-linejoin="round" stroke-width="1.5"/>
  </g>
</svg>
