<?xml version="1.0" encoding="UTF-8" standalone="no"?>
<svg xmlns:xlink="http://www.w3.org/1999/xlink" height="12.95px" width="13.0px" xmlns="http://www.w3.org/2000/svg">
  <g transform="matrix(1.0, 0.0, 0.0, 1.0, 0.75, 0.75)">
    <path d="M5.75 0.0 Q8.15 0.0 9.8 1.65 11.5 3.35 11.5 5.7 11.5 7.7 10.3 9.25 L9.8 9.75 Q8.15 11.45 5.75 11.45 3.35 11.45 1.7 9.75 L1.3 9.35 Q0.0 7.75 0.0 5.7 L0.0 5.6 Q0.05 3.3 1.7 1.65 3.35 0.0 5.75 0.0 M8.5 3.05 Q7.45 1.95 5.9 1.9 4.35 1.95 3.25 3.05 2.15 4.15 2.05 5.6 L2.05 5.9 Q2.15 7.35 3.25 8.4 4.35 9.55 5.9 9.55 7.45 9.55 8.5 8.4 9.6 7.35 9.65 5.9 L9.65 5.75 Q9.65 4.2 8.5 3.05" fill="#ffffff" fill-rule="evenodd" stroke="none"/>
    <path d="M8.5 3.05 Q9.65 4.2 9.65 5.75 L9.65 5.9 Q9.6 7.35 8.5 8.4 7.45 9.55 5.9 9.55 4.35 9.55 3.25 8.4 2.15 7.35 2.05 5.9 L2.05 5.6 Q2.15 4.15 3.25 3.05 4.35 1.95 5.9 1.9 7.45 1.95 8.5 3.05" fill="#000000" fill-rule="evenodd" stroke="none"/>
    <path d="M5.75 0.0 Q8.15 0.0 9.8 1.65 11.5 3.35 11.5 5.7 11.5 7.7 10.3 9.25 L9.8 9.75 Q8.15 11.45 5.75 11.45 3.35 11.45 1.7 9.75 L1.3 9.35 Q0.0 7.75 0.0 5.7 L0.0 5.6 Q0.05 3.3 1.7 1.65 3.35 0.0 5.75 0.0 Z" fill="none" stroke="#000000" stroke-linecap="round" stroke-linejoin="round" stroke-width="1.5"/>
  </g>
</svg>
