<?xml version="1.0" encoding="UTF-8" standalone="no"?>
<svg xmlns:xlink="http://www.w3.org/1999/xlink" height="43.0px" width="25.4px" xmlns="http://www.w3.org/2000/svg">
  <g transform="matrix(1.0, 0.0, 0.0, 1.0, 1.0, 1.0)">
    <path d="M23.4 41.0 L0.0 41.0 0.0 0.0 23.4 0.0 23.4 41.0" fill="#ffffff" fill-rule="evenodd" stroke="none"/>
    <path d="M23.4 41.0 L0.0 41.0 0.0 0.0 23.4 0.0 23.4 41.0 Z" fill="none" stroke="#000000" stroke-linecap="round" stroke-linejoin="round" stroke-width="2.0"/>
    <path d="M12.65 11.2 L12.65 20.45 15.0 12.0 17.25 13.05 14.9 22.7 15.55 24.0 18.7 20.4 20.4 21.85 17.45 26.95 13.55 30.2 9.75 30.2 7.45 27.45 3.0 18.1 4.0 15.9 7.4 20.85 6.35 12.0 8.65 11.55 10.1 19.8 10.6 10.85 12.65 11.2" fill="#ffffff" fill-rule="evenodd" stroke="none"/>
    <path d="M12.65 11.2 L12.65 20.45 15.0 12.0 17.25 13.05 14.9 22.7 15.55 24.0 18.7 20.4 20.4 21.85 17.45 26.95 13.55 30.2 9.75 30.2 7.45 27.45 3.0 18.1 4.0 15.9 7.4 20.85 6.35 12.0 8.65 11.55 10.1 19.8 10.6 10.85 12.65 11.2 Z" fill="none" stroke="#000000" stroke-linecap="round" stroke-linejoin="round" stroke-width="1.0"/>
  </g>
</svg>
