<?xml version="1.0" encoding="UTF-8" standalone="no"?>
<svg xmlns:xlink="http://www.w3.org/1999/xlink" height="43.0px" width="25.4px" xmlns="http://www.w3.org/2000/svg">
  <g transform="matrix(1.0, 0.0, 0.0, 1.0, 1.0, 1.0)">
    <path d="M23.4 0.0 L23.4 41.0 0.0 41.0 0.0 0.0 23.4 0.0" fill="#ffffff" fill-rule="evenodd" stroke="none"/>
    <path d="M23.4 0.0 L0.0 0.0 0.0 41.0 23.4 41.0 23.4 0.0 Z" fill="none" stroke="#000000" stroke-linecap="round" stroke-linejoin="round" stroke-width="2.0"/>
    <path d="M10.75 11.2 L12.8 10.85 13.3 19.8 14.75 11.55 17.05 12.0 16.0 20.85 19.4 15.9 20.4 18.1 15.95 27.45 13.65 30.2 9.85 30.2 5.95 26.95 3.0 21.85 4.7 20.4 7.85 24.0 8.5 22.7 6.15 13.05 8.4 12.0 10.75 20.45 10.75 11.2" fill="#ffffff" fill-rule="evenodd" stroke="none"/>
    <path d="M10.75 11.2 L10.75 20.45 8.4 12.0 6.15 13.05 8.5 22.7 7.85 24.0 4.7 20.4 3.0 21.85 5.95 26.95 9.85 30.2 13.65 30.2 15.95 27.45 20.4 18.1 19.4 15.9 16.0 20.85 17.05 12.0 14.75 11.55 13.3 19.8 12.8 10.85 10.75 11.2 Z" fill="none" stroke="#000000" stroke-linecap="round" stroke-linejoin="round" stroke-width="1.0"/>
  </g>
</svg>
