<?xml version="1.0" encoding="UTF-8" standalone="no"?>
<svg xmlns:xlink="http://www.w3.org/1999/xlink" height="28.85px" width="26.5px" xmlns="http://www.w3.org/2000/svg">
  <g transform="matrix(1.0, 0.0, 0.0, 1.0, 1.0, 1.0)">
    <path d="M10.85 6.15 L11.0 6.4 11.25 6.5 11.5 6.4 11.6 6.15 11.5 5.9 11.25 5.75 Q11.1 5.75 11.0 5.9 L10.85 6.15 11.0 5.9 Q11.1 5.75 11.25 5.75 L11.5 5.9 11.6 6.15 11.5 6.4 11.25 6.5 11.0 6.4 10.85 6.15 M13.4 6.15 L13.5 6.4 13.75 6.5 14.05 6.4 14.15 6.15 14.05 5.9 13.75 5.75 Q13.6 5.75 13.5 5.9 L13.4 6.15 13.5 5.9 Q13.6 5.75 13.75 5.75 L14.05 5.9 14.15 6.15 14.05 6.4 13.75 6.5 13.5 6.4 13.4 6.15 M9.7 24.45 L11.55 24.35 11.55 18.4 12.4 18.4 12.4 11.4 13.9 11.4 14.75 18.85 13.9 11.4 12.4 11.4 12.4 18.4 13.15 18.4 13.15 24.35 15.0 24.45 13.15 24.35 13.15 18.4 12.4 18.4 11.55 18.4 11.55 24.35 9.7 24.45 M12.4 9.8 L12.5 9.8 Q13.9 9.8 14.9 8.8 15.9 7.8 15.9 6.45 15.9 5.0 14.9 4.05 13.9 3.05 12.5 3.05 11.1 3.05 10.15 4.05 9.15 5.0 9.15 6.45 9.15 7.8 10.15 8.8 11.1 9.75 12.4 9.8 L12.4 11.4 10.85 11.4 9.95 18.85 10.85 11.4 12.4 11.4 12.4 9.8 Q11.1 9.75 10.15 8.8 9.15 7.8 9.15 6.45 9.15 5.0 10.15 4.05 11.1 3.05 12.5 3.05 13.9 3.05 14.9 4.05 15.9 5.0 15.9 6.45 15.9 7.8 14.9 8.8 13.9 9.8 12.5 9.8 L12.4 9.8 M24.5 0.0 L24.5 26.85 0.0 26.85 0.0 0.0 24.5 0.0" fill="#ffffff" fill-rule="evenodd" stroke="none"/>
    <path d="M13.4 6.15 L13.5 5.9 Q13.6 5.75 13.75 5.75 L14.05 5.9 14.15 6.15 14.05 6.4 13.75 6.5 13.5 6.4 13.4 6.15 M10.85 6.15 L11.0 5.9 Q11.1 5.75 11.25 5.75 L11.5 5.9 11.6 6.15 11.5 6.4 11.25 6.5 11.0 6.4 10.85 6.15" fill="none" stroke="#000000" stroke-linecap="round" stroke-linejoin="round" stroke-width="1.0"/>
    <path d="M9.95 18.85 L10.85 11.4 12.4 11.4 12.4 9.8 Q11.1 9.75 10.15 8.8 9.15 7.8 9.15 6.45 9.15 5.0 10.15 4.05 11.1 3.05 12.5 3.05 13.9 3.05 14.9 4.05 15.9 5.0 15.9 6.45 15.9 7.8 14.9 8.8 13.9 9.8 12.5 9.8 L12.4 9.8 M14.75 18.85 L13.9 11.4 12.4 11.4 12.4 18.4 13.15 18.4 13.15 24.35 15.0 24.45 M12.4 18.4 L11.55 18.4 11.55 24.35 9.7 24.45" fill="none" stroke="#000000" stroke-linecap="round" stroke-linejoin="round" stroke-width="1.5"/>
    <path d="M24.5 0.0 L24.5 26.85 0.0 26.85 0.0 0.0 24.5 0.0" fill="none" stroke="#000000" stroke-linecap="round" stroke-linejoin="round" stroke-width="2.0"/>
  </g>
</svg>
