<?xml version="1.0" encoding="UTF-8" standalone="no"?>
<svg xmlns:xlink="http://www.w3.org/1999/xlink" height="26.95px" width="27.15px" xmlns="http://www.w3.org/2000/svg">
  <g transform="matrix(1.0, 0.0, 0.0, 1.0, 13.55, 13.45)">
    <path d="M10.7 -7.7 L11.75 -4.45 Q12.15 -2.6 12.1 -0.6 12.1 1.15 11.6 2.75 L10.45 5.5 8.55 7.9 6.15 9.85 3.4 11.25 Q1.75 11.95 0.05 12.0 L-3.5 11.55 -6.35 10.25 -8.85 8.25 Q-10.15 6.95 -10.85 5.65 -11.5 4.4 -11.8 2.85 -12.1 1.25 -12.05 -0.6 -12.0 -2.2 -11.55 -3.6 L-10.4 -6.05 Q-9.75 -7.0 -8.5 -8.0 L-6.15 -9.45 -3.2 -10.2 0.35 -10.75 4.15 -11.65 7.4 -11.8 Q8.4 -11.5 9.4 -10.15 L10.7 -7.7" fill="#ffffff" fill-rule="evenodd" stroke="none"/>
    <path d="M1.9 -1.85 Q2.7 -1.05 2.7 0.05 2.7 1.1 1.9 1.9 1.1 2.7 0.05 2.7 -1.05 2.7 -1.85 1.9 -2.6 1.1 -2.6 0.05 -2.6 -1.05 -1.85 -1.85 -1.05 -2.65 0.05 -2.6 1.1 -2.65 1.9 -1.85" fill="#000000" fill-rule="evenodd" stroke="none"/>
    <path d="M10.7 -7.7 L11.75 -4.45 Q12.15 -2.6 12.1 -0.6 12.1 1.15 11.6 2.75 L10.45 5.5 8.55 7.9 6.15 9.85 3.4 11.25 Q1.75 11.95 0.05 12.0 L-3.5 11.55 -6.35 10.25 -8.85 8.25 Q-10.15 6.95 -10.85 5.65 -11.5 4.4 -11.8 2.85 -12.1 1.25 -12.05 -0.6 -12.0 -2.2 -11.55 -3.6 L-10.4 -6.05 Q-9.75 -7.0 -8.5 -8.0 L-6.15 -9.45 -3.2 -10.2 0.35 -10.75 4.15 -11.65 7.4 -11.8 Q8.4 -11.5 9.4 -10.15 L10.7 -7.7 Z" fill="none" stroke="#000000" stroke-linecap="round" stroke-linejoin="round" stroke-width="3.0"/>
  </g>
</svg>
