<?xml version="1.0" encoding="UTF-8" standalone="no"?>
<svg xmlns:xlink="http://www.w3.org/1999/xlink" height="26.0px" width="27.25px" xmlns="http://www.w3.org/2000/svg">
  <g transform="matrix(1.0, 0.0, 0.0, 1.0, 13.6, 13.0)">
    <path d="M12.05 -0.6 Q12.4 0.9 11.65 2.55 L10.15 5.1 8.15 7.5 5.75 9.5 3.15 10.85 Q1.6 11.45 0.0 11.5 L-3.4 11.05 -6.15 9.85 Q-7.35 9.15 -8.55 7.95 L-10.45 5.5 Q-11.25 4.15 -11.65 2.75 L-12.1 -0.6 -11.65 -3.95 Q-11.25 -5.35 -10.45 -6.7 L-8.6 -9.2 -6.15 -11.05 -3.6 -11.5 -0.6 -11.1 Q0.65 -10.8 1.85 -10.15 L3.75 -8.85 5.9 -6.7 7.95 -4.45 10.3 -2.9 Q11.75 -1.9 12.05 -0.6" fill="#ffffff" fill-rule="evenodd" stroke="none"/>
    <path d="M1.9 -1.85 Q2.7 -1.05 2.7 0.05 2.7 1.1 1.9 1.9 1.1 2.7 0.05 2.7 -1.05 2.7 -1.85 1.9 -2.6 1.1 -2.6 0.05 -2.6 -1.05 -1.85 -1.85 -1.05 -2.65 0.05 -2.6 1.1 -2.65 1.9 -1.85" fill="#000000" fill-rule="evenodd" stroke="none"/>
    <path d="M12.05 -0.6 Q12.4 0.9 11.65 2.55 L10.15 5.1 8.15 7.5 5.75 9.5 3.15 10.85 Q1.6 11.45 0.0 11.5 L-3.4 11.05 -6.15 9.85 Q-7.35 9.15 -8.55 7.95 L-10.45 5.5 Q-11.25 4.15 -11.65 2.75 L-12.1 -0.6 -11.65 -3.95 Q-11.25 -5.35 -10.45 -6.7 L-8.6 -9.2 -6.15 -11.05 -3.6 -11.5 -0.6 -11.1 Q0.65 -10.8 1.85 -10.15 L3.75 -8.85 5.9 -6.7 7.95 -4.45 10.3 -2.9 Q11.75 -1.9 12.05 -0.6 Z" fill="none" stroke="#000000" stroke-linecap="round" stroke-linejoin="round" stroke-width="3.0"/>
  </g>
</svg>
