<?xml version="1.0" encoding="UTF-8" standalone="no"?>
<svg xmlns:xlink="http://www.w3.org/1999/xlink" height="45.1px" width="43.95px" xmlns="http://www.w3.org/2000/svg">
  <g transform="matrix(1.0, 0.0, 0.0, 1.0, 7.85, 9.9)">
    <path d="M36.1 -9.9 L36.1 35.2 -7.85 35.2 -7.85 -9.9 36.1 -9.9" fill="#ffffff" fill-opacity="0.0" fill-rule="evenodd" stroke="none"/>
    <path d="M28.3 14.15 Q28.3 20.0 24.15 24.15 20.0 28.3 14.15 28.3 8.3 28.3 4.1 24.15 0.0 20.0 0.0 14.15 0.0 8.3 4.1 4.1 6.45 1.8 9.3 0.8 11.55 0.0 14.15 0.0 16.75 0.0 19.0 0.8 21.85 1.8 24.15 4.1 28.3 8.3 28.3 14.15 M16.45 8.55 Q18.35 6.3 20.05 6.8 18.35 6.3 16.45 8.55 M11.4 8.55 Q9.5 6.3 7.8 6.8 9.5 6.3 11.4 8.55" fill="#ffffff" fill-rule="evenodd" stroke="none"/>
    <path d="M28.3 14.15 Q28.3 20.0 24.15 24.15 20.0 28.3 14.15 28.3 8.3 28.3 4.1 24.15 0.0 20.0 0.0 14.15 0.0 8.3 4.1 4.1 6.45 1.8 9.3 0.8 11.55 0.0 14.15 0.0 16.75 0.0 19.0 0.8 21.85 1.8 24.15 4.1 28.3 8.3 28.3 14.15" fill="none" stroke="#000000" stroke-linecap="round" stroke-linejoin="round" stroke-width="1.5"/>
    <path d="M7.8 6.8 Q9.5 6.3 11.4 8.55 M20.05 6.8 Q18.35 6.3 16.45 8.55" fill="none" stroke="#000000" stroke-linecap="round" stroke-linejoin="round" stroke-width="1.0"/>
  </g>
</svg>
