<?xml version="1.0" encoding="UTF-8" standalone="no"?>
<svg xmlns:xlink="http://www.w3.org/1999/xlink" height="46.8px" width="47.75px" xmlns="http://www.w3.org/2000/svg">
  <g transform="matrix(1.0, 0.0, 0.0, 1.0, 11.4, 10.2)">
    <path d="M36.35 -10.2 L36.35 36.6 -11.4 36.6 -11.4 -10.2 36.35 -10.2" fill="#ffffff" fill-opacity="0.0" fill-rule="evenodd" stroke="none"/>
    <path d="M24.15 24.15 Q20.0 28.3 14.15 28.3 8.3 28.3 4.1 24.15 0.0 20.0 0.0 14.15 0.0 8.3 4.1 4.1 8.3 0.0 14.15 0.0 20.0 0.0 24.15 4.1 28.3 8.3 28.3 14.15 28.3 20.0 24.15 24.15 M16.45 8.55 Q18.35 6.3 20.05 6.8 18.35 6.3 16.45 8.55 M11.4 8.55 Q9.5 6.3 7.8 6.8 9.5 6.3 11.4 8.55" fill="#ffffff" fill-rule="evenodd" stroke="none"/>
    <path d="M24.15 24.15 Q20.0 28.3 14.15 28.3 8.3 28.3 4.1 24.15 0.0 20.0 0.0 14.15 0.0 8.3 4.1 4.1 8.3 0.0 14.15 0.0 20.0 0.0 24.15 4.1 28.3 8.3 28.3 14.15 28.3 20.0 24.15 24.15" fill="none" stroke="#000000" stroke-linecap="round" stroke-linejoin="round" stroke-width="1.5"/>
    <path d="M7.8 6.8 Q9.5 6.3 11.4 8.55 M20.05 6.8 Q18.35 6.3 16.45 8.55" fill="none" stroke="#000000" stroke-linecap="round" stroke-linejoin="round" stroke-width="1.0"/>
  </g>
</svg>
