<?xml version="1.0" encoding="UTF-8" standalone="no"?>
<svg xmlns:xlink="http://www.w3.org/1999/xlink" height="8.3px" width="32.5px" xmlns="http://www.w3.org/2000/svg">
  <g transform="matrix(1.0, 0.0, 0.0, 1.0, -463.8, -299.8)">
    <path d="M479.9 302.0 L476.3 302.35 472.7 303.2 Q471.7 303.45 470.1 304.25 L467.55 305.45 465.4 306.6 465.4 306.4 465.35 306.35 465.35 306.1 465.3 306.0 465.3 305.9 467.45 304.75 470.0 303.55 472.6 302.5 476.25 301.65 479.9 301.3 483.6 301.7 487.25 302.6 Q488.3 302.85 489.95 303.6 L492.6 304.75 494.8 305.8 494.8 306.1 494.75 306.15 494.75 306.35 494.7 306.45 494.7 306.5 492.5 305.45 489.85 304.3 487.15 303.3 483.55 302.4 479.9 302.0" fill="#ffffff" fill-rule="evenodd" stroke="none"/>
    <path d="M479.9 302.0 L476.3 302.35 472.7 303.2 Q471.7 303.45 470.1 304.25 L467.55 305.45 465.4 306.6 465.4 306.4 465.35 306.35 465.35 306.1 465.3 306.0 465.3 305.9 467.45 304.75 470.0 303.55 472.6 302.5 476.25 301.65 479.9 301.3 483.6 301.7 487.25 302.6 Q488.3 302.85 489.95 303.6 L492.6 304.75 494.8 305.8 494.8 306.1 494.75 306.15 494.75 306.35 494.7 306.45 494.7 306.5 492.5 305.45 489.85 304.3 487.15 303.3 483.55 302.4 479.9 302.0 Z" fill="none" stroke="#000000" stroke-linecap="round" stroke-linejoin="round" stroke-width="3.0"/>
  </g>
</svg>
