<?xml version="1.0" encoding="UTF-8" standalone="no"?>
<svg xmlns:xlink="http://www.w3.org/1999/xlink" height="7.3px" width="7.35px" xmlns="http://www.w3.org/2000/svg">
  <g transform="matrix(1.0, 0.0, 0.0, 1.0, 3.65, 21.15)">
    <path d="M2.95 -17.5 L2.95 -17.25 Q2.85 -16.15 2.05 -15.45 1.25 -14.6 0.0 -14.6 -1.2 -14.6 -2.1 -15.45 -2.8 -16.15 -2.9 -17.2 L-2.9 -17.5 Q-2.9 -18.7 -2.1 -19.6 -1.2 -20.4 0.0 -20.4 1.25 -20.4 2.05 -19.6 2.95 -18.7 2.95 -17.5" fill="#cccccc" fill-rule="evenodd" stroke="none"/>
    <path d="M2.95 -17.5 L2.95 -17.25 Q2.85 -16.15 2.05 -15.45 1.25 -14.6 0.0 -14.6 -1.2 -14.6 -2.1 -15.45 -2.8 -16.15 -2.9 -17.2 L-2.9 -17.5 Q-2.9 -18.7 -2.1 -19.6 -1.2 -20.4 0.0 -20.4 1.25 -20.4 2.05 -19.6 2.95 -18.7 2.95 -17.5 Z" fill="none" stroke="#000000" stroke-linecap="round" stroke-linejoin="round" stroke-width="1.5"/>
  </g>
</svg>
