<?xml version="1.0" encoding="UTF-8" standalone="no"?>
<svg xmlns:xlink="http://www.w3.org/1999/xlink" height="57.3px" width="19.05px" xmlns="http://www.w3.org/2000/svg">
  <g transform="matrix(1.0, 0.0, 0.0, 1.0, 0.75, 0.75)">
    <path d="M11.4 7.4 Q11.65 7.1 12.05 7.1 12.45 7.1 12.75 7.4 L13.05 8.05 12.75 8.75 12.05 9.05 Q11.65 9.05 11.4 8.75 11.1 8.45 11.1 8.05 11.1 7.65 11.4 7.4 M4.5 8.05 Q4.5 7.65 4.8 7.4 5.05 7.1 5.45 7.1 L6.15 7.4 6.45 8.05 6.15 8.75 5.45 9.05 Q5.05 9.05 4.8 8.75 4.5 8.45 4.5 8.05" fill="none" stroke="#000000" stroke-linecap="round" stroke-linejoin="round" stroke-width="1.0"/>
    <path d="M2.1 41.2 L4.4 21.8 8.5 21.8 8.5 17.6 Q5.05 17.5 2.6 15.0 0.0 12.4 0.0 8.85 0.0 5.15 2.6 2.65 5.15 0.0 8.75 0.0 12.45 0.0 15.0 2.65 17.55 5.15 17.55 8.85 17.55 12.4 15.0 15.0 12.45 17.6 8.75 17.6 L8.5 17.6 M14.65 41.2 L12.35 21.8 8.5 21.8 8.5 40.0 10.5 40.0 10.5 55.6 15.3 55.8 M8.5 40.0 L6.3 40.0 6.3 55.6 1.5 55.8" fill="none" stroke="#000000" stroke-linecap="round" stroke-linejoin="round" stroke-width="1.5"/>
  </g>
</svg>
