<?xml version="1.0" encoding="UTF-8" standalone="no"?>
<svg xmlns:xlink="http://www.w3.org/1999/xlink" height="15.4px" width="21.65px" xmlns="http://www.w3.org/2000/svg">
  <g transform="matrix(1.0, 0.0, 0.0, 1.0, -11.3, 1.0)">
    <path d="M25.3 8.6 L22.0 3.7 17.35 10.95 26.9 10.95 25.3 8.6 M31.95 13.25 L31.95 14.4 12.3 14.4 12.3 13.25 13.3 13.25 13.3 0.0 30.95 0.0 30.95 13.25 31.95 13.25" fill="#cccccc" fill-rule="evenodd" stroke="none"/>
    <path d="M25.3 8.6 L26.9 10.95 17.35 10.95 22.0 3.7 25.3 8.6" fill="#ffffff" fill-rule="evenodd" stroke="none"/>
    <path d="M25.3 8.6 L26.9 10.95 17.35 10.95 22.0 3.7 25.3 8.6 M12.3 13.25 L13.3 13.25 13.3 0.0 30.95 0.0 30.95 13.25 31.95 13.25" fill="none" stroke="#000000" stroke-linecap="round" stroke-linejoin="round" stroke-width="2.0"/>
  </g>
</svg>
