<?xml version="1.0" encoding="UTF-8" standalone="no"?>
<svg xmlns:xlink="http://www.w3.org/1999/xlink" height="14.0px" width="14.0px" xmlns="http://www.w3.org/2000/svg">
  <g transform="matrix(1.0, 0.0, 0.0, 1.0, 7.0, 7.0)">
    <path d="M4.95 -4.95 Q7.0 -2.9 7.0 0.0 7.0 2.9 4.95 4.95 2.9 7.0 0.0 7.0 -2.85 7.0 -4.95 4.95 -7.0 2.9 -7.0 0.0 -7.0 -2.9 -4.95 -4.95 -2.85 -7.0 0.0 -7.0 2.9 -7.0 4.95 -4.95" fill="#ffffff" fill-opacity="0.0" fill-rule="evenodd" stroke="none"/>
    <path d="M3.5 -3.5 L1.3 -5.65 5.65 -5.65 5.65 -1.3 3.5 -3.5 M3.45 3.45 L5.65 1.25 5.65 5.65 1.3 5.6 3.45 3.45 M-3.45 -3.45 L-5.6 -1.3 -5.65 -5.65 -1.25 -5.65 -3.45 -3.45 M-3.45 3.45 L-1.3 5.6 -5.6 5.6 -5.6 1.3 -3.45 3.45" fill="#ffffff" fill-rule="evenodd" stroke="none"/>
    <path d="M3.5 -3.5 L0.0 0.0 3.45 3.45 M-3.45 -3.45 L0.0 0.0 -3.45 3.45" fill="none" stroke="#ffffff" stroke-linecap="round" stroke-linejoin="round" stroke-width="2.5"/>
  </g>
</svg>
