<?xml version="1.0" encoding="UTF-8" standalone="no"?>
<svg xmlns:xlink="http://www.w3.org/1999/xlink" height="188.2px" width="108.5px" xmlns="http://www.w3.org/2000/svg">
  <g transform="matrix(1.0, 0.0, 0.0, 1.0, -87.2, -121.3)">
    <path d="M95.55 215.3 Q95.3 205.8 94.65 195.25 94.1 182.4 95.85 175.4 97.7 168.1 106.2 153.25 113.45 140.6 114.4 139.8 L146.25 132.9 174.25 144.35 170.4 159.65 Q166.6 176.4 166.9 183.95 167.15 191.2 171.05 203.45 L177.15 222.7" fill="none" stroke="#000000" stroke-linecap="round" stroke-linejoin="round" stroke-width="4.0"/>
    <path d="M103.3 226.55 Q102.25 229.35 99.6 229.8 96.1 230.4 93.25 228.6 90.35 226.8 89.45 223.4 88.65 220.3 90.5 217.55 92.35 214.8 95.55 214.3 98.4 213.8 100.65 215.9 102.65 217.8 103.5 221.0 104.3 223.95 103.3 226.55" fill="#ffffff" fill-rule="evenodd" stroke="none"/>
    <path d="M103.3 226.55 Q102.25 229.35 99.6 229.8 96.1 230.4 93.25 228.6 90.35 226.8 89.45 223.4 88.65 220.3 90.5 217.55 92.35 214.8 95.55 214.3 98.4 213.8 100.65 215.9 102.65 217.8 103.5 221.0 104.3 223.95 103.3 226.55 Z" fill="none" stroke="#000000" stroke-linecap="round" stroke-linejoin="round" stroke-width="4.0"/>
    <path d="M182.9 222.75 Q185.4 224.85 185.65 228.05 185.95 231.5 183.95 234.1 181.9 236.8 178.55 237.25 175.75 237.65 173.65 235.35 171.7 233.2 171.45 230.05 171.2 226.75 172.65 224.25 174.3 221.55 177.25 221.1 180.4 220.7 182.9 222.75" fill="#ffffff" fill-rule="evenodd" stroke="none"/>
    <path d="M182.9 222.75 Q185.4 224.85 185.65 228.05 185.95 231.5 183.95 234.1 181.9 236.8 178.55 237.25 175.75 237.65 173.65 235.35 171.7 233.2 171.45 230.05 171.2 226.75 172.65 224.25 174.3 221.55 177.25 221.1 180.4 220.7 182.9 222.75 Z" fill="none" stroke="#000000" stroke-linecap="round" stroke-linejoin="round" stroke-width="4.0"/>
    <path d="M145.25 123.3 L144.75 132.75 144.75 132.6 142.9 145.0 140.85 157.4 137.8 169.5 Q135.65 177.5 135.1 181.7 134.6 185.8 134.75 192.15 L135.25 202.6 Q135.5 206.25 136.65 214.5 L137.75 222.05" fill="none" stroke="#000000" stroke-linecap="round" stroke-linejoin="round" stroke-width="4.0"/>
    <path d="M168.5 302.2 L159.15 279.5 Q153.15 264.95 149.15 257.1 145.65 250.35 136.4 235.85 L127.75 222.7 132.75 222.35 137.75 222.05" fill="none" stroke="#000000" stroke-linecap="round" stroke-linejoin="round" stroke-width="4.0"/>
    <path d="M137.75 222.05 L146.9 221.2 152.7 220.7 Q153.4 222.85 153.4 236.65 153.35 253.9 149.95 260.6 146.05 268.3 133.85 278.65 117.2 292.75 115.2 294.9 114.45 295.7 113.5 298.05 L112.8 300.25 116.65 302.85 Q120.9 305.55 123.05 306.15 L129.85 307.15 136.8 307.5" fill="none" stroke="#000000" stroke-linecap="round" stroke-linejoin="round" stroke-width="4.0"/>
    <path d="M193.7 291.0 L188.4 296.0 Q185.05 299.15 182.95 300.7 181.05 302.05 176.45 304.55 L172.2 306.75 170.75 305.0 168.5 302.2" fill="none" stroke="#000000" stroke-linecap="round" stroke-linejoin="round" stroke-width="4.0"/>
  </g>
</svg>
