<?xml version="1.0" encoding="UTF-8" standalone="no"?>
<svg xmlns:xlink="http://www.w3.org/1999/xlink" height="340.1px" width="317.8px" xmlns="http://www.w3.org/2000/svg">
  <g transform="matrix(1.0, 0.0, 0.0, 1.0, 0.0, 0.0)">
    <path d="M317.8 340.1 L0.0 340.1 0.0 0.0 317.8 0.0 317.8 340.1" fill="#ffffff" fill-opacity="0.0" fill-rule="evenodd" stroke="none"/>
    <path d="M106.15 166.75 L124.25 158.1 Q129.45 155.65 133.7 153.9 L130.9 150.75 121.0 138.3 155.0 131.2 168.75 137.5 182.5 143.85 166.95 145.9 Q150.0 148.4 142.8 150.55 138.95 151.7 133.7 153.9 143.0 164.2 148.9 167.1 155.45 170.25 168.4 170.6 179.1 170.65 188.7 171.1" fill="none" stroke="#000000" stroke-linecap="round" stroke-linejoin="round" stroke-width="4.0"/>
    <path d="M187.65 171.05 Q187.45 168.15 189.7 166.1 191.75 164.25 195.0 163.7 198.05 163.2 200.5 164.45 203.25 165.8 203.4 168.5 203.65 172.0 201.55 174.7 199.45 177.35 196.0 177.9 192.9 178.4 190.35 176.3 187.85 174.25 187.65 171.05" fill="#ffffff" fill-rule="evenodd" stroke="none"/>
    <path d="M187.65 171.05 Q187.45 168.15 189.7 166.1 191.75 164.25 195.0 163.7 198.05 163.2 200.5 164.45 203.25 165.8 203.4 168.5 203.65 172.0 201.55 174.7 199.45 177.35 196.0 177.9 192.9 178.4 190.35 176.3 187.85 174.25 187.65 171.05 Z" fill="none" stroke="#000000" stroke-linecap="round" stroke-linejoin="round" stroke-width="4.0"/>
    <path d="M99.1 161.25 Q102.45 161.3 104.65 162.5 107.3 163.95 107.65 166.65 108.1 169.9 106.1 172.5 104.05 175.15 100.95 175.1 97.2 175.05 94.6 172.55 92.05 170.15 91.55 166.35 91.25 163.9 93.8 162.45 96.05 161.15 99.1 161.25" fill="#ffffff" fill-rule="evenodd" stroke="none"/>
    <path d="M99.1 161.25 Q102.45 161.3 104.65 162.5 107.3 163.95 107.65 166.65 108.1 169.9 106.1 172.5 104.05 175.15 100.95 175.1 97.2 175.05 94.6 172.55 92.05 170.15 91.55 166.35 91.25 163.9 93.8 162.45 96.05 161.15 99.1 161.25 Z" fill="none" stroke="#000000" stroke-linecap="round" stroke-linejoin="round" stroke-width="4.0"/>
    <path d="M137.75 219.7 L136.7 211.9 Q135.75 203.35 136.1 199.6 136.45 195.8 137.7 187.65 138.9 179.45 141.1 173.15 L144.9 160.95 147.75 150.5 Q148.9 145.95 150.85 139.75 L153.15 132.25 153.45 130.85 153.4 121.15 153.3 111.2" fill="none" stroke="#000000" stroke-linecap="round" stroke-linejoin="round" stroke-width="4.0"/>
    <path d="M60.15 254.2 L85.25 257.7 Q100.8 258.9 109.15 254.55 115.9 251.05 122.65 234.65 127.1 222.65 128.15 218.85 L137.75 219.7" fill="none" stroke="#000000" stroke-linecap="round" stroke-linejoin="round" stroke-width="4.0"/>
    <path d="M226.45 264.95 L222.0 270.9 217.3 276.75 211.65 282.3 207.9 285.7 205.6 286.0 202.9 285.25 Q201.15 280.85 197.1 261.1 193.85 245.15 188.75 238.5 184.15 232.55 168.05 226.05 156.5 221.75 152.9 220.75 L147.05 220.3 137.75 219.7" fill="none" stroke="#000000" stroke-linecap="round" stroke-linejoin="round" stroke-width="4.0"/>
    <path d="M36.7 271.6 L42.65 267.15 48.45 262.4 53.65 256.7 56.8 252.9 60.15 254.2" fill="none" stroke="#000000" stroke-linecap="round" stroke-linejoin="round" stroke-width="4.0"/>
    <path d="M100.65 74.65 L150.55 71.2 200.4 67.75 Q201.85 88.45 188.3 104.05 174.7 119.65 154.0 121.1 133.3 122.5 117.7 108.95 102.1 95.35 100.65 74.65" fill="#ffffff" fill-rule="evenodd" stroke="none"/>
    <path d="M200.4 67.75 Q201.85 88.45 188.3 104.05 174.7 119.65 154.0 121.1 133.3 122.5 117.7 108.95 102.1 95.35 100.65 74.65" fill="none" stroke="#000000" stroke-linecap="round" stroke-linejoin="round" stroke-width="4.0"/>
    <path d="M127.15 27.0 Q136.45 22.05 147.1 21.3 157.7 20.6 167.6 24.15 176.4 27.35 183.4 33.45 190.4 39.55 194.75 47.8 199.7 57.1 200.4 67.75 L150.55 71.2 100.65 74.65 Q99.95 64.05 103.5 54.15 106.7 45.35 112.8 38.35 118.9 31.35 127.15 27.0" fill="#ffffff" fill-rule="evenodd" stroke="none"/>
    <path d="M100.65 74.65 Q99.95 64.05 103.5 54.15 106.7 45.35 112.8 38.35 118.9 31.35 127.15 27.0 136.45 22.05 147.1 21.3 157.7 20.6 167.6 24.15 176.4 27.35 183.4 33.45 190.4 39.55 194.75 47.8 199.7 57.1 200.4 67.75" fill="none" stroke="#000000" stroke-linecap="round" stroke-linejoin="round" stroke-width="4.0"/>
  </g>
</svg>
