<?xml version="1.0" encoding="UTF-8" standalone="no"?>
<svg xmlns:xlink="http://www.w3.org/1999/xlink" height="340.1px" width="317.8px" xmlns="http://www.w3.org/2000/svg">
  <g transform="matrix(1.0, 0.0, 0.0, 1.0, 0.0, 0.0)">
    <path d="M317.8 340.1 L0.0 340.1 0.0 0.0 317.8 0.0 317.8 340.1" fill="#ffffff" fill-opacity="0.0" fill-rule="evenodd" stroke="none"/>
    <path d="M74.2 249.65 Q68.8 241.65 62.25 232.95 54.7 222.3 54.15 215.05 53.55 207.55 61.1 191.9 66.65 180.4 68.8 177.75 L95.9 162.6 121.55 163.2 Q124.7 165.5 135.6 172.2 151.05 180.85 158.45 179.3 165.55 177.75 173.25 166.75 179.35 157.3 185.25 149.4" fill="none" stroke="#000000" stroke-linecap="round" stroke-linejoin="round" stroke-width="4.0"/>
    <path d="M73.7 248.75 Q76.05 246.95 79.05 247.8 81.85 248.6 84.0 251.1 86.1 253.5 86.3 256.3 86.55 259.4 84.35 261.1 81.6 263.15 78.25 262.8 74.9 262.4 72.65 259.75 70.5 257.3 70.8 254.0 71.1 250.7 73.7 248.75" fill="#ffffff" fill-rule="evenodd" stroke="none"/>
    <path d="M73.7 248.75 Q76.05 246.95 79.05 247.8 81.85 248.6 84.0 251.1 86.1 253.5 86.3 256.3 86.55 259.4 84.35 261.1 81.6 263.15 78.25 262.8 74.9 262.4 72.65 259.75 70.5 257.3 70.8 254.0 71.1 250.7 73.7 248.75 Z" fill="none" stroke="#000000" stroke-linecap="round" stroke-linejoin="round" stroke-width="4.0"/>
    <path d="M195.3 141.5 Q196.15 144.8 194.5 147.85 193.05 150.65 189.85 151.4 186.7 152.1 184.0 150.35 181.6 148.8 181.35 145.75 181.15 143.0 182.7 140.1 184.1 137.4 186.6 136.2 L191.5 136.35 Q194.4 138.25 195.3 141.5" fill="#ffffff" fill-rule="evenodd" stroke="none"/>
    <path d="M195.3 141.5 Q196.15 144.8 194.5 147.85 193.05 150.65 189.85 151.4 186.7 152.1 184.0 150.35 181.6 148.8 181.35 145.75 181.15 143.0 182.7 140.1 184.1 137.4 186.6 136.2 L191.5 136.35 Q194.4 138.25 195.3 141.5 Z" fill="none" stroke="#000000" stroke-linecap="round" stroke-linejoin="round" stroke-width="4.0"/>
    <path d="M87.7 144.25 L91.35 153.55 94.85 162.85 94.65 162.85 94.35 162.8 94.2 175.85 Q94.2 184.05 95.15 188.8 96.0 193.1 98.3 198.4 100.45 203.4 103.05 207.3 105.85 211.5 110.3 216.3 114.5 220.8 118.7 224.25 122.15 227.1 131.0 232.35 L139.1 237.05" fill="none" stroke="#000000" stroke-linecap="round" stroke-linejoin="round" stroke-width="4.0"/>
    <path d="M204.55 247.65 Q192.15 235.2 185.85 230.25 173.5 220.65 163.9 220.3 156.35 220.0 143.4 232.5 L139.1 237.05 135.55 241.05 131.95 245.05 Q133.8 242.7 139.1 237.05" fill="none" stroke="#000000" stroke-linecap="round" stroke-linejoin="round" stroke-width="4.0"/>
    <path d="M237.1 183.25 L234.95 190.45 232.65 197.6 229.65 205.0 227.6 209.7 227.4 208.0 226.35 206.1 202.1 200.6 Q186.9 197.7 177.9 199.7 170.6 201.35 157.65 212.85 148.7 221.3 146.2 224.05 L143.45 229.1 139.1 237.05" fill="none" stroke="#000000" stroke-linecap="round" stroke-linejoin="round" stroke-width="4.0"/>
    <path d="M231.25 242.5 L223.95 244.05 216.7 245.8 209.4 248.5 204.85 250.4 204.55 247.65" fill="none" stroke="#000000" stroke-linecap="round" stroke-linejoin="round" stroke-width="4.0"/>
    <path d="M23.9 149.5 L60.2 115.1 96.5 80.75 Q110.75 95.8 110.2 116.45 109.65 137.15 94.55 151.4 79.5 165.7 58.8 165.1 38.15 164.55 23.9 149.5" fill="#ffffff" fill-rule="evenodd" stroke="none"/>
    <path d="M96.5 80.75 Q110.75 95.8 110.2 116.45 109.65 137.15 94.55 151.4 79.5 165.7 58.8 165.1 38.15 164.55 23.9 149.5" fill="none" stroke="#000000" stroke-linecap="round" stroke-linejoin="round" stroke-width="4.0"/>
    <path d="M96.5 80.75 L60.2 115.1 23.9 149.5 Q16.55 141.75 13.05 131.85 9.9 123.05 10.15 113.75 10.4 104.45 14.0 95.85 18.1 86.1 25.8 78.8 33.55 71.5 43.45 67.95 52.25 64.85 61.55 65.1 70.8 65.35 79.45 68.95 89.15 73.0 96.5 80.75" fill="#ffffff" fill-rule="evenodd" stroke="none"/>
    <path d="M23.9 149.5 Q16.55 141.75 13.05 131.85 9.9 123.05 10.15 113.75 10.4 104.45 14.0 95.85 18.1 86.1 25.8 78.8 33.55 71.5 43.45 67.95 52.25 64.85 61.55 65.1 70.8 65.35 79.45 68.95 89.15 73.0 96.5 80.75" fill="none" stroke="#000000" stroke-linecap="round" stroke-linejoin="round" stroke-width="4.0"/>
  </g>
</svg>
