<?xml version="1.0" encoding="UTF-8" standalone="no"?>
<svg xmlns:xlink="http://www.w3.org/1999/xlink" height="340.1px" width="317.8px" xmlns="http://www.w3.org/2000/svg">
  <g transform="matrix(1.0, 0.0, 0.0, 1.0, 0.0, 0.0)">
    <path d="M317.8 340.1 L0.0 340.1 0.0 0.0 317.8 0.0 317.8 340.1" fill="#ffffff" fill-opacity="0.0" fill-rule="evenodd" stroke="none"/>
    <path d="M292.0 238.9 L271.6 239.65 Q258.55 240.05 251.9 237.25 244.95 234.3 233.05 221.7 228.55 216.9 223.2 210.45 211.55 209.95 205.85 206.45 199.45 202.5 191.15 187.25 L184.15 172.75 199.05 181.85 213.9 191.05 222.55 209.65 223.2 210.45 225.1 210.5 Q235.95 210.4 245.65 210.8" fill="none" stroke="#000000" stroke-linecap="round" stroke-linejoin="round" stroke-width="4.0"/>
    <path d="M244.6 210.7 Q244.7 207.7 247.15 205.75 249.45 203.95 252.7 203.9 255.85 203.85 258.2 205.65 260.7 207.6 260.6 210.5 260.5 213.8 258.05 216.05 255.65 218.25 252.25 218.3 249.05 218.3 246.8 216.1 244.5 213.8 244.6 210.7" fill="#ffffff" fill-rule="evenodd" stroke="none"/>
    <path d="M244.6 210.7 Q244.7 207.7 247.15 205.75 249.45 203.95 252.7 203.9 255.85 203.85 258.2 205.65 260.7 207.6 260.6 210.5 260.5 213.8 258.05 216.05 255.65 218.25 252.25 218.3 249.05 218.3 246.8 216.1 244.5 213.8 244.6 210.7 Z" fill="none" stroke="#000000" stroke-linecap="round" stroke-linejoin="round" stroke-width="4.0"/>
    <path d="M302.6 230.95 Q305.4 231.85 305.8 234.35 306.35 237.95 304.55 240.85 302.75 243.8 299.35 244.75 296.35 245.6 293.6 243.7 290.9 241.8 290.45 238.6 290.0 235.8 292.15 233.65 294.05 231.8 297.25 230.9 300.1 230.1 302.6 230.95" fill="#ffffff" fill-rule="evenodd" stroke="none"/>
    <path d="M302.6 230.95 Q305.4 231.85 305.8 234.35 306.35 237.95 304.55 240.85 302.75 243.8 299.35 244.75 296.35 245.6 293.6 243.7 290.9 241.8 290.45 238.6 290.0 235.8 292.15 233.65 294.05 231.8 297.25 230.9 300.1 230.1 302.6 230.95 Z" fill="none" stroke="#000000" stroke-linecap="round" stroke-linejoin="round" stroke-width="4.0"/>
    <path d="M226.1 174.9 L219.4 182.25 212.7 189.65 212.9 189.7 213.05 189.7 202.65 195.2 192.1 200.35 180.9 204.6 169.55 208.5 158.8 211.2 Q151.95 212.95 149.0 215.5 145.65 218.45 141.35 227.8 138.45 234.5 137.7 236.55" fill="none" stroke="#000000" stroke-linecap="round" stroke-linejoin="round" stroke-width="4.0"/>
    <path d="M52.7 220.25 Q61.8 230.15 71.45 237.05 83.8 245.85 93.7 247.15 101.2 248.1 116.6 239.3 127.35 232.6 130.45 230.3 L137.7 236.55" fill="none" stroke="#000000" stroke-linecap="round" stroke-linejoin="round" stroke-width="4.0"/>
    <path d="M137.7 236.55 L144.75 242.55 149.2 246.35 Q147.55 248.3 136.05 255.65 121.4 264.9 113.9 265.1 104.8 265.35 90.5 259.05 L67.95 248.45 67.8 247.1 68.1 246.0 63.65 248.3 56.45 251.55 49.15 253.85 41.8 255.9" fill="none" stroke="#000000" stroke-linecap="round" stroke-linejoin="round" stroke-width="4.0"/>
    <path d="M25.9 222.45 L33.3 221.55 40.7 220.45 48.2 218.4 52.9 216.9 52.7 220.25" fill="none" stroke="#000000" stroke-linecap="round" stroke-linejoin="round" stroke-width="4.0"/>
    <path d="M193.85 159.8 Q184.3 141.45 190.55 121.65 L238.2 136.7 285.9 151.7 Q279.65 171.5 261.3 181.05 243.0 190.6 223.2 184.35 203.4 178.15 193.85 159.8" fill="#ffffff" fill-rule="evenodd" stroke="none"/>
    <path d="M285.9 151.7 Q279.65 171.5 261.3 181.05 243.0 190.6 223.2 184.35 203.4 178.15 193.85 159.8 184.3 141.45 190.55 121.65" fill="none" stroke="#000000" stroke-linecap="round" stroke-linejoin="round" stroke-width="4.0"/>
    <path d="M253.25 89.0 Q263.4 92.2 271.3 99.15 278.3 105.35 282.6 113.55 286.9 121.8 287.9 131.1 289.1 141.55 285.9 151.7 L238.2 136.7 190.55 121.65 Q193.7 111.5 200.7 103.6 206.85 96.6 215.1 92.3 223.35 88.0 232.65 87.0 243.1 85.8 253.25 89.0" fill="#ffffff" fill-rule="evenodd" stroke="none"/>
    <path d="M190.55 121.65 Q193.7 111.5 200.7 103.6 206.85 96.6 215.1 92.3 223.35 88.0 232.65 87.0 243.1 85.8 253.25 89.0 263.4 92.2 271.3 99.15 278.3 105.35 282.6 113.55 286.9 121.8 287.9 131.1 289.1 141.55 285.9 151.7" fill="none" stroke="#000000" stroke-linecap="round" stroke-linejoin="round" stroke-width="4.0"/>
  </g>
</svg>
