<?xml version="1.0" encoding="UTF-8" standalone="no"?>
<svg xmlns:xlink="http://www.w3.org/1999/xlink" height="340.1px" width="317.8px" xmlns="http://www.w3.org/2000/svg">
  <g transform="matrix(1.0, 0.0, 0.0, 1.0, 0.0, 0.0)">
    <path d="M317.8 340.1 L0.0 340.1 0.0 0.0 317.8 0.0 317.8 340.1" fill="#ffffff" fill-opacity="0.0" fill-rule="evenodd" stroke="none"/>
    <path d="M121.25 185.0 Q112.55 179.65 101.7 174.2 89.35 167.25 89.95 160.05 90.6 152.55 107.85 145.85 120.7 141.6 124.95 140.65 L155.05 139.35 173.25 149.0 189.0 151.3 Q206.2 153.2 213.45 151.1 220.4 149.1 230.45 140.85 238.65 133.85 246.2 127.9" fill="none" stroke="#000000" stroke-linecap="round" stroke-linejoin="round" stroke-width="4.0"/>
    <path d="M244.75 128.55 Q242.8 126.3 243.4 123.2 243.95 120.35 246.3 118.1 248.55 115.95 251.4 115.6 254.45 115.3 256.25 117.4 258.45 120.0 258.25 123.3 258.0 126.6 255.55 128.95 253.25 131.15 250.05 131.05 246.8 130.95 244.75 128.55" fill="#ffffff" fill-rule="evenodd" stroke="none"/>
    <path d="M244.75 128.55 Q242.8 126.3 243.4 123.2 243.95 120.35 246.3 118.1 248.55 115.95 251.4 115.6 254.45 115.3 256.25 117.4 258.45 120.0 258.25 123.3 258.0 126.6 255.55 128.95 253.25 131.15 250.05 131.05 246.8 130.95 244.75 128.55 Z" fill="none" stroke="#000000" stroke-linecap="round" stroke-linejoin="round" stroke-width="4.0"/>
    <path d="M157.45 119.5 L155.55 129.3 153.6 139.05 153.6 138.95 153.55 138.8 Q150.55 144.0 146.55 149.05 L138.75 158.9 Q134.9 163.7 132.45 168.45 129.95 173.15 128.1 180.7 126.2 188.2 126.45 194.7 126.7 201.15 127.35 204.85 128.0 208.5 132.85 217.6 L137.65 225.8" fill="none" stroke="#000000" stroke-linecap="round" stroke-linejoin="round" stroke-width="4.0"/>
    <path d="M92.35 303.75 Q95.6 297.3 109.3 285.95 122.75 274.75 125.95 268.0 129.2 261.15 129.0 243.7 L128.2 227.6 137.65 225.8" fill="none" stroke="#000000" stroke-linecap="round" stroke-linejoin="round" stroke-width="4.0"/>
    <path d="M137.65 225.8 L146.75 223.95 152.55 222.75 Q154.85 224.65 162.7 235.1 173.1 248.85 174.4 256.25 175.9 264.75 172.15 280.3 167.1 301.5 166.75 304.5 L167.7 305.3 168.65 305.6 173.75 305.6 181.85 305.55 189.4 305.5 196.9 305.45" fill="none" stroke="#000000" stroke-linecap="round" stroke-linejoin="round" stroke-width="4.0"/>
    <path d="M122.45 309.6 L114.85 310.3 107.25 310.9 99.55 310.7 94.7 310.4 93.8 307.85 92.35 303.75" fill="none" stroke="#000000" stroke-linecap="round" stroke-linejoin="round" stroke-width="4.0"/>
    <path d="M113.0 73.35 L162.6 79.75 212.2 86.15 Q209.55 106.7 193.2 119.35 176.8 132.0 156.25 129.35 135.65 126.7 123.0 110.35 110.35 93.95 113.0 73.35" fill="#ffffff" fill-rule="evenodd" stroke="none"/>
    <path d="M212.2 86.15 Q209.55 106.7 193.2 119.35 176.8 132.0 156.25 129.35 135.65 126.7 123.0 110.35 110.35 93.95 113.0 73.35" fill="none" stroke="#000000" stroke-linecap="round" stroke-linejoin="round" stroke-width="4.0"/>
    <path d="M119.85 53.8 Q124.7 45.85 132.05 40.15 139.4 34.5 148.35 31.8 158.45 28.8 169.0 30.15 179.55 31.5 188.55 37.0 196.55 41.85 202.2 49.2 207.9 56.55 210.55 65.5 213.55 75.6 212.2 86.15 L162.6 79.75 113.0 73.35 Q114.35 62.8 119.85 53.8" fill="#ffffff" fill-rule="evenodd" stroke="none"/>
    <path d="M113.0 73.35 Q114.35 62.8 119.85 53.8 124.7 45.85 132.05 40.15 139.4 34.5 148.35 31.8 158.45 28.8 169.0 30.15 179.55 31.5 188.55 37.0 196.55 41.85 202.2 49.2 207.9 56.55 210.55 65.5 213.55 75.6 212.2 86.15" fill="none" stroke="#000000" stroke-linecap="round" stroke-linejoin="round" stroke-width="4.0"/>
  </g>
</svg>
