<?xml version="1.0" encoding="UTF-8" standalone="no"?>
<svg xmlns:xlink="http://www.w3.org/1999/xlink" height="106.95px" width="81.4px" xmlns="http://www.w3.org/2000/svg">
  <g transform="matrix(1.0, 0.0, 0.0, 1.0, -444.1, -328.0)">
    <path d="M456.45 417.95 L450.45 398.8 Q446.6 386.6 446.15 379.4 445.7 371.85 448.55 355.0 L451.5 339.6 484.15 330.0 512.85 340.0 507.95 355.05 Q503.05 371.55 503.2 379.1 503.3 386.35 507.5 398.55 511.15 408.55 514.1 417.65" fill="none" stroke="#000000" stroke-linecap="round" stroke-linejoin="round" stroke-width="4.0"/>
    <path d="M456.25 416.9 Q459.3 416.25 461.85 418.2 464.35 420.1 464.95 423.3 465.55 426.55 463.95 429.3 462.35 432.15 459.2 432.8 456.25 433.45 453.75 431.4 451.4 429.5 450.8 426.3 450.2 423.1 451.7 420.4 453.25 417.55 456.25 416.9" fill="#ffffff" fill-rule="evenodd" stroke="none"/>
    <path d="M456.25 416.9 Q459.3 416.25 461.85 418.2 464.35 420.1 464.95 423.3 465.55 426.55 463.95 429.3 462.35 432.15 459.2 432.8 456.25 433.45 453.75 431.4 451.4 429.5 450.8 426.3 450.2 423.1 451.7 420.4 453.25 417.55 456.25 416.9 Z" fill="none" stroke="#000000" stroke-linecap="round" stroke-linejoin="round" stroke-width="4.0"/>
    <path d="M514.05 416.1 Q517.1 415.3 519.75 417.15 522.3 418.9 523.15 422.05 524.0 425.25 522.65 428.05 521.25 430.95 518.2 431.75 515.25 432.55 512.6 430.7 510.1 428.9 509.25 425.75 508.4 422.6 509.7 419.8 511.1 416.9 514.05 416.1" fill="#ffffff" fill-rule="evenodd" stroke="none"/>
    <path d="M514.05 416.1 Q517.1 415.3 519.75 417.15 522.3 418.9 523.15 422.05 524.0 425.25 522.65 428.05 521.25 430.95 518.2 431.75 515.25 432.55 512.6 430.7 510.1 428.9 509.25 425.75 508.4 422.6 509.7 419.8 511.1 416.9 514.05 416.1 Z" fill="none" stroke="#000000" stroke-linecap="round" stroke-linejoin="round" stroke-width="4.0"/>
  </g>
</svg>
