<?xml version="1.0" encoding="UTF-8" standalone="no"?>
<svg xmlns:xlink="http://www.w3.org/1999/xlink" height="63.9px" width="96.3px" xmlns="http://www.w3.org/2000/svg">
  <g transform="matrix(1.0, 0.0, 0.0, 1.0, -449.1, -306.75)">
    <path d="M529.15 322.35 Q533.5 332.1 539.85 343.35 546.55 356.7 540.6 360.95 534.45 365.3 520.85 351.6 511.2 340.9 508.4 337.05 L484.15 330.0 470.15 334.35 Q474.0 342.0 479.05 350.6 486.1 363.95 479.95 367.85 473.65 371.85 461.75 356.45 450.85 342.4 451.1 340.25 L470.15 334.35 467.8 329.6" fill="none" stroke="#000000" stroke-linecap="round" stroke-linejoin="round" stroke-width="4.0"/>
    <path d="M468.05 330.65 Q465.1 331.5 462.4 329.85 459.75 328.2 458.85 325.15 457.9 321.95 459.15 319.1 460.45 316.1 463.5 315.2 466.45 314.3 469.15 316.15 471.7 317.85 472.65 321.05 473.55 324.1 472.25 326.9 470.95 329.75 468.05 330.65" fill="#ffffff" fill-rule="evenodd" stroke="none"/>
    <path d="M468.05 330.65 Q465.1 331.5 462.4 329.85 459.75 328.2 458.85 325.15 457.9 321.95 459.15 319.1 460.45 316.1 463.5 315.2 466.45 314.3 469.15 316.15 471.7 317.85 472.65 321.05 473.55 324.1 472.25 326.9 470.95 329.75 468.05 330.65 Z" fill="none" stroke="#000000" stroke-linecap="round" stroke-linejoin="round" stroke-width="4.0"/>
    <path d="M529.25 323.95 Q526.55 325.0 523.85 323.45 521.35 322.05 520.0 319.1 518.7 316.2 519.35 313.4 520.0 310.35 522.65 309.3 L528.8 309.45 Q531.8 310.8 533.2 313.95 534.5 316.8 533.35 319.8 532.2 322.8 529.25 323.95" fill="#ffffff" fill-rule="evenodd" stroke="none"/>
    <path d="M529.25 323.95 Q526.55 325.0 523.85 323.45 521.35 322.05 520.0 319.1 518.7 316.2 519.35 313.4 520.0 310.35 522.65 309.3 L528.8 309.45 Q531.8 310.8 533.2 313.95 534.5 316.8 533.35 319.8 532.2 322.8 529.25 323.95 Z" fill="none" stroke="#000000" stroke-linecap="round" stroke-linejoin="round" stroke-width="4.0"/>
  </g>
</svg>
