<?xml version="1.0" encoding="UTF-8" standalone="no"?>
<svg xmlns:xlink="http://www.w3.org/1999/xlink" height="51.75px" width="177.0px" xmlns="http://www.w3.org/2000/svg">
  <g transform="matrix(1.0, 0.0, 0.0, 1.0, -395.0, -328.0)">
    <path d="M555.4 351.05 Q548.35 358.55 540.8 368.0 531.5 378.7 524.5 376.75 517.25 374.7 513.6 356.55 511.6 343.15 511.4 338.8 L484.15 330.0 452.15 339.1 Q452.2 343.5 450.95 357.05 448.25 375.4 441.05 377.45 434.1 379.35 425.35 368.2 418.3 358.25 411.65 350.45" fill="none" stroke="#000000" stroke-linecap="round" stroke-linejoin="round" stroke-width="4.0"/>
    <path d="M402.6 340.65 Q405.85 339.55 409.15 340.9 412.0 342.1 413.0 345.25 414.0 348.35 412.45 351.1 411.0 353.6 407.95 354.1 405.25 354.55 402.15 353.25 399.35 352.1 397.9 349.75 396.3 347.2 397.6 344.9 399.4 341.75 402.6 340.65" fill="#ffffff" fill-rule="evenodd" stroke="none"/>
    <path d="M402.6 340.65 Q405.85 339.55 409.15 340.9 412.0 342.1 413.0 345.25 414.0 348.35 412.45 351.1 411.0 353.6 407.95 354.1 405.25 354.55 402.15 353.25 399.35 352.1 397.9 349.75 396.3 347.2 397.6 344.9 399.4 341.75 402.6 340.65 Z" fill="none" stroke="#000000" stroke-linecap="round" stroke-linejoin="round" stroke-width="4.0"/>
    <path d="M565.35 343.1 Q568.35 344.9 569.75 348.5 570.65 350.75 568.4 352.65 566.5 354.35 563.55 354.9 560.2 355.55 557.85 354.9 554.95 354.1 553.95 351.5 552.8 348.55 554.15 345.6 555.55 342.55 558.55 341.95 562.25 341.25 565.35 343.1" fill="#ffffff" fill-rule="evenodd" stroke="none"/>
    <path d="M565.35 343.1 Q568.35 344.9 569.75 348.5 570.65 350.75 568.4 352.65 566.5 354.35 563.55 354.9 560.2 355.55 557.85 354.9 554.95 354.1 553.95 351.5 552.8 348.55 554.15 345.6 555.55 342.55 558.55 341.95 562.25 341.25 565.35 343.1 Z" fill="none" stroke="#000000" stroke-linecap="round" stroke-linejoin="round" stroke-width="4.0"/>
  </g>
</svg>
