<?xml version="1.0" encoding="UTF-8" standalone="no"?>
<svg xmlns:xlink="http://www.w3.org/1999/xlink" height="62.5px" width="166.95px" xmlns="http://www.w3.org/2000/svg">
  <g transform="matrix(1.0, 0.0, 0.0, 1.0, -398.2, -288.75)">
    <path d="M555.4 309.25 Q553.85 319.2 552.95 330.8 551.3 344.55 544.95 348.05 538.35 351.7 521.8 344.4 510.0 338.6 506.5 336.4 L484.15 330.0 470.95 333.1 457.75 336.2 Q454.1 338.0 442.0 342.6 424.95 348.15 418.6 344.25 412.45 340.45 410.7 326.95 409.7 315.5 408.1 305.7" fill="none" stroke="#000000" stroke-linecap="round" stroke-linejoin="round" stroke-width="4.0"/>
    <path d="M412.9 293.05 Q414.45 295.3 414.35 298.4 414.3 301.65 412.8 303.95 411.1 306.5 408.25 306.75 405.05 307.0 402.6 304.9 400.1 302.7 400.2 299.6 400.25 296.05 402.65 293.55 405.0 291.05 408.55 290.75 411.2 290.5 412.9 293.05" fill="#ffffff" fill-rule="evenodd" stroke="none"/>
    <path d="M412.9 293.05 Q414.45 295.3 414.35 298.4 414.3 301.65 412.8 303.95 411.1 306.5 408.25 306.75 405.05 307.0 402.6 304.9 400.1 302.7 400.2 299.6 400.25 296.05 402.65 293.55 405.0 291.05 408.55 290.75 411.2 290.5 412.9 293.05 Z" fill="none" stroke="#000000" stroke-linecap="round" stroke-linejoin="round" stroke-width="4.0"/>
    <path d="M555.85 294.7 Q559.25 295.2 561.3 297.8 563.35 300.45 563.1 303.9 562.9 307.05 560.35 309.1 557.85 311.1 554.7 310.65 551.8 310.2 550.3 307.55 548.9 305.1 549.1 301.8 549.35 298.75 551.15 296.6 553.15 294.25 555.85 294.7" fill="#ffffff" fill-rule="evenodd" stroke="none"/>
    <path d="M555.85 294.7 Q559.25 295.2 561.3 297.8 563.35 300.45 563.1 303.9 562.9 307.05 560.35 309.1 557.85 311.1 554.7 310.65 551.8 310.2 550.3 307.55 548.9 305.1 549.1 301.8 549.35 298.75 551.15 296.6 553.15 294.25 555.85 294.7 Z" fill="none" stroke="#000000" stroke-linecap="round" stroke-linejoin="round" stroke-width="4.0"/>
  </g>
</svg>
