<?xml version="1.0" encoding="UTF-8" standalone="no"?>
<svg xmlns:xlink="http://www.w3.org/1999/xlink" height="83.7px" width="117.3px" xmlns="http://www.w3.org/2000/svg">
  <g transform="matrix(1.0, 0.0, 0.0, 1.0, -422.65, -328.0)">
    <path d="M448.55 395.6 Q441.8 388.25 433.45 380.4 423.9 370.65 424.7 363.45 425.5 356.0 440.3 345.85 443.9 343.35 454.95 337.2 L484.15 330.0 509.1 337.3 Q522.35 345.95 523.35 346.75 537.65 357.7 537.95 365.2 538.2 372.45 527.7 381.25 518.6 388.35 511.15 395.05" fill="none" stroke="#000000" stroke-linecap="round" stroke-linejoin="round" stroke-width="4.0"/>
    <path d="M453.65 394.0 Q456.65 394.95 458.25 397.7 459.9 400.65 459.3 403.8 458.7 407.05 455.9 408.75 453.4 410.35 450.45 409.2 447.6 408.1 446.05 405.3 444.4 402.45 444.9 399.45 445.35 396.35 447.95 394.7 450.6 393.1 453.65 394.0" fill="#ffffff" fill-rule="evenodd" stroke="none"/>
    <path d="M453.65 394.0 Q456.65 394.95 458.25 397.7 459.9 400.65 459.3 403.8 458.7 407.05 455.9 408.75 453.4 410.35 450.45 409.2 447.6 408.1 446.05 405.3 444.4 402.45 444.9 399.45 445.35 396.35 447.95 394.7 450.6 393.1 453.65 394.0 Z" fill="none" stroke="#000000" stroke-linecap="round" stroke-linejoin="round" stroke-width="4.0"/>
    <path d="M512.45 394.1 Q514.85 396.0 514.95 399.2 515.0 402.2 513.05 404.85 511.15 407.4 508.2 408.15 505.15 408.9 502.8 407.05 500.3 405.05 500.05 401.75 499.85 398.6 501.85 395.9 503.8 393.35 506.85 392.75 510.0 392.2 512.45 394.1" fill="#ffffff" fill-rule="evenodd" stroke="none"/>
    <path d="M512.45 394.1 Q514.85 396.0 514.95 399.2 515.0 402.2 513.05 404.85 511.15 407.4 508.2 408.15 505.15 408.9 502.8 407.05 500.3 405.05 500.05 401.75 499.85 398.6 501.85 395.9 503.8 393.35 506.85 392.75 510.0 392.2 512.45 394.1 Z" fill="none" stroke="#000000" stroke-linecap="round" stroke-linejoin="round" stroke-width="4.0"/>
  </g>
</svg>
