<?xml version="1.0" encoding="UTF-8" standalone="no"?>
<svg xmlns:xlink="http://www.w3.org/1999/xlink" height="55.35px" width="68.15px" xmlns="http://www.w3.org/2000/svg">
  <g transform="matrix(1.0, 0.0, 0.0, 1.0, -447.8, -327.95)">
    <path d="M484.15 329.95 L512.9 340.05 Q514.1 342.75 513.9 357.6 513.6 375.9 507.15 379.75 500.9 383.45 488.65 376.7 L482.3 372.9 Q478.6 374.9 474.8 377.15 462.5 383.7 456.3 379.9 449.9 375.95 449.8 357.7 449.7 342.5 450.95 340.2 L484.15 329.95 M469.5 365.9 Q475.65 369.0 482.3 372.9 488.45 369.5 494.15 366.75" fill="none" stroke="#000000" stroke-linecap="round" stroke-linejoin="round" stroke-width="4.0"/>
    <path d="M493.15 367.0 Q492.35 364.05 494.1 361.4 495.85 358.75 498.9 358.1 502.25 357.35 505.05 358.85 507.95 360.4 508.8 363.55 509.55 366.45 507.55 368.95 505.7 371.3 502.55 372.0 499.4 372.7 496.7 371.35 493.9 369.95 493.15 367.0" fill="#ffffff" fill-rule="evenodd" stroke="none"/>
    <path d="M493.15 367.0 Q492.35 364.05 494.1 361.4 495.85 358.75 498.9 358.1 502.25 357.35 505.05 358.85 507.95 360.4 508.8 363.55 509.55 366.45 507.55 368.95 505.7 371.3 502.55 372.0 499.4 372.7 496.7 371.35 493.9 369.95 493.15 367.0 Z" fill="none" stroke="#000000" stroke-linecap="round" stroke-linejoin="round" stroke-width="4.0"/>
    <path d="M470.8 366.75 Q470.0 369.65 467.1 370.9 464.4 372.1 461.25 371.3 458.15 370.55 456.35 368.15 454.45 365.65 455.25 362.8 456.15 359.7 459.1 358.2 461.95 356.8 465.25 357.6 468.3 358.4 470.0 361.05 471.7 363.75 470.8 366.75" fill="#ffffff" fill-rule="evenodd" stroke="none"/>
    <path d="M470.8 366.75 Q470.0 369.65 467.1 370.9 464.4 372.1 461.25 371.3 458.15 370.55 456.35 368.15 454.45 365.65 455.25 362.8 456.15 359.7 459.1 358.2 461.95 356.8 465.25 357.6 468.3 358.4 470.0 361.05 471.7 363.75 470.8 366.75 Z" fill="none" stroke="#000000" stroke-linecap="round" stroke-linejoin="round" stroke-width="4.0"/>
  </g>
</svg>
