<?xml version="1.0" encoding="UTF-8" standalone="no"?>
<svg xmlns:xlink="http://www.w3.org/1999/xlink" height="88.75px" width="167.35px" xmlns="http://www.w3.org/2000/svg">
  <g transform="matrix(1.0, 0.0, 0.0, 1.0, -426.9, -328.0)">
    <path d="M451.15 402.15 Q444.95 394.5 437.3 386.3 428.55 376.15 428.9 368.9 429.2 361.4 441.65 348.8 449.4 340.95 454.0 337.7 L484.15 330.0 509.1 337.35 519.2 349.9 Q530.75 363.0 537.9 365.45 544.75 367.85 557.6 365.35 568.25 362.95 577.8 361.3" fill="none" stroke="#000000" stroke-linecap="round" stroke-linejoin="round" stroke-width="4.0"/>
    <path d="M450.55 401.3 Q452.75 399.35 455.8 399.95 458.6 400.45 460.9 402.8 463.1 405.0 463.5 407.8 463.95 410.85 461.85 412.7 459.25 414.95 455.85 414.75 452.5 414.6 450.1 412.15 447.85 409.85 448.0 406.6 448.1 403.35 450.55 401.3" fill="#ffffff" fill-rule="evenodd" stroke="none"/>
    <path d="M450.55 401.3 Q452.75 399.35 455.8 399.95 458.6 400.45 460.9 402.8 463.1 405.0 463.5 407.8 463.95 410.85 461.85 412.7 459.25 414.95 455.85 414.75 452.5 414.6 450.1 412.15 447.85 409.85 448.0 406.6 448.1 403.35 450.55 401.3 Z" fill="none" stroke="#000000" stroke-linecap="round" stroke-linejoin="round" stroke-width="4.0"/>
    <path d="M576.25 361.15 Q575.75 358.15 577.9 355.8 579.9 353.6 583.15 352.95 586.25 352.35 588.9 353.7 591.7 355.15 592.15 358.05 592.65 361.25 590.65 363.9 588.65 366.45 585.35 367.1 582.15 367.75 579.5 366.0 576.75 364.25 576.25 361.15" fill="#ffffff" fill-rule="evenodd" stroke="none"/>
    <path d="M576.25 361.15 Q575.75 358.15 577.9 355.8 579.9 353.6 583.15 352.95 586.25 352.35 588.9 353.7 591.7 355.15 592.15 358.05 592.65 361.25 590.65 363.9 588.65 366.45 585.35 367.1 582.15 367.75 579.5 366.0 576.75 364.25 576.25 361.15 Z" fill="none" stroke="#000000" stroke-linecap="round" stroke-linejoin="round" stroke-width="4.0"/>
  </g>
</svg>
