<?xml version="1.0" encoding="UTF-8" standalone="no"?>
<svg xmlns:xlink="http://www.w3.org/1999/xlink" height="164.95px" width="137.35px" xmlns="http://www.w3.org/2000/svg">
  <g transform="matrix(1.0, 0.0, 0.0, 1.0, -427.15, -265.35)">
    <path d="M436.55 413.2 L433.9 393.2 Q432.2 380.45 433.8 373.35 435.4 366.05 444.45 351.4 451.9 339.35 453.2 338.25 L484.15 330.0 502.3 335.9 Q506.2 335.1 517.45 330.7 533.65 324.4 538.7 318.85 543.65 313.5 547.1 300.9 549.7 290.4 552.45 281.1" fill="none" stroke="#000000" stroke-linecap="round" stroke-linejoin="round" stroke-width="4.0"/>
    <path d="M436.55 412.15 Q439.7 412.25 441.75 414.75 443.8 417.15 443.6 420.4 443.35 423.75 441.05 426.05 438.7 428.4 435.4 428.3 432.5 428.25 430.65 425.65 428.95 423.25 429.15 420.05 429.4 416.75 431.35 414.5 433.5 412.1 436.55 412.15" fill="#ffffff" fill-rule="evenodd" stroke="none"/>
    <path d="M436.55 412.15 Q439.7 412.25 441.75 414.75 443.8 417.15 443.6 420.4 443.35 423.75 441.05 426.05 438.7 428.4 435.4 428.3 432.5 428.25 430.65 425.65 428.95 423.25 429.15 420.05 429.4 416.75 431.35 414.5 433.5 412.1 436.55 412.15 Z" fill="none" stroke="#000000" stroke-linecap="round" stroke-linejoin="round" stroke-width="4.0"/>
    <path d="M551.5 282.4 Q548.7 281.05 547.8 277.95 546.95 274.95 548.4 272.1 550.0 269.1 553.0 267.95 L559.1 268.1 Q561.75 269.35 562.35 272.5 562.9 275.4 561.4 278.25 559.85 281.15 557.15 282.35 554.25 283.7 551.5 282.4" fill="#ffffff" fill-rule="evenodd" stroke="none"/>
    <path d="M551.5 282.4 Q548.7 281.05 547.8 277.95 546.95 274.95 548.4 272.1 550.0 269.1 553.0 267.95 L559.1 268.1 Q561.75 269.35 562.35 272.5 562.9 275.4 561.4 278.25 559.85 281.15 557.15 282.35 554.25 283.7 551.5 282.4 Z" fill="none" stroke="#000000" stroke-linecap="round" stroke-linejoin="round" stroke-width="4.0"/>
  </g>
</svg>
