<?xml version="1.0" encoding="UTF-8" standalone="no"?>
<svg xmlns:xlink="http://www.w3.org/1999/xlink" height="120.7px" width="100.55px" xmlns="http://www.w3.org/2000/svg">
  <g transform="matrix(1.0, 0.0, 0.0, 1.0, -423.4, -314.45)">
    <path d="M512.4 419.2 L508.4 399.5 Q505.85 386.95 505.9 379.7 505.95 372.15 509.4 355.3 L512.85 340.0 484.15 330.0 454.15 337.7 Q452.2 342.25 445.15 355.1 434.85 371.75 428.35 368.05 422.05 364.5 429.1 351.05 435.8 339.7 440.45 329.95" fill="none" stroke="#000000" stroke-linecap="round" stroke-linejoin="round" stroke-width="4.0"/>
    <path d="M449.65 327.15 Q447.9 329.9 445.35 331.0 442.55 332.2 440.0 330.9 437.2 329.45 436.3 326.35 435.35 323.25 437.05 320.65 439.0 317.65 442.25 316.75 445.55 315.85 448.7 317.45 451.1 318.7 451.25 321.8 451.35 324.55 449.65 327.15" fill="#ffffff" fill-rule="evenodd" stroke="none"/>
    <path d="M449.65 327.15 Q447.9 329.9 445.35 331.0 442.55 332.2 440.0 330.9 437.2 329.45 436.3 326.35 435.35 323.25 437.05 320.65 439.0 317.65 442.25 316.75 445.55 315.85 448.7 317.45 451.1 318.7 451.25 321.8 451.35 324.55 449.65 327.15 Z" fill="none" stroke="#000000" stroke-linecap="round" stroke-linejoin="round" stroke-width="4.0"/>
    <path d="M512.45 417.65 Q515.35 416.85 517.9 418.7 520.25 420.4 521.4 423.55 522.4 426.45 521.5 429.2 520.55 432.1 517.85 432.85 514.6 433.75 511.65 432.15 508.75 430.55 507.6 427.35 506.55 424.3 507.95 421.4 509.4 418.45 512.45 417.65" fill="#ffffff" fill-rule="evenodd" stroke="none"/>
    <path d="M512.45 417.65 Q515.35 416.85 517.9 418.7 520.25 420.4 521.4 423.55 522.4 426.45 521.5 429.2 520.55 432.1 517.85 432.85 514.6 433.75 511.65 432.15 508.75 430.55 507.6 427.35 506.55 424.3 507.95 421.4 509.4 418.45 512.45 417.65 Z" fill="none" stroke="#000000" stroke-linecap="round" stroke-linejoin="round" stroke-width="4.0"/>
  </g>
</svg>
