<?xml version="1.0" encoding="UTF-8" standalone="no"?>
<svg xmlns:xlink="http://www.w3.org/1999/xlink" height="40.9px" width="46.5px" xmlns="http://www.w3.org/2000/svg">
  <g transform="matrix(1.0, 0.0, 0.0, 1.0, 20.05, 22.8)">
    <path d="M10.65 -14.75 L12.85 -18.05 13.9 -18.9 14.65 -19.05 15.35 -19.0 16.1 -18.8 16.9 -18.4 17.55 -17.85 18.0 -17.25 18.3 -16.6 18.45 -15.9 18.3 -15.1 18.1 -14.6 16.35 -12.05 16.15 -11.65 15.2 -10.8 16.15 -11.65 13.95 -7.4 12.6 -4.1 11.75 -2.0 11.2 -0.65 10.9 -0.2 10.55 0.15 10.6 0.3 11.0 1.9 11.2 1.8 14.55 0.55 19.25 -1.85 21.85 -2.55 23.2 -2.35 23.9 -1.85 24.45 -1.25 24.9 -0.5 25.25 0.5 25.45 1.5 25.4 2.4 25.25 3.2 24.9 3.95 23.8 4.75 21.6 5.3 21.55 5.3 17.45 7.5 13.8 8.9 12.45 8.85 12.35 8.8 10.75 11.8 10.65 11.95 Q8.3 16.0 7.2 16.6 5.85 17.3 -0.15 17.4 -6.3 17.5 -7.2 16.6 -8.55 15.2 -10.15 7.45 -11.2 2.3 -11.1 -0.05 L-13.5 -3.0 -13.85 -3.35 -14.6 -4.15 -16.35 -5.65 -18.2 -7.15 -18.55 -7.55 -18.95 -8.25 -19.05 -8.95 -18.95 -9.7 -18.7 -10.4 -18.2 -11.15 -17.6 -11.8 -16.95 -12.2 -16.25 -12.45 -15.55 -12.55 -14.75 -12.35 -14.25 -12.1 -12.2 -10.5 -11.55 -9.9 -9.65 -8.15 -9.25 -7.7 -7.2 -5.3 -7.6 -6.7 -9.15 -11.15 -10.7 -14.25 -10.8 -14.8 -10.85 -15.6 -10.6 -16.3 -10.15 -16.95 -9.6 -17.5 -8.8 -18.0 -7.9 -18.35 -7.05 -18.5 -6.3 -18.45 -5.55 -18.25 -4.55 -17.3 -3.0 -14.25 -2.8 -13.75 -1.05 -8.7 -0.4 -6.2 -0.4 -10.55 -0.5 -15.45 -0.75 -19.1 -0.65 -19.65 -0.4 -20.4 0.15 -20.95 0.75 -21.35 1.5 -21.65 2.4 -21.8 3.3 -21.75 4.1 -21.6 4.75 -21.25 5.3 -20.75 5.7 -20.05 5.85 -19.5 6.1 -15.7 5.7 -14.4 6.1 -15.7 6.2 -10.6 6.2 -5.0 5.4 -3.0 5.3 -2.5 5.3 -1.7 5.45 -1.4 5.3 -1.7 5.3 -2.5 5.4 -3.0 6.2 -5.0 8.25 -10.1 8.1 -8.75 8.25 -10.1 10.65 -14.75 10.4 -13.4 10.65 -14.75 M5.75 -9.35 L6.2 -10.6 5.75 -9.35 M-0.05 -14.25 L-0.5 -15.45 -0.05 -14.25 M-8.9 -0.9 L-8.2 -1.3 -7.0 -1.65 -6.2 -1.5 -4.75 -1.05 -2.5 -1.7 -0.25 -1.4 0.0 -1.35 2.5 -1.75 4.7 -1.2 5.45 -1.4 6.95 -1.85 8.65 -1.55 6.95 -1.85 5.45 -1.4 4.7 -1.2 2.5 -1.75 0.0 -1.35 -0.25 -1.4 -2.5 -1.7 -4.75 -1.05 -6.2 -1.5 -7.0 -1.65 -8.2 -1.3 -8.9 -0.9 M18.0 -0.75 L19.25 -1.85 18.0 -0.75 M13.05 -6.5 L13.95 -7.4 13.05 -6.5 M13.65 1.45 L14.55 0.55 13.65 1.45 M21.55 5.3 L20.6 5.2 21.55 5.3 M13.1 7.1 L12.35 8.8 13.1 7.1 M11.15 2.45 L11.0 1.9 11.15 2.45 M0.05 -9.3 L-0.4 -10.55 0.05 -9.3 M-9.9 0.9 L-10.4 0.65 -10.8 0.35 -11.1 -0.05 -10.8 0.35 -10.4 0.65 -9.9 0.9 M-2.75 -12.3 L-2.8 -13.75 -2.75 -12.3 M-11.55 -9.9 L-9.25 -7.7 -8.65 -6.4 -9.25 -7.7 -11.55 -9.9 M-6.85 -5.7 L-7.6 -6.7 -6.85 -5.7 M-0.4 -6.2 L-0.4 -1.8 -0.25 -1.4 -0.4 -1.8 -0.4 -6.2 M-7.2 -5.3 L-6.2 -1.5 -7.2 -5.3 M-8.3 -10.25 L-9.15 -11.15 -8.3 -10.25 M-1.15 -7.3 L-1.05 -8.7 -1.15 -7.3 M-15.15 -5.2 L-16.35 -5.65 -15.15 -5.2 M-12.75 -2.75 L-13.85 -3.35 -12.75 -2.75 M-11.5 -9.3 L-12.2 -10.5 -11.5 -9.3 M16.0 7.55 L17.45 7.5 16.0 7.55" fill="#ffffff" fill-rule="evenodd" stroke="none"/>
    <path d="M16.15 -11.65 L16.35 -12.05 18.1 -14.6 18.3 -15.1 18.45 -15.9 18.3 -16.6 18.0 -17.25 17.55 -17.85 16.9 -18.4 16.1 -18.8 15.35 -19.0 14.65 -19.05 13.9 -18.9 12.85 -18.05 10.65 -14.75 10.4 -13.4 M6.1 -15.7 L5.85 -19.5 5.7 -20.05 5.3 -20.75 4.75 -21.25 4.1 -21.6 3.3 -21.75 2.4 -21.8 1.5 -21.65 0.75 -21.35 0.15 -20.95 -0.4 -20.4 -0.65 -19.65 -0.75 -19.1 -0.5 -15.45 -0.05 -14.25 M6.1 -15.7 L5.7 -14.4 M6.2 -10.6 L5.75 -9.35 M8.25 -10.1 L8.1 -8.75 M5.45 -1.4 L5.3 -1.7 5.3 -2.5 5.4 -3.0 6.2 -5.0 6.2 -10.6 6.1 -15.7 M8.25 -10.1 L6.2 -5.0 M15.2 -10.8 L16.15 -11.65 13.95 -7.4 12.6 -4.1 11.75 -2.0 11.2 -0.65 10.9 -0.2 10.55 0.15 10.6 0.3 M11.0 1.9 L11.2 1.8 14.55 0.55 19.25 -1.85 21.85 -2.55 23.2 -2.35 23.9 -1.85 24.45 -1.25 24.9 -0.5 25.25 0.5 25.45 1.5 25.4 2.4 25.25 3.2 24.9 3.95 23.8 4.75 21.6 5.3 21.55 5.3 17.45 7.5 13.8 8.9 12.45 8.85 12.35 8.8 M-11.1 -0.05 L-13.5 -3.0 -13.85 -3.35 -14.6 -4.15 -16.35 -5.65 -18.2 -7.15 -18.55 -7.55 -18.95 -8.25 -19.05 -8.95 -18.95 -9.7 -18.7 -10.4 -18.2 -11.15 -17.6 -11.8 -16.95 -12.2 -16.25 -12.45 -15.55 -12.55 -14.75 -12.35 -14.25 -12.1 -12.2 -10.5 -11.55 -9.9 M-9.25 -7.7 L-7.2 -5.3 -7.6 -6.7 -9.15 -11.15 -10.7 -14.25 -10.8 -14.8 -10.85 -15.6 -10.6 -16.3 -10.15 -16.95 -9.6 -17.5 -8.8 -18.0 -7.9 -18.35 -7.05 -18.5 -6.3 -18.45 -5.55 -18.25 -4.55 -17.3 -3.0 -14.25 -2.8 -13.75 -1.05 -8.7 -0.4 -6.2 -0.4 -10.55 -0.5 -15.45 M13.95 -7.4 L13.05 -6.5 M19.25 -1.85 L18.0 -0.75 M10.65 -14.75 L8.25 -10.1 M20.6 5.2 L21.55 5.3 M14.55 0.55 L13.65 1.45 M17.45 7.5 L16.0 7.55 M-12.2 -10.5 L-11.5 -9.3 M-13.85 -3.35 L-12.75 -2.75 M-16.35 -5.65 L-15.15 -5.2 M-1.05 -8.7 L-1.15 -7.3 M-9.15 -11.15 L-8.3 -10.25 M-9.25 -7.7 L-8.65 -6.4 M-6.2 -1.5 L-7.2 -5.3 M-0.25 -1.4 L-0.4 -1.8 -0.4 -6.2 M-7.6 -6.7 L-6.85 -5.7 M-9.25 -7.7 L-11.55 -9.9 M-2.8 -13.75 L-2.75 -12.3 M-11.1 -0.05 L-10.8 0.35 -10.4 0.65 -9.9 0.9 M-0.4 -10.55 L0.05 -9.3" fill="none" stroke="#000000" stroke-linecap="round" stroke-linejoin="round" stroke-width="2.0"/>
    <path d="M8.65 -1.55 L6.95 -1.85 5.45 -1.4 4.7 -1.2 2.5 -1.75 0.0 -1.35 -0.25 -1.4 -2.5 -1.7 -4.75 -1.05 -6.2 -1.5 -7.0 -1.65 -8.2 -1.3 -8.9 -0.9" fill="none" stroke="#000000" stroke-linecap="round" stroke-linejoin="round" stroke-width="1.0"/>
    <path d="M10.6 0.3 L11.0 1.9 11.15 2.45 M12.35 8.8 L10.75 11.8 10.65 11.95 Q8.3 16.0 7.2 16.6 M-7.2 16.6 Q-8.55 15.2 -10.15 7.45 -11.2 2.3 -11.1 -0.05 M12.35 8.8 L13.1 7.1" fill="none" stroke="#000000" stroke-linecap="round" stroke-linejoin="round" stroke-width="3.0"/>
  </g>
</svg>
