<?xml version="1.0" encoding="UTF-8" standalone="no"?>
<svg xmlns:xlink="http://www.w3.org/1999/xlink" height="40.5px" width="44.15px" xmlns="http://www.w3.org/2000/svg">
  <g transform="matrix(1.0, 0.0, 0.0, 1.0, 17.2, 22.4)">
    <path d="M3.15 -16.75 L3.05 -17.2 3.05 -17.7 3.2 -18.5 3.55 -19.1 4.05 -19.65 4.7 -20.05 5.55 -20.3 6.4 -20.4 7.15 -20.35 7.85 -20.1 8.5 -19.7 9.2 -18.6 10.05 -14.8 9.85 -13.45 10.05 -14.8 10.9 -9.7 11.0 -9.15 11.45 -2.05 11.35 -1.55 11.1 -0.75 10.65 -0.2 10.5 -0.1 11.0 1.95 11.25 1.75 15.05 0.4 19.75 -0.4 21.05 -0.5 23.8 -0.25 25.05 0.4 25.5 1.1 25.8 1.85 25.95 2.75 25.9 3.8 25.7 4.8 25.4 5.65 24.95 6.3 24.35 6.9 23.55 7.15 23.05 7.25 20.8 7.0 20.8 6.95 20.75 6.95 17.0 7.65 13.75 8.85 13.25 8.9 12.4 8.8 12.35 8.75 10.65 11.95 Q8.3 16.0 7.2 16.6 5.85 17.3 -0.15 17.4 -6.3 17.5 -7.2 16.6 -8.55 15.2 -10.15 7.45 -11.25 2.1 -11.1 -0.2 L-11.3 -0.5 -13.1 -5.0 -14.7 -8.1 -15.9 -10.2 -16.2 -11.45 -16.0 -12.15 -15.7 -12.8 -15.2 -13.4 -14.5 -13.95 -13.7 -14.3 -12.9 -14.45 -12.2 -14.45 -11.5 -14.3 -10.8 -13.8 -10.45 -13.4 -9.1 -11.2 -8.3 -9.6 -8.8 -11.35 -8.95 -11.75 -10.25 -14.55 -10.35 -15.05 -10.35 -15.9 -10.05 -16.6 -9.6 -17.2 -9.0 -17.75 -8.2 -18.25 -7.3 -18.55 -6.45 -18.65 -5.7 -18.55 -4.95 -18.35 -4.35 -17.85 -4.4 -17.95 -4.4 -18.75 -4.1 -19.45 -3.7 -20.05 -3.1 -20.6 -2.3 -21.0 -1.4 -21.3 -0.6 -21.4 0.15 -21.3 0.85 -21.0 1.45 -20.45 1.75 -20.05 3.15 -16.75 3.35 -15.95 3.85 -13.65 4.5 -12.5 3.85 -13.65 3.35 -15.95 3.15 -16.75 M3.3 -14.8 L3.35 -15.95 3.3 -14.8 M-2.25 -13.35 L-2.95 -14.3 -4.3 -17.45 -4.35 -17.85 -4.3 -17.45 -2.95 -14.3 -2.25 -13.35 M3.85 -13.65 L4.65 -8.9 4.75 -8.4 5.2 -1.6 5.3 -1.4 5.2 -1.6 4.75 -8.4 4.65 -8.9 3.85 -13.65 M-8.9 -0.9 L-8.15 -1.3 -7.0 -1.65 -6.2 -1.5 -4.75 -1.05 -2.5 -1.7 -0.35 -1.4 0.0 -1.35 2.5 -1.75 4.7 -1.2 5.3 -1.4 6.95 -1.85 8.65 -1.55 6.95 -1.85 5.3 -1.4 4.7 -1.2 2.5 -1.75 0.0 -1.35 -0.35 -1.4 -2.5 -1.7 -4.75 -1.05 -6.2 -1.5 -7.0 -1.65 -8.15 -1.3 -8.9 -0.9 M10.65 -8.35 L10.9 -9.7 10.65 -8.35 M4.65 -8.9 L5.25 -7.75 4.65 -8.9 M19.95 6.55 L20.75 6.95 19.95 6.55 M13.8 1.35 L15.05 0.4 13.8 1.35 M13.1 7.1 L12.35 8.75 13.1 7.1 M11.15 2.45 L11.0 1.95 11.15 2.45 M-7.5 -6.85 L-6.75 -5.8 -7.5 -6.85 -7.35 -6.4 -6.2 -1.5 -7.35 -6.4 -7.5 -6.85 -8.3 -9.6 -7.5 -6.85 M-1.85 -9.75 L-0.35 -1.4 -1.85 -9.75 -2.95 -14.3 -1.85 -9.75 -1.2 -8.65 -1.85 -9.75 M-8.85 -9.8 L-9.1 -11.2 -8.85 -9.8 M-8.0 -10.45 L-8.8 -11.35 -8.0 -10.45 M-9.9 0.7 L-10.45 0.5 -11.0 -0.05 -11.1 -0.2 -11.0 -0.05 -10.45 0.5 -9.9 0.7 M-12.2 -4.05 L-13.1 -5.0 -12.2 -4.05 M-13.7 -7.25 L-14.7 -8.1 -13.7 -7.25 M10.25 0.05 L10.5 -0.1 10.25 0.05 M19.45 0.1 L21.05 -0.5 19.45 0.1 M15.85 7.55 L17.0 7.65 15.85 7.55" fill="#ffffff" fill-rule="evenodd" stroke="none"/>
    <path d="M10.05 -14.8 L9.2 -18.6 8.5 -19.7 7.85 -20.1 7.15 -20.35 6.4 -20.4 5.55 -20.3 4.7 -20.05 4.05 -19.65 3.55 -19.1 3.2 -18.5 3.05 -17.7 3.05 -17.2 3.15 -16.75 3.35 -15.95 3.85 -13.65 4.5 -12.5 M3.15 -16.75 L1.75 -20.05 1.45 -20.45 0.85 -21.0 0.15 -21.3 -0.6 -21.4 -1.4 -21.3 -2.3 -21.0 -3.1 -20.6 -3.7 -20.05 -4.1 -19.45 -4.4 -18.75 -4.4 -17.95 -4.35 -17.85 -4.3 -17.45 -2.95 -14.3 -2.25 -13.35 M3.35 -15.95 L3.3 -14.8 M9.85 -13.45 L10.05 -14.8 10.9 -9.7 11.0 -9.15 11.45 -2.05 11.35 -1.55 11.1 -0.75 10.65 -0.2 10.5 -0.1 10.25 0.05 M11.0 1.95 L11.25 1.75 15.05 0.4 19.75 -0.4 21.05 -0.5 23.8 -0.25 25.05 0.4 25.5 1.1 25.8 1.85 25.95 2.75 25.9 3.8 25.7 4.8 25.4 5.65 24.95 6.3 24.35 6.9 23.55 7.15 23.05 7.25 20.8 7.0 20.75 6.95 17.0 7.65 13.75 8.85 13.25 8.9 12.4 8.8 12.35 8.75 M-11.1 -0.2 L-11.3 -0.5 -13.1 -5.0 -14.7 -8.1 -15.9 -10.2 -16.2 -11.45 -16.0 -12.15 -15.7 -12.8 -15.2 -13.4 -14.5 -13.95 -13.7 -14.3 -12.9 -14.45 -12.2 -14.45 -11.5 -14.3 -10.8 -13.8 -10.45 -13.4 -9.1 -11.2 -8.3 -9.6 -8.8 -11.35 -8.95 -11.75 -10.25 -14.55 -10.35 -15.05 -10.35 -15.9 -10.05 -16.6 -9.6 -17.2 -9.0 -17.75 -8.2 -18.25 -7.3 -18.55 -6.45 -18.65 -5.7 -18.55 -4.95 -18.35 -4.35 -17.85 M5.3 -1.4 L5.2 -1.6 4.75 -8.4 4.65 -8.9 3.85 -13.65 M5.25 -7.75 L4.65 -8.9 M10.9 -9.7 L10.65 -8.35 M20.8 6.95 L20.75 6.95 19.95 6.55 M15.05 0.4 L13.8 1.35 M17.0 7.65 L15.85 7.55 M21.05 -0.5 L19.45 0.1 M-14.7 -8.1 L-13.7 -7.25 M-13.1 -5.0 L-12.2 -4.05 M-11.1 -0.2 L-11.0 -0.05 -10.45 0.5 -9.9 0.7 M-2.95 -14.3 L-1.85 -9.75 -1.2 -8.65 M-8.8 -11.35 L-8.0 -10.45 M-6.2 -1.5 L-7.35 -6.4 -7.5 -6.85 -8.3 -9.6 M-9.1 -11.2 L-8.85 -9.8 M-0.35 -1.4 L-1.85 -9.75 M-6.75 -5.8 L-7.5 -6.85" fill="none" stroke="#000000" stroke-linecap="round" stroke-linejoin="round" stroke-width="2.0"/>
    <path d="M8.65 -1.55 L6.95 -1.85 5.3 -1.4 4.7 -1.2 2.5 -1.75 0.0 -1.35 -0.35 -1.4 -2.5 -1.7 -4.75 -1.05 -6.2 -1.5 -7.0 -1.65 -8.15 -1.3 -8.9 -0.9" fill="none" stroke="#000000" stroke-linecap="round" stroke-linejoin="round" stroke-width="1.0"/>
    <path d="M10.5 -0.1 L11.0 1.95 11.15 2.45 M12.35 8.75 L10.65 11.95 Q8.3 16.0 7.2 16.6 M-7.2 16.6 Q-8.55 15.2 -10.15 7.45 -11.25 2.1 -11.1 -0.2 M12.35 8.75 L13.1 7.1" fill="none" stroke="#000000" stroke-linecap="round" stroke-linejoin="round" stroke-width="3.0"/>
  </g>
</svg>
