<?xml version="1.0" encoding="UTF-8" standalone="no"?>
<svg xmlns:xlink="http://www.w3.org/1999/xlink" height="40.35px" width="38.45px" xmlns="http://www.w3.org/2000/svg">
  <g transform="matrix(1.0, 0.0, 0.0, 1.0, 12.65, 22.25)">
    <path d="M8.3 -19.8 L8.45 -19.95 9.1 -20.2 9.85 -20.35 10.6 -20.3 11.45 -20.05 12.2 -19.6 12.8 -19.1 13.2 -18.55 13.45 -17.9 13.45 -17.1 13.35 -16.6 12.1 -13.6 11.5 -12.6 12.1 -13.6 11.55 -9.05 11.45 -1.75 11.0 -0.5 10.5 -0.05 10.9 1.5 11.0 1.95 11.05 1.95 11.2 1.8 13.45 1.0 13.9 0.9 14.2 0.75 17.95 -2.45 20.4 -3.7 21.75 -3.75 22.5 -3.4 23.15 -2.9 23.75 -2.25 24.3 -1.35 24.65 -0.4 24.8 0.5 24.8 1.35 24.6 2.1 24.1 2.75 23.7 3.1 22.0 3.9 21.65 4.1 17.75 7.3 13.8 8.9 13.3 8.95 12.45 8.85 12.35 8.8 10.65 11.95 Q8.3 16.0 7.2 16.6 5.85 17.3 -0.15 17.4 -6.3 17.5 -7.2 16.6 -8.55 15.2 -10.15 7.45 -11.4 1.45 -11.05 -0.7 L-11.1 -0.75 -11.4 -1.45 -11.45 -2.25 -11.4 -2.8 -10.05 -6.65 -9.35 -8.05 -8.35 -9.4 -6.15 -11.5 -4.1 -12.85 -3.6 -14.3 -2.55 -15.75 -0.95 -17.4 -0.55 -17.75 0.65 -18.35 1.45 -18.3 1.95 -18.2 3.15 -20.2 3.5 -20.6 4.2 -21.05 4.9 -21.25 5.7 -21.25 6.45 -21.05 7.3 -20.65 8.0 -20.1 8.3 -19.8 7.85 -19.35 7.5 -18.9 6.0 -15.0 6.15 -13.5 6.0 -15.0 7.5 -18.9 7.85 -19.35 8.3 -19.8 M5.25 -1.35 L5.15 -1.9 5.25 -9.05 5.3 -9.6 5.45 -8.85 5.65 -8.25 5.45 -8.85 5.3 -9.6 5.25 -9.05 5.15 -1.9 5.25 -1.35 6.95 -1.85 8.65 -1.55 6.95 -1.85 5.25 -1.35 4.7 -1.2 2.5 -1.75 0.0 -1.35 -0.3 -1.4 -2.5 -1.7 -4.75 -1.05 -5.6 -1.35 -6.1 -1.45 -7.0 -1.65 -8.2 -1.3 -8.9 -0.9 -8.2 -1.3 -7.0 -1.65 -6.1 -1.45 -5.6 -1.35 -4.75 -1.05 -2.5 -1.7 -0.3 -1.4 0.0 -1.35 2.5 -1.75 4.7 -1.2 5.25 -1.35 M-0.4 -9.6 L-0.7 -11.1 0.6 -15.55 1.0 -16.6 1.95 -18.2 1.0 -16.6 0.9 -15.05 1.0 -16.6 0.6 -15.55 -0.7 -11.1 -0.4 -9.6 M13.6 1.5 L14.2 0.75 13.6 1.5 M21.65 4.1 L20.7 4.2 21.65 4.1 M5.3 -9.6 L6.0 -15.0 5.3 -9.6 M16.9 -1.1 L17.95 -2.45 16.9 -1.1 M11.05 -7.9 L11.55 -9.05 11.05 -7.9 M11.15 2.45 L11.05 1.95 11.15 2.45 M13.15 7.1 L12.35 8.8 13.15 7.1 M-5.35 -8.55 L-6.15 -2.1 -6.1 -1.45 -6.15 -2.1 -5.35 -8.55 -4.7 -11.3 -4.1 -12.85 -4.7 -11.3 -5.35 -8.55 -5.1 -7.1 -5.35 -8.55 M-9.65 -6.45 L-9.35 -8.05 -9.65 -6.45 M-7.0 -10.2 L-6.15 -11.5 -7.0 -10.2 M-0.7 -11.1 L-0.85 -9.6 -0.4 -1.7 -0.3 -1.4 -0.4 -1.7 -0.85 -9.6 -0.7 -11.1 M-10.0 0.3 L-10.6 -0.2 -11.05 -0.7 -10.6 -0.2 -10.0 0.3 M-3.85 -12.55 L-3.6 -14.3 -3.85 -12.55 M16.05 7.55 L17.75 7.3 16.05 7.55" fill="#ffffff" fill-rule="evenodd" stroke="none"/>
    <path d="M12.1 -13.6 L13.35 -16.6 13.45 -17.1 13.45 -17.9 13.2 -18.55 12.8 -19.1 12.2 -19.6 11.45 -20.05 10.6 -20.3 9.85 -20.35 9.1 -20.2 8.45 -19.95 8.3 -19.8 7.85 -19.35 7.5 -18.9 6.0 -15.0 6.15 -13.5 M11.5 -12.6 L12.1 -13.6 11.55 -9.05 11.45 -1.75 11.0 -0.5 10.5 -0.05 M11.05 1.95 L11.2 1.8 13.45 1.0 13.9 0.9 14.2 0.75 17.95 -2.45 20.4 -3.7 21.75 -3.75 22.5 -3.4 23.15 -2.9 23.75 -2.25 24.3 -1.35 24.65 -0.4 24.8 0.5 24.8 1.35 24.6 2.1 24.1 2.75 23.7 3.1 22.0 3.9 21.65 4.1 17.75 7.3 13.8 8.9 13.3 8.95 12.45 8.85 12.35 8.8 M-11.05 -0.7 L-11.1 -0.75 -11.4 -1.45 -11.45 -2.25 -11.4 -2.8 -10.05 -6.65 -9.35 -8.05 -8.35 -9.4 -6.15 -11.5 -4.1 -12.85 -3.6 -14.3 -2.55 -15.75 -0.95 -17.4 -0.55 -17.75 0.65 -18.35 1.45 -18.3 1.95 -18.2 3.15 -20.2 3.5 -20.6 4.2 -21.05 4.9 -21.25 5.7 -21.25 6.45 -21.05 7.3 -20.65 8.0 -20.1 8.3 -19.8 M1.95 -18.2 L1.0 -16.6 0.9 -15.05 M1.0 -16.6 L0.6 -15.55 -0.7 -11.1 -0.4 -9.6 M5.65 -8.25 L5.45 -8.85 5.3 -9.6 5.25 -9.05 5.15 -1.9 5.25 -1.35 M11.55 -9.05 L11.05 -7.9 M17.95 -2.45 L16.9 -1.1 M6.0 -15.0 L5.3 -9.6 M20.7 4.2 L21.65 4.1 M14.2 0.75 L13.6 1.5 M11.05 1.95 L11.0 1.95 M17.75 7.3 L16.05 7.55 M-3.6 -14.3 L-3.85 -12.55 M-11.05 -0.7 L-10.6 -0.2 -10.0 0.3 M-0.3 -1.4 L-0.4 -1.7 -0.85 -9.6 -0.7 -11.1 M-4.1 -12.85 L-4.7 -11.3 -5.35 -8.55 -5.1 -7.1 M-6.15 -11.5 L-7.0 -10.2 M-9.35 -8.05 L-9.65 -6.45 M-6.1 -1.45 L-6.15 -2.1 -5.35 -8.55" fill="none" stroke="#000000" stroke-linecap="round" stroke-linejoin="round" stroke-width="2.0"/>
    <path d="M5.25 -1.35 L6.95 -1.85 8.65 -1.55 M5.25 -1.35 L4.7 -1.2 2.5 -1.75 0.0 -1.35 -0.3 -1.4 -2.5 -1.7 -4.75 -1.05 -5.6 -1.35 -6.1 -1.45 -7.0 -1.65 -8.2 -1.3 -8.9 -0.9" fill="none" stroke="#000000" stroke-linecap="round" stroke-linejoin="round" stroke-width="1.0"/>
    <path d="M10.5 -0.05 L10.9 1.5 11.05 1.95 11.15 2.45 M12.35 8.8 L10.65 11.95 Q8.3 16.0 7.2 16.6 M-7.2 16.6 Q-8.55 15.2 -10.15 7.45 -11.4 1.45 -11.05 -0.7 M12.35 8.8 L13.15 7.1" fill="none" stroke="#000000" stroke-linecap="round" stroke-linejoin="round" stroke-width="3.0"/>
  </g>
</svg>
