<?xml version="1.0" encoding="UTF-8" standalone="no"?>
<svg xmlns:xlink="http://www.w3.org/1999/xlink" height="39.1px" width="32.15px" xmlns="http://www.w3.org/2000/svg">
  <g transform="matrix(1.0, 0.0, 0.0, 1.0, 12.6, 21.0)">
    <path d="M11.15 -18.25 L11.55 -18.55 12.9 -19.0 13.6 -18.85 14.3 -18.6 14.95 -18.15 15.55 -17.5 16.0 -16.8 16.2 -16.05 16.25 -15.4 16.15 -14.7 15.75 -14.05 15.4 -13.65 14.0 -12.8 13.6 -12.6 13.05 -12.05 11.35 -8.4 11.2 -7.5 11.25 -6.35 11.3 -6.45 11.95 -7.0 12.7 -7.45 13.7 -7.8 14.7 -7.95 15.6 -7.95 16.4 -7.8 17.15 -7.45 17.95 -6.35 18.55 -3.55 18.0 -1.6 18.55 -3.55 18.25 0.05 17.6 3.0 16.2 6.35 16.05 6.8 15.7 7.2 15.05 7.75 14.3 8.0 13.45 8.05 12.75 7.95 10.65 11.95 Q8.3 16.0 7.2 16.6 5.85 17.3 -0.15 17.4 -6.3 17.5 -7.2 16.6 -8.55 15.2 -10.15 7.45 -11.3 1.8 -11.05 -0.45 L-11.2 -0.55 -11.6 -1.85 -11.3 -6.8 -11.2 -7.45 -10.65 -9.0 -9.25 -11.7 -7.5 -13.95 -7.05 -14.3 -6.3 -14.7 -5.6 -14.75 -4.85 -14.65 -3.95 -14.35 -3.95 -14.4 -2.85 -15.8 -0.75 -17.7 -0.3 -17.95 0.5 -18.25 1.3 -18.2 2.05 -17.95 2.75 -17.55 3.4 -17.05 5.35 -18.65 7.15 -19.7 7.65 -19.9 8.45 -20.0 9.2 -19.85 9.9 -19.5 10.5 -19.0 11.1 -18.3 11.15 -18.25 9.2 -16.85 8.0 -15.65 7.5 -14.1 8.0 -15.65 9.2 -16.85 11.15 -18.25 M0.35 -10.0 L0.3 -11.6 1.55 -14.3 3.3 -17.0 3.4 -17.05 3.3 -17.0 2.7 -15.4 3.3 -17.0 1.55 -14.3 0.3 -11.6 0.35 -10.0 M5.45 -10.2 L5.55 -8.65 5.45 -10.2 5.15 -8.7 5.1 -1.9 5.2 -1.4 5.25 -1.35 5.2 -1.4 5.1 -1.9 5.15 -8.7 5.45 -10.2 6.5 -12.95 8.0 -15.65 6.5 -12.95 5.45 -10.2 M-4.3 -12.7 L-3.95 -14.35 -4.3 -12.7 M-8.9 -0.9 L-8.2 -1.3 -7.0 -1.65 -6.15 -1.5 -4.75 -1.05 -2.5 -1.7 -0.25 -1.4 0.0 -1.35 2.5 -1.75 4.7 -1.2 5.25 -1.35 6.95 -1.85 8.65 -1.55 6.95 -1.85 5.25 -1.35 4.7 -1.2 2.5 -1.75 0.0 -1.35 -0.25 -1.4 -2.5 -1.7 -4.75 -1.05 -6.15 -1.5 -7.0 -1.65 -8.2 -1.3 -8.9 -0.9 M11.65 -1.95 L11.35 -2.4 11.25 -6.35 11.35 -2.4 11.65 -1.95 M10.8 -7.55 L11.35 -8.4 10.8 -7.55 M11.35 -2.4 L11.35 -1.75 11.25 -1.25 10.95 -0.5 10.7 -0.3 10.95 -0.5 11.25 -1.25 11.35 -1.75 11.35 -2.4 M12.2 -11.45 L13.05 -12.05 12.2 -11.45 M10.6 0.25 L10.7 -0.3 10.5 -0.1 10.6 0.25 M11.15 2.45 L10.5 -0.1 11.15 2.45 M16.55 4.25 L17.6 3.0 16.55 4.25 M-5.7 -6.95 L-6.0 -8.5 -5.2 -11.4 -3.95 -14.35 -5.2 -11.4 -6.0 -8.5 -5.7 -6.95 M13.1 7.1 L12.75 7.95 13.1 7.1 M-10.1 0.4 L-10.7 0.0 -11.05 -0.45 -10.7 0.0 -10.1 0.4 M-6.15 -1.5 L-6.2 -1.75 -6.0 -8.5 -6.2 -1.75 -6.15 -1.5 M-9.65 -10.2 L-9.25 -11.7 -9.65 -10.2 M-0.25 -1.4 L-0.3 -1.5 -0.4 -2.0 -0.25 -5.8 -0.2 -7.95 -0.05 -10.1 0.3 -11.6 -0.05 -10.1 -0.2 -7.95 -0.25 -5.8 -0.4 -2.0 -0.3 -1.5 -0.25 -1.4 M-11.0 -5.85 L-11.2 -7.45 -11.0 -5.85" fill="#ffffff" fill-rule="evenodd" stroke="none"/>
    <path d="M13.05 -12.05 L13.6 -12.6 14.0 -12.8 15.4 -13.65 15.75 -14.05 16.15 -14.7 16.25 -15.4 16.2 -16.05 16.0 -16.8 15.55 -17.5 14.95 -18.15 14.3 -18.6 13.6 -18.85 12.9 -19.0 11.55 -18.55 11.15 -18.25 9.2 -16.85 8.0 -15.65 7.5 -14.1 M11.15 -18.25 L11.1 -18.3 10.5 -19.0 9.9 -19.5 9.2 -19.85 8.45 -20.0 7.65 -19.9 7.15 -19.7 5.35 -18.65 3.4 -17.05 3.3 -17.0 2.7 -15.4 M3.3 -17.0 L1.55 -14.3 0.3 -11.6 0.35 -10.0 M3.4 -17.05 L2.75 -17.55 2.05 -17.95 1.3 -18.2 0.5 -18.25 -0.3 -17.95 -0.75 -17.7 -2.85 -15.8 -3.95 -14.4 -3.95 -14.35 -4.3 -12.7 M5.25 -1.35 L5.2 -1.4 5.1 -1.9 5.15 -8.7 5.45 -10.2 6.5 -12.95 8.0 -15.65 M5.55 -8.65 L5.45 -10.2 M18.55 -3.55 L17.95 -6.35 17.15 -7.45 16.4 -7.8 15.6 -7.95 14.7 -7.95 13.7 -7.8 12.7 -7.45 11.95 -7.0 11.3 -6.45 11.25 -6.35 11.35 -2.4 11.65 -1.95 M11.25 -6.35 L11.2 -7.5 11.35 -8.4 10.8 -7.55 M11.35 -8.4 L13.05 -12.05 12.2 -11.45 M10.7 -0.3 L10.95 -0.5 11.25 -1.25 11.35 -1.75 11.35 -2.4 M10.5 -0.1 L10.7 -0.3 10.6 0.25 M18.0 -1.6 L18.55 -3.55 18.25 0.05 17.6 3.0 16.2 6.35 16.05 6.8 15.7 7.2 15.05 7.75 14.3 8.0 13.45 8.05 12.75 7.95 M-11.05 -0.45 L-11.2 -0.55 -11.6 -1.85 -11.3 -6.8 -11.2 -7.45 -10.65 -9.0 -9.25 -11.7 -7.5 -13.95 -7.05 -14.3 -6.3 -14.7 -5.6 -14.75 -4.85 -14.65 -3.95 -14.35 -5.2 -11.4 -6.0 -8.5 -5.7 -6.95 M17.6 3.0 L16.55 4.25 M-11.2 -7.45 L-11.0 -5.85 M0.3 -11.6 L-0.05 -10.1 -0.2 -7.95 -0.25 -5.8 -0.4 -2.0 -0.3 -1.5 -0.25 -1.4 M-9.25 -11.7 L-9.65 -10.2 M-6.0 -8.5 L-6.2 -1.75 -6.15 -1.5 M-11.05 -0.45 L-10.7 0.0 -10.1 0.4" fill="none" stroke="#000000" stroke-linecap="round" stroke-linejoin="round" stroke-width="2.0"/>
    <path d="M8.65 -1.55 L6.95 -1.85 5.25 -1.35 4.7 -1.2 2.5 -1.75 0.0 -1.35 -0.25 -1.4 -2.5 -1.7 -4.75 -1.05 -6.15 -1.5 -7.0 -1.65 -8.2 -1.3 -8.9 -0.9" fill="none" stroke="#000000" stroke-linecap="round" stroke-linejoin="round" stroke-width="1.0"/>
    <path d="M10.5 -0.1 L11.15 2.45 M12.75 7.95 L10.65 11.95 Q8.3 16.0 7.2 16.6 M-7.2 16.6 Q-8.55 15.2 -10.15 7.45 -11.3 1.8 -11.05 -0.45 M12.75 7.95 L13.1 7.1" fill="none" stroke="#000000" stroke-linecap="round" stroke-linejoin="round" stroke-width="3.0"/>
  </g>
</svg>
