<?xml version="1.0" encoding="UTF-8" standalone="no"?>
<svg xmlns:xlink="http://www.w3.org/1999/xlink" height="35.05px" width="35.8px" xmlns="http://www.w3.org/2000/svg">
  <g transform="matrix(1.0, 0.0, 0.0, 1.0, 12.65, 16.95)">
    <path d="M12.35 -13.35 L13.8 -14.2 14.9 -14.35 13.8 -14.2 12.35 -13.35 M8.6 -15.95 L10.85 -15.95 13.8 -15.15 14.9 -14.35 15.55 -14.4 18.5 -14.1 19.75 -13.55 20.25 -12.95 20.6 -12.3 20.8 -11.55 20.8 -10.65 20.65 -9.8 20.3 -9.15 19.9 -8.6 19.35 -8.2 18.1 -7.9 17.7 -8.0 15.65 -8.35 15.4 -8.35 12.15 -7.05 11.5 -6.7 12.15 -7.05 15.4 -8.35 15.35 -8.35 14.35 -8.45 15.35 -8.35 15.4 -8.35 12.1 -6.95 11.85 -6.5 11.8 -4.65 11.2 -1.1 11.0 -0.6 10.55 0.05 10.5 0.05 10.95 1.65 11.05 2.05 11.25 1.9 13.45 1.2 13.8 1.25 14.0 1.3 14.4 0.25 15.2 0.0 15.0 -0.2 14.8 -0.55 14.55 -1.2 14.45 -1.65 14.45 -2.15 14.6 -2.95 15.1 -3.6 15.7 -4.1 16.45 -4.55 17.4 -4.9 18.45 -5.1 19.35 -5.05 20.1 -4.9 20.85 -4.55 21.65 -3.45 21.8 -2.95 22.15 -0.35 20.7 3.85 18.25 6.9 15.8 8.2 13.9 8.9 13.35 8.95 12.5 8.85 12.35 8.75 13.1 7.1 12.35 8.75 10.65 11.95 Q8.3 16.0 7.2 16.6 5.85 17.3 -0.15 17.4 -6.3 17.5 -7.2 16.6 -8.55 15.2 -10.15 7.45 -11.4 1.45 -11.05 -0.7 L-10.6 -0.2 -10.0 0.3 -10.6 -0.2 -11.05 -0.7 -11.1 -0.75 -11.4 -1.45 -11.45 -2.25 -11.4 -2.8 -10.05 -6.75 -9.2 -8.25 -9.65 -6.6 -9.2 -8.25 -8.0 -9.55 -5.4 -11.45 -2.65 -12.55 -1.5 -12.6 -1.25 -12.8 -2.2 -12.0 -4.15 -9.35 -4.4 -7.65 -4.15 -9.35 -2.2 -12.0 -1.25 -12.8 0.55 -14.3 2.45 -14.95 5.4 -15.25 6.4 -15.05 6.55 -15.1 8.6 -15.95 6.9 -14.9 8.6 -15.95 M7.4 -9.6 L8.05 -11.2 10.75 -13.05 13.8 -14.2 10.75 -13.05 8.05 -11.2 7.4 -9.6 M-0.7 -12.85 L0.55 -14.3 -0.7 -12.85 M2.2 -10.7 L2.75 -12.3 5.25 -14.45 6.55 -15.1 5.25 -14.45 2.75 -12.3 2.2 -10.7 M5.3 -1.4 L5.2 -2.15 5.2 -2.7 6.5 -8.25 7.1 -9.8 7.6 -10.65 8.05 -11.2 7.6 -10.65 7.1 -9.8 6.5 -8.25 5.2 -2.7 5.2 -2.15 5.3 -1.4 6.95 -1.85 8.65 -1.55 6.95 -1.85 5.3 -1.4 4.7 -1.2 2.5 -1.75 0.0 -1.35 -0.2 -1.4 -2.5 -1.7 -4.75 -1.05 -5.6 -1.35 -6.0 -1.45 -7.0 -1.65 -8.2 -1.3 -8.9 -0.9 -8.2 -1.3 -7.0 -1.65 -6.0 -1.45 -5.6 -1.35 -4.75 -1.05 -2.5 -1.7 -0.2 -1.4 0.0 -1.35 2.5 -1.75 4.7 -1.2 5.3 -1.4 M2.75 -12.3 L2.3 -11.75 1.85 -10.9 1.15 -8.7 0.6 -6.45 -0.3 -2.7 -0.3 -2.15 -0.2 -1.4 -0.3 -2.15 -0.3 -2.7 0.6 -6.45 1.15 -8.7 1.85 -10.9 2.3 -11.75 2.75 -12.3 M13.65 1.7 L13.8 1.5 14.0 1.3 13.8 1.5 13.65 1.7 M11.15 2.45 L11.05 2.05 11.15 2.45 M10.25 0.2 L10.5 0.05 10.25 0.2 M16.25 7.45 L18.25 6.9 16.25 7.45 M-6.5 -10.25 L-5.4 -11.45 -6.5 -10.25 M-6.0 -1.45 L-6.1 -2.0 -6.1 -2.55 -4.8 -7.8 -4.15 -9.35 -4.8 -7.8 -6.1 -2.55 -6.1 -2.0 -6.0 -1.45" fill="#ffffff" fill-rule="evenodd" stroke="none"/>
    <path d="M14.9 -14.35 L13.8 -14.2 12.35 -13.35 M15.4 -8.35 L15.65 -8.35 17.7 -8.0 18.1 -7.9 19.35 -8.2 19.9 -8.6 20.3 -9.15 20.65 -9.8 20.8 -10.65 20.8 -11.55 20.6 -12.3 20.25 -12.95 19.75 -13.55 18.5 -14.1 15.55 -14.4 14.9 -14.35 13.8 -15.15 10.85 -15.95 8.6 -15.95 6.9 -14.9 M13.8 -14.2 L10.75 -13.05 8.05 -11.2 7.4 -9.6 M6.4 -15.05 L5.4 -15.25 2.45 -14.95 0.55 -14.3 -0.7 -12.85 M6.55 -15.1 L5.25 -14.45 2.75 -12.3 2.2 -10.7 M8.6 -15.95 L7.25 -15.45 6.55 -15.1 M8.05 -11.2 L7.6 -10.65 7.1 -9.8 6.5 -8.25 5.2 -2.7 5.2 -2.15 5.3 -1.4 M-0.2 -1.4 L-0.3 -2.15 -0.3 -2.7 0.6 -6.45 1.15 -8.7 1.85 -10.9 2.3 -11.75 2.75 -12.3 M11.5 -6.7 L12.15 -7.05 15.4 -8.35 15.35 -8.35 14.35 -8.45 M10.5 0.05 L10.55 0.05 11.0 -0.6 11.2 -1.1 11.8 -4.65 11.85 -6.5 12.1 -6.95 M18.25 6.9 L20.7 3.85 22.15 -0.35 21.8 -2.95 21.65 -3.45 20.85 -4.55 20.1 -4.9 19.35 -5.05 18.45 -5.1 17.4 -4.9 16.45 -4.55 15.7 -4.1 15.1 -3.6 14.6 -2.95 14.45 -2.15 14.45 -1.65 14.55 -1.2 14.8 -0.55 15.0 -0.2 15.2 0.0 14.4 0.25 14.0 1.3 13.8 1.5 13.65 1.7 M13.8 1.25 L13.45 1.2 11.25 1.9 11.05 2.05 M10.5 0.05 L10.25 0.2 M12.35 8.75 L12.5 8.85 13.35 8.95 13.9 8.9 15.8 8.2 18.25 6.9 16.25 7.45 M-1.5 -12.6 L-2.65 -12.55 -5.4 -11.45 -6.5 -10.25 M-11.05 -0.7 L-10.6 -0.2 -10.0 0.3 M-9.2 -8.25 L-10.05 -6.75 -11.4 -2.8 -11.45 -2.25 -11.4 -1.45 -11.1 -0.75 -11.05 -0.7 M-1.25 -12.8 L-2.2 -12.0 -4.15 -9.35 -4.4 -7.65 M-4.15 -9.35 L-4.8 -7.8 -6.1 -2.55 -6.1 -2.0 -6.0 -1.45 M-9.2 -8.25 L-9.65 -6.6 M-5.4 -11.45 L-8.0 -9.55 -9.2 -8.25 M0.55 -14.3 L-1.25 -12.8" fill="none" stroke="#000000" stroke-linecap="round" stroke-linejoin="round" stroke-width="2.0"/>
    <path d="M5.3 -1.4 L6.95 -1.85 8.65 -1.55 M5.3 -1.4 L4.7 -1.2 2.5 -1.75 0.0 -1.35 -0.2 -1.4 -2.5 -1.7 -4.75 -1.05 -5.6 -1.35 -6.0 -1.45 -7.0 -1.65 -8.2 -1.3 -8.9 -0.9" fill="none" stroke="#000000" stroke-linecap="round" stroke-linejoin="round" stroke-width="1.0"/>
    <path d="M11.05 2.05 L11.15 2.45 M10.95 1.65 L10.5 0.05 M12.35 8.75 L13.1 7.1 M7.2 16.6 Q8.3 16.0 10.65 11.95 L12.35 8.75 M-11.05 -0.7 Q-11.4 1.45 -10.15 7.45 -8.55 15.2 -7.2 16.6" fill="none" stroke="#000000" stroke-linecap="round" stroke-linejoin="round" stroke-width="3.0"/>
  </g>
</svg>
