<?xml version="1.0" encoding="UTF-8" standalone="no"?>
<svg xmlns:xlink="http://www.w3.org/1999/xlink" height="38.5px" width="44.45px" xmlns="http://www.w3.org/2000/svg">
  <g transform="matrix(1.0, 0.0, 0.0, 1.0, 19.05, 20.4)">
    <path d="M9.0 -11.05 L11.75 -12.9 15.15 -13.9 17.15 -13.6 18.0 -13.25 20.05 -12.05 20.45 -11.7 21.0 -11.0 21.25 -10.3 21.3 -9.5 21.15 -8.75 20.85 -7.95 20.35 -7.25 19.8 -6.8 19.2 -6.5 18.55 -6.35 17.35 -6.65 16.55 -7.3 15.9 -8.05 15.75 -8.1 15.25 -7.9 13.0 -6.75 12.95 -6.65 12.75 -6.4 12.55 -6.05 12.2 -4.2 11.15 -0.75 10.85 -0.3 10.5 0.05 10.3 0.3 10.5 0.05 11.0 2.0 11.15 2.45 11.0 2.0 11.2 1.85 14.45 0.85 16.1 -0.15 16.6 -0.1 17.0 0.0 16.9 -0.65 17.05 -1.8 17.3 -2.25 17.8 -2.9 18.5 -3.25 19.3 -3.5 20.2 -3.55 21.2 -3.45 22.2 -3.15 23.0 -2.75 23.6 -2.25 24.15 -1.6 24.35 -0.85 24.4 -0.3 24.1 1.0 23.5 2.7 20.4 5.8 17.75 7.45 13.85 8.9 13.3 8.95 12.5 8.85 12.35 8.75 10.65 11.95 Q8.3 16.0 7.2 16.6 5.85 17.3 -0.15 17.4 -6.3 17.5 -7.2 16.6 -8.55 15.2 -10.15 7.45 -11.05 3.0 -11.1 0.65 L-13.65 -0.45 -14.5 -1.0 -15.1 -1.5 -15.65 -2.1 -16.25 -3.0 -17.55 -6.05 -17.75 -6.85 -18.05 -8.95 -18.0 -9.5 -17.8 -10.3 -17.35 -10.9 -16.8 -11.4 -16.1 -11.75 -15.25 -11.95 -14.35 -12.0 -13.6 -11.85 -12.95 -11.55 -12.4 -11.15 -11.85 -10.0 -11.65 -7.95 -11.15 -6.25 -10.8 -5.75 -10.6 -5.65 -8.7 -5.05 -8.75 -5.15 -9.15 -5.95 -8.05 -4.7 -9.15 -5.95 -10.1 -12.05 -9.9 -13.7 -9.25 -16.35 -9.0 -16.85 -8.5 -17.5 -7.85 -17.9 -7.1 -18.15 -6.25 -18.2 -5.3 -18.1 -4.4 -17.8 -3.7 -17.4 -3.15 -16.85 -2.75 -16.25 -2.55 -14.95 -3.3 -11.95 -3.25 -11.2 -2.75 -8.15 -2.75 -7.15 -2.75 -8.15 -0.75 -4.9 -0.8 -5.35 -1.0 -7.55 -1.2 -9.7 -1.0 -11.25 0.05 -14.2 1.95 -17.2 3.85 -18.4 6.75 -19.35 7.3 -19.4 8.1 -19.3 8.8 -18.95 9.35 -18.45 9.85 -17.8 10.25 -16.95 10.4 -16.1 10.4 -15.3 10.25 -14.6 9.9 -13.95 9.3 -13.45 8.85 -13.15 7.75 -12.9 6.8 -12.8 6.65 -12.9 6.5 -12.95 6.35 -12.45 5.3 -10.15 5.3 -9.9 5.25 -9.5 5.25 -9.0 5.85 -4.5 7.25 -8.35 7.95 -9.8 9.0 -11.05 8.25 -9.55 9.0 -11.05 M1.15 -15.45 L1.95 -17.2 1.15 -15.45 M-0.75 -9.7 L-1.0 -11.25 -0.75 -9.7 M6.0 -12.65 L6.5 -12.95 6.0 -12.65 M5.4 -1.4 L5.25 -1.7 5.25 -2.55 5.3 -3.05 5.85 -4.5 5.3 -3.05 5.25 -2.55 5.25 -1.7 5.4 -1.4 6.95 -1.85 8.65 -1.55 6.95 -1.85 5.4 -1.4 4.7 -1.2 2.5 -1.75 0.0 -1.35 -0.35 -1.4 -2.5 -1.7 -4.75 -1.05 -5.6 -1.35 -6.7 -1.6 -7.0 -1.65 -8.2 -1.3 -8.9 -0.9 -8.2 -1.3 -7.0 -1.65 -6.7 -1.6 -5.6 -1.35 -4.75 -1.05 -2.5 -1.7 -0.35 -1.4 0.0 -1.35 2.5 -1.75 4.7 -1.2 5.4 -1.4 M4.8 -9.0 L5.3 -10.15 4.8 -9.0 M15.05 -8.25 L15.4 -8.2 15.75 -8.1 15.4 -8.2 15.05 -8.25 M12.2 -6.3 L13.0 -6.75 12.2 -6.3 M13.7 1.55 L14.45 0.85 13.7 1.55 M13.1 7.1 L12.35 8.75 13.1 7.1 M16.1 7.55 L17.75 7.45 16.1 7.55 M-11.75 -6.9 L-11.65 -7.95 -11.75 -6.9 M-9.55 -10.45 L-10.1 -12.05 -9.55 -10.45 M-16.65 -4.65 L-17.55 -6.05 -16.65 -4.65 M-13.45 -0.8 L-15.1 -1.5 -13.45 -0.8 M-10.45 -5.15 L-10.8 -5.75 -10.45 -5.15 M-9.85 1.25 L-11.1 0.65 -9.85 1.25 M-3.7 -11.0 L-3.3 -11.95 -3.7 -11.0 M-0.35 -1.4 L-0.4 -1.55 -0.75 -4.9 -0.4 -1.55 -0.35 -1.4 M-6.7 -1.6 L-8.75 -5.15 -6.7 -1.6" fill="#ffffff" fill-rule="evenodd" stroke="none"/>
    <path d="M15.75 -8.1 L15.9 -8.05 16.55 -7.3 17.35 -6.65 18.55 -6.35 19.2 -6.5 19.8 -6.8 20.35 -7.25 20.85 -7.95 21.15 -8.75 21.3 -9.5 21.25 -10.3 21.0 -11.0 20.45 -11.7 20.05 -12.05 18.0 -13.25 17.15 -13.6 15.15 -13.9 11.75 -12.9 9.0 -11.05 8.25 -9.55 M6.5 -12.95 L6.65 -12.9 6.8 -12.8 7.75 -12.9 8.85 -13.15 9.3 -13.45 9.9 -13.95 10.25 -14.6 10.4 -15.3 10.4 -16.1 10.25 -16.95 9.85 -17.8 9.35 -18.45 8.8 -18.95 8.1 -19.3 7.3 -19.4 6.75 -19.35 3.85 -18.4 1.95 -17.2 1.15 -15.45 M1.95 -17.2 L0.05 -14.2 -1.0 -11.25 -0.75 -9.7 M5.3 -10.15 L6.35 -12.45 6.5 -12.95 6.0 -12.65 M9.0 -11.05 L7.95 -9.8 7.25 -8.35 5.85 -4.5 5.3 -3.05 5.25 -2.55 5.25 -1.7 5.4 -1.4 M5.85 -4.5 L5.25 -9.0 5.25 -9.5 5.3 -9.9 M5.3 -10.15 L4.8 -9.0 M13.0 -6.75 L15.25 -7.9 15.75 -8.1 15.4 -8.2 15.05 -8.25 M10.5 0.05 L10.85 -0.3 11.15 -0.75 12.2 -4.2 12.55 -6.05 12.75 -6.4 12.95 -6.65 M13.0 -6.75 L12.2 -6.3 M17.75 7.45 L20.4 5.8 23.5 2.7 24.1 1.0 24.4 -0.3 24.35 -0.85 24.15 -1.6 23.6 -2.25 23.0 -2.75 22.2 -3.15 21.2 -3.45 20.2 -3.55 19.3 -3.5 18.5 -3.25 17.8 -2.9 17.3 -2.25 17.05 -1.8 16.9 -0.65 17.0 0.0 16.6 -0.1 16.1 -0.15 14.45 0.85 13.7 1.55 M10.5 0.05 L10.3 0.3 M14.45 0.85 L11.2 1.85 11.0 2.0 M12.35 8.75 L12.5 8.85 13.3 8.95 13.85 8.9 17.75 7.45 16.1 7.55 M-3.3 -11.95 L-2.55 -14.95 -2.75 -16.25 -3.15 -16.85 -3.7 -17.4 -4.4 -17.8 -5.3 -18.1 -6.25 -18.2 -7.1 -18.15 -7.85 -17.9 -8.5 -17.5 -9.0 -16.85 -9.25 -16.35 -9.9 -13.7 -10.1 -12.05 -9.55 -10.45 M-11.65 -7.95 L-11.75 -6.9 M-10.8 -5.75 L-11.15 -6.25 -11.65 -7.95 -11.85 -10.0 -12.4 -11.15 -12.95 -11.55 -13.6 -11.85 -14.35 -12.0 -15.25 -11.95 -16.1 -11.75 -16.8 -11.4 -17.35 -10.9 -17.8 -10.3 -18.0 -9.5 -18.05 -8.95 -17.9 -7.55 -17.75 -6.85 -17.55 -6.05 -16.65 -4.65 M-17.55 -6.05 L-16.25 -3.0 -15.65 -2.1 -15.1 -1.5 -13.45 -0.8 M-8.7 -5.05 L-10.6 -5.65 -10.8 -5.75 -10.45 -5.15 M-15.1 -1.5 L-14.5 -1.0 -13.65 -0.45 -11.1 0.65 -9.85 1.25 M-2.75 -8.15 L-3.25 -11.2 -3.3 -11.95 -3.7 -11.0 M-1.0 -11.25 L-1.2 -9.7 -1.0 -7.55 -0.8 -5.35 -0.75 -4.9 -0.4 -1.55 -0.35 -1.4 M-2.75 -8.15 L-2.75 -7.15 M-9.15 -5.95 L-8.05 -4.7 M-8.75 -5.15 L-8.85 -5.3 -9.15 -5.95 -10.1 -12.05 M-8.75 -5.15 L-6.7 -1.6 M-0.75 -4.9 L-2.75 -8.15" fill="none" stroke="#000000" stroke-linecap="round" stroke-linejoin="round" stroke-width="2.0"/>
    <path d="M5.4 -1.4 L6.95 -1.85 8.65 -1.55 M5.4 -1.4 L4.7 -1.2 2.5 -1.75 0.0 -1.35 -0.35 -1.4 -2.5 -1.7 -4.75 -1.05 -5.6 -1.35 -6.7 -1.6 -7.0 -1.65 -8.2 -1.3 -8.9 -0.9" fill="none" stroke="#000000" stroke-linecap="round" stroke-linejoin="round" stroke-width="1.0"/>
    <path d="M11.0 2.0 L10.5 0.05 M11.0 2.0 L11.15 2.45 M7.2 16.6 Q8.3 16.0 10.65 11.95 L12.35 8.75 13.1 7.1 M-11.1 0.65 Q-11.05 3.0 -10.15 7.45 -8.55 15.2 -7.2 16.6" fill="none" stroke="#000000" stroke-linecap="round" stroke-linejoin="round" stroke-width="3.0"/>
  </g>
</svg>
