<?xml version="1.0" encoding="UTF-8" standalone="no"?>
<svg xmlns:xlink="http://www.w3.org/1999/xlink" height="39.45px" width="30.6px" xmlns="http://www.w3.org/2000/svg">
  <g transform="matrix(1.0, 0.0, 0.0, 1.0, 12.6, 21.35)">
    <path d="M7.2 -14.45 L7.2 -14.95 7.3 -15.65 7.4 -18.1 7.55 -18.6 7.9 -19.3 8.45 -19.8 9.1 -20.15 9.8 -20.35 10.7 -20.35 11.55 -20.2 12.25 -19.95 12.85 -19.5 13.35 -18.95 13.6 -18.2 13.7 -17.65 13.45 -13.8 12.85 -12.55 13.45 -13.8 12.95 -10.15 14.6 -8.9 15.7 -6.75 16.2 -3.65 16.15 -3.1 15.9 -2.3 15.6 -1.9 16.4 -0.35 17.0 1.4 16.9 3.65 16.15 6.35 15.85 6.8 15.3 7.45 14.55 7.75 13.7 7.9 12.8 7.9 10.65 11.95 Q8.3 16.0 7.2 16.6 5.85 17.3 -0.15 17.4 -6.3 17.5 -7.2 16.6 -8.55 15.2 -10.15 7.45 -11.5 0.95 -10.95 -1.05 L-11.2 -1.65 -11.3 -2.35 -11.1 -3.2 -10.9 -3.7 -8.35 -7.15 -6.95 -8.35 -5.15 -9.2 -1.2 -9.5 -1.05 -9.45 -0.8 -9.65 0.7 -10.2 2.85 -10.7 5.25 -10.45 5.3 -10.45 5.7 -10.85 5.8 -11.0 5.85 -11.0 6.8 -11.45 7.2 -14.45 7.45 -13.2 7.2 -14.45 M6.75 -8.35 L6.55 -9.65 6.75 -11.15 6.8 -11.45 6.75 -11.15 6.55 -9.65 6.75 -8.35 M0.15 -1.4 L0.0 -1.75 -0.15 -2.5 0.0 -3.3 0.2 -3.8 4.05 -9.1 5.25 -10.45 4.05 -9.1 0.2 -3.8 0.0 -3.3 -0.15 -2.5 0.0 -1.75 0.15 -1.4 2.5 -1.75 4.7 -1.2 5.35 -1.4 4.7 -1.2 2.5 -1.75 0.15 -1.4 0.0 -1.35 -2.5 -1.7 -4.75 -1.05 -5.6 -1.35 -7.0 -1.65 -8.2 -1.3 -8.9 -0.9 -8.2 -1.3 -7.0 -1.65 -5.6 -1.35 -4.75 -1.05 -2.5 -1.7 0.0 -1.35 0.15 -1.4 M6.55 -9.65 L5.2 -2.35 5.35 -1.4 5.2 -2.35 6.55 -9.65 M6.05 -10.7 L6.75 -11.15 6.05 -10.7 M5.35 -1.4 L6.95 -1.85 8.65 -1.55 6.95 -1.85 5.35 -1.4 M10.5 0.05 L10.75 -0.1 11.25 -0.95 11.6 -0.75 12.4 -0.6 13.3 -0.6 14.15 -0.85 14.9 -1.2 15.45 -1.7 15.6 -1.9 15.45 -1.7 14.9 -1.2 14.15 -0.85 13.3 -0.6 12.4 -0.6 11.6 -0.75 11.25 -0.95 10.75 -0.1 10.5 0.05 11.15 2.45 10.5 0.05 10.25 0.25 10.5 0.05 M12.95 -10.15 L12.75 -8.7 12.1 -7.5 12.75 -8.7 12.95 -10.15 M16.45 3.55 L17.0 1.4 16.45 3.55 M11.25 -0.95 L11.4 -1.25 12.75 -8.7 11.4 -1.25 11.25 -0.95 M13.15 7.1 L12.8 7.9 13.15 7.1 M-8.05 -6.85 L-6.95 -8.35 -8.05 -6.85 M-1.05 -9.45 L-2.4 -8.35 -5.6 -3.65 -5.75 -3.15 -5.9 -2.35 -5.75 -1.6 -5.6 -1.35 -5.75 -1.6 -5.9 -2.35 -5.75 -3.15 -5.6 -3.65 -2.4 -8.35 -1.05 -9.45 M-2.05 -8.1 L-0.8 -9.65 -2.05 -8.1 M-10.05 0.1 L-10.5 -0.3 -10.95 -0.95 -10.95 -1.05 -10.95 -0.95 -10.5 -0.3 -10.05 0.1" fill="#ffffff" fill-rule="evenodd" stroke="none"/>
    <path d="M13.45 -13.8 L13.7 -17.65 13.6 -18.2 13.35 -18.95 12.85 -19.5 12.25 -19.95 11.55 -20.2 10.7 -20.35 9.8 -20.35 9.1 -20.15 8.45 -19.8 7.9 -19.3 7.55 -18.6 7.4 -18.1 7.3 -15.65 7.2 -14.95 7.2 -14.45 7.45 -13.2 M12.85 -12.55 L13.45 -13.8 12.95 -10.15 14.6 -8.9 15.7 -6.75 16.2 -3.65 16.15 -3.1 15.9 -2.3 15.6 -1.9 16.4 -0.35 17.0 1.4 16.9 3.65 16.15 6.35 15.85 6.8 15.3 7.45 14.55 7.75 13.7 7.9 12.8 7.9 M-10.95 -1.05 L-11.2 -1.65 -11.3 -2.35 -11.1 -3.2 -10.9 -3.7 -8.35 -7.15 -6.95 -8.35 -5.15 -9.2 -1.2 -9.5 -1.05 -9.45 -0.8 -9.65 0.7 -10.2 2.85 -10.7 5.25 -10.45 5.7 -10.85 5.8 -11.0 5.85 -11.0 6.8 -11.45 7.2 -14.45 M6.8 -11.45 L6.75 -11.15 6.55 -9.65 6.75 -8.35 M5.3 -10.45 L5.25 -10.45 4.05 -9.1 0.2 -3.8 0.0 -3.3 -0.15 -2.5 0.0 -1.75 0.15 -1.4 M5.35 -1.4 L5.2 -2.35 6.55 -9.65 M6.75 -11.15 L6.05 -10.7 M12.1 -7.5 L12.75 -8.7 12.95 -10.15 M15.6 -1.9 L15.45 -1.7 14.9 -1.2 14.15 -0.85 13.3 -0.6 12.4 -0.6 11.6 -0.75 11.25 -0.95 10.75 -0.1 10.5 0.05 10.25 0.25 M12.75 -8.7 L11.4 -1.25 11.25 -0.95 M17.0 1.4 L16.45 3.55 M-10.95 -1.05 L-10.95 -0.95 -10.5 -0.3 -10.05 0.1 M-0.8 -9.65 L-2.05 -8.1 M-5.6 -1.35 L-5.75 -1.6 -5.9 -2.35 -5.75 -3.15 -5.6 -3.65 -2.4 -8.35 -1.05 -9.45 M-6.95 -8.35 L-8.05 -6.85" fill="none" stroke="#000000" stroke-linecap="round" stroke-linejoin="round" stroke-width="2.0"/>
    <path d="M0.15 -1.4 L2.5 -1.75 4.7 -1.2 5.35 -1.4 M0.15 -1.4 L0.0 -1.35 -2.5 -1.7 -4.75 -1.05 -5.6 -1.35 -7.0 -1.65 -8.2 -1.3 -8.9 -0.9 M8.65 -1.55 L6.95 -1.85 5.35 -1.4" fill="none" stroke="#000000" stroke-linecap="round" stroke-linejoin="round" stroke-width="1.0"/>
    <path d="M12.8 7.9 L10.65 11.95 Q8.3 16.0 7.2 16.6 M-7.2 16.6 Q-8.55 15.2 -10.15 7.45 -11.5 0.95 -10.95 -1.05 M10.5 0.05 L11.15 2.45 M12.8 7.9 L13.15 7.1" fill="none" stroke="#000000" stroke-linecap="round" stroke-linejoin="round" stroke-width="3.0"/>
  </g>
</svg>
