<?xml version="1.0" encoding="UTF-8" standalone="no"?>
<svg xmlns:xlink="http://www.w3.org/1999/xlink" height="40.9px" width="40.0px" xmlns="http://www.w3.org/2000/svg">
  <g transform="matrix(1.0, 0.0, 0.0, 1.0, 17.45, 22.8)">
    <path d="M8.1 -14.75 L10.25 -18.05 11.35 -18.9 12.05 -19.05 12.8 -19.0 13.55 -18.8 14.3 -18.4 15.0 -17.85 15.45 -17.25 15.75 -16.6 15.85 -15.9 15.7 -15.1 15.55 -14.6 13.55 -11.65 11.4 -7.4 11.15 -6.95 10.0 -4.1 9.15 -2.0 8.65 -0.65 8.35 -0.2 7.75 0.35 7.2 0.6 7.4 1.75 7.5 2.45 7.4 1.75 10.65 0.55 15.4 -1.85 17.5 -2.45 18.0 -2.55 19.35 -2.35 20.0 -1.85 20.55 -1.25 21.0 -0.5 21.4 0.5 21.55 1.5 21.55 2.4 21.35 3.2 21.0 3.95 20.4 4.45 19.95 4.75 17.7 5.3 17.65 5.3 13.6 7.5 12.1 7.55 13.6 7.5 9.9 8.9 9.2 8.85 8.1 11.85 Q6.5 15.9 5.55 16.6 4.6 17.25 -0.2 17.35 -5.05 17.4 -5.65 16.6 -6.7 15.1 -7.5 7.45 -7.95 2.95 -7.85 0.6 L-8.2 0.35 -10.9 -3.0 -11.25 -3.35 -11.55 -3.7 -13.75 -5.65 -15.65 -7.15 -15.95 -7.55 -16.35 -8.25 -16.45 -8.95 -16.35 -9.7 -16.1 -10.4 -15.65 -11.15 -15.0 -11.8 -14.35 -12.2 -13.7 -12.45 -12.95 -12.55 -12.15 -12.35 -11.65 -12.1 -9.6 -10.5 -7.35 -8.4 -8.3 -11.15 -9.85 -14.25 -9.95 -14.8 -10.0 -15.6 -9.75 -16.3 -9.3 -16.95 -8.75 -17.5 -7.95 -18.0 -7.05 -18.35 -6.25 -18.5 -5.45 -18.45 -4.7 -18.25 -4.1 -17.7 -3.75 -17.3 -1.95 -13.75 -1.35 -12.05 -1.45 -15.45 -1.65 -19.1 -1.55 -19.65 -1.3 -20.4 -0.8 -20.95 -0.15 -21.35 0.6 -21.65 1.5 -21.8 2.4 -21.75 3.2 -21.6 3.85 -21.25 4.4 -20.75 4.8 -20.05 4.95 -19.5 5.2 -15.7 4.75 -14.4 5.2 -15.7 5.3 -10.6 5.3 -9.25 5.7 -10.1 5.55 -8.75 5.7 -10.1 8.1 -14.75 7.8 -13.4 8.1 -14.75 M-0.95 -14.25 L-1.45 -15.45 -0.95 -14.25 M2.9 -1.35 L2.75 -1.7 2.8 -3.0 5.3 -9.25 2.8 -3.0 2.75 -1.7 2.9 -1.35 3.25 -1.2 3.8 -1.5 4.75 -1.85 5.45 -1.7 5.9 -1.55 5.45 -1.7 4.75 -1.85 3.8 -1.5 3.25 -1.2 2.9 -1.35 1.7 -1.75 0.65 -1.55 0.0 -1.35 -1.25 -1.65 -1.75 -1.7 -2.7 -1.35 -3.3 -1.05 -3.85 -1.35 -4.85 -1.65 -5.35 -1.45 -5.65 -1.3 -6.15 -0.9 -5.65 -1.3 -5.35 -1.45 -4.85 -1.65 -3.85 -1.35 -3.3 -1.05 -2.7 -1.35 -1.75 -1.7 -1.25 -1.65 0.0 -1.35 0.65 -1.55 1.7 -1.75 2.9 -1.35 M4.85 -9.35 L5.3 -10.6 4.85 -9.35 M10.5 -6.5 L11.4 -7.4 10.5 -6.5 M12.6 -10.8 L13.55 -11.65 12.6 -10.8 M14.1 -0.75 L15.4 -1.85 14.1 -0.75 M16.7 5.2 L17.65 5.3 16.7 5.2 M9.8 6.9 L9.2 8.85 9.8 6.9 M-7.1 1.05 L-7.8 0.65 -7.85 0.6 -7.8 0.65 -7.1 1.05 M-1.9 -12.3 L-1.95 -13.75 -1.9 -12.3 M-5.35 -1.45 L-6.8 -6.7 -7.35 -8.4 -6.8 -6.7 -6.0 -5.7 -6.8 -6.7 -5.35 -1.45 M-1.3 -10.55 L-1.3 -1.8 -1.25 -1.65 -1.3 -1.8 -1.3 -10.55 -1.35 -12.05 -1.3 -10.55 -1.1 -9.85 -0.85 -9.3 -1.1 -9.85 -1.3 -10.55 M-8.9 -9.3 L-9.6 -10.5 -8.9 -9.3 M-7.45 -10.25 L-8.3 -11.15 -7.45 -10.25 M-10.15 -2.75 L-11.25 -3.35 -10.15 -2.75 M-12.6 -5.2 L-13.75 -5.65 -12.6 -5.2 M9.8 1.45 L10.65 0.55 9.8 1.45" fill="#ffffff" fill-rule="evenodd" stroke="none"/>
    <path d="M13.55 -11.65 L15.55 -14.6 15.7 -15.1 15.85 -15.9 15.75 -16.6 15.45 -17.25 15.0 -17.85 14.3 -18.4 13.55 -18.8 12.8 -19.0 12.05 -19.05 11.35 -18.9 10.25 -18.05 8.1 -14.75 7.8 -13.4 M5.2 -15.7 L4.95 -19.5 4.8 -20.05 4.4 -20.75 3.85 -21.25 3.2 -21.6 2.4 -21.75 1.5 -21.8 0.6 -21.65 -0.15 -21.35 -0.8 -20.95 -1.3 -20.4 -1.55 -19.65 -1.65 -19.1 -1.45 -15.45 -0.95 -14.25 M5.2 -15.7 L4.75 -14.4 M5.7 -10.1 L5.55 -8.75 M5.7 -10.1 L5.3 -9.25 2.8 -3.0 2.75 -1.7 2.9 -1.35 M5.3 -9.25 L5.3 -10.6 4.85 -9.35 M7.2 0.6 L7.75 0.35 8.35 -0.2 8.65 -0.65 9.15 -2.0 10.0 -4.1 11.15 -6.95 11.4 -7.4 10.5 -6.5 M11.4 -7.4 L13.55 -11.65 12.6 -10.8 M17.65 5.3 L17.7 5.3 19.95 4.75 20.4 4.45 21.0 3.95 21.35 3.2 21.55 2.4 21.55 1.5 21.4 0.5 21.0 -0.5 20.55 -1.25 20.0 -1.85 19.35 -2.35 18.0 -2.55 17.5 -2.45 15.4 -1.85 14.1 -0.75 M5.3 -10.6 L5.2 -15.7 M8.1 -14.75 L5.7 -10.1 M13.6 7.5 L17.65 5.3 16.7 5.2 M12.1 7.55 L13.6 7.5 9.9 8.9 9.2 8.85 M-7.85 0.6 L-8.2 0.35 -10.9 -3.0 -11.25 -3.35 -11.55 -3.7 -13.75 -5.65 -15.65 -7.15 -15.95 -7.55 -16.35 -8.25 -16.45 -8.95 -16.35 -9.7 -16.1 -10.4 -15.65 -11.15 -15.0 -11.8 -14.35 -12.2 -13.7 -12.45 -12.95 -12.55 -12.15 -12.35 -11.65 -12.1 -9.6 -10.5 -7.35 -8.4 -8.3 -11.15 -9.85 -14.25 -9.95 -14.8 -10.0 -15.6 -9.75 -16.3 -9.3 -16.95 -8.75 -17.5 -7.95 -18.0 -7.05 -18.35 -6.25 -18.5 -5.45 -18.45 -4.7 -18.25 -4.1 -17.7 -3.75 -17.3 -1.95 -13.75 -1.35 -12.05 -1.45 -15.45 M7.4 1.75 L10.65 0.55 15.4 -1.85 M10.65 0.55 L9.8 1.45 M-13.75 -5.65 L-12.6 -5.2 M-11.25 -3.35 L-10.15 -2.75 M-1.35 -12.05 L-1.3 -10.55 -1.1 -9.85 -0.85 -9.3 M-8.3 -11.15 L-7.45 -10.25 M-9.6 -10.5 L-8.9 -9.3 M-7.35 -8.4 L-6.8 -6.7 -6.0 -5.7 M-1.25 -1.65 L-1.3 -1.8 -1.3 -10.55 M-6.8 -6.7 L-5.35 -1.45 M-1.95 -13.75 L-1.9 -12.3 M-7.85 0.6 L-7.8 0.65 -7.1 1.05" fill="none" stroke="#000000" stroke-linecap="round" stroke-linejoin="round" stroke-width="2.0"/>
    <path d="M2.9 -1.35 L3.25 -1.2 3.8 -1.5 4.75 -1.85 5.45 -1.7 5.9 -1.55 M2.9 -1.35 L1.7 -1.75 0.65 -1.55 0.0 -1.35 -1.25 -1.65 -1.75 -1.7 -2.7 -1.35 -3.3 -1.05 -3.85 -1.35 -4.85 -1.65 -5.35 -1.45 -5.65 -1.3 -6.15 -0.9" fill="none" stroke="#000000" stroke-linecap="round" stroke-linejoin="round" stroke-width="1.0"/>
    <path d="M9.2 8.85 L8.1 11.85 Q6.5 15.9 5.55 16.6 M-5.65 16.6 Q-6.7 15.1 -7.5 7.45 -7.95 2.95 -7.85 0.6 M7.5 2.45 L7.4 1.75 7.2 0.6 M9.2 8.85 L9.8 6.9" fill="none" stroke="#000000" stroke-linecap="round" stroke-linejoin="round" stroke-width="3.0"/>
  </g>
</svg>
