<?xml version="1.0" encoding="UTF-8" standalone="no"?>
<svg xmlns:xlink="http://www.w3.org/1999/xlink" height="40.5px" width="37.65px" xmlns="http://www.w3.org/2000/svg">
  <g transform="matrix(1.0, 0.0, 0.0, 1.0, 14.6, 22.4)">
    <path d="M1.2 -19.3 L1.5 -19.65 2.15 -20.05 2.95 -20.3 3.85 -20.4 4.6 -20.35 5.3 -20.1 5.9 -19.7 6.6 -18.6 7.45 -14.8 7.3 -13.45 7.45 -14.8 8.35 -9.7 8.9 -2.05 8.8 -1.55 8.55 -0.75 8.05 -0.2 7.5 0.2 7.2 0.3 7.4 1.75 11.2 0.4 15.85 -0.4 17.2 -0.5 19.95 -0.25 21.15 0.4 21.6 1.1 21.9 1.85 22.05 2.75 22.05 3.8 21.85 4.8 21.5 5.65 21.05 6.3 20.5 6.9 19.7 7.15 19.15 7.25 16.95 7.0 16.95 6.95 16.9 6.95 13.15 7.65 9.9 8.85 9.35 8.9 9.2 8.85 8.1 11.85 Q6.5 15.9 5.55 16.6 4.6 17.25 -0.2 17.35 -5.05 17.4 -5.65 16.6 -6.7 15.1 -7.5 7.45 -7.95 2.85 -7.8 0.5 L-7.85 0.5 -8.4 -0.05 -8.7 -0.5 -10.5 -5.0 -12.1 -8.1 -13.3 -10.2 -13.5 -10.7 -13.6 -11.45 -13.4 -12.15 -13.1 -12.8 -12.6 -13.4 -11.9 -13.95 -11.1 -14.3 -10.35 -14.45 -9.6 -14.45 -9.3 -14.4 -9.4 -14.55 -9.5 -15.05 -9.5 -15.9 -9.2 -16.6 -8.75 -17.2 -8.15 -17.75 -7.35 -18.25 -6.45 -18.55 -5.6 -18.65 -5.3 -18.6 -5.3 -18.75 -5.05 -19.45 -4.6 -20.05 -4.0 -20.6 -3.2 -21.0 -2.3 -21.3 -1.5 -21.4 -0.8 -21.3 -0.1 -21.0 0.5 -20.45 0.85 -20.05 1.2 -19.3 1.0 -19.1 0.6 -18.5 0.45 -17.2 1.3 -13.65 1.95 -12.5 1.3 -13.65 0.45 -17.2 0.6 -18.5 1.0 -19.1 1.2 -19.3 M-3.15 -13.35 L-3.85 -14.3 -5.05 -17.0 -5.2 -17.45 -5.3 -17.95 -5.3 -18.6 -5.3 -17.95 -5.2 -17.45 -5.05 -17.0 -3.85 -14.3 -3.15 -13.35 M2.65 -7.75 L2.1 -8.9 1.3 -13.65 2.1 -8.9 2.65 -7.75 M8.05 -8.35 L8.35 -9.7 8.05 -8.35 M-6.15 -0.9 L-5.65 -1.3 -5.35 -1.45 -4.85 -1.65 -3.85 -1.35 -3.3 -1.05 -2.7 -1.35 -1.75 -1.7 -1.3 -1.65 0.0 -1.35 0.65 -1.55 1.7 -1.75 2.65 -1.4 3.25 -1.2 3.8 -1.5 4.75 -1.85 5.45 -1.7 5.9 -1.55 5.45 -1.7 4.75 -1.85 3.8 -1.5 3.25 -1.2 2.65 -1.4 1.7 -1.75 0.65 -1.55 0.0 -1.35 -1.3 -1.65 -1.75 -1.7 -2.7 -1.35 -3.3 -1.05 -3.85 -1.35 -4.85 -1.65 -5.35 -1.45 -5.65 -1.3 -6.15 -0.9 M16.1 6.55 L16.5 6.8 16.9 6.95 16.5 6.8 16.1 6.55 M13.15 7.65 L12.0 7.55 13.15 7.65 M2.65 -1.4 L2.6 -1.6 2.1 -8.9 2.6 -1.6 2.65 -1.4 M9.8 6.9 L9.2 8.85 9.8 6.9 M7.5 2.45 L7.4 1.75 7.5 2.45 M-6.85 0.85 L-7.2 0.8 -7.8 0.5 -7.2 0.8 -6.85 0.85 M-9.65 -4.05 L-10.5 -5.0 -9.65 -4.05 M-6.65 -6.85 L-5.9 -5.8 -6.65 -6.85 -6.5 -6.4 -5.35 -1.45 -6.5 -6.4 -6.65 -6.85 -7.95 -11.35 -9.3 -14.4 -7.95 -11.35 -6.65 -6.85 M-2.75 -9.75 L-1.3 -1.65 -2.75 -9.75 -3.85 -14.3 -2.75 -9.75 -2.1 -8.65 -2.75 -9.75 M-7.15 -10.45 L-7.95 -11.35 -7.15 -10.45 M-11.15 -7.25 L-12.1 -8.1 -11.15 -7.25 M15.55 0.1 L17.2 -0.5 15.55 0.1 M9.9 1.35 L11.2 0.4 9.9 1.35 M6.9 0.4 L7.2 0.3 6.9 0.4" fill="#ffffff" fill-rule="evenodd" stroke="none"/>
    <path d="M7.45 -14.8 L6.6 -18.6 5.9 -19.7 5.3 -20.1 4.6 -20.35 3.85 -20.4 2.95 -20.3 2.15 -20.05 1.5 -19.65 1.2 -19.3 1.0 -19.1 0.6 -18.5 0.45 -17.2 1.3 -13.65 1.95 -12.5 M1.2 -19.3 L0.85 -20.05 0.5 -20.45 -0.1 -21.0 -0.8 -21.3 -1.5 -21.4 -2.3 -21.3 -3.2 -21.0 -4.0 -20.6 -4.6 -20.05 -5.05 -19.45 -5.3 -18.75 -5.3 -18.6 -5.3 -17.95 -5.2 -17.45 -5.05 -17.0 -3.85 -14.3 -3.15 -13.35 M7.3 -13.45 L7.45 -14.8 8.35 -9.7 8.9 -2.05 8.8 -1.55 8.55 -0.75 8.05 -0.2 7.5 0.2 7.2 0.3 6.9 0.4 M7.4 1.75 L11.2 0.4 15.85 -0.4 17.2 -0.5 19.95 -0.25 21.15 0.4 21.6 1.1 21.9 1.85 22.05 2.75 22.05 3.8 21.85 4.8 21.5 5.65 21.05 6.3 20.5 6.9 19.7 7.15 19.15 7.25 16.95 7.0 16.9 6.95 13.15 7.65 9.9 8.85 9.35 8.9 9.2 8.85 M-7.8 0.5 L-7.85 0.5 -8.4 -0.05 -8.7 -0.5 -10.5 -5.0 -12.1 -8.1 -13.3 -10.2 -13.5 -10.7 -13.6 -11.45 -13.4 -12.15 -13.1 -12.8 -12.6 -13.4 -11.9 -13.95 -11.1 -14.3 -10.35 -14.45 -9.6 -14.45 -9.3 -14.4 -9.4 -14.55 -9.5 -15.05 -9.5 -15.9 -9.2 -16.6 -8.75 -17.2 -8.15 -17.75 -7.35 -18.25 -6.45 -18.55 -5.6 -18.65 -5.3 -18.6 M8.35 -9.7 L8.05 -8.35 M1.3 -13.65 L2.1 -8.9 2.65 -7.75 M2.1 -8.9 L2.6 -1.6 2.65 -1.4 M12.0 7.55 L13.15 7.65 M16.9 6.95 L16.5 6.8 16.1 6.55 M16.95 6.95 L16.9 6.95 M11.2 0.4 L9.9 1.35 M17.2 -0.5 L15.55 0.1 M-12.1 -8.1 L-11.15 -7.25 M-3.85 -14.3 L-2.75 -9.75 -2.1 -8.65 M-5.35 -1.45 L-6.5 -6.4 -6.65 -6.85 -7.95 -11.35 -9.3 -14.4 M-7.95 -11.35 L-7.15 -10.45 M-1.3 -1.65 L-2.75 -9.75 M-5.9 -5.8 L-6.65 -6.85 M-10.5 -5.0 L-9.65 -4.05 M-7.8 0.5 L-7.2 0.8 -6.85 0.85" fill="none" stroke="#000000" stroke-linecap="round" stroke-linejoin="round" stroke-width="2.0"/>
    <path d="M5.9 -1.55 L5.45 -1.7 4.75 -1.85 3.8 -1.5 3.25 -1.2 2.65 -1.4 1.7 -1.75 0.65 -1.55 0.0 -1.35 -1.3 -1.65 -1.75 -1.7 -2.7 -1.35 -3.3 -1.05 -3.85 -1.35 -4.85 -1.65 -5.35 -1.45 -5.65 -1.3 -6.15 -0.9" fill="none" stroke="#000000" stroke-linecap="round" stroke-linejoin="round" stroke-width="1.0"/>
    <path d="M7.2 0.3 L7.4 1.75 7.5 2.45 M9.2 8.85 L8.1 11.85 Q6.5 15.9 5.55 16.6 M-5.65 16.6 Q-6.7 15.1 -7.5 7.45 -7.95 2.85 -7.8 0.5 M9.2 8.85 L9.8 6.9" fill="none" stroke="#000000" stroke-linecap="round" stroke-linejoin="round" stroke-width="3.0"/>
  </g>
</svg>
