<?xml version="1.0" encoding="UTF-8" standalone="no"?>
<svg xmlns:xlink="http://www.w3.org/1999/xlink" height="39.1px" width="25.7px" xmlns="http://www.w3.org/2000/svg">
  <g transform="matrix(1.0, 0.0, 0.0, 1.0, 10.0, 21.0)">
    <path d="M10.3 -19.0 L11.05 -18.85 11.75 -18.6 12.4 -18.15 13.0 -17.5 13.4 -16.8 13.65 -16.05 13.7 -15.4 13.55 -14.7 12.85 -13.65 12.45 -13.45 11.05 -12.6 10.7 -12.25 10.5 -12.1 8.8 -8.45 8.7 -8.05 8.7 -7.35 8.65 -6.45 8.75 -5.4 8.8 -1.75 8.35 -0.5 7.85 0.0 7.25 0.35 7.2 0.35 7.25 0.35 7.85 0.0 8.35 -0.5 8.8 -1.75 8.75 -5.4 8.65 -6.45 8.7 -7.35 8.85 -7.45 9.8 -7.8 10.8 -7.95 11.75 -7.95 12.5 -7.8 Q12.9 -7.6 13.25 -7.45 L14.05 -6.35 14.2 -5.85 14.7 -3.55 14.15 -1.6 14.7 -3.55 14.05 1.45 13.7 3.0 12.15 6.8 11.8 7.2 11.2 7.75 10.4 8.0 9.6 8.05 9.5 8.0 8.1 11.85 Q6.5 15.9 5.55 16.6 4.6 17.25 -0.2 17.35 -5.05 17.4 -5.65 16.6 -6.7 15.1 -7.5 7.45 -8.0 2.55 -7.8 0.2 L-8.1 0.0 -8.6 -0.55 -8.9 -1.35 -9.0 -1.85 -8.85 -5.9 -8.6 -7.45 -8.05 -9.0 -6.65 -11.7 -4.9 -13.95 -4.45 -14.3 -3.7 -14.7 -3.0 -14.75 -2.85 -14.75 -2.0 -15.8 0.1 -17.7 0.55 -17.95 1.35 -18.25 2.15 -18.2 2.9 -17.95 3.3 -17.75 4.45 -18.65 6.25 -19.7 6.75 -19.9 7.55 -20.0 8.3 -19.85 8.95 -19.5 9.6 -19.0 9.75 -18.85 10.3 -19.0 9.0 -18.55 6.6 -16.85 5.45 -15.65 4.95 -14.1 5.45 -15.65 6.6 -16.85 9.0 -18.55 10.3 -19.0 M1.8 -15.4 L2.4 -17.0 3.3 -17.75 2.4 -17.0 1.8 -15.4 M3.0 -8.65 L2.85 -10.2 3.9 -12.95 5.45 -15.65 3.9 -12.95 2.85 -10.2 3.0 -8.65 M-3.45 -12.7 L-3.1 -14.4 -2.85 -14.75 -3.1 -14.4 -3.45 -12.7 M7.5 2.45 L7.2 0.35 7.5 2.45 M8.2 -7.55 L8.8 -8.45 8.2 -7.55 M9.6 -11.45 L10.5 -12.1 9.6 -11.45 M2.7 -1.4 L2.5 -1.9 2.55 -8.7 2.85 -10.2 2.55 -8.7 2.5 -1.9 2.7 -1.4 3.25 -1.2 3.8 -1.5 4.75 -1.85 5.45 -1.7 5.9 -1.55 5.45 -1.7 4.75 -1.85 3.8 -1.5 3.25 -1.2 2.7 -1.4 1.7 -1.75 0.65 -1.55 0.0 -1.35 -1.2 -1.65 -1.75 -1.7 -2.7 -1.35 -3.3 -1.05 -3.85 -1.35 -4.85 -1.65 -5.25 -1.45 -5.65 -1.25 -6.15 -0.9 -5.65 -1.25 -5.25 -1.45 -4.85 -1.65 -3.85 -1.35 -3.3 -1.05 -2.7 -1.35 -1.75 -1.7 -1.2 -1.65 0.0 -1.35 0.65 -1.55 1.7 -1.75 2.7 -1.4 M6.9 0.45 L7.2 0.35 6.9 0.45 M12.7 4.25 L13.7 3.0 12.7 4.25 M9.8 6.9 L9.5 8.0 9.8 6.9 M-6.9 0.65 L-7.5 0.4 -7.8 0.2 -7.5 0.4 -6.9 0.65 M-5.15 -8.5 L-4.85 -6.95 -5.15 -8.5 -5.3 -7.0 -5.35 -1.75 -5.25 -1.45 -5.35 -1.75 -5.3 -7.0 -5.15 -8.5 -4.85 -9.75 -3.1 -14.4 -4.85 -9.75 -5.15 -8.5 M-8.4 -5.85 L-8.6 -7.45 -8.4 -5.85 M-7.05 -10.2 L-6.65 -11.7 -7.05 -10.2 M-0.6 -11.6 L-0.55 -10.0 -0.6 -11.6 -0.8 -10.95 -0.95 -10.1 -1.1 -7.95 -1.15 -5.8 -1.35 -2.0 -1.2 -1.65 -1.35 -2.0 -1.15 -5.8 -1.1 -7.95 -0.95 -10.1 -0.8 -10.95 -0.6 -11.6 -0.1 -12.75 2.4 -17.0 -0.1 -12.75 -0.6 -11.6" fill="#ffffff" fill-rule="evenodd" stroke="none"/>
    <path d="M10.5 -12.1 L10.7 -12.25 11.05 -12.6 12.45 -13.45 12.85 -13.65 13.55 -14.7 13.7 -15.4 13.65 -16.05 13.4 -16.8 13.0 -17.5 12.4 -18.15 11.75 -18.6 11.05 -18.85 10.3 -19.0 9.0 -18.55 6.6 -16.85 5.45 -15.65 4.95 -14.1 M9.75 -18.85 L9.6 -19.0 8.95 -19.5 8.3 -19.85 7.55 -20.0 6.75 -19.9 6.25 -19.7 4.45 -18.65 3.3 -17.75 2.4 -17.0 1.8 -15.4 M3.3 -17.75 L2.9 -17.95 2.15 -18.2 1.35 -18.25 0.55 -17.95 0.1 -17.7 -2.0 -15.8 -2.85 -14.75 -3.1 -14.4 -3.45 -12.7 M5.45 -15.65 L3.9 -12.95 2.85 -10.2 3.0 -8.65 M8.7 -7.35 L8.65 -6.45 8.75 -5.4 8.8 -1.75 8.35 -0.5 7.85 0.0 7.25 0.35 7.2 0.35 6.9 0.45 M8.8 -8.45 L8.2 -7.55 M8.7 -7.35 L8.7 -8.05 8.8 -8.45 10.5 -12.1 9.6 -11.45 M14.7 -3.55 L14.2 -5.85 14.05 -6.35 13.25 -7.45 Q12.9 -7.6 12.5 -7.8 L11.75 -7.95 10.8 -7.95 9.8 -7.8 8.85 -7.45 8.7 -7.35 M2.85 -10.2 L2.55 -8.7 2.5 -1.9 2.7 -1.4 M14.15 -1.6 L14.7 -3.55 14.35 0.05 14.05 1.45 13.7 3.0 12.15 6.8 11.8 7.2 11.2 7.75 10.4 8.0 9.6 8.05 9.5 8.0 M-7.8 0.2 L-8.1 0.0 -8.6 -0.55 -8.9 -1.35 -9.0 -1.85 -8.85 -5.9 -8.6 -7.45 -8.05 -9.0 -6.65 -11.7 -4.9 -13.95 -4.45 -14.3 -3.7 -14.7 -3.0 -14.75 -2.85 -14.75 M13.7 3.0 L12.7 4.25 M-1.2 -1.65 L-1.35 -2.0 -1.15 -5.8 -1.1 -7.95 -0.95 -10.1 -0.8 -10.95 -0.6 -11.6 -0.1 -12.75 2.4 -17.0 M-0.55 -10.0 L-0.6 -11.6 M-6.65 -11.7 L-7.05 -10.2 M-5.25 -1.45 L-5.35 -1.75 -5.3 -7.0 -5.15 -8.5 -4.85 -9.75 -3.1 -14.4 M-8.6 -7.45 L-8.4 -5.85 M-4.85 -6.95 L-5.15 -8.5 M-7.8 0.2 L-7.5 0.4 -6.9 0.65" fill="none" stroke="#000000" stroke-linecap="round" stroke-linejoin="round" stroke-width="2.0"/>
    <path d="M2.7 -1.4 L3.25 -1.2 3.8 -1.5 4.75 -1.85 5.45 -1.7 5.9 -1.55 M2.7 -1.4 L1.7 -1.75 0.65 -1.55 0.0 -1.35 -1.2 -1.65 -1.75 -1.7 -2.7 -1.35 -3.3 -1.05 -3.85 -1.35 -4.85 -1.65 -5.25 -1.45 -5.65 -1.25 -6.15 -0.9" fill="none" stroke="#000000" stroke-linecap="round" stroke-linejoin="round" stroke-width="1.0"/>
    <path d="M7.2 0.35 L7.5 2.45 M9.5 8.0 L8.1 11.85 Q6.5 15.9 5.55 16.6 M-5.65 16.6 Q-6.7 15.1 -7.5 7.45 -8.0 2.55 -7.8 0.2 M9.5 8.0 L9.8 6.9" fill="none" stroke="#000000" stroke-linecap="round" stroke-linejoin="round" stroke-width="3.0"/>
  </g>
</svg>
