<?xml version="1.0" encoding="UTF-8" standalone="no"?>
<svg xmlns:xlink="http://www.w3.org/1999/xlink" height="38.5px" width="38.0px" xmlns="http://www.w3.org/2000/svg">
  <g transform="matrix(1.0, 0.0, 0.0, 1.0, 16.5, 20.4)">
    <path d="M6.45 -11.05 L9.15 -12.9 12.6 -13.9 14.55 -13.6 15.4 -13.25 17.5 -12.05 17.9 -11.7 18.45 -11.0 18.65 -10.3 18.7 -9.5 18.6 -8.75 18.25 -7.95 17.75 -7.25 17.2 -6.8 16.6 -6.5 16.0 -6.35 15.25 -6.5 14.8 -6.65 13.95 -7.3 13.5 -7.9 13.3 -8.05 13.2 -8.1 12.45 -8.25 13.2 -8.1 12.65 -7.9 10.4 -6.65 9.95 -6.05 9.8 -5.1 8.55 -0.75 8.25 -0.3 7.75 0.3 7.2 0.55 7.4 1.8 7.5 2.45 7.4 1.8 10.55 0.85 12.25 -0.15 12.75 -0.1 13.1 0.0 13.05 -0.3 13.1 -1.35 13.2 -1.8 13.9 -2.9 14.6 -3.25 15.4 -3.5 16.3 -3.55 17.3 -3.45 18.3 -3.15 19.1 -2.75 19.75 -2.25 20.25 -1.6 20.45 -0.85 20.5 -0.3 20.4 0.2 19.65 2.7 16.55 5.8 13.9 7.45 12.25 7.55 13.9 7.45 10.0 8.9 9.45 8.95 9.2 8.9 9.1 9.25 9.0 9.55 8.2 11.6 8.1 11.85 Q6.5 15.9 5.55 16.6 4.6 17.25 -0.2 17.35 -5.05 17.4 -5.65 16.6 -6.7 15.1 -7.5 7.45 L-7.85 1.0 -7.85 0.95 -8.75 0.55 -11.1 -0.45 -12.5 -1.5 -13.05 -2.1 -13.7 -3.0 -15.0 -6.05 -15.5 -8.95 -15.2 -10.3 -14.75 -10.9 -14.2 -11.4 -13.5 -11.75 -12.65 -11.95 -11.8 -12.0 -11.05 -11.85 -10.4 -11.55 -9.8 -11.15 -9.25 -10.0 -9.25 -9.55 -9.05 -7.95 -8.55 -6.25 -8.25 -5.8 -8.2 -5.75 -8.15 -5.75 -8.3 -5.95 -9.25 -12.05 -9.05 -13.7 -8.4 -16.35 -8.15 -16.85 -7.65 -17.5 -7.0 -17.9 -6.25 -18.15 -5.4 -18.2 -4.45 -18.1 -3.55 -17.8 -2.85 -17.4 -2.3 -16.85 -1.9 -16.25 -1.7 -14.95 -2.5 -12.15 -2.05 -9.2 -2.1 -9.7 -1.9 -11.25 -0.85 -14.2 1.05 -17.2 2.95 -18.4 5.85 -19.35 6.4 -19.4 7.2 -19.3 7.9 -18.95 8.45 -18.45 8.95 -17.8 9.3 -16.95 9.5 -16.1 9.5 -15.3 9.3 -14.6 9.0 -13.95 8.4 -13.45 7.95 -13.15 5.9 -12.8 5.6 -12.95 5.1 -12.65 5.6 -12.95 4.4 -9.9 4.35 -9.5 4.35 -9.0 4.55 -7.6 5.4 -9.8 5.95 -10.55 6.45 -11.05 5.7 -9.55 6.45 -11.05 M0.25 -15.45 L1.05 -17.2 0.25 -15.45 M2.9 -1.35 L2.7 -1.7 2.7 -2.55 2.75 -3.05 4.55 -7.6 2.75 -3.05 2.7 -2.55 2.7 -1.7 2.9 -1.35 3.25 -1.2 3.8 -1.5 4.75 -1.85 5.45 -1.7 5.9 -1.55 5.45 -1.7 4.75 -1.85 3.8 -1.5 3.25 -1.2 2.9 -1.35 1.7 -1.75 0.65 -1.55 0.0 -1.35 -0.7 -1.55 -1.35 -1.65 -1.75 -1.7 -2.7 -1.35 -3.3 -1.05 -3.85 -1.35 -4.85 -1.65 -5.7 -1.3 -6.15 -0.9 -5.7 -1.3 -4.85 -1.65 -3.85 -1.35 -3.3 -1.05 -2.7 -1.35 -1.75 -1.7 -1.35 -1.65 -0.7 -1.55 0.0 -1.35 0.65 -1.55 1.7 -1.75 2.9 -1.35 M3.85 -9.0 L4.4 -9.9 3.85 -9.0 M9.6 -6.3 L10.4 -6.65 9.6 -6.3 M9.8 1.55 L10.55 0.85 9.8 1.55 M9.8 6.9 L9.2 8.9 9.8 6.9 M-9.2 -6.9 L-9.05 -7.95 -9.2 -6.9 M-8.7 -10.45 L-9.25 -12.05 -8.7 -10.45 M-2.85 -11.0 L-2.5 -12.15 -2.85 -11.0 M-2.05 -9.2 L-1.9 -7.55 -1.85 -7.15 -1.7 -5.35 -1.35 -1.65 -1.7 -5.35 -1.85 -7.15 -1.9 -7.55 -2.05 -9.2 M-1.65 -9.7 L-1.9 -11.25 -1.65 -9.7 M-10.9 -0.8 L-12.5 -1.5 -10.9 -0.8 M-14.05 -4.65 L-15.0 -6.05 -14.05 -4.65 M-7.2 -4.7 L-8.3 -5.95 -7.2 -4.7 M-8.25 -5.8 L-8.05 -5.45 -8.2 -5.75 -8.05 -5.45 -7.65 -4.5 -5.7 -1.3 -7.65 -4.5 -8.05 -5.45 -8.25 -5.8 M-6.8 1.3 L-7.15 1.3 -7.85 1.0 -7.15 1.3 -6.8 1.3" fill="#ffffff" fill-rule="evenodd" stroke="none"/>
    <path d="M13.2 -8.1 L13.3 -8.05 13.5 -7.9 13.95 -7.3 14.8 -6.65 15.25 -6.5 16.0 -6.35 16.6 -6.5 17.2 -6.8 17.75 -7.25 18.25 -7.95 18.6 -8.75 18.7 -9.5 18.65 -10.3 18.45 -11.0 17.9 -11.7 17.5 -12.05 15.4 -13.25 14.55 -13.6 12.6 -13.9 9.15 -12.9 6.45 -11.05 5.7 -9.55 M5.6 -12.95 L5.9 -12.8 7.95 -13.15 8.4 -13.45 9.0 -13.95 9.3 -14.6 9.5 -15.3 9.5 -16.1 9.3 -16.95 8.95 -17.8 8.45 -18.45 7.9 -18.95 7.2 -19.3 6.4 -19.4 5.85 -19.35 2.95 -18.4 1.05 -17.2 0.25 -15.45 M5.6 -12.95 L5.1 -12.65 M6.45 -11.05 L5.95 -10.55 5.4 -9.8 4.55 -7.6 2.75 -3.05 2.7 -2.55 2.7 -1.7 2.9 -1.35 M4.55 -7.6 L4.35 -9.0 4.35 -9.5 4.4 -9.9 3.85 -9.0 M7.2 0.55 L7.75 0.3 8.25 -0.3 8.55 -0.75 9.8 -5.1 9.95 -6.05 10.4 -6.65 9.6 -6.3 M13.2 -8.1 L12.45 -8.25 M10.4 -6.65 L12.65 -7.9 13.2 -8.1 M13.9 7.45 L16.55 5.8 19.65 2.7 20.4 0.2 20.5 -0.3 20.45 -0.85 20.25 -1.6 19.75 -2.25 19.1 -2.75 18.3 -3.15 17.3 -3.45 16.3 -3.55 15.4 -3.5 14.6 -3.25 13.9 -2.9 13.2 -1.8 13.1 -1.35 13.05 -0.3 13.1 0.0 12.75 -0.1 12.25 -0.15 10.55 0.85 9.8 1.55 M4.4 -9.9 L5.6 -12.95 M12.25 7.55 L13.9 7.45 10.0 8.9 9.45 8.95 9.2 8.9 M-7.85 1.0 L-8.75 0.55 -11.1 -0.45 -12.5 -1.5 -13.05 -2.1 -13.7 -3.0 -15.0 -6.05 -15.5 -8.95 -15.2 -10.3 -14.75 -10.9 -14.2 -11.4 -13.5 -11.75 -12.65 -11.95 -11.8 -12.0 -11.05 -11.85 -10.4 -11.55 -9.8 -11.15 -9.25 -10.0 -9.25 -9.55 -9.05 -7.95 -8.55 -6.25 -8.25 -5.8 -8.2 -5.75 -8.3 -5.95 -9.25 -12.05 -9.05 -13.7 -8.4 -16.35 -8.15 -16.85 -7.65 -17.5 -7.0 -17.9 -6.25 -18.15 -5.4 -18.2 -4.45 -18.1 -3.55 -17.8 -2.85 -17.4 -2.3 -16.85 -1.9 -16.25 -1.7 -14.95 -2.5 -12.15 -2.05 -9.2 -2.1 -9.7 -1.9 -11.25 -0.85 -14.2 1.05 -17.2 M10.55 0.85 L7.4 1.8 M-15.0 -6.05 L-14.05 -4.65 M-12.5 -1.5 L-10.9 -0.8 M-1.9 -11.25 L-1.65 -9.7 M-1.35 -1.65 L-1.7 -5.35 -1.85 -7.15 -1.9 -7.55 -2.05 -9.2 M-2.5 -12.15 L-2.85 -11.0 M-9.25 -12.05 L-8.7 -10.45 M-9.05 -7.95 L-9.2 -6.9 M-8.15 -5.75 L-8.2 -5.75 -8.05 -5.45 -7.65 -4.5 -5.7 -1.3 M-8.05 -5.45 L-8.25 -5.8 M-8.3 -5.95 L-7.2 -4.7 M-7.85 1.0 L-7.15 1.3 -6.8 1.3" fill="none" stroke="#000000" stroke-linecap="round" stroke-linejoin="round" stroke-width="2.0"/>
    <path d="M2.9 -1.35 L3.25 -1.2 3.8 -1.5 4.75 -1.85 5.45 -1.7 5.9 -1.55 M2.9 -1.35 L1.7 -1.75 0.65 -1.55 0.0 -1.35 -0.7 -1.55 -1.35 -1.65 -1.75 -1.7 -2.7 -1.35 -3.3 -1.05 -3.85 -1.35 -4.85 -1.65 -5.7 -1.3 -6.15 -0.9" fill="none" stroke="#000000" stroke-linecap="round" stroke-linejoin="round" stroke-width="1.0"/>
    <path d="M9.2 8.9 L9.1 9.25 9.0 9.55 8.2 11.6 8.1 11.85 Q6.5 15.9 5.55 16.6 M-5.65 16.6 Q-6.7 15.1 -7.5 7.45 L-7.85 1.0 M7.4 1.8 L7.5 2.45 M7.4 1.8 L7.2 0.55 M9.2 8.9 L9.8 6.9 M-7.85 0.95 L-7.85 1.0" fill="none" stroke="#000000" stroke-linecap="round" stroke-linejoin="round" stroke-width="3.0"/>
  </g>
</svg>
