<?xml version="1.0" encoding="UTF-8" standalone="no"?>
<svg xmlns:xlink="http://www.w3.org/1999/xlink" height="39.45px" width="26.05px" xmlns="http://www.w3.org/2000/svg">
  <g transform="matrix(1.0, 0.0, 0.0, 1.0, 9.75, 21.35)">
    <path d="M4.6 -14.45 L4.85 -18.1 5.0 -18.6 5.35 -19.3 5.9 -19.8 6.5 -20.15 7.25 -20.35 8.1 -20.35 9.0 -20.2 9.7 -19.95 10.3 -19.5 10.75 -18.95 11.05 -18.2 11.1 -17.65 10.85 -13.8 10.3 -12.55 10.85 -13.8 10.5 -11.1 13.7 -8.9 14.8 -6.75 15.3 -3.65 15.25 -3.1 15.0 -2.3 14.55 -1.7 13.95 -1.2 13.25 -0.85 12.7 -0.7 12.4 -0.6 13.1 1.4 13.15 2.35 13.05 3.65 12.3 6.35 12.0 6.8 11.4 7.45 10.65 7.75 9.85 7.9 9.5 7.9 8.1 11.85 Q6.5 15.9 5.55 16.6 4.6 17.25 -0.2 17.35 -5.05 17.4 -5.65 16.6 -6.7 15.1 -7.5 7.45 -8.05 2.15 -7.75 -0.2 L-7.9 -0.3 -8.35 -0.95 -8.65 -1.65 -8.75 -2.35 -8.3 -3.7 -5.75 -7.15 -4.35 -8.35 -2.55 -9.2 -0.3 -9.4 0.0 -9.65 0.05 -9.65 1.55 -10.2 3.7 -10.7 4.1 -10.65 4.1 -10.85 4.6 -14.45 4.9 -13.2 4.6 -14.45 M4.0 -10.15 L3.15 -9.1 -0.7 -3.8 -0.9 -3.3 -1.05 -2.5 -0.95 -1.6 -1.05 -2.5 -0.9 -3.3 -0.7 -3.8 3.15 -9.1 4.0 -10.15 4.1 -10.65 4.0 -10.15 3.95 -9.65 4.2 -8.35 3.95 -9.65 4.0 -10.15 M-6.15 -0.9 L-5.65 -1.3 -4.9 -1.65 -4.85 -1.65 -3.85 -1.35 -3.3 -1.05 -2.7 -1.35 -1.75 -1.7 -0.95 -1.6 0.0 -1.35 0.65 -1.55 1.7 -1.75 2.75 -1.4 3.25 -1.2 3.8 -1.5 4.75 -1.85 5.45 -1.7 5.9 -1.55 5.45 -1.7 4.75 -1.85 3.8 -1.5 3.25 -1.2 2.75 -1.4 1.7 -1.75 0.65 -1.55 0.0 -1.35 -0.95 -1.6 -1.75 -1.7 -2.7 -1.35 -3.3 -1.05 -3.85 -1.35 -4.85 -1.65 -4.9 -1.65 -5.65 -1.3 -6.15 -0.9 M12.55 3.55 L13.1 1.4 12.55 3.55 M10.2 -8.7 L10.5 -11.1 10.2 -8.7 9.0 -2.2 8.9 -1.7 8.8 -1.25 8.6 -0.75 8.15 -0.1 7.55 0.35 7.2 0.45 6.9 0.6 7.2 0.45 7.55 0.35 8.15 -0.1 8.6 -0.75 8.8 -1.25 8.9 -1.7 9.0 -2.2 10.2 -8.7 9.55 -7.5 10.2 -8.7 M12.7 -0.7 L12.35 -0.6 11.5 -0.6 10.7 -0.75 10.05 -1.05 9.45 -1.5 9.3 -1.8 8.9 -1.7 9.3 -1.8 9.0 -2.2 9.3 -1.8 9.45 -1.5 10.05 -1.05 10.7 -0.75 11.5 -0.6 12.35 -0.6 12.7 -0.7 M2.75 -1.4 L2.65 -1.85 2.65 -2.35 3.95 -9.65 2.65 -2.35 2.65 -1.85 2.75 -1.4 M9.8 6.9 L9.5 7.9 9.8 6.9 M7.5 2.45 L7.2 0.45 7.5 2.45 M-1.2 -8.1 L0.05 -9.65 -1.2 -8.1 M-6.95 0.5 L-7.3 0.3 -7.75 -0.2 -7.3 0.3 -6.95 0.5 M-5.45 -6.85 L-4.35 -8.35 -5.45 -6.85 M-0.3 -9.4 L-1.55 -8.35 -4.75 -3.65 -4.9 -3.15 -5.05 -2.35 -4.9 -1.65 -5.05 -2.35 -4.9 -3.15 -4.75 -3.65 -1.55 -8.35 -0.3 -9.4" fill="#ffffff" fill-rule="evenodd" stroke="none"/>
    <path d="M10.85 -13.8 L11.1 -17.65 11.05 -18.2 10.75 -18.95 10.3 -19.5 9.7 -19.95 9.0 -20.2 8.1 -20.35 7.25 -20.35 6.5 -20.15 5.9 -19.8 5.35 -19.3 5.0 -18.6 4.85 -18.1 4.6 -14.45 4.9 -13.2 M10.3 -12.55 L10.85 -13.8 10.5 -11.1 13.7 -8.9 14.8 -6.75 15.3 -3.65 15.25 -3.1 15.0 -2.3 14.55 -1.7 13.95 -1.2 13.25 -0.85 12.7 -0.7 M12.4 -0.6 L13.1 1.4 13.15 2.35 13.05 3.65 12.3 6.35 12.0 6.8 11.4 7.45 10.65 7.75 9.85 7.9 9.5 7.9 M-7.75 -0.2 L-7.9 -0.3 -8.35 -0.95 -8.65 -1.65 -8.75 -2.35 -8.3 -3.7 -5.75 -7.15 -4.35 -8.35 -2.55 -9.2 -0.3 -9.4 M0.0 -9.65 L0.05 -9.65 1.55 -10.2 3.7 -10.7 4.1 -10.65 4.0 -10.15 3.95 -9.65 4.2 -8.35 M4.1 -10.85 L4.6 -14.45 M-0.95 -1.6 L-1.05 -2.5 -0.9 -3.3 -0.7 -3.8 3.15 -9.1 4.0 -10.15 M3.95 -9.65 L2.65 -2.35 2.65 -1.85 2.75 -1.4 M6.9 0.6 L7.2 0.45 7.55 0.35 8.15 -0.1 8.6 -0.75 8.8 -1.25 8.9 -1.7 9.0 -2.2 10.2 -8.7 9.55 -7.5 M8.9 -1.7 L9.3 -1.8 9.0 -2.2 M9.3 -1.8 L9.45 -1.5 10.05 -1.05 10.7 -0.75 11.5 -0.6 12.35 -0.6 12.7 -0.7 M10.5 -11.1 L10.2 -8.7 M13.1 1.4 L12.55 3.55 M-4.9 -1.65 L-5.05 -2.35 -4.9 -3.15 -4.75 -3.65 -1.55 -8.35 -0.3 -9.4 M-4.35 -8.35 L-5.45 -6.85 M-7.75 -0.2 L-7.3 0.3 -6.95 0.5 M0.05 -9.65 L-1.2 -8.1" fill="none" stroke="#000000" stroke-linecap="round" stroke-linejoin="round" stroke-width="2.0"/>
    <path d="M5.9 -1.55 L5.45 -1.7 4.75 -1.85 3.8 -1.5 3.25 -1.2 2.75 -1.4 1.7 -1.75 0.65 -1.55 0.0 -1.35 -0.95 -1.6 -1.75 -1.7 -2.7 -1.35 -3.3 -1.05 -3.85 -1.35 -4.85 -1.65 -4.9 -1.65 -5.65 -1.3 -6.15 -0.9" fill="none" stroke="#000000" stroke-linecap="round" stroke-linejoin="round" stroke-width="1.0"/>
    <path d="M9.5 7.9 L8.1 11.85 Q6.5 15.9 5.55 16.6 M-5.65 16.6 Q-6.7 15.1 -7.5 7.45 -8.05 2.15 -7.75 -0.2 M7.2 0.45 L7.5 2.45 M9.5 7.9 L9.8 6.9" fill="none" stroke="#000000" stroke-linecap="round" stroke-linejoin="round" stroke-width="3.0"/>
  </g>
</svg>
