<?xml version="1.0" encoding="UTF-8" standalone="no"?>
<svg xmlns:xlink="http://www.w3.org/1999/xlink" height="40.5px" width="44.1px" xmlns="http://www.w3.org/2000/svg">
  <g transform="matrix(1.0, 0.0, 0.0, 1.0, 26.95, 22.4)">
    <path d="M9.05 -11.2 L10.4 -13.4 10.8 -13.8 11.45 -14.3 12.15 -14.45 12.9 -14.45 13.65 -14.3 14.45 -13.95 15.15 -13.4 15.65 -12.8 16.0 -12.15 16.15 -11.45 16.05 -10.7 15.9 -10.2 14.65 -8.1 13.7 -7.25 14.65 -8.1 13.05 -5.0 11.25 -0.5 11.05 -0.2 Q11.2 2.1 10.1 7.45 8.5 15.2 7.2 16.6 6.3 17.5 0.1 17.4 -5.9 17.3 -7.2 16.6 -8.35 16.0 -10.7 11.95 L-12.4 8.75 -11.75 8.4 -11.2 7.9 -11.75 8.4 -12.4 8.75 -12.45 8.8 -13.25 8.9 -13.8 8.85 -17.05 7.65 -15.9 7.55 -17.05 7.65 -20.8 6.95 -20.85 7.0 -23.1 7.25 -23.6 7.15 -24.4 6.9 -24.95 6.3 -25.4 5.65 -25.75 4.8 -25.95 3.8 -25.95 2.75 -25.8 1.85 -25.5 1.1 -25.05 0.4 -23.85 -0.25 -21.1 -0.5 -19.75 -0.4 -15.1 0.4 -11.25 1.75 -11.0 1.95 -10.25 2.65 -10.15 2.9 -10.25 2.65 -11.0 1.95 -10.45 -0.05 -10.7 -0.2 -11.15 -0.75 -11.4 -1.55 -11.5 -2.05 -10.95 -9.7 -10.65 -8.35 -10.95 -9.7 -10.05 -14.8 -9.35 -18.1 -9.2 -18.6 -9.0 -19.05 -8.5 -19.7 -7.9 -20.1 -7.2 -20.35 -6.45 -20.4 -5.55 -20.3 -4.75 -20.05 -4.1 -19.65 -3.6 -19.1 -3.2 -18.5 -3.05 -17.2 -3.1 -17.05 -1.8 -20.05 -1.45 -20.45 -0.85 -21.0 -0.15 -21.3 0.6 -21.4 1.4 -21.3 3.05 -20.6 3.65 -20.05 4.1 -19.45 4.35 -18.75 4.35 -17.85 4.35 -17.8 4.95 -18.35 5.65 -18.55 6.45 -18.65 7.25 -18.55 8.15 -18.25 8.95 -17.75 9.6 -17.2 10.05 -16.6 10.35 -15.9 10.25 -14.55 8.75 -11.35 8.0 -10.45 8.75 -11.35 8.25 -9.65 9.05 -11.2 8.8 -9.8 9.05 -11.2 M2.35 -12.25 L2.35 -13.55 2.35 -13.7 3.75 -16.9 4.3 -17.8 4.35 -17.85 4.3 -17.8 3.75 -16.9 2.35 -13.7 2.35 -13.55 2.35 -12.25 M2.35 -13.55 L2.3 -13.45 0.8 -8.65 -0.6 -2.45 -0.6 -1.9 -0.5 -1.4 -0.6 -1.9 -0.6 -2.45 0.8 -8.65 2.3 -13.45 2.35 -13.55 M-3.35 -14.8 L-3.4 -16.3 -3.1 -17.05 -3.4 -16.3 -3.35 -14.8 M7.15 -6.25 L7.25 -7.65 8.25 -9.65 7.25 -7.65 7.15 -6.25 M0.95 -7.25 L0.8 -8.65 0.95 -7.25 M-7.55 -1.2 L-6.6 -1.5 -6.05 -1.6 -5.0 -1.8 -0.5 -1.4 0.0 -1.35 5.0 -1.7 5.3 -1.7 6.95 -1.55 5.3 -1.7 5.0 -1.7 0.0 -1.35 -0.5 -1.4 -5.0 -1.8 -6.05 -1.6 -6.6 -1.5 -7.55 -1.2 M9.75 0.8 L10.4 0.5 10.95 -0.05 11.05 -0.2 10.95 -0.05 10.4 0.5 9.75 0.8 M12.2 -4.05 L13.05 -5.0 12.2 -4.05 M5.3 -1.7 L5.35 -2.85 7.25 -7.65 5.35 -2.85 5.3 -1.7 M-2.75 10.8 L-1.65 8.65 -0.35 6.65 1.5 5.05 3.45 3.65 1.5 5.05 -0.35 6.65 -1.65 8.65 -2.75 10.8 M-20.0 6.55 L-20.4 6.8 -20.8 6.95 -20.4 6.8 -20.0 6.55 M-9.9 -13.45 L-10.05 -14.8 -9.9 -13.45 M-6.05 -1.6 L-6.15 -1.85 -6.2 -2.4 -4.65 -11.1 -3.4 -16.3 -4.65 -11.1 -4.45 -9.75 -4.65 -11.1 -6.2 -2.4 -6.15 -1.85 -6.05 -1.6 M-9.4 0.5 L-10.1 0.2 -10.45 -0.05 -10.1 0.2 -9.4 0.5 M-19.45 0.1 L-21.1 -0.5 -19.45 0.1 M-13.8 1.35 L-15.1 0.4 -13.8 1.35" fill="#ffffff" fill-rule="evenodd" stroke="none"/>
    <path d="M14.65 -8.1 L15.9 -10.2 16.05 -10.7 16.15 -11.45 16.0 -12.15 15.65 -12.8 15.15 -13.4 14.45 -13.95 13.65 -14.3 12.9 -14.45 12.15 -14.45 11.45 -14.3 10.8 -13.8 10.4 -13.4 9.05 -11.2 8.8 -9.8 M8.75 -11.35 L10.25 -14.55 10.35 -15.9 10.05 -16.6 9.6 -17.2 8.95 -17.75 8.15 -18.25 7.25 -18.55 6.45 -18.65 5.65 -18.55 4.95 -18.35 4.35 -17.85 4.3 -17.8 3.75 -16.9 2.35 -13.7 2.35 -13.55 2.35 -12.25 M4.35 -17.8 L4.35 -17.85 4.35 -18.75 4.1 -19.45 3.65 -20.05 3.05 -20.6 1.4 -21.3 0.6 -21.4 -0.15 -21.3 -0.85 -21.0 -1.45 -20.45 -1.8 -20.05 -3.1 -17.05 -3.4 -16.3 -3.35 -14.8 M-0.5 -1.4 L-0.6 -1.9 -0.6 -2.45 0.8 -8.65 2.3 -13.45 2.35 -13.55 M8.25 -9.65 L7.25 -7.65 7.15 -6.25 M8.75 -11.35 L8.0 -10.45 M9.05 -11.2 L8.25 -9.65 8.75 -11.35 M0.8 -8.65 L0.95 -7.25 M7.25 -7.65 L5.35 -2.85 5.3 -1.7 M14.65 -8.1 L13.7 -7.25 M13.05 -5.0 L12.2 -4.05 M11.05 -0.2 L10.95 -0.05 10.4 0.5 9.75 0.8 M11.05 -0.2 L11.25 -0.5 13.05 -5.0 14.65 -8.1 M-21.1 -0.5 L-23.85 -0.25 -25.05 0.4 -25.5 1.1 -25.8 1.85 -25.95 2.75 -25.95 3.8 -25.75 4.8 -25.4 5.65 -24.95 6.3 -24.4 6.9 -23.6 7.15 -23.1 7.25 -20.85 7.0 -20.8 6.95 -20.4 6.8 -20.0 6.55 M-3.1 -17.05 L-3.05 -17.2 -3.2 -18.5 -3.6 -19.1 -4.1 -19.65 -4.75 -20.05 -5.55 -20.3 -6.45 -20.4 -7.2 -20.35 -7.9 -20.1 -8.5 -19.7 -9.0 -19.05 -9.2 -18.6 -9.35 -18.1 -10.05 -14.8 -9.9 -13.45 M-10.95 -9.7 L-11.5 -2.05 -11.4 -1.55 -11.15 -0.75 -10.7 -0.2 -10.45 -0.05 -10.1 0.2 -9.4 0.5 M-10.95 -9.7 L-10.65 -8.35 M-3.4 -16.3 L-4.65 -11.1 -4.45 -9.75 M-4.65 -11.1 L-6.2 -2.4 -6.15 -1.85 -6.05 -1.6 M-10.05 -14.8 L-10.95 -9.7 M-15.1 0.4 L-19.75 -0.4 -21.1 -0.5 -19.45 0.1 M-11.0 1.95 L-11.25 1.75 -15.1 0.4 -13.8 1.35 M-11.0 1.95 L-10.25 2.65 -10.15 2.9 M-17.05 7.65 L-15.9 7.55 M-12.4 8.75 L-11.75 8.4 -11.2 7.9 M-17.05 7.65 L-13.8 8.85 -13.25 8.9 -12.45 8.8 -12.4 8.75 M-20.8 6.95 L-17.05 7.65" fill="none" stroke="#000000" stroke-linecap="round" stroke-linejoin="round" stroke-width="2.0"/>
    <path d="M6.95 -1.55 L5.3 -1.7 5.0 -1.7 0.0 -1.35 -0.5 -1.4 -5.0 -1.8 -6.05 -1.6 -6.6 -1.5 -7.55 -1.2 M3.45 3.65 L1.5 5.05 -0.35 6.65 -1.65 8.65 -2.75 10.8" fill="none" stroke="#000000" stroke-linecap="round" stroke-linejoin="round" stroke-width="1.0"/>
    <path d="M7.2 16.6 Q8.5 15.2 10.1 7.45 11.2 2.1 11.05 -0.2 M-12.4 8.75 L-10.7 11.95 Q-8.35 16.0 -7.2 16.6 M-10.45 -0.05 L-11.0 1.95" fill="none" stroke="#000000" stroke-linecap="round" stroke-linejoin="round" stroke-width="3.0"/>
  </g>
</svg>
