<?xml version="1.0" encoding="UTF-8" standalone="no"?>
<svg xmlns:xlink="http://www.w3.org/1999/xlink" height="39.1px" width="32.2px" xmlns="http://www.w3.org/2000/svg">
  <g transform="matrix(1.0, 0.0, 0.0, 1.0, 19.6, 21.0)">
    <path d="M-3.4 -17.05 L-2.8 -17.55 -2.05 -17.95 -1.3 -18.2 -0.55 -18.25 0.25 -17.95 0.7 -17.7 2.8 -15.8 3.95 -14.4 4.0 -14.35 4.0 -14.3 4.1 -14.4 4.8 -14.65 5.55 -14.75 6.3 -14.7 7.0 -14.3 7.45 -13.95 8.9 -12.2 9.2 -11.7 9.6 -10.2 9.2 -11.7 10.65 -9.0 11.15 -7.45 11.4 -5.9 11.55 -1.85 11.45 -1.35 11.15 -0.55 11.05 -0.45 10.65 0.0 10.05 0.4 9.75 0.5 10.05 0.4 10.65 0.0 11.05 -0.45 Q11.25 1.8 10.1 7.45 8.5 15.2 7.2 16.6 6.3 17.5 0.1 17.4 -5.9 17.3 -7.2 16.6 -8.35 16.0 -10.7 11.95 L-12.75 7.95 -13.5 8.05 -14.3 8.0 -15.1 7.75 -15.7 7.2 -16.05 6.8 -17.65 3.0 -17.95 1.75 -18.6 -3.55 -17.95 -6.35 -17.7 -6.8 -17.15 -7.45 -16.45 -7.8 -15.65 -7.95 -14.75 -7.95 -13.7 -7.8 -12.75 -7.45 -11.95 -7.0 -11.25 -6.35 -11.3 -8.05 -11.4 -8.45 -10.8 -7.55 -11.4 -8.45 -13.05 -12.1 -13.3 -12.25 -13.65 -12.6 -15.05 -13.45 -15.45 -13.65 -16.2 -14.7 -16.3 -15.4 -16.25 -16.05 -16.05 -16.8 -15.6 -17.5 -15.0 -18.15 -14.35 -18.6 -13.65 -18.85 -12.9 -19.0 -11.6 -18.55 -11.15 -18.25 -11.1 -18.3 -10.55 -19.0 -9.9 -19.5 Q-9.55 -19.65 -9.25 -19.85 L-8.5 -20.0 -7.7 -19.9 -7.2 -19.7 -4.75 -18.2 -3.4 -17.05 -3.5 -16.95 -4.1 -16.2 -4.45 -15.45 -4.6 -14.75 -4.6 -14.0 -4.3 -13.25 -4.05 -12.8 -1.85 -11.0 -1.15 -10.4 -1.85 -11.0 -4.05 -12.8 -4.3 -13.25 -4.6 -14.0 -4.6 -14.75 -4.45 -15.45 -4.1 -16.2 -3.5 -16.95 -3.4 -17.05 M4.75 -7.75 L3.85 -8.4 2.75 -9.75 2.45 -10.05 2.0 -11.25 2.1 -11.95 2.3 -12.65 2.75 -13.3 3.35 -13.9 4.0 -14.35 3.35 -13.9 2.75 -13.3 2.3 -12.65 2.1 -11.95 2.0 -11.25 2.45 -10.05 2.75 -9.75 3.85 -8.4 4.75 -7.75 M5.6 -5.0 L5.1 -5.9 5.0 -6.25 4.8 -6.7 3.85 -8.4 4.8 -6.7 5.0 -6.25 5.1 -5.9 5.6 -5.0 M6.95 -1.55 L6.15 -1.65 5.2 -1.6 6.15 -1.65 6.95 -1.55 M5.2 -1.6 L5.15 -5.5 5.1 -5.9 5.15 -5.5 5.2 -1.6 0.0 -1.35 -0.65 -1.4 -5.0 -1.8 -6.15 -1.6 -7.55 -1.2 -6.15 -1.6 -5.0 -1.8 -0.65 -1.4 0.0 -1.35 5.2 -1.6 M10.95 -5.85 L11.15 -7.45 10.95 -5.85 M-2.75 10.8 L-1.6 8.65 -0.3 6.65 1.5 5.1 3.45 3.65 1.5 5.1 -0.3 6.65 -1.6 8.65 -2.75 10.8 M-7.5 -12.4 L-8.3 -12.85 -10.8 -14.2 -11.15 -14.6 -11.6 -15.25 -11.75 -16.0 -11.55 -17.5 -11.15 -18.25 -11.55 -17.5 -11.75 -16.0 -11.6 -15.25 -11.15 -14.6 -10.8 -14.2 -8.3 -12.85 -7.5 -12.4 M-12.25 -11.45 L-13.05 -12.1 -12.25 -11.45 M-18.05 -1.6 L-18.6 -3.55 -18.05 -1.6 M-10.7 -0.25 L-11.25 -2.5 -10.65 -4.5 -10.85 -5.8 -11.25 -6.35 -10.85 -5.8 -10.65 -4.5 -11.25 -2.5 -10.7 -0.25 -10.55 0.3 -10.45 0.8 -9.85 2.15 -10.45 0.8 -10.55 0.3 -10.45 -0.05 -10.7 -0.25 M-9.35 0.5 L-9.85 0.35 -10.45 0.0 -10.45 -0.05 -10.45 0.0 -9.85 0.35 -9.35 0.5 M-10.5 1.9 L-10.45 0.8 -10.5 1.9 M-8.3 -12.85 L-6.5 -9.55 -5.85 -8.7 -6.5 -9.55 -6.3 -8.65 -6.2 -1.65 -6.15 -1.6 -6.2 -1.65 -6.3 -8.65 -6.5 -9.55 -8.3 -12.85 M-0.75 -7.35 L-0.7 -1.6 -0.65 -1.4 -0.7 -1.6 -0.75 -7.35 -1.85 -11.0 -0.75 -7.35 -0.2 -6.4 -0.75 -7.35 M-11.25 -2.5 L-11.35 -2.35 -11.7 -1.95 -11.35 -2.35 -11.25 -2.5 M-16.6 4.25 L-17.65 3.0 -16.6 4.25 M-11.6 7.65 L-12.6 7.95 -12.75 7.95 -12.6 7.95 -11.6 7.65" fill="#ffffff" fill-rule="evenodd" stroke="none"/>
    <path d="M4.0 -14.35 L3.95 -14.4 2.8 -15.8 0.7 -17.7 0.25 -17.95 -0.55 -18.25 -1.3 -18.2 -2.05 -17.95 -2.8 -17.55 -3.4 -17.05 -3.5 -16.95 -4.1 -16.2 -4.45 -15.45 -4.6 -14.75 -4.6 -14.0 -4.3 -13.25 -4.05 -12.8 -1.85 -11.0 -1.15 -10.4 M4.0 -14.35 L3.35 -13.9 2.75 -13.3 2.3 -12.65 2.1 -11.95 2.0 -11.25 2.45 -10.05 2.75 -9.75 3.85 -8.4 4.75 -7.75 M9.2 -11.7 L8.9 -12.2 7.45 -13.95 7.0 -14.3 6.3 -14.7 5.55 -14.75 4.8 -14.65 4.1 -14.4 4.0 -14.35 M9.2 -11.7 L9.6 -10.2 M3.85 -8.4 L4.8 -6.7 5.0 -6.25 5.1 -5.9 5.6 -5.0 M5.1 -5.9 L5.15 -5.5 5.2 -1.6 M11.05 -0.45 L11.15 -0.55 11.45 -1.35 11.55 -1.85 11.4 -5.9 11.15 -7.45 10.95 -5.85 M11.15 -7.45 L10.65 -9.0 9.2 -11.7 M11.05 -0.45 L10.65 0.0 10.05 0.4 9.75 0.5 M-3.4 -17.05 L-4.75 -18.2 -7.2 -19.7 -7.7 -19.9 -8.5 -20.0 -9.25 -19.85 Q-9.55 -19.65 -9.9 -19.5 L-10.55 -19.0 -11.1 -18.3 -11.15 -18.25 -11.55 -17.5 -11.75 -16.0 -11.6 -15.25 -11.15 -14.6 -10.8 -14.2 -8.3 -12.85 -7.5 -12.4 M-11.15 -18.25 L-11.6 -18.55 -12.9 -19.0 -13.65 -18.85 -14.35 -18.6 -15.0 -18.15 -15.6 -17.5 -16.05 -16.8 -16.25 -16.05 -16.3 -15.4 -16.2 -14.7 -15.45 -13.65 -15.05 -13.45 -13.65 -12.6 -13.3 -12.25 -13.05 -12.1 -12.25 -11.45 M-11.25 -6.35 L-11.95 -7.0 -12.75 -7.45 -13.7 -7.8 -14.75 -7.95 -15.65 -7.95 -16.45 -7.8 -17.15 -7.45 -17.7 -6.8 -17.95 -6.35 -18.6 -3.55 -18.05 -1.6 M-11.4 -8.45 L-11.3 -8.05 -11.25 -6.35 -10.85 -5.8 -10.65 -4.5 -11.25 -2.5 -10.7 -0.25 -10.45 -0.05 -10.45 0.0 -9.85 0.35 -9.35 0.5 M-11.4 -8.45 L-10.8 -7.55 M-13.05 -12.1 L-11.4 -8.45 M-11.7 -1.95 L-11.35 -2.35 -11.25 -2.5 M-1.85 -11.0 L-0.75 -7.35 -0.2 -6.4 M-5.85 -8.7 L-6.5 -9.55 -6.3 -8.65 -6.2 -1.65 -6.15 -1.6 M-0.65 -1.4 L-0.7 -1.6 -0.75 -7.35 M-6.5 -9.55 L-8.3 -12.85 M-10.55 0.3 L-10.45 0.8 -9.85 2.15 M-10.45 0.8 L-10.5 1.9 M-18.6 -3.55 L-17.95 1.75 -17.65 3.0 -16.6 4.25 M-17.65 3.0 L-16.05 6.8 -15.7 7.2 -15.1 7.75 -14.3 8.0 -13.5 8.05 -12.75 7.95 -12.6 7.95 -11.6 7.65 M-10.7 -0.25 L-10.55 0.3" fill="none" stroke="#000000" stroke-linecap="round" stroke-linejoin="round" stroke-width="2.0"/>
    <path d="M5.2 -1.6 L6.15 -1.65 6.95 -1.55 M5.2 -1.6 L0.0 -1.35 -0.65 -1.4 -5.0 -1.8 -6.15 -1.6 -7.55 -1.2 M3.45 3.65 L1.5 5.1 -0.3 6.65 -1.6 8.65 -2.75 10.8" fill="none" stroke="#000000" stroke-linecap="round" stroke-linejoin="round" stroke-width="1.0"/>
    <path d="M7.2 16.6 Q8.5 15.2 10.1 7.45 11.25 1.8 11.05 -0.45 M-12.75 7.95 L-10.7 11.95 Q-8.35 16.0 -7.2 16.6 M-10.55 0.3 L-10.45 -0.05" fill="none" stroke="#000000" stroke-linecap="round" stroke-linejoin="round" stroke-width="3.0"/>
  </g>
</svg>
