<?xml version="1.0" encoding="UTF-8" standalone="no"?>
<svg xmlns:xlink="http://www.w3.org/1999/xlink" height="35.05px" width="35.8px" xmlns="http://www.w3.org/2000/svg">
  <g transform="matrix(1.0, 0.0, 0.0, 1.0, 23.2, 16.95)">
    <path d="M1.45 -12.6 L2.65 -12.55 5.35 -11.45 6.45 -10.25 5.35 -11.45 8.0 -9.55 9.15 -8.25 9.6 -6.6 9.15 -8.25 10.0 -6.75 11.35 -2.8 11.4 -2.25 11.35 -1.45 11.05 -0.75 11.0 -0.7 10.6 -0.2 10.0 0.3 9.75 0.4 10.0 0.3 10.6 -0.2 11.0 -0.7 Q11.35 1.45 10.1 7.45 8.5 15.2 7.2 16.6 6.3 17.5 0.1 17.4 -5.9 17.3 -7.2 16.6 -8.35 16.0 -10.65 11.95 L-12.4 8.75 -12.55 8.85 -13.4 8.95 -13.95 8.9 -15.0 8.5 -15.85 8.2 -16.25 8.0 -16.85 7.7 -18.25 6.9 -20.75 3.85 -22.2 -0.35 -22.0 -2.15 -21.7 -3.45 -20.9 -4.55 -20.15 -4.9 -19.35 -5.05 -18.45 -5.1 -17.45 -4.9 -16.5 -4.55 -15.7 -4.1 -15.1 -3.6 -14.65 -2.95 -14.45 -1.65 -14.8 -0.55 -15.2 0.0 -14.45 0.25 -14.05 1.3 -13.5 1.2 -11.25 1.9 -11.0 2.05 -10.5 0.05 -10.55 0.05 -11.0 -0.6 -11.25 -1.1 -11.85 -4.65 -11.9 -6.5 -12.15 -7.0 -11.5 -6.7 -12.15 -7.0 -12.2 -7.05 -12.8 -7.35 -15.45 -8.35 -15.7 -8.35 -17.75 -8.0 -18.15 -7.9 -19.4 -8.2 -19.95 -8.6 -20.35 -9.15 -20.65 -9.8 -20.85 -10.65 -20.8 -11.55 -20.65 -12.3 -20.3 -12.95 -19.8 -13.55 -18.5 -14.1 -15.55 -14.4 -14.95 -14.35 -14.3 -14.85 -13.8 -15.15 -10.85 -15.95 -8.6 -15.95 -6.5 -15.0 -5.45 -15.25 -2.5 -14.95 -1.3 -14.6 -0.6 -14.3 0.7 -12.85 -0.6 -14.3 1.45 -12.6 1.25 -12.6 0.55 -12.3 -0.05 -11.85 -0.55 -11.25 -0.95 -10.45 -1.15 -9.6 -1.15 -8.85 -1.05 -8.15 -0.75 -7.5 -0.2 -7.0 0.25 -6.7 0.65 -6.6 2.15 -6.05 3.25 -5.9 2.15 -6.05 0.65 -6.6 0.25 -6.7 -0.2 -7.0 -0.75 -7.5 -1.05 -8.15 -1.15 -8.85 -1.15 -9.6 -0.95 -10.45 -0.55 -11.25 -0.05 -11.85 0.55 -12.3 1.25 -12.6 1.45 -12.6 M5.1 -1.7 L4.5 -3.9 4.2 -4.6 3.7 -5.1 2.15 -6.05 3.7 -5.1 4.2 -4.6 4.9 -4.05 4.2 -4.6 4.5 -3.9 5.1 -1.7 6.95 -1.55 5.1 -1.7 0.0 -1.35 -0.65 -1.4 -5.0 -1.8 -6.2 -1.6 -7.55 -1.2 -6.2 -1.6 -5.0 -1.8 -0.65 -1.4 0.0 -1.35 5.1 -1.7 M-2.75 10.8 L-1.6 8.65 -0.3 6.65 1.5 5.1 3.45 3.65 1.5 5.1 -0.3 6.65 -1.6 8.65 -2.75 10.8 M-16.3 7.45 L-18.25 6.9 -16.3 7.45 M-14.4 -8.45 L-15.4 -8.35 -15.45 -8.35 -15.4 -8.35 -14.4 -8.45 M-6.9 -14.85 L-8.6 -15.95 -6.9 -14.85 -6.8 -14.9 -6.5 -15.0 -6.8 -14.9 -6.9 -14.85 -7.4 -14.4 -7.85 -13.75 -8.2 -13.0 -8.4 -12.05 -8.4 -11.15 -8.2 -10.35 -7.9 -9.65 -7.45 -9.05 -6.3 -8.5 -5.85 -8.45 -4.2 -8.5 -3.95 -8.55 -3.75 -8.55 -3.05 -8.45 -3.75 -8.55 -3.95 -8.55 -4.2 -8.5 -5.85 -8.45 -6.3 -8.5 -7.45 -9.05 -7.9 -9.65 -8.2 -10.35 -8.4 -11.15 -8.4 -12.05 -8.2 -13.0 -7.85 -13.75 -7.4 -14.4 -6.9 -14.85 M-9.5 -10.0 L-9.8 -9.95 -10.1 -9.95 -10.25 -9.65 -10.65 -9.4 -11.75 -8.95 -12.2 -8.85 -12.7 -8.8 -13.5 -8.9 -14.1 -9.25 -14.65 -9.75 -15.1 -10.4 -15.4 -11.25 -15.55 -12.15 -15.5 -12.95 -15.3 -13.7 -14.95 -14.35 -15.3 -13.7 -15.5 -12.95 -15.55 -12.15 -15.4 -11.25 -15.1 -10.4 -14.65 -9.75 -14.1 -9.25 -13.5 -8.9 -12.7 -8.8 -12.2 -8.85 -11.75 -8.95 -10.65 -9.4 -10.25 -9.65 -10.1 -9.95 -9.8 -9.95 -9.5 -10.0 M-1.65 -6.2 L-0.65 -1.4 -1.65 -6.2 -3.75 -8.55 -1.65 -6.2 -1.05 -5.55 -1.65 -6.2 M-7.55 -8.35 L-10.1 -9.95 -7.55 -8.35 -6.85 -7.85 -7.55 -8.35 -7.25 -7.7 -6.95 -4.6 -6.2 -1.6 -6.95 -4.6 -7.25 -7.7 -7.55 -8.35 M-9.35 0.6 L-9.95 0.4 -10.5 0.05 -9.95 0.4 -9.35 0.6 M-13.65 1.7 L-14.05 1.3 -13.65 1.7 M-10.25 2.8 L-11.0 2.05 -10.25 2.8 M-15.0 8.5 L-16.25 8.0 -15.0 8.5 M-11.2 7.85 L-11.85 8.45 -12.4 8.75 -11.85 8.45 -11.2 7.85" fill="#ffffff" fill-rule="evenodd" stroke="none"/>
    <path d="M5.35 -11.45 L2.65 -12.55 1.45 -12.6 1.25 -12.6 0.55 -12.3 -0.05 -11.85 -0.55 -11.25 -0.95 -10.45 -1.15 -9.6 -1.15 -8.85 -1.05 -8.15 -0.75 -7.5 -0.2 -7.0 0.25 -6.7 0.65 -6.6 2.15 -6.05 3.25 -5.9 M9.15 -8.25 L9.6 -6.6 M5.35 -11.45 L6.45 -10.25 M9.15 -8.25 L8.0 -9.55 5.35 -11.45 M11.0 -0.7 L11.05 -0.75 11.35 -1.45 11.4 -2.25 11.35 -2.8 10.0 -6.75 9.15 -8.25 M2.15 -6.05 L3.7 -5.1 4.2 -4.6 4.9 -4.05 M4.2 -4.6 L4.5 -3.9 5.1 -1.7 M11.0 -0.7 L10.6 -0.2 10.0 0.3 9.75 0.4 M-14.05 1.3 L-14.45 0.25 -15.2 0.0 -14.8 -0.55 -14.45 -1.65 -14.65 -2.95 -15.1 -3.6 -15.7 -4.1 -16.5 -4.55 -17.45 -4.9 -18.45 -5.1 -19.35 -5.05 -20.15 -4.9 -20.9 -4.55 -21.7 -3.45 -22.0 -2.15 -22.2 -0.35 -20.75 3.85 -18.25 6.9 -16.3 7.45 M-14.95 -14.35 L-15.55 -14.4 -18.5 -14.1 -19.8 -13.55 -20.3 -12.95 -20.65 -12.3 -20.8 -11.55 -20.85 -10.65 -20.65 -9.8 -20.35 -9.15 -19.95 -8.6 -19.4 -8.2 -18.15 -7.9 -17.75 -8.0 -15.7 -8.35 -15.45 -8.35 -15.4 -8.35 -14.4 -8.45 M-0.6 -14.3 L-1.3 -14.6 -2.5 -14.95 -5.45 -15.25 -6.5 -15.0 -6.8 -14.9 -6.9 -14.85 -7.4 -14.4 -7.85 -13.75 -8.2 -13.0 -8.4 -12.05 -8.4 -11.15 -8.2 -10.35 -7.9 -9.65 -7.45 -9.05 -6.3 -8.5 -5.85 -8.45 -4.2 -8.5 -3.95 -8.55 -3.75 -8.55 -3.05 -8.45 M-8.6 -15.95 L-6.9 -14.85 M-6.5 -15.0 L-8.6 -15.95 -10.85 -15.95 -13.8 -15.15 -14.3 -14.85 -14.95 -14.35 -15.3 -13.7 -15.5 -12.95 -15.55 -12.15 -15.4 -11.25 -15.1 -10.4 -14.65 -9.75 -14.1 -9.25 -13.5 -8.9 -12.7 -8.8 -12.2 -8.85 -11.75 -8.95 -10.65 -9.4 -10.25 -9.65 -10.1 -9.95 -9.8 -9.95 -9.5 -10.0 M-12.15 -7.0 L-11.5 -6.7 M-12.2 -7.05 L-12.15 -7.0 -15.45 -8.35 M-12.15 -7.0 L-11.9 -6.5 -11.85 -4.65 -11.25 -1.1 -11.0 -0.6 -10.55 0.05 -10.5 0.05 -9.95 0.4 -9.35 0.6 M-3.75 -8.55 L-1.65 -6.2 -1.05 -5.55 M-6.85 -7.85 L-7.55 -8.35 -7.25 -7.7 -6.95 -4.6 -6.2 -1.6 M-10.1 -9.95 L-7.55 -8.35 M-0.65 -1.4 L-1.65 -6.2 M-11.0 2.05 L-11.25 1.9 -13.5 1.2 -14.05 1.3 -13.65 1.7 M-11.0 2.05 L-10.25 2.8 M-16.25 8.0 L-16.5 7.9 -16.85 7.7 -18.25 6.9 M-16.25 8.0 L-15.0 8.5 -13.95 8.9 -13.4 8.95 -12.55 8.85 -12.4 8.75 -11.85 8.45 -11.2 7.85 M-0.6 -14.3 L0.7 -12.85 M1.45 -12.6 L-0.6 -14.3" fill="none" stroke="#000000" stroke-linecap="round" stroke-linejoin="round" stroke-width="2.0"/>
    <path d="M5.1 -1.7 L6.95 -1.55 M5.1 -1.7 L0.0 -1.35 -0.65 -1.4 -5.0 -1.8 -6.2 -1.6 -7.55 -1.2 M3.45 3.65 L1.5 5.1 -0.3 6.65 -1.6 8.65 -2.75 10.8" fill="none" stroke="#000000" stroke-linecap="round" stroke-linejoin="round" stroke-width="1.0"/>
    <path d="M7.2 16.6 Q8.5 15.2 10.1 7.45 11.35 1.45 11.0 -0.7 M-10.5 0.05 L-11.0 2.05 M-12.4 8.75 L-10.65 11.95 Q-8.35 16.0 -7.2 16.6" fill="none" stroke="#000000" stroke-linecap="round" stroke-linejoin="round" stroke-width="3.0"/>
  </g>
</svg>
