<?xml version="1.0" encoding="UTF-8" standalone="no"?>
<svg xmlns:xlink="http://www.w3.org/1999/xlink" height="39.45px" width="30.65px" xmlns="http://www.w3.org/2000/svg">
  <g transform="matrix(1.0, 0.0, 0.0, 1.0, 18.05, 21.35)">
    <path d="M8.0 -6.85 L6.9 -8.35 8.0 -6.85 M1.1 -9.45 L1.2 -9.5 5.1 -9.2 6.9 -8.35 8.3 -7.15 10.6 -4.1 11.1 -3.2 11.3 -2.35 11.2 -1.65 10.95 -1.05 10.9 -0.95 10.45 -0.3 9.85 0.3 10.45 -0.3 10.9 -0.95 10.95 -1.05 Q11.45 1.0 10.1 7.45 8.5 15.2 7.2 16.6 6.3 17.5 0.1 17.4 -5.9 17.3 -7.2 16.6 -8.35 16.0 -10.7 11.95 L-12.8 7.9 -13.75 7.9 -14.55 7.75 -15.3 7.45 -15.9 6.8 -16.2 6.35 -16.95 3.65 -16.2 6.35 -16.8 4.4 -16.95 3.65 -17.05 1.4 -16.8 0.9 -16.8 0.85 -16.6 0.4 -15.75 -1.55 -15.6 -1.9 -15.95 -2.3 -16.25 -3.65 -15.95 -5.9 -15.75 -6.75 -14.65 -8.9 -12.95 -10.05 -11.35 -11.15 -9.25 -11.55 -7.65 -11.65 -6.1 -10.7 -7.65 -11.65 -9.25 -11.55 -11.35 -11.15 -12.95 -10.05 -13.5 -13.8 -13.5 -14.3 -13.75 -17.65 -13.65 -18.2 -13.4 -18.95 -12.9 -19.5 -12.3 -19.95 -11.6 -20.2 -10.7 -20.35 -9.85 -20.35 -9.1 -20.15 -8.5 -19.8 -7.95 -19.3 -7.6 -18.6 -7.45 -18.1 -7.2 -14.45 -7.5 -13.2 -7.2 -14.45 -6.8 -11.45 -5.85 -11.0 -5.25 -10.45 -2.85 -10.7 0.8 -9.65 Q0.95 -9.55 1.05 -9.5 L1.1 -9.45 0.45 -9.25 -0.65 -8.75 -2.0 -7.75 -2.8 -6.45 -2.9 -5.7 -2.8 -4.95 -2.55 -4.25 -2.45 -4.15 -2.05 -3.5 -1.45 -2.9 -0.85 -2.55 -0.2 -2.3 0.5 -2.25 Q1.0 -2.45 1.5 -2.7 L1.7 -3.0 2.05 -3.4 2.3 -3.8 2.55 -3.95 2.8 -4.15 2.55 -3.95 2.3 -3.8 2.05 -3.4 1.7 -3.0 1.5 -2.7 Q1.0 -2.45 0.5 -2.25 L-0.2 -2.3 -0.85 -2.55 -1.45 -2.9 -2.05 -3.5 -2.45 -4.15 -2.55 -4.25 -2.8 -4.95 -2.9 -5.7 -2.8 -6.45 -2.0 -7.75 -0.65 -8.75 0.45 -9.25 1.1 -9.45 M2.3 -3.8 L3.35 -3.55 3.6 -3.45 3.75 -3.3 4.8 -1.6 3.75 -3.3 3.6 -3.45 3.35 -3.55 2.3 -3.8 M-4.3 -4.7 L-4.6 -4.4 -4.55 -4.3 -4.5 -4.1 -4.75 -3.3 -5.35 -2.35 -5.7 -2.0 -6.0 -1.85 -5.95 -2.1 -6.05 -3.15 -6.25 -4.0 -6.6 -4.75 -7.05 -5.35 -7.8 -5.75 -8.4 -5.95 -9.65 -5.95 -10.9 -5.75 -10.85 -5.95 -10.65 -6.45 -8.75 -9.0 -6.9 -10.25 -5.25 -10.45 -6.9 -10.25 -8.75 -9.0 -10.65 -6.45 -10.85 -5.95 -10.9 -5.75 -9.65 -5.95 -8.4 -5.95 -7.8 -5.75 -7.05 -5.35 -6.6 -4.75 -6.25 -4.0 -6.05 -3.15 -5.95 -2.1 -6.0 -1.85 -5.7 -2.0 -5.35 -2.35 -4.75 -3.3 -4.5 -4.1 -4.55 -4.3 -4.6 -4.4 -4.3 -4.7 M6.95 -1.55 L6.2 -1.65 4.8 -1.6 0.0 -1.35 -1.05 -1.45 0.0 -1.35 4.8 -1.6 6.2 -1.65 6.95 -1.55 M3.75 -3.3 L4.45 -3.0 3.75 -3.3 M-2.75 10.8 L-1.6 8.65 -0.3 6.65 1.5 5.1 3.45 3.65 1.5 5.1 -0.3 6.65 -1.6 8.65 -2.75 10.8 M-12.9 -12.55 L-13.5 -13.8 -12.9 -12.55 M-10.9 -5.75 L-11.5 -5.6 -15.3 -2.6 -15.6 -1.9 -15.3 -2.6 -11.5 -5.6 -10.9 -5.75 M-16.45 3.55 L-17.05 1.4 -16.45 3.55 M-6.0 -1.6 L-6.0 -1.85 -6.0 -1.6 -6.1 -1.1 -6.4 -0.25 -6.75 0.45 -7.3 1.05 -8.0 1.35 -8.5 1.45 -8.95 1.45 -9.65 1.3 -9.95 1.15 -9.85 1.25 -9.65 1.65 -9.7 1.65 -10.05 1.9 -10.45 1.95 -10.45 2.25 -10.45 1.95 -10.05 1.9 -9.7 1.65 -9.65 1.65 -9.85 1.25 -9.95 1.15 -9.65 1.3 -8.95 1.45 -8.5 1.45 -8.0 1.35 -7.3 1.05 -6.75 0.45 -6.4 -0.25 -6.1 -1.1 -6.0 -1.6 -5.0 -1.8 -1.05 -1.45 -5.0 -1.8 -6.0 -1.6 M-7.65 -11.65 L-6.85 -11.45 -6.8 -11.45 -6.85 -11.45 -7.65 -11.65 M-4.6 -4.4 L-3.6 -4.15 -2.45 -4.15 -3.6 -4.15 -4.6 -4.4 M-2.05 -3.5 L-1.8 -2.8 -1.05 -1.45 -1.8 -2.8 -2.05 -3.5 M-11.45 7.55 L-11.85 7.7 -12.8 7.9 -11.85 7.7 -11.45 7.55 M-10.15 0.95 L-9.95 1.15 -10.15 0.95" fill="#ffffff" fill-rule="evenodd" stroke="none"/>
    <path d="M6.9 -8.35 L8.0 -6.85 M10.95 -1.05 L11.2 -1.65 11.3 -2.35 11.1 -3.2 10.6 -4.1 8.3 -7.15 6.9 -8.35 5.1 -9.2 1.2 -9.5 1.1 -9.45 0.45 -9.25 -0.65 -8.75 -2.0 -7.75 -2.8 -6.45 -2.9 -5.7 -2.8 -4.95 -2.55 -4.25 -2.45 -4.15 -2.05 -3.5 -1.45 -2.9 -0.85 -2.55 -0.2 -2.3 0.5 -2.25 Q1.0 -2.45 1.5 -2.7 L1.7 -3.0 2.05 -3.4 2.3 -3.8 2.55 -3.95 2.8 -4.15 M1.1 -9.45 L1.05 -9.5 Q0.95 -9.55 0.8 -9.65 L-2.85 -10.7 -5.25 -10.45 -6.9 -10.25 -8.75 -9.0 -10.65 -6.45 -10.85 -5.95 -10.9 -5.75 -9.65 -5.95 -8.4 -5.95 -7.8 -5.75 -7.05 -5.35 -6.6 -4.75 -6.25 -4.0 -6.05 -3.15 -5.95 -2.1 -6.0 -1.85 -5.7 -2.0 -5.35 -2.35 -4.75 -3.3 -4.5 -4.1 -4.55 -4.3 -4.6 -4.4 -4.3 -4.7 M4.8 -1.6 L3.75 -3.3 3.6 -3.45 3.35 -3.55 2.3 -3.8 M4.45 -3.0 L3.75 -3.3 M10.95 -1.05 L10.9 -0.95 10.45 -0.3 9.85 0.3 M-7.2 -14.45 L-7.45 -18.1 -7.6 -18.6 -7.95 -19.3 -8.5 -19.8 -9.1 -20.15 -9.85 -20.35 -10.7 -20.35 -11.6 -20.2 -12.3 -19.95 -12.9 -19.5 -13.4 -18.95 -13.65 -18.2 -13.75 -17.65 -13.5 -14.3 -13.5 -13.8 -12.9 -12.55 M-7.2 -14.45 L-7.5 -13.2 M-6.1 -10.7 L-7.65 -11.65 -9.25 -11.55 -11.35 -11.15 -12.95 -10.05 -14.65 -8.9 -15.75 -6.75 -15.95 -5.9 -16.25 -3.65 -15.95 -2.3 -15.6 -1.9 -15.3 -2.6 -11.5 -5.6 -10.9 -5.75 M-15.75 -1.55 L-16.6 0.4 M-16.8 0.85 L-16.8 0.9 -17.05 1.4 -16.45 3.55 M-5.25 -10.45 L-5.85 -11.0 -6.8 -11.45 -6.85 -11.45 -7.65 -11.65 M-6.0 -1.6 L-6.1 -1.1 -6.4 -0.25 -6.75 0.45 -7.3 1.05 -8.0 1.35 -8.5 1.45 -8.95 1.45 -9.65 1.3 -9.95 1.15 -9.85 1.25 -9.65 1.65 -9.7 1.65 -10.05 1.9 -10.45 1.95 -10.45 2.25 M-6.0 -1.85 L-6.0 -1.6 M-1.05 -1.45 L-1.8 -2.8 -2.05 -3.5 M-2.45 -4.15 L-3.6 -4.15 -4.6 -4.4 M-6.8 -11.45 L-7.2 -14.45 M-12.95 -10.05 L-13.5 -13.8 M-17.05 1.4 L-16.95 3.65 -16.2 6.35 -15.9 6.8 -15.3 7.45 -14.55 7.75 -13.75 7.9 -12.8 7.9 -11.85 7.7 -11.45 7.55 M-9.95 1.15 L-10.15 0.95" fill="none" stroke="#000000" stroke-linecap="round" stroke-linejoin="round" stroke-width="2.0"/>
    <path d="M-1.05 -1.45 L0.0 -1.35 4.8 -1.6 6.2 -1.65 6.95 -1.55 M3.45 3.65 L1.5 5.1 -0.3 6.65 -1.6 8.65 -2.75 10.8 M-6.0 -1.6 L-5.0 -1.8 -1.05 -1.45" fill="none" stroke="#000000" stroke-linecap="round" stroke-linejoin="round" stroke-width="1.0"/>
    <path d="M7.2 16.6 Q8.5 15.2 10.1 7.45 11.45 1.0 10.95 -1.05 M-12.8 7.9 L-10.7 11.95 Q-8.35 16.0 -7.2 16.6" fill="none" stroke="#000000" stroke-linecap="round" stroke-linejoin="round" stroke-width="3.0"/>
  </g>
</svg>
