<?xml version="1.0" encoding="UTF-8" standalone="no"?>
<svg xmlns:xlink="http://www.w3.org/1999/xlink" height="31.45px" width="39.55px" xmlns="http://www.w3.org/2000/svg">
  <g transform="matrix(1.0, 0.0, 0.0, 1.0, 27.0, 13.35)">
    <path d="M7.65 -8.6 L8.3 -8.05 9.05 -7.2 11.15 -3.25 11.3 -2.7 11.35 -1.85 11.1 -1.15 10.95 -0.9 10.75 -0.5 10.2 0.05 9.75 0.3 10.2 0.05 10.75 -0.5 10.95 -0.9 Q11.4 1.2 10.1 7.45 8.5 15.2 7.2 16.6 6.3 17.5 0.1 17.4 -5.9 17.3 -7.2 16.6 -8.35 16.0 -10.65 11.95 L-12.35 8.75 -12.45 8.8 -13.25 8.9 -13.8 8.85 -15.25 8.25 -16.75 7.65 -16.85 7.65 -20.3 7.45 -20.35 7.5 -22.5 8.1 -23.05 8.1 -23.85 7.95 -24.5 7.45 -25.05 6.85 -25.5 6.1 -25.85 5.1 -26.0 4.1 -26.0 3.2 -25.8 2.4 -25.45 1.65 -24.85 1.1 -24.4 0.8 -23.9 0.7 -23.15 0.45 -21.65 0.15 -20.3 0.05 -15.3 0.35 -11.7 1.55 -11.25 1.75 -11.0 1.95 -10.45 -0.05 -11.1 -0.75 -11.25 -1.45 -11.4 -1.5 -11.45 -1.4 -11.8 -0.85 -12.3 -0.4 -13.05 0.0 -13.9 0.2 -14.65 0.2 -15.4 0.0 -16.05 -0.4 -16.65 -1.05 -16.95 -1.5 -17.5 -2.9 -17.9 -4.85 -17.55 -7.0 -16.6 -8.25 -16.25 -8.6 -14.85 -10.0 -12.85 -10.7 -11.3 -10.95 -11.05 -10.9 -9.6 -11.95 -7.45 -12.3 -5.8 -12.35 -5.0 -12.1 -4.35 -11.7 -0.55 -11.7 3.1 -10.0 3.45 -9.6 3.5 -9.5 3.55 -9.5 5.65 -9.6 6.85 -9.1 7.65 -8.6 8.7 -7.0 7.65 -8.6 M4.9 -3.7 L4.4 -4.0 4.3 -4.1 4.2 -4.15 3.75 -4.25 3.5 -4.35 3.55 -4.2 3.6 -3.95 3.45 -3.15 3.2 -2.8 2.7 -2.35 2.1 -2.2 1.4 -2.15 0.7 -2.3 Q0.35 -2.45 -0.05 -2.65 L-0.75 -3.15 -1.05 -3.55 -1.25 -3.75 -1.55 -4.4 -1.75 -5.15 -1.65 -5.45 -1.4 -6.65 -0.35 -8.1 1.35 -9.4 3.5 -9.5 1.35 -9.4 -0.35 -8.1 -1.4 -6.65 -1.65 -5.45 -1.75 -5.15 -1.55 -4.4 -1.25 -3.75 -1.05 -3.55 -0.75 -3.15 -0.05 -2.65 Q0.35 -2.45 0.7 -2.3 L1.4 -2.15 2.1 -2.2 2.7 -2.35 3.2 -2.8 3.45 -3.15 3.6 -3.95 3.55 -4.2 3.5 -4.35 3.75 -4.25 4.2 -4.15 4.3 -4.1 4.4 -4.0 4.9 -3.7 M-8.85 -7.8 L-8.75 -8.05 -7.3 -9.9 -6.65 -10.5 -4.8 -11.65 -4.7 -11.7 -4.35 -11.7 -4.7 -11.7 -4.8 -11.65 -6.65 -10.5 -7.3 -9.9 -8.75 -8.05 -8.85 -7.8 M-7.55 -1.2 L-6.6 -1.5 -6.25 -1.55 -5.0 -1.8 -0.65 -1.4 0.0 -1.35 5.0 -1.7 5.15 -1.7 6.95 -1.55 5.15 -1.7 5.0 -1.7 0.0 -1.35 -0.65 -1.4 -5.0 -1.8 -6.25 -1.55 -6.6 -1.5 -7.55 -1.2 M4.4 -4.0 L5.15 -1.7 4.4 -4.0 M-2.75 10.75 L-1.6 8.65 -0.3 6.6 1.5 5.05 3.45 3.65 1.5 5.05 -0.3 6.6 -1.6 8.65 -2.75 10.75 M-11.0 1.95 L-10.85 2.05 -10.25 2.65 -10.15 2.9 -10.25 2.65 -10.85 2.05 -11.0 1.95 M-9.35 0.55 L-9.6 0.55 -10.25 0.25 -10.45 -0.05 -10.25 0.25 -9.6 0.55 -9.35 0.55 M-5.8 -12.35 L-4.8 -11.65 -5.8 -12.35 M-1.05 -3.55 L-1.05 -3.2 -0.65 -1.4 -1.05 -3.2 -1.05 -3.55 M-6.85 -3.3 L-6.2 -3.05 -5.45 -2.95 -4.75 -3.05 -4.05 -3.4 -3.65 -3.7 -3.05 -4.65 -2.75 -5.45 -2.9 -5.75 -2.55 -5.6 -2.0 -5.45 -1.65 -5.45 -2.0 -5.45 -2.55 -5.6 -2.9 -5.75 -2.75 -5.45 -3.05 -4.65 -3.65 -3.7 -4.05 -3.4 -4.75 -3.05 -5.45 -2.95 -6.2 -3.05 -6.85 -3.3 -6.25 -1.55 -6.85 -3.3 -6.95 -3.35 -7.2 -3.55 -6.95 -3.35 -6.85 -3.3 M-8.95 -7.5 L-9.2 -6.75 -9.1 -6.0 -8.85 -5.25 -8.4 -4.55 -7.75 -3.85 -7.2 -3.55 -7.5 -2.8 -8.0 -2.25 -8.55 -1.8 -9.3 -1.5 -10.15 -1.3 -11.05 -1.35 -11.25 -1.45 -11.05 -1.35 -10.15 -1.3 -9.3 -1.5 -8.55 -1.8 -8.0 -2.25 -7.5 -2.8 -7.2 -3.55 -7.75 -3.85 -8.4 -4.55 -8.85 -5.25 -9.1 -6.0 -9.2 -6.75 -8.95 -7.5 M-17.55 -7.0 L-16.25 -8.6 -17.55 -7.0 M-11.2 -10.8 L-11.7 -10.45 -12.9 -9.35 -11.2 -10.8 -11.05 -10.9 -11.2 -10.8 -12.9 -9.35 -13.7 -6.9 -13.6 -3.7 -13.45 -3.2 -13.05 -2.45 -12.5 -1.95 -11.85 -1.6 -11.4 -1.5 -11.85 -1.6 -12.5 -1.95 -13.05 -2.45 -13.45 -3.2 -13.6 -3.7 -13.7 -6.9 -12.9 -9.35 -11.7 -10.45 -11.2 -10.8 M-15.85 7.5 L-16.75 7.65 -15.85 7.5 M-19.9 0.5 L-21.65 0.15 -19.9 0.5 M-19.65 6.95 L-20.3 7.45 -19.65 6.95 M-13.85 1.35 L-15.3 0.35 -13.85 1.35 M-11.2 7.9 L-11.75 8.4 -12.35 8.75 -11.75 8.4 -11.2 7.9" fill="#ffffff" fill-rule="evenodd" stroke="none"/>
    <path d="M10.95 -0.9 L11.1 -1.15 11.35 -1.85 11.3 -2.7 11.15 -3.25 9.05 -7.2 8.3 -8.05 7.65 -8.6 8.7 -7.0 M7.65 -8.6 L6.85 -9.1 5.65 -9.6 3.55 -9.5 3.5 -9.5 1.35 -9.4 -0.35 -8.1 -1.4 -6.65 -1.65 -5.45 -1.75 -5.15 -1.55 -4.4 -1.25 -3.75 -1.05 -3.55 -0.75 -3.15 -0.05 -2.65 Q0.35 -2.45 0.7 -2.3 L1.4 -2.15 2.1 -2.2 2.7 -2.35 3.2 -2.8 3.45 -3.15 3.6 -3.95 3.55 -4.2 3.5 -4.35 3.75 -4.25 4.2 -4.15 4.3 -4.1 4.4 -4.0 4.9 -3.7 M3.5 -9.5 L3.45 -9.6 3.1 -10.0 -0.55 -11.7 -4.35 -11.7 -4.7 -11.7 -4.8 -11.65 -6.65 -10.5 -7.3 -9.9 -8.75 -8.05 -8.85 -7.8 M5.15 -1.7 L4.4 -4.0 M9.75 0.3 L10.2 0.05 10.75 -0.5 10.95 -0.9 M-12.35 8.75 L-12.45 8.8 -13.25 8.9 -13.8 8.85 -15.25 8.25 -16.85 7.65 -20.3 7.45 -20.35 7.5 -22.5 8.1 -23.05 8.1 -23.85 7.95 -24.5 7.45 -25.05 6.85 -25.5 6.1 -25.85 5.1 -26.0 4.1 -26.0 3.2 -25.8 2.4 -25.45 1.65 -24.85 1.1 -24.4 0.8 -23.9 0.7 -23.15 0.45 -21.65 0.15 -20.3 0.05 -15.3 0.35 -11.7 1.55 -11.25 1.75 -11.0 1.95 M-10.45 -0.05 L-11.1 -0.75 -11.25 -1.45 -11.4 -1.5 -11.45 -1.4 -11.8 -0.85 -12.3 -0.4 -13.05 0.0 -13.9 0.2 -14.65 0.2 -15.4 0.0 -16.05 -0.4 -16.65 -1.05 -16.95 -1.5 -17.5 -2.9 -17.9 -4.85 -17.55 -7.0 -16.6 -8.25 -16.25 -8.6 -14.85 -10.0 -12.85 -10.7 -11.3 -10.95 -11.05 -10.9 -9.6 -11.95 -7.45 -12.3 -5.8 -12.35 -5.0 -12.1 -4.35 -11.7 M-11.05 -10.9 L-11.2 -10.8 -12.9 -9.35 -13.7 -6.9 -13.6 -3.7 -13.45 -3.2 -13.05 -2.45 -12.5 -1.95 -11.85 -1.6 -11.4 -1.5 M-12.9 -9.35 L-11.7 -10.45 -11.2 -10.8 M-16.25 -8.6 L-17.55 -7.0 M-11.25 -1.45 L-11.05 -1.35 -10.15 -1.3 -9.3 -1.5 -8.55 -1.8 -8.0 -2.25 -7.5 -2.8 -7.2 -3.55 -7.75 -3.85 -8.4 -4.55 -8.85 -5.25 -9.1 -6.0 -9.2 -6.75 -8.95 -7.5 M-6.25 -1.55 L-6.85 -3.3 -6.95 -3.35 -7.2 -3.55 M-1.65 -5.45 L-2.0 -5.45 -2.55 -5.6 -2.9 -5.75 -2.75 -5.45 -3.05 -4.65 -3.65 -3.7 -4.05 -3.4 -4.75 -3.05 -5.45 -2.95 -6.2 -3.05 -6.85 -3.3 M-0.65 -1.4 L-1.05 -3.2 -1.05 -3.55 M-4.8 -11.65 L-5.8 -12.35 M-10.45 -0.05 L-10.25 0.25 -9.6 0.55 -9.35 0.55 M-10.15 2.9 L-10.25 2.65 -10.85 2.05 -11.0 1.95 M-16.75 7.65 L-16.85 7.65 M-16.75 7.65 L-15.85 7.5 M-12.35 8.75 L-11.75 8.4 -11.2 7.9 M-15.3 0.35 L-13.85 1.35 M-20.3 7.45 L-19.65 6.95 M-21.65 0.15 L-19.9 0.5" fill="none" stroke="#000000" stroke-linecap="round" stroke-linejoin="round" stroke-width="2.0"/>
    <path d="M6.95 -1.55 L5.15 -1.7 5.0 -1.7 0.0 -1.35 -0.65 -1.4 -5.0 -1.8 -6.25 -1.55 -6.6 -1.5 -7.55 -1.2 M3.45 3.65 L1.5 5.05 -0.3 6.6 -1.6 8.65 -2.75 10.75" fill="none" stroke="#000000" stroke-linecap="round" stroke-linejoin="round" stroke-width="1.0"/>
    <path d="M10.95 -0.9 Q11.4 1.2 10.1 7.45 8.5 15.2 7.2 16.6 M-7.2 16.6 Q-8.35 16.0 -10.65 11.95 L-12.35 8.75 M-11.0 1.95 L-10.45 -0.05" fill="none" stroke="#000000" stroke-linecap="round" stroke-linejoin="round" stroke-width="3.0"/>
  </g>
</svg>
