<?xml version="1.0" encoding="UTF-8" standalone="no"?>
<svg xmlns:xlink="http://www.w3.org/1999/xlink" height="40.5px" width="37.65px" xmlns="http://www.w3.org/2000/svg">
  <g transform="matrix(1.0, 0.0, 0.0, 1.0, 23.1, 22.4)">
    <path d="M9.35 -14.4 L9.55 -14.45 10.3 -14.45 11.05 -14.3 11.85 -13.95 12.55 -13.4 13.05 -12.8 13.4 -12.15 13.55 -11.45 13.45 -10.7 13.3 -10.2 12.05 -8.1 11.1 -7.25 12.05 -8.1 10.45 -5.0 8.7 -0.5 8.4 -0.05 7.8 0.5 7.15 0.8 6.75 0.9 7.15 0.8 7.8 0.5 Q7.9 2.85 7.45 7.45 6.65 15.1 5.6 16.6 5.05 17.4 0.15 17.35 -4.65 17.25 -5.6 16.6 -6.55 15.9 -8.15 11.85 L-9.25 8.85 -9.4 8.9 -9.9 8.85 -13.15 7.65 -16.9 6.95 -16.95 7.0 -19.2 7.25 -19.75 7.15 -20.5 6.9 -21.1 6.3 -21.55 5.65 -21.9 4.8 -22.1 3.8 -22.1 2.75 -21.95 1.85 -21.65 1.1 -21.2 0.4 -20.0 -0.25 -17.25 -0.5 -15.6 0.1 -17.25 -0.5 -11.2 0.4 -7.4 1.75 -7.2 0.35 -7.2 0.3 -7.5 0.2 -8.1 -0.2 -8.6 -0.75 -8.85 -1.55 -8.95 -2.05 -8.45 -9.15 -8.35 -9.7 -8.1 -8.35 -8.35 -9.7 -7.5 -14.8 -6.65 -18.6 -5.95 -19.7 -5.3 -20.1 -4.65 -20.35 -3.85 -20.4 -3.0 -20.3 -2.2 -20.05 -1.55 -19.65 -1.2 -19.35 -0.9 -20.05 -0.55 -20.45 0.05 -21.0 0.75 -21.3 1.5 -21.4 2.3 -21.3 3.15 -21.0 3.95 -20.6 4.55 -20.05 5.0 -19.45 5.3 -18.75 5.3 -18.65 5.3 -18.6 5.6 -18.65 6.4 -18.55 7.3 -18.25 8.1 -17.75 8.75 -17.2 9.2 -16.6 9.5 -15.9 9.4 -14.55 9.35 -14.4 8.85 -14.3 8.2 -13.8 7.8 -13.4 6.5 -11.2 6.4 -10.7 6.25 -9.8 6.4 -10.7 6.5 -11.2 7.8 -13.4 8.2 -13.8 8.85 -14.3 9.35 -14.4 M1.5 -12.25 L1.5 -13.7 3.15 -17.35 3.5 -17.8 4.1 -18.35 5.3 -18.65 4.1 -18.35 3.5 -17.8 3.15 -17.35 1.5 -13.7 1.5 -12.25 M-2.4 -14.8 L-2.5 -16.3 -1.2 -19.35 -2.5 -16.3 -2.4 -14.8 M4.55 -6.25 L4.65 -7.65 6.4 -10.7 4.65 -7.65 4.55 -6.25 M-5.05 -1.25 L-4.5 -1.5 -3.45 -1.8 -1.35 -1.55 0.0 -1.35 2.7 -1.65 3.45 -1.7 4.25 -1.65 4.8 -1.55 4.25 -1.65 3.45 -1.7 2.7 -1.65 0.0 -1.35 -1.35 -1.55 -3.45 -1.8 -4.5 -1.5 -5.05 -1.25 -5.25 -1.85 -5.3 -2.4 -3.85 -10.6 -3.7 -11.1 -2.5 -16.3 -3.7 -11.1 -3.85 -10.6 -5.3 -2.4 -5.25 -1.85 -5.05 -1.25 M2.7 -1.65 L2.75 -2.85 4.65 -7.65 2.75 -2.85 2.7 -1.65 M9.6 -4.05 L10.45 -5.0 9.6 -4.05 M-1.7 10.8 L-0.8 8.7 0.2 6.65 2.45 3.65 0.2 6.65 -0.8 8.7 -1.7 10.8 M-7.3 -13.45 L-7.5 -14.8 -7.3 -13.45 M-3.55 -9.75 L-3.7 -11.1 -3.55 -9.75 M-16.1 6.55 L-16.9 6.95 -16.1 6.55 M-1.35 -1.55 L-1.45 -1.9 -1.45 -2.45 -0.05 -8.65 0.1 -7.25 -0.05 -8.65 -1.45 -2.45 -1.45 -1.9 -1.35 -1.55 M-6.2 0.6 L-6.8 0.5 -7.2 0.35 -6.8 0.5 -6.2 0.6 M-6.35 2.6 L-7.4 1.75 -6.35 2.6 M-7.45 8.05 L-7.85 8.4 -8.55 8.8 -9.25 8.85 -8.55 8.8 -7.85 8.4 -7.45 8.05 M-12.0 7.55 L-13.15 7.65 -12.0 7.55 M-9.95 1.35 L-11.2 0.4 -9.95 1.35 M-0.05 -8.65 L1.5 -13.7 -0.05 -8.65" fill="#ffffff" fill-rule="evenodd" stroke="none"/>
    <path d="M12.05 -8.1 L13.3 -10.2 13.45 -10.7 13.55 -11.45 13.4 -12.15 13.05 -12.8 12.55 -13.4 11.85 -13.95 11.05 -14.3 10.3 -14.45 9.55 -14.45 9.35 -14.4 8.85 -14.3 8.2 -13.8 7.8 -13.4 6.5 -11.2 6.4 -10.7 6.25 -9.8 M5.6 -18.65 L5.3 -18.65 5.3 -18.6 M5.3 -18.65 L5.3 -18.75 5.0 -19.45 4.55 -20.05 3.95 -20.6 3.15 -21.0 2.3 -21.3 1.5 -21.4 0.75 -21.3 0.05 -21.0 -0.55 -20.45 -0.9 -20.05 -1.2 -19.35 -2.5 -16.3 -2.4 -14.8 M5.3 -18.65 L4.1 -18.35 3.5 -17.8 3.15 -17.35 1.5 -13.7 1.5 -12.25 M9.35 -14.4 L9.4 -14.55 9.5 -15.9 9.2 -16.6 8.75 -17.2 8.1 -17.75 7.3 -18.25 6.4 -18.55 5.6 -18.65 M6.4 -10.7 L4.65 -7.65 4.55 -6.25 M-5.05 -1.25 L-5.25 -1.85 -5.3 -2.4 -3.85 -10.6 -3.7 -11.1 -2.5 -16.3 M4.65 -7.65 L2.75 -2.85 2.7 -1.65 M7.8 0.5 L8.4 -0.05 8.7 -0.5 10.45 -5.0 9.6 -4.05 M12.05 -8.1 L11.1 -7.25 M10.45 -5.0 L12.05 -8.1 M7.8 0.5 L7.15 0.8 6.75 0.9 M-1.2 -19.35 L-1.55 -19.65 -2.2 -20.05 -3.0 -20.3 -3.85 -20.4 -4.65 -20.35 -5.3 -20.1 -5.95 -19.7 -6.65 -18.6 -7.5 -14.8 -7.3 -13.45 M-17.25 -0.5 L-20.0 -0.25 -21.2 0.4 -21.65 1.1 -21.95 1.85 -22.1 2.75 -22.1 3.8 -21.9 4.8 -21.55 5.65 -21.1 6.3 -20.5 6.9 -19.75 7.15 -19.2 7.25 -16.95 7.0 -16.9 6.95 -16.1 6.55 M-3.7 -11.1 L-3.55 -9.75 M-8.35 -9.7 L-8.1 -8.35 M-8.35 -9.7 L-8.45 -9.15 -8.95 -2.05 -8.85 -1.55 -8.6 -0.75 -8.1 -0.2 -7.5 0.2 M-7.2 0.35 L-6.8 0.5 -6.2 0.6 M0.1 -7.25 L-0.05 -8.65 -1.45 -2.45 -1.45 -1.9 -1.35 -1.55 M-7.5 -14.8 L-8.35 -9.7 M-7.2 0.35 L-7.5 0.2 M-7.4 1.75 L-6.35 2.6 M-13.15 7.65 L-9.9 8.85 -9.4 8.9 -9.25 8.85 -8.55 8.8 -7.85 8.4 -7.45 8.05 M-16.9 6.95 L-13.15 7.65 -12.0 7.55 M-7.4 1.75 L-11.2 0.4 -9.95 1.35 M-17.25 -0.5 L-15.6 0.1 M-11.2 0.4 L-17.25 -0.5 M1.5 -13.7 L-0.05 -8.65" fill="none" stroke="#000000" stroke-linecap="round" stroke-linejoin="round" stroke-width="2.0"/>
    <path d="M4.8 -1.55 L4.25 -1.65 3.45 -1.7 2.7 -1.65 0.0 -1.35 -1.35 -1.55 -3.45 -1.8 -4.5 -1.5 -5.05 -1.25 M2.45 3.65 L0.2 6.65 -0.8 8.7 -1.7 10.8" fill="none" stroke="#000000" stroke-linecap="round" stroke-linejoin="round" stroke-width="1.0"/>
    <path d="M5.6 16.6 Q6.65 15.1 7.45 7.45 7.9 2.85 7.8 0.5 M-7.2 0.3 L-7.2 0.35 -7.4 1.75 M-9.25 8.85 L-8.15 11.85 Q-6.55 15.9 -5.6 16.6" fill="none" stroke="#000000" stroke-linecap="round" stroke-linejoin="round" stroke-width="3.0"/>
  </g>
</svg>
