<?xml version="1.0" encoding="UTF-8" standalone="no"?>
<svg xmlns:xlink="http://www.w3.org/1999/xlink" height="39.1px" width="25.65px" xmlns="http://www.w3.org/2000/svg">
  <g transform="matrix(1.0, 0.0, 0.0, 1.0, 15.7, 21.0)">
    <path d="M2.15 -7.75 L1.25 -8.4 0.15 -9.75 -0.15 -10.05 -0.6 -11.25 -0.5 -11.95 -0.25 -12.65 0.15 -13.3 0.75 -13.9 1.5 -14.4 2.2 -14.65 2.85 -14.75 2.2 -14.65 1.5 -14.4 0.75 -13.9 0.15 -13.3 -0.25 -12.65 -0.5 -11.95 -0.6 -11.25 -0.15 -10.05 0.15 -9.75 1.25 -8.4 2.15 -7.75 M-3.3 -17.75 L-2.9 -17.95 -2.15 -18.2 -1.4 -18.25 -0.6 -17.95 -0.15 -17.7 1.95 -15.8 2.85 -14.75 2.95 -14.75 3.7 -14.7 4.45 -14.3 4.85 -13.95 6.3 -12.2 6.6 -11.7 7.0 -10.2 6.6 -11.7 8.05 -9.0 8.55 -7.45 8.7 -6.8 8.95 -1.85 8.85 -1.35 8.6 -0.55 8.1 0.0 7.8 0.2 7.45 0.4 6.75 0.7 7.45 0.4 7.8 0.2 Q7.95 2.55 7.45 7.45 6.65 15.1 5.6 16.6 5.05 17.4 0.15 17.35 -4.65 17.25 -5.6 16.6 -6.55 15.9 -8.15 11.85 L-9.5 8.05 -9.6 8.05 -8.7 7.95 -7.7 7.65 -8.7 7.95 -9.6 8.05 -10.45 8.0 -11.2 7.75 -11.85 7.2 -12.2 6.8 -13.75 3.0 -12.7 4.25 -13.75 3.0 -14.4 0.05 -14.7 -3.55 -14.1 -6.35 -13.3 -7.45 -12.55 -7.8 -11.75 -7.95 -10.85 -7.95 -9.85 -7.8 -8.85 -7.45 -8.65 -7.35 -8.65 -7.5 -8.85 -8.45 -10.45 -12.0 -10.5 -12.05 -10.5 -12.1 -11.05 -12.6 -11.5 -12.8 -12.85 -13.65 -13.2 -14.05 -13.6 -14.7 -13.7 -15.4 -13.65 -16.05 -13.45 -16.8 -13.05 -17.5 -12.4 -18.15 -11.8 -18.6 -11.1 -18.85 -10.35 -19.0 -9.8 -18.85 -9.65 -19.0 -10.2 -18.3 -10.6 -17.5 -10.8 -16.7 -10.85 -16.0 -10.7 -15.25 -10.25 -14.6 -9.9 -14.2 -7.4 -12.85 -5.6 -9.55 -5.4 -8.65 -5.3 -1.65 -5.15 -1.2 -5.3 -1.65 -5.4 -8.65 -5.6 -9.55 -7.4 -12.85 -9.9 -14.2 -10.25 -14.6 -10.7 -15.25 -10.85 -16.0 -10.8 -16.7 -10.6 -17.5 -10.2 -18.3 -9.65 -19.0 -9.0 -19.5 -8.35 -19.85 -7.6 -20.0 -6.8 -19.9 -6.25 -19.7 -3.85 -18.2 -3.3 -17.75 -3.65 -17.55 -4.35 -16.95 -4.95 -16.2 -5.3 -15.45 -5.45 -14.75 -5.45 -14.0 -5.15 -13.25 -4.85 -12.8 -4.55 -12.5 -2.85 -11.15 -2.7 -10.95 -2.0 -10.4 -2.7 -10.95 -2.85 -11.15 -4.55 -12.5 -4.85 -12.8 -5.15 -13.25 -5.45 -14.0 -5.45 -14.75 -5.3 -15.45 -4.95 -16.2 -4.35 -16.95 -3.65 -17.55 -3.3 -17.75 M3.0 -5.0 L2.5 -5.9 2.4 -6.25 1.25 -8.4 2.4 -6.25 2.5 -5.9 3.0 -5.0 M8.4 -5.85 L8.55 -7.45 8.4 -5.85 M-5.15 -1.2 L-4.5 -1.5 -3.45 -1.8 -1.55 -1.55 0.0 -1.35 2.6 -1.6 4.25 -1.65 4.8 -1.55 4.25 -1.65 2.6 -1.6 0.0 -1.35 -1.55 -1.55 -3.45 -1.8 -4.5 -1.5 -5.15 -1.2 M2.6 -1.6 L2.5 -5.9 2.6 -1.6 M-9.65 -11.45 L-10.45 -12.0 -10.5 -12.1 -10.45 -12.0 -9.65 -11.45 M-1.7 10.8 L-0.8 8.7 0.2 6.65 2.45 3.65 0.2 6.65 -0.8 8.7 -1.7 10.8 M-7.4 -12.85 L-6.6 -12.4 -7.4 -12.85 M-8.25 -7.55 L-8.5 -8.0 -8.85 -8.45 -8.5 -8.0 -8.25 -7.55 M-1.05 -6.4 L-1.6 -7.35 -1.5 -6.35 -1.55 -1.55 -1.5 -6.35 -1.6 -7.35 -2.45 -10.3 -2.7 -10.95 -2.45 -10.3 -1.6 -7.35 -1.05 -6.4 M-14.2 -1.6 L-14.7 -3.55 -14.2 -1.6 M-6.25 0.6 L-6.55 0.6 -6.3 1.2 -6.55 0.6 -6.25 0.6 M-4.95 -8.7 L-5.6 -9.55 -4.95 -8.7 M-7.8 -1.95 L-7.4 -2.5 -7.25 -2.85 -6.8 -4.5 -6.8 -5.0 -7.0 -5.8 -7.45 -6.45 -8.1 -7.0 -8.65 -7.35 -8.1 -7.0 -7.45 -6.45 -7.0 -5.8 -6.8 -5.0 -6.8 -4.5 -7.25 -2.85 -7.4 -2.5 -7.2 -1.95 -6.6 0.8 -6.65 1.9 -6.6 0.8 -7.2 -1.95 -7.4 -2.5 -7.8 -1.95" fill="#ffffff" fill-rule="evenodd" stroke="none"/>
    <path d="M2.85 -14.75 L2.2 -14.65 1.5 -14.4 0.75 -13.9 0.15 -13.3 -0.25 -12.65 -0.5 -11.95 -0.6 -11.25 -0.15 -10.05 0.15 -9.75 1.25 -8.4 2.15 -7.75 M6.6 -11.7 L6.3 -12.2 4.85 -13.95 4.45 -14.3 3.7 -14.7 2.95 -14.75 2.85 -14.75 1.95 -15.8 -0.15 -17.7 -0.6 -17.95 -1.4 -18.25 -2.15 -18.2 -2.9 -17.95 -3.3 -17.75 -3.65 -17.55 -4.35 -16.95 -4.95 -16.2 -5.3 -15.45 -5.45 -14.75 -5.45 -14.0 -5.15 -13.25 -4.85 -12.8 -4.55 -12.5 -2.85 -11.15 -2.7 -10.95 -2.0 -10.4 M6.6 -11.7 L7.0 -10.2 M8.55 -7.45 L8.05 -9.0 6.6 -11.7 M7.8 0.2 L8.1 0.0 8.6 -0.55 8.85 -1.35 8.95 -1.85 8.7 -6.8 8.55 -7.45 8.4 -5.85 M1.25 -8.4 L2.4 -6.25 2.5 -5.9 3.0 -5.0 M-5.15 -1.2 L-5.3 -1.65 -5.4 -8.65 -5.6 -9.55 -7.4 -12.85 -9.9 -14.2 -10.25 -14.6 -10.7 -15.25 -10.85 -16.0 -10.8 -16.7 -10.6 -17.5 -10.2 -18.3 -9.65 -19.0 M-9.8 -18.85 L-10.35 -19.0 -11.1 -18.85 -11.8 -18.6 -12.4 -18.15 -13.05 -17.5 -13.45 -16.8 -13.65 -16.05 -13.7 -15.4 -13.6 -14.7 -13.2 -14.05 -12.85 -13.65 -11.5 -12.8 -11.05 -12.6 -10.5 -12.1 -10.45 -12.0 -9.65 -11.45 M2.5 -5.9 L2.6 -1.6 M7.8 0.2 L7.45 0.4 6.75 0.7 M-3.3 -17.75 L-3.85 -18.2 -6.25 -19.7 -6.8 -19.9 -7.6 -20.0 -8.35 -19.85 -9.0 -19.5 -9.65 -19.0 M-6.6 -12.4 L-7.4 -12.85 M-10.5 -12.1 L-10.5 -12.05 -10.45 -12.0 -8.85 -8.45 -8.5 -8.0 -8.25 -7.55 M-8.65 -7.35 L-8.85 -7.45 -9.85 -7.8 -10.85 -7.95 -11.75 -7.95 -12.55 -7.8 -13.3 -7.45 -14.1 -6.35 -14.7 -3.55 -14.2 -1.6 M-1.55 -1.55 L-1.5 -6.35 -1.6 -7.35 -2.45 -10.3 -2.7 -10.95 M-1.6 -7.35 L-1.05 -6.4 M-8.85 -8.45 L-8.65 -7.5 -8.65 -7.35 -8.1 -7.0 -7.45 -6.45 -7.0 -5.8 -6.8 -5.0 -6.8 -4.5 -7.25 -2.85 -7.4 -2.5 -7.2 -1.95 -6.6 0.8 -6.65 1.9 M-7.4 -2.5 L-7.8 -1.95 M-5.6 -9.55 L-4.95 -8.7 M-6.3 1.2 L-6.55 0.6 -6.25 0.6 M-9.6 8.05 L-8.7 7.95 -7.7 7.65 M-13.75 3.0 L-12.2 6.8 -11.85 7.2 -11.2 7.75 -10.45 8.0 -9.6 8.05 M-13.75 3.0 L-12.7 4.25 M-14.7 -3.55 L-14.4 0.05 -13.75 3.0" fill="none" stroke="#000000" stroke-linecap="round" stroke-linejoin="round" stroke-width="2.0"/>
    <path d="M4.8 -1.55 L4.25 -1.65 2.6 -1.6 0.0 -1.35 -1.55 -1.55 -3.45 -1.8 -4.5 -1.5 -5.15 -1.2 M2.45 3.65 L0.2 6.65 -0.8 8.7 -1.7 10.8" fill="none" stroke="#000000" stroke-linecap="round" stroke-linejoin="round" stroke-width="1.0"/>
    <path d="M5.6 16.6 Q6.65 15.1 7.45 7.45 7.95 2.55 7.8 0.2 M-9.5 8.05 L-8.15 11.85 Q-6.55 15.9 -5.6 16.6" fill="none" stroke="#000000" stroke-linecap="round" stroke-linejoin="round" stroke-width="3.0"/>
  </g>
</svg>
