<?xml version="1.0" encoding="UTF-8" standalone="no"?>
<svg xmlns:xlink="http://www.w3.org/1999/xlink" height="38.5px" width="38.0px" xmlns="http://www.w3.org/2000/svg">
  <g transform="matrix(1.0, 0.0, 0.0, 1.0, 21.55, 20.4)">
    <path d="M2.45 -11.95 L2.4 -12.25 1.95 -13.75 1.8 -14.5 1.65 -14.95 1.85 -16.25 2.25 -16.85 2.85 -17.4 3.55 -17.8 4.4 -18.1 5.35 -18.2 6.2 -18.15 6.95 -17.9 7.6 -17.5 8.1 -16.85 8.35 -16.35 9.0 -13.7 9.2 -12.05 8.65 -10.45 9.2 -12.05 8.95 -8.95 8.25 -5.95 8.15 -5.75 8.0 -5.65 4.5 -4.5 4.05 -4.15 3.5 -3.6 3.25 -2.95 3.15 -2.25 3.2 -1.7 3.15 -2.25 3.25 -2.95 3.5 -3.6 4.05 -4.15 4.5 -4.5 8.0 -5.65 8.15 -5.75 8.25 -5.8 7.85 -5.15 8.25 -5.8 8.4 -6.0 9.0 -7.95 9.25 -10.0 9.4 -10.45 9.8 -11.15 10.35 -11.55 11.0 -11.85 11.75 -12.0 12.6 -11.95 13.45 -11.75 14.15 -11.4 14.75 -10.9 15.15 -10.3 15.4 -9.5 15.45 -8.95 15.1 -6.6 14.95 -6.05 13.65 -3.0 13.0 -2.1 12.45 -1.5 10.85 -0.8 12.45 -1.5 11.9 -1.0 11.05 -0.45 8.75 0.55 7.8 0.95 7.8 1.0 7.45 7.45 Q6.65 15.1 5.6 16.6 5.05 17.4 0.15 17.35 -4.65 17.25 -5.6 16.6 -6.55 15.9 -8.15 11.85 L-9.25 8.9 -8.65 8.85 -7.9 8.45 -7.45 8.05 -7.9 8.45 -8.65 8.85 -9.25 8.9 -9.45 8.95 -10.0 8.9 -13.95 7.45 -16.55 5.8 -19.65 2.7 -20.25 1.0 -20.55 -0.3 -20.5 -0.85 -20.3 -1.6 -19.8 -2.25 -19.15 -2.75 -18.35 -3.15 -17.35 -3.45 -16.35 -3.55 -15.45 -3.5 -14.65 -3.25 -13.95 -2.9 -13.45 -2.25 -13.2 -1.8 -13.05 -0.65 -13.15 0.0 -12.75 -0.1 -12.3 -0.15 -10.6 0.85 -7.4 1.8 -7.25 0.5 -7.75 0.3 -8.3 -0.3 -8.6 -0.75 -9.65 -4.2 -10.0 -6.05 -10.2 -6.4 -10.45 -6.65 -10.5 -6.75 -13.2 -8.1 -13.35 -8.05 -13.55 -7.9 -14.0 -7.3 -14.85 -6.65 -15.3 -6.5 -16.0 -6.35 -16.65 -6.5 -17.25 -6.8 -17.8 -7.25 -18.3 -7.95 -18.65 -8.75 -18.75 -9.5 -18.7 -10.3 -18.45 -11.0 -17.95 -11.7 -17.05 -12.35 -14.6 -13.6 -12.65 -13.9 -9.2 -12.9 -6.45 -11.05 -5.4 -9.8 -4.55 -7.6 -5.3 -2.1 -5.2 -1.6 -5.05 -1.25 -5.2 -1.6 -5.3 -2.1 -4.55 -7.6 -4.35 -9.0 -4.45 -9.9 -5.65 -12.95 -5.95 -12.8 -8.0 -13.15 -9.05 -13.95 -9.35 -14.6 -9.5 -15.3 -9.55 -16.1 -9.35 -16.95 -9.0 -17.8 -8.5 -18.45 -7.9 -18.95 -7.25 -19.3 -6.4 -19.4 -5.9 -19.35 -3.0 -18.4 -1.1 -17.2 0.8 -14.2 1.85 -11.25 2.05 -9.7 2.0 -8.65 1.85 -8.15 1.85 -7.15 1.85 -8.15 2.0 -8.65 2.45 -11.95 2.65 -11.5 2.8 -11.0 2.65 -11.5 2.45 -11.95 M9.15 -6.9 L9.0 -7.95 9.15 -6.9 M1.65 -9.7 L1.85 -11.25 1.65 -9.7 M-0.3 -15.45 L-1.1 -17.2 -0.3 -15.45 M-5.05 -1.25 L-4.5 -1.5 -3.45 -1.8 -1.15 -1.5 0.0 -1.35 3.2 -1.7 4.25 -1.65 4.8 -1.55 4.25 -1.65 3.2 -1.7 0.0 -1.35 -1.15 -1.5 -3.45 -1.8 -4.5 -1.5 -5.05 -1.25 M-5.75 -9.55 L-6.45 -11.05 -5.75 -9.55 M14.05 -4.65 L14.95 -6.05 14.05 -4.65 M6.75 1.3 L7.1 1.3 7.8 1.0 7.1 1.3 6.75 1.3 M-1.7 10.8 L-0.8 8.7 0.2 6.65 2.45 3.65 0.2 6.65 -0.8 8.7 -1.7 10.8 M-12.25 7.55 L-13.95 7.45 -12.25 7.55 M-5.1 -12.65 L-5.65 -12.95 -5.1 -12.65 M-12.5 -8.25 L-12.85 -8.2 -13.2 -8.1 -12.85 -8.2 -12.5 -8.25 M-6.4 0.7 L-7.1 0.6 -7.25 0.5 -7.1 0.6 -6.4 0.7 M-3.9 -9.0 L-4.45 -9.9 -3.9 -9.0 M-9.65 -6.3 L-10.5 -6.75 -9.65 -6.3 M-1.15 -1.5 L-1.3 -2.05 -1.2 -2.9 -1.05 -3.4 1.85 -8.15 -1.05 -3.4 -1.2 -2.9 -1.3 -2.05 -1.15 -1.5 M-6.4 2.7 L-6.95 2.15 -7.35 1.85 -7.4 1.8 -7.35 1.85 -6.95 2.15 -6.4 2.7 M-9.85 1.55 L-10.6 0.85 -9.85 1.55" fill="#ffffff" fill-rule="evenodd" stroke="none"/>
    <path d="M9.2 -12.05 L9.0 -13.7 8.35 -16.35 8.1 -16.85 7.6 -17.5 6.95 -17.9 6.2 -18.15 5.35 -18.2 4.4 -18.1 3.55 -17.8 2.85 -17.4 2.25 -16.85 1.85 -16.25 1.65 -14.95 1.8 -14.5 1.95 -13.75 2.4 -12.25 2.45 -11.95 2.65 -11.5 2.8 -11.0 M9.2 -12.05 L8.65 -10.45 M14.95 -6.05 L15.1 -6.6 15.45 -8.95 15.4 -9.5 15.15 -10.3 14.75 -10.9 14.15 -11.4 13.45 -11.75 12.6 -11.95 11.75 -12.0 11.0 -11.85 10.35 -11.55 9.8 -11.15 9.4 -10.45 9.25 -10.0 9.0 -7.95 9.15 -6.9 M8.15 -5.75 L8.25 -5.95 8.95 -8.95 9.2 -12.05 M1.85 -11.25 L1.65 -9.7 M2.0 -8.65 L2.05 -9.7 1.85 -11.25 0.8 -14.2 -1.1 -17.2 -0.3 -15.45 M2.0 -8.65 L1.85 -8.15 1.85 -7.15 M2.45 -11.95 L2.0 -8.65 M8.15 -5.75 L8.0 -5.65 4.5 -4.5 4.05 -4.15 3.5 -3.6 3.25 -2.95 3.15 -2.25 3.2 -1.7 M-5.05 -1.25 L-5.2 -1.6 -5.3 -2.1 -4.55 -7.6 -5.4 -9.8 -6.45 -11.05 -5.75 -9.55 M8.25 -5.8 L7.85 -5.15 M8.25 -5.8 L8.15 -5.75 M9.0 -7.95 L8.4 -6.0 8.25 -5.8 M12.45 -1.5 L13.0 -2.1 13.65 -3.0 14.95 -6.05 14.05 -4.65 M12.45 -1.5 L10.85 -0.8 M8.75 0.55 L11.05 -0.45 11.9 -1.0 12.45 -1.5 M7.8 1.0 L7.1 1.3 6.75 1.3 M7.8 1.0 L8.75 0.55 M-10.6 0.85 L-12.3 -0.15 -12.75 -0.1 -13.15 0.0 -13.05 -0.65 -13.2 -1.8 -13.45 -2.25 -13.95 -2.9 -14.65 -3.25 -15.45 -3.5 -16.35 -3.55 -17.35 -3.45 -18.35 -3.15 -19.15 -2.75 -19.8 -2.25 -20.3 -1.6 -20.5 -0.85 -20.55 -0.3 -20.25 1.0 -19.65 2.7 -16.55 5.8 -13.95 7.45 -12.25 7.55 M-1.1 -17.2 L-3.0 -18.4 -5.9 -19.35 -6.4 -19.4 -7.25 -19.3 -7.9 -18.95 -8.5 -18.45 -9.0 -17.8 -9.35 -16.95 -9.55 -16.1 -9.5 -15.3 -9.35 -14.6 -9.05 -13.95 -8.0 -13.15 -5.95 -12.8 -5.65 -12.95 -5.1 -12.65 M-6.45 -11.05 L-9.2 -12.9 -12.65 -13.9 -14.6 -13.6 -17.05 -12.35 -17.95 -11.7 -18.45 -11.0 -18.7 -10.3 -18.75 -9.5 -18.65 -8.75 -18.3 -7.95 -17.8 -7.25 -17.25 -6.8 -16.65 -6.5 -16.0 -6.35 -15.3 -6.5 -14.85 -6.65 -14.0 -7.3 -13.55 -7.9 -13.35 -8.05 -13.2 -8.1 -12.85 -8.2 -12.5 -8.25 M-10.45 -6.65 L-10.2 -6.4 -10.0 -6.05 -9.65 -4.2 -8.6 -0.75 -8.3 -0.3 -7.75 0.3 -7.25 0.5 -7.1 0.6 -6.4 0.7 M-13.2 -8.1 L-10.5 -6.75 -9.65 -6.3 M-4.45 -9.9 L-3.9 -9.0 M-4.55 -7.6 L-4.35 -9.0 -4.45 -9.9 -5.65 -12.95 M1.85 -8.15 L-1.05 -3.4 -1.2 -2.9 -1.3 -2.05 -1.15 -1.5 M-7.4 1.8 L-7.35 1.85 -6.95 2.15 -6.4 2.7 M-9.25 8.9 L-8.65 8.85 -7.9 8.45 -7.45 8.05 M-13.95 7.45 L-10.0 8.9 -9.45 8.95 -9.25 8.9 M-7.4 1.8 L-10.6 0.85 -9.85 1.55" fill="none" stroke="#000000" stroke-linecap="round" stroke-linejoin="round" stroke-width="2.0"/>
    <path d="M3.2 -1.7 L4.25 -1.65 4.8 -1.55 M3.2 -1.7 L0.0 -1.35 -1.15 -1.5 -3.45 -1.8 -4.5 -1.5 -5.05 -1.25 M2.45 3.65 L0.2 6.65 -0.8 8.7 -1.7 10.8" fill="none" stroke="#000000" stroke-linecap="round" stroke-linejoin="round" stroke-width="1.0"/>
    <path d="M5.6 16.6 Q6.65 15.1 7.45 7.45 L7.8 1.0 M7.8 0.95 L7.8 1.0 M-7.25 0.5 L-7.4 1.8 M-9.25 8.9 L-8.15 11.85 Q-6.55 15.9 -5.6 16.6" fill="none" stroke="#000000" stroke-linecap="round" stroke-linejoin="round" stroke-width="3.0"/>
  </g>
</svg>
