<?xml version="1.0" encoding="UTF-8" standalone="no"?>
<svg xmlns:xlink="http://www.w3.org/1999/xlink" height="48.8px" width="47.2px" xmlns="http://www.w3.org/2000/svg">
  <g transform="matrix(1.0, 0.0, 0.0, 1.0, 11.1, 9.9)">
    <path d="M-11.1 -9.9 L36.1 -9.9 36.1 38.9 -11.1 38.9 -11.1 -9.9" fill="#ffffff" fill-opacity="0.0" fill-rule="evenodd" stroke="none"/>
    <path d="M14.15 0.0 Q20.0 0.0 24.15 4.1 28.3 8.3 28.3 14.15 28.3 20.0 24.15 24.15 20.0 28.3 14.15 28.3 8.3 28.3 4.1 24.15 L3.15 23.1 Q0.0 19.3 0.0 14.15 0.0 9.0 3.15 5.2 L4.1 4.1 Q8.3 0.0 14.15 0.0 M21.3 5.65 Q19.4 4.3 17.6 5.65 19.4 4.3 21.3 5.65 M10.4 5.65 Q8.8 4.3 6.75 5.65 8.8 4.3 10.4 5.65" fill="#ffffff" fill-rule="evenodd" stroke="none"/>
    <path d="M14.15 0.0 Q20.0 0.0 24.15 4.1 28.3 8.3 28.3 14.15 28.3 20.0 24.15 24.15 20.0 28.3 14.15 28.3 8.3 28.3 4.1 24.15 L3.15 23.1 Q0.0 19.3 0.0 14.15 0.0 9.0 3.15 5.2 L4.1 4.1 Q8.3 0.0 14.15 0.0" fill="none" stroke="#000000" stroke-linecap="round" stroke-linejoin="round" stroke-width="1.5"/>
    <path d="M6.75 5.65 Q8.8 4.3 10.4 5.65 M17.6 5.65 Q19.4 4.3 21.3 5.65" fill="none" stroke="#000000" stroke-linecap="round" stroke-linejoin="round" stroke-width="1.0"/>
  </g>
</svg>
