<?xml version="1.0" encoding="UTF-8" standalone="no"?>
<svg xmlns:xlink="http://www.w3.org/1999/xlink" height="24.85px" width="27.15px" xmlns="http://www.w3.org/2000/svg">
  <g transform="matrix(1.0, 0.0, 0.0, 1.0, 13.55, 12.4)">
    <path d="M11.65 -2.15 L12.1 1.2 Q12.1 2.85 11.6 4.55 L10.45 7.3 9.3 9.35 7.55 10.8 Q6.35 11.15 4.1 10.75 L0.05 10.25 -3.8 10.7 Q-5.95 11.05 -7.1 10.7 L-9.0 9.35 -10.4 7.3 -11.55 4.55 Q-12.05 2.9 -12.05 1.2 -12.05 -0.55 -11.6 -2.15 L-10.4 -4.9 Q-9.75 -6.1 -8.5 -7.35 L-6.1 -9.25 -3.35 -10.4 0.05 -10.9 3.4 -10.4 Q4.8 -10.0 6.15 -9.25 7.35 -8.55 8.55 -7.35 L10.45 -4.9 Q11.25 -3.55 11.65 -2.15" fill="#ffffff" fill-rule="evenodd" stroke="none"/>
    <path d="M1.9 -1.85 Q2.7 -1.05 2.7 0.05 2.7 1.1 1.9 1.9 1.1 2.7 0.05 2.7 -1.05 2.7 -1.85 1.9 -2.6 1.1 -2.6 0.05 -2.6 -1.05 -1.85 -1.85 -1.05 -2.65 0.05 -2.6 1.1 -2.65 1.9 -1.85" fill="#000000" fill-rule="evenodd" stroke="none"/>
    <path d="M3.4 -10.4 Q4.8 -10.0 6.15 -9.25 7.35 -8.55 8.55 -7.35 L10.45 -4.9 Q11.25 -3.55 11.65 -2.15 L12.1 1.2 Q12.1 2.85 11.6 4.55 L10.45 7.3 9.3 9.35 7.55 10.8 Q6.35 11.15 4.1 10.75 L0.05 10.25 -3.8 10.7 Q-5.95 11.05 -7.1 10.7 L-9.0 9.35 -10.4 7.3 -11.55 4.55 Q-12.05 2.9 -12.05 1.2 -12.05 -0.55 -11.6 -2.15 L-10.4 -4.9 Q-9.75 -6.1 -8.5 -7.35 L-6.1 -9.25 -3.35 -10.4 0.05 -10.9 3.4 -10.4 Z" fill="none" stroke="#000000" stroke-linecap="round" stroke-linejoin="round" stroke-width="3.0"/>
  </g>
</svg>
