<?xml version="1.0" encoding="UTF-8" standalone="no"?>
<svg xmlns:xlink="http://www.w3.org/1999/xlink" height="7.3px" width="33.2px" xmlns="http://www.w3.org/2000/svg">
  <g transform="matrix(1.0, 0.0, 0.0, 1.0, 16.6, 3.65)">
    <path d="M12.9 -1.4 L15.0 -2.15 15.0 -2.1 15.05 -2.0 15.05 -1.7 15.1 -1.6 15.1 -1.4 13.0 -0.65 10.2 0.3 7.35 1.1 3.7 1.75 0.0 2.15 -3.65 1.85 -7.3 1.25 -10.15 0.45 -12.9 -0.45 -15.1 -1.25 -15.1 -1.45 -15.05 -1.55 -15.05 -1.8 -15.0 -1.95 -15.0 -2.0 -12.85 -1.2 -10.05 -0.3 -7.25 0.5 -3.65 1.15 0.0 1.45 3.65 1.05 7.3 0.35 10.1 -0.45 12.9 -1.4" fill="#ffffff" fill-rule="evenodd" stroke="none"/>
    <path d="M12.9 -1.4 L15.0 -2.15 15.0 -2.1 15.05 -2.0 15.05 -1.7 15.1 -1.6 15.1 -1.4 13.0 -0.65 10.2 0.3 7.35 1.1 3.7 1.75 0.0 2.15 -3.65 1.85 -7.3 1.25 -10.15 0.45 -12.9 -0.45 -15.1 -1.25 -15.1 -1.45 -15.05 -1.55 -15.05 -1.8 -15.0 -1.95 -15.0 -2.0 -12.85 -1.2 -10.05 -0.3 -7.25 0.5 -3.65 1.15 0.0 1.45 3.65 1.05 7.3 0.35 10.1 -0.45 12.9 -1.4 Z" fill="none" stroke="#000000" stroke-linecap="round" stroke-linejoin="round" stroke-width="3.0"/>
  </g>
</svg>
