<?xml version="1.0" encoding="UTF-8" standalone="no"?>
<svg xmlns:xlink="http://www.w3.org/1999/xlink" height="48.8px" width="47.2px" xmlns="http://www.w3.org/2000/svg">
  <g transform="matrix(1.0, 0.0, 0.0, 1.0, 11.1, 9.9)">
    <path d="M-11.1 -9.9 L36.1 -9.9 36.1 38.9 -11.1 38.9 -11.1 -9.9" fill="#ffffff" fill-opacity="0.0" fill-rule="evenodd" stroke="none"/>
    <path d="M4.1 4.1 Q8.3 0.0 14.15 0.0 20.0 0.0 24.15 4.1 28.3 8.3 28.3 14.15 28.3 20.0 24.15 24.15 20.0 28.3 14.15 28.3 8.3 28.3 4.1 24.15 0.0 20.0 0.0 14.15 0.0 8.3 4.1 4.1 M10.4 6.0 Q8.95 6.8 6.95 7.2 8.95 6.8 10.4 6.0 M17.55 6.0 Q19.05 6.8 21.0 7.2 19.05 6.8 17.55 6.0" fill="#ffffff" fill-rule="evenodd" stroke="none"/>
    <path d="M4.1 4.1 Q8.3 0.0 14.15 0.0 20.0 0.0 24.15 4.1 28.3 8.3 28.3 14.15 28.3 20.0 24.15 24.15 20.0 28.3 14.15 28.3 8.3 28.3 4.1 24.15 0.0 20.0 0.0 14.15 0.0 8.3 4.1 4.1" fill="none" stroke="#000000" stroke-linecap="round" stroke-linejoin="round" stroke-width="1.5"/>
    <path d="M21.0 7.2 Q19.05 6.8 17.55 6.0 M6.95 7.2 Q8.95 6.8 10.4 6.0" fill="none" stroke="#000000" stroke-linecap="round" stroke-linejoin="round" stroke-width="1.0"/>
  </g>
</svg>
