<?xml version="1.0" encoding="UTF-8" standalone="no"?>
<svg xmlns:xlink="http://www.w3.org/1999/xlink" height="49.4px" width="47.75px" xmlns="http://www.w3.org/2000/svg">
  <g transform="matrix(1.0, 0.0, 0.0, 1.0, 11.4, 10.2)">
    <path d="M-11.4 -10.2 L36.35 -10.2 36.35 39.2 -11.4 39.2 -11.4 -10.2" fill="#ffffff" fill-opacity="0.0" fill-rule="evenodd" stroke="none"/>
    <path d="M27.25 8.7 Q28.3 11.2 28.3 14.15 28.3 17.1 27.25 19.6 26.2 22.1 24.15 24.15 20.0 28.3 14.15 28.3 8.3 28.3 4.1 24.15 1.45 21.45 0.5 18.05 0.0 16.2 0.0 14.15 0.0 12.1 0.5 10.3 1.45 6.85 4.1 4.1 8.3 0.0 14.15 0.0 20.0 0.0 24.15 4.1 26.2 6.2 27.25 8.7 M17.55 6.0 Q19.05 6.8 21.0 7.2 19.05 6.8 17.55 6.0 M10.4 6.0 Q8.95 6.8 6.95 7.2 8.95 6.8 10.4 6.0" fill="#ffffff" fill-rule="evenodd" stroke="none"/>
    <path d="M27.25 8.7 Q28.3 11.2 28.3 14.15 28.3 17.1 27.25 19.6 26.2 22.1 24.15 24.15 20.0 28.3 14.15 28.3 8.3 28.3 4.1 24.15 1.45 21.45 0.5 18.05 0.0 16.2 0.0 14.15 0.0 12.1 0.5 10.3 1.45 6.85 4.1 4.1 8.3 0.0 14.15 0.0 20.0 0.0 24.15 4.1 26.2 6.2 27.25 8.7" fill="none" stroke="#000000" stroke-linecap="round" stroke-linejoin="round" stroke-width="1.5"/>
    <path d="M6.95 7.2 Q8.95 6.8 10.4 6.0 M21.0 7.2 Q19.05 6.8 17.55 6.0" fill="none" stroke="#000000" stroke-linecap="round" stroke-linejoin="round" stroke-width="1.0"/>
  </g>
</svg>
