<?xml version="1.0" encoding="UTF-8" standalone="no"?>
<svg xmlns:xlink="http://www.w3.org/1999/xlink" height="49.4px" width="47.75px" xmlns="http://www.w3.org/2000/svg">
  <g transform="matrix(1.0, 0.0, 0.0, 1.0, 11.4, 10.2)">
    <path d="M-11.4 -10.2 L36.35 -10.2 36.35 39.2 -11.4 39.2 -11.4 -10.2" fill="#ffffff" fill-opacity="0.0" fill-rule="evenodd" stroke="none"/>
    <path d="M21.3 4.65 Q19.3 2.4 17.6 4.05 19.3 2.4 21.3 4.65 M24.15 24.15 Q20.0 28.3 14.15 28.3 8.3 28.3 4.1 24.15 0.0 20.0 0.0 14.15 0.0 8.3 4.1 4.1 8.3 0.0 14.15 0.0 20.0 0.0 24.15 4.1 28.3 8.3 28.3 14.15 28.3 20.0 24.15 24.15 M10.4 3.95 Q8.35 2.6 6.75 4.65 8.35 2.6 10.4 3.95" fill="#ffffff" fill-rule="evenodd" stroke="none"/>
    <path d="M24.15 24.15 Q20.0 28.3 14.15 28.3 8.3 28.3 4.1 24.15 0.0 20.0 0.0 14.15 0.0 8.3 4.1 4.1 8.3 0.0 14.15 0.0 20.0 0.0 24.15 4.1 28.3 8.3 28.3 14.15 28.3 20.0 24.15 24.15" fill="none" stroke="#000000" stroke-linecap="round" stroke-linejoin="round" stroke-width="1.5"/>
    <path d="M17.6 4.05 Q19.3 2.4 21.3 4.65 M6.75 4.65 Q8.35 2.6 10.4 3.95" fill="none" stroke="#000000" stroke-linecap="round" stroke-linejoin="round" stroke-width="1.0"/>
  </g>
</svg>
