<?xml version="1.0" encoding="UTF-8" standalone="no"?>
<svg xmlns:xlink="http://www.w3.org/1999/xlink" height="32.65px" width="30.95px" xmlns="http://www.w3.org/2000/svg">
  <g transform="matrix(1.0, 0.0, 0.0, 1.0, 15.45, 16.3)">
    <path d="M13.65 -3.85 Q14.05 -1.9 14.0 0.3 13.95 2.45 13.45 4.35 12.95 6.1 12.1 7.65 11.3 9.1 9.9 10.55 8.5 12.05 7.1 12.9 5.55 13.8 3.95 14.3 L0.05 14.85 -3.85 14.3 Q-5.5 13.8 -7.05 12.9 L-9.85 10.55 Q-11.25 9.1 -12.05 7.65 -12.9 6.1 -13.4 4.35 -13.9 2.45 -13.95 0.3 -14.0 -1.9 -13.55 -3.85 L-12.4 -7.3 Q-11.6 -8.9 -10.2 -10.45 -8.8 -12.1 -7.35 -12.95 -5.85 -13.9 -4.05 -14.35 L0.05 -14.8 4.25 -14.15 Q6.05 -13.6 7.7 -12.65 L10.4 -10.3 Q11.7 -8.8 12.45 -7.3 13.25 -5.7 13.65 -3.85" fill="#ffffff" fill-rule="evenodd" stroke="none"/>
    <path d="M1.9 -1.85 Q2.7 -1.05 2.7 0.05 2.7 1.1 1.9 1.9 1.1 2.7 0.05 2.7 -1.05 2.7 -1.85 1.9 -2.6 1.1 -2.6 0.05 -2.6 -1.05 -1.85 -1.85 -1.05 -2.65 0.05 -2.6 1.1 -2.65 1.9 -1.85" fill="#000000" fill-rule="evenodd" stroke="none"/>
    <path d="M13.65 -3.85 Q14.05 -1.9 14.0 0.3 13.95 2.45 13.45 4.35 12.95 6.1 12.1 7.65 11.3 9.1 9.9 10.55 8.5 12.05 7.1 12.9 5.55 13.8 3.95 14.3 L0.05 14.85 -3.85 14.3 Q-5.5 13.8 -7.05 12.9 L-9.85 10.55 Q-11.25 9.1 -12.05 7.65 -12.9 6.1 -13.4 4.35 -13.9 2.45 -13.95 0.3 -14.0 -1.9 -13.55 -3.85 L-12.4 -7.3 Q-11.6 -8.9 -10.2 -10.45 -8.8 -12.1 -7.35 -12.95 -5.85 -13.9 -4.05 -14.35 L0.05 -14.8 4.25 -14.15 Q6.05 -13.6 7.7 -12.65 L10.4 -10.3 Q11.7 -8.8 12.45 -7.3 13.25 -5.7 13.65 -3.85 Z" fill="none" stroke="#000000" stroke-linecap="round" stroke-linejoin="round" stroke-width="3.0"/>
  </g>
</svg>
