<?xml version="1.0" encoding="UTF-8" standalone="no"?>
<svg xmlns:xlink="http://www.w3.org/1999/xlink" height="82.0px" width="202.0px" xmlns="http://www.w3.org/2000/svg">
  <g transform="matrix(1.0, 0.0, 0.0, 1.0, 101.0, 41.0)">
    <path d="M100.0 25.45 Q100.0 40.0 87.8 40.0 L-87.85 40.0 Q-100.0 40.0 -100.0 25.45 L-100.0 -25.5 Q-100.0 -40.0 -87.85 -40.0 L87.8 -40.0 Q100.0 -40.0 100.0 -25.5 L100.0 25.45" fill="#ffffff" fill-rule="evenodd" stroke="none"/>
    <path d="M100.0 -25.5 Q100.0 -40.0 87.8 -40.0 L-87.85 -40.0 Q-100.0 -40.0 -100.0 -25.5 L-100.0 25.45 Q-100.0 40.0 -87.85 40.0 L87.8 40.0 Q100.0 40.0 100.0 25.45 L100.0 -25.5 Z" fill="none" stroke="#000000" stroke-linecap="round" stroke-linejoin="bevel" stroke-width="2.0"/>
  </g>
</svg>
