<?xml version="1.0" encoding="UTF-8" standalone="no"?>
<svg xmlns:xlink="http://www.w3.org/1999/xlink" height="27.8px" width="211.9px" xmlns="http://www.w3.org/2000/svg">
  <g transform="matrix(1.0, 0.0, 0.0, 1.0, 6.3, 1.5)">
    <path d="M135.5 24.8 L94.4 24.8 113.45 0.0 154.55 0.0 135.5 24.8" fill="#ec0202" fill-rule="evenodd" stroke="none"/>
    <path d="M85.85 24.8 L44.8 24.8 63.8 0.0 104.9 0.0 85.85 24.8" fill="#ffff00" fill-rule="evenodd" stroke="none"/>
    <path d="M23.1 0.05 L55.35 0.0 36.3 24.8 -4.8 24.8 14.25 0.0 23.1 0.0 23.1 0.05" fill="#02e302" fill-rule="evenodd" stroke="none"/>
    <path d="M204.1 0.0 L185.05 24.8 143.95 24.8 163.0 0.0 204.1 0.0" fill="#81ccfe" fill-rule="evenodd" stroke="none"/>
    <path d="M204.1 0.0 L185.05 24.8 143.95 24.8 163.0 0.0 204.1 0.0 M135.5 24.8 L94.4 24.8 113.45 0.0 154.55 0.0 135.5 24.8 M85.85 24.8 L44.8 24.8 63.8 0.0 104.9 0.0 85.85 24.8 M23.1 0.0 L14.25 0.0 -4.8 24.8 36.3 24.8 55.35 0.0 23.1 0.05" fill="none" stroke="#000000" stroke-linecap="round" stroke-linejoin="round" stroke-width="3.0"/>
  </g>
</svg>
