<?xml version="1.0" encoding="UTF-8" standalone="no"?>
<svg xmlns:xlink="http://www.w3.org/1999/xlink" height="438.2px" width="752.0px" xmlns="http://www.w3.org/2000/svg">
  <g transform="matrix(1.0, 0.0, 0.0, 1.0, 0.65, -119.0)">
    <path d="M748.35 120.0 L749.15 120.0 749.15 556.2 748.35 556.2 0.35 556.05 0.35 120.0 748.35 120.0 748.35 556.2 748.35 120.0" fill="#66ccff" fill-rule="evenodd" stroke="none"/>
    <path d="M749.15 120.0 L748.35 120.0 748.35 556.2 749.15 556.2 750.35 556.2 M749.15 120.0 L750.35 120.0 M748.35 120.0 L0.35 120.0 0.35 556.05 748.35 556.2" fill="none" stroke="#000000" stroke-linecap="round" stroke-linejoin="round" stroke-width="2.0"/>
    <path d="M749.15 130.0 L749.15 120.0 750.0 120.0 750.0 130.0 750.0 546.2 750.0 556.2 749.15 556.2 749.15 546.2 749.15 130.0 M0.1 120.0 L0.35 120.0 0.35 130.0 0.35 157.3 0.1 157.3 0.1 130.0 0.1 120.0" fill="#00ccff" fill-rule="evenodd" stroke="none"/>
    <path d="M124.6 175.0 L124.6 210.5 10.1 210.5 10.1 175.0 124.6 175.0 M119.3 181.4 L16.4 181.4 16.4 203.9 119.3 203.9 119.3 181.4 M124.6 258.7 L10.1 258.7 10.1 222.65 124.6 222.65 124.6 258.7 M10.1 325.25 L124.6 325.25 124.6 391.75 10.1 391.75 10.1 325.25" fill="#33cc33" fill-rule="evenodd" stroke="none"/>
    <path d="M124.6 175.0 L124.6 210.5 10.1 210.5 10.1 175.0 124.6 175.0 M124.6 258.7 L10.1 258.7 10.1 222.65 124.6 222.65 124.6 258.7 M10.1 325.25 L124.6 325.25 124.6 391.75 10.1 391.75 10.1 325.25" fill="none" stroke="#000000" stroke-linecap="round" stroke-linejoin="round" stroke-width="2.0"/>
  </g>
</svg>
