<?xml version="1.0" encoding="UTF-8" standalone="no"?>
<svg xmlns:xlink="http://www.w3.org/1999/xlink" height="14.55px" width="103.8px" xmlns="http://www.w3.org/2000/svg">
  <g transform="matrix(1.0, 0.0, 0.0, 1.0, 0.75, 0.75)">
    <path d="M84.45 13.05 L71.4 13.05 71.4 0.0 84.45 0.0 84.45 13.05 M102.3 13.05 L89.25 13.05 89.25 0.0 102.3 0.0 102.3 13.05 M48.8 13.05 L35.7 13.05 35.7 0.0 48.8 0.0 48.8 13.05 M66.65 13.05 L53.55 13.05 53.55 0.0 66.65 0.0 66.65 13.05 M30.95 13.05 L17.85 13.05 17.85 0.0 30.95 0.0 30.95 13.05 M0.0 0.0 L13.1 0.0 13.1 13.05 0.0 13.05 0.0 0.0" fill="#cccccc" fill-rule="evenodd" stroke="none"/>
    <path d="M84.45 13.05 L71.4 13.05 71.4 0.0 84.45 0.0 84.45 13.05 M102.3 13.05 L89.25 13.05 89.25 0.0 102.3 0.0 102.3 13.05 M48.8 13.05 L35.7 13.05 35.7 0.0 48.8 0.0 48.8 13.05 M66.65 13.05 L53.55 13.05 53.55 0.0 66.65 0.0 66.65 13.05 M30.95 13.05 L17.85 13.05 17.85 0.0 30.95 0.0 30.95 13.05 M0.0 0.0 L13.1 0.0 13.1 13.05 0.0 13.05 0.0 0.0" fill="none" stroke="#000000" stroke-linecap="round" stroke-linejoin="round" stroke-width="1.5"/>
  </g>
</svg>
