<?xml version="1.0" encoding="UTF-8" standalone="no"?>
<svg xmlns:xlink="http://www.w3.org/1999/xlink" height="147.8px" width="116.5px" xmlns="http://www.w3.org/2000/svg">
  <g transform="matrix(1.0, 0.0, 0.0, 1.0, 1.0, 74.0)">
    <path d="M110.6 -42.9 L3.15 -42.9 110.6 -42.9 M110.6 -21.3 L3.15 -21.3 110.6 -21.3 M0.0 0.15 L0.0 -73.0 114.5 -73.0 114.5 0.15 114.5 0.3 0.0 0.3 0.0 0.15 114.5 0.15 0.0 0.15 M114.5 73.8 L0.0 73.8 0.0 73.3 114.5 73.3 114.5 73.8" fill="#ffffff" fill-rule="evenodd" stroke="none"/>
    <path d="M3.15 -21.3 L110.6 -21.3 M3.15 -42.9 L110.6 -42.9" fill="none" stroke="#000000" stroke-linecap="round" stroke-linejoin="round" stroke-width="1.0"/>
    <path d="M0.0 0.15 L0.0 -73.0 114.5 -73.0 114.5 0.15 M0.0 0.15 L114.5 0.15" fill="none" stroke="#000000" stroke-linecap="round" stroke-linejoin="round" stroke-width="2.0"/>
  </g>
</svg>
