<?xml version="1.0" encoding="UTF-8" standalone="no"?>
<svg xmlns:xlink="http://www.w3.org/1999/xlink" height="37.0px" width="55.0px" xmlns="http://www.w3.org/2000/svg">
  <g transform="matrix(1.0, 0.0, 0.0, 1.0, 1.0, 1.0)">
    <path d="M53.0 35.0 L0.0 35.0 0.0 0.0 53.0 0.0 53.0 35.0 M39.05 18.15 L39.65 16.4 40.0 15.5 40.0 14.85 39.9 14.15 39.5 13.25 39.0 12.35 37.8 10.5 36.65 8.65 36.15 7.7 35.7 6.7 35.45 6.2 35.15 5.65 34.65 5.25 34.15 5.05 33.5 4.9 31.25 5.0 30.75 4.55 29.1 3.2 28.65 2.95 28.15 2.8 27.15 2.65 26.4 2.65 25.65 2.75 23.85 3.3 22.05 3.85 20.9 4.2 19.75 4.6 19.0 4.95 18.25 5.4 17.8 5.9 17.35 6.45 17.1 7.0 16.8 7.6 16.3 8.75 15.85 9.5 15.3 10.25 14.4 11.5 13.5 12.75 13.25 13.2 13.1 13.75 13.1 14.5 13.15 15.25 13.65 16.9 14.0 17.9 14.05 17.75 14.05 17.9 14.25 20.8 Q14.5 22.5 14.95 23.6 15.25 24.45 16.2 25.5 L17.8 27.15 20.0 29.35 Q21.4 30.7 22.4 31.3 23.25 31.8 24.4 32.1 L26.55 32.4 28.7 32.1 30.7 31.3 33.15 29.35 35.35 27.15 36.95 25.5 38.2 23.6 38.9 20.8 39.05 18.15" fill="#cccccc" fill-rule="evenodd" stroke="none"/>
    <path d="M31.75 5.45 L31.25 5.0 31.75 5.45 M14.0 17.9 L13.65 16.9 13.15 15.25 13.1 14.5 13.1 13.75 13.25 13.2 13.5 12.75 14.4 11.5 15.3 10.25 15.85 9.5 16.3 8.75 16.8 7.6 17.1 7.0 17.35 6.45 17.8 5.9 18.25 5.4 19.0 4.95 19.75 4.6 20.9 4.2 22.05 3.85 23.85 3.3 25.65 2.75 26.4 2.65 27.15 2.65 28.15 2.8 28.65 2.95 29.1 3.2 30.75 4.55 31.25 5.0 33.5 4.9 34.15 5.05 34.65 5.25 35.15 5.65 35.45 6.2 35.7 6.7 36.15 7.7 36.65 8.65 37.8 10.5 39.0 12.35 39.5 13.25 39.9 14.15 40.0 14.85 40.0 15.5 39.65 16.4 39.05 18.15 39.0 18.3 38.95 17.9 38.65 17.9 38.6 17.7 39.05 17.9 Q38.95 17.2 38.3 16.5 L37.25 15.4 36.7 14.55 36.2 13.7 35.6 11.9 Q35.2 10.7 34.8 10.2 L33.3 9.05 Q32.35 8.55 31.55 8.45 L29.25 8.7 26.55 9.15 23.85 8.7 21.55 8.45 Q20.75 8.55 19.8 9.05 L18.35 10.2 Q17.9 10.7 17.5 11.9 L16.9 13.7 16.4 14.55 15.85 15.4 14.8 16.5 Q14.15 17.2 14.05 17.9 L14.4 17.8 14.4 17.9 14.05 17.9 14.05 17.75 14.0 17.9" fill="#666666" fill-rule="evenodd" stroke="none"/>
    <path d="M39.05 18.15 L38.9 20.8 38.2 23.6 36.95 25.5 35.35 27.15 33.15 29.35 30.7 31.3 28.7 32.1 26.55 32.4 24.4 32.1 Q23.25 31.8 22.4 31.3 21.4 30.7 20.0 29.35 L17.8 27.15 16.2 25.5 Q15.25 24.45 14.95 23.6 14.5 22.5 14.25 20.8 L14.05 17.9 Q14.15 17.2 14.8 16.5 L15.85 15.4 16.4 14.55 16.9 13.7 17.5 11.9 Q17.9 10.7 18.35 10.2 L19.8 9.05 Q20.75 8.55 21.55 8.45 L23.85 8.7 26.55 9.15 29.25 8.7 31.55 8.45 Q32.35 8.55 33.3 9.05 L34.8 10.2 Q35.2 10.7 35.6 11.9 L36.2 13.7 36.7 14.55 37.25 15.4 38.3 16.5 Q38.95 17.2 39.05 17.9 L38.6 17.7 38.65 17.9 38.95 17.9 39.0 18.3 39.05 18.15 M14.05 17.9 L14.4 17.9 14.4 17.8 14.05 17.9" fill="#ffffff" fill-rule="evenodd" stroke="none"/>
    <path d="M53.0 35.0 L0.0 35.0 0.0 0.0 53.0 0.0 53.0 35.0 M31.25 5.0 L31.75 5.45 M14.0 17.9 L13.65 16.9 13.15 15.25 13.1 14.5 13.1 13.75 13.25 13.2 13.5 12.75 14.4 11.5 15.3 10.25 15.85 9.5 16.3 8.75 16.8 7.6 17.1 7.0 17.35 6.45 17.8 5.9 18.25 5.4 19.0 4.95 19.75 4.6 20.9 4.2 22.05 3.85 23.85 3.3 25.65 2.75 26.4 2.65 27.15 2.65 28.15 2.8 28.65 2.95 29.1 3.2 30.75 4.55 31.25 5.0 33.5 4.9 34.15 5.05 34.65 5.25 35.15 5.65 35.45 6.2 35.7 6.7 36.15 7.7 36.65 8.65 37.8 10.5 39.0 12.35 39.5 13.25 39.9 14.15 40.0 14.85 40.0 15.5 39.65 16.4 39.05 18.15 38.9 20.8 38.2 23.6 36.95 25.5 35.35 27.15 33.15 29.35 30.7 31.3 28.7 32.1 26.55 32.4 24.4 32.1 Q23.25 31.8 22.4 31.3 21.4 30.7 20.0 29.35 L17.8 27.15 16.2 25.5 Q15.25 24.45 14.95 23.6 14.5 22.5 14.25 20.8 L14.05 17.9 14.05 17.75 M14.05 17.9 Q14.15 17.2 14.8 16.5 L15.85 15.4 16.4 14.55 16.9 13.7 17.5 11.9 Q17.9 10.7 18.35 10.2 L19.8 9.05 Q20.75 8.55 21.55 8.45 L23.85 8.7 26.55 9.15 29.25 8.7 31.55 8.45 Q32.35 8.55 33.3 9.05 L34.8 10.2 Q35.2 10.7 35.6 11.9 L36.2 13.7 36.7 14.55 37.25 15.4 38.3 16.5 Q38.95 17.2 39.05 17.9 M39.0 18.3 L39.05 18.15" fill="none" stroke="#000000" stroke-linecap="round" stroke-linejoin="round" stroke-width="2.0"/>
  </g>
</svg>
