<?xml version="1.0" encoding="UTF-8" standalone="no"?>
<svg xmlns:xlink="http://www.w3.org/1999/xlink" height="122.05px" width="110.75px" xmlns="http://www.w3.org/2000/svg">
  <g transform="matrix(1.0, 0.0, 0.0, 1.0, 1.5, 1.5)">
    <path d="M3.9 60.95 L53.9 60.95 103.9 60.95 Q104.05 66.65 103.25 72.55 102.35 79.25 100.5 83.75 99.2 87.0 95.45 91.3 L89.05 97.95 80.25 106.85 Q74.7 112.15 70.55 114.65 67.3 116.6 62.5 117.85 57.85 119.05 53.95 119.05 50.0 119.05 45.35 117.85 40.6 116.6 37.35 114.65 33.25 112.15 27.7 106.85 L18.9 97.95 12.5 91.35 Q8.75 87.1 7.45 83.85 5.6 79.3 4.65 72.6 3.8 66.6 3.9 60.95" fill="#ffffff" fill-rule="evenodd" stroke="none"/>
    <path d="M103.9 60.95 Q104.05 66.65 103.25 72.55 102.35 79.25 100.5 83.75 99.2 87.0 95.45 91.3 L89.05 97.95 80.25 106.85 Q74.7 112.15 70.55 114.65 67.3 116.6 62.5 117.85 57.85 119.05 53.95 119.05 50.0 119.05 45.35 117.85 40.6 116.6 37.35 114.65 33.25 112.15 27.7 106.85 L18.9 97.95 12.5 91.35 Q8.75 87.1 7.45 83.85 5.6 79.3 4.65 72.6 3.8 66.6 3.9 60.95" fill="none" stroke="#000000" stroke-linecap="round" stroke-linejoin="round" stroke-width="3.0"/>
    <path d="M53.9 11.0 Q64.55 11.0 74.15 15.25 82.7 19.05 89.3 25.6 95.85 32.2 99.65 40.75 103.9 50.35 103.9 61.0 L53.9 61.0 3.9 61.0 Q3.9 50.35 8.15 40.75 11.95 32.2 18.5 25.6 25.1 19.05 33.65 15.25 43.25 11.0 53.9 11.0" fill="#666666" fill-rule="evenodd" stroke="none"/>
    <path d="M3.9 61.0 Q3.9 50.35 8.15 40.75 11.95 32.2 18.5 25.6 25.1 19.05 33.65 15.25 43.25 11.0 53.9 11.0 64.55 11.0 74.15 15.25 82.7 19.05 89.3 25.6 95.85 32.2 99.65 40.75 103.9 50.35 103.9 61.0" fill="none" stroke="#000000" stroke-linecap="round" stroke-linejoin="round" stroke-width="3.0"/>
    <path d="M84.3 9.5 L86.25 10.4 87.3 11.15 88.25 12.05 89.4 14.1 90.45 16.25 92.3 20.1 94.25 23.95 98.9 31.35 103.6 38.8 105.6 42.3 107.2 46.0 107.7 48.7 107.6 51.45 Q107.35 52.75 106.35 54.95 L104.8 58.4 103.7 62.55 102.8 57.95 Q101.7 52.95 100.75 50.9 L95.1 39.35 Q91.3 32.45 87.7 29.1 85.05 26.6 78.35 24.35 70.05 21.55 68.3 20.65 66.0 19.4 64.8 18.55 62.85 17.05 62.35 15.6 61.95 14.2 63.1 10.95 L64.35 7.95 67.4 8.5 72.25 9.3 81.65 9.0 84.3 9.5" fill="#666666" fill-rule="evenodd" stroke="none"/>
    <path d="M62.35 15.6 Q61.95 14.2 63.1 10.95 L64.35 7.95 67.4 8.5 72.25 9.3 76.5 9.4 81.65 9.0 84.3 9.5 86.25 10.4 87.3 11.15 88.25 12.05 89.4 14.1 90.45 16.25 92.3 20.1 94.25 23.95 98.9 31.35 103.6 38.8 105.6 42.3 107.2 46.0 107.7 48.7 107.6 51.45 Q107.35 52.75 106.35 54.95 L104.8 58.4 103.7 62.55" fill="none" stroke="#000000" stroke-linecap="round" stroke-linejoin="round" stroke-width="3.0"/>
    <path d="M53.2 0.05 L56.3 0.0 60.25 0.55 62.2 1.2 64.0 2.15 70.65 7.6 74.75 11.15 73.8 13.5 Q72.7 16.05 71.8 16.85 L69.4 17.6 67.65 17.65 55.35 16.55 Q40.9 16.75 30.1 23.1 19.05 29.55 12.5 40.85 L6.15 53.75 3.75 60.95 2.3 56.9 Q0.8 52.45 0.35 50.4 0.05 49.1 0.0 47.35 0.0 45.75 0.15 44.3 L0.7 42.25 1.6 40.35 Q2.75 38.55 5.25 35.35 L8.95 30.4 11.0 27.45 12.9 24.45 14.95 19.7 16.0 17.4 17.15 15.2 18.8 12.95 20.7 11.0 Q21.85 10.15 23.65 9.2 L26.75 7.75 31.3 6.25 35.95 4.85 43.05 2.5 Q47.55 1.0 50.2 0.4 L53.2 0.05" fill="#666666" fill-rule="evenodd" stroke="none"/>
    <path d="M3.75 60.95 L2.3 56.9 Q0.8 52.45 0.35 50.4 0.05 49.1 0.0 47.35 0.0 45.75 0.15 44.3 L0.7 42.25 1.6 40.35 Q2.75 38.55 5.25 35.35 L8.95 30.4 11.0 27.45 12.9 24.45 14.95 19.7 16.0 17.4 17.15 15.2 18.8 12.95 20.7 11.0 Q21.85 10.15 23.65 9.2 L26.75 7.75 31.3 6.25 35.95 4.85 43.05 2.5 Q47.55 1.0 50.2 0.4 L53.2 0.05 56.3 0.0 60.25 0.55 62.2 1.2 64.0 2.15 70.65 7.6 74.75 11.15" fill="none" stroke="#000000" stroke-linecap="round" stroke-linejoin="round" stroke-width="3.0"/>
    <path d="M53.9 26.0 Q57.7 26.0 64.65 24.25 70.85 22.7 73.95 23.15 77.15 23.55 80.9 25.65 84.55 27.7 86.8 30.25 88.55 32.2 90.05 36.95 L92.5 44.2 94.5 47.65 96.75 51.0 100.9 55.35 Q103.55 58.15 103.9 61.0 L102.1 60.2 102.3 62.2 5.35 62.2 5.35 60.6 3.9 61.0 Q4.25 58.15 6.9 55.35 L11.05 51.0 13.3 47.65 15.3 44.2 17.75 36.95 Q19.25 32.2 21.0 30.25 23.25 27.7 26.9 25.65 30.65 23.55 33.85 23.15 36.95 22.7 43.15 24.25 50.1 26.0 53.9 26.0" fill="#ffffff" fill-rule="evenodd" stroke="none"/>
    <path d="M3.9 61.0 Q4.25 58.15 6.9 55.35 L11.05 51.0 13.3 47.65 15.3 44.2 17.75 36.95 Q19.25 32.2 21.0 30.25 23.25 27.7 26.9 25.65 30.65 23.55 33.85 23.15 36.95 22.7 43.15 24.25 50.1 26.0 53.9 26.0 57.7 26.0 64.65 24.25 70.85 22.7 73.95 23.15 77.15 23.55 80.9 25.65 84.55 27.7 86.8 30.25 88.55 32.2 90.05 36.95 L92.5 44.2 94.5 47.65 96.75 51.0 100.9 55.35 Q103.55 58.15 103.9 61.0" fill="none" stroke="#000000" stroke-linecap="round" stroke-linejoin="round" stroke-width="3.0"/>
  </g>
</svg>
