<?xml version="1.0" encoding="UTF-8" standalone="no"?>
<svg xmlns:xlink="http://www.w3.org/1999/xlink" height="37.0px" width="55.0px" xmlns="http://www.w3.org/2000/svg">
  <g transform="matrix(1.0, 0.0, 0.0, 1.0, 1.0, 1.0)">
    <path d="M53.0 35.0 L0.0 35.0 0.0 0.0 53.0 0.0 53.0 35.0 M37.95 11.45 Q37.0 9.3 35.35 7.65 33.7 6.0 31.55 5.05 29.15 4.0 26.5 4.0 23.85 4.0 21.45 5.05 19.3 6.0 17.65 7.65 16.0 9.3 15.05 11.45 14.0 13.85 14.0 16.5 L14.2 19.4 Q14.45 21.1 14.9 22.2 15.2 23.05 16.15 24.1 L17.75 25.75 19.45 27.45 19.95 27.95 22.35 29.9 Q23.2 30.4 24.35 30.7 L26.5 31.0 28.65 30.7 Q29.85 30.4 30.65 29.9 L33.1 27.95 33.6 27.45 35.3 25.75 36.9 24.1 38.15 22.2 38.85 19.4 39.0 16.5 Q39.0 13.85 37.95 11.45" fill="#cccccc" fill-rule="evenodd" stroke="none"/>
    <path d="M37.95 11.45 Q39.0 13.85 39.0 16.5 L38.85 19.4 38.15 22.2 36.9 24.1 35.3 25.75 33.6 27.45 33.1 27.95 30.65 29.9 Q29.85 30.4 28.65 30.7 L26.5 31.0 24.35 30.7 Q23.2 30.4 22.35 29.9 L19.95 27.95 19.45 27.45 17.75 25.75 16.15 24.1 Q15.2 23.05 14.9 22.2 14.45 21.1 14.2 19.4 L14.0 16.5 Q14.0 13.85 15.05 11.45 16.0 9.3 17.65 7.65 19.3 6.0 21.45 5.05 23.85 4.0 26.5 4.0 29.15 4.0 31.55 5.05 33.7 6.0 35.35 7.65 37.0 9.3 37.95 11.45 M17.45 15.85 L17.5 15.5 17.65 15.05 17.8 14.75 17.85 14.65 18.45 13.9 18.55 13.8 19.2 13.3 19.45 13.2 20.1 12.95 20.5 12.85 20.55 12.85 20.6 12.8 21.15 12.75 21.35 12.8 21.8 12.85 21.9 12.85 22.2 12.95 22.85 13.2 23.05 13.3 23.25 13.4 23.5 13.6 23.8 13.9 24.05 14.1 24.1 14.2 24.3 14.45 24.35 14.5 24.4 14.65 24.8 15.5 24.95 16.55 24.8 17.6 24.4 18.5 23.8 19.25 23.05 19.85 22.2 20.2 21.15 20.35 20.1 20.2 19.2 19.85 18.45 19.25 17.85 18.5 17.5 17.6 17.35 16.55 17.45 15.85 17.5 15.55 17.8 14.75 17.5 15.55 17.45 15.85 17.35 16.55 17.5 17.6 17.85 18.5 18.45 19.25 19.2 19.85 20.1 20.2 21.15 20.35 22.2 20.2 23.05 19.85 23.8 19.25 24.4 18.5 24.8 17.6 24.95 16.55 24.8 15.5 24.4 14.65 24.35 14.5 24.3 14.45 24.1 14.2 24.05 14.1 23.8 13.9 23.5 13.6 23.25 13.4 23.05 13.3 22.85 13.2 22.2 12.9 21.9 12.85 22.2 12.9 22.85 13.2 22.2 12.95 21.9 12.85 21.8 12.85 21.35 12.8 21.15 12.75 20.6 12.8 20.55 12.85 20.5 12.85 20.1 12.95 19.45 13.2 19.2 13.3 18.55 13.8 18.45 13.9 17.85 14.65 17.8 14.75 17.65 15.05 17.5 15.5 17.45 15.85 M20.5 12.85 L20.1 12.9 Q19.75 13.0 19.45 13.2 19.75 13.0 20.1 12.9 L20.5 12.85 M32.55 12.85 L32.9 12.95 33.4 13.15 32.9 12.9 32.55 12.85 32.5 12.85 32.4 12.8 31.9 12.75 31.85 12.75 31.3 12.8 31.25 12.85 31.2 12.85 30.8 12.9 Q30.45 13.0 30.15 13.2 30.45 13.0 30.8 12.9 L31.2 12.85 31.25 12.85 31.3 12.8 31.85 12.75 31.9 12.75 32.4 12.8 32.5 12.85 32.55 12.85 32.9 12.9 33.4 13.15 33.45 13.15 33.5 13.2 33.8 13.3 34.15 13.55 34.3 13.7 34.45 13.8 34.55 13.9 34.75 14.1 34.8 14.2 35.0 14.45 35.05 14.5 35.1 14.6 35.15 14.65 35.15 14.75 35.2 14.8 35.4 15.2 35.5 15.5 35.55 15.8 35.6 16.05 35.65 16.55 35.5 17.6 35.1 18.5 34.55 19.25 33.75 19.85 32.9 20.2 31.85 20.35 30.8 20.2 29.95 19.85 29.2 19.25 28.6 18.5 28.2 17.6 28.05 16.55 28.15 15.75 28.2 15.5 28.6 14.65 29.2 13.9 29.35 13.7 29.95 13.3 30.15 13.2 30.8 12.95 31.2 12.85 30.8 12.95 30.15 13.2 29.95 13.3 29.35 13.7 29.2 13.9 28.6 14.65 28.2 15.5 28.15 15.75 28.05 16.55 28.2 17.6 28.6 18.5 29.2 19.25 29.95 19.85 30.8 20.2 31.85 20.35 32.9 20.2 33.75 19.85 34.55 19.25 35.1 18.5 35.5 17.6 35.65 16.55 35.6 16.05 35.55 15.8 35.5 15.5 35.4 15.2 35.2 14.8 35.15 14.75 35.15 14.65 35.1 14.6 35.05 14.5 35.0 14.45 34.8 14.2 34.75 14.1 34.55 13.9 34.45 13.8 34.3 13.7 34.15 13.55 33.8 13.3 33.5 13.2 33.45 13.15 33.4 13.15 32.9 12.95 32.55 12.85 M35.1 14.6 L35.1 14.65 35.15 14.75 35.1 14.65 35.1 14.6 M33.5 13.2 L33.75 13.3 34.15 13.55 33.75 13.3 33.5 13.2 M35.4 15.2 L35.5 15.55 35.55 15.8 35.5 15.55 35.4 15.2" fill="#ffffff" fill-rule="evenodd" stroke="none"/>
    <path d="M53.0 35.0 L0.0 35.0 0.0 0.0 53.0 0.0 53.0 35.0 M37.95 11.45 Q39.0 13.85 39.0 16.5 L38.85 19.4 38.15 22.2 36.9 24.1 35.3 25.75 33.6 27.45 33.1 27.95 30.65 29.9 Q29.85 30.4 28.65 30.7 L26.5 31.0 24.35 30.7 Q23.2 30.4 22.35 29.9 L19.95 27.95 19.45 27.45 17.75 25.75 16.15 24.1 Q15.2 23.05 14.9 22.2 14.45 21.1 14.2 19.4 L14.0 16.5 Q14.0 13.85 15.05 11.45 16.0 9.3 17.65 7.65 19.3 6.0 21.45 5.05 23.85 4.0 26.5 4.0 29.15 4.0 31.55 5.05 33.7 6.0 35.35 7.65 37.0 9.3 37.95 11.45" fill="none" stroke="#000000" stroke-linecap="round" stroke-linejoin="round" stroke-width="2.0"/>
    <path d="M30.15 13.2 Q30.45 13.0 30.8 12.9 L31.2 12.85 31.25 12.85 31.3 12.8 31.85 12.75 31.9 12.75 32.4 12.8 32.5 12.85 32.55 12.85 32.9 12.9 33.4 13.15 33.45 13.15 33.5 13.2 33.8 13.3 34.15 13.55 34.3 13.7 34.45 13.8 34.55 13.9 34.75 14.1 34.8 14.2 35.0 14.45 35.05 14.5 35.1 14.6 35.15 14.65 35.15 14.75 35.2 14.8 35.4 15.2 35.5 15.5 35.55 15.8 35.6 16.05 35.65 16.55 35.5 17.6 35.1 18.5 34.55 19.25 33.75 19.85 32.9 20.2 31.85 20.35 30.8 20.2 29.95 19.85 29.2 19.25 28.6 18.5 28.2 17.6 28.05 16.55 28.15 15.75 28.2 15.5 28.6 14.65 29.2 13.9 29.35 13.7 29.95 13.3 30.15 13.2 30.8 12.95 31.2 12.85 M22.85 13.2 L22.2 12.95 21.9 12.85 21.8 12.85 21.35 12.8 21.15 12.75 20.6 12.8 20.55 12.85 20.5 12.85 20.1 12.95 19.45 13.2 19.2 13.3 18.55 13.8 18.45 13.9 17.85 14.65 17.8 14.75 17.5 15.55 17.45 15.85 17.35 16.55 17.5 17.6 17.85 18.5 18.45 19.25 19.2 19.85 20.1 20.2 21.15 20.35 22.2 20.2 23.05 19.85 23.8 19.25 24.4 18.5 24.8 17.6 24.95 16.55 24.8 15.5 24.4 14.65 24.35 14.5 24.3 14.45 24.1 14.2 24.05 14.1 23.8 13.9 23.5 13.6 23.25 13.4 23.05 13.3 22.85 13.2 22.2 12.9 21.9 12.85 M35.55 15.8 L35.5 15.55 35.4 15.2 M34.15 13.55 L33.75 13.3 33.5 13.2 M35.15 14.75 L35.1 14.65 35.1 14.6 M33.4 13.15 L32.9 12.95 32.55 12.85 M19.45 13.2 Q19.75 13.0 20.1 12.9 L20.5 12.85 M17.8 14.75 L17.65 15.05 17.5 15.5 17.45 15.85" fill="none" stroke="#000000" stroke-linecap="round" stroke-linejoin="round" stroke-width="1.0"/>
  </g>
</svg>
