<?xml version="1.0" encoding="UTF-8" standalone="no"?>
<svg xmlns:xlink="http://www.w3.org/1999/xlink" height="24.1px" width="29.85px" xmlns="http://www.w3.org/2000/svg">
  <g transform="matrix(1.0, 0.0, 0.0, 1.0, 13.0, 7.3)">
    <path d="M6.3 5.0 Q6.3 5.8 5.8 6.35 5.3 6.85 4.45 6.85 3.75 6.85 3.2 6.35 2.65 5.8 2.65 5.0 2.65 4.25 3.2 3.75 3.75 3.2 4.45 3.2 5.3 3.2 5.8 3.75 6.3 4.25 6.3 5.0" fill="#000000" fill-rule="evenodd" stroke="none"/>
    <path d="M6.3 5.0 Q6.3 4.25 5.8 3.75 5.3 3.2 4.45 3.2 3.75 3.2 3.2 3.75 2.65 4.25 2.65 5.0 2.65 5.8 3.2 6.35 3.75 6.85 4.45 6.85 5.3 6.85 5.8 6.35 6.3 5.8 6.3 5.0 M9.0 5.0 Q9.0 6.9 7.65 8.2 6.35 9.5 4.45 9.5 2.6 9.5 1.25 8.2 L0.25 6.75 Q-0.1 5.95 -0.1 5.0 -0.1 3.1 1.25 1.8 2.6 0.45 4.45 0.45 6.35 0.45 7.65 1.8 9.0 3.1 9.0 5.0" fill="#999999" fill-rule="evenodd" stroke="none"/>
    <path d="M-3.5 -3.25 Q-0.15 -6.45 4.4 -6.45 9.2 -6.45 12.5 -3.15 14.65 -1.05 15.4 1.7 L14.35 -0.6 12.55 -2.95 10.25 -4.75 Q8.95 -5.5 7.65 -5.8 L4.45 -6.3 1.2 -5.8 Q-0.1 -5.5 -1.4 -4.75 L-3.7 -2.95 -5.5 -0.6 -6.6 2.1 -6.65 2.35 -6.6 2.1 -5.5 -0.6 -3.7 -2.95 -1.4 -4.75 Q-0.1 -5.5 1.2 -5.8 L4.45 -6.3 7.65 -5.8 Q8.95 -5.5 10.25 -4.75 L12.55 -2.95 14.35 -0.6 15.4 1.7 15.45 1.95 15.5 2.15 15.8 4.9 15.8 5.15 Q15.7 9.75 12.5 13.0 9.2 16.3 4.4 16.3 -0.25 16.3 -3.65 13.0 -6.95 9.7 -6.95 4.9 L-6.75 2.65 -6.7 2.45 -6.65 2.35 Q-6.0 -0.75 -3.65 -3.15 L-3.5 -3.25 M9.0 5.0 Q9.0 3.1 7.65 1.8 6.35 0.45 4.45 0.45 2.6 0.45 1.25 1.8 -0.1 3.1 -0.1 5.0 -0.1 5.95 0.25 6.75 L1.25 8.2 Q2.6 9.5 4.45 9.5 6.35 9.5 7.65 8.2 9.0 6.9 9.0 5.0 M0.35 0.85 L0.55 0.75 0.5 0.7 0.35 0.85" fill="#ffffff" fill-rule="evenodd" stroke="none"/>
    <path d="M-3.5 -3.25 Q-0.15 -6.45 4.4 -6.45 9.2 -6.45 12.5 -3.15 14.65 -1.05 15.4 1.7 L15.5 2.15 15.8 4.9 15.8 5.15 Q15.7 9.75 12.5 13.0 9.2 16.3 4.4 16.3 -0.25 16.3 -3.65 13.0 -6.95 9.7 -6.95 4.9 L-6.75 2.65 M-3.5 -3.25 L-3.65 -3.15 Q-6.0 -0.75 -6.65 2.35 M9.0 5.0 Q9.0 6.9 7.65 8.2 6.35 9.5 4.45 9.5 2.6 9.5 1.25 8.2 L0.25 6.75 Q-0.1 5.95 -0.1 5.0 -0.1 3.1 1.25 1.8 2.6 0.45 4.45 0.45 6.35 0.45 7.65 1.8 9.0 3.1 9.0 5.0" fill="none" stroke="#000000" stroke-linecap="round" stroke-linejoin="round" stroke-width="1.0"/>
    <path d="M-6.8 -6.3 L-3.5 -3.25 M15.5 2.15 Q15.95 3.6 15.8 5.15 M-6.75 2.65 L-7.05 5.15 -10.15 4.8 -12.0 4.55 M-6.65 2.35 L-6.6 2.1 -5.5 -0.6 -3.7 -2.95 -1.4 -4.75 Q-0.1 -5.5 1.2 -5.8 L4.45 -6.3 7.65 -5.8 Q8.95 -5.5 10.25 -4.75 L12.55 -2.95 14.35 -0.6 15.4 1.7 15.45 1.95 15.5 2.15 M-6.65 2.35 L-6.7 2.45 -6.75 2.65 M-10.5 -1.0 L-6.75 0.3" fill="none" stroke="#000000" stroke-linecap="round" stroke-linejoin="round" stroke-width="2.0"/>
  </g>
</svg>
