<?xml version="1.0" encoding="UTF-8" standalone="no"?>
<svg xmlns:xlink="http://www.w3.org/1999/xlink" height="111.05px" width="136.0px" xmlns="http://www.w3.org/2000/svg">
  <g transform="matrix(1.0, 0.0, 0.0, 1.0, 4.5, 1.5)">
    <path d="M13.6 49.95 L63.6 49.95 113.6 49.95 Q113.75 55.65 112.95 61.55 112.05 68.25 110.2 72.75 108.9 76.0 105.15 80.3 L98.75 86.95 89.95 95.85 Q84.4 101.15 80.25 103.65 77.0 105.6 72.2 106.85 67.55 108.05 63.65 108.05 59.7 108.05 55.05 106.85 50.3 105.6 47.05 103.65 42.95 101.15 37.4 95.85 L28.6 86.95 22.2 80.35 Q18.45 76.1 17.15 72.85 15.3 68.3 14.35 61.6 13.5 55.6 13.6 49.95" fill="#ffffff" fill-rule="evenodd" stroke="none"/>
    <path d="M113.6 49.95 Q113.75 55.65 112.95 61.55 112.05 68.25 110.2 72.75 108.9 76.0 105.15 80.3 L98.75 86.95 89.95 95.85 Q84.4 101.15 80.25 103.65 77.0 105.6 72.2 106.85 67.55 108.05 63.65 108.05 59.7 108.05 55.05 106.85 50.3 105.6 47.05 103.65 42.95 101.15 37.4 95.85 L28.6 86.95 22.2 80.35 Q18.45 76.1 17.15 72.85 15.3 68.3 14.35 61.6 13.5 55.6 13.6 49.95" fill="none" stroke="#000000" stroke-linecap="round" stroke-linejoin="round" stroke-width="3.0"/>
    <path d="M63.6 0.0 Q74.25 0.0 83.85 4.25 92.4 8.05 99.0 14.6 105.55 21.2 109.35 29.75 113.6 39.35 113.6 50.0 L63.6 50.0 13.6 50.0 Q13.6 39.35 17.85 29.75 21.65 21.2 28.2 14.6 34.8 8.05 43.35 4.25 52.95 0.0 63.6 0.0" fill="#ffffff" fill-rule="evenodd" stroke="none"/>
    <path d="M13.6 50.0 Q13.6 39.35 17.85 29.75 21.65 21.2 28.2 14.6 34.8 8.05 43.35 4.25 52.95 0.0 63.6 0.0 74.25 0.0 83.85 4.25 92.4 8.05 99.0 14.6 105.55 21.2 109.35 29.75 113.6 39.35 113.6 50.0" fill="none" stroke="#000000" stroke-linecap="round" stroke-linejoin="round" stroke-width="3.0"/>
    <path d="M10.25 33.6 L14.15 33.7 17.4 34.5 20.65 36.3 23.6 38.6 26.15 41.65 28.15 45.1 29.6 48.85 30.4 53.4 Q30.65 55.75 30.5 58.0 L29.85 61.95 28.6 65.65 26.7 69.2 24.35 72.0 21.45 74.45 18.4 75.85 14.6 76.75 10.9 77.05 7.75 76.5 4.5 74.8 1.85 72.35 0.35 69.2 -0.4 65.65 0.5 58.45 Q0.15 56.2 -1.3 52.75 L-3.0 47.9 -2.9 44.45 -1.85 41.2 0.5 38.3 3.4 35.95 6.45 34.45 Q8.25 33.8 10.25 33.6" fill="#ffffff" fill-rule="evenodd" stroke="none"/>
    <path d="M21.5 74.5 L18.4 75.95 Q16.7 76.6 14.65 76.85 L10.95 77.15 7.75 76.6 4.5 74.85 1.9 72.45 0.35 69.3 -0.35 65.75 0.55 58.55 Q0.2 56.25 -1.25 52.85 L-3.0 47.95 -2.9 44.55 -1.8 41.3 0.55 38.4 3.45 36.05 6.5 34.5 10.3 33.7 14.2 33.8 17.45 34.6" fill="none" stroke="#000000" stroke-linecap="round" stroke-linejoin="round" stroke-width="3.0"/>
    <path d="M9.85 53.85 L10.4 53.0 11.1 52.2 11.85 51.75 12.8 51.6 13.8 51.6 14.7 51.85 15.55 52.5 16.25 53.2 17.0 54.2 17.9 56.45 18.15 59.25 17.95 60.5" fill="none" stroke="#000000" stroke-linecap="round" stroke-linejoin="round" stroke-width="2.0"/>
    <path d="M116.75 33.6 L112.85 33.7 109.6 34.5 106.35 36.3 103.4 38.6 100.85 41.65 98.85 45.1 Q97.95 47.0 97.4 48.85 L96.6 53.4 Q96.35 55.75 96.5 58.0 L97.15 61.95 98.4 65.65 100.3 69.2 102.65 72.0 105.55 74.45 108.6 75.85 Q110.35 76.5 112.4 76.75 L116.1 77.05 119.25 76.5 122.5 74.8 125.15 72.35 126.65 69.2 127.4 65.65 126.5 58.45 Q126.85 56.2 128.3 52.75 L130.0 47.9 129.9 44.45 128.85 41.2 126.5 38.3 123.6 35.95 120.55 34.45 Q118.75 33.8 116.75 33.6" fill="#ffffff" fill-rule="evenodd" stroke="none"/>
    <path d="M105.5 74.5 L108.6 75.95 Q110.3 76.6 112.35 76.85 L116.05 77.15 119.25 76.6 122.5 74.85 125.1 72.45 Q125.8 70.9 126.65 69.3 L127.35 65.75 126.45 58.55 Q126.8 56.25 128.25 52.85 L130.0 47.95 129.9 44.55 128.8 41.3 126.45 38.4 123.55 36.05 120.5 34.5 116.7 33.7 112.8 33.8 109.55 34.6" fill="none" stroke="#000000" stroke-linecap="round" stroke-linejoin="round" stroke-width="3.0"/>
    <path d="M117.15 53.85 L116.6 53.0 115.9 52.2 115.15 51.75 114.2 51.6 113.2 51.6 112.3 51.85 111.45 52.5 110.75 53.2 110.0 54.2 109.1 56.45 108.85 59.25 109.05 60.5" fill="none" stroke="#000000" stroke-linecap="round" stroke-linejoin="round" stroke-width="2.0"/>
  </g>
</svg>
