<?xml version="1.0" encoding="UTF-8" standalone="no"?>
<svg xmlns:xlink="http://www.w3.org/1999/xlink" height="120.35px" width="117.0px" xmlns="http://www.w3.org/2000/svg">
  <g transform="matrix(1.0, 0.0, 0.0, 1.0, 1.5, 1.5)">
    <path d="M7.2 49.95 L57.2 49.95 107.2 49.95 Q107.35 55.65 106.55 61.55 105.65 68.25 103.8 72.75 102.5 76.0 98.75 80.3 L92.35 86.95 83.55 95.85 Q78.0 101.15 73.85 103.65 70.6 105.6 65.8 106.85 61.15 108.05 57.25 108.05 53.3 108.05 48.65 106.85 43.9 105.6 40.65 103.65 36.55 101.15 31.0 95.85 L22.2 86.95 15.8 80.35 Q12.05 76.1 10.75 72.85 8.9 68.3 7.95 61.6 7.1 55.6 7.2 49.95" fill="#ffffff" fill-rule="evenodd" stroke="none"/>
    <path d="M107.2 49.95 Q107.35 55.65 106.55 61.55 105.65 68.25 103.8 72.75 102.5 76.0 98.75 80.3 L92.35 86.95 83.55 95.85 Q78.0 101.15 73.85 103.65 70.6 105.6 65.8 106.85 61.15 108.05 57.25 108.05 53.3 108.05 48.65 106.85 43.9 105.6 40.65 103.65 36.55 101.15 31.0 95.85 L22.2 86.95 15.8 80.35 Q12.05 76.1 10.75 72.85 8.9 68.3 7.95 61.6 7.1 55.6 7.2 49.95" fill="none" stroke="#000000" stroke-linecap="round" stroke-linejoin="round" stroke-width="3.0"/>
    <path d="M57.2 0.0 Q67.85 0.0 77.45 4.25 86.0 8.05 92.6 14.6 99.15 21.2 102.95 29.75 107.2 39.35 107.2 50.0 L57.2 50.0 7.2 50.0 Q7.2 39.35 11.45 29.75 15.25 21.2 21.8 14.6 28.4 8.05 36.95 4.25 46.55 0.0 57.2 0.0" fill="#ffffff" fill-rule="evenodd" stroke="none"/>
    <path d="M7.2 50.0 Q7.2 39.35 11.45 29.75 15.25 21.2 21.8 14.6 28.4 8.05 36.95 4.25 46.55 0.0 57.2 0.0 67.85 0.0 77.45 4.25 86.0 8.05 92.6 14.6 99.15 21.2 102.95 29.75 107.2 39.35 107.2 50.0" fill="none" stroke="#000000" stroke-linecap="round" stroke-linejoin="round" stroke-width="3.0"/>
    <path d="M42.1 86.5 L44.75 86.25 47.45 86.5 49.7 87.1 51.95 88.0 54.0 89.25 57.2 92.5 60.45 89.25 62.5 88.0 64.75 87.1 67.0 86.5 69.65 86.25 72.35 86.5 74.55 87.1 76.8 88.0 78.85 89.25 82.2 92.6 83.45 94.75 84.4 96.9 84.95 99.2 85.2 101.8 84.95 104.5 84.4 106.75 83.45 108.95 82.2 111.0 80.65 112.85 78.85 114.4 76.8 115.65 74.55 116.6 72.35 117.2 69.65 117.35 67.0 117.2 64.75 116.6 62.5 115.65 60.45 114.4 57.35 111.0 54.0 114.4 51.95 115.65 49.7 116.6 47.45 117.2 44.75 117.35 42.1 117.2 39.85 116.6 37.6 115.65 35.55 114.4 33.75 112.85 32.2 111.0 30.95 108.95 30.05 106.75 29.45 104.5 29.2 101.8 Q29.2 100.45 29.45 99.2 L30.05 96.9 30.95 94.75 32.2 92.6 35.55 89.25 37.6 88.0 39.85 87.1 42.1 86.5" fill="#ffffff" fill-rule="evenodd" stroke="none"/>
    <path d="M82.2 92.6 L83.45 94.75 84.4 96.9 84.95 99.2 85.2 101.8 84.95 104.5 84.4 106.75 83.45 108.95 82.2 111.0 80.65 112.85 78.85 114.4 76.8 115.65 74.55 116.6 72.35 117.2 69.65 117.35 67.0 117.2 64.75 116.6 62.5 115.65 60.45 114.4 57.35 111.0 54.0 114.4 51.95 115.65 49.7 116.6 47.45 117.2 44.75 117.35 42.1 117.2 39.85 116.6 37.6 115.65 35.55 114.4 33.75 112.85 32.2 111.0 30.95 108.95 30.05 106.75 29.45 104.5 29.2 101.8 Q29.2 100.45 29.45 99.2 L30.05 96.9 30.95 94.75 32.2 92.6 M57.4 108.3 L57.35 111.0" fill="none" stroke="#000000" stroke-linecap="round" stroke-linejoin="round" stroke-width="3.0"/>
    <path d="M24.3 47.0 Q25.7 47.55 27.3 48.6 28.85 49.65 29.9 50.7 30.95 51.75 32.0 53.3 L33.6 56.3 Q34.3 57.85 34.6 59.4 35.0 61.2 35.0 63.1 35.0 65.0 34.6 66.8 34.3 68.35 33.6 69.9 L32.0 72.8 29.9 75.5 Q28.85 76.55 27.3 77.6 25.7 78.65 24.3 79.2 L21.25 80.15 17.5 80.6 13.8 80.15 Q12.25 79.9 10.75 79.2 9.35 78.65 7.8 77.6 6.25 76.55 5.15 75.5 L3.05 72.8 1.4 69.9 Q0.7 68.35 0.45 66.8 0.0 65.0 0.0 63.1 0.0 61.2 0.45 59.4 0.7 57.85 1.4 56.3 L3.05 53.3 Q4.1 51.75 5.15 50.7 6.25 49.65 7.8 48.6 9.35 47.55 10.75 47.0 L13.8 46.0 17.5 45.6 21.25 46.0 Q22.75 46.3 24.3 47.0" fill="#ffffff" fill-rule="evenodd" stroke="none"/>
    <path d="M17.5 80.6 L13.8 80.2 Q12.25 79.9 10.7 79.2 9.3 78.65 7.75 77.6 L5.1 75.5 3.0 72.85 Q1.95 71.3 1.4 69.9 0.7 68.35 0.4 66.8 0.0 65.0 0.0 63.1 0.0 61.2 0.4 59.4 0.7 57.85 1.4 56.3 1.95 54.9 3.0 53.3 L5.1 50.7 7.75 48.6 Q9.3 47.55 10.7 47.0 12.25 46.3 13.8 46.0 L17.5 45.6 21.2 46.0 24.3 47.0" fill="none" stroke="#000000" stroke-linecap="round" stroke-linejoin="round" stroke-width="3.0"/>
    <path d="M89.7 47.0 Q88.3 47.55 86.7 48.6 L84.1 50.7 82.0 53.3 Q80.95 54.9 80.4 56.3 79.7 57.85 79.4 59.4 79.0 61.2 79.0 63.1 79.0 65.0 79.4 66.8 79.7 68.35 80.4 69.9 80.95 71.3 82.0 72.8 L84.1 75.5 86.7 77.6 Q88.3 78.65 89.7 79.2 91.25 79.9 92.75 80.15 L96.5 80.6 100.2 80.15 103.25 79.2 106.2 77.6 108.85 75.5 110.95 72.8 112.6 69.9 113.55 66.8 114.0 63.1 Q114.0 61.2 113.55 59.4 L112.6 56.3 110.95 53.3 Q109.9 51.75 108.85 50.7 L106.2 48.6 Q104.65 47.55 103.25 47.0 L100.2 46.0 96.5 45.6 92.75 46.0 Q91.25 46.3 89.7 47.0" fill="#ffffff" fill-rule="evenodd" stroke="none"/>
    <path d="M96.5 80.6 L100.2 80.2 Q101.75 79.9 103.3 79.2 L106.25 77.6 108.9 75.5 111.0 72.85 112.6 69.9 Q113.3 68.35 113.6 66.8 114.0 65.0 114.0 63.1 114.0 61.2 113.6 59.4 113.3 57.85 112.6 56.3 L111.0 53.3 108.9 50.7 106.25 48.6 Q104.7 47.55 103.3 47.0 101.75 46.3 100.2 46.0 L96.5 45.6 92.8 46.0 Q91.25 46.3 89.7 47.0" fill="none" stroke="#000000" stroke-linecap="round" stroke-linejoin="round" stroke-width="3.0"/>
  </g>
</svg>
