<?xml version="1.0" encoding="UTF-8" standalone="no"?>
<svg xmlns:xlink="http://www.w3.org/1999/xlink" height="120.5px" width="107.4px" xmlns="http://www.w3.org/2000/svg">
  <g transform="matrix(1.0, 0.0, 0.0, 1.0, 1.5, 1.5)">
    <path d="M3.9 37.0 Q4.9 33.3 6.45 29.75 10.25 21.2 16.8 14.6 23.4 8.05 31.95 4.25 41.55 0.0 52.2 0.0 62.85 0.0 72.45 4.25 81.0 8.05 87.6 14.6 94.15 21.2 97.95 29.75 99.25 32.65 100.15 35.7 96.25 39.05 96.5 46.15 L96.5 49.9 Q96.4 57.1 95.4 60.45 94.45 63.5 90.3 68.2 85.25 73.9 84.25 75.55 83.7 76.45 83.2 79.5 82.7 82.2 81.85 83.15 79.25 86.05 76.0 88.5 72.3 91.3 69.2 92.35 67.1 93.0 63.15 92.4 L56.95 91.5 52.4 91.4 47.85 91.5 41.65 92.4 Q37.65 93.0 35.6 92.35 32.5 91.3 28.75 88.5 25.55 86.05 22.95 83.15 22.05 82.2 21.6 79.5 21.05 76.45 20.55 75.55 19.55 73.9 14.5 68.2 10.35 63.5 9.4 60.45 8.35 57.1 8.3 49.9 L8.3 46.15 Q8.55 39.05 3.9 37.0 M22.85 92.75 L21.8 91.65 22.85 92.7 22.85 92.75" fill="#ffffff" fill-rule="evenodd" stroke="none"/>
    <path d="M100.15 35.7 Q102.2 42.55 102.2 49.95 L102.2 50.0 Q102.35 55.7 101.55 61.55 L101.2 63.9 101.4 64.1 102.95 67.0 103.7 69.2 104.25 71.45 104.4 76.15 104.4 79.15 99.05 74.1 98.4 73.75 96.6 72.75 97.55 73.75 98.0 74.45 98.1 74.6 98.45 75.5 99.0 78.25 Q99.3 79.95 99.1 81.05 L97.45 86.6 96.1 90.05 94.6 86.25 92.7 83.8 91.55 82.6 90.55 83.65 90.7 83.85 91.35 85.65 91.6 87.35 91.55 89.7 91.05 91.95 88.9 96.65 87.35 99.5 86.4 97.8 84.95 95.1 83.9 93.0 83.3 92.35 82.6 91.8 81.55 92.85 81.7 93.15 82.05 93.95 82.35 95.3 82.2 97.6 81.75 99.9 80.05 104.5 78.85 107.4 76.2 102.45 75.65 101.65 75.0 101.05 73.7 100.2 73.05 100.75 73.55 101.3 74.1 102.35 74.25 103.4 74.1 106.0 73.45 108.45 Q72.7 109.85 70.25 112.45 L67.95 114.85 66.7 110.85 65.15 107.9 63.75 106.0 63.6 105.8 62.45 105.05 62.75 106.25 62.75 106.3 63.05 108.65 62.95 110.85 62.3 112.8 61.2 114.45 Q60.4 115.25 58.15 116.45 L56.05 117.5 52.2 110.65 48.35 117.45 46.25 116.4 Q44.0 115.2 43.2 114.4 L42.1 112.7 41.45 110.75 41.35 108.6 41.65 106.3 41.65 106.25 41.65 106.15 42.0 104.95 40.8 105.7 40.65 105.95 39.25 107.85 37.7 110.75 36.45 114.75 34.15 112.35 Q31.7 109.7 30.95 108.3 L30.3 105.85 30.15 103.25 30.4 102.25 31.15 100.65 31.2 100.45 31.55 99.75 30.8 100.1 30.2 100.35 29.4 100.9 28.75 101.5 28.2 102.3 25.55 107.2 24.35 104.3 22.65 99.7 22.2 97.4 22.05 95.1 22.3 93.75 22.85 92.75 22.85 92.7 21.8 91.65 21.1 92.15 20.5 92.8 19.45 94.85 18.0 97.55 17.05 99.25 15.5 96.4 Q13.85 93.2 13.35 91.7 L12.85 89.45 12.8 87.1 13.05 85.4 13.7 83.6 13.8 83.45 12.8 82.4 10.7 84.7 9.8 86.0 8.3 89.75 6.95 86.3 Q5.6 82.5 5.3 80.75 5.1 79.65 5.4 77.95 L5.95 75.2 6.3 74.3 6.4 74.2 6.85 73.45 7.75 72.55 6.0 73.45 Q5.7 73.65 5.35 73.8 L0.0 78.8 0.0 75.85 Q0.0 72.55 0.15 71.1 L0.7 68.85 1.45 66.7 2.1 65.25 3.0 63.8 3.25 63.5 2.95 61.6 Q2.1 55.65 2.2 50.0 L2.2 49.95 Q2.2 43.25 3.9 37.0 8.55 39.05 8.3 46.15 L8.3 49.9 Q8.35 57.1 9.4 60.45 10.35 63.5 14.5 68.2 19.55 73.9 20.55 75.55 21.05 76.45 21.6 79.5 22.05 82.2 22.95 83.15 25.55 86.05 28.75 88.5 32.5 91.3 35.6 92.35 37.65 93.0 41.65 92.4 L47.85 91.5 52.4 91.4 56.95 91.5 63.15 92.4 Q67.1 93.0 69.2 92.35 72.3 91.3 76.0 88.5 79.25 86.05 81.85 83.15 82.7 82.2 83.2 79.5 83.7 76.45 84.25 75.55 85.25 73.9 90.3 68.2 94.45 63.5 95.4 60.45 96.4 57.1 96.5 49.9 L96.5 46.15 Q96.25 39.05 100.15 35.7 M5.0 61.45 L3.25 63.5 5.0 61.45 M21.8 91.65 L23.05 90.7 23.85 89.8 23.05 90.7 21.8 91.65 M25.1 90.2 L23.0 92.4 22.85 92.7 23.0 92.4 25.1 90.2 M9.25 71.45 L8.55 72.05 8.45 72.15 7.75 72.55 8.45 72.15 8.55 72.05 9.25 71.45 M52.2 110.65 L53.45 108.05 53.5 106.5 53.05 105.15 53.5 106.5 53.45 108.05 52.2 110.65 M33.1 98.5 L31.95 99.55 31.55 99.75 31.95 99.55 33.1 98.5 M95.15 71.7 L95.95 72.4 96.6 72.75 95.95 72.4 95.15 71.7 M12.8 82.4 L12.85 82.35 14.0 81.6 14.85 80.85 14.0 81.6 12.85 82.35 12.8 82.4 M15.25 81.35 L14.6 82.15 13.8 83.45 14.6 82.15 15.25 81.35 M43.3 103.7 L42.3 104.75 42.0 104.95 42.3 104.75 43.3 103.7 M73.05 100.75 L70.8 98.55 73.05 100.75 M70.95 97.8 L72.25 99.2 73.7 100.2 72.25 99.2 70.95 97.8 M81.55 92.85 L81.4 92.55 80.4 91.25 79.75 90.6 80.4 91.25 81.4 92.55 81.55 92.85 M80.55 90.0 L81.35 90.9 82.6 91.8 81.35 90.9 80.55 90.0 M90.55 83.65 L89.5 82.2 88.7 81.4 89.5 82.2 90.55 83.65 M89.55 81.1 L90.4 81.85 91.55 82.6 90.4 81.85 89.55 81.1 M101.2 63.9 L99.2 61.5 101.2 63.9 M61.1 103.75 L62.1 104.8 62.45 105.05 62.1 104.8 61.1 103.75" fill="#666666" fill-rule="evenodd" stroke="none"/>
    <path d="M98.4 73.75 L98.0 74.45 97.55 73.75 96.6 72.75 98.4 73.75 M63.75 106.0 L62.75 106.3 62.75 106.25 62.45 105.05 63.6 105.8 63.75 106.0 M41.65 106.3 L40.65 105.95 40.8 105.7 42.0 104.95 41.65 106.15 41.65 106.25 41.65 106.3 M31.2 100.45 L30.8 100.1 31.55 99.75 31.2 100.45 M6.4 74.2 L6.0 73.45 7.75 72.55 6.85 73.45 6.4 74.2" fill="#926715" fill-rule="evenodd" stroke="none"/>
    <path d="M3.9 37.0 Q4.9 33.3 6.45 29.75 10.25 21.2 16.8 14.6 23.4 8.05 31.95 4.25 41.55 0.0 52.2 0.0 62.85 0.0 72.45 4.25 81.0 8.05 87.6 14.6 94.15 21.2 97.95 29.75 99.25 32.65 100.15 35.7 102.2 42.55 102.2 49.95 L102.2 50.0 Q102.35 55.7 101.55 61.55 L101.2 63.9 101.4 64.1 102.95 67.0 103.7 69.2 104.25 71.45 104.4 76.15 104.4 79.15 99.05 74.1 98.4 73.75 98.0 74.45 98.1 74.6 98.45 75.5 99.0 78.25 Q99.3 79.95 99.1 81.05 L97.45 86.6 96.1 90.05 94.6 86.25 92.7 83.8 91.55 82.6 90.55 83.65 90.7 83.85 91.35 85.65 91.6 87.35 91.55 89.7 91.05 91.95 88.9 96.65 87.35 99.5 86.4 97.8 84.95 95.1 83.9 93.0 83.3 92.35 82.6 91.8 81.55 92.85 M81.7 93.15 L82.05 93.95 82.35 95.3 82.2 97.6 81.75 99.9 80.05 104.5 78.85 107.4 76.2 102.45 75.65 101.65 75.0 101.05 73.7 100.2 72.25 99.2 70.95 97.8 M73.05 100.75 L73.55 101.3 74.1 102.35 74.25 103.4 74.1 106.0 73.45 108.45 Q72.7 109.85 70.25 112.45 L67.95 114.85 66.7 110.85 65.15 107.9 63.75 106.0 62.75 106.3 63.05 108.65 62.95 110.85 62.3 112.8 61.2 114.45 Q60.4 115.25 58.15 116.45 L56.05 117.5 52.2 110.65 48.35 117.45 46.25 116.4 Q44.0 115.2 43.2 114.4 L42.1 112.7 41.45 110.75 41.35 108.6 41.65 106.3 40.65 105.95 39.25 107.85 37.7 110.75 36.45 114.75 34.15 112.35 Q31.7 109.7 30.95 108.3 L30.3 105.85 30.15 103.25 30.4 102.25 31.15 100.65 M31.2 100.45 L30.8 100.1 30.2 100.35 29.4 100.9 28.75 101.5 28.2 102.3 25.55 107.2 24.35 104.3 22.65 99.7 22.2 97.4 22.05 95.1 22.3 93.75 22.85 92.75 21.8 91.65 21.1 92.15 20.5 92.8 19.45 94.85 18.0 97.55 17.05 99.25 15.5 96.4 Q13.85 93.2 13.35 91.7 L12.85 89.45 12.8 87.1 13.05 85.4 13.7 83.6 13.8 83.45 12.8 82.4 10.7 84.7 9.8 86.0 8.3 89.75 6.95 86.3 Q5.6 82.5 5.3 80.75 5.1 79.65 5.4 77.95 L5.95 75.2 6.3 74.3 6.4 74.2 6.0 73.45 Q5.7 73.65 5.35 73.8 L0.0 78.8 0.0 75.85 Q0.0 72.55 0.15 71.1 L0.7 68.85 1.45 66.7 2.1 65.25 3.0 63.8 3.25 63.5 2.95 61.6 Q2.1 55.65 2.2 50.0 L2.2 49.95 Q2.2 43.25 3.9 37.0 8.55 39.05 8.3 46.15 L8.3 49.9 Q8.35 57.1 9.4 60.45 10.35 63.5 14.5 68.2 19.55 73.9 20.55 75.55 21.05 76.45 21.6 79.5 22.05 82.2 22.95 83.15 25.55 86.05 28.75 88.5 32.5 91.3 35.6 92.35 37.65 93.0 41.65 92.4 L47.85 91.5 52.4 91.4 56.95 91.5 63.15 92.4 Q67.1 93.0 69.2 92.35 72.3 91.3 76.0 88.5 79.25 86.05 81.85 83.15 82.7 82.2 83.2 79.5 83.7 76.45 84.25 75.55 85.25 73.9 90.3 68.2 94.45 63.5 95.4 60.45 96.4 57.1 96.5 49.9 L96.5 46.15 Q96.25 39.05 100.15 35.7 M3.25 63.5 L5.0 61.45 M6.4 74.2 L6.85 73.45 7.75 72.55 6.0 73.45 M7.75 72.55 L8.45 72.15 8.55 72.05 9.25 71.45 M22.85 92.7 L23.0 92.4 25.1 90.2 M23.85 89.8 L23.05 90.7 21.8 91.65 22.85 92.7 22.85 92.75 M31.2 100.45 L31.55 99.75 30.8 100.1 M31.55 99.75 L31.95 99.55 33.1 98.5 M53.05 105.15 L53.5 106.5 53.45 108.05 52.2 110.65 M41.65 106.3 L41.65 106.25 41.65 106.15 42.0 104.95 40.8 105.7 40.65 105.95 M42.0 104.95 L42.3 104.75 43.3 103.7 M13.8 83.45 L14.6 82.15 15.25 81.35 M14.85 80.85 L14.0 81.6 12.85 82.35 12.8 82.4 M96.6 72.75 L95.95 72.4 95.15 71.7 M98.4 73.75 L96.6 72.75 97.55 73.75 98.0 74.45 M99.2 61.5 L101.2 63.9 M91.55 82.6 L90.4 81.85 89.55 81.1 M88.7 81.4 L89.5 82.2 90.55 83.65 M82.6 91.8 L81.35 90.9 80.55 90.0 M79.75 90.6 L80.4 91.25 81.4 92.55 81.55 92.85 M70.8 98.55 L73.05 100.75 M63.75 106.0 L63.6 105.8 62.45 105.05 62.75 106.25 62.75 106.3 M62.45 105.05 L62.1 104.8 61.1 103.75" fill="none" stroke="#000000" stroke-linecap="round" stroke-linejoin="round" stroke-width="3.0"/>
    <path d="M46.75 73.0 Q47.65 71.8 49.4 71.1 L51.2 71.05 52.3 71.55 53.35 71.05 55.0 71.1 Q56.65 71.85 57.4 73.05 L58.65 74.35 66.0 75.3 73.35 76.35 75.85 78.35 77.2 80.0 70.05 79.85 58.85 78.95 56.65 77.7 54.7 76.0 52.25 73.9 49.75 76.0 47.65 77.65 45.4 78.85 34.3 79.8 27.2 80.0 28.35 78.3 30.6 76.25 Q32.8 75.55 37.95 75.2 L45.4 74.25 46.75 73.0" fill="#666666" fill-rule="evenodd" stroke="none"/>
    <path d="M46.75 73.0 Q47.65 71.8 49.4 71.1 L51.2 71.05 52.3 71.55 53.35 71.05 55.0 71.1 Q56.65 71.85 57.4 73.05 L58.65 74.35 66.0 75.3 73.35 76.35 75.85 78.35 77.2 80.0 70.05 79.85 58.85 78.95 56.65 77.7 54.7 76.0 52.25 73.9 49.75 76.0 47.65 77.65 45.4 78.85 34.3 79.8 27.2 80.0 28.35 78.3 30.6 76.25 Q32.8 75.55 37.95 75.2 L45.4 74.25 46.75 73.0 Z" fill="none" stroke="#000000" stroke-linecap="round" stroke-linejoin="round" stroke-width="3.0"/>
  </g>
</svg>
