<?xml version="1.0" encoding="UTF-8" standalone="no"?>
<svg xmlns:xlink="http://www.w3.org/1999/xlink" height="111.05px" width="103.0px" xmlns="http://www.w3.org/2000/svg">
  <g transform="matrix(1.0, 0.0, 0.0, 1.0, 1.5, 1.5)">
    <path d="M0.0 49.95 L50.0 49.95 100.0 49.95 Q100.15 55.65 99.35 61.55 98.45 68.25 96.6 72.75 95.3 76.0 91.55 80.3 L85.15 86.95 76.35 95.85 Q70.8 101.15 66.65 103.65 63.4 105.6 58.6 106.85 53.95 108.05 50.05 108.05 46.1 108.05 41.45 106.85 36.7 105.6 33.45 103.65 29.35 101.15 23.8 95.85 L15.0 86.95 8.6 80.35 Q4.85 76.1 3.55 72.85 1.7 68.3 0.75 61.6 -0.1 55.6 0.0 49.95" fill="#ffffff" fill-rule="evenodd" stroke="none"/>
    <path d="M100.0 49.95 Q100.15 55.65 99.35 61.55 98.45 68.25 96.6 72.75 95.3 76.0 91.55 80.3 L85.15 86.95 76.35 95.85 Q70.8 101.15 66.65 103.65 63.4 105.6 58.6 106.85 53.95 108.05 50.05 108.05 46.1 108.05 41.45 106.85 36.7 105.6 33.45 103.65 29.35 101.15 23.8 95.85 L15.0 86.95 8.6 80.35 Q4.85 76.1 3.55 72.85 1.7 68.3 0.75 61.6 -0.1 55.6 0.0 49.95" fill="none" stroke="#000000" stroke-linecap="round" stroke-linejoin="round" stroke-width="3.0"/>
    <path d="M50.0 0.0 Q60.65 0.0 70.25 4.25 78.8 8.05 85.4 14.6 91.95 21.2 95.75 29.75 100.0 39.35 100.0 50.0 L50.0 50.0 0.0 50.0 Q0.0 39.35 4.25 29.75 8.05 21.2 14.6 14.6 21.2 8.05 29.75 4.25 39.35 0.0 50.0 0.0" fill="#ffffff" fill-rule="evenodd" stroke="none"/>
    <path d="M0.0 50.0 Q0.0 39.35 4.25 29.75 8.05 21.2 14.6 14.6 21.2 8.05 29.75 4.25 39.35 0.0 50.0 0.0 60.65 0.0 70.25 4.25 78.8 8.05 85.4 14.6 91.95 21.2 95.75 29.75 100.0 39.35 100.0 50.0" fill="none" stroke="#000000" stroke-linecap="round" stroke-linejoin="round" stroke-width="3.0"/>
    <path d="M15.25 73.15 L21.45 76.35 Q25.5 78.4 26.8 80.5 28.05 82.4 28.2 86.65 28.2 90.15 28.35 93.25" fill="none" stroke="#000000" stroke-linecap="round" stroke-linejoin="round" stroke-width="2.0"/>
    <path d="M43.8 49.15 L41.35 51.0 38.8 52.6 35.95 53.1 32.95 53.2" fill="none" stroke="#000000" stroke-linecap="round" stroke-linejoin="round" stroke-width="2.0"/>
    <path d="M84.75 73.15 L78.55 76.35 Q74.5 78.4 73.2 80.5 71.95 82.4 71.8 86.65 L71.65 93.25" fill="none" stroke="#000000" stroke-linecap="round" stroke-linejoin="round" stroke-width="2.0"/>
    <path d="M56.2 49.15 L58.65 51.0 Q60.15 52.2 61.2 52.6 L64.05 53.1 67.05 53.2" fill="none" stroke="#000000" stroke-linecap="round" stroke-linejoin="round" stroke-width="2.0"/>
    <path d="M68.55 17.95 L64.55 18.05 60.55 18.2 55.3 18.85 50.05 19.3 45.5 18.85 40.95 18.2 36.25 18.0 31.55 17.95" fill="none" stroke="#000000" stroke-linecap="round" stroke-linejoin="round" stroke-width="2.0"/>
    <path d="M11.55 55.5 L10.8 57.0 8.9 57.65 6.95 57.0 6.25 55.5 6.95 54.05 8.9 53.4 10.8 54.05 11.55 55.5 M13.95 62.2 L15.35 61.65 16.75 62.2 17.25 63.25 16.75 64.4 15.35 64.85 13.95 64.4 13.5 63.25 13.95 62.2 M22.7 57.1 L24.55 57.75 25.2 59.2 24.55 60.7 22.7 61.35 20.85 60.7 20.2 59.2 20.85 57.75 22.7 57.1 M84.65 61.65 L86.05 62.2 86.5 63.25 86.05 64.4 84.65 64.85 83.25 64.4 82.75 63.25 83.25 62.2 84.65 61.65 M93.05 54.05 L93.75 55.5 93.05 57.0 91.1 57.65 89.2 57.0 88.45 55.5 89.2 54.05 91.1 53.4 93.05 54.05 M74.8 59.2 L75.45 57.75 77.3 57.1 79.15 57.75 79.8 59.2 79.15 60.7 77.3 61.35 75.45 60.7 74.8 59.2" fill="#333333" fill-rule="evenodd" stroke="none"/>
  </g>
</svg>
