<?xml version="1.0" encoding="UTF-8" standalone="no"?>
<svg xmlns:xlink="http://www.w3.org/1999/xlink" height="133.55px" width="108.6px" xmlns="http://www.w3.org/2000/svg">
  <g transform="matrix(1.0, 0.0, 0.0, 1.0, 0.5, 1.5)">
    <path d="M2.8 72.45 L52.8 72.45 102.8 72.45 Q102.95 78.15 102.15 84.05 101.25 90.75 99.4 95.25 98.1 98.5 94.35 102.8 L87.95 109.45 79.15 118.35 Q73.6 123.65 69.45 126.15 66.2 128.1 61.4 129.35 56.75 130.55 52.85 130.55 48.9 130.55 44.25 129.35 39.5 128.1 36.25 126.15 32.15 123.65 26.6 118.35 L17.8 109.45 11.4 102.85 Q7.65 98.6 6.35 95.35 4.5 90.8 3.55 84.1 2.7 78.1 2.8 72.45" fill="#ffffff" fill-rule="evenodd" stroke="none"/>
    <path d="M102.8 72.45 Q102.95 78.15 102.15 84.05 101.25 90.75 99.4 95.25 98.1 98.5 94.35 102.8 L87.95 109.45 79.15 118.35 Q73.6 123.65 69.45 126.15 66.2 128.1 61.4 129.35 56.75 130.55 52.85 130.55 48.9 130.55 44.25 129.35 39.5 128.1 36.25 126.15 32.15 123.65 26.6 118.35 L17.8 109.45 11.4 102.85 Q7.65 98.6 6.35 95.35 4.5 90.8 3.55 84.1 2.7 78.1 2.8 72.45" fill="none" stroke="#000000" stroke-linecap="round" stroke-linejoin="round" stroke-width="3.0"/>
    <path d="M52.8 22.5 Q63.45 22.5 73.05 26.75 81.6 30.55 88.2 37.1 94.75 43.7 98.55 52.25 102.8 61.85 102.8 72.5 L52.8 72.5 2.8 72.5 Q2.8 61.85 7.05 52.25 10.85 43.7 17.4 37.1 24.0 30.55 32.55 26.75 42.15 22.5 52.8 22.5" fill="#ffffff" fill-rule="evenodd" stroke="none"/>
    <path d="M2.8 72.5 Q2.8 61.85 7.05 52.25 10.85 43.7 17.4 37.1 24.0 30.55 32.55 26.75 42.15 22.5 52.8 22.5 63.45 22.5 73.05 26.75 81.6 30.55 88.2 37.1 94.75 43.7 98.55 52.25 102.8 61.85 102.8 72.5" fill="none" stroke="#000000" stroke-linecap="round" stroke-linejoin="round" stroke-width="3.0"/>
    <path d="M15.25 71.65 Q15.3 70.2 15.6 68.8 15.3 70.2 15.25 71.65 L0.0 68.15 0.0 65.2 15.6 68.8 Q16.55 64.1 20.2 60.45 25.15 55.5 32.25 55.5 39.3 55.5 44.25 60.45 48.55 64.75 49.15 70.65 L50.2 70.25 Q52.55 69.5 53.6 69.5 54.8 69.5 57.45 70.25 L58.45 70.55 Q59.05 64.75 63.3 60.45 68.3 55.5 75.35 55.5 82.4 55.5 87.4 60.45 91.0 64.1 92.0 68.85 L107.6 65.2 107.6 68.15 92.35 71.65 92.35 72.5 Q92.35 79.55 87.4 84.55 82.4 89.5 75.35 89.5 68.3 89.5 63.3 84.55 58.55 79.8 58.35 73.15 L57.45 72.85 53.6 72.05 Q52.5 72.05 50.2 72.85 L49.25 73.2 Q49.0 79.8 44.25 84.55 39.3 89.5 32.25 89.5 25.15 89.5 20.2 84.55 15.2 79.55 15.2 72.5 L15.25 71.65 M49.15 70.65 L49.25 72.5 49.25 73.2 49.25 72.5 49.15 70.65 M58.35 73.15 L58.35 72.5 58.45 70.55 58.35 72.5 58.35 73.15 M90.35 72.5 Q90.35 66.25 85.95 61.9 81.6 57.5 75.35 57.5 69.1 57.5 64.75 61.9 60.35 66.25 60.35 72.5 60.35 78.75 64.75 83.1 69.1 87.5 75.35 87.5 81.6 87.5 85.95 83.1 90.35 78.75 90.35 72.5 M47.25 72.5 Q47.25 66.25 42.85 61.9 38.45 57.5 32.25 57.5 26.0 57.5 21.6 61.9 17.25 66.25 17.25 72.5 17.25 78.75 21.6 83.1 26.0 87.5 32.25 87.5 38.45 87.5 42.85 83.1 47.25 78.75 47.25 72.5 M92.0 68.85 L92.35 71.65 92.0 68.85" fill="#333333" fill-rule="evenodd" stroke="none"/>
    <path d="M47.25 72.5 Q47.25 78.75 42.85 83.1 38.45 87.5 32.25 87.5 26.0 87.5 21.6 83.1 17.25 78.75 17.25 72.5 17.25 66.25 21.6 61.9 26.0 57.5 32.25 57.5 38.45 57.5 42.85 61.9 47.25 66.25 47.25 72.5 M90.35 72.5 Q90.35 78.75 85.95 83.1 81.6 87.5 75.35 87.5 69.1 87.5 64.75 83.1 60.35 78.75 60.35 72.5 60.35 66.25 64.75 61.9 69.1 57.5 75.35 57.5 81.6 57.5 85.95 61.9 90.35 66.25 90.35 72.5" fill="#ffffff" fill-rule="evenodd" stroke="none"/>
    <path d="M15.6 68.8 Q15.3 70.2 15.25 71.65 L15.2 72.5 Q15.2 79.55 20.2 84.55 25.15 89.5 32.25 89.5 39.3 89.5 44.25 84.55 49.0 79.8 49.25 73.2 L49.25 72.5 49.15 70.65 Q48.55 64.75 44.25 60.45 39.3 55.5 32.25 55.5 25.15 55.5 20.2 60.45 16.55 64.1 15.6 68.8 L0.0 65.2 0.0 68.15 15.25 71.65 M49.15 70.65 L50.2 70.25 Q52.55 69.5 53.6 69.5 54.8 69.5 57.45 70.25 L58.45 70.55 Q59.05 64.75 63.3 60.45 68.3 55.5 75.35 55.5 82.4 55.5 87.4 60.45 91.0 64.1 92.0 68.85 L107.6 65.2 107.6 68.15 92.35 71.65 92.35 72.5 Q92.35 79.55 87.4 84.55 82.4 89.5 75.35 89.5 68.3 89.5 63.3 84.55 58.55 79.8 58.35 73.15 L57.45 72.85 53.6 72.05 Q52.5 72.05 50.2 72.85 L49.25 73.2 M58.45 70.55 L58.35 72.5 58.35 73.15 M47.25 72.5 Q47.25 78.75 42.85 83.1 38.45 87.5 32.25 87.5 26.0 87.5 21.6 83.1 17.25 78.75 17.25 72.5 17.25 66.25 21.6 61.9 26.0 57.5 32.25 57.5 38.45 57.5 42.85 61.9 47.25 66.25 47.25 72.5 M90.35 72.5 Q90.35 78.75 85.95 83.1 81.6 87.5 75.35 87.5 69.1 87.5 64.75 83.1 60.35 78.75 60.35 72.5 60.35 66.25 64.75 61.9 69.1 57.5 75.35 57.5 81.6 57.5 85.95 61.9 90.35 66.25 90.35 72.5 M92.35 71.65 L92.0 68.85" fill="none" stroke="#000000" stroke-linecap="round" stroke-linejoin="round" stroke-width="1.0"/>
    <path d="M74.05 8.8 Q77.4 12.15 79.55 17.9 81.25 22.35 82.8 30.0 83.2 32.05 82.2 34.0 81.2 35.95 79.65 36.5 73.95 38.4 67.3 39.3 L52.8 40.2 38.3 39.3 Q31.65 38.4 25.95 36.5 24.4 35.95 23.4 34.0 22.4 32.05 22.8 30.0 24.35 22.35 26.05 17.9 28.2 12.15 31.55 8.8 35.5 4.85 40.65 2.55 46.4 0.0 52.8 0.0 59.2 0.0 64.95 2.55 70.1 4.85 74.05 8.8" fill="#5f5f5f" fill-rule="evenodd" stroke="none"/>
    <path d="M74.05 8.8 Q77.4 12.15 79.55 17.9 81.25 22.35 82.8 30.0 83.2 32.05 82.2 34.0 81.2 35.95 79.65 36.5 73.95 38.4 67.3 39.3 L52.8 40.2 38.3 39.3 Q31.65 38.4 25.95 36.5 24.4 35.95 23.4 34.0 22.4 32.05 22.8 30.0 24.35 22.35 26.05 17.9 28.2 12.15 31.55 8.8 35.5 4.85 40.65 2.55 46.4 0.0 52.8 0.0 59.2 0.0 64.95 2.55 70.1 4.85 74.05 8.8 Z" fill="none" stroke="#000000" stroke-linecap="round" stroke-linejoin="round" stroke-width="3.0"/>
    <path d="M22.05 27.55 L25.5 28.5 31.0 29.75 41.9 31.0 52.8 31.6 63.35 31.0 73.8 29.75 79.75 28.5 83.45 27.55 83.5 30.2 83.3 34.35 81.55 38.9 70.5 40.65 Q58.4 42.4 53.0 42.4 47.45 42.35 35.0 40.45 L23.65 38.55 22.85 37.0 21.9 34.5 Q21.7 33.2 21.85 30.25 L22.05 27.55" fill="#333333" fill-rule="evenodd" stroke="none"/>
    <path d="M22.05 27.55 L25.5 28.5 31.0 29.75 41.9 31.0 52.8 31.6 63.35 31.0 73.8 29.75 79.75 28.5 83.45 27.55 83.5 30.2 83.3 34.35 81.55 38.9 70.5 40.65 Q58.4 42.4 53.0 42.4 47.45 42.35 35.0 40.45 L23.65 38.55 22.85 37.0 21.9 34.5 Q21.7 33.2 21.85 30.25 L22.05 27.55 Z" fill="none" stroke="#000000" stroke-linecap="round" stroke-linejoin="round" stroke-width="3.0"/>
    <path d="M34.55 45.05 Q23.55 43.95 16.05 40.65 12.95 39.3 11.65 34.65 10.25 29.95 12.8 28.1 14.75 26.7 17.95 30.45 21.9 35.0 23.3 35.4 29.65 37.15 37.95 38.25 L52.8 39.3 67.7 38.25 Q75.95 37.15 82.3 35.4 83.7 35.0 87.65 30.45 90.85 26.7 92.8 28.1 95.35 29.95 93.95 34.65 92.65 39.25 89.55 40.65 82.15 43.95 71.25 45.05 L53.0 45.75 34.55 45.05" fill="#5f5f5f" fill-rule="evenodd" stroke="none"/>
    <path d="M34.55 45.05 Q23.55 43.95 16.05 40.65 12.95 39.3 11.65 34.65 10.25 29.95 12.8 28.1 14.75 26.7 17.95 30.45 21.9 35.0 23.3 35.4 29.65 37.15 37.95 38.25 L52.8 39.3 67.7 38.25 Q75.95 37.15 82.3 35.4 83.7 35.0 87.65 30.45 90.85 26.7 92.8 28.1 95.35 29.95 93.95 34.65 92.65 39.25 89.55 40.65 82.15 43.95 71.25 45.05 L53.0 45.75 34.55 45.05 Z" fill="none" stroke="#000000" stroke-linecap="round" stroke-linejoin="round" stroke-width="3.0"/>
  </g>
</svg>
