<?xml version="1.0" encoding="UTF-8" standalone="no"?>
<svg xmlns:xlink="http://www.w3.org/1999/xlink" height="27.85px" width="44.35px" xmlns="http://www.w3.org/2000/svg">
  <g transform="matrix(1.0, 0.0, 0.0, 1.0, 0.5, 0.5)">
    <path d="M15.15 14.75 L15.1 14.8 Q15.7 13.45 15.7 11.95 15.7 9.2 13.8 7.3 12.95 6.45 12.0 6.05 L11.85 6.0 11.55 5.8 Q10.4 5.35 9.1 5.35 6.35 5.35 4.45 7.3 2.5 9.2 2.5 11.95 2.5 14.7 4.45 16.65 6.35 18.55 9.1 18.55 11.85 18.55 13.8 16.65 L14.7 15.55 14.65 15.55 15.15 14.75 M16.75 16.95 L15.55 18.4 Q13.25 20.65 10.2 21.0 L10.2 21.4 11.75 21.4 Q12.25 21.4 12.65 21.8 13.0 22.15 13.0 22.65 L12.65 23.55 Q12.25 23.9 11.75 23.9 L10.2 23.9 10.2 25.6 9.85 26.5 Q9.45 26.85 8.95 26.85 8.45 26.85 8.1 26.5 7.7 26.1 7.7 25.6 L7.7 23.9 6.45 23.9 Q5.95 23.9 5.6 23.55 5.2 23.15 5.2 22.65 5.2 22.15 5.6 21.8 5.95 21.4 6.45 21.4 L7.7 21.4 7.7 20.95 Q4.85 20.55 2.7 18.4 0.0 15.7 0.0 11.95 0.0 8.2 2.7 5.55 5.35 2.85 9.1 2.85 10.9 2.85 12.5 3.5 L13.0 3.75 13.05 3.75 13.1 3.8 Q14.4 4.4 15.55 5.55 18.2 8.2 18.2 11.95 18.2 14.05 17.4 15.85 L16.75 16.95 M35.6 16.65 Q37.5 14.7 37.5 11.95 37.5 9.2 35.6 7.3 33.65 5.35 30.9 5.35 28.15 5.35 26.25 7.3 L25.35 8.4 24.95 9.15 24.95 9.2 Q24.3 10.45 24.3 11.95 24.3 14.7 26.25 16.65 27.1 17.45 28.05 17.95 28.25 18.0 28.5 18.15 L30.9 18.55 Q33.65 18.55 35.6 16.65 M43.0 0.4 Q43.35 0.75 43.35 1.25 L43.35 1.45 43.35 1.65 43.35 5.35 Q43.35 5.85 43.0 6.25 42.6 6.6 42.1 6.6 41.6 6.6 41.25 6.25 40.85 5.85 40.85 5.35 L40.85 4.25 38.4 6.75 Q40.0 9.0 40.0 11.95 40.0 15.7 37.35 18.4 34.65 21.05 30.9 21.05 L27.6 20.5 27.5 20.45 27.05 20.2 26.95 20.2 Q25.6 19.55 24.5 18.4 21.8 15.7 21.8 11.95 21.8 9.85 22.7 8.1 22.9 7.5 23.25 7.0 L23.25 7.05 Q23.8 6.2 24.5 5.55 27.15 2.85 30.9 2.85 34.2 2.85 36.7 4.95 L39.1 2.5 38.4 2.5 Q37.9 2.5 37.55 2.15 37.15 1.75 37.15 1.25 37.15 0.75 37.55 0.4 37.9 0.0 38.4 0.0 L42.1 0.0 Q42.6 0.0 43.0 0.4" fill="#ffffff" fill-rule="evenodd" stroke="none"/>
    <path d="M43.0 0.4 Q42.6 0.0 42.1 0.0 L38.4 0.0 Q37.9 0.0 37.55 0.4 37.15 0.75 37.15 1.25 37.15 1.75 37.55 2.15 37.9 2.5 38.4 2.5 L39.1 2.5 36.7 4.95 Q34.2 2.85 30.9 2.85 27.15 2.85 24.5 5.55 23.8 6.2 23.25 7.05 L23.25 7.0 Q22.9 7.5 22.7 8.1 21.8 9.85 21.8 11.95 21.8 15.7 24.5 18.4 25.6 19.55 26.95 20.2 L27.05 20.2 27.5 20.45 27.6 20.5 30.9 21.05 Q34.65 21.05 37.35 18.4 40.0 15.7 40.0 11.95 40.0 9.0 38.4 6.75 L40.85 4.25 40.85 5.35 Q40.85 5.85 41.25 6.25 41.6 6.6 42.1 6.6 42.6 6.6 43.0 6.25 43.35 5.85 43.35 5.35 L43.35 1.65 43.35 1.45 43.35 1.25 Q43.35 0.75 43.0 0.4 M35.6 16.65 Q33.65 18.55 30.9 18.55 L28.5 18.15 Q28.25 18.0 28.05 17.95 27.1 17.45 26.25 16.65 24.3 14.7 24.3 11.95 24.3 10.45 24.95 9.2 L24.95 9.15 25.35 8.4 26.25 7.3 Q28.15 5.35 30.9 5.35 33.65 5.35 35.6 7.3 37.5 9.2 37.5 11.95 37.5 14.7 35.6 16.65 M16.75 16.95 L17.4 15.85 Q18.2 14.05 18.2 11.95 18.2 8.2 15.55 5.55 14.4 4.4 13.1 3.8 L13.05 3.75 13.0 3.75 12.5 3.5 Q10.9 2.85 9.1 2.85 5.35 2.85 2.7 5.55 0.0 8.2 0.0 11.95 0.0 15.7 2.7 18.4 4.85 20.55 7.7 20.95 L7.7 21.4 6.45 21.4 Q5.95 21.4 5.6 21.8 5.2 22.15 5.2 22.65 5.2 23.15 5.6 23.55 5.95 23.9 6.45 23.9 L7.7 23.9 7.7 25.6 Q7.7 26.1 8.1 26.5 8.45 26.85 8.95 26.85 9.45 26.85 9.85 26.5 L10.2 25.6 10.2 23.9 11.75 23.9 Q12.25 23.9 12.65 23.55 L13.0 22.65 Q13.0 22.15 12.65 21.8 12.25 21.4 11.75 21.4 L10.2 21.4 10.2 21.0 Q13.25 20.65 15.55 18.4 L16.75 16.95 M15.15 14.75 L14.65 15.55 14.7 15.55 13.8 16.65 Q11.85 18.55 9.1 18.55 6.35 18.55 4.45 16.65 2.5 14.7 2.5 11.95 2.5 9.2 4.45 7.3 6.35 5.35 9.1 5.35 10.4 5.35 11.55 5.8 L11.85 6.0 12.0 6.05 Q12.95 6.45 13.8 7.3 15.7 9.2 15.7 11.95 15.7 13.45 15.1 14.8 L15.15 14.75" fill="none" stroke="#000000" stroke-linecap="round" stroke-linejoin="round" stroke-width="1.0"/>
  </g>
</svg>
