<?xml version="1.0" encoding="UTF-8" standalone="no"?>
<svg xmlns:xlink="http://www.w3.org/1999/xlink" height="29.8px" width="34.55px" xmlns="http://www.w3.org/2000/svg">
  <g transform="matrix(1.0, 0.0, 0.0, 1.0, 0.5, 0.5)">
    <path d="M28.25 6.45 L29.05 6.75 Q29.75 7.0 30.05 7.2 L30.9 7.95 31.7 8.7 32.4 9.1 32.9 9.3 33.4 9.7 33.5 9.95 33.55 10.25 33.55 10.55 33.45 10.8 33.2 11.1 33.0 11.25 32.7 11.3 32.45 11.3 31.85 11.1 31.4 10.8 30.7 10.35 29.6 10.05 Q28.9 9.85 28.55 9.65 L27.55 8.95 26.85 8.3 26.65 8.15 26.35 8.0 25.65 7.55 25.05 7.15 24.25 6.3 23.15 5.1 22.9 6.75 21.6 8.3 Q20.45 9.35 20.25 9.8 20.1 10.2 20.3 11.4 L20.5 13.0 20.05 14.4 19.5 15.3 19.85 15.9 20.6 17.45 20.9 18.55 21.1 19.65 21.35 20.2 21.35 20.3 21.75 20.95 22.3 22.0 22.5 23.1 22.65 24.2 23.0 24.95 23.3 25.45 24.85 25.55 25.55 25.5 26.2 25.65 26.5 26.3 26.6 26.8 23.75 27.8 23.25 28.1 21.55 28.8 21.35 28.35 21.1 27.6 21.25 26.7 21.4 26.15 21.25 25.65 21.0 24.85 20.4 23.95 19.8 22.95 19.45 21.85 19.3 21.1 19.25 21.05 19.0 20.45 18.45 19.5 17.9 18.5 17.4 16.9 17.2 15.9 16.75 15.9 16.35 15.9 16.05 17.0 15.45 18.6 14.85 19.55 14.25 20.5 14.25 20.55 13.95 21.05 13.9 21.1 13.9 21.2 13.75 21.9 13.35 22.95 12.7 23.9 12.0 24.8 11.7 25.55 11.55 26.05 11.7 26.6 11.8 27.5 11.5 28.2 11.25 28.65 9.6 27.9 9.1 27.55 6.3 26.4 6.45 25.9 6.8 25.3 7.45 25.2 8.15 25.25 9.7 25.2 10.0 24.75 10.4 24.05 10.65 22.95 10.9 21.85 Q11.0 21.5 11.45 20.85 L11.85 20.3 12.2 19.55 12.45 18.45 12.8 17.4 13.65 15.9 14.05 15.3 13.5 14.4 13.05 12.95 Q13.0 12.6 13.25 11.4 L13.3 9.8 11.95 8.3 10.65 6.75 Q10.4 6.0 10.4 5.1 L10.05 5.4 9.3 6.25 8.5 7.1 7.9 7.5 6.65 8.25 6.0 8.9 5.95 8.9 5.2 9.55 5.0 9.65 4.85 9.75 4.05 10.0 3.95 10.05 3.9 10.05 3.0 10.35 2.9 10.4 2.75 10.45 2.4 10.7 2.2 10.85 1.75 11.15 1.55 11.25 1.15 11.4 0.8 11.4 0.6 11.3 0.4 11.15 0.15 10.9 0.05 10.7 0.05 10.6 0.0 10.35 0.05 10.05 0.15 9.9 0.2 9.8 0.65 9.4 0.9 9.25 1.15 9.15 1.85 8.75 2.65 7.95 2.7 7.95 3.3 7.35 3.45 7.2 3.5 7.2 3.65 7.1 4.45 6.7 4.5 6.7 4.55 6.7 5.3 6.4 5.35 6.35 5.7 6.0 6.1 5.45 6.55 4.9 7.4 4.25 8.3 3.6 9.2 2.7 9.4 2.55 Q9.6 2.5 9.75 2.4 L10.05 2.35 10.4 2.4 10.65 2.5 10.95 2.75 11.05 2.85 11.2 2.75 14.7 2.15 15.15 0.0 18.35 0.0 18.85 2.15 22.35 2.75 22.5 2.85 22.6 2.75 23.15 2.4 23.5 2.35 23.8 2.4 24.35 2.7 24.7 3.1 25.25 3.65 26.15 4.25 27.0 4.9 27.45 5.45 27.85 6.05 28.05 6.3 28.25 6.45 M21.35 20.3 L21.1 19.65 21.35 20.3 M19.0 20.45 L19.3 21.1 19.0 20.45 M13.9 21.1 L14.25 20.55 13.9 21.1 M14.6 2.75 L14.7 2.15 14.6 2.75 M18.95 2.75 L18.85 2.15 18.95 2.75 M4.5 6.7 L3.65 7.1 4.5 6.7" fill="#ffffff" fill-rule="evenodd" stroke="none"/>
    <path d="M28.25 6.45 L29.05 6.75 Q29.75 7.0 30.05 7.2 L30.9 7.95 31.7 8.7 32.4 9.1 32.9 9.3 33.4 9.7 33.5 9.95 33.55 10.25 33.55 10.55 33.45 10.8 33.2 11.1 33.0 11.25 32.7 11.3 32.45 11.3 31.85 11.1 31.4 10.8 30.7 10.35 29.6 10.05 Q28.9 9.85 28.55 9.65 L27.55 8.95 26.85 8.3 26.35 8.0 25.65 7.55 25.05 7.15 24.25 6.3 23.15 5.1 22.9 6.75 21.6 8.3 Q20.45 9.35 20.25 9.8 20.1 10.2 20.3 11.4 L20.5 13.0 20.05 14.4 19.5 15.3 19.85 15.9 20.6 17.45 20.9 18.55 21.1 19.65 21.35 20.2 21.35 20.3 21.75 20.95 22.3 22.0 22.5 23.1 22.65 24.2 23.0 24.95 23.3 25.45 24.85 25.55 25.55 25.5 26.2 25.65 26.5 26.3 26.6 26.8 23.75 27.8 23.25 28.1 21.55 28.8 21.35 28.35 21.1 27.6 21.25 26.7 21.4 26.15 21.25 25.65 21.0 24.85 20.4 23.95 19.8 22.95 19.45 21.85 19.3 21.1 19.25 21.05 19.0 20.45 18.45 19.5 17.9 18.5 17.4 16.9 17.2 15.9 16.75 15.9 16.35 15.9 16.05 17.0 15.45 18.6 14.85 19.55 14.25 20.5 14.25 20.55 13.95 21.05 13.9 21.1 13.9 21.2 13.75 21.9 13.35 22.95 12.7 23.9 12.0 24.8 11.7 25.55 11.55 26.05 11.7 26.6 11.8 27.5 11.5 28.2 11.25 28.65 9.6 27.9 9.1 27.55 6.3 26.4 6.45 25.9 6.8 25.3 7.45 25.2 8.15 25.25 9.7 25.2 10.0 24.75 10.4 24.05 10.65 22.95 10.9 21.85 Q11.0 21.5 11.45 20.85 L11.85 20.3 12.2 19.55 12.45 18.45 12.8 17.4 13.65 15.9 14.05 15.3 13.5 14.4 13.05 12.95 Q13.0 12.6 13.25 11.4 L13.3 9.8 11.95 8.3 10.65 6.75 Q10.4 6.0 10.4 5.1 L10.05 5.4 9.3 6.25 8.5 7.1 7.9 7.5 6.65 8.25 6.0 8.9 5.95 8.9 5.2 9.55 5.0 9.65 4.85 9.75 4.05 10.0 3.95 10.05 3.9 10.05 3.0 10.35 2.9 10.4 2.75 10.45 2.4 10.7 2.2 10.85 1.75 11.15 1.55 11.25 1.2 11.4 1.15 11.4 0.8 11.4 0.6 11.3 0.4 11.15 0.15 10.9 0.05 10.7 0.05 10.6 0.0 10.35 0.05 10.05 0.15 9.9 0.2 9.8 0.45 9.55 0.65 9.4 0.9 9.25 1.15 9.15 1.85 8.75 2.65 7.95 2.7 7.95 3.3 7.35 3.45 7.2 3.5 7.2 3.65 7.1 4.5 6.7 4.55 6.7 5.35 6.35 5.7 6.0 6.1 5.45 6.55 4.9 7.4 4.25 8.3 3.6 9.2 2.7 9.4 2.55 Q9.6 2.5 9.75 2.4 L10.05 2.35 10.4 2.4 10.65 2.5 10.95 2.75 11.05 2.85 11.2 2.75 14.7 2.15 15.15 0.0 18.35 0.0 18.85 2.15 22.35 2.75 22.5 2.85 22.6 2.75 23.15 2.4 23.5 2.35 23.8 2.4 24.35 2.7 24.7 3.1 25.25 3.65 26.15 4.25 27.0 4.9 27.45 5.45 27.85 6.05 28.25 6.45 28.05 6.3 27.85 6.05 M26.85 8.3 L26.65 8.15 26.35 8.0 M18.85 2.15 L18.95 2.75 M14.7 2.15 L14.6 2.75 M14.25 20.55 L13.9 21.1 M19.3 21.1 L19.0 20.45 M21.1 19.65 L21.35 20.3 M5.3 6.4 L5.35 6.35" fill="none" stroke="#000000" stroke-linecap="round" stroke-linejoin="round" stroke-width="1.0"/>
  </g>
</svg>
