<?xml version="1.0" encoding="UTF-8" standalone="no"?>
<svg xmlns:xlink="http://www.w3.org/1999/xlink" height="18.6px" width="36.05px" xmlns="http://www.w3.org/2000/svg">
  <g transform="matrix(1.0, 0.0, 0.0, 1.0, 0.5, 0.5)">
    <path d="M34.05 15.55 L34.05 17.55 20.9 17.55 13.35 15.0 13.35 17.6 2.0 17.6 2.0 13.5 Q-0.7 10.25 0.25 6.95 L3.35 0.55 Q7.95 3.5 14.05 3.15 L17.1 0.0 Q22.9 2.3 26.1 6.45 L34.05 8.15 Q36.1 11.85 34.05 15.55 L22.5 15.55 13.5 13.5 2.0 13.5 13.5 13.5 22.5 15.55 34.05 15.55 M26.1 6.45 L14.05 3.15 26.1 6.45" fill="#ffffff" fill-rule="evenodd" stroke="none"/>
    <path d="M34.05 15.55 L34.05 17.55 20.9 17.55 13.35 15.0 13.35 17.6 2.0 17.6 2.0 13.5 Q-0.7 10.25 0.25 6.95 L3.35 0.55 Q7.95 3.5 14.05 3.15 L17.1 0.0 Q22.9 2.3 26.1 6.45 L34.05 8.15 Q36.1 11.85 34.05 15.55 L22.5 15.55 13.5 13.5 2.0 13.5" fill="none" stroke="#000000" stroke-linecap="round" stroke-linejoin="round" stroke-width="1.0"/>
    <path d="M14.05 3.15 L26.1 6.45" fill="none" stroke="#000000" stroke-linecap="round" stroke-linejoin="round" stroke-width="0.7000000000000001"/>
  </g>
</svg>
