<?xml version="1.0" encoding="UTF-8" standalone="no"?>
<svg xmlns:xlink="http://www.w3.org/1999/xlink" height="27.35px" width="28.65px" xmlns="http://www.w3.org/2000/svg">
  <g transform="matrix(1.0, 0.0, 0.0, 1.0, 0.5, 0.45)">
    <path d="M13.85 24.7 L13.85 21.4 21.6 8.95 20.45 6.4 21.8 5.25 17.6 0.85 21.8 5.25 20.45 6.4 21.6 8.95 13.85 21.4 13.85 24.7 11.6 26.4 5.55 23.6 5.55 16.55 3.9 7.35 0.0 1.75 3.9 7.35 5.55 16.55 5.55 23.6 5.55 25.6 0.7 25.6 0.7 15.2 0.0 1.75 10.8 0.75 Q13.0 0.0 14.05 0.05 15.1 0.05 17.55 0.85 L17.95 8.6 13.85 21.4 9.8 8.6 10.8 0.75 9.8 8.6 13.85 21.4 17.95 8.6 17.55 0.85 17.6 0.85 17.6 0.75 27.65 1.85 27.0 15.4 27.0 25.6 22.2 25.6 22.2 23.6 16.15 26.4 13.85 24.7 M27.65 1.85 L23.85 7.35 22.2 16.55 22.2 23.6 22.2 16.55 23.85 7.35 27.65 1.85 M10.8 0.75 L5.95 5.25 7.25 6.4 6.15 8.95 13.85 21.4 6.15 8.95 7.25 6.4 5.95 5.25 10.8 0.75" fill="#ffffff" fill-rule="evenodd" stroke="none"/>
    <path d="M17.6 0.85 L21.8 5.25 20.45 6.4 21.6 8.95 13.85 21.4 13.85 24.7 16.15 26.4 22.2 23.6 22.2 16.55 23.85 7.35 27.65 1.85 17.6 0.75 M17.6 0.85 L17.55 0.75 17.55 0.85 Q15.1 0.05 14.05 0.05 13.0 0.0 10.8 0.75 L9.8 8.6 13.85 21.4 17.95 8.6 17.55 0.85 M17.55 0.75 L17.6 0.75 M22.2 23.6 L22.2 25.6 27.0 25.6 27.0 15.4 27.65 1.85 M13.85 21.4 L6.15 8.95 7.25 6.4 5.95 5.25 10.8 0.75 0.0 1.75 3.9 7.35 5.55 16.55 5.55 23.6 11.6 26.4 13.85 24.7 M0.0 1.75 L0.7 15.2 0.7 25.6 5.55 25.6 5.55 23.6" fill="none" stroke="#000000" stroke-linecap="round" stroke-linejoin="round" stroke-width="1.0"/>
  </g>
</svg>
