<?xml version="1.0" encoding="UTF-8" standalone="no"?>
<svg xmlns:xlink="http://www.w3.org/1999/xlink" height="21.3px" width="26.5px" xmlns="http://www.w3.org/2000/svg">
  <g transform="matrix(1.0, 0.0, 0.0, 1.0, 0.5, 0.5)">
    <path d="M5.4 19.9 Q5.2 18.35 4.55 17.45 1.3 18.05 0.0 16.75 4.75 8.4 5.3 0.0 12.35 1.0 20.15 0.0 20.45 8.0 25.5 16.75 24.45 17.75 20.5 17.45 19.9 18.65 20.85 20.15 L20.9 20.25 Q15.95 20.55 12.7 18.75 8.6 20.55 5.4 19.9 7.85 16.9 8.15 11.35 7.85 16.9 5.4 19.9 M17.35 11.35 Q17.9 18.2 20.85 20.15 17.9 18.2 17.35 11.35 M12.35 12.45 L12.7 18.75 12.35 12.45" fill="#ffffff" fill-rule="evenodd" stroke="none"/>
    <path d="M20.85 20.15 Q19.9 18.65 20.5 17.45 24.45 17.75 25.5 16.75 20.45 8.0 20.15 0.0 12.35 1.0 5.3 0.0 4.75 8.4 0.0 16.75 1.3 18.05 4.55 17.45 5.2 18.35 5.4 19.9 8.6 20.55 12.7 18.75 15.95 20.55 20.9 20.25 L20.85 20.15" fill="none" stroke="#000000" stroke-linecap="round" stroke-linejoin="round" stroke-width="1.0"/>
    <path d="M5.4 19.9 Q7.85 16.9 8.15 11.35 M20.85 20.15 Q17.9 18.2 17.35 11.35 M12.7 18.75 L12.35 12.45" fill="none" stroke="#000000" stroke-linecap="round" stroke-linejoin="round" stroke-width="0.7000000000000001"/>
  </g>
</svg>
