<?xml version="1.0" encoding="UTF-8" standalone="no"?>
<svg xmlns:xlink="http://www.w3.org/1999/xlink" height="28.3px" width="21.75px" xmlns="http://www.w3.org/2000/svg">
  <g transform="matrix(1.0, 0.0, 0.0, 1.0, 0.5, 0.5)">
    <path d="M20.75 8.45 L15.5 20.35 15.5 27.3 8.05 27.3 8.05 22.7 3.5 18.85 0.0 12.85 2.0 11.15 5.75 15.35 6.5 13.85 3.7 2.55 6.4 1.3 9.2 11.2 9.2 0.35 11.7 0.0 12.3 10.5 14.0 0.8 16.75 1.3 15.5 11.65 19.55 5.9 20.75 8.45 M13.6 18.6 L14.8 15.3 13.6 18.6 M10.6 18.5 L9.6 15.3 10.6 18.5 M12.1 17.7 L12.1 14.5 12.1 17.7" fill="#ffffff" fill-rule="evenodd" stroke="none"/>
    <path d="M20.75 8.45 L15.5 20.35 15.5 27.3 8.05 27.3 8.05 22.7 3.5 18.85 0.0 12.85 2.0 11.15 5.75 15.35 6.5 13.85 3.7 2.55 6.4 1.3 9.2 11.2 9.2 0.35 11.7 0.0 12.3 10.5 14.0 0.8 16.75 1.3 15.5 11.65 19.55 5.9 20.75 8.45" fill="none" stroke="#000000" stroke-linecap="round" stroke-linejoin="round" stroke-width="1.0"/>
    <path d="M12.1 14.5 L12.1 17.7 M9.6 15.3 L10.6 18.5 M14.8 15.3 L13.6 18.6" fill="none" stroke="#000000" stroke-linecap="round" stroke-linejoin="round" stroke-width="0.7000000000000001"/>
  </g>
</svg>
