<?xml version="1.0" encoding="UTF-8" standalone="no"?>
<svg xmlns:xlink="http://www.w3.org/1999/xlink" height="75.4px" width="134.9px" xmlns="http://www.w3.org/2000/svg">
  <g transform="matrix(1.0, 0.0, 0.0, 1.0, 14.6, -22.15)">
    <path d="M86.5 37.55 Q91.8 42.85 95.2 52.0 97.9 59.0 100.35 71.15 101.0 74.4 99.4 77.45 97.8 80.55 95.35 81.45 86.35 84.45 75.8 85.85 L52.85 87.3 29.9 85.85 Q19.35 84.45 10.35 81.45 7.85 80.55 6.3 77.45 4.7 74.4 5.35 71.15 7.8 59.0 10.5 52.0 13.9 42.85 19.2 37.55 25.45 31.3 33.6 27.65 42.7 23.65 52.85 23.65 63.0 23.65 72.1 27.65 80.25 31.3 86.5 37.55" fill="#5f5f5f" fill-rule="evenodd" stroke="none"/>
    <path d="M86.5 37.55 Q91.8 42.85 95.2 52.0 97.9 59.0 100.35 71.15 101.0 74.4 99.4 77.45 97.8 80.55 95.35 81.45 86.35 84.45 75.8 85.85 L52.85 87.3 29.9 85.85 Q19.35 84.45 10.35 81.45 7.85 80.55 6.3 77.45 4.7 74.4 5.35 71.15 7.8 59.0 10.5 52.0 13.9 42.85 19.2 37.55 25.45 31.3 33.6 27.65 42.7 23.65 52.85 23.65 63.0 23.65 72.1 27.65 80.25 31.3 86.5 37.55 Z" fill="none" stroke="#000000" stroke-linecap="round" stroke-linejoin="round" stroke-width="3.0"/>
    <path d="M4.15 67.3 L9.6 68.8 Q15.65 70.45 18.3 70.8 L35.6 72.75 52.85 73.7 69.55 72.75 86.1 70.8 95.5 68.8 101.35 67.3 101.45 71.5 Q101.45 76.0 101.15 78.05 L98.35 85.25 80.85 88.05 Q61.7 90.8 53.15 90.8 44.35 90.75 24.65 87.7 L6.7 84.7 5.4 82.25 3.9 78.3 Q3.6 76.25 3.85 71.55 L4.15 67.3" fill="#333333" fill-rule="evenodd" stroke="none"/>
    <path d="M4.15 67.3 L9.6 68.8 Q15.65 70.45 18.3 70.8 L35.6 72.75 52.85 73.7 69.55 72.75 86.1 70.8 95.5 68.8 101.35 67.3 101.45 71.5 Q101.45 76.0 101.15 78.05 L98.35 85.25 80.85 88.05 Q61.7 90.8 53.15 90.8 44.35 90.75 24.65 87.7 L6.7 84.7 5.4 82.25 3.9 78.3 Q3.6 76.25 3.85 71.55 L4.15 67.3 Z" fill="none" stroke="#000000" stroke-linecap="round" stroke-linejoin="round" stroke-width="3.0"/>
    <path d="M23.95 94.95 Q6.55 93.2 -5.35 88.0 -10.25 85.85 -12.3 78.5 -14.55 71.05 -10.5 68.15 -7.4 65.9 -2.35 71.85 3.9 79.05 6.15 79.7 16.2 82.45 29.35 84.2 L52.85 85.85 76.45 84.2 Q89.5 82.45 99.55 79.7 101.75 79.05 108.0 71.85 113.1 65.9 116.2 68.15 120.2 71.05 118.0 78.5 115.95 85.8 111.05 88.0 99.3 93.2 82.05 94.95 L53.15 96.05 23.95 94.95" fill="#5f5f5f" fill-rule="evenodd" stroke="none"/>
    <path d="M23.95 94.95 Q6.55 93.2 -5.35 88.0 -10.25 85.85 -12.3 78.5 -14.55 71.05 -10.5 68.15 -7.4 65.9 -2.35 71.85 3.9 79.05 6.15 79.7 16.2 82.45 29.35 84.2 L52.85 85.85 76.45 84.2 Q89.5 82.45 99.55 79.7 101.75 79.05 108.0 71.85 113.1 65.9 116.2 68.15 120.2 71.05 118.0 78.5 115.95 85.8 111.05 88.0 99.3 93.2 82.05 94.95 L53.15 96.05 23.95 94.95 Z" fill="none" stroke="#000000" stroke-linecap="round" stroke-linejoin="round" stroke-width="3.0"/>
  </g>
</svg>
