<?xml version="1.0" encoding="UTF-8" standalone="no"?>
<svg xmlns:xlink="http://www.w3.org/1999/xlink" height="19.65px" width="20.2px" xmlns="http://www.w3.org/2000/svg">
  <g transform="matrix(1.0, 0.0, 0.0, 1.0, -5.05, -2.95)">
    <path d="M20.45 16.15 Q20.9 16.65 20.9 17.4 20.9 18.2 20.35 18.75 19.8 19.3 19.0 19.3 18.2 19.3 17.65 18.75 17.1 18.2 17.1 17.4 17.1 16.6 17.65 16.05 18.2 15.5 19.0 15.5 L19.95 15.75 20.05 15.85 20.45 16.15 20.05 15.85 19.95 15.75 Q19.5 15.2 19.5 14.5 19.5 13.65 20.05 13.1 20.6 12.6 21.45 12.6 22.25 12.6 22.8 13.1 23.35 13.65 23.35 14.5 23.35 15.3 22.8 15.85 22.25 16.4 21.45 16.4 L20.45 16.15 M21.55 12.3 Q21.1 11.85 21.1 11.2 21.1 10.5 21.55 10.05 22.05 9.6 22.7 9.6 23.4 9.6 23.85 10.05 24.3 10.5 24.3 11.2 L23.85 12.3 22.7 12.75 Q22.05 12.75 21.55 12.3 M24.35 6.9 Q24.75 7.25 24.75 7.9 24.75 8.45 24.35 8.85 23.95 9.25 23.35 9.25 22.8 9.25 22.35 8.85 22.0 8.45 22.0 7.9 22.0 7.25 22.35 6.9 22.8 6.5 23.35 6.5 23.95 6.5 24.35 6.9 M21.85 4.8 Q21.85 4.2 22.2 3.85 22.65 3.45 23.2 3.45 23.85 3.45 24.2 3.85 24.6 4.2 24.6 4.8 24.6 5.35 24.2 5.75 23.85 6.15 23.2 6.15 22.65 6.15 22.2 5.75 21.85 5.35 21.85 4.8 M6.1 3.85 Q6.5 3.45 7.1 3.45 7.65 3.45 8.1 3.85 8.45 4.2 8.45 4.8 L8.1 5.75 Q7.65 6.15 7.1 6.15 6.5 6.15 6.1 5.75 5.7 5.35 5.7 4.8 5.7 4.2 6.1 3.85 M8.3 7.9 L7.95 8.85 Q7.5 9.25 6.95 9.25 6.35 9.25 6.0 8.85 5.55 8.45 5.55 7.9 5.55 7.25 6.0 6.9 6.35 6.5 6.95 6.5 L7.95 6.9 Q8.3 7.25 8.3 7.9 M6.5 10.05 Q6.95 9.6 7.6 9.6 8.3 9.6 8.75 10.05 9.2 10.5 9.2 11.2 9.2 11.85 8.75 12.3 8.3 12.75 7.6 12.75 6.95 12.75 6.5 12.3 6.0 11.85 6.0 11.2 6.0 10.5 6.5 10.05 M7.55 15.85 Q7.0 15.3 7.0 14.5 7.0 13.65 7.55 13.1 8.1 12.6 8.9 12.6 9.7 12.6 10.25 13.1 10.8 13.65 10.8 14.5 L10.35 15.75 11.3 15.5 Q12.1 15.5 12.65 16.05 13.2 16.6 13.2 17.4 13.2 18.2 12.65 18.75 12.1 19.3 11.3 19.3 10.5 19.3 9.95 18.75 9.4 18.2 9.4 17.4 9.4 16.7 9.85 16.15 L8.9 16.4 Q8.1 16.4 7.55 15.85 M16.9 17.95 Q17.6 18.7 17.6 19.65 17.6 20.65 16.9 21.35 L16.45 21.7 Q15.9 22.1 15.2 22.1 14.2 22.1 13.5 21.35 12.8 20.65 12.8 19.65 12.8 18.7 13.5 17.95 14.2 17.25 15.2 17.25 15.9 17.25 16.45 17.6 L16.9 17.95 M9.85 16.15 L10.25 15.85 10.35 15.75 10.25 15.85 9.85 16.15" fill="#ffffff" fill-rule="evenodd" stroke="none"/>
    <path d="M21.85 4.8 Q21.85 5.35 22.2 5.75 22.65 6.15 23.2 6.15 23.85 6.15 24.2 5.75 24.6 5.35 24.6 4.8 24.6 4.2 24.2 3.85 23.85 3.45 23.2 3.45 22.65 3.45 22.2 3.85 21.85 4.2 21.85 4.8 M24.35 6.9 Q23.95 6.5 23.35 6.5 22.8 6.5 22.35 6.9 22.0 7.25 22.0 7.9 22.0 8.45 22.35 8.85 22.8 9.25 23.35 9.25 23.95 9.25 24.35 8.85 24.75 8.45 24.75 7.9 24.75 7.25 24.35 6.9 M21.55 12.3 Q22.05 12.75 22.7 12.75 L23.85 12.3 24.3 11.2 Q24.3 10.5 23.85 10.05 23.4 9.6 22.7 9.6 22.05 9.6 21.55 10.05 21.1 10.5 21.1 11.2 21.1 11.85 21.55 12.3 M19.95 15.75 L19.0 15.5 Q18.2 15.5 17.65 16.05 17.1 16.6 17.1 17.4 17.1 18.2 17.65 18.75 18.2 19.3 19.0 19.3 19.8 19.3 20.35 18.75 20.9 18.2 20.9 17.4 20.9 16.65 20.45 16.15 L20.05 15.85 19.95 15.75 Q19.5 15.2 19.5 14.5 19.5 13.65 20.05 13.1 20.6 12.6 21.45 12.6 22.25 12.6 22.8 13.1 23.35 13.65 23.35 14.5 23.35 15.3 22.8 15.85 22.25 16.4 21.45 16.4 L20.45 16.15 M6.1 3.85 Q6.5 3.45 7.1 3.45 7.65 3.45 8.1 3.85 8.45 4.2 8.45 4.8 L8.1 5.75 Q7.65 6.15 7.1 6.15 6.5 6.15 6.1 5.75 5.7 5.35 5.7 4.8 5.7 4.2 6.1 3.85 M8.3 7.9 L7.95 8.85 Q7.5 9.25 6.95 9.25 6.35 9.25 6.0 8.85 5.55 8.45 5.55 7.9 5.55 7.25 6.0 6.9 6.35 6.5 6.95 6.5 L7.95 6.9 Q8.3 7.25 8.3 7.9 M6.5 10.05 Q6.95 9.6 7.6 9.6 8.3 9.6 8.75 10.05 9.2 10.5 9.2 11.2 9.2 11.85 8.75 12.3 8.3 12.75 7.6 12.75 6.95 12.75 6.5 12.3 6.0 11.85 6.0 11.2 6.0 10.5 6.5 10.05 M7.55 15.85 Q7.0 15.3 7.0 14.5 7.0 13.65 7.55 13.1 8.1 12.6 8.9 12.6 9.7 12.6 10.25 13.1 10.8 13.65 10.8 14.5 L10.35 15.75 11.3 15.5 Q12.1 15.5 12.65 16.05 13.2 16.6 13.2 17.4 13.2 18.2 12.65 18.75 12.1 19.3 11.3 19.3 10.5 19.3 9.95 18.75 9.4 18.2 9.4 17.4 9.4 16.7 9.85 16.15 L8.9 16.4 Q8.1 16.4 7.55 15.85 M16.9 17.95 Q17.6 18.7 17.6 19.65 17.6 20.65 16.9 21.35 L16.45 21.7 Q15.9 22.1 15.2 22.1 14.2 22.1 13.5 21.35 12.8 20.65 12.8 19.65 12.8 18.7 13.5 17.95 14.2 17.25 15.2 17.25 15.9 17.25 16.45 17.6 L16.9 17.95 M10.35 15.75 L10.25 15.85 9.85 16.15" fill="none" stroke="#000000" stroke-linecap="round" stroke-linejoin="round" stroke-width="1.0"/>
  </g>
</svg>
