<?xml version="1.0" encoding="UTF-8" standalone="no"?>
<svg xmlns:xlink="http://www.w3.org/1999/xlink" height="19.65px" width="8.95px" xmlns="http://www.w3.org/2000/svg">
  <g transform="matrix(1.0, 0.0, 0.0, 1.0, 0.5, 0.5)">
    <path d="M5.65 4.8 L6.15 6.5 7.3 11.45 7.95 14.6 3.9 18.65 0.0 14.6 0.7 11.45 1.8 6.5 2.25 4.8 2.6 3.85 1.7 2.45 1.35 0.95 1.2 0.0 6.65 0.0 6.5 1.0 6.05 2.7 5.4 3.85 5.65 4.8 M5.4 3.85 L2.6 3.85 5.4 3.85" fill="#ffffff" fill-rule="evenodd" stroke="none"/>
    <path d="M5.65 4.8 L6.15 6.5 7.3 11.45 7.95 14.6 3.9 18.65 0.0 14.6 0.7 11.45 1.8 6.5 2.25 4.8 2.6 3.85 1.7 2.45 1.35 0.95 1.2 0.0 6.65 0.0 6.5 1.0 6.05 2.7 5.4 3.85 5.65 4.8 M2.6 3.85 L5.4 3.85" fill="none" stroke="#000000" stroke-linecap="round" stroke-linejoin="round" stroke-width="1.0"/>
  </g>
</svg>
