<?xml version="1.0" encoding="UTF-8" standalone="no"?>
<svg xmlns:xlink="http://www.w3.org/1999/xlink" height="22.2px" width="14.75px" xmlns="http://www.w3.org/2000/svg">
  <g transform="matrix(1.0, 0.0, 0.0, 1.0, 0.5, 0.5)">
    <path d="M11.85 9.75 L11.85 5.95 Q11.85 4.55 10.4 3.25 L9.1 2.3 7.15 1.8 6.9 1.8 6.8 1.8 6.6 1.8 4.95 2.15 3.2 3.25 Q1.85 4.55 1.85 5.95 L1.9 9.75 1.15 9.9 0.9 9.9 0.2 9.95 0.2 5.8 Q0.2 3.95 2.1 2.2 3.45 0.95 5.2 0.3 L8.8 0.45 Q10.35 1.1 11.55 2.2 13.45 3.95 13.45 5.8 L13.45 9.95 12.85 9.9 12.55 9.9 11.85 9.75 M11.75 9.9 L12.25 9.95 Q13.75 10.15 13.75 11.9 L13.75 18.55 Q13.75 20.55 11.95 20.85 7.15 21.5 2.15 20.95 0.0 20.55 0.0 18.55 L0.0 11.9 Q0.0 10.2 1.45 9.95 L2.0 9.9 11.75 9.9 M12.3 11.65 Q11.7 15.4 9.55 15.9 L4.5 15.9 Q2.3 15.4 1.2 11.65 2.3 15.4 4.5 15.9 L9.55 15.9 Q11.7 15.4 12.3 11.65 M6.1 14.15 L6.35 14.6 7.1 14.85 7.8 14.6 8.1 14.15 7.8 13.65 7.1 13.5 6.35 13.65 6.1 14.15 6.35 13.65 7.1 13.5 7.8 13.65 8.1 14.15 7.8 14.6 7.1 14.85 6.35 14.6 6.1 14.15" fill="#ffffff" fill-rule="evenodd" stroke="none"/>
    <path d="M11.85 9.75 L11.85 5.95 Q11.85 4.55 10.4 3.25 L9.1 2.3 7.15 1.8 6.9 1.8 6.8 1.8 6.6 1.8 4.95 2.15 3.2 3.25 Q1.85 4.55 1.85 5.95 L1.9 9.75 M0.2 9.95 L0.2 5.8 Q0.2 3.95 2.1 2.2 3.45 0.95 5.2 0.3 L8.8 0.45 Q10.35 1.1 11.55 2.2 13.45 3.95 13.45 5.8 L13.45 9.95 M11.75 9.9 L2.0 9.9 1.45 9.95 Q0.0 10.2 0.0 11.9 L0.0 18.55 Q0.0 20.55 2.15 20.95 7.15 21.5 11.95 20.85 13.75 20.55 13.75 18.55 L13.75 11.9 Q13.75 10.15 12.25 9.95 L11.75 9.9" fill="none" stroke="#000000" stroke-linecap="round" stroke-linejoin="round" stroke-width="1.0"/>
    <path d="M6.1 14.15 L6.35 13.65 7.1 13.5 7.8 13.65 8.1 14.15 7.8 14.6 7.1 14.85 6.35 14.6 6.1 14.15 M1.2 11.65 Q2.3 15.4 4.5 15.9 L9.55 15.9 Q11.7 15.4 12.3 11.65" fill="none" stroke="#000000" stroke-linecap="round" stroke-linejoin="round" stroke-width="0.7000000000000001"/>
  </g>
</svg>
