<?xml version="1.0" encoding="UTF-8" standalone="no"?>
<svg xmlns:xlink="http://www.w3.org/1999/xlink" height="202.0px" width="402.0px" xmlns="http://www.w3.org/2000/svg">
  <g transform="matrix(1.0, 0.0, 0.0, 1.0, 201.0, 101.0)">
    <path d="M-200.0 -70.0 Q-200.0 -82.4 -188.25 -91.2 -176.55 -100.0 -160.0 -100.0 L160.0 -100.0 Q176.55 -100.0 188.25 -91.2 200.0 -82.4 200.0 -70.0 L200.0 70.0 Q200.0 82.4 188.25 91.2 176.55 100.0 160.0 100.0 L-160.0 100.0 Q-176.55 100.0 -188.25 91.2 -200.0 82.4 -200.0 70.0 L-200.0 -70.0" fill="#ffffff" fill-rule="evenodd" stroke="none"/>
    <path d="M-200.0 -70.0 L-200.0 70.0 Q-200.0 82.4 -188.25 91.2 -176.55 100.0 -160.0 100.0 L160.0 100.0 Q176.55 100.0 188.25 91.2 200.0 82.4 200.0 70.0 L200.0 -70.0 Q200.0 -82.4 188.25 -91.2 176.55 -100.0 160.0 -100.0 L-160.0 -100.0 Q-176.55 -100.0 -188.25 -91.2 -200.0 -82.4 -200.0 -70.0 Z" fill="none" stroke="#000000" stroke-linecap="round" stroke-linejoin="round" stroke-width="2.0"/>
  </g>
</svg>
