<?xml version="1.0" encoding="UTF-8" standalone="no"?>
<svg xmlns:xlink="http://www.w3.org/1999/xlink" height="10.5px" width="20.45px" xmlns="http://www.w3.org/2000/svg">
  <g transform="matrix(1.0, 0.0, 0.0, 1.0, 10.2, 2.95)">
    <path d="M-9.7 0.5 L-9.7 0.4 Q-9.65 -0.8 -6.85 -1.65 L0.05 -2.45 Q4.05 -2.4 6.9 -1.5 9.75 -0.6 9.75 0.6 L9.75 0.7 9.75 3.35 Q9.7 4.5 6.9 5.3 L3.25 6.0 Q3.25 7.05 2.25 7.05 L-2.2 7.0 Q-3.2 7.0 -3.2 5.9 L-3.9 5.8 -7.55 6.0 Q-7.95 6.0 -8.25 5.65 L-8.55 5.1 -8.55 4.5 Q-9.55 3.95 -9.65 3.3 L-9.65 2.85 -9.7 0.75 -9.65 0.75 -9.7 0.5 M-8.65 1.75 L-9.65 0.75 -8.65 1.75 -6.85 2.5 -3.65 3.2 -3.15 3.25 Q-3.0 2.5 -2.2 2.5 L2.25 2.55 Q3.05 2.55 3.25 3.3 L6.9 2.65 8.7 1.95 6.9 1.15 Q4.05 0.3 0.05 0.2 -3.95 0.2 -6.85 1.05 -7.95 1.35 -8.65 1.75 M9.75 0.7 Q9.75 1.35 8.7 1.95 9.75 1.35 9.75 0.7 M3.25 6.0 L3.25 3.65 3.25 3.3 3.25 3.65 3.25 6.0 M-3.2 5.9 L-3.2 3.6 -3.15 3.25 -3.2 3.6 -3.2 5.9 M0.0 5.85 L1.3 5.55 Q1.85 5.3 1.85 4.85 1.85 4.4 1.3 4.05 L0.0 3.75 -1.3 4.05 Q-1.85 4.35 -1.85 4.8 -1.85 5.25 -1.3 5.55 L0.0 5.85 -1.3 5.55 Q-1.85 5.25 -1.85 4.8 -1.85 4.35 -1.3 4.05 L0.0 3.75 1.3 4.05 Q1.85 4.4 1.85 4.85 1.85 5.3 1.3 5.55 L0.0 5.85 M-8.55 4.5 L-8.55 4.25 -8.25 3.6 -7.55 3.4 -3.65 3.2 -7.55 3.4 -8.25 3.6 -8.55 4.25 -8.55 4.5" fill="#ffffff" fill-rule="evenodd" stroke="none"/>
    <path d="M-9.7 0.5 L-9.7 0.4 Q-9.65 -0.8 -6.85 -1.65 L0.05 -2.45 Q4.05 -2.4 6.9 -1.5 9.75 -0.6 9.75 0.6 L9.75 0.7 9.75 3.35 Q9.7 4.5 6.9 5.3 L3.25 6.0 Q3.25 7.05 2.25 7.05 L-2.2 7.0 Q-3.2 7.0 -3.2 5.9 L-3.9 5.8 -7.55 6.0 Q-7.95 6.0 -8.25 5.65 L-8.55 5.1 -8.55 4.5 Q-9.55 3.95 -9.65 3.3 L-9.7 3.1 -9.65 2.85 -9.7 0.75 -9.7 0.5 -9.65 0.75 -8.65 1.75 Q-7.95 1.35 -6.85 1.05 -3.95 0.2 0.05 0.2 4.05 0.3 6.9 1.15 L8.7 1.95 Q9.75 1.35 9.75 0.7 M8.7 1.95 L6.9 2.65 3.25 3.3 3.25 3.65 3.25 6.0 M3.25 3.3 Q3.05 2.55 2.25 2.55 L-2.2 2.5 Q-3.0 2.5 -3.15 3.25 L-3.2 3.6 -3.2 5.9 M-3.15 3.25 L-3.65 3.2 -7.55 3.4 -8.25 3.6 -8.55 4.25 -8.55 4.5 M-9.65 2.85 L-9.65 3.3 M-3.65 3.2 L-6.85 2.5 -8.65 1.75" fill="none" stroke="#000000" stroke-linecap="round" stroke-linejoin="round" stroke-width="1.0"/>
    <path d="M0.0 5.85 L-1.3 5.55 Q-1.85 5.25 -1.85 4.8 -1.85 4.35 -1.3 4.05 L0.0 3.75 1.3 4.05 Q1.85 4.4 1.85 4.85 1.85 5.3 1.3 5.55 L0.0 5.85" fill="none" stroke="#000000" stroke-linecap="round" stroke-linejoin="round" stroke-width="0.5"/>
  </g>
</svg>
