<?xml version="1.0" encoding="UTF-8" standalone="no"?>
<svg xmlns:xlink="http://www.w3.org/1999/xlink" height="25.8px" width="35.7px" xmlns="http://www.w3.org/2000/svg">
  <g transform="matrix(1.0, 0.0, 0.0, 1.0, 4.35, 1.95)">
    <path d="M8.45 -0.05 Q8.45 -0.75 9.3 -1.45 11.3 -0.35 13.45 -0.35 15.6 -0.35 17.6 -1.45 18.45 -0.75 18.45 -0.05 L18.45 0.0 17.95 0.95 Q15.75 2.15 13.45 2.15 11.15 2.15 8.95 0.95 8.5 0.5 8.45 0.0 L8.45 -0.05 8.45 0.0 Q8.5 0.5 8.95 0.95 11.15 2.15 13.45 2.15 15.75 2.15 17.95 0.95 L18.45 0.0 18.45 -0.05 Q22.95 -0.3 24.55 3.85 L29.95 17.85 Q31.15 18.35 30.75 19.45 28.7 21.35 25.7 21.75 24.45 21.45 24.9 20.15 L20.35 6.9 20.35 20.45 Q21.55 21.55 20.35 22.6 13.0 24.1 6.65 22.6 5.55 21.65 6.65 20.45 L6.65 6.9 2.1 20.15 Q2.55 21.45 1.3 21.75 -1.7 21.35 -3.75 19.45 -4.15 18.35 -2.95 17.85 L2.45 3.85 Q4.05 -0.3 8.45 -0.05 M2.1 20.15 Q-0.9 19.75 -2.95 17.85 -0.9 19.75 2.1 20.15 M20.35 20.45 Q13.0 22.0 6.65 20.45 13.0 22.0 20.35 20.45 M24.9 20.15 Q27.9 19.75 29.95 17.85 27.9 19.75 24.9 20.15" fill="#ffffff" fill-rule="evenodd" stroke="none"/>
    <path d="M18.45 -0.05 Q18.45 -0.75 17.6 -1.45 15.6 -0.35 13.45 -0.35 11.3 -0.35 9.3 -1.45 8.45 -0.75 8.45 -0.05 L8.45 0.0 Q8.5 0.5 8.95 0.95 11.15 2.15 13.45 2.15 15.75 2.15 17.95 0.95 L18.45 0.0 18.45 -0.05 Q22.95 -0.3 24.55 3.85 L29.95 17.85 Q31.15 18.35 30.75 19.45 28.7 21.35 25.7 21.75 24.45 21.45 24.9 20.15 L20.35 6.9 20.35 20.45 Q21.55 21.55 20.35 22.6 13.0 24.1 6.65 22.6 5.55 21.65 6.65 20.45 L6.65 6.9 2.1 20.15 Q2.55 21.45 1.3 21.75 -1.7 21.35 -3.75 19.45 -4.15 18.35 -2.95 17.85 L2.45 3.85 Q4.05 -0.3 8.45 -0.05 M29.95 17.85 Q27.9 19.75 24.9 20.15 M6.65 20.45 Q13.0 22.0 20.35 20.45 M-2.95 17.85 Q-0.9 19.75 2.1 20.15" fill="none" stroke="#000000" stroke-linecap="round" stroke-linejoin="round" stroke-width="1.0"/>
  </g>
</svg>
