<?xml version="1.0" encoding="UTF-8" standalone="no"?>
<svg xmlns:xlink="http://www.w3.org/1999/xlink" height="40.8px" width="56.0px" xmlns="http://www.w3.org/2000/svg">
  <g transform="matrix(1.0, 0.0, 0.0, 1.0, -0.5, 4.95)">
    <path d="M55.5 15.45 Q55.5 23.5 47.6 29.2 39.65 34.85 28.5 34.85 17.3 34.85 9.4 29.2 1.5 23.5 1.5 15.45 1.5 7.45 9.4 1.75 17.3 -3.95 28.5 -3.95 39.65 -3.95 47.6 1.75 55.5 7.45 55.5 15.45" fill="#ff3600" fill-rule="evenodd" stroke="none"/>
    <path d="M55.5 15.45 Q55.5 23.5 47.6 29.2 39.65 34.85 28.5 34.85 17.3 34.85 9.4 29.2 1.5 23.5 1.5 15.45 1.5 7.45 9.4 1.75 17.3 -3.95 28.5 -3.95 39.65 -3.95 47.6 1.75 55.5 7.45 55.5 15.45 Z" fill="none" stroke="#ffffff" stroke-linecap="round" stroke-linejoin="round" stroke-width="2.0"/>
  </g>
</svg>
