<?xml version="1.0" encoding="UTF-8" standalone="no"?>
<svg xmlns:xlink="http://www.w3.org/1999/xlink" height="372.0px" width="302.0px" xmlns="http://www.w3.org/2000/svg">
  <g transform="matrix(1.0, 0.0, 0.0, 1.0, 1.0, 1.0)">
    <path d="M300.0 0.0 L300.0 370.0 0.0 370.0 0.0 0.0 300.0 0.0" fill="#ffffff" fill-rule="evenodd" stroke="none"/>
    <path d="M300.0 0.0 L300.0 370.0 0.0 370.0 0.0 0.0 300.0 0.0 Z" fill="none" stroke="#000000" stroke-linecap="round" stroke-linejoin="round" stroke-width="2.0"/>
    <path d="M222.15 48.85 Q219.6 46.3 215.95 46.3 212.3 46.3 209.7 48.85 208.85 49.7 208.3 50.7 207.15 52.65 207.15 55.1 L207.2 55.7 Q207.35 58.95 209.7 61.3 212.3 63.9 215.95 63.9 219.6 63.9 222.15 61.3 L223.6 59.5 Q224.6 57.8 224.75 55.7 L224.75 55.1 Q224.75 51.45 222.15 48.85 M219.9 42.45 Q225.25 42.45 229.05 46.25 232.85 50.05 232.85 55.4 L232.85 55.7 Q232.75 60.85 229.05 64.55 225.25 68.35 219.9 68.35 L90.5 68.35 Q85.15 68.35 81.35 64.55 77.65 60.85 77.55 55.7 L77.55 55.4 Q77.55 50.05 81.35 46.25 85.15 42.45 90.5 42.45 L219.9 42.45 M186.25 46.3 L186.15 46.3 Q182.5 46.3 179.9 48.85 179.05 49.7 178.5 50.7 177.35 52.65 177.35 55.1 L177.4 55.7 Q177.5 57.8 178.5 59.5 L179.9 61.3 Q182.5 63.9 186.15 63.9 189.8 63.9 192.35 61.3 L193.8 59.55 193.85 59.55 Q194.8 57.8 194.95 55.7 L194.95 55.1 Q194.95 51.45 192.35 48.85 189.85 46.35 186.25 46.3 M162.65 61.3 L164.1 59.55 Q165.1 57.8 165.25 55.7 L165.25 55.1 Q165.25 51.45 162.65 48.85 160.15 46.35 156.55 46.3 L156.45 46.3 Q152.8 46.3 150.2 48.85 147.65 51.45 147.65 55.1 L147.7 55.7 Q147.8 57.8 148.8 59.5 L150.2 61.3 Q152.8 63.9 156.45 63.9 L156.5 63.9 Q160.1 63.9 162.65 61.3 M77.45 141.65 L236.55 141.7 242.05 141.65 237.75 148.95 156.4 289.75 70.85 141.75 70.85 141.65 74.85 141.65 76.2 141.7 77.45 141.65 M88.2 151.75 L70.85 141.75 76.2 141.7 70.85 141.75 88.2 151.75 Q87.05 153.75 87.05 156.2 87.05 158.85 88.4 160.9 L88.95 161.7 89.6 162.45 Q92.2 165.0 95.85 165.0 99.5 165.0 102.05 162.45 L103.5 160.6 Q104.65 158.65 104.65 156.2 104.65 152.55 102.05 150.0 100.1 148.0 97.45 147.5 L95.85 147.4 94.85 147.45 Q91.85 147.75 89.6 150.0 88.75 150.85 88.2 151.75 M118.45 169.2 L103.5 160.6 118.45 169.2 118.45 169.25 Q117.3 171.2 117.3 173.65 117.3 177.3 119.85 179.9 122.45 182.45 126.1 182.45 L126.2 182.45 Q129.8 182.4 132.3 179.9 L133.75 178.05 Q134.9 176.1 134.9 173.65 134.9 171.2 133.75 169.2 L132.3 167.45 Q129.75 164.85 126.1 164.85 122.45 164.85 119.85 167.45 L118.45 169.2 M148.7 186.7 L133.75 178.05 148.7 186.7 Q147.55 188.65 147.55 191.1 147.55 194.75 150.1 197.35 152.7 199.9 156.35 199.9 L156.45 199.9 Q160.05 199.85 162.55 197.35 165.15 194.75 165.15 191.1 165.15 188.65 164.0 186.65 L162.55 184.9 Q160.0 182.3 156.35 182.3 152.7 182.3 150.1 184.9 149.25 185.75 148.7 186.7 M178.5 178.25 L164.0 186.65 178.5 178.25 179.9 180.1 Q182.5 182.65 186.15 182.65 L186.25 182.65 Q189.85 182.6 192.35 180.1 194.95 177.5 194.95 173.85 194.95 171.4 193.85 169.4 L193.8 169.4 192.35 167.65 Q189.8 165.05 186.15 165.05 182.5 165.05 179.9 167.65 179.05 168.5 178.5 169.45 177.35 171.4 177.35 173.85 177.35 176.3 178.5 178.25 M208.3 161.05 L193.85 169.4 208.3 161.05 Q208.85 162.05 209.7 162.9 212.3 165.45 215.95 165.45 219.6 165.45 222.15 162.9 224.75 160.3 224.75 156.65 224.75 154.2 223.6 152.25 L222.15 150.45 Q219.6 147.85 215.95 147.85 212.3 147.85 209.7 150.45 207.15 153.0 207.15 156.65 207.15 159.1 208.3 161.05 M236.55 141.7 L241.8 141.75 223.6 152.25 241.8 141.75 236.55 141.7 M156.45 217.5 L156.45 199.9 156.45 217.5 Q152.8 217.5 150.2 220.1 149.35 220.95 148.8 221.9 147.65 223.85 147.65 226.3 147.65 229.95 150.2 232.55 152.8 235.1 156.45 235.1 L156.55 235.1 Q160.15 235.05 162.65 232.55 165.25 229.95 165.25 226.3 165.25 223.85 164.1 221.85 L162.65 220.1 Q160.1 217.5 156.5 217.5 L156.45 217.5 M156.45 252.7 L156.45 235.1 156.45 252.7 156.4 252.7 Q152.75 252.7 150.15 255.3 149.3 256.15 148.75 257.1 147.6 259.05 147.6 261.5 147.6 265.15 150.15 267.75 152.75 270.3 156.4 270.3 L156.45 270.3 156.5 270.3 Q160.1 270.25 162.6 267.75 165.2 265.15 165.2 261.5 165.2 259.05 164.05 257.05 L162.6 255.3 Q160.05 252.7 156.45 252.7 M156.4 289.75 L156.45 270.3 156.4 289.75 M241.8 141.75 L237.75 148.95 241.8 141.75 M95.85 46.35 Q92.2 46.35 89.6 48.9 L88.95 49.65 88.4 50.45 Q87.05 52.5 87.05 55.15 L87.1 55.7 Q87.2 57.85 88.2 59.6 L89.6 61.35 Q91.85 63.6 94.85 63.9 L97.45 63.85 Q100.1 63.35 102.05 61.35 104.45 59.0 104.65 55.7 L104.65 55.15 Q104.65 52.7 103.5 50.75 L102.05 48.9 Q99.5 46.35 95.85 46.35 M126.2 46.3 L126.1 46.3 Q122.45 46.3 119.85 48.85 117.3 51.45 117.3 55.1 L117.35 55.7 Q117.45 57.8 118.45 59.5 L118.45 59.55 119.85 61.3 Q122.45 63.9 126.1 63.9 129.75 63.9 132.3 61.3 L133.75 59.55 Q134.75 57.8 134.9 55.7 L134.9 55.1 Q134.9 52.65 133.75 50.7 L132.3 48.85 Q129.8 46.35 126.2 46.3" fill="#cccccc" fill-rule="evenodd" stroke="none"/>
    <path d="M222.15 48.85 Q224.75 51.45 224.75 55.1 L224.75 55.7 Q224.6 57.8 223.6 59.5 L222.15 61.3 Q219.6 63.9 215.95 63.9 212.3 63.9 209.7 61.3 207.35 58.95 207.2 55.7 L207.15 55.1 Q207.15 52.65 208.3 50.7 208.85 49.7 209.7 48.85 212.3 46.3 215.95 46.3 219.6 46.3 222.15 48.85 M186.25 46.3 Q189.85 46.35 192.35 48.85 194.95 51.45 194.95 55.1 L194.95 55.7 Q194.8 57.8 193.85 59.55 L193.8 59.55 192.35 61.3 Q189.8 63.9 186.15 63.9 182.5 63.9 179.9 61.3 L178.5 59.5 Q177.5 57.8 177.4 55.7 L177.35 55.1 Q177.35 52.65 178.5 50.7 179.05 49.7 179.9 48.85 182.5 46.3 186.15 46.3 L186.25 46.3 M88.2 151.75 Q88.75 150.85 89.6 150.0 91.85 147.75 94.85 147.45 L95.85 147.4 97.45 147.5 Q100.1 148.0 102.05 150.0 104.65 152.55 104.65 156.2 104.65 158.65 103.5 160.6 L102.05 162.45 Q99.5 165.0 95.85 165.0 92.2 165.0 89.6 162.45 L88.95 161.7 88.4 160.9 Q87.05 158.85 87.05 156.2 87.05 153.75 88.2 151.75 M118.45 169.2 L119.85 167.45 Q122.45 164.85 126.1 164.85 129.75 164.85 132.3 167.45 L133.75 169.2 Q134.9 171.2 134.9 173.65 134.9 176.1 133.75 178.05 L132.3 179.9 Q129.8 182.4 126.2 182.45 L126.1 182.45 Q122.45 182.45 119.85 179.9 117.3 177.3 117.3 173.65 117.3 171.2 118.45 169.25 L118.45 169.2 M178.5 178.25 Q177.35 176.3 177.35 173.85 177.35 171.4 178.5 169.45 179.05 168.5 179.9 167.65 182.5 165.05 186.15 165.05 189.8 165.05 192.35 167.65 L193.8 169.4 193.85 169.4 Q194.95 171.4 194.95 173.85 194.95 177.5 192.35 180.1 189.85 182.6 186.25 182.65 L186.15 182.65 Q182.5 182.65 179.9 180.1 L178.5 178.25 M208.3 161.05 Q207.15 159.1 207.15 156.65 207.15 153.0 209.7 150.45 212.3 147.85 215.95 147.85 219.6 147.85 222.15 150.45 L223.6 152.25 Q224.75 154.2 224.75 156.65 224.75 160.3 222.15 162.9 219.6 165.45 215.95 165.45 212.3 165.45 209.7 162.9 208.85 162.05 208.3 161.05 M156.45 217.5 L156.5 217.5 Q160.1 217.5 162.65 220.1 L164.1 221.85 Q165.25 223.85 165.25 226.3 165.25 229.95 162.65 232.55 160.15 235.05 156.55 235.1 L156.45 235.1 Q152.8 235.1 150.2 232.55 147.65 229.95 147.65 226.3 147.65 223.85 148.8 221.9 149.35 220.95 150.2 220.1 152.8 217.5 156.45 217.5 M156.45 252.7 Q160.05 252.7 162.6 255.3 L164.05 257.05 Q165.2 259.05 165.2 261.5 165.2 265.15 162.6 267.75 160.1 270.25 156.5 270.3 L156.45 270.3 156.4 270.3 Q152.75 270.3 150.15 267.75 147.6 265.15 147.6 261.5 147.6 259.05 148.75 257.1 149.3 256.15 150.15 255.3 152.75 252.7 156.4 252.7 L156.45 252.7 M126.2 46.3 Q129.8 46.35 132.3 48.85 L133.75 50.7 Q134.9 52.65 134.9 55.1 L134.9 55.7 Q134.75 57.8 133.75 59.55 L132.3 61.3 Q129.75 63.9 126.1 63.9 122.45 63.9 119.85 61.3 L118.45 59.55 118.45 59.5 Q117.45 57.8 117.35 55.7 L117.3 55.1 Q117.3 51.45 119.85 48.85 122.45 46.3 126.1 46.3 L126.2 46.3 M95.85 46.35 Q99.5 46.35 102.05 48.9 L103.5 50.75 Q104.65 52.7 104.65 55.15 L104.65 55.7 Q104.45 59.0 102.05 61.35 100.1 63.35 97.45 63.85 L94.85 63.9 Q91.85 63.6 89.6 61.35 L88.2 59.6 Q87.2 57.85 87.1 55.7 L87.05 55.15 Q87.05 52.5 88.4 50.45 L88.95 49.65 89.6 48.9 Q92.2 46.35 95.85 46.35 M94.85 147.45 L97.45 147.5 94.85 147.45" fill="#00ccff" fill-rule="evenodd" stroke="none"/>
    <path d="M162.65 61.3 Q160.1 63.9 156.5 63.9 L156.45 63.9 Q152.8 63.9 150.2 61.3 L148.8 59.5 Q147.8 57.8 147.7 55.7 L147.65 55.1 Q147.65 51.45 150.2 48.85 152.8 46.3 156.45 46.3 L156.55 46.3 Q160.15 46.35 162.65 48.85 165.25 51.45 165.25 55.1 L165.25 55.7 Q165.1 57.8 164.1 59.55 L162.65 61.3 M148.7 186.7 Q149.25 185.75 150.1 184.9 152.7 182.3 156.35 182.3 160.0 182.3 162.55 184.9 L164.0 186.65 Q165.15 188.65 165.15 191.1 165.15 194.75 162.55 197.35 160.05 199.85 156.45 199.9 L156.35 199.9 Q152.7 199.9 150.1 197.35 147.55 194.75 147.55 191.1 147.55 188.65 148.7 186.7" fill="#33ff00" fill-rule="evenodd" stroke="none"/>
    <path d="M222.15 48.85 Q224.75 51.45 224.75 55.1 L224.75 55.7 Q224.6 57.8 223.6 59.5 L222.15 61.3 Q219.6 63.9 215.95 63.9 212.3 63.9 209.7 61.3 207.35 58.95 207.2 55.7 L207.15 55.1 Q207.15 52.65 208.3 50.7 208.85 49.7 209.7 48.85 212.3 46.3 215.95 46.3 219.6 46.3 222.15 48.85 M219.9 42.45 L90.5 42.45 Q85.15 42.45 81.35 46.25 77.55 50.05 77.55 55.4 L77.55 55.7 Q77.65 60.85 81.35 64.55 85.15 68.35 90.5 68.35 L219.9 68.35 Q225.25 68.35 229.05 64.55 232.75 60.85 232.85 55.7 L232.85 55.4 Q232.85 50.05 229.05 46.25 225.25 42.45 219.9 42.45 M186.25 46.3 Q189.85 46.35 192.35 48.85 194.95 51.45 194.95 55.1 L194.95 55.7 Q194.8 57.8 193.85 59.55 L193.8 59.55 192.35 61.3 Q189.8 63.9 186.15 63.9 182.5 63.9 179.9 61.3 L178.5 59.5 Q177.5 57.8 177.4 55.7 L177.35 55.1 Q177.35 52.65 178.5 50.7 179.05 49.7 179.9 48.85 182.5 46.3 186.15 46.3 L186.25 46.3 M162.65 61.3 Q160.1 63.9 156.5 63.9 L156.45 63.9 Q152.8 63.9 150.2 61.3 L148.8 59.5 Q147.8 57.8 147.7 55.7 L147.65 55.1 Q147.65 51.45 150.2 48.85 152.8 46.3 156.45 46.3 L156.55 46.3 Q160.15 46.35 162.65 48.85 165.25 51.45 165.25 55.1 L165.25 55.7 Q165.1 57.8 164.1 59.55 L162.65 61.3 M77.45 141.65 L236.55 141.7 242.05 141.65 237.75 148.95 156.4 289.75 70.85 141.75 70.85 141.65 74.85 141.65 77.45 141.65 76.2 141.7 70.85 141.75 88.2 151.75 Q88.75 150.85 89.6 150.0 91.85 147.75 94.85 147.45 L95.85 147.4 97.45 147.5 Q100.1 148.0 102.05 150.0 104.65 152.55 104.65 156.2 104.65 158.65 103.5 160.6 L118.45 169.2 119.85 167.45 Q122.45 164.85 126.1 164.85 129.75 164.85 132.3 167.45 L133.75 169.2 Q134.9 171.2 134.9 173.65 134.9 176.1 133.75 178.05 L148.7 186.7 Q149.25 185.75 150.1 184.9 152.7 182.3 156.35 182.3 160.0 182.3 162.55 184.9 L164.0 186.65 178.5 178.25 Q177.35 176.3 177.35 173.85 177.35 171.4 178.5 169.45 179.05 168.5 179.9 167.65 182.5 165.05 186.15 165.05 189.8 165.05 192.35 167.65 L193.8 169.4 193.85 169.4 208.3 161.05 Q207.15 159.1 207.15 156.65 207.15 153.0 209.7 150.45 212.3 147.85 215.95 147.85 219.6 147.85 222.15 150.45 L223.6 152.25 241.8 141.75 236.55 141.7 M193.85 169.4 Q194.95 171.4 194.95 173.85 194.95 177.5 192.35 180.1 189.85 182.6 186.25 182.65 L186.15 182.65 Q182.5 182.65 179.9 180.1 L178.5 178.25 M164.0 186.65 Q165.15 188.65 165.15 191.1 165.15 194.75 162.55 197.35 160.05 199.85 156.45 199.9 L156.45 217.5 156.5 217.5 Q160.1 217.5 162.65 220.1 L164.1 221.85 Q165.25 223.85 165.25 226.3 165.25 229.95 162.65 232.55 160.15 235.05 156.55 235.1 L156.45 235.1 156.45 252.7 Q160.05 252.7 162.6 255.3 L164.05 257.05 Q165.2 259.05 165.2 261.5 165.2 265.15 162.6 267.75 160.1 270.25 156.5 270.3 L156.45 270.3 156.4 289.75 M223.6 152.25 Q224.75 154.2 224.75 156.65 224.75 160.3 222.15 162.9 219.6 165.45 215.95 165.45 212.3 165.45 209.7 162.9 208.85 162.05 208.3 161.05 M237.75 148.95 L241.8 141.75 M126.2 46.3 Q129.8 46.35 132.3 48.85 L133.75 50.7 Q134.9 52.65 134.9 55.1 L134.9 55.7 Q134.75 57.8 133.75 59.55 L132.3 61.3 Q129.75 63.9 126.1 63.9 122.45 63.9 119.85 61.3 L118.45 59.55 118.45 59.5 Q117.45 57.8 117.35 55.7 L117.3 55.1 Q117.3 51.45 119.85 48.85 122.45 46.3 126.1 46.3 L126.2 46.3 M95.85 46.35 Q99.5 46.35 102.05 48.9 L103.5 50.75 Q104.65 52.7 104.65 55.15 L104.65 55.7 Q104.45 59.0 102.05 61.35 100.1 63.35 97.45 63.85 L94.85 63.9 Q91.85 63.6 89.6 61.35 L88.2 59.6 Q87.2 57.85 87.1 55.7 L87.05 55.15 Q87.05 52.5 88.4 50.45 L88.95 49.65 89.6 48.9 Q92.2 46.35 95.85 46.35 M74.85 141.65 L76.2 141.7 M97.45 147.5 L94.85 147.45 M133.75 178.05 L132.3 179.9 Q129.8 182.4 126.2 182.45 L126.1 182.45 Q122.45 182.45 119.85 179.9 117.3 177.3 117.3 173.65 117.3 171.2 118.45 169.25 L118.45 169.2 M103.5 160.6 L102.05 162.45 Q99.5 165.0 95.85 165.0 92.2 165.0 89.6 162.45 L88.95 161.7 88.4 160.9 Q87.05 158.85 87.05 156.2 87.05 153.75 88.2 151.75 M156.45 199.9 L156.35 199.9 Q152.7 199.9 150.1 197.35 147.55 194.75 147.55 191.1 147.55 188.65 148.7 186.7 M156.45 235.1 Q152.8 235.1 150.2 232.55 147.65 229.95 147.65 226.3 147.65 223.85 148.8 221.9 149.35 220.95 150.2 220.1 152.8 217.5 156.45 217.5 M156.45 270.3 L156.4 270.3 Q152.75 270.3 150.15 267.75 147.6 265.15 147.6 261.5 147.6 259.05 148.75 257.1 149.3 256.15 150.15 255.3 152.75 252.7 156.4 252.7 L156.45 252.7" fill="none" stroke="#000000" stroke-linecap="round" stroke-linejoin="round" stroke-width="2.0"/>
    <path d="M156.45 80.35 L156.45 77.35 M156.45 88.35 L156.45 85.35 M156.45 96.35 L156.45 93.35 M156.45 148.3 L156.45 145.3 M156.25 121.65 L156.25 118.65 M156.35 129.65 L156.35 126.65 M156.45 137.65 L156.45 134.65 M156.45 156.3 L156.45 153.3 M156.45 164.3 L156.45 161.3 M156.45 172.3 L156.45 169.3" fill="none" stroke="#666666" stroke-linecap="round" stroke-linejoin="round" stroke-width="2.0"/>
  </g>
</svg>
