<?xml version="1.0" encoding="UTF-8" standalone="no"?>
<svg xmlns:xlink="http://www.w3.org/1999/xlink" height="27.9px" width="128.3px" xmlns="http://www.w3.org/2000/svg">
  <g transform="matrix(1.0, 0.0, 0.0, 1.0, -83.55, -316.45)">
    <path d="M133.2 321.3 L133.1 321.3 Q129.45 321.3 126.85 323.85 124.3 326.45 124.3 330.1 124.3 332.55 125.45 334.5 L125.45 334.55 126.85 336.3 Q129.45 338.9 133.1 338.9 136.75 338.9 139.3 336.3 L140.75 334.55 Q141.9 332.55 141.9 330.1 141.9 327.65 140.75 325.7 L139.3 323.85 Q136.8 321.35 133.2 321.3 M154.65 330.1 Q154.65 332.55 155.8 334.5 L157.2 336.3 Q159.8 338.9 163.45 338.9 L163.5 338.9 Q167.1 338.9 169.65 336.3 L171.1 334.55 Q172.25 332.55 172.25 330.1 172.25 326.45 169.65 323.85 167.15 321.35 163.55 321.3 L163.45 321.3 Q159.8 321.3 157.2 323.85 154.65 326.45 154.65 330.1 M88.35 321.25 Q92.15 317.45 97.5 317.45 L198.25 317.45 Q203.35 317.55 207.05 321.25 210.85 325.05 210.85 330.4 210.85 335.75 207.05 339.55 203.35 343.25 198.25 343.35 L97.5 343.35 Q92.15 343.35 88.35 339.55 84.55 335.75 84.55 330.4 84.55 325.05 88.35 321.25 M96.6 323.9 L95.95 324.65 95.4 325.45 Q94.05 327.5 94.05 330.15 94.05 332.6 95.2 334.6 L96.6 336.35 Q98.85 338.6 101.85 338.9 L104.45 338.85 Q107.1 338.35 109.05 336.35 111.65 333.8 111.65 330.15 111.65 327.7 110.5 325.75 L109.05 323.9 Q106.5 321.35 102.85 321.35 99.2 321.35 96.6 323.9 M193.25 321.3 L193.15 321.3 Q189.5 321.3 186.9 323.85 186.05 324.7 185.5 325.7 184.35 327.65 184.35 330.1 184.35 332.55 185.5 334.5 L186.9 336.3 Q189.5 338.9 193.15 338.9 196.8 338.9 199.35 336.3 L200.8 334.55 200.85 334.55 Q201.95 332.55 201.95 330.1 201.95 326.45 199.35 323.85 196.85 321.35 193.25 321.3" fill="#cccccc" fill-rule="evenodd" stroke="none"/>
    <path d="M133.2 321.3 Q136.8 321.35 139.3 323.85 L140.75 325.7 Q141.9 327.65 141.9 330.1 141.9 332.55 140.75 334.55 L139.3 336.3 Q136.75 338.9 133.1 338.9 129.45 338.9 126.85 336.3 L125.45 334.55 125.45 334.5 Q124.3 332.55 124.3 330.1 124.3 326.45 126.85 323.85 129.45 321.3 133.1 321.3 L133.2 321.3" fill="#33ff00" fill-rule="evenodd" stroke="none"/>
    <path d="M154.65 330.1 Q154.65 326.45 157.2 323.85 159.8 321.3 163.45 321.3 L163.55 321.3 Q167.15 321.35 169.65 323.85 172.25 326.45 172.25 330.1 172.25 332.55 171.1 334.55 L169.65 336.3 Q167.1 338.9 163.5 338.9 L163.45 338.9 Q159.8 338.9 157.2 336.3 L155.8 334.5 Q154.65 332.55 154.65 330.1 M96.6 323.9 Q99.2 321.35 102.85 321.35 106.5 321.35 109.05 323.9 L110.5 325.75 Q111.65 327.7 111.65 330.15 111.65 333.8 109.05 336.35 107.1 338.35 104.45 338.85 L101.85 338.9 Q98.85 338.6 96.6 336.35 L95.2 334.6 Q94.05 332.6 94.05 330.15 94.05 327.5 95.4 325.45 L95.95 324.65 96.6 323.9 M193.25 321.3 Q196.85 321.35 199.35 323.85 201.95 326.45 201.95 330.1 201.95 332.55 200.85 334.55 L200.8 334.55 199.35 336.3 Q196.8 338.9 193.15 338.9 189.5 338.9 186.9 336.3 L185.5 334.5 Q184.35 332.55 184.35 330.1 184.35 327.65 185.5 325.7 186.05 324.7 186.9 323.85 189.5 321.3 193.15 321.3 L193.25 321.3" fill="#00ccff" fill-rule="evenodd" stroke="none"/>
    <path d="M133.2 321.3 Q136.8 321.35 139.3 323.85 L140.75 325.7 Q141.9 327.65 141.9 330.1 141.9 332.55 140.75 334.55 L139.3 336.3 Q136.75 338.9 133.1 338.9 129.45 338.9 126.85 336.3 L125.45 334.55 125.45 334.5 Q124.3 332.55 124.3 330.1 124.3 326.45 126.85 323.85 129.45 321.3 133.1 321.3 L133.2 321.3 M154.65 330.1 Q154.65 326.45 157.2 323.85 159.8 321.3 163.45 321.3 L163.55 321.3 Q167.15 321.35 169.65 323.85 172.25 326.45 172.25 330.1 172.25 332.55 171.1 334.55 L169.65 336.3 Q167.1 338.9 163.5 338.9 L163.45 338.9 Q159.8 338.9 157.2 336.3 L155.8 334.5 Q154.65 332.55 154.65 330.1 M88.35 321.25 Q84.55 325.05 84.55 330.4 84.55 335.75 88.35 339.55 92.15 343.35 97.5 343.35 L198.25 343.35 Q203.35 343.25 207.05 339.55 210.85 335.75 210.85 330.4 210.85 325.05 207.05 321.25 203.35 317.55 198.25 317.45 L97.5 317.45 Q92.15 317.45 88.35 321.25 M96.6 323.9 Q99.2 321.35 102.85 321.35 106.5 321.35 109.05 323.9 L110.5 325.75 Q111.65 327.7 111.65 330.15 111.65 333.8 109.05 336.35 107.1 338.35 104.45 338.85 L101.85 338.9 Q98.85 338.6 96.6 336.35 L95.2 334.6 Q94.05 332.6 94.05 330.15 94.05 327.5 95.4 325.45 L95.95 324.65 96.6 323.9 M193.25 321.3 Q196.85 321.35 199.35 323.85 201.95 326.45 201.95 330.1 201.95 332.55 200.85 334.55 L200.8 334.55 199.35 336.3 Q196.8 338.9 193.15 338.9 189.5 338.9 186.9 336.3 L185.5 334.5 Q184.35 332.55 184.35 330.1 184.35 327.65 185.5 325.7 186.05 324.7 186.9 323.85 189.5 321.3 193.15 321.3 L193.25 321.3" fill="none" stroke="#000000" stroke-linecap="round" stroke-linejoin="round" stroke-width="2.0"/>
  </g>
</svg>
