<?xml version="1.0" encoding="UTF-8" standalone="no"?>
<svg xmlns:xlink="http://www.w3.org/1999/xlink" height="27.9px" width="157.3px" xmlns="http://www.w3.org/2000/svg">
  <g transform="matrix(1.0, 0.0, 0.0, 1.0, -76.9, -41.4)">
    <path d="M216.3 46.25 Q212.65 46.25 210.05 48.8 209.2 49.65 208.65 50.65 207.5 52.6 207.5 55.05 207.5 58.7 210.05 61.25 212.65 63.85 216.3 63.85 219.95 63.85 222.5 61.25 L223.95 59.45 Q225.1 57.5 225.1 55.05 225.1 51.4 222.5 48.8 219.95 46.25 216.3 46.25 M220.25 42.4 Q225.6 42.4 229.4 46.2 233.2 50.0 233.2 55.35 233.2 60.7 229.4 64.5 225.6 68.3 220.25 68.3 L90.85 68.3 Q85.5 68.3 81.7 64.5 77.9 60.7 77.9 55.35 77.9 50.0 81.7 46.2 85.5 42.4 90.85 42.4 L220.25 42.4 M102.4 48.85 Q99.85 46.3 96.2 46.3 92.55 46.3 89.95 48.85 L89.3 49.6 88.75 50.4 Q87.4 52.45 87.4 55.1 87.4 57.55 88.55 59.55 L89.95 61.3 Q92.2 63.55 95.2 63.85 L97.8 63.8 Q100.45 63.3 102.4 61.3 105.0 58.75 105.0 55.1 105.0 52.65 103.85 50.7 L102.4 48.85 M132.65 48.8 Q130.15 46.3 126.55 46.25 L126.45 46.25 Q122.8 46.25 120.2 48.8 117.65 51.4 117.65 55.05 117.65 57.5 118.8 59.45 L118.8 59.5 120.2 61.25 Q122.8 63.85 126.45 63.85 130.1 63.85 132.65 61.25 L134.1 59.5 Q135.25 57.5 135.25 55.05 135.25 52.6 134.1 50.65 L132.65 48.8 M164.45 59.5 Q165.6 57.5 165.6 55.05 165.6 51.4 163.0 48.8 160.5 46.3 156.9 46.25 L156.8 46.25 Q153.15 46.25 150.55 48.8 148.0 51.4 148.0 55.05 148.0 57.5 149.15 59.45 L150.55 61.25 Q153.15 63.85 156.8 63.85 L156.85 63.85 Q160.45 63.85 163.0 61.25 L164.45 59.5 M186.5 46.25 Q182.85 46.25 180.25 48.8 179.4 49.65 178.85 50.65 177.7 52.6 177.7 55.05 177.7 57.5 178.85 59.45 L180.25 61.25 Q182.85 63.85 186.5 63.85 190.15 63.85 192.7 61.25 L194.15 59.5 194.2 59.5 Q195.3 57.5 195.3 55.05 195.3 51.4 192.7 48.8 190.2 46.3 186.6 46.25 L186.5 46.25" fill="#cccccc" fill-rule="evenodd" stroke="none"/>
    <path d="M220.25 42.4 L90.85 42.4 Q85.5 42.4 81.7 46.2 77.9 50.0 77.9 55.35 77.9 60.7 81.7 64.5 85.5 68.3 90.85 68.3 L220.25 68.3 Q225.6 68.3 229.4 64.5 233.2 60.7 233.2 55.35 233.2 50.0 229.4 46.2 225.6 42.4 220.25 42.4 Z" fill="none" stroke="#000000" stroke-linecap="round" stroke-linejoin="round" stroke-width="2.0"/>
  </g>
</svg>
