<?xml version="1.0" encoding="UTF-8" standalone="no"?>
<svg xmlns:xlink="http://www.w3.org/1999/xlink" height="38.75px" width="31.0px" xmlns="http://www.w3.org/2000/svg">
  <g transform="matrix(1.0, 0.0, 0.0, 1.0, 8.15, 10.8)">
    <path d="M-8.15 27.95 L-8.15 -10.8 22.85 -10.8 22.85 27.95 -8.15 27.95" fill="#333333" fill-opacity="0.0" fill-rule="evenodd" stroke="none"/>
    <path d="M16.45 4.4 Q17.6 6.35 17.6 8.8 17.6 12.45 15.0 15.0 13.05 17.0 10.4 17.5 L7.8 17.55 Q4.8 17.25 2.55 15.0 L1.15 13.25 Q0.0 11.25 0.0 8.8 0.0 6.15 1.35 4.1 L1.9 3.3 2.55 2.55 Q5.15 0.0 8.8 0.0 12.45 0.0 15.0 2.55 L16.45 4.4" fill="#ffffff" fill-rule="evenodd" stroke="none"/>
    <path d="M16.45 4.4 Q17.6 6.35 17.6 8.8 17.6 12.45 15.0 15.0 13.05 17.0 10.4 17.5 L7.8 17.55 Q4.8 17.25 2.55 15.0 L1.15 13.25 Q0.0 11.25 0.0 8.8 0.0 6.15 1.35 4.1 L1.9 3.3 2.55 2.55 Q5.15 0.0 8.8 0.0 12.45 0.0 15.0 2.55 L16.45 4.4 Z" fill="none" stroke="#000000" stroke-linecap="round" stroke-linejoin="round" stroke-width="2.0"/>
  </g>
</svg>
