<?xml version="1.0" encoding="UTF-8" standalone="no"?>
<svg xmlns:xlink="http://www.w3.org/1999/xlink" height="17.0px" width="22.2px" xmlns="http://www.w3.org/2000/svg">
  <g transform="matrix(1.0, 0.0, 0.0, 1.0, 6.75, 1.8)">
    <path d="M15.45 -1.8 L15.45 15.2 -6.75 15.2 -6.75 -1.8 15.45 -1.8" fill="#ffffff" fill-opacity="0.0" fill-rule="evenodd" stroke="none"/>
    <path d="M0.0 5.75 Q0.25 3.45 1.9 1.9 3.7 0.0 6.35 0.0 8.6 0.0 10.3 1.45 L10.8 1.9 Q12.5 3.55 12.65 5.85 L0.0 5.75" fill="#cccccc" fill-rule="evenodd" stroke="none"/>
    <path d="M12.65 5.85 L12.65 6.3 Q12.65 8.9 10.8 10.75 L10.3 11.15 Q8.6 12.6 6.35 12.6 3.7 12.6 1.9 10.75 0.0 8.9 0.0 6.3 L0.0 5.75 12.65 5.85" fill="#ffffff" fill-rule="evenodd" stroke="none"/>
    <path d="M12.65 5.85 L12.65 6.3 Q12.65 8.9 10.8 10.75 L10.3 11.15 Q8.6 12.6 6.35 12.6 3.7 12.6 1.9 10.75 0.0 8.9 0.0 6.3 L0.0 5.75 Q0.25 3.45 1.9 1.9 3.7 0.0 6.35 0.0 8.6 0.0 10.3 1.45 L10.8 1.9 Q12.5 3.55 12.65 5.85 L0.0 5.75" fill="none" stroke="#000000" stroke-linecap="round" stroke-linejoin="round" stroke-width="1.5"/>
  </g>
</svg>
