<?xml version="1.0" encoding="UTF-8" standalone="no"?>
<svg xmlns:xlink="http://www.w3.org/1999/xlink" height="17.0px" width="22.45px" xmlns="http://www.w3.org/2000/svg">
  <g transform="matrix(1.0, 0.0, 0.0, 1.0, 6.75, 1.8)">
    <path d="M15.7 -1.8 L15.7 15.2 -6.75 15.2 -6.75 -1.8 15.7 -1.8" fill="#ffffff" fill-opacity="0.0" fill-rule="evenodd" stroke="none"/>
    <path d="M12.65 6.4 L10.3 5.35 Q5.2 3.45 0.0 6.3 0.0 3.75 1.9 1.9 3.7 0.0 6.35 0.0 8.6 0.0 10.3 1.45 L10.8 1.9 Q12.65 3.75 12.65 6.4 M0.55 8.9 Q5.4 6.6 10.3 8.1 L12.1 8.8 Q11.65 9.9 10.8 10.8 L8.7 12.2 6.35 12.7 Q3.7 12.65 1.9 10.8 1.0 9.9 0.55 8.9" fill="#cccccc" fill-rule="evenodd" stroke="none"/>
    <path d="M0.0 6.3 Q5.2 3.45 10.3 5.35 L12.65 6.4 12.65 6.45 Q12.65 7.7 12.1 8.8 L10.3 8.1 Q5.4 6.6 0.55 8.9 0.0 7.7 0.0 6.4 L0.0 6.3" fill="#ffffff" fill-rule="evenodd" stroke="none"/>
    <path d="M12.65 6.4 L10.3 5.35 Q5.2 3.45 0.0 6.3 L0.0 6.4 Q0.0 7.7 0.55 8.9 5.4 6.6 10.3 8.1 L12.1 8.8 Q12.65 7.7 12.65 6.45 M12.65 6.4 Q12.65 3.75 10.8 1.9 L10.3 1.45 Q8.6 0.0 6.35 0.0 3.7 0.0 1.9 1.9 0.0 3.75 0.0 6.3 M12.1 8.8 Q11.65 9.9 10.8 10.8 L8.7 12.2 6.35 12.7 Q3.7 12.65 1.9 10.8 1.0 9.9 0.55 8.9" fill="none" stroke="#000000" stroke-linecap="round" stroke-linejoin="round" stroke-width="1.5"/>
    <path d="M12.65 6.45 L12.65 6.4 Z" fill="none" stroke="#000000" stroke-linecap="round" stroke-linejoin="round" stroke-width="1.0"/>
  </g>
</svg>
