<?xml version="1.0" encoding="UTF-8" standalone="no"?>
<svg xmlns:xlink="http://www.w3.org/1999/xlink" height="17.0px" width="23.45px" xmlns="http://www.w3.org/2000/svg">
  <g transform="matrix(1.0, 0.0, 0.0, 1.0, 6.75, 1.8)">
    <path d="M16.7 -1.8 L16.7 15.2 -6.75 15.2 -6.75 -1.8 16.7 -1.8" fill="#ffffff" fill-opacity="0.0" fill-rule="evenodd" stroke="none"/>
    <path d="M12.65 6.35 L12.55 7.45 Q12.3 9.35 10.8 10.8 9.0 12.65 6.35 12.65 3.7 12.65 1.9 10.8 0.4 9.35 0.15 7.45 L0.0 6.35 Q0.0 3.75 1.9 1.9 3.7 0.0 6.35 0.0 9.0 0.0 10.8 1.9 12.65 3.75 12.65 6.35 M0.15 7.45 Q6.85 4.45 12.55 7.45 6.85 4.45 0.15 7.45" fill="#cccccc" fill-rule="evenodd" stroke="none"/>
    <path d="M12.65 6.35 L12.55 7.45 Q12.3 9.35 10.8 10.8 9.0 12.65 6.35 12.65 3.7 12.65 1.9 10.8 0.4 9.35 0.15 7.45 L0.0 6.35 Q0.0 3.75 1.9 1.9 3.7 0.0 6.35 0.0 9.0 0.0 10.8 1.9 12.65 3.75 12.65 6.35 M12.55 7.45 Q6.85 4.45 0.15 7.45" fill="none" stroke="#000000" stroke-linecap="round" stroke-linejoin="round" stroke-width="1.5"/>
  </g>
</svg>
