<?xml version="1.0" encoding="UTF-8" standalone="no"?>
<svg xmlns:xlink="http://www.w3.org/1999/xlink" height="38.55px" width="60.2px" xmlns="http://www.w3.org/2000/svg">
  <g transform="matrix(1.0, 0.0, 0.0, 1.0, 29.2, 20.35)">
    <path d="M31.0 -20.35 L31.0 18.2 -29.2 18.2 -29.2 -20.35 31.0 -20.35" fill="#ffffff" fill-opacity="0.0" fill-rule="evenodd" stroke="none"/>
    <path d="M-8.2 -3.35 L-4.1 -3.35 0.05 -3.35 4.15 -3.35 8.3 -3.35 12.35 -3.35 14.95 -3.35 14.95 3.35 12.35 3.35 8.3 3.35 4.15 3.35 0.05 3.35 -4.1 3.35 -8.2 3.35 -12.3 3.35 -14.85 3.35 -14.85 -3.35 -12.3 -3.35 -8.2 -3.35" fill="#ffffff" fill-rule="evenodd" stroke="none"/>
    <path d="M8.3 3.35 L8.3 0.0 8.3 -3.35 M0.05 -3.35 L0.05 0.0 0.05 3.35 M-8.2 -3.35 L-8.2 0.0 -8.2 3.35" fill="none" stroke="#000000" stroke-linecap="round" stroke-linejoin="round" stroke-width="1.0"/>
    <path d="M8.3 3.35 L7.2 3.35 3.6 3.35 0.05 3.35 0.0 3.35 -3.6 3.35 -7.2 3.35 -8.2 3.35 -14.55 3.35 -15.55 1.7 -15.95 -0.1 -15.8 -1.05 -15.55 -1.9 -15.0 -2.8 -14.55 -3.35 -8.2 -3.35 -7.2 -3.35 -3.6 -3.35 0.0 -3.35 0.05 -3.35 3.6 -3.35 7.2 -3.35 8.3 -3.35 14.55 -3.35 15.0 -2.8 15.55 -1.9 15.8 -1.05 15.95 -0.1 15.55 1.7 14.55 3.35 8.3 3.35 Z" fill="none" stroke="#000000" stroke-linecap="round" stroke-linejoin="round" stroke-width="3.0"/>
  </g>
</svg>
