<?xml version="1.0" encoding="UTF-8" standalone="no"?>
<svg xmlns:xlink="http://www.w3.org/1999/xlink" height="39.8px" width="57.9px" xmlns="http://www.w3.org/2000/svg">
  <g transform="matrix(1.0, 0.0, 0.0, 1.0, 28.5, 22.2)">
    <path d="M29.4 -22.2 L29.4 17.6 -28.5 17.6 -28.5 -22.2 29.4 -22.2" fill="#ffffff" fill-opacity="0.0" fill-rule="evenodd" stroke="none"/>
    <path d="M10.4 -0.15 L13.3 -0.15 15.15 -0.15 15.1 0.15 13.95 4.35 13.9 4.65 12.2 4.65 9.55 4.65 4.75 4.65 0.0 4.7 -4.8 4.7 -9.55 4.7 -12.2 4.7 -13.9 4.7 -15.1 0.65 -15.2 0.15 -15.3 -0.15 -13.45 -0.15 -10.55 -0.15 -5.3 -0.15 -0.05 -0.15 5.15 -0.15 10.4 -0.15" fill="#000000" fill-rule="evenodd" stroke="none"/>
    <path d="M8.3 -4.75 L12.35 -4.75 14.95 -4.75 14.95 0.6 12.35 0.6 8.3 0.6 4.15 0.6 0.05 0.6 -4.1 0.6 -8.2 0.6 -12.3 0.6 -14.85 0.6 -14.85 -4.75 -12.3 -4.75 -8.2 -4.75 -4.1 -4.75 0.05 -4.75 4.15 -4.75 8.3 -4.75" fill="#ffffff" fill-rule="evenodd" stroke="none"/>
    <path d="M8.3 -4.8 L8.3 0.6 M0.05 -4.8 L0.05 0.6 M-8.2 -4.8 L-8.2 0.6" fill="none" stroke="#000000" stroke-linecap="round" stroke-linejoin="round" stroke-width="1.0"/>
    <path d="M9.5 -4.8 L12.15 -4.8 13.45 -4.5 14.3 -4.2 14.85 -3.7 15.55 -2.8 15.85 -1.6 15.95 -0.3 15.85 0.95 15.55 2.15 15.0 3.25 14.55 3.9 13.75 4.2 12.4 4.55 9.7 4.7 7.0 4.75 3.5 4.8 0.0 4.85 -3.5 4.8 -7.0 4.75 -9.7 4.7 -12.4 4.55 -13.75 4.2 -14.55 3.9 -15.0 3.25 -15.55 2.15 -15.85 0.95 -15.95 -0.3 -15.85 -1.6 -15.55 -2.8 -14.85 -3.7 -14.3 -4.2 -13.45 -4.5 -12.15 -4.8 -9.5 -4.8 -8.2 -4.8 -6.85 -4.8 -3.45 -4.8 0.0 -4.8 0.05 -4.8 3.45 -4.8 6.85 -4.8 8.3 -4.8 9.5 -4.8" fill="none" stroke="#000000" stroke-linecap="round" stroke-linejoin="round" stroke-width="3.0"/>
  </g>
</svg>
