<?xml version="1.0" encoding="UTF-8" standalone="no"?>
<svg xmlns:xlink="http://www.w3.org/1999/xlink" height="34.4px" width="41.95px" xmlns="http://www.w3.org/2000/svg">
  <g transform="matrix(1.0, 0.0, 0.0, 1.0, 21.95, 20.0)">
    <path d="M20.0 14.4 L-21.95 14.4 -21.95 -20.0 20.0 -20.0 20.0 14.4" fill="#ffffff" fill-opacity="0.0" fill-rule="evenodd" stroke="none"/>
    <path d="M9.7 -1.85 L12.4 -1.85 14.15 -1.85 12.95 6.35 11.35 6.35 8.9 6.4 4.4 6.4 -0.05 6.4 -4.55 6.45 -9.0 6.45 -11.5 6.45 -13.05 6.45 -14.4 -1.85 -12.65 -1.85 -9.9 -1.85 -5.0 -1.85 -0.1 -1.85 4.8 -1.85 9.7 -1.85" fill="#000000" fill-rule="evenodd" stroke="none"/>
    <path d="M13.2 -6.65 L14.9 -1.3 12.3 -1.3 8.25 -1.3 4.1 -1.3 0.0 -1.3 -4.15 -1.3 -8.25 -1.3 -12.35 -1.3 -14.9 -1.3 -13.5 -6.65 -12.35 -6.65 -8.25 -6.65 -4.15 -6.65 0.0 -6.65 4.1 -6.65 8.25 -6.65 12.3 -6.65 13.2 -6.65" fill="#ffffff" fill-rule="evenodd" stroke="none"/>
    <path d="M8.25 -6.65 L8.25 -1.3 M0.0 -6.65 L0.0 -1.3 M-8.25 -6.65 L-8.25 -1.3" fill="none" stroke="#000000" stroke-linecap="round" stroke-linejoin="round" stroke-width="1.0"/>
    <path d="M5.95 -7.15 L8.25 -7.2 10.55 -7.15 12.45 -6.35 13.55 -4.2 13.9 -0.5 13.55 3.25 12.65 5.85 11.95 6.3 10.75 6.8 8.45 7.0 6.05 7.1 3.0 7.2 -0.05 7.25 -3.1 7.2 -6.15 7.1 -8.55 7.0 -10.85 6.8 -12.05 6.3 -12.75 5.85 -13.65 3.25 -14.0 -0.5 -13.65 -4.2 -12.55 -6.35 -10.65 -7.15 -8.35 -7.2 -6.05 -7.15 -3.05 -7.15 -0.05 -7.15 2.95 -7.15 5.95 -7.15" fill="none" stroke="#000000" stroke-linecap="round" stroke-linejoin="round" stroke-width="3.0"/>
  </g>
</svg>
