<?xml version="1.0" encoding="UTF-8" standalone="no"?>
<svg xmlns:xlink="http://www.w3.org/1999/xlink" height="14.5px" width="20.2px" xmlns="http://www.w3.org/2000/svg">
  <g transform="matrix(1.0, 0.0, 0.0, 1.0, 10.0, 7.0)">
    <path d="M10.2 7.5 L-10.0 7.5 -10.0 -7.0 10.2 -7.0 10.2 7.5" fill="#ffffff" fill-opacity="0.0" fill-rule="evenodd" stroke="none"/>
    <path d="M3.75 -4.5 L9.25 0.35 3.75 5.25 3.75 2.85 -5.45 1.3 -5.45 2.85 -8.25 0.4 -5.45 -2.1 -5.45 -0.65 3.75 -2.1 3.75 -4.5" fill="#cccccc" fill-rule="evenodd" stroke="none"/>
    <path d="M3.75 -4.5 L9.25 0.35 3.75 5.25 3.75 2.85 -5.45 1.3 -5.45 2.85 -8.25 0.4 -5.45 -2.1 -5.45 -0.65 3.75 -2.1 3.75 -4.5 Z" fill="none" stroke="#000000" stroke-linecap="round" stroke-linejoin="round" stroke-width="1.0"/>
  </g>
</svg>
