<?xml version="1.0" encoding="UTF-8" standalone="no"?>
<svg xmlns:xlink="http://www.w3.org/1999/xlink" height="87.0px" width="68.0px" xmlns="http://www.w3.org/2000/svg">
  <g transform="matrix(1.0, 0.0, 0.0, 1.0, 1.0, 1.0)">
    <path d="M33.25 38.7 L33.5 38.7 Q37.2 38.7 39.75 36.1 L41.35 34.0 Q42.3 32.15 42.3 29.95 42.3 26.25 39.75 23.75 37.2 21.1 33.5 21.1 29.9 21.1 27.35 23.75 24.75 26.25 24.75 29.95 24.75 32.15 25.75 34.0 L27.35 36.1 Q29.8 38.6 33.25 38.7 L33.25 42.9 29.15 42.9 26.85 62.3 29.15 42.9 33.25 42.9 33.25 38.7 Q29.8 38.6 27.35 36.1 L25.75 34.0 Q24.75 32.15 24.75 29.95 24.75 26.25 27.35 23.75 29.9 21.1 33.5 21.1 37.2 21.1 39.75 23.75 42.3 26.25 42.3 29.95 42.3 32.15 41.35 34.0 L39.75 36.1 Q37.2 38.7 33.5 38.7 L33.25 38.7 M31.2 29.15 L30.9 28.5 Q30.6 28.2 30.2 28.2 29.8 28.2 29.55 28.5 29.25 28.75 29.25 29.15 29.25 29.55 29.55 29.85 29.8 30.15 30.2 30.15 L30.9 29.85 31.2 29.15 30.9 29.85 30.2 30.15 Q29.8 30.15 29.55 29.85 29.25 29.55 29.25 29.15 29.25 28.75 29.55 28.5 29.8 28.2 30.2 28.2 30.6 28.2 30.9 28.5 L31.2 29.15 M35.85 29.15 Q35.85 29.55 36.15 29.85 36.4 30.15 36.8 30.15 L37.5 29.85 37.8 29.15 37.5 28.5 Q37.2 28.2 36.8 28.2 36.4 28.2 36.15 28.5 35.85 28.75 35.85 29.15 35.85 28.75 36.15 28.5 36.4 28.2 36.8 28.2 37.2 28.2 37.5 28.5 L37.8 29.15 37.5 29.85 36.8 30.15 Q36.4 30.15 36.15 29.85 35.85 29.55 35.85 29.15 M26.25 76.9 L31.05 76.7 31.05 61.1 33.25 61.1 35.25 61.1 35.25 76.7 40.05 76.9 35.25 76.7 35.25 61.1 33.25 61.1 31.05 61.1 31.05 76.7 26.25 76.9 M39.4 62.3 L37.1 42.9 33.25 42.9 37.1 42.9 39.4 62.3 M0.0 85.0 L0.0 0.0 66.0 0.0 66.0 85.0 0.0 85.0 M33.25 42.9 L33.25 61.1 33.25 42.9" fill="#ffffff" fill-rule="evenodd" stroke="none"/>
    <path d="M0.0 85.0 L0.0 0.0 66.0 0.0 66.0 85.0 0.0 85.0" fill="none" stroke="#000000" stroke-linecap="round" stroke-linejoin="round" stroke-width="2.0"/>
    <path d="M26.85 62.3 L29.15 42.9 33.25 42.9 33.25 38.7 Q29.8 38.6 27.35 36.1 L25.75 34.0 Q24.75 32.15 24.75 29.95 24.75 26.25 27.35 23.75 29.9 21.1 33.5 21.1 37.2 21.1 39.75 23.75 42.3 26.25 42.3 29.95 42.3 32.15 41.35 34.0 L39.75 36.1 Q37.2 38.7 33.5 38.7 L33.25 38.7 M33.25 42.9 L37.1 42.9 39.4 62.3 M40.05 76.9 L35.25 76.7 35.25 61.1 33.25 61.1 31.05 61.1 31.05 76.7 26.25 76.9 M33.25 61.1 L33.25 42.9" fill="none" stroke="#000000" stroke-linecap="round" stroke-linejoin="round" stroke-width="1.5"/>
    <path d="M35.85 29.15 Q35.85 28.75 36.15 28.5 36.4 28.2 36.8 28.2 37.2 28.2 37.5 28.5 L37.8 29.15 37.5 29.85 36.8 30.15 Q36.4 30.15 36.15 29.85 35.85 29.55 35.85 29.15 M31.2 29.15 L30.9 29.85 30.2 30.15 Q29.8 30.15 29.55 29.85 29.25 29.55 29.25 29.15 29.25 28.75 29.55 28.5 29.8 28.2 30.2 28.2 30.6 28.2 30.9 28.5 L31.2 29.15" fill="none" stroke="#000000" stroke-linecap="round" stroke-linejoin="round" stroke-width="1.0"/>
  </g>
</svg>
