<?xml version="1.0" encoding="UTF-8" standalone="no"?>
<svg xmlns:xlink="http://www.w3.org/1999/xlink" height="268.8px" width="131.7px" xmlns="http://www.w3.org/2000/svg">
  <g transform="matrix(1.0, 0.0, 0.0, 1.0, 2.0, 2.0)">
    <path d="M53.05 203.95 Q44.75 197.9 43.15 183.45 41.5 169.05 44.8 148.55 48.1 128.0 48.5 126.65 L49.5 121.65 51.1 114.05 51.2 114.2 51.3 114.3 51.4 104.35 51.45 94.35" fill="none" stroke="#000000" stroke-linecap="round" stroke-linejoin="round" stroke-width="4.0"/>
    <path d="M53.05 203.95 L48.0 200.25 Q52.05 200.7 64.9 203.35 82.45 207.8 85.75 214.6 89.5 222.35 84.8 238.3 78.6 259.5 78.35 263.0" fill="none" stroke="#000000" stroke-linecap="round" stroke-linejoin="round" stroke-width="4.0"/>
    <path d="M53.05 203.95 L63.45 198.6 70.1 195.2 Q79.2 195.95 87.2 197.65 104.85 201.45 107.8 208.3 111.2 216.2 105.1 231.6 96.75 252.8 96.25 255.7 L97.85 256.7 99.55 257.0 104.65 256.55 112.7 255.85 120.2 255.2 127.7 254.55" fill="none" stroke="#000000" stroke-linecap="round" stroke-linejoin="round" stroke-width="4.0"/>
    <path d="M108.3 264.8 L100.8 264.55 93.3 264.3 85.4 264.15 80.4 264.1 78.35 263.0" fill="none" stroke="#000000" stroke-linecap="round" stroke-linejoin="round" stroke-width="4.0"/>
    <path d="M30.45 193.15 Q4.65 173.95 18.95 119.1 L52.15 108.95 80.85 118.95 Q49.55 188.3 102.85 177.05" fill="none" stroke="#000000" stroke-linecap="round" stroke-linejoin="round" stroke-width="4.0"/>
    <path d="M32.1 192.35 Q34.5 190.4 37.6 191.05 40.65 191.75 42.6 194.3 44.6 196.9 44.5 199.95 44.35 203.2 41.95 205.05 39.45 206.95 36.3 206.35 33.2 205.7 31.2 203.15 29.2 200.5 29.45 197.4 29.6 194.25 32.1 192.35" fill="#ffffff" fill-rule="evenodd" stroke="none"/>
    <path d="M32.1 192.35 Q34.5 190.4 37.6 191.05 40.65 191.75 42.6 194.3 44.6 196.9 44.5 199.95 44.35 203.2 41.95 205.05 39.45 206.95 36.3 206.35 33.2 205.7 31.2 203.15 29.2 200.5 29.45 197.4 29.6 194.25 32.1 192.35 Z" fill="none" stroke="#000000" stroke-linecap="round" stroke-linejoin="round" stroke-width="4.0"/>
    <path d="M100.9 176.35 Q101.75 173.35 104.65 171.85 107.5 170.45 110.6 171.4 113.8 172.4 115.5 175.15 117.25 177.9 116.4 181.05 115.6 183.9 112.7 185.05 L106.85 185.25 Q103.75 184.3 102.0 181.9 100.15 179.35 100.9 176.35" fill="#ffffff" fill-rule="evenodd" stroke="none"/>
    <path d="M100.9 176.35 Q101.75 173.35 104.65 171.85 107.5 170.45 110.6 171.4 113.8 172.4 115.5 175.15 117.25 177.9 116.4 181.05 115.6 183.9 112.7 185.05 L106.85 185.25 Q103.75 184.3 102.0 181.9 100.15 179.35 100.9 176.35 Z" fill="none" stroke="#000000" stroke-linecap="round" stroke-linejoin="round" stroke-width="4.0"/>
    <path d="M0.0 49.95 L50.0 50.0 100.0 50.05 Q99.95 70.8 85.35 85.4 70.7 100.0 49.95 100.0 29.2 99.95 14.6 85.35 0.0 70.7 0.0 49.95" fill="#ffffff" fill-rule="evenodd" stroke="none"/>
    <path d="M100.0 50.05 Q99.95 70.8 85.35 85.4 70.7 100.0 49.95 100.0 29.2 99.95 14.6 85.35 0.0 70.7 0.0 49.95" fill="none" stroke="#000000" stroke-linecap="round" stroke-linejoin="round" stroke-width="4.0"/>
    <path d="M29.8 4.25 Q39.4 0.0 50.05 0.0 60.7 0.05 70.3 4.3 78.9 8.05 85.4 14.65 91.95 21.25 95.75 29.75 100.05 39.4 100.0 50.05 L50.0 50.0 0.0 49.95 Q0.05 39.3 4.3 29.7 8.1 21.1 14.65 14.6 21.25 8.0 29.8 4.25" fill="#ffffff" fill-rule="evenodd" stroke="none"/>
    <path d="M0.0 49.95 Q0.05 39.3 4.3 29.7 8.1 21.1 14.65 14.6 21.25 8.0 29.8 4.25 39.4 0.0 50.05 0.0 60.7 0.05 70.3 4.3 78.9 8.05 85.4 14.65 91.95 21.25 95.75 29.75 100.05 39.4 100.0 50.05" fill="none" stroke="#000000" stroke-linecap="round" stroke-linejoin="round" stroke-width="4.0"/>
  </g>
</svg>
