<?xml version="1.0" encoding="UTF-8" standalone="no"?>
<svg xmlns:xlink="http://www.w3.org/1999/xlink" height="27.15px" width="27.1px" xmlns="http://www.w3.org/2000/svg">
  <g transform="matrix(1.0, 0.0, 0.0, 1.0, 13.6, 13.5)">
    <path d="M11.7 -2.7 Q12.1 -1.05 12.0 0.7 11.9 2.4 11.35 4.0 10.9 5.4 10.05 6.7 L8.05 9.0 5.5 10.8 2.7 11.85 -0.65 12.15 -4.0 11.5 -6.7 10.2 Q-7.85 9.45 -9.0 8.15 L-10.8 5.65 -11.85 2.85 -12.1 -0.55 Q-12.05 -2.3 -11.5 -3.9 L-10.15 -6.55 -8.15 -8.9 Q-6.85 -10.05 -5.6 -10.65 L-2.8 -11.7 0.55 -12.0 3.9 -11.35 Q5.25 -10.9 6.55 -10.05 7.75 -9.3 8.9 -8.0 L10.7 -5.5 Q11.4 -4.1 11.7 -2.7" fill="#ffffff" fill-rule="evenodd" stroke="none"/>
    <path d="M11.7 -2.7 Q12.1 -1.05 12.0 0.7 11.9 2.4 11.35 4.0 10.9 5.4 10.05 6.7 L8.05 9.0 5.5 10.8 2.7 11.85 -0.65 12.15 -4.0 11.5 -6.7 10.2 Q-7.85 9.45 -9.0 8.15 L-10.8 5.65 -11.85 2.85 -12.1 -0.55 Q-12.05 -2.3 -11.5 -3.9 L-10.15 -6.55 -8.15 -8.9 Q-6.85 -10.05 -5.6 -10.65 L-2.8 -11.7 0.55 -12.0 3.9 -11.35 Q5.25 -10.9 6.55 -10.05 7.75 -9.3 8.9 -8.0 L10.7 -5.5 Q11.4 -4.1 11.7 -2.7 Z" fill="none" stroke="#000000" stroke-linecap="round" stroke-linejoin="round" stroke-width="3.0"/>
  </g>
</svg>
