<?xml version="1.0" encoding="UTF-8" standalone="no"?>
<svg xmlns:xlink="http://www.w3.org/1999/xlink" height="268.8px" width="203.05px" xmlns="http://www.w3.org/2000/svg">
  <g transform="matrix(1.0, 0.0, 0.0, 1.0, 2.0, 2.0)">
    <path d="M115.8 110.65 L100.25 112.7 Q83.3 115.2 76.1 117.35 72.25 118.5 67.0 120.7 62.75 122.45 57.55 124.9 L39.45 133.55 M116.8 111.1 L126.7 123.55 129.5 126.7 Q138.8 137.0 144.7 139.9 151.25 143.05 164.2 143.4 174.9 143.45 184.5 143.9" fill="none" stroke="#000000" stroke-linecap="round" stroke-linejoin="round" stroke-width="4.0"/>
    <path d="M25.15 137.95 Q24.95 135.05 27.2 133.0 29.25 131.15 32.5 130.6 35.55 130.1 38.0 131.35 40.75 132.7 40.9 135.4 41.15 138.9 39.05 141.6 36.95 144.25 33.5 144.8 30.4 145.3 27.85 143.2 25.35 141.15 25.15 137.95" fill="#ffffff" fill-rule="evenodd" stroke="none"/>
    <path d="M25.15 137.95 Q24.95 135.05 27.2 133.0 29.25 131.15 32.5 130.6 35.55 130.1 38.0 131.35 40.75 132.7 40.9 135.4 41.15 138.9 39.05 141.6 36.95 144.25 33.5 144.8 30.4 145.3 27.85 143.2 25.35 141.15 25.15 137.95 Z" fill="none" stroke="#000000" stroke-linecap="round" stroke-linejoin="round" stroke-width="4.0"/>
    <path d="M190.4 140.05 Q193.75 140.1 195.95 141.3 198.6 142.75 198.95 145.45 199.4 148.7 197.4 151.3 195.35 153.95 192.25 153.9 188.5 153.85 185.9 151.35 183.35 148.95 182.85 145.15 182.55 142.7 185.1 141.25 187.35 139.95 190.4 140.05" fill="#ffffff" fill-rule="evenodd" stroke="none"/>
    <path d="M190.4 140.05 Q193.75 140.1 195.95 141.3 198.6 142.75 198.95 145.45 199.4 148.7 197.4 151.3 195.35 153.95 192.25 153.9 188.5 153.85 185.9 151.35 183.35 148.95 182.85 145.15 182.55 142.7 185.1 141.25 187.35 139.95 190.4 140.05 Z" fill="none" stroke="#000000" stroke-linecap="round" stroke-linejoin="round" stroke-width="4.0"/>
    <path d="M101.05 198.5 L100.0 190.7 Q99.05 182.15 99.4 178.4 99.75 174.6 101.0 166.45 102.2 158.25 104.4 151.95 L108.2 139.75 111.05 129.3 Q112.2 124.75 114.15 118.55 L116.45 111.05 116.75 109.65 116.7 99.95 116.6 90.0" fill="none" stroke="#000000" stroke-linecap="round" stroke-linejoin="round" stroke-width="4.0"/>
    <path d="M23.45 233.0 L48.55 236.5 Q64.1 237.7 72.45 233.35 79.2 229.85 85.95 213.45 90.4 201.45 91.45 197.65 L101.05 198.5" fill="none" stroke="#000000" stroke-linecap="round" stroke-linejoin="round" stroke-width="4.0"/>
    <path d="M189.75 243.75 L185.3 249.7 180.6 255.55 174.95 261.1 171.2 264.5 168.9 264.8 166.2 264.05 Q164.45 259.65 160.4 239.9 157.15 223.95 152.05 217.3 147.45 211.35 131.35 204.85 119.8 200.55 116.2 199.55 L110.35 199.1 101.05 198.5" fill="none" stroke="#000000" stroke-linecap="round" stroke-linejoin="round" stroke-width="4.0"/>
    <path d="M0.0 250.4 Q2.8 248.25 5.95 245.95 L11.75 241.2 16.95 235.5 20.1 231.7 23.45 233.0" fill="none" stroke="#000000" stroke-linecap="round" stroke-linejoin="round" stroke-width="4.0"/>
    <path d="M63.95 53.45 L113.85 50.0 163.7 46.55 Q165.15 67.25 151.6 82.85 138.0 98.45 117.3 99.9 96.6 101.3 81.0 87.75 65.4 74.15 63.95 53.45" fill="#ffffff" fill-rule="evenodd" stroke="none"/>
    <path d="M163.7 46.55 Q165.15 67.25 151.6 82.85 138.0 98.45 117.3 99.9 96.6 101.3 81.0 87.75 65.4 74.15 63.95 53.45" fill="none" stroke="#000000" stroke-linecap="round" stroke-linejoin="round" stroke-width="4.0"/>
    <path d="M90.45 5.8 Q99.75 0.85 110.4 0.1 121.0 -0.6 130.9 2.95 139.7 6.15 146.7 12.25 153.7 18.35 158.05 26.6 163.0 35.9 163.7 46.55 L113.85 50.0 63.95 53.45 Q63.25 42.85 66.8 32.95 70.0 24.15 76.1 17.15 82.2 10.15 90.45 5.8" fill="#ffffff" fill-rule="evenodd" stroke="none"/>
    <path d="M63.95 53.45 Q63.25 42.85 66.8 32.95 70.0 24.15 76.1 17.15 82.2 10.15 90.45 5.8 99.75 0.85 110.4 0.1 121.0 -0.6 130.9 2.95 139.7 6.15 146.7 12.25 153.7 18.35 158.05 26.6 163.0 35.9 163.7 46.55" fill="none" stroke="#000000" stroke-linecap="round" stroke-linejoin="round" stroke-width="4.0"/>
  </g>
</svg>
