<?xml version="1.0" encoding="UTF-8" standalone="no"?>
<svg xmlns:xlink="http://www.w3.org/1999/xlink" height="46.95px" width="44.45px" xmlns="http://www.w3.org/2000/svg">
  <g transform="matrix(1.0, 0.0, 0.0, 1.0, 8.35, 8.05)">
    <path d="M-8.35 -8.05 L36.1 -8.05 36.1 38.9 -8.35 38.9 -8.35 -8.05" fill="#ffffff" fill-opacity="0.0" fill-rule="evenodd" stroke="none"/>
    <path d="M24.15 24.15 Q20.0 28.3 14.15 28.3 8.3 28.3 4.1 24.15 0.0 20.0 0.0 14.15 0.0 8.3 4.1 4.1 8.3 0.0 14.15 0.0 20.0 0.0 24.15 4.1 28.3 8.3 28.3 14.15 28.3 20.0 24.15 24.15 M21.3 6.1 L17.6 6.1 21.3 6.1 M10.4 6.1 L6.75 6.1 10.4 6.1" fill="#ffffff" fill-rule="evenodd" stroke="none"/>
    <path d="M24.15 24.15 Q20.0 28.3 14.15 28.3 8.3 28.3 4.1 24.15 0.0 20.0 0.0 14.15 0.0 8.3 4.1 4.1 8.3 0.0 14.15 0.0 20.0 0.0 24.15 4.1 28.3 8.3 28.3 14.15 28.3 20.0 24.15 24.15" fill="none" stroke="#000000" stroke-linecap="round" stroke-linejoin="round" stroke-width="1.5"/>
    <path d="M6.75 6.1 L10.4 6.1 M17.6 6.1 L21.3 6.1" fill="none" stroke="#000000" stroke-linecap="round" stroke-linejoin="round" stroke-width="1.0"/>
  </g>
</svg>
