<?xml version="1.0" encoding="UTF-8" standalone="no"?>
<svg xmlns:xlink="http://www.w3.org/1999/xlink" height="207.15px" width="207.15px" xmlns="http://www.w3.org/2000/svg">
  <g transform="matrix(1.0, 0.0, 0.0, 1.0, 179.55, 103.1)">
    <path d="M-27.85 -79.05 L-10.85 -80.9 -8.9 -63.9 7.95 -61.25 5.45 -44.35 21.1 -37.45 14.3 -21.75 27.6 -11.0 17.0 2.35 27.05 16.2 13.3 26.35 19.45 42.3 3.6 48.6 5.4 65.6 -11.6 67.55 -14.25 84.4 -31.15 81.9 -38.05 97.55 -53.75 90.75 -64.5 104.05 -77.85 93.45 -91.7 103.5 -101.85 89.75 -117.8 95.9 -124.1 80.0 -141.05 81.85 -143.05 64.85 -159.9 62.2 -157.4 45.3 -173.05 38.4 -166.25 22.7 -179.55 11.95 -168.9 -1.4 -179.0 -15.25 -165.25 -25.4 -171.4 -41.35 -155.5 -47.65 -157.3 -64.65 -140.35 -66.6 -137.7 -83.45 -120.8 -80.95 -113.9 -96.6 -98.2 -89.8 -87.45 -103.1 -74.1 -92.5 -60.25 -102.55 -50.1 -88.8 -34.15 -94.95 -27.85 -79.05 M12.35 1.35 Q12.35 -35.1 -13.4 -60.85 -39.15 -86.6 -75.6 -86.6 -112.05 -86.6 -137.8 -60.85 -163.55 -35.1 -163.55 1.35 -163.55 37.8 -137.8 63.55 -112.05 89.3 -75.6 89.3 -39.15 89.3 -13.4 63.55 12.35 37.8 12.35 1.35" fill="#feeba3" fill-rule="evenodd" stroke="none"/>
    <path d="M12.35 1.35 Q12.35 37.8 -13.4 63.55 -39.15 89.3 -75.6 89.3 -112.05 89.3 -137.8 63.55 -163.55 37.8 -163.55 1.35 -163.55 -35.1 -137.8 -60.85 -112.05 -86.6 -75.6 -86.6 -39.15 -86.6 -13.4 -60.85 12.35 -35.1 12.35 1.35" fill="#fefdab" fill-rule="evenodd" stroke="none"/>
  </g>
</svg>
