<?xml version="1.0" encoding="UTF-8" standalone="no"?>
<svg xmlns:xlink="http://www.w3.org/1999/xlink" height="13.95px" width="17.95px" xmlns="http://www.w3.org/2000/svg">
  <g transform="matrix(1.0, 0.0, 0.0, 1.0, 8.95, 4.95)">
    <path d="M-4.8 -1.5 L-5.25 -0.3 -1.7 -0.3 -0.8 -3.7 -2.25 -3.7 0.0 -4.95 2.25 -3.7 0.95 -3.7 1.7 -0.3 2.05 -0.3 5.4 -0.3 4.9 -1.5 9.0 0.2 6.35 1.85 5.85 0.8 2.0 0.8 2.95 4.7 6.5 4.7 0.0 9.0 -6.45 4.7 -2.95 4.7 -1.95 0.8 -5.8 0.8 -6.3 1.85 -8.95 0.2 -4.8 -1.5" fill="#ffffff" fill-rule="evenodd" stroke="none"/>
  </g>
</svg>
