<?xml version="1.0" encoding="UTF-8" standalone="no"?>
<svg xmlns:xlink="http://www.w3.org/1999/xlink" height="13.7px" width="10.35px" xmlns="http://www.w3.org/2000/svg">
  <g transform="matrix(1.0, 0.0, 0.0, 1.0, 4.75, 6.5)">
    <path d="M-0.35 -3.0 L-0.55 -2.45 -0.55 -1.05 1.3 -1.05 1.3 -2.45 1.15 -3.0 1.1 -3.05 0.75 -3.15 -0.05 -3.15 -0.3 -3.0 -0.35 -3.0 M-3.6 -3.25 Q-3.6 -4.6 -2.65 -5.5 -1.7 -6.5 -0.4 -6.5 L1.2 -6.5 Q2.5 -6.5 3.4 -5.55 L3.45 -5.5 Q4.4 -4.6 4.4 -3.25 L4.4 -1.05 4.85 -1.05 5.4 -0.8 5.6 -0.3 5.6 5.15 Q5.5 7.2 3.5 7.2 L-2.6 7.2 Q-4.65 7.2 -4.75 5.15 L-4.75 -0.3 -4.5 -0.8 -4.0 -1.05 -3.6 -1.05 -3.6 -3.25 M0.4 2.15 L0.1 2.25 0.0 2.6 0.0 3.85 0.1 4.15 0.4 4.3 0.45 4.3 0.7 4.15 0.85 3.85 0.85 2.6 0.7 2.25 0.45 2.15 0.4 2.15" fill="#ffffff" fill-rule="evenodd" stroke="none"/>
  </g>
</svg>
