<?xml version="1.0" encoding="UTF-8" standalone="no"?>
<svg xmlns:xlink="http://www.w3.org/1999/xlink" height="8.8px" width="13.75px" xmlns="http://www.w3.org/2000/svg">
  <g transform="matrix(1.0, 0.0, 0.0, 1.0, 6.55, 4.2)">
    <path d="M-3.85 4.15 L-5.1 3.2 Q-6.25 2.05 -6.45 0.5 L-6.55 -0.5 -4.55 -0.75 -4.45 0.25 Q-4.35 1.15 -3.7 1.8 L-2.95 2.35 -2.9 2.4 -1.75 2.6 -0.55 2.4 -0.5 2.35 0.2 1.8 -1.0 0.6 2.8 0.6 2.8 4.4 1.6 3.2 0.4 4.15 0.35 4.15 Q-0.6 4.6 -1.75 4.6 L-3.8 4.15 -3.85 4.15 M-0.95 -2.8 Q0.45 -4.2 2.4 -4.2 4.35 -4.2 5.75 -2.8 7.1 -1.45 7.15 0.35 L7.2 1.35 5.2 1.4 5.15 0.4 Q5.1 -0.65 4.35 -1.4 3.55 -2.2 2.4 -2.2 1.25 -2.2 0.45 -1.4 L1.65 -0.2 -2.15 -0.2 -2.15 -4.0 -0.95 -2.8" fill="#ffffff" fill-rule="evenodd" stroke="none"/>
  </g>
</svg>
