<?xml version="1.0" encoding="UTF-8" standalone="no"?>
<svg xmlns:xlink="http://www.w3.org/1999/xlink" height="84.25px" width="171.8px" xmlns="http://www.w3.org/2000/svg">
  <g transform="matrix(1.0, 0.0, 0.0, 1.0, 0.0, -0.05)">
    <path d="M168.4 77.55 Q165.1 80.95 160.4 80.95 155.65 80.95 152.25 77.55 L151.3 76.6 Q146.75 79.8 140.85 79.8 136.4 79.8 132.75 78.0 128.7 81.05 123.45 81.05 117.0 81.05 112.55 76.5 L110.65 74.25 110.5 74.45 Q105.1 79.8 97.55 79.8 90.95 79.8 86.05 75.85 L82.1 79.25 Q74.55 84.3 63.95 84.3 53.3 84.3 45.75 79.25 L43.6 77.55 Q38.15 82.15 30.8 82.15 23.0 82.15 17.3 76.9 15.95 77.75 14.5 78.05 L11.4 78.5 Q6.7 78.5 3.3 75.1 0.0 71.8 0.0 67.05 0.0 62.25 3.3 58.95 6.7 55.55 11.4 55.55 L11.85 55.55 Q12.75 52.85 14.5 50.45 L16.7 47.95 Q22.5 42.05 30.8 42.05 L32.2 42.15 Q32.95 36.05 37.4 31.5 39.4 29.6 41.65 28.35 L41.45 25.45 Q41.45 14.95 48.9 7.5 56.35 0.05 66.85 0.05 77.45 0.05 84.8 7.5 90.8 13.35 92.0 21.2 L93.7 21.15 Q98.4 21.15 102.35 23.3 L104.85 20.3 Q111.2 14.0 120.15 14.0 129.2 14.0 135.55 20.3 141.85 26.7 141.85 35.7 141.85 39.65 140.6 43.15 L140.85 43.15 Q148.4 43.15 153.75 48.55 157.9 52.65 158.9 58.2 L160.4 58.15 Q165.1 58.15 168.4 61.45 171.8 64.85 171.8 69.55 171.8 74.25 168.4 77.55" fill="#f8ffff" fill-rule="evenodd" stroke="none"/>
  </g>
</svg>
