<?xml version="1.0" encoding="UTF-8" standalone="no"?>
<svg xmlns:xlink="http://www.w3.org/1999/xlink" height="340.1px" width="317.8px" xmlns="http://www.w3.org/2000/svg">
  <g transform="matrix(1.0, 0.0, 0.0, 1.0, 0.0, 0.0)">
    <path d="M0.0 0.0 L317.8 0.0 317.8 340.1 0.0 340.1 0.0 0.0" fill="#ffffff" fill-opacity="0.0" fill-rule="evenodd" stroke="none"/>
    <path d="M181.35 110.05 Q166.0 123.9 145.25 122.85 124.55 121.8 110.7 106.45 96.8 91.1 97.9 70.35 L147.8 72.9 197.75 75.45 Q196.7 96.2 181.35 110.05" fill="#ffffff" fill-rule="evenodd" stroke="none"/>
    <path d="M197.75 75.45 Q196.7 96.2 181.35 110.05 166.0 123.9 145.25 122.85 124.55 121.8 110.7 106.45 96.8 91.1 97.9 70.35" fill="none" stroke="#000000" stroke-linecap="round" stroke-linejoin="round" stroke-width="4.0"/>
    <path d="M129.9 26.2 Q139.75 22.45 150.35 23.0 161.0 23.55 170.4 28.3 178.7 32.5 184.95 39.4 191.15 46.3 194.5 55.0 198.3 64.85 197.75 75.45 L147.8 72.9 97.9 70.35 Q98.4 59.75 103.15 50.35 107.4 42.0 114.3 35.8 121.15 29.55 129.9 26.2" fill="#ffffff" fill-rule="evenodd" stroke="none"/>
    <path d="M97.9 70.35 Q98.4 59.75 103.15 50.35 107.4 42.0 114.3 35.8 121.15 29.55 129.9 26.2 139.75 22.45 150.35 23.0 161.0 23.55 170.4 28.3 178.7 32.5 184.95 39.4 191.15 46.3 194.5 55.0 198.3 64.85 197.75 75.45" fill="none" stroke="#000000" stroke-linecap="round" stroke-linejoin="round" stroke-width="4.0"/>
  </g>
</svg>
