<?xml version="1.0" encoding="UTF-8" standalone="no"?>
<svg xmlns:xlink="http://www.w3.org/1999/xlink" height="340.1px" width="317.8px" xmlns="http://www.w3.org/2000/svg">
  <g transform="matrix(1.0, 0.0, 0.0, 1.0, 0.0, 0.0)">
    <path d="M317.8 340.1 L0.0 340.1 0.0 0.0 317.8 0.0 317.8 340.1" fill="#ffffff" fill-opacity="0.0" fill-rule="evenodd" stroke="none"/>
    <path d="M82.8 213.05 L81.85 192.85 Q81.3 179.95 83.45 173.1 85.75 165.9 96.1 152.2 104.55 141.05 106.05 139.9 L136.7 132.45 164.45 142.25 Q164.3 146.15 164.8 158.8 166.2 176.45 171.4 181.9 176.45 187.1 189.75 188.45 L210.65 190.45" fill="none" stroke="#000000" stroke-linecap="round" stroke-linejoin="round" stroke-width="4.0"/>
    <path d="M82.9 212.0 Q86.05 212.55 87.75 215.3 89.45 218.1 88.65 221.15 87.75 224.55 84.95 226.4 82.15 228.25 78.75 227.65 76.0 227.2 74.8 224.35 73.7 221.7 74.5 218.7 75.35 215.45 77.55 213.55 79.95 211.45 82.9 212.0" fill="#ffffff" fill-rule="evenodd" stroke="none"/>
    <path d="M82.9 212.0 Q86.05 212.55 87.75 215.3 89.45 218.1 88.65 221.15 87.75 224.55 84.95 226.4 82.15 228.25 78.75 227.65 76.0 227.2 74.8 224.35 73.7 221.7 74.5 218.7 75.35 215.45 77.55 213.55 79.95 211.45 82.9 212.0 Z" fill="none" stroke="#000000" stroke-linecap="round" stroke-linejoin="round" stroke-width="4.0"/>
    <path d="M223.95 188.7 Q225.7 191.5 224.8 194.6 223.95 197.5 221.0 198.65 L215.1 198.8 Q211.95 197.8 210.25 195.3 208.4 192.65 209.25 189.7 210.15 186.7 213.1 185.35 215.95 184.0 219.05 185.0 222.25 186.0 223.95 188.7" fill="#ffffff" fill-rule="evenodd" stroke="none"/>
    <path d="M223.95 188.7 Q225.7 191.5 224.8 194.6 223.95 197.5 221.0 198.65 L215.1 198.8 Q211.95 197.8 210.25 195.3 208.4 192.65 209.25 189.7 210.15 186.7 213.1 185.35 215.95 184.0 219.05 185.0 222.25 186.0 223.95 188.7 Z" fill="none" stroke="#000000" stroke-linecap="round" stroke-linejoin="round" stroke-width="4.0"/>
    <path d="M135.75 112.55 L135.6 122.5 135.4 132.45 135.3 132.35 135.15 132.25 133.6 144.95 Q132.7 152.8 132.45 157.65 132.05 163.75 132.0 169.8 131.9 176.9 132.2 182.0 132.45 185.7 133.55 192.35 L135.3 202.65 136.85 214.5 137.8 222.05" fill="none" stroke="#000000" stroke-linecap="round" stroke-linejoin="round" stroke-width="4.0"/>
    <path d="M168.5 302.2 L159.15 279.5 Q153.15 264.95 149.15 257.1 145.65 250.35 136.4 235.85 L127.75 222.7 132.8 222.4 137.8 222.05" fill="none" stroke="#000000" stroke-linecap="round" stroke-linejoin="round" stroke-width="4.0"/>
    <path d="M137.8 222.05 L146.95 221.2 152.75 220.7 Q153.4 222.85 153.4 236.65 153.35 253.9 149.95 260.6 146.05 268.25 133.85 278.65 117.2 292.75 115.2 294.9 114.45 295.7 113.55 298.05 L112.8 300.25 116.7 302.85 Q120.95 305.5 123.1 306.15 L129.9 307.05 136.85 307.35" fill="none" stroke="#000000" stroke-linecap="round" stroke-linejoin="round" stroke-width="4.0"/>
    <path d="M193.7 291.0 L188.4 296.0 Q185.05 299.15 182.95 300.7 181.05 302.05 176.45 304.55 L172.2 306.75 170.75 305.0 168.5 302.2" fill="none" stroke="#000000" stroke-linecap="round" stroke-linejoin="round" stroke-width="4.0"/>
    <path d="M134.75 72.45 L184.75 71.15 Q185.3 91.9 171.05 106.9 156.8 121.9 136.05 122.45 115.3 122.95 100.3 108.75 85.3 94.5 84.8 73.75 L134.75 72.45" fill="#ffffff" fill-rule="evenodd" stroke="none"/>
    <path d="M184.75 71.15 Q185.3 91.9 171.05 106.9 156.8 121.9 136.05 122.45 115.3 122.95 100.3 108.75 85.3 94.5 84.8 73.75" fill="none" stroke="#000000" stroke-linecap="round" stroke-linejoin="round" stroke-width="4.0"/>
    <path d="M133.45 22.45 Q144.1 22.2 153.85 26.2 162.5 29.8 169.2 36.2 175.95 42.55 179.95 51.0 184.45 60.55 184.75 71.15 L134.75 72.45 84.8 73.75 Q84.5 63.1 88.5 53.4 92.1 44.75 98.5 38.0 104.85 31.25 113.3 27.25 122.85 22.75 133.45 22.45" fill="#ffffff" fill-rule="evenodd" stroke="none"/>
    <path d="M84.8 73.75 Q84.5 63.1 88.5 53.4 92.1 44.75 98.5 38.0 104.85 31.25 113.3 27.25 122.85 22.75 133.45 22.45 144.1 22.2 153.85 26.2 162.5 29.8 169.2 36.2 175.95 42.55 179.95 51.0 184.45 60.55 184.75 71.15" fill="none" stroke="#000000" stroke-linecap="round" stroke-linejoin="round" stroke-width="4.0"/>
  </g>
</svg>
