<?xml version="1.0" encoding="UTF-8" standalone="no"?>
<svg xmlns:xlink="http://www.w3.org/1999/xlink" height="340.1px" width="317.8px" xmlns="http://www.w3.org/2000/svg">
  <g transform="matrix(1.0, 0.0, 0.0, 1.0, 0.0, 0.0)">
    <path d="M317.8 340.1 L0.0 340.1 0.0 0.0 317.8 0.0 317.8 340.1" fill="#ffffff" fill-opacity="0.0" fill-rule="evenodd" stroke="none"/>
    <path d="M124.5 217.8 L121.8 198.0 Q120.1 185.35 120.2 178.1 120.3 170.55 122.85 153.7 L125.4 138.3 160.2 136.7 185.15 153.1 181.7 168.4 Q178.15 185.15 177.65 192.7 177.2 199.9 178.3 212.7 L180.05 232.7" fill="none" stroke="#000000" stroke-linecap="round" stroke-linejoin="round" stroke-width="4.0"/>
    <path d="M188.1 238.65 Q188.4 241.85 186.65 244.4 184.85 247.0 181.8 247.25 178.65 247.45 176.35 245.2 174.1 243.0 173.8 239.7 173.5 236.5 175.35 233.95 177.25 231.35 180.35 231.15 183.4 230.9 185.65 233.2 187.8 235.35 188.1 238.65" fill="#ffffff" fill-rule="evenodd" stroke="none"/>
    <path d="M188.1 238.65 Q188.4 241.85 186.65 244.4 184.85 247.0 181.8 247.25 178.65 247.45 176.35 245.2 174.1 243.0 173.8 239.7 173.5 236.5 175.35 233.95 177.25 231.35 180.35 231.15 183.4 230.9 185.65 233.2 187.8 235.35 188.1 238.65 Z" fill="none" stroke="#000000" stroke-linecap="round" stroke-linejoin="round" stroke-width="4.0"/>
    <path d="M166.7 118.05 L162.7 127.2 158.7 136.3 158.7 136.25 154.5 147.85 150.0 159.5 144.55 170.35 Q140.8 177.5 139.5 181.4 138.1 185.7 137.15 191.7 136.25 197.15 136.05 202.2 135.85 205.9 136.75 214.35 L137.7 222.05 M158.7 136.25 L158.75 136.1 158.7 136.2 158.7 136.25" fill="none" stroke="#000000" stroke-linecap="round" stroke-linejoin="round" stroke-width="4.0"/>
    <path d="M168.5 302.2 L159.15 279.5 Q153.15 264.95 149.15 257.1 145.65 250.35 136.4 235.85 L127.75 222.7 132.75 222.35 137.7 222.05" fill="none" stroke="#000000" stroke-linecap="round" stroke-linejoin="round" stroke-width="4.0"/>
    <path d="M137.7 222.05 L146.9 221.2 152.7 220.7 Q153.4 222.8 153.4 236.65 153.35 253.9 149.95 260.6 146.05 268.25 133.85 278.65 117.25 292.7 115.2 294.9 114.4 295.7 113.55 298.05 L112.85 300.3 116.75 302.8 Q121.1 305.45 123.2 306.05 L130.05 306.85 137.0 307.1" fill="none" stroke="#000000" stroke-linecap="round" stroke-linejoin="round" stroke-width="4.0"/>
    <path d="M193.7 291.0 L188.4 296.0 Q185.05 299.15 182.95 300.7 181.05 302.05 176.45 304.55 L172.2 306.75 170.75 305.0 168.5 302.2" fill="none" stroke="#000000" stroke-linecap="round" stroke-linejoin="round" stroke-width="4.0"/>
    <path d="M142.35 58.8 L186.1 83.0 229.85 107.2 Q219.8 125.35 199.95 131.1 180.05 136.8 161.9 126.75 143.75 116.7 138.05 96.85 132.3 76.95 142.35 58.8" fill="#ffffff" fill-rule="evenodd" stroke="none"/>
    <path d="M229.85 107.2 Q219.8 125.35 199.95 131.1 180.05 136.8 161.9 126.75 143.75 116.7 138.05 96.85 132.3 76.95 142.35 58.8" fill="none" stroke="#000000" stroke-linecap="round" stroke-linejoin="round" stroke-width="4.0"/>
    <path d="M235.95 87.4 Q235.0 97.9 229.85 107.2 L186.1 83.0 142.35 58.8 Q147.5 49.5 155.9 43.15 163.35 37.5 172.3 34.9 181.2 32.35 190.5 33.15 201.0 34.1 210.3 39.25 219.65 44.4 226.0 52.8 231.65 60.25 234.2 69.15 236.75 78.1 235.95 87.4" fill="#ffffff" fill-rule="evenodd" stroke="none"/>
    <path d="M142.35 58.8 Q147.5 49.5 155.9 43.15 163.35 37.5 172.3 34.9 181.2 32.35 190.5 33.15 201.0 34.1 210.3 39.25 219.65 44.4 226.0 52.8 231.65 60.25 234.2 69.15 236.75 78.1 235.95 87.4 235.0 97.9 229.85 107.2" fill="none" stroke="#000000" stroke-linecap="round" stroke-linejoin="round" stroke-width="4.0"/>
  </g>
</svg>
