<?xml version="1.0" encoding="UTF-8" standalone="no"?>
<svg xmlns:xlink="http://www.w3.org/1999/xlink" height="20.35px" width="18.45px" xmlns="http://www.w3.org/2000/svg">
  <g transform="matrix(1.0, 0.0, 0.0, 1.0, -115.75, -214.65)">
    <path d="M124.4 216.75 Q127.5 216.5 129.75 218.75 131.95 220.9 132.15 224.15 132.4 227.45 130.6 230.0 128.7 232.6 125.55 232.9 122.5 233.15 120.2 230.9 118.0 228.7 117.8 225.45 117.55 222.15 119.4 219.65 121.3 217.05 124.4 216.75" fill="#ffffff" fill-rule="evenodd" stroke="none"/>
    <path d="M124.4 216.75 Q127.5 216.5 129.75 218.75 131.95 220.9 132.15 224.15 132.4 227.45 130.6 230.0 128.7 232.6 125.55 232.9 122.5 233.15 120.2 230.9 118.0 228.7 117.8 225.45 117.55 222.15 119.4 219.65 121.3 217.05 124.4 216.75 Z" fill="none" stroke="#000000" stroke-linecap="round" stroke-linejoin="round" stroke-width="4.0"/>
  </g>
</svg>
