<?xml version="1.0" encoding="UTF-8" standalone="no"?>
<svg xmlns:xlink="http://www.w3.org/1999/xlink" height="340.1px" width="317.8px" xmlns="http://www.w3.org/2000/svg">
  <g transform="matrix(1.0, 0.0, 0.0, 1.0, 0.0, 0.0)">
    <path d="M317.8 340.1 L0.0 340.1 0.0 0.0 317.8 0.0 317.8 340.1" fill="#ffffff" fill-opacity="0.0" fill-rule="evenodd" stroke="none"/>
    <path d="M140.75 199.2 Q135.6 190.45 128.8 180.8 126.05 176.5 124.75 172.9 121.7 172.95 119.35 171.9 112.5 168.8 107.45 151.6 103.0 136.55 103.75 135.0 L138.05 134.25 163.15 151.8 145.7 153.1 Q127.65 155.7 124.45 162.5 122.5 166.65 124.75 172.9 130.3 172.75 138.2 168.9 148.3 163.45 157.4 159.4" fill="none" stroke="#000000" stroke-linecap="round" stroke-linejoin="round" stroke-width="4.0"/>
    <path d="M156.4 159.75 Q155.1 157.15 156.35 154.35 157.5 151.85 160.25 150.15 162.9 148.5 165.7 148.75 168.75 148.95 169.95 151.4 171.55 154.5 170.6 157.75 169.65 161.0 166.7 162.85 164.0 164.45 160.9 163.5 157.85 162.55 156.4 159.75" fill="#ffffff" fill-rule="evenodd" stroke="none"/>
    <path d="M156.4 159.75 Q155.1 157.15 156.35 154.35 157.5 151.85 160.25 150.15 162.9 148.5 165.7 148.75 168.75 148.95 169.95 151.4 171.55 154.5 170.6 157.75 169.65 161.0 166.7 162.85 164.0 164.45 160.9 163.5 157.85 162.55 156.4 159.75 Z" fill="none" stroke="#000000" stroke-linecap="round" stroke-linejoin="round" stroke-width="4.0"/>
    <path d="M144.05 211.75 Q140.7 211.2 138.55 208.4 136.55 205.9 137.1 202.65 137.65 199.4 140.35 197.7 142.75 196.1 145.65 197.2 148.25 198.15 150.35 200.8 152.25 203.2 152.4 205.9 152.55 208.95 150.35 210.35 147.4 212.3 144.05 211.75" fill="#ffffff" fill-rule="evenodd" stroke="none"/>
    <path d="M144.05 211.75 Q140.7 211.2 138.55 208.4 136.55 205.9 137.1 202.65 137.65 199.4 140.35 197.7 142.75 196.1 145.65 197.2 148.25 198.15 150.35 200.8 152.25 203.2 152.4 205.9 152.55 208.95 150.35 210.35 147.4 212.3 144.05 211.75 Z" fill="none" stroke="#000000" stroke-linecap="round" stroke-linejoin="round" stroke-width="4.0"/>
    <path d="M144.4 115.45 L140.75 124.7 137.0 133.95 136.6 133.65 129.9 146.15 Q125.75 154.0 124.1 159.0 122.65 163.5 121.85 169.6 121.15 175.45 121.3 180.5 121.45 186.05 122.5 191.8 123.7 198.3 125.55 202.7 127.05 206.15 132.5 212.85 L137.7 218.85" fill="none" stroke="#000000" stroke-linecap="round" stroke-linejoin="round" stroke-width="4.0"/>
    <path d="M137.7 218.85 L129.2 223.35 Q130.95 227.15 135.3 239.8 140.45 257.35 135.65 263.2 129.55 270.55 113.7 272.6 L87.8 273.45" fill="none" stroke="#000000" stroke-linecap="round" stroke-linejoin="round" stroke-width="4.0"/>
    <path d="M222.05 225.7 L216.45 230.7 210.75 235.5 204.2 240.1 199.95 242.9 197.9 242.9 195.55 241.9 Q194.85 239.15 194.4 215.7 194.05 198.8 186.95 193.95 180.75 189.7 165.35 200.15 154.4 208.45 151.1 211.5 L145.9 214.35 137.7 218.85" fill="none" stroke="#000000" stroke-linecap="round" stroke-linejoin="round" stroke-width="4.0"/>
    <path d="M70.2 294.5 L74.85 288.65 79.25 282.65 83.0 275.85 85.2 271.45 87.8 273.45" fill="none" stroke="#000000" stroke-linecap="round" stroke-linejoin="round" stroke-width="4.0"/>
    <path d="M96.8 72.6 L146.7 75.4 196.65 78.25 Q195.45 98.95 180.05 112.75 164.6 126.5 143.9 125.35 123.2 124.2 109.4 108.75 95.65 93.35 96.8 72.6" fill="#ffffff" fill-rule="evenodd" stroke="none"/>
    <path d="M196.65 78.25 Q195.45 98.95 180.05 112.75 164.6 126.5 143.9 125.35 123.2 124.2 109.4 108.75 95.65 93.35 96.8 72.6" fill="none" stroke="#000000" stroke-linecap="round" stroke-linejoin="round" stroke-width="4.0"/>
    <path d="M129.05 28.6 Q138.9 24.9 149.5 25.5 160.15 26.1 169.5 30.9 177.85 35.15 184.0 42.1 190.2 49.0 193.5 57.75 197.25 67.6 196.65 78.25 L146.7 75.4 96.8 72.6 Q97.4 62.0 102.2 52.6 106.45 44.3 113.4 38.1 120.3 31.95 129.05 28.6" fill="#ffffff" fill-rule="evenodd" stroke="none"/>
    <path d="M96.8 72.6 Q97.4 62.0 102.2 52.6 106.45 44.3 113.4 38.1 120.3 31.95 129.05 28.6 138.9 24.9 149.5 25.5 160.15 26.1 169.5 30.9 177.85 35.15 184.0 42.1 190.2 49.0 193.5 57.75 197.25 67.6 196.65 78.25" fill="none" stroke="#000000" stroke-linecap="round" stroke-linejoin="round" stroke-width="4.0"/>
  </g>
</svg>
