<?xml version="1.0" encoding="UTF-8" standalone="no"?>
<svg xmlns:xlink="http://www.w3.org/1999/xlink" height="340.1px" width="317.8px" xmlns="http://www.w3.org/2000/svg">
  <g transform="matrix(1.0, 0.0, 0.0, 1.0, 0.0, 0.0)">
    <path d="M317.8 340.1 L0.0 340.1 0.0 0.0 317.8 0.0 317.8 340.1" fill="#ffffff" fill-opacity="0.0" fill-rule="evenodd" stroke="none"/>
    <path d="M188.15 286.0 L184.85 266.3 Q182.8 253.7 182.6 246.5 182.45 238.95 184.3 222.0 L186.25 206.55 211.55 224.5 216.6 247.9 Q215.95 251.65 214.75 264.2 213.65 281.7 217.6 288.15 221.45 294.3 233.7 299.3 244.1 303.1 253.05 307.0" fill="none" stroke="#000000" stroke-linecap="round" stroke-linejoin="round" stroke-width="4.0"/>
    <path d="M193.35 286.5 Q195.65 288.45 196.2 291.6 196.7 294.85 195.2 297.45 193.65 300.25 190.65 300.75 187.55 301.25 185.0 299.25 182.5 297.25 181.95 294.0 181.4 290.8 183.15 288.15 184.9 285.5 188.0 284.95 191.0 284.45 193.35 286.5" fill="#ffffff" fill-rule="evenodd" stroke="none"/>
    <path d="M193.35 286.5 Q195.65 288.45 196.2 291.6 196.7 294.85 195.2 297.45 193.65 300.25 190.65 300.75 187.55 301.25 185.0 299.25 182.5 297.25 181.95 294.0 181.4 290.8 183.15 288.15 184.9 285.5 188.0 284.95 191.0 284.45 193.35 286.5 Z" fill="none" stroke="#000000" stroke-linecap="round" stroke-linejoin="round" stroke-width="4.0"/>
    <path d="M267.4 307.95 Q266.45 311.55 263.75 313.55 260.95 315.65 257.35 315.2 254.3 314.85 252.6 312.0 250.95 309.2 251.75 306.1 252.5 303.4 255.25 302.3 257.65 301.4 261.0 301.75 263.85 302.1 265.85 303.75 268.05 305.6 267.4 307.95" fill="#ffffff" fill-rule="evenodd" stroke="none"/>
    <path d="M267.4 307.95 Q266.45 311.55 263.75 313.55 260.95 315.65 257.35 315.2 254.3 314.85 252.6 312.0 250.95 309.2 251.75 306.1 252.5 303.4 255.25 302.3 257.65 301.4 261.0 301.75 263.85 302.1 265.85 303.75 268.05 305.6 267.4 307.95 Z" fill="none" stroke="#000000" stroke-linecap="round" stroke-linejoin="round" stroke-width="4.0"/>
    <path d="M226.4 210.65 L218.6 216.8 210.8 223.0 211.0 223.0 Q205.35 223.85 197.5 223.25 189.6 222.65 171.35 224.8 153.05 226.95 142.5 242.05 139.5 245.4 138.25 255.8 L137.65 265.55" fill="none" stroke="#000000" stroke-linecap="round" stroke-linejoin="round" stroke-width="4.0"/>
    <path d="M86.35 305.9 Q101.5 308.85 112.3 308.7 128.35 308.45 135.1 301.45 140.3 295.95 135.05 278.25 130.55 265.5 128.75 261.6 L133.2 263.55 137.65 265.55" fill="none" stroke="#000000" stroke-linecap="round" stroke-linejoin="round" stroke-width="4.0"/>
    <path d="M137.65 265.55 L146.3 269.25 151.75 271.65 Q154.95 275.05 163.35 286.35 173.9 302.2 168.8 307.7 162.85 314.15 146.2 311.1 132.25 307.85 120.05 306.1 L119.1 306.4 115.05 308.75 Q110.55 311.25 108.35 311.95 L100.65 313.4 92.85 314.45" fill="none" stroke="#000000" stroke-linecap="round" stroke-linejoin="round" stroke-width="4.0"/>
    <path d="M64.7 321.9 L70.4 317.1 75.95 312.05 81.05 306.2 84.15 302.35 85.0 303.7 86.35 305.9" fill="none" stroke="#000000" stroke-linecap="round" stroke-linejoin="round" stroke-width="4.0"/>
    <path d="M287.15 190.15 Q280.05 209.65 261.3 218.35 242.55 227.1 223.05 220.0 203.55 212.9 194.85 194.15 186.1 175.4 193.2 155.9 L240.2 173.0 287.15 190.15" fill="#ffffff" fill-rule="evenodd" stroke="none"/>
    <path d="M287.15 190.15 Q280.05 209.65 261.3 218.35 242.55 227.1 223.05 220.0 203.55 212.9 194.85 194.15 186.1 175.4 193.2 155.9" fill="none" stroke="#000000" stroke-linecap="round" stroke-linejoin="round" stroke-width="4.0"/>
    <path d="M219.05 127.65 Q227.5 123.75 236.8 123.1 247.3 122.4 257.3 126.05 267.3 129.7 274.9 137.0 281.6 143.5 285.55 151.9 289.45 160.3 290.1 169.65 290.8 180.15 287.15 190.15 L240.2 173.0 193.2 155.9 Q196.85 145.9 204.15 138.3 210.65 131.6 219.05 127.65" fill="#ffffff" fill-rule="evenodd" stroke="none"/>
    <path d="M193.2 155.9 Q196.85 145.9 204.15 138.3 210.65 131.6 219.05 127.65 227.5 123.75 236.8 123.1 247.3 122.4 257.3 126.05 267.3 129.7 274.9 137.0 281.6 143.5 285.55 151.9 289.45 160.3 290.1 169.65 290.8 180.15 287.15 190.15" fill="none" stroke="#000000" stroke-linecap="round" stroke-linejoin="round" stroke-width="4.0"/>
  </g>
</svg>
