<?xml version="1.0" encoding="UTF-8" standalone="no"?>
<svg xmlns:xlink="http://www.w3.org/1999/xlink" height="19.1px" width="19.5px" xmlns="http://www.w3.org/2000/svg">
  <g transform="matrix(1.0, 0.0, 0.0, 1.0, -116.9, -179.9)">
    <path d="M120.45 184.3 Q122.4 181.95 125.55 181.9 128.55 181.8 131.05 183.85 133.6 185.95 134.25 188.95 134.9 192.1 132.95 194.5 130.95 196.9 127.7 197.0 124.55 197.1 122.0 195.0 119.5 192.95 119.0 189.9 118.5 186.7 120.45 184.3" fill="#ffffff" fill-rule="evenodd" stroke="none"/>
    <path d="M120.45 184.3 Q122.4 181.95 125.55 181.9 128.55 181.8 131.05 183.85 133.6 185.95 134.25 188.95 134.9 192.1 132.95 194.5 130.95 196.9 127.7 197.0 124.55 197.1 122.0 195.0 119.5 192.95 119.0 189.9 118.5 186.7 120.45 184.3 Z" fill="none" stroke="#000000" stroke-linecap="round" stroke-linejoin="round" stroke-width="4.0"/>
  </g>
</svg>
