<?xml version="1.0" encoding="UTF-8" standalone="no"?>
<svg xmlns:xlink="http://www.w3.org/1999/xlink" height="340.1px" width="317.8px" xmlns="http://www.w3.org/2000/svg">
  <g transform="matrix(1.0, 0.0, 0.0, 1.0, 0.0, 0.0)">
    <path d="M317.8 340.1 L0.0 340.1 0.0 0.0 317.8 0.0 317.8 340.1" fill="#ffffff" fill-opacity="0.0" fill-rule="evenodd" stroke="none"/>
    <path d="M84.0 195.6 Q79.1 186.85 72.55 177.25 65.35 165.55 68.15 158.85 71.05 151.95 88.5 147.4 101.3 144.7 105.4 144.25 L132.1 136.5 161.25 145.0 Q157.6 147.25 146.95 155.5 132.9 167.45 134.35 174.8 135.75 181.95 149.25 186.05 160.85 189.0 170.5 192.3" fill="none" stroke="#000000" stroke-linecap="round" stroke-linejoin="round" stroke-width="4.0"/>
    <path d="M83.65 194.6 Q86.45 193.4 89.3 194.9 92.0 196.3 93.25 199.25 94.5 202.3 93.65 205.25 92.7 208.35 89.9 209.55 87.0 210.75 84.05 209.3 81.25 207.9 80.0 204.85 78.75 201.85 79.75 198.85 80.75 195.8 83.65 194.6" fill="#ffffff" fill-rule="evenodd" stroke="none"/>
    <path d="M83.65 194.6 Q86.45 193.4 89.3 194.9 92.0 196.3 93.25 199.25 94.5 202.3 93.65 205.25 92.7 208.35 89.9 209.55 87.0 210.75 84.05 209.3 81.25 207.9 80.0 204.85 78.75 201.85 79.75 198.85 80.75 195.8 83.65 194.6 Z" fill="none" stroke="#000000" stroke-linecap="round" stroke-linejoin="round" stroke-width="4.0"/>
    <path d="M183.9 191.75 Q185.5 194.5 184.35 197.15 183.1 200.15 180.0 201.3 176.95 202.45 173.85 201.2 170.8 200.05 169.45 197.15 168.05 194.25 169.25 191.35 170.45 188.55 173.5 187.7 176.35 186.9 179.4 188.05 182.35 189.25 183.9 191.75" fill="#ffffff" fill-rule="evenodd" stroke="none"/>
    <path d="M183.9 191.75 Q185.5 194.5 184.35 197.15 183.1 200.15 180.0 201.3 176.95 202.45 173.85 201.2 170.8 200.05 169.45 197.15 168.05 194.25 169.25 191.35 170.45 188.55 173.5 187.7 176.35 186.9 179.4 188.05 182.35 189.25 183.9 191.75 Z" fill="none" stroke="#000000" stroke-linecap="round" stroke-linejoin="round" stroke-width="4.0"/>
    <path d="M129.7 116.7 L130.2 126.65 130.75 136.6 130.55 136.4 129.9 149.05 129.45 161.75 128.85 174.05 Q128.55 181.8 129.0 186.35 129.35 190.05 131.05 196.55 L133.7 206.65 136.25 218.4 137.8 225.8" fill="none" stroke="#000000" stroke-linecap="round" stroke-linejoin="round" stroke-width="4.0"/>
    <path d="M114.95 303.3 Q117.45 297.5 130.95 284.1 143.15 272.05 144.5 264.2 145.75 256.7 137.0 241.25 130.35 230.4 128.0 227.25 L132.9 226.55 137.8 225.8" fill="none" stroke="#000000" stroke-linecap="round" stroke-linejoin="round" stroke-width="4.0"/>
    <path d="M247.95 244.05 L244.5 250.65 240.8 257.1 236.0 263.4 232.8 267.3 232.75 265.65 231.95 263.5 Q224.1 258.8 210.45 251.9 L188.55 240.95 166.6 230.05 152.65 223.2 146.9 224.25 137.8 225.8" fill="none" stroke="#000000" stroke-linecap="round" stroke-linejoin="round" stroke-width="4.0"/>
    <path d="M145.2 307.85 L137.6 308.55 130.05 309.05 122.3 308.9 117.4 308.7 116.45 306.6 114.95 303.3" fill="none" stroke="#000000" stroke-linecap="round" stroke-linejoin="round" stroke-width="4.0"/>
    <path d="M134.55 76.9 L184.15 82.95 Q181.65 103.55 165.35 116.3 149.1 129.05 128.5 126.55 107.85 124.05 95.15 107.75 82.4 91.45 84.9 70.85 L134.55 76.9" fill="#ffffff" fill-rule="evenodd" stroke="none"/>
    <path d="M184.15 82.95 Q181.65 103.55 165.35 116.3 149.1 129.05 128.5 126.55 107.85 124.05 95.15 107.75 82.4 91.45 84.9 70.85" fill="none" stroke="#000000" stroke-linecap="round" stroke-linejoin="round" stroke-width="4.0"/>
    <path d="M140.6 27.3 Q151.15 28.55 160.2 33.95 168.2 38.75 173.95 46.1 179.65 53.4 182.4 62.35 185.45 72.4 184.15 82.95 L134.55 76.9 84.9 70.85 Q86.2 60.3 91.6 51.25 96.4 43.25 103.7 37.5 111.0 31.8 119.95 29.05 130.0 26.0 140.6 27.3" fill="#ffffff" fill-rule="evenodd" stroke="none"/>
    <path d="M84.9 70.85 Q86.2 60.3 91.6 51.25 96.4 43.25 103.7 37.5 111.0 31.8 119.95 29.05 130.0 26.0 140.6 27.3 151.15 28.55 160.2 33.95 168.2 38.75 173.95 46.1 179.65 53.4 182.4 62.35 185.45 72.4 184.15 82.95" fill="none" stroke="#000000" stroke-linecap="round" stroke-linejoin="round" stroke-width="4.0"/>
  </g>
</svg>
