<?xml version="1.0" encoding="UTF-8" standalone="no"?>
<svg xmlns:xlink="http://www.w3.org/1999/xlink" height="40.9px" width="29.9px" xmlns="http://www.w3.org/2000/svg">
  <g transform="matrix(1.0, 0.0, 0.0, 1.0, 12.6, 22.8)">
    <path d="M6.05 -19.8 L6.1 -19.85 6.7 -20.25 7.45 -20.45 8.3 -20.55 9.15 -20.45 9.9 -20.25 10.5 -19.85 11.0 -19.35 11.3 -18.6 11.45 -18.05 11.45 -14.3 11.0 -13.05 11.45 -14.3 11.45 -9.3 11.45 -8.25 11.5 -8.25 12.55 -8.35 13.55 -8.25 14.45 -8.05 15.15 -7.65 15.8 -7.15 16.15 -6.4 16.3 -5.9 16.3 -3.4 15.75 -2.15 16.3 -3.4 16.3 1.6 16.3 5.35 16.15 5.85 15.75 6.6 15.15 7.1 14.4 7.5 13.55 7.75 12.8 7.8 10.65 11.95 Q8.3 16.0 7.2 16.6 5.85 17.3 -0.15 17.4 -6.3 17.5 -7.2 16.6 -8.55 15.2 -10.15 7.45 -11.3 1.85 -11.05 -0.4 L-11.1 -0.4 -11.55 -1.65 -11.55 -6.65 -11.55 -10.4 -11.55 -12.9 -11.1 -14.15 -10.6 -14.7 -9.95 -15.05 -9.25 -15.3 -8.35 -15.4 -7.5 -15.3 -6.75 -15.05 -6.2 -14.75 -6.2 -16.65 -6.05 -17.15 -5.7 -17.95 -5.15 -18.45 -4.5 -18.8 -3.7 -19.05 -2.75 -19.15 -1.8 -19.05 -1.0 -18.8 -0.4 -18.5 -0.4 -19.3 -0.25 -19.85 0.05 -20.6 0.6 -21.1 1.25 -21.45 2.0 -21.7 2.9 -21.8 3.8 -21.7 4.55 -21.45 5.2 -21.1 5.75 -20.6 6.05 -19.85 6.05 -19.8 5.6 -19.35 5.25 -18.6 5.15 -18.05 5.15 -14.3 5.55 -13.05 5.15 -14.3 5.15 -18.05 5.25 -18.6 5.6 -19.35 6.05 -19.8 M0.05 -14.3 L-0.4 -15.55 -0.4 -18.5 -0.4 -15.55 0.05 -14.3 M-8.9 -0.9 L-8.2 -1.3 -7.0 -1.65 -6.2 -1.5 -4.75 -1.05 -2.5 -1.7 -0.25 -1.4 0.0 -1.35 2.5 -1.75 4.7 -1.2 5.3 -1.4 6.95 -1.85 8.65 -1.55 6.95 -1.85 5.3 -1.4 4.7 -1.2 2.5 -1.75 0.0 -1.35 -0.25 -1.4 -2.5 -1.7 -4.75 -1.05 -6.2 -1.5 -7.0 -1.65 -8.2 -1.3 -8.9 -0.9 M5.3 -1.4 L5.15 -1.8 5.15 -9.3 5.55 -8.05 5.15 -9.3 5.15 -1.8 5.3 -1.4 M10.5 -0.05 L11.0 -0.55 11.3 -1.3 11.45 -1.85 11.45 -8.25 11.45 -1.85 11.3 -1.3 11.0 -0.55 10.5 -0.05 11.15 2.45 10.5 -0.05 10.25 0.1 10.5 -0.05 M11.0 -8.05 L11.45 -9.3 11.0 -8.05 M15.75 2.85 L16.3 1.6 15.75 2.85 M5.15 -9.3 L5.15 -14.3 5.15 -9.3 M13.1 7.1 L12.8 7.8 13.1 7.1 M0.05 -9.3 L-0.4 -10.55 -0.4 -1.8 -0.25 -1.4 -0.4 -1.8 -0.4 -10.55 -0.4 -15.55 -0.4 -10.55 0.05 -9.3 M-9.95 0.45 L-10.6 0.1 -11.05 -0.4 -10.6 0.1 -9.95 0.45 M-6.2 -1.5 L-6.2 -7.9 -6.2 -12.9 -6.2 -14.75 -6.2 -12.9 -5.7 -11.65 -6.2 -12.9 -6.2 -7.9 -5.7 -6.65 -6.2 -7.9 -6.2 -1.5 M-11.1 -5.4 L-11.55 -6.65 -11.1 -5.4 M-11.1 -9.15 L-11.55 -10.4 -11.1 -9.15" fill="#ffffff" fill-rule="evenodd" stroke="none"/>
    <path d="M11.45 -14.3 L11.45 -18.05 11.3 -18.6 11.0 -19.35 10.5 -19.85 9.9 -20.25 9.15 -20.45 8.3 -20.55 7.45 -20.45 6.7 -20.25 6.1 -19.85 6.05 -19.8 5.6 -19.35 5.25 -18.6 5.15 -18.05 5.15 -14.3 5.55 -13.05 M11.45 -14.3 L11.0 -13.05 M6.05 -19.8 L6.05 -19.85 5.75 -20.6 5.2 -21.1 4.55 -21.45 3.8 -21.7 2.9 -21.8 2.0 -21.7 1.25 -21.45 0.6 -21.1 0.05 -20.6 -0.25 -19.85 -0.4 -19.3 -0.4 -18.5 -0.4 -15.55 0.05 -14.3 M5.55 -8.05 L5.15 -9.3 5.15 -1.8 5.3 -1.4 M16.3 -3.4 L16.3 -5.9 16.15 -6.4 15.8 -7.15 15.15 -7.65 14.45 -8.05 13.55 -8.25 12.55 -8.35 11.5 -8.25 11.45 -8.25 11.45 -1.85 11.3 -1.3 11.0 -0.55 10.5 -0.05 10.25 0.1 M11.45 -9.3 L11.0 -8.05 M11.45 -8.25 L11.45 -9.3 11.45 -14.3 M15.75 -2.15 L16.3 -3.4 16.3 1.6 16.3 5.35 16.15 5.85 15.75 6.6 15.15 7.1 14.4 7.5 13.55 7.75 12.8 7.8 M-11.05 -0.4 L-11.1 -0.4 -11.55 -1.65 -11.55 -6.65 -11.55 -10.4 -11.55 -12.9 -11.1 -14.15 -10.6 -14.7 -9.95 -15.05 -9.25 -15.3 -8.35 -15.4 -7.5 -15.3 -6.75 -15.05 -6.2 -14.75 -6.2 -16.65 -6.05 -17.15 -5.7 -17.95 -5.15 -18.45 -4.5 -18.8 -3.7 -19.05 -2.75 -19.15 -1.8 -19.05 -1.0 -18.8 -0.4 -18.5 M5.15 -14.3 L5.15 -9.3 M16.3 1.6 L15.75 2.85 M-6.2 -14.75 L-6.2 -12.9 -5.7 -11.65 M-11.55 -10.4 L-11.1 -9.15 M-11.55 -6.65 L-11.1 -5.4 M-6.2 -12.9 L-6.2 -7.9 -5.7 -6.65 M-0.25 -1.4 L-0.4 -1.8 -0.4 -10.55 -0.4 -15.55 M-6.2 -7.9 L-6.2 -1.5 M-11.05 -0.4 L-10.6 0.1 -9.95 0.45 M-0.4 -10.55 L0.05 -9.3" fill="none" stroke="#000000" stroke-linecap="round" stroke-linejoin="round" stroke-width="2.0"/>
    <path d="M8.65 -1.55 L6.95 -1.85 5.3 -1.4 4.7 -1.2 2.5 -1.75 0.0 -1.35 -0.25 -1.4 -2.5 -1.7 -4.75 -1.05 -6.2 -1.5 -7.0 -1.65 -8.2 -1.3 -8.9 -0.9" fill="none" stroke="#000000" stroke-linecap="round" stroke-linejoin="round" stroke-width="1.0"/>
    <path d="M10.5 -0.05 L11.15 2.45 M12.8 7.8 L10.65 11.95 Q8.3 16.0 7.2 16.6 M-7.2 16.6 Q-8.55 15.2 -10.15 7.45 -11.3 1.85 -11.05 -0.4 M12.8 7.8 L13.1 7.1" fill="none" stroke="#000000" stroke-linecap="round" stroke-linejoin="round" stroke-width="3.0"/>
  </g>
</svg>
