<?xml version="1.0" encoding="UTF-8" standalone="no"?>
<svg xmlns:xlink="http://www.w3.org/1999/xlink" height="31.45px" width="31.45px" xmlns="http://www.w3.org/2000/svg">
  <g transform="matrix(1.0, 0.0, 0.0, 1.0, 12.6, 13.35)">
    <path d="M7.05 -7.1 L7.1 -7.25 8.2 -8.85 9.5 -10.3 10.45 -10.75 11.05 -10.9 10.45 -10.75 9.5 -10.3 8.2 -8.85 7.1 -7.25 7.05 -7.1 5.4 -3.3 5.3 -1.9 5.5 -1.45 5.3 -1.9 5.4 -3.3 7.05 -7.1 6.75 -7.5 7.05 -7.1 M5.75 -12.35 L7.4 -12.3 9.6 -11.95 11.05 -10.9 11.25 -10.95 12.8 -10.7 14.85 -10.0 16.25 -8.6 17.05 -7.6 17.5 -7.0 17.7 -6.15 17.85 -4.85 17.45 -2.9 16.9 -1.5 16.6 -1.05 16.25 -0.65 16.05 -0.4 15.35 0.0 14.6 0.2 13.85 0.2 13.0 0.0 12.3 -0.4 11.75 -0.85 11.4 -1.4 11.3 -1.7 11.15 -2.0 11.2 -2.75 11.3 -3.2 11.5 -3.55 11.85 -4.0 11.95 -4.4 11.75 -5.4 11.95 -4.4 11.85 -4.0 11.9 -4.05 12.5 -4.5 12.65 -4.55 12.7 -4.6 11.85 -5.5 11.5 -6.1 11.75 -5.4 11.5 -6.1 11.85 -5.5 12.7 -4.6 12.65 -4.55 12.5 -4.5 11.9 -4.05 11.85 -4.0 11.5 -3.55 11.3 -3.2 11.2 -2.75 11.15 -2.0 11.3 -1.7 11.4 -1.4 11.75 -0.85 12.3 -0.4 13.0 0.0 13.85 0.2 14.6 0.2 15.35 0.0 16.05 -0.4 16.25 -0.65 16.6 0.0 17.3 1.85 17.05 4.35 16.85 5.05 15.95 6.9 14.9 7.85 14.1 8.05 13.3 8.05 12.75 7.95 10.65 11.95 Q8.3 16.0 7.2 16.6 5.85 17.3 -0.15 17.4 -6.3 17.5 -7.2 16.6 -8.55 15.2 -10.15 7.45 -11.45 1.2 -11.0 -0.9 L-11.15 -1.15 -11.4 -1.85 -11.2 -3.25 -9.1 -7.2 -7.7 -8.6 -6.85 -9.1 -5.7 -9.6 -3.55 -9.5 -3.75 -9.3 -4.4 -8.25 -5.0 -6.75 -6.1 -2.65 -6.1 -2.1 -5.95 -1.45 -6.1 -2.1 -6.1 -2.65 -5.0 -6.75 -4.4 -8.25 -3.75 -9.3 -3.55 -9.5 -3.25 -9.85 -3.1 -10.0 -1.65 -10.8 0.5 -11.7 4.35 -11.7 4.95 -12.1 5.75 -12.35 4.25 -11.3 5.75 -12.35 M-4.05 -8.1 L-3.1 -10.0 -4.05 -8.1 M0.0 -1.35 L-0.2 -1.8 -0.25 -2.6 -0.15 -3.15 1.3 -6.85 2.55 -9.25 4.0 -11.5 4.35 -11.7 4.0 -11.5 2.55 -9.25 1.3 -6.85 -0.15 -3.15 -0.25 -2.6 -0.2 -1.8 0.0 -1.35 2.5 -1.75 4.7 -1.2 5.5 -1.45 6.95 -1.85 8.65 -1.55 6.95 -1.85 5.5 -1.45 4.7 -1.2 2.5 -1.75 0.0 -1.35 -2.5 -1.7 -4.75 -1.05 -5.95 -1.45 -7.0 -1.65 -8.2 -1.3 -8.9 -0.9 -8.2 -1.3 -7.0 -1.65 -5.95 -1.45 -4.75 -1.05 -2.5 -1.7 0.0 -1.35 M9.65 -10.05 L11.25 -10.95 9.65 -10.05 M12.7 -4.6 L12.65 -4.9 12.65 -5.25 12.65 -4.9 12.7 -4.6 M10.5 -0.1 L11.05 -0.75 11.3 -1.7 11.05 -0.75 10.5 -0.1 11.2 2.35 10.5 -0.1 10.25 0.2 10.5 -0.1 M11.2 2.1 L11.2 2.35 11.2 2.4 11.25 2.45 11.3 2.45 11.45 2.15 11.15 2.05 11.2 2.1 M16.65 4.1 L17.3 1.85 16.65 4.1 M11.5 -6.1 L11.3 -6.55 11.5 -6.1 M13.15 7.1 L12.75 7.95 13.15 7.1 M-10.0 0.15 L-10.25 0.05 -10.8 -0.5 -11.0 -0.9 -10.8 -0.5 -10.25 0.05 -10.0 0.15 M-8.75 -7.0 L-7.7 -8.6 -8.75 -7.0" fill="#ffffff" fill-rule="evenodd" stroke="none"/>
    <path d="M5.5 -1.45 L5.3 -1.9 5.4 -3.3 7.05 -7.1 6.75 -7.5 M11.05 -10.9 L10.45 -10.75 9.5 -10.3 8.2 -8.85 7.1 -7.25 7.05 -7.1 M11.05 -10.9 L9.6 -11.95 7.4 -12.3 5.75 -12.35 4.25 -11.3 M4.35 -11.7 L0.5 -11.7 -1.65 -10.8 -3.1 -10.0 -4.05 -8.1 M5.75 -12.35 L4.95 -12.1 4.35 -11.7 4.0 -11.5 2.55 -9.25 1.3 -6.85 -0.15 -3.15 -0.25 -2.6 -0.2 -1.8 0.0 -1.35 M16.25 -0.65 L16.6 -1.05 16.9 -1.5 17.45 -2.9 17.85 -4.85 17.7 -6.15 17.5 -7.0 17.05 -7.6 16.25 -8.6 14.85 -10.0 12.8 -10.7 11.25 -10.95 9.65 -10.05 M11.25 -10.95 L11.05 -10.9 M11.75 -5.4 L11.95 -4.4 11.85 -4.0 11.9 -4.05 12.5 -4.5 12.65 -4.55 12.7 -4.6 11.85 -5.5 11.5 -6.1 11.75 -5.4 M12.65 -5.25 L12.65 -4.9 12.7 -4.6 M11.85 -4.0 L11.5 -3.55 11.3 -3.2 11.2 -2.75 11.15 -2.0 11.3 -1.7 11.4 -1.4 11.75 -0.85 12.3 -0.4 13.0 0.0 13.85 0.2 14.6 0.2 15.35 0.0 16.05 -0.4 16.25 -0.65 16.6 0.0 17.3 1.85 17.05 4.35 16.85 5.05 15.95 6.9 14.9 7.85 14.1 8.05 13.3 8.05 12.75 7.95 M-11.0 -0.9 L-11.15 -1.15 -11.4 -1.85 -11.2 -3.25 -9.1 -7.2 -7.7 -8.6 -6.85 -9.1 -5.7 -9.6 -3.55 -9.5 -3.25 -9.85 -3.1 -10.0 M11.3 -1.7 L11.05 -0.75 10.5 -0.1 10.25 0.2 M11.2 2.1 L11.15 2.05 M11.3 -6.55 L11.5 -6.1 M17.3 1.85 L16.65 4.1 M-11.0 -0.9 L-10.8 -0.5 -10.25 0.05 -10.0 0.15 M-5.95 -1.45 L-6.1 -2.1 -6.1 -2.65 -5.0 -6.75 -4.4 -8.25 -3.75 -9.3 -3.55 -9.5 M-7.7 -8.6 L-8.75 -7.0" fill="none" stroke="#000000" stroke-linecap="round" stroke-linejoin="round" stroke-width="2.0"/>
    <path d="M0.0 -1.35 L2.5 -1.75 4.7 -1.2 5.5 -1.45 6.95 -1.85 8.65 -1.55 M0.0 -1.35 L-2.5 -1.7 -4.75 -1.05 -5.95 -1.45 -7.0 -1.65 -8.2 -1.3 -8.9 -0.9" fill="none" stroke="#000000" stroke-linecap="round" stroke-linejoin="round" stroke-width="1.0"/>
    <path d="M12.75 7.95 L10.65 11.95 Q8.3 16.0 7.2 16.6 M-7.2 16.6 Q-8.55 15.2 -10.15 7.45 -11.45 1.2 -11.0 -0.9 M10.5 -0.1 L11.2 2.35 11.25 2.45 M12.75 7.95 L13.15 7.1" fill="none" stroke="#000000" stroke-linecap="round" stroke-linejoin="round" stroke-width="3.0"/>
  </g>
</svg>
