<?xml version="1.0" encoding="UTF-8" standalone="no"?>
<svg xmlns:xlink="http://www.w3.org/1999/xlink" height="40.9px" width="23.35px" xmlns="http://www.w3.org/2000/svg">
  <g transform="matrix(1.0, 0.0, 0.0, 1.0, 9.95, 22.8)">
    <path d="M4.9 -20.45 L5.7 -20.55 6.6 -20.45 7.3 -20.25 7.95 -19.85 8.45 -19.35 8.75 -18.6 8.85 -18.05 8.85 -14.3 8.45 -13.05 8.85 -14.3 8.85 -9.3 8.85 -8.35 10.55 -8.05 11.3 -7.65 11.9 -7.15 12.25 -6.4 12.4 -5.9 12.4 -3.4 12.4 1.6 12.4 5.35 12.25 5.85 11.9 6.6 11.25 7.1 10.55 7.5 9.65 7.75 9.55 7.75 8.1 11.85 Q6.5 15.9 5.55 16.6 4.6 17.25 -0.2 17.35 -5.05 17.4 -5.65 16.6 -6.7 15.1 -7.5 7.45 -8.0 2.65 -7.8 0.25 L-7.8 0.2 -8.0 0.1 -8.5 -0.4 -8.95 -1.65 -8.95 -6.65 -8.95 -10.4 -8.95 -12.9 -8.5 -14.15 -8.0 -14.7 -7.4 -15.05 -6.65 -15.3 -5.75 -15.4 -5.35 -15.35 -5.35 -16.65 -5.2 -17.15 -4.85 -17.95 -4.3 -18.45 -3.65 -18.8 -2.85 -19.05 -1.9 -19.15 -1.3 -19.1 -1.3 -19.3 -1.2 -19.85 -0.85 -20.6 -0.35 -21.1 0.3 -21.45 1.1 -21.7 2.0 -21.8 2.9 -21.7 3.65 -21.45 4.3 -21.1 4.85 -20.6 4.9 -20.45 4.85 -20.45 4.15 -20.25 3.5 -19.85 3.0 -19.35 2.7 -18.6 2.55 -18.05 2.55 -14.3 3.0 -13.05 2.55 -14.3 2.55 -18.05 2.7 -18.6 3.0 -19.35 3.5 -19.85 4.15 -20.25 4.85 -20.45 4.9 -20.45 M-0.85 -14.3 L-1.3 -15.55 -1.3 -19.1 -1.3 -15.55 -0.85 -14.3 M3.0 -8.05 L2.55 -9.3 2.55 -14.3 2.55 -9.3 3.0 -8.05 M8.45 -8.05 L8.85 -9.3 8.45 -8.05 M-6.15 -0.9 L-5.65 -1.25 -5.25 -1.45 -4.85 -1.65 -3.85 -1.35 -3.3 -1.05 -2.7 -1.35 -1.75 -1.7 -1.3 -1.65 0.0 -1.35 0.65 -1.55 1.7 -1.75 2.7 -1.4 3.25 -1.2 3.8 -1.5 4.75 -1.85 5.45 -1.7 5.9 -1.55 5.45 -1.7 4.75 -1.85 3.8 -1.5 3.25 -1.2 2.7 -1.4 1.7 -1.75 0.65 -1.55 0.0 -1.35 -1.3 -1.65 -1.75 -1.7 -2.7 -1.35 -3.3 -1.05 -3.85 -1.35 -4.85 -1.65 -5.25 -1.45 -5.65 -1.25 -6.15 -0.9 M11.9 2.85 L12.4 1.6 11.9 2.85 M11.9 -2.15 L12.4 -3.4 11.9 -2.15 M8.85 -8.35 L8.85 -1.85 8.75 -1.3 8.45 -0.55 7.9 -0.05 7.3 0.35 7.2 0.4 6.9 0.5 7.2 0.4 7.3 0.35 7.9 -0.05 8.45 -0.55 8.75 -1.3 8.85 -1.85 8.85 -8.35 M2.7 -1.4 L2.6 -1.8 2.55 -9.3 2.6 -1.8 2.7 -1.4 M9.8 6.9 L9.55 7.75 9.8 6.9 M7.5 2.45 L7.2 0.4 7.5 2.45 M-5.35 -7.9 L-5.35 -12.9 -5.35 -15.35 -5.35 -12.9 -4.85 -11.65 -5.35 -12.9 -5.35 -7.9 -4.85 -6.65 -5.35 -7.9 -5.25 -1.45 -5.35 -7.9 M-1.3 -10.55 L-1.3 -1.65 -1.3 -10.55 -1.3 -15.55 -1.3 -10.55 -0.85 -9.3 -1.3 -10.55 M-8.5 -5.4 L-8.95 -6.65 -8.5 -5.4 M-8.5 -9.15 L-8.95 -10.4 -8.5 -9.15 M-6.9 0.65 L-7.4 0.5 -7.8 0.25 -7.4 0.5 -6.9 0.65" fill="#ffffff" fill-rule="evenodd" stroke="none"/>
    <path d="M8.85 -14.3 L8.85 -18.05 8.75 -18.6 8.45 -19.35 7.95 -19.85 7.3 -20.25 6.6 -20.45 5.7 -20.55 4.9 -20.45 4.85 -20.45 4.15 -20.25 3.5 -19.85 3.0 -19.35 2.7 -18.6 2.55 -18.05 2.55 -14.3 3.0 -13.05 M4.9 -20.45 L4.85 -20.6 4.3 -21.1 3.65 -21.45 2.9 -21.7 2.0 -21.8 1.1 -21.7 0.3 -21.45 -0.35 -21.1 -0.85 -20.6 -1.2 -19.85 -1.3 -19.3 -1.3 -19.1 -1.3 -15.55 -0.85 -14.3 M8.45 -13.05 L8.85 -14.3 8.85 -9.3 8.85 -8.35 10.55 -8.05 11.3 -7.65 11.9 -7.15 12.25 -6.4 12.4 -5.9 12.4 -3.4 12.4 1.6 12.4 5.35 12.25 5.85 11.9 6.6 11.25 7.1 10.55 7.5 9.65 7.75 9.55 7.75 M-7.8 0.25 L-8.0 0.1 -8.5 -0.4 -8.95 -1.65 -8.95 -6.65 -8.95 -10.4 -8.95 -12.9 -8.5 -14.15 -8.0 -14.7 -7.4 -15.05 -6.65 -15.3 -5.75 -15.4 -5.35 -15.35 -5.35 -16.65 -5.2 -17.15 -4.85 -17.95 -4.3 -18.45 -3.65 -18.8 -2.85 -19.05 -1.9 -19.15 -1.3 -19.1 M8.85 -9.3 L8.45 -8.05 M2.55 -14.3 L2.55 -9.3 3.0 -8.05 M2.55 -9.3 L2.6 -1.8 2.7 -1.4 M6.9 0.5 L7.2 0.4 7.3 0.35 7.9 -0.05 8.45 -0.55 8.75 -1.3 8.85 -1.85 8.85 -8.35 M12.4 -3.4 L11.9 -2.15 M12.4 1.6 L11.9 2.85 M-5.35 -15.35 L-5.35 -12.9 -4.85 -11.65 M-1.3 -15.55 L-1.3 -10.55 -0.85 -9.3 M-8.95 -10.4 L-8.5 -9.15 M-8.95 -6.65 L-8.5 -5.4 M-4.85 -6.65 L-5.35 -7.9 -5.25 -1.45 M-1.3 -1.65 L-1.3 -10.55 M-5.35 -12.9 L-5.35 -7.9 M-7.8 0.25 L-7.4 0.5 -6.9 0.65" fill="none" stroke="#000000" stroke-linecap="round" stroke-linejoin="round" stroke-width="2.0"/>
    <path d="M5.9 -1.55 L5.45 -1.7 4.75 -1.85 3.8 -1.5 3.25 -1.2 2.7 -1.4 1.7 -1.75 0.65 -1.55 0.0 -1.35 -1.3 -1.65 -1.75 -1.7 -2.7 -1.35 -3.3 -1.05 -3.85 -1.35 -4.85 -1.65 -5.25 -1.45 -5.65 -1.25 -6.15 -0.9" fill="none" stroke="#000000" stroke-linecap="round" stroke-linejoin="round" stroke-width="1.0"/>
    <path d="M9.55 7.75 L8.1 11.85 Q6.5 15.9 5.55 16.6 M-5.65 16.6 Q-6.7 15.1 -7.5 7.45 -8.0 2.65 -7.8 0.25 M7.2 0.4 L7.5 2.45 M9.55 7.75 L9.8 6.9 M-7.8 0.2 L-7.8 0.25" fill="none" stroke="#000000" stroke-linecap="round" stroke-linejoin="round" stroke-width="3.0"/>
  </g>
</svg>
