<?xml version="1.0" encoding="UTF-8" standalone="no"?>
<svg xmlns:xlink="http://www.w3.org/1999/xlink" height="40.35px" width="31.8px" xmlns="http://www.w3.org/2000/svg">
  <g transform="matrix(1.0, 0.0, 0.0, 1.0, 9.85, 22.25)">
    <path d="M7.3 -20.35 L8.05 -20.3 8.9 -20.05 9.65 -19.6 10.2 -19.1 10.6 -18.55 10.9 -17.9 10.8 -16.6 9.5 -13.6 8.9 -12.6 9.5 -13.6 8.95 -9.05 8.85 -1.75 8.75 -1.25 8.4 -0.5 7.9 0.0 7.25 0.35 7.2 0.35 7.4 1.75 9.55 1.0 10.0 0.9 10.35 0.75 14.1 -2.45 16.5 -3.7 17.9 -3.75 18.65 -3.4 19.3 -2.9 19.9 -2.25 20.8 -0.4 20.95 0.5 20.9 1.35 20.7 2.1 20.2 2.75 19.8 3.1 18.1 3.9 17.75 4.1 17.7 4.1 16.9 4.8 13.85 7.3 9.95 8.9 9.4 8.95 9.2 8.9 9.0 9.45 8.2 11.65 8.1 11.85 Q6.5 15.9 5.55 16.6 4.6 17.25 -0.2 17.35 -5.05 17.4 -5.65 16.6 -6.7 15.1 -7.5 7.45 -8.0 2.35 -7.8 0.0 L-8.05 -0.2 -8.5 -0.75 -8.8 -1.45 -8.85 -2.25 -8.8 -2.8 -7.45 -6.65 -6.75 -8.05 -5.75 -9.4 -3.8 -11.25 -3.7 -11.35 -2.75 -14.3 -1.7 -15.75 -0.1 -17.4 0.3 -17.75 0.95 -18.1 1.95 -19.8 2.6 -20.6 3.3 -21.05 4.0 -21.25 4.75 -21.25 5.55 -21.05 6.4 -20.65 6.9 -20.3 7.3 -20.35 6.55 -20.2 5.85 -19.95 5.25 -19.35 4.95 -18.9 3.85 -16.4 3.4 -15.0 3.55 -13.5 3.4 -15.0 3.85 -16.4 4.95 -18.9 5.25 -19.35 5.85 -19.95 6.55 -20.2 7.3 -20.35 M0.0 -15.05 L0.1 -16.6 0.95 -18.1 0.1 -16.6 0.0 -15.05 M-3.0 -12.55 L-2.75 -14.3 -3.0 -12.55 M2.7 -1.4 L2.55 -1.9 2.65 -9.05 2.7 -9.6 3.05 -8.25 2.7 -9.6 2.65 -9.05 2.55 -1.9 2.7 -1.4 3.25 -1.2 3.8 -1.5 4.75 -1.85 5.45 -1.7 5.9 -1.55 5.45 -1.7 4.75 -1.85 3.8 -1.5 3.25 -1.2 2.7 -1.4 1.7 -1.75 0.65 -1.55 0.0 -1.35 -0.7 -1.55 -1.35 -1.65 -1.75 -1.7 -2.7 -1.35 -3.3 -1.05 -3.85 -1.35 -4.85 -1.65 -5.2 -1.5 -5.65 -1.3 -6.15 -0.9 -5.65 -1.3 -5.2 -1.5 -4.85 -1.65 -3.85 -1.35 -3.3 -1.05 -2.7 -1.35 -1.75 -1.7 -1.35 -1.65 -0.7 -1.55 0.0 -1.35 0.65 -1.55 1.7 -1.75 2.7 -1.4 M8.45 -7.9 L8.95 -9.05 8.45 -7.9 M2.7 -9.6 L3.4 -15.0 2.7 -9.6 M13.05 -1.1 L14.1 -2.45 13.05 -1.1 M6.9 0.45 L7.2 0.35 6.9 0.45 M12.2 7.55 L13.85 7.3 12.2 7.55 M16.8 4.2 L17.7 4.1 16.8 4.2 M9.8 6.9 L9.2 8.9 9.8 6.9 M7.5 2.45 L7.4 1.75 7.5 2.45 M-6.9 0.5 L-7.45 0.3 -7.8 0.0 -7.45 0.3 -6.9 0.5 M-4.5 -8.55 L-5.35 -2.1 -5.2 -1.5 -5.35 -2.1 -4.5 -8.55 -3.7 -11.35 -4.5 -8.55 -4.25 -7.1 -4.5 -8.55 M-7.1 -6.45 L-6.75 -8.05 -7.1 -6.45 M-1.3 -9.6 L-1.6 -11.1 -1.75 -9.6 -1.35 -1.65 -1.75 -9.6 -1.6 -11.1 -0.3 -15.55 0.1 -16.6 -0.3 -15.55 -1.6 -11.1 -1.3 -9.6 M-4.4 -10.2 L-3.8 -11.25 -4.4 -10.2 M9.75 1.5 L10.35 0.75 9.75 1.5" fill="#ffffff" fill-rule="evenodd" stroke="none"/>
    <path d="M9.5 -13.6 L10.8 -16.6 10.9 -17.9 10.6 -18.55 10.2 -19.1 9.65 -19.6 8.9 -20.05 8.05 -20.3 7.3 -20.35 6.55 -20.2 5.85 -19.95 5.25 -19.35 4.95 -18.9 3.85 -16.4 3.4 -15.0 3.55 -13.5 M6.9 -20.3 L6.4 -20.65 5.55 -21.05 4.75 -21.25 4.0 -21.25 3.3 -21.05 2.6 -20.6 1.95 -19.8 0.95 -18.1 0.1 -16.6 0.0 -15.05 M0.95 -18.1 L0.3 -17.75 -0.1 -17.4 -1.7 -15.75 -2.75 -14.3 -3.0 -12.55 M8.9 -12.6 L9.5 -13.6 8.95 -9.05 8.85 -1.75 8.75 -1.25 8.4 -0.5 7.9 0.0 7.25 0.35 7.2 0.35 6.9 0.45 M7.4 1.75 L9.55 1.0 10.0 0.9 10.35 0.75 14.1 -2.45 16.5 -3.7 17.9 -3.75 18.65 -3.4 19.3 -2.9 19.9 -2.25 20.8 -0.4 20.95 0.5 20.9 1.35 20.7 2.1 20.2 2.75 19.8 3.1 18.1 3.9 17.75 4.1 16.9 4.8 13.85 7.3 9.95 8.9 9.4 8.95 9.2 8.9 M-7.8 0.0 L-8.05 -0.2 -8.5 -0.75 -8.8 -1.45 -8.85 -2.25 -8.8 -2.8 -7.45 -6.65 -6.75 -8.05 -5.75 -9.4 -3.8 -11.25 -3.7 -11.35 -2.75 -14.3 M8.95 -9.05 L8.45 -7.9 M3.05 -8.25 L2.7 -9.6 2.65 -9.05 2.55 -1.9 2.7 -1.4 M14.1 -2.45 L13.05 -1.1 M3.4 -15.0 L2.7 -9.6 M17.7 4.1 L17.75 4.1 M17.7 4.1 L16.8 4.2 M13.85 7.3 L12.2 7.55 M10.35 0.75 L9.75 1.5 M-3.7 -11.35 L-4.5 -8.55 -4.25 -7.1 M-3.8 -11.25 L-4.4 -10.2 M-1.35 -1.65 L-1.75 -9.6 -1.6 -11.1 -0.3 -15.55 0.1 -16.6 M-1.6 -11.1 L-1.3 -9.6 M-6.75 -8.05 L-7.1 -6.45 M-5.2 -1.5 L-5.35 -2.1 -4.5 -8.55 M-7.8 0.0 L-7.45 0.3 -6.9 0.5" fill="none" stroke="#000000" stroke-linecap="round" stroke-linejoin="round" stroke-width="2.0"/>
    <path d="M2.7 -1.4 L3.25 -1.2 3.8 -1.5 4.75 -1.85 5.45 -1.7 5.9 -1.55 M2.7 -1.4 L1.7 -1.75 0.65 -1.55 0.0 -1.35 -0.7 -1.55 -1.35 -1.65 -1.75 -1.7 -2.7 -1.35 -3.3 -1.05 -3.85 -1.35 -4.85 -1.65 -5.2 -1.5 -5.65 -1.3 -6.15 -0.9" fill="none" stroke="#000000" stroke-linecap="round" stroke-linejoin="round" stroke-width="1.0"/>
    <path d="M7.2 0.35 L7.4 1.75 7.5 2.45 M9.2 8.9 L9.0 9.45 8.2 11.65 8.1 11.85 Q6.5 15.9 5.55 16.6 M-5.65 16.6 Q-6.7 15.1 -7.5 7.45 -8.0 2.35 -7.8 0.0 M9.2 8.9 L9.8 6.9" fill="none" stroke="#000000" stroke-linecap="round" stroke-linejoin="round" stroke-width="3.0"/>
  </g>
</svg>
