<?xml version="1.0" encoding="UTF-8" standalone="no"?>
<svg xmlns:xlink="http://www.w3.org/1999/xlink" height="10.15px" width="32.95px" xmlns="http://www.w3.org/2000/svg">
  <g transform="matrix(1.0, 0.0, 0.0, 1.0, 1.0, 1.0)">
    <path d="M27.15 3.55 Q29.65 4.45 30.95 5.45 L30.85 6.9 30.25 8.0 28.75 8.15 26.45 8.05 20.7 5.6 Q16.9 3.85 14.9 3.45 L11.55 3.55 8.15 4.2 3.15 5.4 0.0 6.25 2.15 4.65 Q4.55 3.0 5.75 2.45 L9.55 0.85 Q11.9 0.0 13.55 0.0 15.4 0.0 18.35 0.8 L23.05 2.25 27.15 3.55" fill="#4f453e" fill-rule="evenodd" stroke="none"/>
    <path d="M27.15 3.55 Q29.65 4.45 30.95 5.45 L30.85 6.9 30.25 8.0 28.75 8.15 26.45 8.05 20.7 5.6 Q16.9 3.85 14.9 3.45 L11.55 3.55 8.15 4.2 3.15 5.4 0.0 6.25 2.15 4.65 Q4.55 3.0 5.75 2.45 L9.55 0.85 Q11.9 0.0 13.55 0.0 15.4 0.0 18.35 0.8 L23.05 2.25 27.15 3.55 Z" fill="none" stroke="#000000" stroke-linecap="round" stroke-linejoin="round" stroke-width="2.0"/>
  </g>
</svg>
