<?xml version="1.0" encoding="UTF-8" standalone="no"?>
<svg xmlns:xlink="http://www.w3.org/1999/xlink" height="35.05px" width="29.1px" xmlns="http://www.w3.org/2000/svg">
  <g transform="matrix(1.0, 0.0, 0.0, 1.0, 9.85, 16.95)">
    <path d="M14.05 -14.3 L15.9 -14.1 17.2 -13.55 17.65 -12.95 18.0 -12.3 18.2 -11.55 18.25 -10.65 18.05 -9.8 17.75 -9.15 17.3 -8.6 16.8 -8.2 15.55 -7.9 13.55 -8.3 13.05 -8.35 12.85 -8.35 9.55 -7.0 9.25 -6.5 9.25 -4.65 8.65 -1.1 8.4 -0.6 7.95 0.05 7.35 0.4 7.2 0.45 7.4 1.85 9.6 1.2 9.9 1.25 10.1 1.3 10.25 0.85 10.55 0.25 11.3 0.0 11.1 -0.2 10.9 -0.55 10.55 -1.65 10.55 -2.15 10.75 -2.95 11.2 -3.6 11.8 -4.1 12.6 -4.55 13.55 -4.9 14.55 -5.1 15.45 -5.05 16.25 -4.9 16.95 -4.55 17.5 -3.9 17.75 -3.45 18.1 -2.15 18.25 -0.35 16.8 3.85 14.35 6.9 12.6 7.9 10.05 8.9 9.5 8.95 9.2 8.9 8.95 9.6 8.1 11.85 Q6.5 15.9 5.55 16.6 4.6 17.25 -0.2 17.35 -5.05 17.4 -5.65 16.6 -6.7 15.1 -7.5 7.45 -8.0 2.35 -7.8 0.0 L-8.05 -0.2 -8.5 -0.75 -8.8 -1.45 -8.85 -2.25 -8.8 -2.8 -7.45 -6.75 -6.6 -8.25 -5.4 -9.55 -2.8 -11.45 -1.3 -12.05 -1.35 -12.0 -3.3 -9.35 -3.55 -7.65 -3.3 -9.35 -1.35 -12.0 -1.3 -12.05 -1.25 -12.05 -0.6 -12.65 1.4 -14.3 3.3 -14.95 5.85 -15.2 5.9 -15.2 6.35 -15.45 7.7 -15.95 9.95 -15.95 12.85 -15.15 13.35 -14.85 14.0 -14.35 14.05 -14.3 12.95 -14.4 11.25 -14.2 9.8 -13.35 11.25 -14.2 12.95 -14.4 14.05 -14.3 M6.0 -14.9 L7.7 -15.95 6.0 -14.9 M0.15 -12.85 L1.4 -14.3 0.15 -12.85 M1.3 -10.7 L1.85 -12.3 4.35 -14.45 5.85 -15.2 4.35 -14.45 1.85 -12.3 1.3 -10.7 M2.7 -1.4 L2.6 -2.15 2.6 -2.7 2.9 -4.25 4.5 -9.8 5.05 -10.65 5.5 -11.2 4.85 -9.6 5.5 -11.2 5.05 -10.65 4.5 -9.8 2.9 -4.25 2.6 -2.7 2.6 -2.15 2.7 -1.4 3.25 -1.2 3.8 -1.5 4.75 -1.85 5.45 -1.7 5.9 -1.55 5.45 -1.7 4.75 -1.85 3.8 -1.5 3.25 -1.2 2.7 -1.4 1.7 -1.75 0.65 -1.55 0.0 -1.35 -0.7 -1.55 -1.1 -1.6 -1.75 -1.7 -2.7 -1.35 -3.3 -1.05 -3.85 -1.35 -4.85 -1.65 -5.15 -1.55 -5.65 -1.3 -6.15 -0.9 -5.65 -1.3 -5.15 -1.55 -4.85 -1.65 -3.85 -1.35 -3.3 -1.05 -2.7 -1.35 -1.75 -1.7 -1.1 -1.6 -0.7 -1.55 0.0 -1.35 0.65 -1.55 1.7 -1.75 2.7 -1.4 M1.85 -12.3 L1.4 -11.75 0.9 -10.9 0.25 -8.7 -0.3 -6.45 -1.25 -2.7 -1.1 -1.6 -1.25 -2.7 -0.3 -6.45 0.25 -8.7 0.9 -10.9 1.4 -11.75 1.85 -12.3 M8.9 -6.7 L10.2 -7.35 12.85 -8.35 10.2 -7.35 8.9 -6.7 M12.85 -8.35 L12.8 -8.35 11.8 -8.45 12.8 -8.35 12.85 -8.35 M5.5 -11.2 L8.15 -13.05 11.25 -14.2 8.15 -13.05 5.5 -11.2 M9.75 1.7 L9.95 1.5 10.1 1.3 9.95 1.5 9.75 1.7 M12.4 7.45 L14.35 6.9 12.4 7.45 M7.5 2.45 L7.4 1.85 7.5 2.45 M6.9 0.55 L7.2 0.45 6.9 0.55 M9.8 6.9 L8.95 9.6 9.8 6.9 M-5.15 -1.55 L-5.25 -2.0 -5.25 -2.55 -3.95 -7.8 -3.3 -9.35 -3.95 -7.8 -5.25 -2.55 -5.25 -2.0 -5.15 -1.55 M-3.9 -10.25 L-2.8 -11.45 -3.9 -10.25 M-6.95 0.5 L-7.4 0.3 -7.8 0.0 -7.4 0.3 -6.95 0.5 M-7.05 -6.6 L-6.6 -8.25 -7.05 -6.6" fill="#ffffff" fill-rule="evenodd" stroke="none"/>
    <path d="M12.85 -8.35 L13.05 -8.35 13.55 -8.3 15.55 -7.9 16.8 -8.2 17.3 -8.6 17.75 -9.15 18.05 -9.8 18.25 -10.65 18.2 -11.55 18.0 -12.3 17.65 -12.95 17.2 -13.55 15.9 -14.1 14.05 -14.3 12.95 -14.4 11.25 -14.2 9.8 -13.35 M14.05 -14.3 L14.0 -14.35 13.35 -14.85 12.85 -15.15 9.95 -15.95 7.7 -15.95 6.0 -14.9 M5.85 -15.2 L3.3 -14.95 1.4 -14.3 0.15 -12.85 M7.7 -15.95 L6.35 -15.45 M5.9 -15.2 L5.85 -15.2 4.35 -14.45 1.85 -12.3 1.3 -10.7 M5.85 -15.2 L6.35 -15.45 M7.2 0.45 L7.35 0.4 7.95 0.05 8.4 -0.6 8.65 -1.1 9.25 -4.65 9.25 -6.5 9.55 -7.0 M12.85 -8.35 L10.2 -7.35 8.9 -6.7 M-1.1 -1.6 L-1.25 -2.7 -0.3 -6.45 0.25 -8.7 0.9 -10.9 1.4 -11.75 1.85 -12.3 M4.85 -9.6 L5.5 -11.2 5.05 -10.65 4.5 -9.8 2.9 -4.25 2.6 -2.7 2.6 -2.15 2.7 -1.4 M11.8 -8.45 L12.8 -8.35 12.85 -8.35 M14.35 6.9 L16.8 3.85 18.25 -0.35 18.1 -2.15 17.75 -3.45 17.5 -3.9 16.95 -4.55 16.25 -4.9 15.45 -5.05 14.55 -5.1 13.55 -4.9 12.6 -4.55 11.8 -4.1 11.2 -3.6 10.75 -2.95 10.55 -2.15 10.55 -1.65 10.9 -0.55 11.1 -0.2 11.3 0.0 10.55 0.25 10.25 0.85 10.1 1.3 9.95 1.5 9.75 1.7 M11.25 -14.2 L8.15 -13.05 5.5 -11.2 M9.2 8.9 L9.5 8.95 10.05 8.9 12.6 7.9 14.35 6.9 12.4 7.45 M9.9 1.25 L9.6 1.2 7.4 1.85 M7.2 0.45 L6.9 0.55 M-1.3 -12.05 L-1.35 -12.0 -3.3 -9.35 -3.55 -7.65 M-1.3 -12.05 L-1.25 -12.05 M-0.6 -12.65 L-1.3 -12.05 -2.8 -11.45 -3.9 -10.25 M-3.3 -9.35 L-3.95 -7.8 -5.25 -2.55 -5.25 -2.0 -5.15 -1.55 M-7.8 0.0 L-8.05 -0.2 -8.5 -0.75 -8.8 -1.45 -8.85 -2.25 -8.8 -2.8 -7.45 -6.75 -6.6 -8.25 -5.4 -9.55 -2.8 -11.45 M-6.6 -8.25 L-7.05 -6.6 M-7.8 0.0 L-7.4 0.3 -6.95 0.5 M1.4 -14.3 L-0.6 -12.65" fill="none" stroke="#000000" stroke-linecap="round" stroke-linejoin="round" stroke-width="2.0"/>
    <path d="M2.7 -1.4 L3.25 -1.2 3.8 -1.5 4.75 -1.85 5.45 -1.7 5.9 -1.55 M2.7 -1.4 L1.7 -1.75 0.65 -1.55 0.0 -1.35 -0.7 -1.55 -1.1 -1.6 -1.75 -1.7 -2.7 -1.35 -3.3 -1.05 -3.85 -1.35 -4.85 -1.65 -5.15 -1.55 -5.65 -1.3 -6.15 -0.9" fill="none" stroke="#000000" stroke-linecap="round" stroke-linejoin="round" stroke-width="1.0"/>
    <path d="M7.4 1.85 L7.5 2.45 M7.4 1.85 L7.2 0.45 M5.55 16.6 Q6.5 15.9 8.1 11.85 L8.95 9.6 9.8 6.9 M-7.8 0.0 Q-8.0 2.35 -7.5 7.45 -6.7 15.1 -5.65 16.6" fill="none" stroke="#000000" stroke-linecap="round" stroke-linejoin="round" stroke-width="3.0"/>
  </g>
</svg>
