<?xml version="1.0" encoding="UTF-8" standalone="no"?>
<svg xmlns:xlink="http://www.w3.org/1999/xlink" height="31.45px" width="32.9px" xmlns="http://www.w3.org/2000/svg">
  <g transform="matrix(1.0, 0.0, 0.0, 1.0, 9.8, 13.35)">
    <path d="M8.7 -10.95 L7.9 -10.75 6.95 -10.3 5.65 -8.9 4.55 -7.25 2.85 -3.3 2.75 -2.75 2.75 -1.9 3.0 -1.3 2.75 -1.9 2.75 -2.75 2.85 -3.3 4.55 -7.25 5.65 -8.9 6.95 -10.3 7.9 -10.75 8.7 -10.95 10.25 -10.7 10.55 -10.6 10.25 -10.7 8.7 -10.95 7.1 -10.05 8.7 -10.95 M4.85 -12.35 L6.5 -12.3 8.7 -11.95 10.5 -10.65 10.55 -10.6 12.25 -10.0 13.7 -8.6 14.5 -7.6 14.95 -7.0 15.3 -4.85 14.9 -2.9 14.35 -1.5 14.05 -1.05 13.45 -0.4 12.8 0.0 12.05 0.2 11.3 0.2 10.45 0.0 9.7 -0.4 9.2 -0.85 8.9 -1.4 8.85 -1.4 8.9 -1.4 8.85 -1.4 8.7 -1.45 8.75 -1.7 8.6 -2.0 8.65 -2.75 8.75 -3.2 9.3 -4.05 9.35 -4.1 9.4 -4.4 9.2 -5.4 8.95 -6.1 8.7 -6.55 8.95 -6.1 9.2 -5.4 9.4 -4.4 9.35 -4.1 9.3 -4.05 8.75 -3.2 8.65 -2.75 8.6 -2.0 8.75 -1.7 8.7 -1.45 8.6 -1.0 8.5 -0.75 7.65 0.25 7.2 0.45 7.4 1.75 7.5 2.45 7.4 1.75 11.35 0.35 16.4 0.05 17.75 0.15 18.4 0.25 20.45 0.8 20.95 1.1 21.55 1.65 21.9 2.4 22.05 3.2 22.1 4.1 21.95 5.1 21.6 6.1 20.6 7.45 19.9 7.95 19.1 8.1 18.6 8.1 16.45 7.5 16.45 7.45 12.95 7.65 12.4 7.6 11.95 7.5 12.4 7.6 12.95 7.65 9.85 8.85 9.35 8.9 9.2 8.85 9.8 6.9 9.2 8.85 8.1 11.85 Q6.5 15.9 5.55 16.6 4.6 17.25 -0.2 17.35 -5.05 17.4 -5.65 16.6 -6.7 15.1 -7.5 7.45 -8.05 2.25 -7.8 -0.1 L-8.2 -0.5 -8.55 -1.15 -8.8 -1.85 -8.6 -3.25 -6.5 -7.2 -5.75 -8.05 -5.1 -8.6 -4.3 -9.1 -3.1 -9.6 -2.65 -9.6 -2.25 -10.0 -0.8 -10.8 1.35 -11.7 3.45 -11.7 3.1 -11.5 1.65 -9.25 0.4 -6.85 -1.05 -3.15 -1.15 -2.6 -1.15 -1.65 -1.15 -2.6 -1.05 -3.15 0.4 -6.85 1.65 -9.25 3.1 -11.5 3.45 -11.7 4.05 -12.1 4.85 -12.35 3.35 -11.3 4.85 -12.35 M-3.2 -8.1 L-2.25 -10.0 -3.2 -8.1 M5.9 -1.55 L5.45 -1.7 4.75 -1.85 3.8 -1.5 3.25 -1.2 3.0 -1.3 1.7 -1.75 0.65 -1.55 0.0 -1.35 -1.15 -1.65 0.0 -1.35 0.65 -1.55 1.7 -1.75 3.0 -1.3 3.25 -1.2 3.8 -1.5 4.75 -1.85 5.45 -1.7 5.9 -1.55 M8.95 -6.1 L9.3 -5.5 10.15 -4.6 9.6 -4.3 9.35 -4.1 9.6 -4.3 10.15 -4.6 9.3 -5.5 8.95 -6.1 M8.75 -1.7 L8.85 -1.4 8.75 -1.7 M10.15 -4.6 L10.05 -5.25 10.15 -4.6 M16.0 0.5 L17.75 0.15 16.0 0.5 M9.95 1.35 L11.35 0.35 9.95 1.35 M15.75 6.95 L16.45 7.45 15.75 6.95 M-6.15 -7.0 L-5.1 -8.6 -6.15 -7.0 M-2.65 -9.6 L-2.9 -9.3 -3.55 -8.25 -4.15 -6.75 -5.25 -2.65 -5.25 -2.1 -5.15 -1.55 -5.25 -2.1 -5.25 -2.65 -4.15 -6.75 -3.55 -8.25 -2.9 -9.3 -2.65 -9.6 M-6.95 0.45 L-7.65 0.05 -7.8 -0.1 -7.65 0.05 -6.95 0.45 M-6.15 -0.9 L-5.65 -1.3 -5.15 -1.55 -4.85 -1.65 -3.85 -1.35 -3.3 -1.05 -2.7 -1.35 -1.75 -1.7 -1.15 -1.65 -1.75 -1.7 -2.7 -1.35 -3.3 -1.05 -3.85 -1.35 -4.85 -1.65 -5.15 -1.55 -5.65 -1.3 -6.15 -0.9" fill="#ffffff" fill-rule="evenodd" stroke="none"/>
    <path d="M10.55 -10.6 L10.25 -10.7 8.7 -10.95 7.1 -10.05 M3.0 -1.3 L2.75 -1.9 2.75 -2.75 2.85 -3.3 4.55 -7.25 5.65 -8.9 6.95 -10.3 7.9 -10.75 8.7 -10.95 M10.55 -10.6 L10.5 -10.65 8.7 -11.95 6.5 -12.3 4.85 -12.35 3.35 -11.3 M3.45 -11.7 L1.35 -11.7 -0.8 -10.8 -2.25 -10.0 -3.2 -8.1 M3.45 -11.7 L3.1 -11.5 1.65 -9.25 0.4 -6.85 -1.05 -3.15 -1.15 -2.6 -1.15 -1.65 M4.85 -12.35 L4.05 -12.1 3.45 -11.7 M8.7 -1.45 L8.75 -1.7 8.6 -2.0 8.65 -2.75 8.75 -3.2 9.3 -4.05 9.35 -4.1 9.4 -4.4 9.2 -5.4 8.95 -6.1 8.7 -6.55 M9.35 -4.1 L9.6 -4.3 10.15 -4.6 9.3 -5.5 8.95 -6.1 M8.7 -1.45 L8.85 -1.4 8.75 -1.7 M8.85 -1.4 L8.9 -1.4 8.85 -1.4 M7.2 0.45 L7.65 0.25 8.5 -0.75 8.6 -1.0 M8.9 -1.4 L9.2 -0.85 9.7 -0.4 10.45 0.0 11.3 0.2 12.05 0.2 12.8 0.0 13.45 -0.4 14.05 -1.05 14.35 -1.5 14.9 -2.9 15.3 -4.85 14.95 -7.0 14.5 -7.6 13.7 -8.6 12.25 -10.0 10.55 -10.6 M10.05 -5.25 L10.15 -4.6 M16.45 7.45 L16.45 7.5 18.6 8.1 19.1 8.1 19.9 7.95 20.6 7.45 21.6 6.1 21.95 5.1 22.1 4.1 22.05 3.2 21.9 2.4 21.55 1.65 20.95 1.1 20.45 0.8 18.4 0.25 17.75 0.15 16.0 0.5 M17.75 0.15 L16.4 0.05 11.35 0.35 9.95 1.35 M11.95 7.5 L12.4 7.6 12.95 7.65 16.45 7.45 15.75 6.95 M9.2 8.85 L9.35 8.9 9.85 8.85 12.95 7.65 M11.35 0.35 L7.4 1.75 M-2.65 -9.6 L-3.1 -9.6 -4.3 -9.1 -5.1 -8.6 -6.15 -7.0 M-2.65 -9.6 L-2.25 -10.0 M-5.15 -1.55 L-5.25 -2.1 -5.25 -2.65 -4.15 -6.75 -3.55 -8.25 -2.9 -9.3 -2.65 -9.6 M-5.1 -8.6 L-5.75 -8.05 -6.5 -7.2 -8.6 -3.25 -8.8 -1.85 -8.55 -1.15 -8.2 -0.5 -7.8 -0.1 -7.65 0.05 -6.95 0.45" fill="none" stroke="#000000" stroke-linecap="round" stroke-linejoin="round" stroke-width="2.0"/>
    <path d="M-1.15 -1.65 L0.0 -1.35 0.65 -1.55 1.7 -1.75 3.0 -1.3 3.25 -1.2 3.8 -1.5 4.75 -1.85 5.45 -1.7 5.9 -1.55 M-1.15 -1.65 L-1.75 -1.7 -2.7 -1.35 -3.3 -1.05 -3.85 -1.35 -4.85 -1.65 -5.15 -1.55 -5.65 -1.3 -6.15 -0.9" fill="none" stroke="#000000" stroke-linecap="round" stroke-linejoin="round" stroke-width="1.0"/>
    <path d="M9.2 8.85 L9.8 6.9 M7.4 1.75 L7.2 0.45 M5.55 16.6 Q6.5 15.9 8.1 11.85 L9.2 8.85 M7.4 1.75 L7.5 2.45 M-7.8 -0.1 Q-8.05 2.25 -7.5 7.45 -6.7 15.1 -5.65 16.6" fill="none" stroke="#000000" stroke-linecap="round" stroke-linejoin="round" stroke-width="3.0"/>
  </g>
</svg>
