<?xml version="1.0" encoding="UTF-8" standalone="no"?>
<svg xmlns:xlink="http://www.w3.org/1999/xlink" height="31.45px" width="26.05px" xmlns="http://www.w3.org/2000/svg">
  <g transform="matrix(1.0, 0.0, 0.0, 1.0, 9.8, 13.35)">
    <path d="M8.65 -10.95 L7.9 -10.75 6.95 -10.3 5.6 -8.85 4.5 -7.25 2.85 -3.3 2.75 -2.75 2.7 -1.9 2.95 -1.3 2.7 -1.9 2.75 -2.75 2.85 -3.3 4.5 -7.25 5.6 -8.85 6.95 -10.3 7.9 -10.75 8.65 -10.95 10.25 -10.7 10.55 -10.6 10.25 -10.7 8.65 -10.95 7.1 -10.05 8.65 -10.95 M4.85 -12.35 L6.5 -12.3 8.7 -11.95 10.5 -10.65 10.55 -10.6 12.25 -10.0 14.95 -7.0 15.25 -4.85 15.15 -3.85 14.35 -1.5 13.45 -0.4 12.8 0.0 12.7 0.0 12.05 0.2 11.3 0.2 10.45 0.0 9.7 -0.4 9.2 -0.85 8.8 -1.4 8.8 -1.45 8.8 -1.4 9.2 -0.85 9.7 -0.4 10.45 0.0 11.3 0.2 12.05 0.2 12.7 0.0 12.95 0.65 13.0 0.75 13.15 1.15 13.4 1.85 13.4 2.9 13.2 4.35 12.3 6.45 12.05 6.9 11.7 7.3 11.05 7.85 10.25 8.05 9.5 8.05 9.35 8.45 8.2 11.65 8.1 11.85 Q6.5 15.9 5.55 16.6 4.6 17.25 -0.2 17.35 -5.05 17.4 -5.65 16.6 -6.7 15.1 -7.5 7.45 -8.05 2.25 -7.8 -0.1 L-8.2 -0.5 -8.55 -1.15 -8.8 -1.85 -8.6 -3.25 -6.5 -7.2 -5.75 -8.05 -5.1 -8.6 -4.3 -9.1 -3.1 -9.6 -2.65 -9.6 -2.25 -10.0 -0.8 -10.8 1.35 -11.7 3.45 -11.7 4.05 -12.1 4.85 -12.35 3.35 -11.3 4.85 -12.35 M-3.2 -8.1 L-2.25 -10.0 -3.2 -8.1 M-1.15 -1.65 L-1.15 -2.6 -1.05 -3.15 0.4 -6.85 1.65 -9.25 3.1 -11.5 3.45 -11.7 3.1 -11.5 1.65 -9.25 0.4 -6.85 -1.05 -3.15 -1.15 -2.6 -1.15 -1.65 0.0 -1.35 0.65 -1.55 1.7 -1.75 2.95 -1.3 3.25 -1.2 3.8 -1.5 4.75 -1.85 5.45 -1.7 5.9 -1.55 5.45 -1.7 4.75 -1.85 3.8 -1.5 3.25 -1.2 2.95 -1.3 1.7 -1.75 0.65 -1.55 0.0 -1.35 -1.15 -1.65 -1.75 -1.7 -2.7 -1.35 -3.3 -1.05 -3.85 -1.35 -4.85 -1.65 -5.15 -1.55 -5.65 -1.3 -6.15 -0.9 -5.65 -1.3 -5.15 -1.55 -4.85 -1.65 -3.85 -1.35 -3.3 -1.05 -2.7 -1.35 -1.75 -1.7 -1.15 -1.65 M9.05 -5.95 L9.25 -5.5 10.15 -4.6 9.6 -4.3 9.3 -4.05 8.7 -3.2 8.6 -2.0 8.8 -1.45 8.45 -0.75 7.65 0.25 7.2 0.45 7.65 0.25 8.45 -0.75 8.8 -1.45 8.6 -2.0 8.7 -3.2 9.3 -4.05 9.35 -4.4 9.2 -5.4 9.05 -5.95 8.7 -6.55 9.05 -5.95 9.2 -5.4 9.35 -4.4 9.3 -4.05 9.6 -4.3 10.15 -4.6 9.25 -5.5 9.05 -5.95 M10.15 -4.6 L10.05 -5.25 10.15 -4.6 M12.75 4.1 L13.4 1.85 12.75 4.1 M12.95 0.65 L13.15 1.15 12.95 0.65 M7.5 2.4 L7.55 2.15 7.45 2.1 7.5 2.4 M9.8 6.9 L9.5 8.05 9.8 6.9 M7.2 0.45 L7.45 2.1 7.2 0.45 M-6.15 -7.0 L-5.1 -8.6 -6.15 -7.0 M-2.65 -9.6 L-2.9 -9.3 -3.55 -8.25 -4.15 -6.75 -5.25 -2.65 -5.25 -2.1 -5.15 -1.55 -5.25 -2.1 -5.25 -2.65 -4.15 -6.75 -3.55 -8.25 -2.9 -9.3 -2.65 -9.6 M-6.95 0.45 L-7.65 0.05 -7.8 -0.1 -7.65 0.05 -6.95 0.45" fill="#ffffff" fill-rule="evenodd" stroke="none"/>
    <path d="M10.55 -10.6 L10.25 -10.7 8.65 -10.95 7.1 -10.05 M2.95 -1.3 L2.7 -1.9 2.75 -2.75 2.85 -3.3 4.5 -7.25 5.6 -8.85 6.95 -10.3 7.9 -10.75 8.65 -10.95 M10.55 -10.6 L10.5 -10.65 8.7 -11.95 6.5 -12.3 4.85 -12.35 3.35 -11.3 M3.45 -11.7 L1.35 -11.7 -0.8 -10.8 -2.25 -10.0 -3.2 -8.1 M4.85 -12.35 L4.05 -12.1 3.45 -11.7 3.1 -11.5 1.65 -9.25 0.4 -6.85 -1.05 -3.15 -1.15 -2.6 -1.15 -1.65 M7.2 0.45 L7.65 0.25 8.45 -0.75 8.8 -1.45 8.6 -2.0 8.7 -3.2 9.3 -4.05 9.35 -4.4 9.2 -5.4 9.05 -5.95 8.7 -6.55 M9.3 -4.05 L9.6 -4.3 10.15 -4.6 9.25 -5.5 9.05 -5.95 M12.7 0.0 L12.05 0.2 11.3 0.2 10.45 0.0 9.7 -0.4 9.2 -0.85 8.8 -1.4 8.8 -1.45 M12.7 0.0 L12.8 0.0 13.45 -0.4 14.35 -1.5 15.15 -3.85 15.25 -4.85 14.95 -7.0 12.25 -10.0 10.55 -10.6 M10.05 -5.25 L10.15 -4.6 M13.15 1.15 L13.4 1.85 13.4 2.9 13.2 4.35 12.3 6.45 12.05 6.9 11.7 7.3 11.05 7.85 10.25 8.05 9.5 8.05 M-7.8 -0.1 L-8.2 -0.5 -8.55 -1.15 -8.8 -1.85 -8.6 -3.25 -6.5 -7.2 -5.75 -8.05 -5.1 -8.6 -4.3 -9.1 -3.1 -9.6 -2.65 -9.6 -2.25 -10.0 M12.95 0.65 L12.7 0.0 M13.15 1.15 L12.95 0.65 M13.4 1.85 L12.75 4.1 M-5.15 -1.55 L-5.25 -2.1 -5.25 -2.65 -4.15 -6.75 -3.55 -8.25 -2.9 -9.3 -2.65 -9.6 M-5.1 -8.6 L-6.15 -7.0 M-7.8 -0.1 L-7.65 0.05 -6.95 0.45" fill="none" stroke="#000000" stroke-linecap="round" stroke-linejoin="round" stroke-width="2.0"/>
    <path d="M-1.15 -1.65 L0.0 -1.35 0.65 -1.55 1.7 -1.75 2.95 -1.3 3.25 -1.2 3.8 -1.5 4.75 -1.85 5.45 -1.7 5.9 -1.55 M-1.15 -1.65 L-1.75 -1.7 -2.7 -1.35 -3.3 -1.05 -3.85 -1.35 -4.85 -1.65 -5.15 -1.55 -5.65 -1.3 -6.15 -0.9" fill="none" stroke="#000000" stroke-linecap="round" stroke-linejoin="round" stroke-width="1.0"/>
    <path d="M9.35 8.45 L8.2 11.65 8.1 11.85 Q6.5 15.9 5.55 16.6 M-5.65 16.6 Q-6.7 15.1 -7.5 7.45 -8.05 2.25 -7.8 -0.1 M7.5 2.4 L7.45 2.1 7.2 0.45 M9.5 8.05 L9.8 6.9" fill="none" stroke="#000000" stroke-linecap="round" stroke-linejoin="round" stroke-width="3.0"/>
  </g>
</svg>
