<?xml version="1.0" encoding="UTF-8" standalone="no"?>
<svg xmlns:xlink="http://www.w3.org/1999/xlink" height="40.9px" width="29.9px" xmlns="http://www.w3.org/2000/svg">
  <g transform="matrix(1.0, 0.0, 0.0, 1.0, 17.3, 22.8)">
    <path d="M6.15 -14.75 L6.7 -15.05 7.45 -15.3 8.35 -15.4 9.2 -15.3 9.95 -15.05 10.55 -14.7 11.1 -14.15 11.4 -13.4 11.5 -12.9 11.5 -10.4 11.5 -6.65 11.5 -1.65 11.4 -1.15 11.05 -0.4 Q11.25 1.85 10.1 7.45 8.5 15.2 7.2 16.6 6.3 17.5 0.1 17.4 -5.9 17.3 -7.2 16.6 -8.35 16.0 -10.7 11.95 L-12.85 7.8 -13.55 7.75 -14.45 7.5 -15.15 7.1 -15.8 6.6 -16.15 5.85 -16.3 5.35 -16.3 1.6 -15.8 2.85 -16.3 1.6 -16.3 -3.4 -16.3 -5.9 -16.15 -6.4 -15.8 -7.15 -15.2 -7.65 -14.45 -8.05 -13.6 -8.25 -12.55 -8.35 -11.55 -8.25 -11.45 -8.25 -11.05 -8.15 -11.45 -9.3 -11.05 -8.15 -10.65 -8.0 -9.95 -7.65 -9.3 -7.1 -8.75 -5.9 -8.75 -3.4 -8.75 1.6 -9.25 2.85 -8.75 1.6 -8.75 -3.4 -8.75 -5.9 -9.3 -7.1 -9.95 -7.65 -10.65 -8.0 -11.05 -8.15 -11.45 -8.25 -11.45 -9.3 -11.45 -14.3 -11.5 -18.05 -11.35 -18.6 -11.05 -19.35 -10.55 -19.85 -9.9 -20.25 -9.2 -20.45 -8.35 -20.55 -7.45 -20.45 -6.75 -20.25 -6.1 -19.85 -5.8 -20.6 -5.25 -21.1 Q-4.9 -21.25 -4.6 -21.45 L-3.85 -21.7 -2.95 -21.8 -2.0 -21.7 -1.25 -21.45 -0.6 -21.1 -0.1 -20.6 0.25 -19.85 0.35 -19.3 0.35 -18.5 1.0 -18.8 1.8 -19.05 2.7 -19.15 3.65 -19.05 4.45 -18.8 5.1 -18.45 5.7 -17.95 6.15 -16.65 6.15 -14.75 5.6 -14.15 5.15 -12.9 5.15 -10.4 5.6 -9.15 5.15 -10.4 5.15 -12.9 5.6 -14.15 6.15 -14.75 M-5.8 -14.3 L-6.25 -15.55 -6.25 -19.3 -6.1 -19.85 -6.25 -19.3 -6.25 -15.55 -5.8 -14.3 M5.15 -1.6 L5.15 -6.65 5.6 -5.4 5.15 -6.65 5.15 -1.6 6.15 -1.65 6.95 -1.55 6.15 -1.65 5.15 -1.6 0.0 -1.35 -0.6 -1.4 -5.0 -1.8 -6.15 -1.6 -7.55 -1.2 -6.15 -1.6 -5.0 -1.8 -0.6 -1.4 0.0 -1.35 5.15 -1.6 M-0.25 -11.65 L-0.7 -12.9 -0.7 -16.65 -0.55 -17.2 -0.25 -17.95 0.35 -18.5 -0.25 -17.95 -0.55 -17.2 -0.7 -16.65 -0.7 -12.9 -0.25 -11.65 M5.15 -6.65 L5.15 -10.4 5.15 -6.65 M11.05 -5.4 L11.5 -6.65 11.05 -5.4 M11.05 -9.15 L11.5 -10.4 11.05 -9.15 M9.95 0.5 L10.55 0.1 11.05 -0.4 10.55 0.1 9.95 0.5 M-2.75 10.8 L-1.6 8.7 -0.3 6.7 1.5 5.1 3.45 3.65 1.5 5.1 -0.3 6.7 -1.6 8.7 -2.75 10.8 M-11.05 -13.05 L-11.45 -14.3 -11.05 -13.05 M-15.8 -2.15 L-16.3 -3.4 -15.8 -2.15 M-0.7 -7.9 L-0.7 -1.65 -0.6 -1.4 -0.7 -1.65 -0.7 -7.9 -0.7 -12.9 -0.7 -7.9 -0.25 -6.65 -0.7 -7.9 M-6.15 -1.6 L-6.25 -1.8 -6.25 -10.55 -6.25 -15.55 -6.25 -10.55 -5.8 -9.3 -6.25 -10.55 -6.25 -1.8 -6.15 -1.6 M-9.25 -2.15 L-8.75 -3.4 -9.25 -2.15 M-11.5 7.75 L-12.55 7.85 -12.85 7.8 -12.55 7.85 -11.5 7.75" fill="#ffffff" fill-rule="evenodd" stroke="none"/>
    <path d="M11.5 -10.4 L11.5 -12.9 11.4 -13.4 11.1 -14.15 10.55 -14.7 9.95 -15.05 9.2 -15.3 8.35 -15.4 7.45 -15.3 6.7 -15.05 6.15 -14.75 5.6 -14.15 5.15 -12.9 5.15 -10.4 5.6 -9.15 M0.35 -18.5 L0.35 -19.3 0.25 -19.85 -0.1 -20.6 -0.6 -21.1 -1.25 -21.45 -2.0 -21.7 -2.95 -21.8 -3.85 -21.7 -4.6 -21.45 Q-4.9 -21.25 -5.25 -21.1 L-5.8 -20.6 -6.1 -19.85 -6.25 -19.3 -6.25 -15.55 -5.8 -14.3 M6.15 -14.75 L6.15 -16.65 5.7 -17.95 5.1 -18.45 4.45 -18.8 3.65 -19.05 2.7 -19.15 1.8 -19.05 1.0 -18.8 0.35 -18.5 -0.25 -17.95 -0.55 -17.2 -0.7 -16.65 -0.7 -12.9 -0.25 -11.65 M5.6 -5.4 L5.15 -6.65 5.15 -1.6 M5.15 -10.4 L5.15 -6.65 M11.05 -0.4 L11.4 -1.15 11.5 -1.65 11.5 -6.65 11.05 -5.4 M11.5 -6.65 L11.5 -10.4 11.05 -9.15 M11.05 -0.4 L10.55 0.1 9.95 0.5 M-6.1 -19.85 L-6.75 -20.25 -7.45 -20.45 -8.35 -20.55 -9.2 -20.45 -9.9 -20.25 -10.55 -19.85 -11.05 -19.35 -11.35 -18.6 -11.5 -18.05 -11.45 -14.3 -11.05 -13.05 M-11.45 -9.3 L-11.05 -8.15 -10.65 -8.0 -9.95 -7.65 -9.3 -7.1 -8.75 -5.9 -8.75 -3.4 -8.75 1.6 -9.25 2.85 M-11.05 -8.15 L-11.45 -8.25 -11.55 -8.25 -12.55 -8.35 -13.6 -8.25 -14.45 -8.05 -15.2 -7.65 -15.8 -7.15 -16.15 -6.4 -16.3 -5.9 -16.3 -3.4 -15.8 -2.15 M-11.45 -9.3 L-11.45 -8.25 M-0.7 -12.9 L-0.7 -7.9 -0.25 -6.65 M-6.25 -15.55 L-6.25 -10.55 -5.8 -9.3 M-8.75 -3.4 L-9.25 -2.15 M-6.25 -10.55 L-6.25 -1.8 -6.15 -1.6 M-0.6 -1.4 L-0.7 -1.65 -0.7 -7.9 M-11.45 -14.3 L-11.45 -9.3 M-16.3 1.6 L-15.8 2.85 M-16.3 1.6 L-16.3 5.35 -16.15 5.85 -15.8 6.6 -15.15 7.1 -14.45 7.5 -13.55 7.75 -12.85 7.8 -12.55 7.85 -11.5 7.75 M-16.3 -3.4 L-16.3 1.6" fill="none" stroke="#000000" stroke-linecap="round" stroke-linejoin="round" stroke-width="2.0"/>
    <path d="M5.15 -1.6 L6.15 -1.65 6.95 -1.55 M5.15 -1.6 L0.0 -1.35 -0.6 -1.4 -5.0 -1.8 -6.15 -1.6 -7.55 -1.2 M3.45 3.65 L1.5 5.1 -0.3 6.7 -1.6 8.7 -2.75 10.8" fill="none" stroke="#000000" stroke-linecap="round" stroke-linejoin="round" stroke-width="1.0"/>
    <path d="M7.2 16.6 Q8.5 15.2 10.1 7.45 11.25 1.85 11.05 -0.4 M-12.85 7.8 L-10.7 11.95 Q-8.35 16.0 -7.2 16.6" fill="none" stroke="#000000" stroke-linecap="round" stroke-linejoin="round" stroke-width="3.0"/>
  </g>
</svg>
