<?xml version="1.0" encoding="UTF-8" standalone="no"?>
<svg xmlns:xlink="http://www.w3.org/1999/xlink" height="40.9px" width="46.45px" xmlns="http://www.w3.org/2000/svg">
  <g transform="matrix(1.0, 0.0, 0.0, 1.0, 26.45, 22.8)">
    <path d="M2.75 -13.75 L4.55 -17.3 4.9 -17.7 5.55 -18.25 6.25 -18.45 7.05 -18.5 7.85 -18.35 8.75 -18.0 9.55 -17.5 10.15 -16.95 10.55 -16.3 10.85 -15.6 10.8 -14.8 10.7 -14.25 10.45 -13.85 9.1 -11.15 7.6 -6.7 7.25 -5.4 7.25 -5.35 5.85 -3.7 5.4 -2.45 5.45 -1.7 5.5 -1.65 5.45 -1.7 5.4 -2.45 5.85 -3.7 7.25 -5.35 7.25 -5.4 7.3 -5.4 9.2 -7.7 9.6 -8.15 11.55 -9.9 12.15 -10.5 14.25 -12.1 14.7 -12.35 15.5 -12.55 16.25 -12.45 16.95 -12.2 17.55 -11.8 18.2 -11.15 18.65 -10.4 18.9 -9.7 19.0 -8.95 18.9 -8.25 18.5 -7.55 18.2 -7.15 16.3 -5.65 14.1 -3.7 13.8 -3.35 11.05 -0.05 10.75 0.35 10.35 0.65 9.7 1.0 10.35 0.65 10.75 0.35 11.05 -0.05 Q11.15 2.3 10.1 7.45 8.5 15.2 7.2 16.6 6.3 17.5 0.1 17.4 -5.9 17.3 -7.2 16.6 -8.35 16.0 -10.7 11.95 L-12.35 8.8 -11.75 8.45 -11.2 7.95 -11.75 8.45 -12.35 8.8 -12.45 8.85 -13.85 8.9 -17.5 7.5 -16.0 7.55 -17.5 7.5 -21.65 5.3 -23.85 4.75 -24.95 3.95 -25.3 3.2 -25.45 2.4 -25.45 1.5 -25.3 0.5 -24.95 -0.5 -24.45 -1.25 -23.9 -1.85 -23.25 -2.35 -21.9 -2.55 -19.3 -1.85 -18.0 -0.75 -19.3 -1.85 -14.55 0.55 -14.15 0.75 -11.25 1.8 -11.0 1.95 -10.55 0.2 -10.95 -0.2 -11.25 -0.65 -14.0 -7.4 -13.1 -6.5 -14.0 -7.4 -16.15 -11.65 -18.15 -14.6 -18.5 -15.9 -18.35 -16.6 -18.05 -17.25 -17.6 -17.85 -16.9 -18.4 -16.15 -18.8 -15.4 -19.0 -14.65 -19.05 -13.95 -18.9 -13.25 -18.4 -12.9 -18.05 -10.95 -15.2 -10.7 -14.75 -10.45 -13.4 -10.7 -14.75 -8.3 -10.1 -8.05 -9.6 -7.5 -8.2 -8.3 -10.1 -7.5 -8.2 -6.25 -5.1 -6.25 -10.6 -6.1 -15.7 -5.9 -19.5 -5.7 -20.05 -5.35 -20.75 -4.8 -21.25 -4.1 -21.6 -3.35 -21.75 -2.45 -21.8 -1.5 -21.65 -0.8 -21.35 -0.15 -20.95 0.35 -20.4 0.6 -19.65 0.7 -19.1 0.5 -15.45 0.0 -14.25 0.5 -15.45 0.4 -10.55 0.4 -6.2 1.05 -8.7 1.1 -7.3 1.05 -8.7 2.75 -13.75 2.7 -12.3 2.75 -13.75 M11.45 -9.3 L12.15 -10.5 11.45 -9.3 M-5.7 -14.4 L-6.1 -15.7 -5.7 -14.4 M8.6 -6.4 L9.2 -7.7 11.55 -9.9 9.2 -7.7 8.6 -6.4 M8.25 -10.25 L9.1 -11.15 8.25 -10.25 M-0.45 -1.4 L-0.6 -2.0 -0.6 -2.55 0.4 -6.2 -0.6 -2.55 -0.6 -2.0 -0.45 -1.4 0.0 -1.35 5.0 -1.7 5.5 -1.65 5.0 -1.7 0.0 -1.35 -0.45 -1.4 -5.0 -1.8 -6.15 -1.6 -7.55 -1.2 -6.15 -1.6 -5.0 -1.8 -0.45 -1.4 M6.8 -5.7 L7.6 -6.7 6.8 -5.7 M-0.1 -9.3 L0.4 -10.55 -0.1 -9.3 M6.95 -1.55 L5.5 -1.65 6.95 -1.55 M12.7 -2.75 L13.8 -3.35 12.7 -2.75 M15.15 -5.2 L16.3 -5.65 15.15 -5.2 M-2.75 10.8 L-1.6 8.65 -0.3 6.65 1.5 5.05 3.45 3.65 1.5 5.05 -0.3 6.65 -1.6 8.65 -2.75 10.8 M-20.6 5.2 L-21.65 5.3 -20.6 5.2 M-15.2 -10.8 L-16.15 -11.65 -15.2 -10.8 M-9.4 0.7 L-9.7 0.65 -10.4 0.35 -10.55 0.2 -10.4 0.35 -9.7 0.65 -9.4 0.7 M-6.25 -5.1 L-6.25 -1.85 -6.15 -1.6 -6.25 -1.85 -6.25 -5.1 M-5.8 -9.35 L-6.25 -10.6 -5.8 -9.35 M-8.15 -8.75 L-8.3 -10.1 -8.15 -8.75 M-10.2 2.7 L-10.8 2.1 -11.25 1.8 -10.8 2.1 -10.2 2.7 M-13.7 1.45 L-14.55 0.55 -13.7 1.45" fill="#ffffff" fill-rule="evenodd" stroke="none"/>
    <path d="M9.1 -11.15 L10.45 -13.85 10.7 -14.25 10.8 -14.8 10.85 -15.6 10.55 -16.3 10.15 -16.95 9.55 -17.5 8.75 -18.0 7.85 -18.35 7.05 -18.5 6.25 -18.45 5.55 -18.25 4.9 -17.7 4.55 -17.3 2.75 -13.75 2.7 -12.3 M16.3 -5.65 L18.2 -7.15 18.5 -7.55 18.9 -8.25 19.0 -8.95 18.9 -9.7 18.65 -10.4 18.2 -11.15 17.55 -11.8 16.95 -12.2 16.25 -12.45 15.5 -12.55 14.7 -12.35 14.25 -12.1 12.15 -10.5 11.45 -9.3 M0.5 -15.45 L0.7 -19.1 0.6 -19.65 0.35 -20.4 -0.15 -20.95 -0.8 -21.35 -1.5 -21.65 -2.45 -21.8 -3.35 -21.75 -4.1 -21.6 -4.8 -21.25 -5.35 -20.75 -5.7 -20.05 -5.9 -19.5 -6.1 -15.7 -5.7 -14.4 M0.5 -15.45 L0.0 -14.25 M11.55 -9.9 L12.15 -10.5 M7.6 -6.7 L9.1 -11.15 8.25 -10.25 M11.55 -9.9 L9.2 -7.7 8.6 -6.4 M1.05 -8.7 L1.1 -7.3 M1.05 -8.7 L0.4 -6.2 -0.6 -2.55 -0.6 -2.0 -0.45 -1.4 M5.5 -1.65 L5.45 -1.7 5.4 -2.45 5.85 -3.7 7.25 -5.35 7.25 -5.4 7.6 -6.7 6.8 -5.7 M0.4 -6.2 L0.4 -10.55 -0.1 -9.3 M9.2 -7.7 L7.3 -5.4 7.25 -5.4 M13.8 -3.35 L12.7 -2.75 M11.05 -0.05 L13.8 -3.35 14.1 -3.7 16.3 -5.65 15.15 -5.2 M0.4 -10.55 L0.5 -15.45 M2.75 -13.75 L1.05 -8.7 M11.05 -0.05 L10.75 0.35 10.35 0.65 9.7 1.0 M-19.3 -1.85 L-21.9 -2.55 -23.25 -2.35 -23.9 -1.85 -24.45 -1.25 -24.95 -0.5 -25.3 0.5 -25.45 1.5 -25.45 2.4 -25.3 3.2 -24.95 3.95 -23.85 4.75 -21.65 5.3 -20.6 5.2 M-10.7 -14.75 L-10.95 -15.2 -12.9 -18.05 -13.25 -18.4 -13.95 -18.9 -14.65 -19.05 -15.4 -19.0 -16.15 -18.8 -16.9 -18.4 -17.6 -17.85 -18.05 -17.25 -18.35 -16.6 -18.5 -15.9 -18.15 -14.6 -16.15 -11.65 -15.2 -10.8 M-10.7 -14.75 L-10.45 -13.4 M-14.0 -7.4 L-11.25 -0.65 -10.95 -0.2 -10.55 0.2 -10.4 0.35 -9.7 0.65 -9.4 0.7 M-18.0 -0.75 L-19.3 -1.85 -14.55 0.55 -14.15 0.75 -11.25 1.8 -10.8 2.1 -10.2 2.7 M-14.0 -7.4 L-13.1 -6.5 M-16.15 -11.65 L-14.0 -7.4 M-8.3 -10.1 L-7.5 -8.2 -6.25 -5.1 -6.25 -10.6 -6.1 -15.7 M-8.3 -10.1 L-8.15 -8.75 M-6.25 -10.6 L-5.8 -9.35 M-6.15 -1.6 L-6.25 -1.85 -6.25 -5.1 M-8.3 -10.1 L-10.7 -14.75 M-14.55 0.55 L-13.7 1.45 M-17.5 7.5 L-16.0 7.55 M-12.35 8.8 L-11.75 8.45 -11.2 7.95 M-17.5 7.5 L-13.85 8.9 -12.45 8.85 -12.35 8.8 M-21.65 5.3 L-17.5 7.5" fill="none" stroke="#000000" stroke-linecap="round" stroke-linejoin="round" stroke-width="2.0"/>
    <path d="M-0.45 -1.4 L0.0 -1.35 5.0 -1.7 5.5 -1.65 6.95 -1.55 M3.45 3.65 L1.5 5.05 -0.3 6.65 -1.6 8.65 -2.75 10.8 M-7.55 -1.2 L-6.15 -1.6 -5.0 -1.8 -0.45 -1.4" fill="none" stroke="#000000" stroke-linecap="round" stroke-linejoin="round" stroke-width="1.0"/>
    <path d="M7.2 16.6 Q8.5 15.2 10.1 7.45 11.15 2.3 11.05 -0.05 M-11.0 1.95 L-10.55 0.2 M-12.35 8.8 L-10.7 11.95 Q-8.35 16.0 -7.2 16.6" fill="none" stroke="#000000" stroke-linecap="round" stroke-linejoin="round" stroke-width="3.0"/>
  </g>
</svg>
