<?xml version="1.0" encoding="UTF-8" standalone="no"?>
<svg xmlns:xlink="http://www.w3.org/1999/xlink" height="40.35px" width="38.45px" xmlns="http://www.w3.org/2000/svg">
  <g transform="matrix(1.0, 0.0, 0.0, 1.0, 25.85, 22.25)">
    <path d="M3.15 -6.35 L2.05 -6.7 0.25 -7.8 -0.1 -8.15 -0.6 -8.8 -0.75 -9.5 -0.75 -10.2 -0.55 -10.9 -0.15 -11.75 0.4 -12.4 1.0 -12.9 1.65 -13.25 2.35 -13.4 3.2 -13.25 3.7 -13.1 3.75 -13.1 4.05 -12.9 3.75 -13.1 3.7 -13.1 3.2 -13.25 2.35 -13.4 1.65 -13.25 1.0 -12.9 0.4 -12.4 -0.15 -11.75 -0.55 -10.9 -0.75 -10.2 -0.75 -9.5 -0.6 -8.8 -0.1 -8.15 0.25 -7.8 2.05 -6.7 3.15 -6.35 M3.55 -14.3 L4.05 -12.9 6.1 -11.5 8.3 -9.4 9.3 -8.05 10.0 -6.65 11.35 -2.8 11.4 -2.25 11.35 -1.45 11.05 -0.75 11.0 -0.7 10.6 -0.2 10.0 0.3 9.75 0.4 10.0 0.3 10.6 -0.2 11.0 -0.7 Q11.35 1.45 10.1 7.45 8.5 15.2 7.2 16.6 6.3 17.5 0.1 17.4 -5.9 17.3 -7.2 16.6 -8.35 16.0 -10.7 11.95 L-12.4 8.8 -11.75 8.45 -11.2 7.95 -11.75 8.45 -12.4 8.8 -12.5 8.85 -13.3 8.95 -13.85 8.9 -17.8 7.3 -16.1 7.55 -17.8 7.3 -21.15 4.6 -21.65 4.1 -23.7 3.1 -24.1 2.75 -24.65 2.1 -24.85 1.35 -24.85 0.5 -24.7 -0.4 -24.35 -1.35 -23.8 -2.25 -23.2 -2.9 -22.55 -3.4 -21.8 -3.75 -20.95 -3.75 -20.45 -3.7 -18.0 -2.45 -16.95 -1.1 -18.0 -2.45 -14.8 0.2 -14.3 0.75 -14.25 0.75 -13.95 0.9 -13.5 1.0 -11.25 1.8 -11.0 2.0 -10.8 2.15 -10.25 2.7 -10.8 2.15 -11.0 2.0 -10.5 0.0 -11.0 -0.5 -11.35 -1.25 -11.45 -1.75 -11.6 -9.05 -11.1 -7.9 -11.6 -9.05 -12.15 -13.6 -13.4 -16.6 -13.5 -17.9 -13.25 -18.55 -12.8 -19.1 -12.25 -19.6 -11.5 -20.05 -10.65 -20.3 -9.9 -20.35 -9.15 -20.2 -8.45 -19.95 -8.3 -19.8 -8.05 -20.1 -7.35 -20.65 -6.5 -21.05 -5.7 -21.25 -4.95 -21.25 -4.2 -21.05 -3.55 -20.6 -3.15 -20.2 -1.95 -18.2 -1.5 -18.3 -0.7 -18.35 0.55 -17.75 2.55 -15.75 3.55 -14.3 3.75 -13.1 3.55 -14.3 M-1.65 -10.5 L-2.35 -11.1 -2.5 -11.3 -4.45 -13.05 -4.7 -13.5 -4.95 -14.25 -4.95 -15.0 -4.75 -15.7 -4.35 -16.45 -3.75 -17.15 -3.0 -17.75 -2.25 -18.1 -1.95 -18.2 -2.25 -18.1 -3.0 -17.75 -3.75 -17.15 -4.35 -16.45 -4.75 -15.7 -4.95 -15.0 -4.95 -14.25 -4.7 -13.5 -4.45 -13.05 -2.5 -11.3 -2.35 -11.1 -1.65 -10.5 M9.65 -6.45 L9.3 -8.05 9.65 -6.45 M5.05 -1.7 L4.2 -4.4 4.0 -4.75 4.45 -4.4 4.8 -4.05 4.45 -4.4 4.0 -4.75 4.2 -4.4 5.05 -1.7 6.95 -1.55 5.05 -1.7 0.0 -1.35 -0.65 -1.4 -5.0 -1.8 -6.1 -1.6 -6.6 -1.5 -7.55 -1.2 -6.6 -1.5 -6.1 -1.6 -5.0 -1.8 -0.65 -1.4 0.0 -1.35 5.05 -1.7 M6.95 -10.2 L6.1 -11.5 6.95 -10.2 M4.0 -4.75 L3.5 -5.4 2.05 -6.7 3.5 -5.4 4.0 -4.75 M-2.75 10.8 L-1.6 8.65 -0.3 6.65 1.5 5.05 3.45 3.65 1.5 5.05 -0.3 6.65 -1.6 8.65 -2.75 10.8 M-20.7 4.2 L-21.65 4.1 -20.7 4.2 M-6.3 -13.25 L-7.1 -14.05 -8.85 -16.85 -9.0 -17.35 -9.1 -18.15 -8.9 -18.85 -8.55 -19.5 -8.3 -19.8 -8.55 -19.5 -8.9 -18.85 -9.1 -18.15 -9.0 -17.35 -8.85 -16.85 -7.1 -14.05 -6.3 -13.25 M-11.5 -12.6 L-12.15 -13.6 -11.5 -12.6 M-5.8 -10.05 L-7.1 -14.05 -5.8 -10.05 -5.25 -9.05 -5.8 -10.05 -5.7 -9.05 -6.2 -1.95 -6.1 -1.6 -6.2 -1.95 -5.7 -9.05 -5.8 -10.05 M-1.35 -7.2 L-0.65 -1.4 -1.35 -7.2 -2.35 -11.1 -1.35 -7.2 -0.75 -6.15 -1.35 -7.2 M-9.35 0.5 L-9.9 0.35 -10.5 0.0 -9.9 0.35 -9.35 0.5 M-13.65 1.5 L-14.3 0.75 -13.65 1.5" fill="#ffffff" fill-rule="evenodd" stroke="none"/>
    <path d="M4.05 -12.9 L3.75 -13.1 3.7 -13.1 3.2 -13.25 2.35 -13.4 1.65 -13.25 1.0 -12.9 0.4 -12.4 -0.15 -11.75 -0.55 -10.9 -0.75 -10.2 -0.75 -9.5 -0.6 -8.8 -0.1 -8.15 0.25 -7.8 2.05 -6.7 3.15 -6.35 M4.05 -12.9 L3.55 -14.3 3.75 -13.1 M3.55 -14.3 L2.55 -15.75 0.55 -17.75 -0.7 -18.35 -1.5 -18.3 -1.95 -18.2 -2.25 -18.1 -3.0 -17.75 -3.75 -17.15 -4.35 -16.45 -4.75 -15.7 -4.95 -15.0 -4.95 -14.25 -4.7 -13.5 -4.45 -13.05 -2.5 -11.3 -2.35 -11.1 -1.65 -10.5 M11.0 -0.7 L11.05 -0.75 11.35 -1.45 11.4 -2.25 11.35 -2.8 10.0 -6.65 9.3 -8.05 9.65 -6.45 M9.3 -8.05 L8.3 -9.4 6.1 -11.5 6.95 -10.2 M4.8 -4.05 L4.45 -4.4 4.0 -4.75 4.2 -4.4 5.05 -1.7 M2.05 -6.7 L3.5 -5.4 4.0 -4.75 M11.0 -0.7 L10.6 -0.2 10.0 0.3 9.75 0.4 M6.1 -11.5 L4.05 -12.9 M-18.0 -2.45 L-20.45 -3.7 -20.95 -3.75 -21.8 -3.75 -22.55 -3.4 -23.2 -2.9 -23.8 -2.25 -24.35 -1.35 -24.7 -0.4 -24.85 0.5 -24.85 1.35 -24.65 2.1 -24.1 2.75 -23.7 3.1 -21.65 4.1 -20.7 4.2 M-1.95 -18.2 L-3.15 -20.2 -3.55 -20.6 -4.2 -21.05 -4.95 -21.25 -5.7 -21.25 -6.5 -21.05 -7.35 -20.65 -8.05 -20.1 -8.3 -19.8 -8.55 -19.5 -8.9 -18.85 -9.1 -18.15 -9.0 -17.35 -8.85 -16.85 -7.1 -14.05 -6.3 -13.25 M-8.3 -19.8 L-8.45 -19.95 -9.15 -20.2 -9.9 -20.35 -10.65 -20.3 -11.5 -20.05 -12.25 -19.6 -12.8 -19.1 -13.25 -18.55 -13.5 -17.9 -13.4 -16.6 -12.15 -13.6 -11.5 -12.6 M-11.6 -9.05 L-11.45 -1.75 -11.35 -1.25 -11.0 -0.5 -10.5 0.0 -9.9 0.35 -9.35 0.5 M-18.0 -2.45 L-16.95 -1.1 M-11.6 -9.05 L-11.1 -7.9 M-2.35 -11.1 L-1.35 -7.2 -0.75 -6.15 M-5.25 -9.05 L-5.8 -10.05 -5.7 -9.05 -6.2 -1.95 -6.1 -1.6 M-0.65 -1.4 L-1.35 -7.2 M-7.1 -14.05 L-5.8 -10.05 M-12.15 -13.6 L-11.6 -9.05 M-11.0 2.0 L-11.25 1.8 -13.5 1.0 -13.95 0.9 -14.25 0.75 M-14.3 0.75 L-13.65 1.5 M-11.0 2.0 L-10.8 2.15 -10.25 2.7 M-14.3 0.75 L-14.8 0.2 -18.0 -2.45 M-17.8 7.3 L-16.1 7.55 M-12.4 8.8 L-11.75 8.45 -11.2 7.95 M-17.8 7.3 L-13.85 8.9 -13.3 8.95 -12.5 8.85 -12.4 8.8 M-21.65 4.1 L-21.15 4.6 -17.8 7.3" fill="none" stroke="#000000" stroke-linecap="round" stroke-linejoin="round" stroke-width="2.0"/>
    <path d="M5.05 -1.7 L6.95 -1.55 M5.05 -1.7 L0.0 -1.35 -0.65 -1.4 -5.0 -1.8 -6.1 -1.6 -6.6 -1.5 -7.55 -1.2 M3.45 3.65 L1.5 5.05 -0.3 6.65 -1.6 8.65 -2.75 10.8" fill="none" stroke="#000000" stroke-linecap="round" stroke-linejoin="round" stroke-width="1.0"/>
    <path d="M7.2 16.6 Q8.5 15.2 10.1 7.45 11.35 1.45 11.0 -0.7 M-10.5 0.0 L-11.0 2.0 M-12.4 8.8 L-10.7 11.95 Q-8.35 16.0 -7.2 16.6" fill="none" stroke="#000000" stroke-linecap="round" stroke-linejoin="round" stroke-width="3.0"/>
  </g>
</svg>
