<?xml version="1.0" encoding="UTF-8" standalone="no"?>
<svg xmlns:xlink="http://www.w3.org/1999/xlink" height="38.5px" width="44.45px" xmlns="http://www.w3.org/2000/svg">
  <g transform="matrix(1.0, 0.0, 0.0, 1.0, 25.4, 20.4)">
    <path d="M3.3 -11.95 L3.25 -12.25 2.8 -13.75 2.65 -14.5 2.5 -14.95 2.7 -16.25 3.1 -16.85 3.65 -17.4 4.4 -17.8 5.25 -18.1 6.2 -18.2 7.05 -18.15 7.8 -17.9 8.45 -17.5 8.95 -16.85 9.2 -16.35 9.85 -13.7 10.05 -12.05 9.8 -8.95 9.1 -5.95 8.2 -4.85 7.1 -4.5 6.65 -4.15 6.1 -3.6 5.85 -2.95 5.75 -2.25 5.8 -1.65 5.75 -2.25 5.85 -2.95 6.1 -3.6 6.65 -4.15 7.1 -4.5 8.2 -4.85 9.1 -5.95 8.7 -5.05 9.2 -5.2 10.6 -5.65 10.8 -5.8 11.1 -6.25 11.6 -7.95 11.8 -9.55 11.8 -10.0 12.35 -11.15 12.95 -11.55 13.6 -11.85 14.35 -12.0 15.2 -11.95 16.05 -11.75 16.75 -11.4 17.3 -10.9 17.75 -10.3 18.05 -8.95 17.55 -6.05 16.25 -3.0 15.6 -2.1 15.05 -1.5 14.5 -1.0 13.65 -0.45 11.4 0.55 11.1 0.7 Q11.0 3.05 10.1 7.45 8.5 15.2 7.2 16.6 6.3 17.5 0.1 17.4 -5.9 17.3 -7.2 16.6 -8.35 16.0 -10.7 11.95 L-12.4 8.8 -12.5 8.85 -13.35 8.95 -13.9 8.9 -17.8 7.45 -20.45 5.8 -23.55 2.7 -24.15 1.0 -24.4 -0.3 -24.35 -0.85 -24.15 -1.6 -23.65 -2.25 -23.0 -2.75 -22.2 -3.15 -21.25 -3.45 -20.2 -3.55 -19.3 -3.5 -17.8 -2.9 -17.1 -1.8 -17.0 -1.35 -16.95 -0.3 -17.0 0.0 -16.65 -0.1 -16.15 -0.15 -14.5 0.85 -11.25 1.85 -11.0 2.0 -10.5 0.1 -10.55 0.0 -10.35 0.3 -9.7 0.6 -9.35 0.65 -9.7 0.6 -10.35 0.3 -10.55 0.0 -11.15 -0.75 -12.25 -4.2 -12.55 -6.05 -13.0 -6.65 -14.05 -7.2 -15.8 -8.1 -15.9 -8.05 -16.1 -7.9 -16.6 -7.3 -17.4 -6.65 -17.85 -6.5 -18.6 -6.35 -19.25 -6.5 -19.8 -6.8 -20.4 -7.25 -20.85 -7.95 -21.2 -8.75 -21.35 -9.5 -21.25 -10.3 -21.05 -11.0 -20.5 -11.7 -20.1 -12.05 -18.0 -13.25 Q-17.6 -13.4 -17.2 -13.6 L-15.2 -13.9 -11.75 -12.9 -9.05 -11.05 -8.55 -10.55 -8.0 -9.8 -7.3 -8.35 -5.85 -4.5 -5.25 -9.0 -5.35 -9.9 -6.55 -12.95 -6.85 -12.8 -8.9 -13.15 -9.35 -13.45 -9.95 -13.95 -10.25 -14.6 -10.45 -15.3 -10.45 -16.1 -10.25 -16.95 -9.9 -17.8 -9.4 -18.45 -8.8 -18.95 -8.15 -19.3 -7.3 -19.4 -6.8 -19.35 -3.9 -18.4 -2.0 -17.2 -0.1 -14.2 0.95 -11.25 1.15 -9.7 1.0 -7.55 0.75 -5.35 0.7 -4.9 2.7 -8.15 2.9 -8.95 3.3 -11.95 3.5 -11.5 3.65 -11.0 3.5 -11.5 3.3 -11.95 M9.5 -10.45 L10.05 -12.05 9.5 -10.45 M2.7 -7.15 L2.7 -8.15 2.7 -7.15 M0.7 -9.7 L0.95 -11.25 0.7 -9.7 M-0.25 -1.4 L-0.45 -2.05 -0.35 -2.9 -0.2 -3.4 0.7 -4.9 -0.2 -3.4 -0.35 -2.9 -0.45 -2.05 -0.25 -1.4 0.0 -1.35 5.0 -1.7 5.8 -1.65 5.0 -1.7 0.0 -1.35 -0.25 -1.4 -5.0 -1.8 -6.1 -1.6 -6.6 -1.5 -7.55 -1.2 -6.6 -1.5 -6.1 -1.6 -5.0 -1.8 -0.25 -1.4 M9.2 -5.2 L8.2 -4.85 9.2 -5.2 M6.95 -1.55 L5.8 -1.65 6.95 -1.55 M9.7 1.3 L11.1 0.7 9.7 1.3 M16.6 -4.65 L17.55 -6.05 16.6 -4.65 M10.45 -5.15 L10.8 -5.8 10.45 -5.15 M13.45 -0.8 L15.05 -1.5 13.45 -0.8 M11.75 -6.9 L11.6 -7.95 11.75 -6.9 M-2.75 10.8 L-1.6 8.65 -0.3 6.65 1.5 5.05 3.45 3.65 1.5 5.05 -0.3 6.65 -1.6 8.65 -2.75 10.8 M-5.85 -4.5 L-6.2 -2.1 -6.1 -1.6 -6.2 -2.1 -5.85 -4.5 M-8.3 -9.55 L-9.05 -11.05 -8.3 -9.55 M-15.05 -8.25 L-15.45 -8.2 -15.8 -8.1 -15.45 -8.2 -15.05 -8.25 M-12.25 -6.3 L-14.05 -7.2 -12.25 -6.3 M-1.2 -15.45 L-2.0 -17.2 -1.2 -15.45 M-6.0 -12.65 L-6.55 -12.95 -6.0 -12.65 M-11.2 7.9 L-11.8 8.45 -12.4 8.8 -11.8 8.45 -11.2 7.9 M-16.15 7.55 L-17.8 7.45 -16.15 7.55 M-13.7 1.55 L-14.05 1.2 -14.5 0.85 -14.05 1.2 -13.7 1.55 M-10.25 2.75 L-10.8 2.15 -11.0 2.0 -10.8 2.15 -10.25 2.75 M-4.8 -9.0 L-5.35 -9.9 -4.8 -9.0" fill="#ffffff" fill-rule="evenodd" stroke="none"/>
    <path d="M10.05 -12.05 L9.85 -13.7 9.2 -16.35 8.95 -16.85 8.45 -17.5 7.8 -17.9 7.05 -18.15 6.2 -18.2 5.25 -18.1 4.4 -17.8 3.65 -17.4 3.1 -16.85 2.7 -16.25 2.5 -14.95 2.65 -14.5 2.8 -13.75 3.25 -12.25 3.3 -11.95 3.5 -11.5 3.65 -11.0 M9.1 -5.95 L9.8 -8.95 10.05 -12.05 9.5 -10.45 M0.7 -4.9 L0.75 -5.35 1.0 -7.55 1.15 -9.7 0.95 -11.25 0.7 -9.7 M2.7 -8.15 L2.7 -7.15 M3.3 -11.95 L2.9 -8.95 2.7 -8.15 0.7 -4.9 -0.2 -3.4 -0.35 -2.9 -0.45 -2.05 -0.25 -1.4 M5.8 -1.65 L5.75 -2.25 5.85 -2.95 6.1 -3.6 6.65 -4.15 7.1 -4.5 8.2 -4.85 9.1 -5.95 8.7 -5.05 M9.2 -5.2 L10.6 -5.65 10.8 -5.8 11.1 -6.25 11.6 -7.95 11.8 -9.55 11.8 -10.0 12.35 -11.15 12.95 -11.55 13.6 -11.85 14.35 -12.0 15.2 -11.95 16.05 -11.75 16.75 -11.4 17.3 -10.9 17.75 -10.3 18.05 -8.95 17.55 -6.05 16.25 -3.0 15.6 -2.1 15.05 -1.5 14.5 -1.0 13.65 -0.45 11.4 0.55 M-12.4 8.8 L-12.5 8.85 -13.35 8.95 -13.9 8.9 -17.8 7.45 -20.45 5.8 -23.55 2.7 -24.15 1.0 -24.4 -0.3 -24.35 -0.85 -24.15 -1.6 -23.65 -2.25 -23.0 -2.75 -22.2 -3.15 -21.25 -3.45 -20.2 -3.55 -19.3 -3.5 -17.8 -2.9 -17.1 -1.8 -17.0 -1.35 -16.95 -0.3 -17.0 0.0 -16.65 -0.1 -16.15 -0.15 -14.5 0.85 -11.25 1.85 -11.0 2.0 -10.8 2.15 -10.25 2.75 M-10.55 0.0 L-10.85 -0.3 -11.15 -0.75 -12.25 -4.2 -12.55 -6.05 -13.0 -6.65 M-14.05 -7.2 L-15.8 -8.1 -15.9 -8.05 -16.1 -7.9 -16.6 -7.3 -17.4 -6.65 -17.85 -6.5 -18.6 -6.35 -19.25 -6.5 -19.8 -6.8 -20.4 -7.25 -20.85 -7.95 -21.2 -8.75 -21.35 -9.5 -21.25 -10.3 -21.05 -11.0 -20.5 -11.7 -20.1 -12.05 -18.0 -13.25 Q-17.6 -13.4 -17.2 -13.6 L-15.2 -13.9 -11.75 -12.9 -9.05 -11.05 -8.55 -10.55 -8.0 -9.8 -7.3 -8.35 -5.85 -4.5 -5.25 -9.0 -5.35 -9.9 -6.55 -12.95 -6.85 -12.8 -8.9 -13.15 -9.35 -13.45 -9.95 -13.95 -10.25 -14.6 -10.45 -15.3 -10.45 -16.1 -10.25 -16.95 -9.9 -17.8 -9.4 -18.45 -8.8 -18.95 -8.15 -19.3 -7.3 -19.4 -6.8 -19.35 -3.9 -18.4 -2.0 -17.2 -0.1 -14.2 0.95 -11.25 M8.2 -4.85 L9.2 -5.2 M11.6 -7.95 L11.75 -6.9 M15.05 -1.5 L13.45 -0.8 M10.8 -5.8 L10.45 -5.15 M17.55 -6.05 L16.6 -4.65 M11.1 0.7 L9.7 1.3 M-6.55 -12.95 L-6.0 -12.65 M-2.0 -17.2 L-1.2 -15.45 M-14.05 -7.2 L-12.25 -6.3 M-15.8 -8.1 L-15.45 -8.2 -15.05 -8.25 M-9.05 -11.05 L-8.3 -9.55 M-6.1 -1.6 L-6.2 -2.1 -5.85 -4.5 M-5.35 -9.9 L-4.8 -9.0 M-10.55 0.0 L-10.35 0.3 -9.7 0.6 -9.35 0.65 M-14.5 0.85 L-14.05 1.2 -13.7 1.55 M-17.8 7.45 L-16.15 7.55 M-12.4 8.8 L-11.8 8.45 -11.2 7.9" fill="none" stroke="#000000" stroke-linecap="round" stroke-linejoin="round" stroke-width="2.0"/>
    <path d="M-0.25 -1.4 L0.0 -1.35 5.0 -1.7 5.8 -1.65 6.95 -1.55 M3.45 3.65 L1.5 5.05 -0.3 6.65 -1.6 8.65 -2.75 10.8 M-0.25 -1.4 L-5.0 -1.8 -6.1 -1.6 -6.6 -1.5 -7.55 -1.2" fill="none" stroke="#000000" stroke-linecap="round" stroke-linejoin="round" stroke-width="1.0"/>
    <path d="M11.1 0.7 Q11.0 3.05 10.1 7.45 8.5 15.2 7.2 16.6 M-7.2 16.6 Q-8.35 16.0 -10.7 11.95 L-12.4 8.8 M-11.0 2.0 L-10.5 0.1" fill="none" stroke="#000000" stroke-linecap="round" stroke-linejoin="round" stroke-width="3.0"/>
  </g>
</svg>
