<?xml version="1.0" encoding="UTF-8" standalone="no"?>
<svg xmlns:xlink="http://www.w3.org/1999/xlink" height="31.45px" width="31.45px" xmlns="http://www.w3.org/2000/svg">
  <g transform="matrix(1.0, 0.0, 0.0, 1.0, 18.9, 13.35)">
    <path d="M7.65 -8.6 L8.3 -8.05 9.05 -7.2 11.15 -3.25 11.3 -2.7 11.35 -1.85 11.1 -1.15 10.95 -0.9 10.75 -0.5 10.2 0.05 9.75 0.3 10.2 0.05 10.75 -0.5 10.95 -0.9 Q11.4 1.2 10.1 7.45 8.5 15.2 7.2 16.6 6.3 17.5 0.1 17.4 -5.9 17.3 -7.2 16.6 -8.35 16.0 -10.7 11.95 L-12.8 7.95 -13.3 8.05 -14.15 8.05 -14.95 7.85 -16.0 6.9 -16.85 5.05 -17.1 4.35 -17.35 1.85 -16.65 0.0 -16.3 -0.7 -16.65 -1.05 -16.95 -1.5 -17.5 -2.9 -17.9 -4.85 -17.55 -7.0 -16.6 -8.25 -16.25 -8.6 -14.85 -10.0 -12.85 -10.7 -11.3 -10.95 -11.05 -10.9 -9.6 -11.95 -7.45 -12.3 -5.8 -12.35 -5.0 -12.1 -4.35 -11.7 -0.55 -11.7 3.1 -10.0 3.45 -9.6 3.5 -9.5 3.55 -9.5 5.65 -9.6 6.85 -9.1 7.65 -8.6 8.7 -7.0 7.65 -8.6 M4.9 -3.7 L4.4 -4.0 4.3 -4.1 4.2 -4.15 3.75 -4.25 3.5 -4.35 3.55 -4.2 3.6 -3.95 3.45 -3.15 3.2 -2.8 2.7 -2.35 2.1 -2.2 1.4 -2.15 0.7 -2.3 Q0.35 -2.45 -0.05 -2.65 L-0.75 -3.15 -1.05 -3.55 -1.25 -3.75 -1.55 -4.4 -1.75 -5.15 -1.65 -5.45 -1.4 -6.65 -0.35 -8.1 1.35 -9.4 3.5 -9.5 1.35 -9.4 -0.35 -8.1 -1.4 -6.65 -1.65 -5.45 -1.75 -5.15 -1.55 -4.4 -1.25 -3.75 -1.05 -3.55 -0.75 -3.15 -0.05 -2.65 Q0.35 -2.45 0.7 -2.3 L1.4 -2.15 2.1 -2.2 2.7 -2.35 3.2 -2.8 3.45 -3.15 3.6 -3.95 3.55 -4.2 3.5 -4.35 3.75 -4.25 4.2 -4.15 4.3 -4.1 4.4 -4.0 4.9 -3.7 M-8.85 -7.8 L-8.75 -8.05 -7.3 -9.9 -6.65 -10.5 -4.8 -11.65 -4.7 -11.7 -4.35 -11.7 -4.7 -11.7 -4.8 -11.65 -6.65 -10.5 -7.3 -9.9 -8.75 -8.05 -8.85 -7.8 M5.15 -1.7 L5.0 -1.7 0.0 -1.35 -0.65 -1.4 0.0 -1.35 5.0 -1.7 5.15 -1.7 4.4 -4.0 5.15 -1.7 6.95 -1.55 5.15 -1.7 M-2.75 10.8 L-1.6 8.65 -0.3 6.65 1.5 5.1 3.45 3.65 1.5 5.1 -0.3 6.65 -1.6 8.65 -2.75 10.8 M-1.05 -3.55 L-1.05 -3.2 -0.65 -1.4 -1.05 -3.2 -1.05 -3.55 M-6.2 -3.05 L-5.45 -2.95 -4.75 -3.05 -4.05 -3.4 -3.65 -3.7 -3.05 -4.65 -2.75 -5.45 -2.9 -5.75 -2.55 -5.6 -2.0 -5.45 -1.65 -5.45 -2.0 -5.45 -2.55 -5.6 -2.9 -5.75 -2.75 -5.45 -3.05 -4.65 -3.65 -3.7 -4.05 -3.4 -4.75 -3.05 -5.45 -2.95 -6.2 -3.05 -6.05 -2.4 -6.0 -1.6 -6.0 -1.4 -6.1 -0.5 -6.35 0.25 -6.75 0.95 -7.85 1.65 -9.0 1.75 -9.8 1.65 -9.9 2.05 -10.15 2.45 -10.8 2.35 -11.25 2.1 -10.8 2.35 -10.15 2.45 -9.9 2.05 -9.8 1.65 -9.0 1.75 -7.85 1.65 -6.75 0.95 -6.35 0.25 -6.1 -0.5 -6.0 -1.4 -6.0 -1.6 -6.05 -2.4 -6.2 -3.05 -6.3 -3.4 -6.7 -4.2 -7.15 -4.85 -7.75 -5.4 -8.55 -5.65 -8.65 -5.65 -9.0 -5.7 -9.05 -5.7 -10.4 -5.5 -12.05 -5.0 -13.75 -3.4 -12.05 -5.0 -10.4 -5.5 -9.05 -5.7 -9.0 -5.7 -8.65 -5.65 -8.55 -5.65 -7.75 -5.4 -7.15 -4.85 -6.7 -4.2 -6.3 -3.4 -6.2 -3.05 M-8.95 -7.5 L-9.2 -6.75 -9.1 -6.0 -9.0 -5.7 -9.1 -6.0 -9.2 -6.75 -8.95 -7.5 M-12.05 -5.0 L-13.6 -4.0 -15.4 -2.4 -16.3 -0.7 -15.4 -2.4 -13.6 -4.0 -13.7 -6.9 -12.9 -9.35 -11.7 -10.45 -11.2 -10.8 -11.05 -10.9 -11.2 -10.8 -11.7 -10.45 -12.9 -9.35 -13.7 -6.9 -13.6 -4.0 -12.05 -5.0 M-17.55 -7.0 L-16.25 -8.6 -17.55 -7.0 M-11.2 -10.8 L-12.9 -9.35 -11.2 -10.8 M-0.65 -1.4 L-5.0 -1.8 -6.0 -1.6 -5.0 -1.8 -0.65 -1.4 M-5.8 -12.35 L-4.8 -11.65 -5.8 -12.35 M-11.25 2.1 L-11.2 2.05 -11.45 2.15 -11.3 2.55 -11.25 2.4 -11.25 2.1 M-16.0 6.9 L-17.1 4.35 -16.0 6.9 M-11.45 7.55 L-12.45 7.9 -12.8 7.95 -12.45 7.9 -11.45 7.55 M-16.65 4.1 L-17.35 1.85 -16.65 4.1" fill="#ffffff" fill-rule="evenodd" stroke="none"/>
    <path d="M10.95 -0.9 L11.1 -1.15 11.35 -1.85 11.3 -2.7 11.15 -3.25 9.05 -7.2 8.3 -8.05 7.65 -8.6 8.7 -7.0 M7.65 -8.6 L6.85 -9.1 5.65 -9.6 3.55 -9.5 3.5 -9.5 1.35 -9.4 -0.35 -8.1 -1.4 -6.65 -1.65 -5.45 -1.75 -5.15 -1.55 -4.4 -1.25 -3.75 -1.05 -3.55 -0.75 -3.15 -0.05 -2.65 Q0.35 -2.45 0.7 -2.3 L1.4 -2.15 2.1 -2.2 2.7 -2.35 3.2 -2.8 3.45 -3.15 3.6 -3.95 3.55 -4.2 3.5 -4.35 3.75 -4.25 4.2 -4.15 4.3 -4.1 4.4 -4.0 4.9 -3.7 M3.5 -9.5 L3.45 -9.6 3.1 -10.0 -0.55 -11.7 -4.35 -11.7 -4.7 -11.7 -4.8 -11.65 -6.65 -10.5 -7.3 -9.9 -8.75 -8.05 -8.85 -7.8 M5.15 -1.7 L4.4 -4.0 M9.75 0.3 L10.2 0.05 10.75 -0.5 10.95 -0.9 M-12.8 7.95 L-13.3 8.05 -14.15 8.05 -14.95 7.85 -16.0 6.9 M-17.1 4.35 L-17.35 1.85 -16.65 0.0 -16.3 -0.7 -16.65 -1.05 -16.95 -1.5 -17.5 -2.9 -17.9 -4.85 -17.55 -7.0 -16.6 -8.25 -16.25 -8.6 -14.85 -10.0 -12.85 -10.7 -11.3 -10.95 -11.05 -10.9 -9.6 -11.95 -7.45 -12.3 -5.8 -12.35 -5.0 -12.1 -4.35 -11.7 M-16.3 -0.7 L-15.4 -2.4 -13.6 -4.0 -13.7 -6.9 -12.9 -9.35 -11.7 -10.45 -11.2 -10.8 -11.05 -10.9 M-12.9 -9.35 L-11.2 -10.8 M-16.25 -8.6 L-17.55 -7.0 M-11.25 2.1 L-10.8 2.35 -10.15 2.45 -9.9 2.05 -9.8 1.65 -9.0 1.75 -7.85 1.65 -6.75 0.95 -6.35 0.25 -6.1 -0.5 -6.0 -1.4 -6.0 -1.6 -6.05 -2.4 -6.2 -3.05 -6.3 -3.4 -6.7 -4.2 -7.15 -4.85 -7.75 -5.4 -8.55 -5.65 -8.65 -5.65 -9.0 -5.7 -9.05 -5.7 -10.4 -5.5 -12.05 -5.0 -13.75 -3.4 M-13.6 -4.0 L-12.05 -5.0 M-9.0 -5.7 L-9.1 -6.0 -9.2 -6.75 -8.95 -7.5 M-1.65 -5.45 L-2.0 -5.45 -2.55 -5.6 -2.9 -5.75 -2.75 -5.45 -3.05 -4.65 -3.65 -3.7 -4.05 -3.4 -4.75 -3.05 -5.45 -2.95 -6.2 -3.05 M-0.65 -1.4 L-1.05 -3.2 -1.05 -3.55 M-4.8 -11.65 L-5.8 -12.35 M-11.2 2.05 L-11.25 2.1 M-17.35 1.85 L-16.65 4.1 M-12.8 7.95 L-12.45 7.9 -11.45 7.55 M-17.1 4.35 L-16.0 6.9" fill="none" stroke="#000000" stroke-linecap="round" stroke-linejoin="round" stroke-width="2.0"/>
    <path d="M-0.65 -1.4 L0.0 -1.35 5.0 -1.7 5.15 -1.7 6.95 -1.55 M3.45 3.65 L1.5 5.1 -0.3 6.65 -1.6 8.65 -2.75 10.8 M-6.0 -1.6 L-5.0 -1.8 -0.65 -1.4" fill="none" stroke="#000000" stroke-linecap="round" stroke-linejoin="round" stroke-width="1.0"/>
    <path d="M10.95 -0.9 Q11.4 1.2 10.1 7.45 8.5 15.2 7.2 16.6 M-7.2 16.6 Q-8.35 16.0 -10.7 11.95 L-12.8 7.95" fill="none" stroke="#000000" stroke-linecap="round" stroke-linejoin="round" stroke-width="3.0"/>
  </g>
</svg>
