<?xml version="1.0" encoding="UTF-8" standalone="no"?>
<svg xmlns:xlink="http://www.w3.org/1999/xlink" height="40.9px" width="23.35px" xmlns="http://www.w3.org/2000/svg">
  <g transform="matrix(1.0, 0.0, 0.0, 1.0, 13.45, 22.8)">
    <path d="M-4.9 -20.45 L-4.85 -20.6 -4.35 -21.1 -3.7 -21.45 -2.95 -21.7 -2.05 -21.8 -1.1 -21.7 -0.35 -21.45 0.3 -21.1 0.85 -20.6 1.15 -19.85 1.3 -19.3 1.3 -19.1 1.85 -19.15 0.95 -19.05 0.15 -18.8 -0.5 -18.45 -1.1 -17.95 -1.4 -17.2 -1.55 -16.65 -1.55 -12.9 -1.55 -7.9 -1.55 -1.55 -1.55 -7.9 -1.55 -12.9 -1.55 -16.65 -1.4 -17.2 -1.1 -17.95 -0.5 -18.45 0.15 -18.8 0.95 -19.05 1.85 -19.15 2.8 -19.05 3.6 -18.8 4.3 -18.45 4.85 -17.95 5.3 -16.65 5.3 -15.35 5.75 -15.4 6.6 -15.3 7.35 -15.05 7.95 -14.7 8.5 -14.15 8.8 -13.4 8.9 -12.9 8.9 -10.4 8.9 -6.65 8.9 -1.65 8.8 -1.15 8.5 -0.4 7.95 0.1 7.8 0.2 Q7.95 2.6 7.45 7.45 6.65 15.1 5.6 16.6 5.05 17.4 0.15 17.35 -4.65 17.25 -5.6 16.6 -6.55 15.9 -8.15 11.85 L-9.6 7.75 -9.7 7.75 -10.55 7.5 -11.3 7.1 -11.9 6.6 -12.3 5.85 -12.45 5.35 -12.45 1.6 -12.45 -3.4 -12.45 -5.9 -12.3 -6.4 -11.95 -7.15 -11.3 -7.65 -10.6 -8.05 -8.9 -8.35 -8.9 -9.3 -8.9 -14.3 -8.9 -18.05 -8.8 -18.6 -8.5 -19.35 -7.95 -19.85 -7.35 -20.25 -6.6 -20.45 -5.75 -20.55 -4.9 -20.45 -5.2 -19.85 -5.35 -19.3 -5.35 -15.55 -4.9 -14.3 -5.35 -15.55 -5.35 -19.3 -5.2 -19.85 -4.9 -20.45 M3.0 -5.4 L2.55 -6.65 2.55 -10.4 2.55 -12.9 3.0 -14.15 3.5 -14.7 4.15 -15.05 4.85 -15.3 5.3 -15.35 4.85 -15.3 4.15 -15.05 3.5 -14.7 3.0 -14.15 2.55 -12.9 2.55 -10.4 3.0 -9.15 2.55 -10.4 2.55 -6.65 3.0 -5.4 M8.5 -9.15 L8.9 -10.4 8.5 -9.15 M-4.9 -1.4 L-3.45 -1.8 -1.55 -1.55 0.0 -1.35 2.55 -1.6 4.25 -1.65 4.8 -1.55 4.25 -1.65 2.55 -1.6 0.0 -1.35 -1.55 -1.55 -3.45 -1.8 -4.9 -1.4 -4.9 -3.4 -4.85 -3.9 -4.9 -5.9 -5.05 -6.4 -5.3 -6.9 -5.3 -10.05 -5.35 -10.55 -4.85 -9.3 -5.35 -10.55 -5.3 -10.05 -5.3 -6.9 -5.05 -6.4 -4.9 -5.9 -4.85 -3.9 -4.9 -3.4 -4.9 -1.4 -4.9 1.6 -5.4 2.85 -4.9 1.6 -4.9 -1.4 M-7.65 7.75 L-8.65 7.85 -9.6 7.75 -8.65 7.85 -7.65 7.75 M-1.55 -12.9 L-1.1 -11.65 -1.55 -12.9 M-5.35 -10.55 L-5.35 -15.55 -5.35 -10.55 M-5.4 -2.15 L-4.9 -3.4 -5.4 -2.15 M-8.55 -8.35 L-8.9 -8.35 -8.55 -8.35 -8.9 -9.3 -8.55 -8.35 -7.65 -8.25 -6.8 -8.0 -6.05 -7.65 -5.4 -7.1 -5.3 -6.9 -5.4 -7.1 -6.05 -7.65 -6.8 -8.0 -7.65 -8.25 -8.55 -8.35 M-1.1 -6.65 L-1.55 -7.9 -1.1 -6.65 M-11.9 -2.15 L-12.45 -3.4 -11.9 -2.15 M-8.45 -13.05 L-8.9 -14.3 -8.45 -13.05 M2.55 -1.6 L2.55 -6.65 2.55 -1.6 M8.5 -5.4 L8.9 -6.65 8.5 -5.4 M-1.7 10.8 L-0.8 8.7 0.2 6.7 2.45 3.65 0.2 6.7 -0.8 8.7 -1.7 10.8 M6.75 0.7 L7.35 0.5 7.8 0.2 7.35 0.5 6.75 0.7 M-11.9 2.85 L-12.45 1.6 -11.9 2.85" fill="#ffffff" fill-rule="evenodd" stroke="none"/>
    <path d="M1.3 -19.1 L1.3 -19.3 1.15 -19.85 0.85 -20.6 0.3 -21.1 -0.35 -21.45 -1.1 -21.7 -2.05 -21.8 -2.95 -21.7 -3.7 -21.45 -4.35 -21.1 -4.85 -20.6 -4.9 -20.45 -5.2 -19.85 -5.35 -19.3 -5.35 -15.55 -4.9 -14.3 M-1.55 -1.55 L-1.55 -7.9 -1.55 -12.9 -1.55 -16.65 -1.4 -17.2 -1.1 -17.95 -0.5 -18.45 0.15 -18.8 0.95 -19.05 1.85 -19.15 2.8 -19.05 3.6 -18.8 4.3 -18.45 4.85 -17.95 5.3 -16.65 5.3 -15.35 5.75 -15.4 6.6 -15.3 7.35 -15.05 7.95 -14.7 8.5 -14.15 8.8 -13.4 8.9 -12.9 8.9 -10.4 8.9 -6.65 8.9 -1.65 8.8 -1.15 8.5 -0.4 7.95 0.1 7.8 0.2 7.35 0.5 6.75 0.7 M-9.6 7.75 L-9.7 7.75 -10.55 7.5 -11.3 7.1 -11.9 6.6 -12.3 5.85 -12.45 5.35 -12.45 1.6 -12.45 -3.4 -12.45 -5.9 -12.3 -6.4 -11.95 -7.15 -11.3 -7.65 -10.6 -8.05 -8.9 -8.35 -8.9 -9.3 -8.9 -14.3 -8.9 -18.05 -8.8 -18.6 -8.5 -19.35 -7.95 -19.85 -7.35 -20.25 -6.6 -20.45 -5.75 -20.55 -4.9 -20.45 M5.3 -15.35 L4.85 -15.3 4.15 -15.05 3.5 -14.7 3.0 -14.15 2.55 -12.9 2.55 -10.4 3.0 -9.15 M8.9 -10.4 L8.5 -9.15 M2.55 -10.4 L2.55 -6.65 3.0 -5.4 M-4.9 -1.4 L-4.9 1.6 -5.4 2.85 M8.9 -6.65 L8.5 -5.4 M2.55 -6.65 L2.55 -1.6 M-8.9 -14.3 L-8.45 -13.05 M-12.45 -3.4 L-11.9 -2.15 M-1.55 -7.9 L-1.1 -6.65 M-4.85 -9.3 L-5.35 -10.55 -5.3 -10.05 -5.3 -6.9 -5.05 -6.4 -4.9 -5.9 -4.85 -3.9 -4.9 -3.4 -4.9 -1.4 M-8.9 -9.3 L-8.55 -8.35 -7.65 -8.25 -6.8 -8.0 -6.05 -7.65 -5.4 -7.1 -5.3 -6.9 M-8.9 -8.35 L-8.55 -8.35 M-4.9 -3.4 L-5.4 -2.15 M-5.35 -15.55 L-5.35 -10.55 M-1.1 -11.65 L-1.55 -12.9 M-9.6 7.75 L-8.65 7.85 -7.65 7.75 M-12.45 1.6 L-11.9 2.85" fill="none" stroke="#000000" stroke-linecap="round" stroke-linejoin="round" stroke-width="2.0"/>
    <path d="M4.8 -1.55 L4.25 -1.65 2.55 -1.6 0.0 -1.35 -1.55 -1.55 -3.45 -1.8 -4.9 -1.4 M2.45 3.65 L0.2 6.7 -0.8 8.7 -1.7 10.8" fill="none" stroke="#000000" stroke-linecap="round" stroke-linejoin="round" stroke-width="1.0"/>
    <path d="M7.8 0.2 Q7.95 2.6 7.45 7.45 6.65 15.1 5.6 16.6 M-5.6 16.6 Q-6.55 15.9 -8.15 11.85 L-9.6 7.75" fill="none" stroke="#000000" stroke-linecap="round" stroke-linejoin="round" stroke-width="3.0"/>
  </g>
</svg>
