<?xml version="1.0" encoding="UTF-8" standalone="no"?>
<svg xmlns:xlink="http://www.w3.org/1999/xlink" height="40.9px" width="40.0px" xmlns="http://www.w3.org/2000/svg">
  <g transform="matrix(1.0, 0.0, 0.0, 1.0, 22.6, 22.8)">
    <path d="M9.6 -10.5 L11.65 -12.1 12.15 -12.35 12.9 -12.55 13.65 -12.45 14.35 -12.2 15.0 -11.8 15.6 -11.15 16.05 -10.4 16.3 -9.7 16.4 -8.95 16.3 -8.25 15.9 -7.55 15.6 -7.15 13.75 -5.65 11.2 -3.35 10.1 -2.75 11.2 -3.35 8.15 0.35 7.8 0.6 Q7.9 2.95 7.45 7.45 6.65 15.1 5.6 16.6 5.05 17.4 0.15 17.35 -4.65 17.25 -5.6 16.6 -6.55 15.9 -8.15 11.85 L-9.25 8.85 -9.95 8.9 -13.6 7.5 -17.7 5.3 -17.75 5.3 -19.95 4.75 -20.45 4.45 -21.05 3.95 -21.4 3.2 -21.6 2.4 -21.6 1.5 -21.4 0.5 -21.05 -0.5 -20.6 -1.25 -20.05 -1.85 -19.4 -2.35 -18.05 -2.55 -15.4 -1.85 -10.7 0.55 -7.45 1.75 -7.25 0.6 -7.65 0.4 -7.8 0.35 -8.35 -0.2 -8.65 -0.65 -11.4 -7.4 -13.6 -11.65 -15.55 -14.6 -15.75 -15.1 -15.9 -15.9 -15.75 -16.6 -15.45 -17.25 -15.0 -17.85 -14.35 -18.4 -13.55 -18.8 -12.85 -19.0 -12.1 -19.05 -11.4 -18.9 -10.3 -18.05 -8.15 -14.75 -5.75 -10.1 -5.35 -9.25 -5.35 -1.85 -5.1 -1.25 -5.35 -1.85 -5.35 -9.25 -5.35 -10.1 -5.3 -10.6 -4.9 -9.35 -5.3 -10.6 -5.2 -15.7 -5.0 -19.5 -4.8 -20.05 -4.45 -20.75 -3.9 -21.25 -3.2 -21.6 -2.45 -21.75 -1.5 -21.8 -0.6 -21.65 0.15 -21.35 0.75 -20.95 1.25 -20.4 1.5 -19.65 1.6 -19.1 1.4 -15.45 0.9 -14.25 1.4 -15.45 1.35 -12.05 0.2 -8.7 -1.45 -2.55 -1.45 -2.0 -1.35 -1.55 -1.45 -2.0 -1.45 -2.55 0.2 -8.7 1.35 -12.05 1.9 -13.75 3.7 -17.3 4.05 -17.7 4.7 -18.25 5.4 -18.45 6.2 -18.5 7.0 -18.35 7.9 -18.0 8.7 -17.5 9.3 -16.95 9.7 -16.3 10.0 -15.6 9.95 -14.8 9.85 -14.25 9.6 -13.85 8.25 -11.15 7.4 -10.25 8.25 -11.15 7.35 -8.4 6.6 -7.7 6.0 -6.4 6.6 -7.7 7.35 -8.4 9.6 -10.5 8.85 -9.3 9.6 -10.5 M-4.8 -14.4 L-5.2 -15.7 -4.8 -14.4 M1.85 -12.3 L1.9 -13.75 1.85 -12.3 M0.2 -8.7 L0.25 -7.3 0.2 -8.7 M-5.1 -1.25 L-4.5 -1.5 -3.45 -1.8 -1.35 -1.55 0.0 -1.35 2.9 -1.65 3.45 -1.7 4.25 -1.65 4.8 -1.55 4.25 -1.65 3.45 -1.7 2.9 -1.65 0.0 -1.35 -1.35 -1.55 -3.45 -1.8 -4.5 -1.5 -5.1 -1.25 M2.9 -1.65 L2.8 -2.45 3.05 -3.2 3.3 -3.7 6.6 -7.7 3.3 -3.7 3.05 -3.2 2.8 -2.45 2.9 -1.65 M-5.6 -8.75 L-5.75 -10.1 -5.6 -8.75 M12.55 -5.2 L13.75 -5.65 12.55 -5.2 M6.75 1.05 L7.05 1.05 7.75 0.65 7.8 0.6 7.75 0.65 7.05 1.05 6.75 1.05 M-1.7 10.8 L-0.8 8.7 0.2 6.65 2.45 3.65 0.2 6.65 -0.8 8.7 -1.7 10.8 M-14.15 -0.75 L-15.4 -1.85 -14.15 -0.75 M-12.65 -10.8 L-13.6 -11.65 -12.65 -10.8 M-10.55 -6.5 L-11.4 -7.4 -10.55 -6.5 M-8.15 -14.75 L-7.85 -13.4 -8.15 -14.75 M-9.85 1.45 L-10.7 0.55 -9.85 1.45 M-12.15 7.55 L-13.6 7.5 -12.15 7.55 M-16.75 5.2 L-17.7 5.3 -16.75 5.2 M-7.45 8.05 L-7.9 8.45 -8.6 8.85 -9.25 8.85 -8.6 8.85 -7.9 8.45 -7.45 8.05 M-6.35 2.65 L-6.9 2.1 -7.35 1.8 -7.45 1.75 -7.35 1.8 -6.9 2.1 -6.35 2.65 M-6.4 0.75 L-7.15 0.65 -7.25 0.6 -7.15 0.65 -6.4 0.75" fill="#ffffff" fill-rule="evenodd" stroke="none"/>
    <path d="M13.75 -5.65 L15.6 -7.15 15.9 -7.55 16.3 -8.25 16.4 -8.95 16.3 -9.7 16.05 -10.4 15.6 -11.15 15.0 -11.8 14.35 -12.2 13.65 -12.45 12.9 -12.55 12.15 -12.35 11.65 -12.1 9.6 -10.5 8.85 -9.3 M1.4 -15.45 L1.6 -19.1 1.5 -19.65 1.25 -20.4 0.75 -20.95 0.15 -21.35 -0.6 -21.65 -1.5 -21.8 -2.45 -21.75 -3.2 -21.6 -3.9 -21.25 -4.45 -20.75 -4.8 -20.05 -5.0 -19.5 -5.2 -15.7 -4.8 -14.4 M8.25 -11.15 L9.6 -13.85 9.85 -14.25 9.95 -14.8 10.0 -15.6 9.7 -16.3 9.3 -16.95 8.7 -17.5 7.9 -18.0 7.0 -18.35 6.2 -18.5 5.4 -18.45 4.7 -18.25 4.05 -17.7 3.7 -17.3 1.9 -13.75 1.85 -12.3 M1.4 -15.45 L0.9 -14.25 M7.35 -8.4 L6.6 -7.7 6.0 -6.4 M8.25 -11.15 L7.4 -10.25 M7.35 -8.4 L8.25 -11.15 M9.6 -10.5 L7.35 -8.4 M-1.35 -1.55 L-1.45 -2.0 -1.45 -2.55 0.2 -8.7 1.35 -12.05 1.4 -15.45 M0.25 -7.3 L0.2 -8.7 M-5.1 -1.25 L-5.35 -1.85 -5.35 -9.25 -5.75 -10.1 -5.6 -8.75 M6.6 -7.7 L3.3 -3.7 3.05 -3.2 2.8 -2.45 2.9 -1.65 M11.2 -3.35 L13.75 -5.65 12.55 -5.2 M10.1 -2.75 L11.2 -3.35 8.15 0.35 7.8 0.6 7.75 0.65 7.05 1.05 6.75 1.05 M-9.25 8.85 L-9.95 8.9 -13.6 7.5 -17.7 5.3 -17.75 5.3 -19.95 4.75 -20.45 4.45 -21.05 3.95 -21.4 3.2 -21.6 2.4 -21.6 1.5 -21.4 0.5 -21.05 -0.5 -20.6 -1.25 -20.05 -1.85 -19.4 -2.35 -18.05 -2.55 -15.4 -1.85 -10.7 0.55 -7.45 1.75 -7.35 1.8 -6.9 2.1 -6.35 2.65 M-7.25 0.6 L-7.65 0.4 -7.8 0.35 -8.35 -0.2 -8.65 -0.65 -11.4 -7.4 -13.6 -11.65 -15.55 -14.6 -15.75 -15.1 -15.9 -15.9 -15.75 -16.6 -15.45 -17.25 -15.0 -17.85 -14.35 -18.4 -13.55 -18.8 -12.85 -19.0 -12.1 -19.05 -11.4 -18.9 -10.3 -18.05 -8.15 -14.75 -5.75 -10.1 M1.9 -13.75 L1.35 -12.05 M-7.85 -13.4 L-8.15 -14.75 M-11.4 -7.4 L-10.55 -6.5 M-13.6 -11.65 L-12.65 -10.8 M-15.4 -1.85 L-14.15 -0.75 M-5.3 -10.6 L-5.35 -10.1 -5.35 -9.25 M-5.3 -10.6 L-4.9 -9.35 M-5.2 -15.7 L-5.3 -10.6 M-7.25 0.6 L-7.15 0.65 -6.4 0.75 M-9.25 8.85 L-8.6 8.85 -7.9 8.45 -7.45 8.05 M-17.7 5.3 L-16.75 5.2 M-13.6 7.5 L-12.15 7.55 M-10.7 0.55 L-9.85 1.45" fill="none" stroke="#000000" stroke-linecap="round" stroke-linejoin="round" stroke-width="2.0"/>
    <path d="M4.8 -1.55 L4.25 -1.65 3.45 -1.7 2.9 -1.65 0.0 -1.35 -1.35 -1.55 -3.45 -1.8 -4.5 -1.5 -5.1 -1.25 M2.45 3.65 L0.2 6.65 -0.8 8.7 -1.7 10.8" fill="none" stroke="#000000" stroke-linecap="round" stroke-linejoin="round" stroke-width="1.0"/>
    <path d="M7.8 0.6 Q7.9 2.95 7.45 7.45 6.65 15.1 5.6 16.6 M-5.6 16.6 Q-6.55 15.9 -8.15 11.85 L-9.25 8.85 M-7.45 1.75 L-7.25 0.6" fill="none" stroke="#000000" stroke-linecap="round" stroke-linejoin="round" stroke-width="3.0"/>
  </g>
</svg>
