<?xml version="1.0" encoding="UTF-8" standalone="no"?>
<svg xmlns:xlink="http://www.w3.org/1999/xlink" height="40.35px" width="31.8px" xmlns="http://www.w3.org/2000/svg">
  <g transform="matrix(1.0, 0.0, 0.0, 1.0, 22.0, 22.25)">
    <path d="M-0.95 -18.1 L-0.3 -17.75 1.7 -15.75 2.7 -14.3 3.7 -11.35 3.5 -11.5 1.15 -13.1 -0.2 -13.4 -0.95 -13.25 -1.6 -12.9 -2.2 -12.4 -2.75 -11.75 -3.1 -11.05 -3.2 -11.1 -3.35 -11.3 -5.3 -13.05 -5.4 -13.3 -5.55 -13.5 -5.8 -14.25 -5.8 -15.0 -5.6 -15.7 -5.2 -16.45 -4.6 -17.15 -3.9 -17.7 -3.85 -17.75 -3.1 -18.1 -2.35 -18.3 -1.55 -18.35 -0.95 -18.1 -1.55 -18.35 -2.35 -18.3 -3.1 -18.1 -3.85 -17.75 -3.9 -17.7 -4.6 -17.15 -5.2 -16.45 -5.6 -15.7 -5.8 -15.0 -5.8 -14.25 -5.55 -13.5 -5.4 -13.3 -5.3 -13.05 -3.35 -11.3 -3.2 -11.1 -3.1 -11.05 -2.75 -11.75 -2.2 -12.4 -1.6 -12.9 -0.95 -13.25 -0.2 -13.4 1.15 -13.1 3.5 -11.5 3.7 -11.35 4.3 -10.8 4.5 -10.65 4.75 -10.4 5.75 -9.4 6.7 -8.05 7.45 -6.65 8.75 -2.8 8.8 -2.25 8.75 -1.45 8.45 -0.75 8.0 -0.2 7.75 0.0 7.4 0.3 6.75 0.55 7.4 0.3 7.75 0.0 Q7.95 2.35 7.45 7.45 6.65 15.1 5.6 16.6 5.05 17.4 0.15 17.35 -4.65 17.25 -5.6 16.6 -6.55 15.9 -8.15 11.85 L-9.2 8.9 -9.45 8.95 -10.0 8.9 -13.9 7.3 -12.2 7.55 -13.9 7.3 -17.8 4.1 -18.15 3.9 -19.85 3.1 -20.25 2.75 -20.75 2.1 -20.95 1.35 -21.0 0.5 -20.8 -0.4 -20.45 -1.35 -19.95 -2.25 -19.35 -2.9 -18.65 -3.4 -17.95 -3.75 -16.55 -3.7 -14.1 -2.45 -13.05 -1.1 -14.1 -2.45 -10.35 0.75 -10.05 0.9 -9.6 1.0 -7.4 1.75 -7.35 1.8 -6.35 2.65 -7.35 1.8 -7.4 1.75 -7.2 0.35 -7.3 0.35 -7.95 0.0 -8.45 -0.5 -8.9 -1.75 -8.95 -8.55 -9.0 -9.05 -8.5 -7.9 -9.0 -9.05 -9.55 -13.6 -9.85 -14.5 -10.8 -16.6 -10.9 -17.1 -10.9 -17.9 -10.65 -18.55 -10.25 -19.1 -9.7 -19.6 -8.9 -20.05 -8.1 -20.3 -7.3 -20.35 -6.9 -20.3 -7.15 -20.1 -7.65 -19.5 -8.0 -18.85 -8.2 -18.15 -8.1 -17.35 -7.95 -16.85 -6.2 -14.05 -5.1 -10.9 -4.9 -10.05 -4.8 -9.05 -5.3 -1.95 -5.2 -1.45 -5.1 -1.25 -5.2 -1.45 -5.3 -1.95 -4.8 -9.05 -4.9 -10.05 -5.1 -10.9 -6.2 -14.05 -7.95 -16.85 -8.1 -17.35 -8.2 -18.15 -8.0 -18.85 -7.65 -19.5 -7.15 -20.1 -6.9 -20.3 -6.4 -20.65 -5.6 -21.05 -4.8 -21.25 -4.05 -21.25 -3.3 -21.05 -2.65 -20.6 -2.25 -20.2 -0.95 -18.1 M2.95 -12.55 L2.7 -14.3 2.95 -12.55 M7.05 -6.45 L6.7 -8.05 7.05 -6.45 M2.5 -1.6 L1.45 -4.75 2.2 -4.05 1.45 -4.75 2.5 -1.6 3.45 -1.7 4.25 -1.65 4.8 -1.55 4.25 -1.65 3.45 -1.7 2.5 -1.6 0.0 -1.35 -1.5 -1.55 -3.45 -1.8 -4.5 -1.5 -5.1 -1.25 -4.5 -1.5 -3.45 -1.8 -1.5 -1.55 0.0 -1.35 2.5 -1.6 M3.5 -11.5 L4.35 -10.2 3.5 -11.5 M1.45 -4.75 L0.95 -5.4 -0.55 -6.7 0.55 -6.35 -0.55 -6.7 0.95 -5.4 1.45 -4.75 M-8.95 -12.6 L-9.55 -13.6 -8.95 -12.6 M-1.7 10.8 L-0.8 8.7 0.2 6.65 2.45 3.65 0.2 6.65 -0.8 8.7 -1.7 10.8 M-16.85 4.2 L-17.8 4.1 -16.85 4.2 M-4.35 -9.05 L-4.9 -10.05 -4.35 -9.05 M-0.55 -6.7 L-2.35 -7.8 -2.2 -7.2 -1.5 -1.55 -2.2 -7.2 -2.35 -7.8 -2.7 -8.15 -3.15 -8.8 -3.3 -9.5 -3.3 -10.2 -3.15 -10.95 -3.3 -10.2 -3.3 -9.5 -3.15 -8.8 -2.7 -8.15 -2.35 -7.8 -0.55 -6.7 M-3.1 -11.05 L-3.15 -10.95 -3.2 -11.1 -3.15 -10.95 -3.1 -11.05 M-6.2 -14.05 L-5.4 -13.3 -6.2 -14.05 M-2.2 -7.2 L-1.6 -6.15 -2.2 -7.2 M-6.25 0.6 L-6.6 0.6 -7.2 0.35 -6.6 0.6 -6.25 0.6 M-9.75 1.5 L-10.35 0.75 -9.75 1.5 M-7.45 8.05 L-7.9 8.45 -8.6 8.85 -9.2 8.9 -8.6 8.85 -7.9 8.45 -7.45 8.05" fill="#ffffff" fill-rule="evenodd" stroke="none"/>
    <path d="M2.7 -14.3 L1.7 -15.75 -0.3 -17.75 -0.95 -18.1 -1.55 -18.35 -2.35 -18.3 -3.1 -18.1 -3.85 -17.75 -3.9 -17.7 -4.6 -17.15 -5.2 -16.45 -5.6 -15.7 -5.8 -15.0 -5.8 -14.25 -5.55 -13.5 -5.4 -13.3 -5.3 -13.05 -3.35 -11.3 -3.2 -11.1 -3.1 -11.05 -2.75 -11.75 -2.2 -12.4 -1.6 -12.9 -0.95 -13.25 -0.2 -13.4 1.15 -13.1 3.5 -11.5 3.7 -11.35 2.7 -14.3 2.95 -12.55 M7.75 0.0 L8.0 -0.2 8.45 -0.75 8.75 -1.45 8.8 -2.25 8.75 -2.8 7.45 -6.65 6.7 -8.05 7.05 -6.45 M6.7 -8.05 L5.75 -9.4 4.75 -10.4 4.5 -10.65 4.3 -10.8 3.7 -11.35 M4.35 -10.2 L3.5 -11.5 M2.2 -4.05 L1.45 -4.75 2.5 -1.6 M-5.1 -1.25 L-5.2 -1.45 -5.3 -1.95 -4.8 -9.05 -4.9 -10.05 -5.1 -10.9 -6.2 -14.05 -7.95 -16.85 -8.1 -17.35 -8.2 -18.15 -8.0 -18.85 -7.65 -19.5 -7.15 -20.1 -6.9 -20.3 -7.3 -20.35 -8.1 -20.3 -8.9 -20.05 -9.7 -19.6 -10.25 -19.1 -10.65 -18.55 -10.9 -17.9 -10.9 -17.1 -10.8 -16.6 -9.85 -14.5 -9.55 -13.6 -8.95 -12.6 M0.55 -6.35 L-0.55 -6.7 0.95 -5.4 1.45 -4.75 M7.75 0.0 L7.4 0.3 6.75 0.55 M-14.1 -2.45 L-16.55 -3.7 -17.95 -3.75 -18.65 -3.4 -19.35 -2.9 -19.95 -2.25 -20.45 -1.35 -20.8 -0.4 -21.0 0.5 -20.95 1.35 -20.75 2.1 -20.25 2.75 -19.85 3.1 -18.15 3.9 -17.8 4.1 -16.85 4.2 M-0.95 -18.1 L-2.25 -20.2 -2.65 -20.6 -3.3 -21.05 -4.05 -21.25 -4.8 -21.25 -5.6 -21.05 -6.4 -20.65 -6.9 -20.3 M-5.4 -13.3 L-6.2 -14.05 M-14.1 -2.45 L-13.05 -1.1 M-3.2 -11.1 L-3.15 -10.95 -3.1 -11.05 M-1.5 -1.55 L-2.2 -7.2 -2.35 -7.8 -2.7 -8.15 -3.15 -8.8 -3.3 -9.5 -3.3 -10.2 -3.15 -10.95 M-2.35 -7.8 L-0.55 -6.7 M-4.9 -10.05 L-4.35 -9.05 M-9.0 -9.05 L-8.95 -8.55 -8.9 -1.75 -8.45 -0.5 -7.95 0.0 -7.3 0.35 -7.2 0.35 -6.6 0.6 -6.25 0.6 M-9.0 -9.05 L-8.5 -7.9 M-1.6 -6.15 L-2.2 -7.2 M-9.55 -13.6 L-9.0 -9.05 M-6.35 2.65 L-7.35 1.8 -7.4 1.75 -9.6 1.0 -10.05 0.9 -10.35 0.75 -9.75 1.5 M-13.9 7.3 L-10.0 8.9 -9.45 8.95 -9.2 8.9 -8.6 8.85 -7.9 8.45 -7.45 8.05 M-13.9 7.3 L-12.2 7.55 M-17.8 4.1 L-13.9 7.3 M-10.35 0.75 L-14.1 -2.45" fill="none" stroke="#000000" stroke-linecap="round" stroke-linejoin="round" stroke-width="2.0"/>
    <path d="M2.5 -1.6 L3.45 -1.7 4.25 -1.65 4.8 -1.55 M2.5 -1.6 L0.0 -1.35 -1.5 -1.55 -3.45 -1.8 -4.5 -1.5 -5.1 -1.25 M2.45 3.65 L0.2 6.65 -0.8 8.7 -1.7 10.8" fill="none" stroke="#000000" stroke-linecap="round" stroke-linejoin="round" stroke-width="1.0"/>
    <path d="M5.6 16.6 Q6.65 15.1 7.45 7.45 7.95 2.35 7.75 0.0 M-7.2 0.35 L-7.4 1.75 M-9.2 8.9 L-8.15 11.85 Q-6.55 15.9 -5.6 16.6" fill="none" stroke="#000000" stroke-linecap="round" stroke-linejoin="round" stroke-width="3.0"/>
  </g>
</svg>
