<?xml version="1.0" encoding="UTF-8" standalone="no"?>
<svg xmlns:xlink="http://www.w3.org/1999/xlink" height="35.05px" width="29.1px" xmlns="http://www.w3.org/2000/svg">
  <g transform="matrix(1.0, 0.0, 0.0, 1.0, 19.3, 16.95)">
    <path d="M6.6 -8.25 L7.4 -6.75 8.75 -2.8 8.8 -1.45 8.45 -0.75 8.0 -0.2 7.75 0.0 7.4 0.3 6.75 0.55 7.4 0.3 7.75 0.0 Q7.95 2.35 7.45 7.45 6.65 15.1 5.6 16.6 5.05 17.4 0.15 17.35 -4.65 17.25 -5.6 16.6 -6.55 15.9 -8.15 11.85 L-9.25 8.9 -8.65 8.85 -7.95 8.45 -7.5 8.0 -7.95 8.45 -8.65 8.85 -9.25 8.9 -9.5 8.95 -10.05 8.9 -11.95 8.2 -14.4 6.9 -16.85 3.85 -18.3 -0.35 -17.95 -2.95 -17.8 -3.45 -17.0 -4.55 -16.25 -4.9 -15.5 -5.05 -14.6 -5.1 -13.6 -4.9 -12.6 -4.55 -11.85 -4.1 -11.25 -3.6 -10.75 -2.95 -10.6 -2.15 -10.6 -1.65 -10.7 -1.2 -10.95 -0.55 -11.15 -0.2 -11.35 0.0 -10.55 0.25 -10.15 1.3 -9.95 1.25 -9.6 1.2 -7.85 1.75 -7.4 1.9 -6.95 2.2 -6.4 2.8 -6.95 2.2 -7.4 1.9 -7.85 1.75 -7.45 1.85 -7.25 0.45 -7.4 0.4 -8.0 0.05 -8.45 -0.6 -8.7 -1.1 -9.3 -4.65 -9.3 -6.5 -9.45 -6.8 -9.55 -6.95 -9.55 -7.0 -10.55 -7.4 -12.85 -8.35 -13.1 -8.35 -15.6 -7.9 -16.8 -8.2 -17.35 -8.6 -17.8 -9.15 -18.1 -9.8 -18.25 -10.65 -18.25 -11.55 -18.05 -12.3 -17.7 -12.95 -17.2 -13.55 -15.95 -14.1 -14.0 -14.3 -14.4 -13.7 -14.6 -12.95 -14.65 -12.15 -14.5 -11.25 -14.15 -10.4 -13.75 -9.75 -13.2 -9.25 -12.55 -8.9 -11.8 -8.8 -11.25 -8.85 -10.85 -8.95 -9.75 -9.4 -9.35 -9.65 -9.2 -9.95 -8.75 -9.65 -8.3 -9.05 -7.15 -8.5 -6.9 -8.5 -6.65 -8.3 -6.5 -8.05 -6.35 -7.7 -6.05 -4.6 -5.25 -1.2 -6.05 -4.6 -6.35 -7.7 -6.5 -8.05 -6.65 -8.3 -6.9 -8.5 -7.15 -8.5 -8.3 -9.05 -8.75 -9.65 -9.2 -9.95 -9.35 -9.65 -9.75 -9.4 -10.85 -8.95 -11.25 -8.85 -11.8 -8.8 -12.55 -8.9 -13.2 -9.25 -13.75 -9.75 -14.15 -10.4 -14.5 -11.25 -14.65 -12.15 -14.6 -12.95 -14.4 -13.7 -14.0 -14.3 -14.0 -14.35 -12.9 -15.15 -9.95 -15.95 -7.7 -15.95 -6.1 -15.25 -3.35 -14.95 -2.15 -14.6 -1.45 -14.3 1.2 -12.1 2.75 -11.45 5.4 -9.55 6.6 -8.25 7.05 -6.6 6.6 -8.25 M3.85 -10.25 L2.75 -11.45 3.85 -10.25 M2.55 -1.6 L1.9 -3.9 1.6 -4.6 1.45 -4.8 1.15 -5.1 -0.35 -6.05 -0.4 -6.05 -0.75 -6.15 -1.95 -6.6 -2.35 -6.7 -3.35 -7.5 -3.65 -8.15 -3.7 -8.5 -3.75 -8.85 -3.75 -9.6 -3.5 -10.45 -3.1 -11.25 -2.6 -11.85 -2.05 -12.3 -1.35 -12.6 0.05 -12.55 1.2 -12.1 0.05 -12.55 -1.35 -12.6 -2.05 -12.3 -2.6 -11.85 -3.1 -11.25 -3.5 -10.45 -3.75 -9.6 -3.75 -8.85 -3.7 -8.5 -3.65 -8.15 -3.35 -7.5 -2.35 -6.7 -1.95 -6.6 -0.75 -6.15 -0.4 -6.05 -0.35 -6.05 0.65 -5.9 -0.35 -6.05 1.15 -5.1 1.45 -4.8 1.6 -4.6 2.3 -4.05 1.6 -4.6 1.9 -3.9 2.55 -1.6 3.45 -1.7 4.25 -1.65 4.8 -1.55 4.25 -1.65 3.45 -1.7 2.55 -1.6 0.0 -1.35 -1.55 -1.55 -3.45 -1.8 -5.25 -1.2 -3.45 -1.8 -1.55 -1.55 0.0 -1.35 2.55 -1.6 M-11.8 -8.45 L-12.8 -8.35 -12.85 -8.35 -12.8 -8.35 -11.8 -8.45 M-1.7 10.8 L-0.8 8.7 0.2 6.65 2.45 3.65 0.2 6.65 -0.8 8.7 -1.7 10.8 M-1.45 -14.3 L-0.15 -12.85 -1.45 -14.3 M-6.5 -15.2 L-7.7 -15.95 -6.5 -15.2 -6.3 -15.25 -6.1 -15.25 -6.3 -15.25 -6.5 -15.2 -6.85 -15.15 -7.65 -14.9 -8.25 -14.4 -8.7 -13.75 -9.05 -13.0 -9.25 -12.05 -9.25 -11.15 -9.05 -10.35 -8.85 -9.95 -8.75 -9.65 -8.85 -9.95 -9.05 -10.35 -9.25 -11.15 -9.25 -12.05 -9.05 -13.0 -8.7 -13.75 -8.25 -14.4 -7.65 -14.9 -6.85 -15.15 -6.5 -15.2 M-8.95 -6.7 L-9.55 -6.95 -8.95 -6.7 M-9.2 -9.95 L-8.85 -9.95 -9.2 -9.95 M-3.7 -8.5 L-4.6 -8.55 -4.8 -8.55 -5.05 -8.5 -6.7 -8.45 -6.9 -8.5 -6.7 -8.45 -5.05 -8.5 -4.8 -8.55 -4.6 -8.55 -3.7 -8.5 M-12.4 7.45 L-14.4 6.9 -12.4 7.45 M-2.55 -6.15 L-1.9 -5.55 -2.55 -6.15 -1.55 -1.55 -2.55 -6.15 -4.6 -8.55 -2.55 -6.15 M-6.65 -8.3 L-5.95 -7.85 -6.65 -8.3 M-6.25 0.65 L-6.7 0.65 -7.25 0.45 -6.7 0.65 -6.25 0.65 M-9.8 1.7 L-9.95 1.5 -10.15 1.3 -9.95 1.5 -9.8 1.7" fill="#ffffff" fill-rule="evenodd" stroke="none"/>
    <path d="M7.75 0.0 L8.0 -0.2 8.45 -0.75 8.8 -1.45 8.75 -2.8 7.4 -6.75 6.6 -8.25 7.05 -6.6 M6.6 -8.25 L5.4 -9.55 2.75 -11.45 3.85 -10.25 M2.75 -11.45 L1.2 -12.1 0.05 -12.55 -1.35 -12.6 -2.05 -12.3 -2.6 -11.85 -3.1 -11.25 -3.5 -10.45 -3.75 -9.6 -3.75 -8.85 -3.7 -8.5 -3.65 -8.15 -3.35 -7.5 -2.35 -6.7 -1.95 -6.6 -0.75 -6.15 -0.4 -6.05 -0.35 -6.05 0.65 -5.9 M-0.35 -6.05 L1.15 -5.1 1.45 -4.8 1.6 -4.6 2.3 -4.05 M1.6 -4.6 L1.9 -3.9 2.55 -1.6 M-5.25 -1.2 L-6.05 -4.6 -6.35 -7.7 -6.5 -8.05 -6.65 -8.3 -6.9 -8.5 -7.15 -8.5 -8.3 -9.05 -8.75 -9.65 -9.2 -9.95 -9.35 -9.65 -9.75 -9.4 -10.85 -8.95 -11.25 -8.85 -11.8 -8.8 -12.55 -8.9 -13.2 -9.25 -13.75 -9.75 -14.15 -10.4 -14.5 -11.25 -14.65 -12.15 -14.6 -12.95 -14.4 -13.7 -14.0 -14.3 -15.95 -14.1 -17.2 -13.55 -17.7 -12.95 -18.05 -12.3 -18.25 -11.55 -18.25 -10.65 -18.1 -9.8 -17.8 -9.15 -17.35 -8.6 -16.8 -8.2 -15.6 -7.9 -13.1 -8.35 -12.85 -8.35 -12.8 -8.35 -11.8 -8.45 M7.75 0.0 L7.4 0.3 6.75 0.55 M-14.0 -14.3 L-14.0 -14.35 -12.9 -15.15 -9.95 -15.95 -7.7 -15.95 -6.1 -15.25 -3.35 -14.95 -2.15 -14.6 -1.45 -14.3 1.2 -12.1 M-6.1 -15.25 L-6.3 -15.25 -6.5 -15.2 -6.85 -15.15 -7.65 -14.9 -8.25 -14.4 -8.7 -13.75 -9.05 -13.0 -9.25 -12.05 -9.25 -11.15 -9.05 -10.35 -8.85 -9.95 -8.75 -9.65 M-7.7 -15.95 L-6.5 -15.2 M-0.15 -12.85 L-1.45 -14.3 M-12.85 -8.35 L-10.55 -7.4 -9.55 -6.95 -8.95 -6.7 M-9.55 -7.0 L-9.55 -6.95 -9.45 -6.8 -9.3 -6.5 -9.3 -4.65 -8.7 -1.1 -8.45 -0.6 -8.0 0.05 -7.4 0.4 -7.25 0.45 -6.7 0.65 -6.25 0.65 M-10.15 1.3 L-10.55 0.25 -11.35 0.0 -11.15 -0.2 -10.95 -0.55 -10.7 -1.2 -10.6 -1.65 -10.6 -2.15 -10.75 -2.95 -11.25 -3.6 -11.85 -4.1 -12.6 -4.55 -13.6 -4.9 -14.6 -5.1 -15.5 -5.05 -16.25 -4.9 -17.0 -4.55 -17.8 -3.45 -17.95 -2.95 -18.3 -0.35 -16.85 3.85 -14.4 6.9 -12.4 7.45 M-6.9 -8.5 L-6.7 -8.45 -5.05 -8.5 -4.8 -8.55 -4.6 -8.55 -3.7 -8.5 M-8.85 -9.95 L-9.2 -9.95 M-5.95 -7.85 L-6.65 -8.3 M-1.55 -1.55 L-2.55 -6.15 -4.6 -8.55 M-1.9 -5.55 L-2.55 -6.15 M-7.85 1.75 L-7.4 1.9 -6.95 2.2 -6.4 2.8 M-7.85 1.75 L-9.6 1.2 -9.95 1.25 M-10.15 1.3 L-9.95 1.5 -9.8 1.7 M-9.25 8.9 L-8.65 8.85 -7.95 8.45 -7.5 8.0 M-14.4 6.9 L-11.95 8.2 -10.05 8.9 -9.5 8.95 -9.25 8.9" fill="none" stroke="#000000" stroke-linecap="round" stroke-linejoin="round" stroke-width="2.0"/>
    <path d="M2.55 -1.6 L3.45 -1.7 4.25 -1.65 4.8 -1.55 M2.55 -1.6 L0.0 -1.35 -1.55 -1.55 -3.45 -1.8 -5.25 -1.2 M2.45 3.65 L0.2 6.65 -0.8 8.7 -1.7 10.8" fill="none" stroke="#000000" stroke-linecap="round" stroke-linejoin="round" stroke-width="1.0"/>
    <path d="M5.6 16.6 Q6.65 15.1 7.45 7.45 7.95 2.35 7.75 0.0 M-7.25 0.45 L-7.45 1.85 M-9.25 8.9 L-8.15 11.85 Q-6.55 15.9 -5.6 16.6" fill="none" stroke="#000000" stroke-linecap="round" stroke-linejoin="round" stroke-width="3.0"/>
  </g>
</svg>
