<?xml version="1.0" encoding="UTF-8" standalone="no"?>
<svg xmlns:xlink="http://www.w3.org/1999/xlink" height="39.45px" width="26.0px" xmlns="http://www.w3.org/2000/svg">
  <g transform="matrix(1.0, 0.0, 0.0, 1.0, 16.3, 21.35)">
    <path d="M0.6 -9.35 L1.45 -9.3 2.5 -9.2 4.35 -8.35 5.7 -7.15 8.3 -3.7 8.5 -3.2 8.7 -2.35 8.6 -1.65 8.3 -0.95 7.9 -0.3 7.75 -0.15 Q8.0 2.2 7.45 7.45 6.65 15.1 5.6 16.6 5.05 17.4 0.15 17.35 -4.65 17.25 -5.6 16.6 -6.55 15.9 -8.15 11.85 L-9.55 7.9 -9.9 7.9 -10.7 7.75 -11.45 7.45 -12.0 6.8 -12.3 6.35 -12.9 4.4 -13.05 3.65 -13.15 1.4 -12.55 -0.35 -12.4 -0.6 -13.3 -0.85 -14.0 -1.2 -14.6 -1.7 -15.05 -2.3 -15.25 -3.1 -15.3 -3.65 -14.85 -6.75 -13.75 -8.9 -10.5 -11.1 -10.9 -13.8 -11.15 -17.2 -11.15 -17.65 -11.05 -18.2 -10.8 -18.95 -10.3 -19.5 -9.7 -19.95 -9.0 -20.2 -8.15 -20.35 -7.3 -20.35 -6.55 -20.15 -5.9 -19.8 -5.4 -19.3 -4.85 -18.1 -4.65 -14.45 -4.1 -10.65 -3.7 -10.7 -0.05 -9.65 0.2 -9.45 0.35 -9.4 0.35 -9.35 0.6 -9.35 M-2.05 -1.6 L-2.15 -1.8 -2.1 -2.1 -2.1 -2.25 -1.1 -2.7 -0.9 -3.0 -0.55 -3.4 -0.3 -3.8 0.75 -3.55 1.0 -3.45 1.15 -3.3 2.25 -1.55 1.15 -3.3 1.0 -3.45 0.75 -3.55 -0.3 -3.8 -0.55 -3.4 -0.9 -3.0 -1.1 -2.7 -2.1 -2.25 -2.1 -2.1 -2.15 -1.8 -2.05 -1.6 0.0 -1.35 2.25 -1.55 4.25 -1.65 4.8 -1.6 4.25 -1.65 2.25 -1.55 0.0 -1.35 -2.05 -1.6 -2.15 -1.65 -2.05 -1.6 M0.35 -9.35 L-0.65 -9.45 0.35 -9.4 -0.65 -9.45 0.35 -9.35 M5.4 -6.85 L4.35 -8.35 5.4 -6.85 M1.15 -3.3 L1.85 -3.0 1.15 -3.3 M-1.7 10.8 L-0.8 8.7 0.2 6.65 2.45 3.65 0.2 6.65 -0.8 8.7 -1.7 10.8 M-2.15 -1.65 L-2.15 -1.8 -2.15 -1.65 -2.25 -1.1 -2.5 -0.25 -2.9 0.45 -3.4 1.05 -4.15 1.35 -4.6 1.45 -5.05 1.45 -5.75 1.3 -6.1 1.15 -6.0 1.25 -5.75 1.65 -6.2 1.9 -6.6 1.95 -6.2 1.9 -5.75 1.65 -6.0 1.25 -6.1 1.15 -5.75 1.3 -5.05 1.45 -4.6 1.45 -4.15 1.35 -3.4 1.05 -2.9 0.45 -2.5 -0.25 -2.25 -1.1 -2.15 -1.65 M-2.1 -2.25 L-2.15 -3.15 -2.35 -4.0 -2.7 -4.75 -3.2 -5.35 -3.9 -5.75 -4.4 -5.9 -5.45 -5.95 -5.75 -5.95 -7.65 -5.6 -10.95 -2.95 -11.4 -2.6 -12.4 -0.6 -11.4 -2.6 -10.95 -2.95 -11.45 -3.6 -11.75 -4.35 -11.9 -5.1 -11.7 -5.95 -11.5 -6.45 -9.55 -9.0 -7.7 -10.25 -5.15 -10.55 -6.75 -11.65 -8.35 -11.55 -10.45 -11.15 -10.5 -11.1 -10.45 -11.15 -8.35 -11.55 -6.75 -11.65 -5.15 -10.55 -7.7 -10.25 -9.55 -9.0 -11.5 -6.45 -11.7 -5.95 -11.9 -5.1 -11.75 -4.35 -11.45 -3.6 -10.95 -2.95 -7.65 -5.6 -5.75 -5.95 -5.45 -5.95 -5.4 -6.45 -5.45 -5.95 -4.4 -5.9 -3.9 -5.75 -3.2 -5.35 -2.7 -4.75 -2.35 -4.0 -2.15 -3.15 -2.1 -2.25 M0.2 -4.15 L-0.05 -3.95 Q-0.15 -3.85 -0.3 -3.8 -0.15 -3.85 -0.05 -3.95 L0.2 -4.15 M-4.55 -10.6 L-4.1 -10.65 -4.55 -10.6 -5.15 -10.55 -4.55 -10.6 -4.95 -11.0 -5.95 -11.45 -6.75 -11.65 -5.95 -11.45 -4.95 -11.0 -4.55 -10.6 M-5.1 -6.9 L-4.6 -7.75 -3.25 -8.75 -2.15 -9.25 -1.4 -9.5 -0.65 -9.45 -1.4 -9.5 -2.15 -9.25 -3.25 -8.75 -4.6 -7.75 -5.1 -6.9 M-10.3 -12.55 L-10.9 -13.8 -10.3 -12.55 M-4.9 -13.2 L-4.65 -14.45 -4.9 -13.2 M6.8 0.6 L7.25 0.3 7.75 -0.15 7.25 0.3 6.8 0.6 M-12.6 3.55 L-13.15 1.4 -12.6 3.55 M-7.95 7.7 L-8.95 7.9 -9.55 7.9 -8.95 7.9 -7.95 7.7 M-6.3 0.95 L-6.1 1.15 -6.3 0.95" fill="#ffffff" fill-rule="evenodd" stroke="none"/>
    <path d="M1.45 -9.3 L0.35 -9.4 0.35 -9.35 0.6 -9.35 M1.45 -9.3 L2.5 -9.2 4.35 -8.35 5.7 -7.15 8.3 -3.7 8.5 -3.2 8.7 -2.35 8.6 -1.65 8.3 -0.95 7.9 -0.3 7.75 -0.15 7.25 0.3 6.8 0.6 M-9.55 7.9 L-9.9 7.9 -10.7 7.75 -11.45 7.45 -12.0 6.8 -12.3 6.35 -12.9 4.4 -13.05 3.65 -13.15 1.4 -12.55 -0.35 -12.4 -0.6 -13.3 -0.85 -14.0 -1.2 -14.6 -1.7 -15.05 -2.3 -15.25 -3.1 -15.3 -3.65 -14.85 -6.75 -13.75 -8.9 -10.5 -11.1 -10.9 -13.8 -11.15 -17.2 -11.15 -17.65 -11.05 -18.2 -10.8 -18.95 -10.3 -19.5 -9.7 -19.95 -9.0 -20.2 -8.15 -20.35 -7.3 -20.35 -6.55 -20.15 -5.9 -19.8 -5.4 -19.3 -4.85 -18.1 -4.65 -14.45 -4.1 -10.65 -3.7 -10.7 -0.05 -9.65 0.2 -9.45 0.35 -9.4 -0.65 -9.45 0.35 -9.35 M2.25 -1.55 L1.15 -3.3 1.0 -3.45 0.75 -3.55 -0.3 -3.8 -0.55 -3.4 -0.9 -3.0 -1.1 -2.7 -2.1 -2.25 -2.1 -2.1 -2.15 -1.8 -2.05 -1.6 M1.85 -3.0 L1.15 -3.3 M4.35 -8.35 L5.4 -6.85 M-4.65 -14.45 L-4.9 -13.2 M-10.9 -13.8 L-10.3 -12.55 M-12.4 -0.6 L-11.4 -2.6 -10.95 -2.95 -11.45 -3.6 -11.75 -4.35 -11.9 -5.1 -11.7 -5.95 -11.5 -6.45 -9.55 -9.0 -7.7 -10.25 -5.15 -10.55 -6.75 -11.65 -8.35 -11.55 -10.45 -11.15 -10.5 -11.1 M-5.15 -10.55 L-4.55 -10.6 -4.95 -11.0 -5.95 -11.45 -6.75 -11.65 M-0.65 -9.45 L-1.4 -9.5 -2.15 -9.25 -3.25 -8.75 -4.6 -7.75 -5.1 -6.9 M-4.1 -10.65 L-4.55 -10.6 M-10.95 -2.95 L-7.65 -5.6 -5.75 -5.95 -5.45 -5.95 -5.4 -6.45 M-0.3 -3.8 Q-0.15 -3.85 -0.05 -3.95 L0.2 -4.15 M-5.45 -5.95 L-4.4 -5.9 -3.9 -5.75 -3.2 -5.35 -2.7 -4.75 -2.35 -4.0 -2.15 -3.15 -2.1 -2.25 M-2.15 -1.8 L-2.15 -1.65 -2.25 -1.1 -2.5 -0.25 -2.9 0.45 -3.4 1.05 -4.15 1.35 -4.6 1.45 -5.05 1.45 -5.75 1.3 -6.1 1.15 -6.0 1.25 -5.75 1.65 -6.2 1.9 -6.6 1.95 M-6.1 1.15 L-6.3 0.95 M-9.55 7.9 L-8.95 7.9 -7.95 7.7 M-13.15 1.4 L-12.6 3.55" fill="none" stroke="#000000" stroke-linecap="round" stroke-linejoin="round" stroke-width="2.0"/>
    <path d="M-2.05 -1.6 L0.0 -1.35 2.25 -1.55 4.25 -1.65 4.8 -1.6 M2.45 3.65 L0.2 6.65 -0.8 8.7 -1.7 10.8 M-2.15 -1.65 L-2.05 -1.6" fill="none" stroke="#000000" stroke-linecap="round" stroke-linejoin="round" stroke-width="1.0"/>
    <path d="M7.75 -0.15 Q8.0 2.2 7.45 7.45 6.65 15.1 5.6 16.6 M-5.6 16.6 Q-6.55 15.9 -8.15 11.85 L-9.55 7.9" fill="none" stroke="#000000" stroke-linecap="round" stroke-linejoin="round" stroke-width="3.0"/>
  </g>
</svg>
