<?xml version="1.0" encoding="UTF-8" standalone="no"?>
<svg xmlns:xlink="http://www.w3.org/1999/xlink" height="31.45px" width="32.9px" xmlns="http://www.w3.org/2000/svg">
  <g transform="matrix(1.0, 0.0, 0.0, 1.0, 23.15, 13.35)">
    <path d="M5.05 -8.6 L5.7 -8.05 6.45 -7.2 8.55 -3.25 8.7 -2.7 8.75 -1.85 8.55 -1.15 8.15 -0.5 7.75 -0.1 7.6 0.05 6.9 0.5 7.6 0.05 7.75 -0.1 Q8.0 2.25 7.45 7.45 6.65 15.1 5.6 16.6 5.05 17.4 0.15 17.35 -4.65 17.25 -5.6 16.6 -6.55 15.9 -8.15 11.85 L-9.25 8.85 -9.35 8.9 -9.9 8.85 -13.0 7.65 -11.95 7.5 -13.0 7.65 -16.45 7.45 -16.5 7.5 -18.6 8.1 -19.15 8.1 -19.95 7.95 -20.6 7.45 -21.15 6.85 -21.6 6.1 -21.95 5.1 -22.15 4.1 -22.1 3.2 -21.95 2.4 -21.6 1.65 -20.95 1.1 -20.5 0.8 -18.4 0.25 -17.8 0.15 -12.7 0.2 -11.4 0.35 -17.8 0.15 -11.4 0.35 -7.4 1.75 -7.25 0.45 -7.7 0.25 -8.5 -0.75 -8.7 -1.4 -8.35 -1.5 -7.65 -1.8 -7.05 -2.25 -6.6 -2.8 -6.5 -3.0 -6.3 -2.95 -5.85 -3.05 -5.15 -1.2 -5.85 -3.05 -6.3 -2.95 -6.5 -3.0 -6.6 -2.8 -7.05 -2.25 -7.65 -1.8 -8.35 -1.5 -8.7 -1.4 -8.85 -1.4 -9.25 -1.3 -10.15 -1.35 -10.95 -1.6 -11.6 -1.95 -12.15 -2.45 -12.55 -3.2 -12.7 -3.7 -12.8 -6.9 -12.0 -9.35 -10.8 -10.45 -10.6 -10.6 -10.8 -10.45 -12.0 -9.35 -10.3 -10.8 -8.7 -11.95 -6.55 -12.3 -4.9 -12.35 -4.05 -12.1 -3.45 -11.7 -1.4 -11.7 2.25 -10.0 2.55 -9.65 2.6 -9.6 3.05 -9.6 4.25 -9.1 5.05 -8.6 6.15 -7.0 5.05 -8.6 M-15.3 -4.85 L-15.15 -6.15 -14.95 -7.0 -14.0 -8.25 -13.7 -8.55 -12.3 -10.0 -10.6 -10.6 -10.3 -10.8 -12.0 -9.35 -12.8 -6.9 -12.7 -3.7 -12.55 -3.2 -12.15 -2.45 -11.6 -1.95 -10.95 -1.6 -10.15 -1.35 -9.25 -1.3 -8.85 -1.4 -9.2 -0.85 -9.75 -0.4 -10.45 0.0 -11.3 0.2 -12.1 0.2 -12.8 0.0 -13.5 -0.4 -14.05 -1.05 -14.35 -1.5 -14.7 -2.45 -14.35 -1.5 -14.6 -2.05 -14.7 -2.45 -14.95 -3.3 -15.15 -3.85 -15.3 -4.85 -14.95 -3.3 -15.3 -4.85 M2.55 -1.6 L1.85 -3.75 1.8 -4.0 1.75 -4.1 1.0 -4.35 1.0 -3.95 0.85 -3.15 0.6 -2.8 0.15 -2.35 -0.5 -2.2 -1.15 -2.15 -1.65 -2.25 -1.9 -2.3 -2.65 -2.65 -3.35 -3.15 -3.8 -3.75 -4.1 -4.35 -4.15 -4.4 -4.3 -5.15 -4.0 -6.65 -2.95 -8.1 -1.9 -8.95 -1.2 -9.4 2.6 -9.6 -1.2 -9.4 -1.9 -8.95 -2.95 -8.1 -4.0 -6.65 -4.3 -5.15 -4.15 -4.4 -4.1 -4.35 -3.8 -3.75 -3.35 -3.15 -2.65 -2.65 -1.9 -2.3 -1.65 -2.25 -1.15 -2.15 -0.5 -2.2 0.15 -2.35 0.6 -2.8 0.85 -3.15 1.0 -3.95 1.0 -4.35 1.75 -4.1 1.8 -4.0 2.1 -3.85 2.3 -3.7 2.1 -3.85 1.8 -4.0 1.85 -3.75 2.55 -1.6 3.45 -1.7 4.25 -1.65 4.8 -1.55 4.25 -1.65 3.45 -1.7 2.55 -1.6 0.0 -1.35 -1.5 -1.55 -3.45 -1.8 -4.5 -1.5 -5.15 -1.2 -4.5 -1.5 -3.45 -1.8 -1.5 -1.55 0.0 -1.35 2.55 -1.6 M-6.35 0.65 L-7.05 0.55 -7.25 0.45 -7.05 0.55 -6.35 0.65 M-1.65 10.75 L-0.8 8.65 0.2 6.6 2.45 3.65 0.2 6.6 -0.8 8.65 -1.65 10.75 M-14.95 -7.0 L-13.7 -8.55 -14.95 -7.0 M-1.65 -2.25 L-1.5 -1.55 -1.65 -2.25 M-5.85 -3.05 L-5.6 -3.05 -4.9 -3.4 -4.5 -3.7 -4.1 -4.35 -4.5 -3.7 -4.9 -3.4 -5.6 -3.05 -5.85 -3.05 M-3.95 -11.7 L-5.55 -11.7 -7.5 -10.5 -8.15 -9.9 -9.6 -8.05 -10.05 -6.75 -9.95 -6.0 -9.7 -5.25 -9.25 -4.55 -8.6 -3.85 -7.8 -3.35 -7.05 -3.05 -6.5 -3.0 -7.05 -3.05 -7.8 -3.35 -8.6 -3.85 -9.25 -4.55 -9.7 -5.25 -9.95 -6.0 -10.05 -6.75 -9.6 -8.05 -8.15 -9.9 -7.5 -10.5 -5.55 -11.7 -3.95 -11.7 -4.9 -12.35 -3.95 -11.7 -3.45 -11.7 -3.95 -11.7 M-6.35 2.6 L-6.95 2.05 -7.4 1.75 -6.95 2.05 -6.35 2.6 M-7.45 8.05 L-7.85 8.4 -8.55 8.8 -9.25 8.85 -8.55 8.8 -7.85 8.4 -7.45 8.05 M-17.8 0.15 L-16.05 0.5 -17.8 0.15 M-15.75 6.95 L-16.45 7.45 -15.75 6.95 M-10.0 1.35 L-11.4 0.35 -10.0 1.35" fill="#ffffff" fill-rule="evenodd" stroke="none"/>
    <path d="M7.75 -0.1 L8.15 -0.5 8.55 -1.15 8.75 -1.85 8.7 -2.7 8.55 -3.25 6.45 -7.2 5.7 -8.05 5.05 -8.6 6.15 -7.0 M-15.3 -4.85 L-15.15 -6.15 -14.95 -7.0 -14.0 -8.25 -13.7 -8.55 -12.3 -10.0 -10.6 -10.6 -10.3 -10.8 -8.7 -11.95 -6.55 -12.3 -4.9 -12.35 -4.05 -12.1 -3.45 -11.7 -1.4 -11.7 2.25 -10.0 2.55 -9.65 2.6 -9.6 3.05 -9.6 4.25 -9.1 5.05 -8.6 M2.6 -9.6 L-1.2 -9.4 -1.9 -8.95 -2.95 -8.1 -4.0 -6.65 -4.3 -5.15 -4.15 -4.4 -4.1 -4.35 -3.8 -3.75 -3.35 -3.15 -2.65 -2.65 -1.9 -2.3 -1.65 -2.25 -1.15 -2.15 -0.5 -2.2 0.15 -2.35 0.6 -2.8 0.85 -3.15 1.0 -3.95 1.0 -4.35 1.75 -4.1 1.8 -4.0 2.1 -3.85 2.3 -3.7 M1.8 -4.0 L1.85 -3.75 2.55 -1.6 M-5.15 -1.2 L-5.85 -3.05 -6.3 -2.95 -6.5 -3.0 -6.6 -2.8 -7.05 -2.25 -7.65 -1.8 -8.35 -1.5 -8.7 -1.4 -8.5 -0.75 -7.7 0.25 -7.25 0.45 -7.05 0.55 -6.35 0.65 M7.75 -0.1 L7.6 0.05 6.9 0.5 M-10.6 -10.6 L-10.8 -10.45 -12.0 -9.35 -10.3 -10.8 M-13.7 -8.55 L-14.95 -7.0 M-12.0 -9.35 L-12.8 -6.9 -12.7 -3.7 -12.55 -3.2 -12.15 -2.45 -11.6 -1.95 -10.95 -1.6 -10.15 -1.35 -9.25 -1.3 -8.85 -1.4 -8.7 -1.4 M-14.95 -3.3 L-15.3 -4.85 M-14.35 -1.5 L-14.7 -2.45 M-14.35 -1.5 L-14.05 -1.05 -13.5 -0.4 -12.8 0.0 -12.1 0.2 -11.3 0.2 -10.45 0.0 -9.75 -0.4 -9.2 -0.85 -8.85 -1.4 M-14.95 -3.3 L-14.9 -2.9 -14.7 -2.45 M-4.9 -12.35 L-3.95 -11.7 -3.45 -11.7 M-6.5 -3.0 L-7.05 -3.05 -7.8 -3.35 -8.6 -3.85 -9.25 -4.55 -9.7 -5.25 -9.95 -6.0 -10.05 -6.75 -9.6 -8.05 -8.15 -9.9 -7.5 -10.5 -5.55 -11.7 -3.95 -11.7 M-4.1 -4.35 L-4.5 -3.7 -4.9 -3.4 -5.6 -3.05 -5.85 -3.05 M-1.5 -1.55 L-1.65 -2.25 M-7.4 1.75 L-6.95 2.05 -6.35 2.6 M-13.0 7.65 L-9.9 8.85 -9.35 8.9 -9.25 8.85 -8.55 8.8 -7.85 8.4 -7.45 8.05 M-17.8 0.15 L-11.4 0.35 -7.4 1.75 M-16.05 0.5 L-17.8 0.15 -18.4 0.25 -20.5 0.8 -20.95 1.1 -21.6 1.65 -21.95 2.4 -22.1 3.2 -22.15 4.1 -21.95 5.1 -21.6 6.1 -21.15 6.85 -20.6 7.45 -19.95 7.95 -19.15 8.1 -18.6 8.1 -16.5 7.5 -16.45 7.45 -15.75 6.95 M-13.0 7.65 L-11.95 7.5 M-16.45 7.45 L-13.0 7.65 M-11.4 0.35 L-10.0 1.35" fill="none" stroke="#000000" stroke-linecap="round" stroke-linejoin="round" stroke-width="2.0"/>
    <path d="M2.55 -1.6 L3.45 -1.7 4.25 -1.65 4.8 -1.55 M2.55 -1.6 L0.0 -1.35 -1.5 -1.55 -3.45 -1.8 -4.5 -1.5 -5.15 -1.2 M2.45 3.65 L0.2 6.6 -0.8 8.65 -1.65 10.75" fill="none" stroke="#000000" stroke-linecap="round" stroke-linejoin="round" stroke-width="1.0"/>
    <path d="M5.6 16.6 Q6.65 15.1 7.45 7.45 8.0 2.25 7.75 -0.1 M-7.25 0.45 L-7.4 1.75 M-9.25 8.85 L-8.15 11.85 Q-6.55 15.9 -5.6 16.6" fill="none" stroke="#000000" stroke-linecap="round" stroke-linejoin="round" stroke-width="3.0"/>
  </g>
</svg>
