<?xml version="1.0" encoding="UTF-8" standalone="no"?>
<svg xmlns:xlink="http://www.w3.org/1999/xlink" height="31.45px" width="26.05px" xmlns="http://www.w3.org/2000/svg">
  <g transform="matrix(1.0, 0.0, 0.0, 1.0, 16.3, 13.35)">
    <path d="M5.05 -8.6 L5.7 -8.05 6.45 -7.2 8.55 -3.25 8.7 -2.7 8.75 -1.85 8.55 -1.15 8.15 -0.5 7.75 -0.1 7.6 0.05 6.9 0.5 7.6 0.05 7.75 -0.1 Q8.0 2.25 7.45 7.45 6.65 15.1 5.6 16.6 5.05 17.4 0.15 17.35 -4.65 17.25 -5.6 16.6 -6.55 15.9 -8.15 11.85 L-9.5 8.05 -9.45 8.05 -8.55 7.9 -7.75 7.6 -8.55 7.9 -9.45 8.05 -9.5 8.05 -10.25 8.05 -11.05 7.85 -12.1 6.9 -13.0 5.05 -13.25 4.35 -13.45 1.85 -12.8 4.1 -13.45 1.85 -12.75 0.0 -12.8 0.0 -13.5 -0.4 -14.05 -1.05 -14.35 -1.5 -14.7 -2.45 -14.35 -1.5 -14.6 -2.05 -14.7 -2.45 -14.95 -3.3 -15.15 -3.85 -15.3 -4.85 -14.95 -3.3 -15.3 -4.85 -15.15 -6.15 -14.95 -7.0 -14.0 -8.25 -13.7 -8.55 -12.3 -10.0 -10.6 -10.6 -10.3 -10.8 -8.7 -11.95 -6.55 -12.3 -4.9 -12.35 -4.05 -12.1 -3.45 -11.7 -1.4 -11.7 2.25 -10.0 2.55 -9.65 2.6 -9.6 3.05 -9.6 4.25 -9.1 5.05 -8.6 6.15 -7.0 5.05 -8.6 M2.55 -1.6 L1.85 -3.75 1.8 -4.0 1.75 -4.1 1.0 -4.35 1.0 -3.95 0.85 -3.15 0.6 -2.8 0.15 -2.35 -0.5 -2.2 -1.15 -2.15 -1.65 -2.25 -1.9 -2.3 -2.15 -2.45 -2.4 -3.4 -2.8 -4.2 -3.3 -4.85 -3.85 -5.4 -4.25 -5.55 -4.0 -6.65 -2.95 -8.1 -1.9 -8.95 -1.2 -9.4 2.6 -9.6 -1.2 -9.4 -1.9 -8.95 -2.95 -8.1 -4.0 -6.65 -4.25 -5.55 -3.85 -5.4 -3.3 -4.85 -2.8 -4.2 -2.4 -3.4 -2.15 -2.45 -1.9 -2.3 -1.65 -2.25 -1.15 -2.15 -0.5 -2.2 0.15 -2.35 0.6 -2.8 0.85 -3.15 1.0 -3.95 1.0 -4.35 1.75 -4.1 1.8 -4.0 2.1 -3.85 2.3 -3.7 2.1 -3.85 1.8 -4.0 1.85 -3.75 2.55 -1.6 3.45 -1.7 4.25 -1.65 4.8 -1.55 4.25 -1.65 3.45 -1.7 2.55 -1.6 0.0 -1.35 -1.5 -1.55 -2.1 -1.65 -1.5 -1.55 0.0 -1.35 2.55 -1.6 M-7.45 2.1 L-6.95 2.35 -6.3 2.45 -6.05 2.05 -5.9 1.65 -5.15 1.75 -4.0 1.65 -3.5 1.4 -2.85 0.95 -2.45 0.25 -2.2 -0.5 -2.1 -1.4 -2.1 -1.65 -2.1 -1.4 -2.2 -0.5 -2.45 0.25 -2.85 0.95 -3.5 1.4 -4.0 1.65 -5.15 1.75 -5.9 1.65 -6.05 2.05 -6.3 2.45 -6.95 2.35 -7.45 2.1 -7.55 2.15 -7.5 2.3 -7.45 2.1 M-1.7 10.8 L-0.8 8.7 0.2 6.65 2.45 3.65 0.2 6.65 -0.8 8.7 -1.7 10.8 M-4.9 -12.35 L-3.95 -11.7 -5.5 -11.7 -7.5 -10.5 -8.15 -9.9 -9.6 -8.05 -10.05 -6.75 -9.95 -6.0 -9.7 -5.25 -9.1 -4.4 -9.55 -4.1 -11.5 -2.4 -11.7 -2.05 -12.15 -2.45 -12.55 -3.2 -12.7 -3.7 -12.8 -6.9 -12.0 -9.35 -10.8 -10.45 -10.6 -10.6 -10.8 -10.45 -12.0 -9.35 -10.3 -10.8 -12.0 -9.35 -12.8 -6.9 -12.7 -3.7 -12.55 -3.2 -12.15 -2.45 -11.7 -2.05 -11.5 -2.4 -9.55 -4.1 -9.1 -4.4 -9.7 -5.25 -9.95 -6.0 -10.05 -6.75 -9.6 -8.05 -8.15 -9.9 -7.5 -10.5 -5.5 -11.7 -3.95 -11.7 -4.9 -12.35 M-14.95 -7.0 L-13.7 -8.55 -14.95 -7.0 M-11.7 -2.05 L-12.75 0.0 -11.7 -2.05 M-1.65 -2.25 L-1.5 -1.55 -1.65 -2.25 M-2.15 -2.45 L-2.15 -2.4 -2.1 -1.65 -2.15 -2.4 -2.15 -2.45 M-9.1 -4.4 L-8.15 -5.0 -6.5 -5.5 -5.15 -5.7 -4.65 -5.65 -4.25 -5.55 -4.65 -5.65 -5.15 -5.7 -6.5 -5.5 -8.15 -5.0 -9.85 -3.4 -8.15 -5.0 -9.1 -4.4 M-3.45 -11.7 L-3.95 -11.7 -3.45 -11.7" fill="#ffffff" fill-rule="evenodd" stroke="none"/>
    <path d="M7.75 -0.1 L8.15 -0.5 8.55 -1.15 8.75 -1.85 8.7 -2.7 8.55 -3.25 6.45 -7.2 5.7 -8.05 5.05 -8.6 6.15 -7.0 M-15.3 -4.85 L-15.15 -6.15 -14.95 -7.0 -14.0 -8.25 -13.7 -8.55 -12.3 -10.0 -10.6 -10.6 -10.3 -10.8 -8.7 -11.95 -6.55 -12.3 -4.9 -12.35 -4.05 -12.1 -3.45 -11.7 -1.4 -11.7 2.25 -10.0 2.55 -9.65 2.6 -9.6 3.05 -9.6 4.25 -9.1 5.05 -8.6 M2.6 -9.6 L-1.2 -9.4 -1.9 -8.95 -2.95 -8.1 -4.0 -6.65 -4.25 -5.55 -3.85 -5.4 -3.3 -4.85 -2.8 -4.2 -2.4 -3.4 -2.15 -2.45 -1.9 -2.3 -1.65 -2.25 -1.15 -2.15 -0.5 -2.2 0.15 -2.35 0.6 -2.8 0.85 -3.15 1.0 -3.95 1.0 -4.35 1.75 -4.1 1.8 -4.0 2.1 -3.85 2.3 -3.7 M1.8 -4.0 L1.85 -3.75 2.55 -1.6 M-2.1 -1.65 L-2.1 -1.4 -2.2 -0.5 -2.45 0.25 -2.85 0.95 -3.5 1.4 -4.0 1.65 -5.15 1.75 -5.9 1.65 -6.05 2.05 -6.3 2.45 -6.95 2.35 -7.45 2.1 M7.75 -0.1 L7.6 0.05 6.9 0.5 M-10.6 -10.6 L-10.8 -10.45 -12.0 -9.35 -10.3 -10.8 M-13.7 -8.55 L-14.95 -7.0 M-12.0 -9.35 L-12.8 -6.9 -12.7 -3.7 -12.55 -3.2 -12.15 -2.45 -11.7 -2.05 -11.5 -2.4 -9.55 -4.1 -9.1 -4.4 -9.7 -5.25 -9.95 -6.0 -10.05 -6.75 -9.6 -8.05 -8.15 -9.9 -7.5 -10.5 -5.5 -11.7 -3.95 -11.7 -4.9 -12.35 M-14.95 -3.3 L-15.3 -4.85 M-14.7 -2.45 L-14.35 -1.5 -14.05 -1.05 -13.5 -0.4 -12.8 0.0 -12.75 0.0 -11.7 -2.05 M-14.7 -2.45 L-14.9 -2.9 -14.95 -3.3 M-3.95 -11.7 L-3.45 -11.7 M-4.25 -5.55 L-4.65 -5.65 -5.15 -5.7 -6.5 -5.5 -8.15 -5.0 -9.85 -3.4 M-8.15 -5.0 L-9.1 -4.4 M-2.1 -1.65 L-2.15 -2.4 -2.15 -2.45 M-1.5 -1.55 L-1.65 -2.25 M-9.5 8.05 L-9.45 8.05 -8.55 7.9 -7.75 7.6 M-13.45 1.85 L-12.8 4.1 M-13.45 1.85 L-13.25 4.35 -13.0 5.05 -12.1 6.9 -11.05 7.85 -10.25 8.05 -9.5 8.05 M-12.75 0.0 L-13.45 1.85" fill="none" stroke="#000000" stroke-linecap="round" stroke-linejoin="round" stroke-width="2.0"/>
    <path d="M2.55 -1.6 L3.45 -1.7 4.25 -1.65 4.8 -1.55 M2.55 -1.6 L0.0 -1.35 -1.5 -1.55 -2.1 -1.65 M2.45 3.65 L0.2 6.65 -0.8 8.7 -1.7 10.8" fill="none" stroke="#000000" stroke-linecap="round" stroke-linejoin="round" stroke-width="1.0"/>
    <path d="M-7.45 2.1 L-7.5 2.3 M5.6 16.6 Q6.65 15.1 7.45 7.45 8.0 2.25 7.75 -0.1 M-9.5 8.05 L-8.15 11.85 Q-6.55 15.9 -5.6 16.6" fill="none" stroke="#000000" stroke-linecap="round" stroke-linejoin="round" stroke-width="3.0"/>
  </g>
</svg>
