<?xml version="1.0" encoding="UTF-8" standalone="no"?>
<svg xmlns:xlink="http://www.w3.org/1999/xlink" height="336.95px" width="152.95px" xmlns="http://www.w3.org/2000/svg">
  <g transform="matrix(1.0, 0.0, 0.0, 1.0, -405.5, -200.2)">
    <path d="M558.45 200.2 L558.45 537.15 405.5 537.15 405.5 200.2 558.45 200.2" fill="#ffffff" fill-opacity="0.0" fill-rule="evenodd" stroke="none"/>
    <path d="M482.75 310.1 L482.8 320.05 482.75 330.0 482.7 329.9 482.6 329.75 481.4 342.45 480.35 355.1 479.8 367.35 479.5 379.55 479.4 390.0 479.45 400.45 479.75 412.4 480.0 420.0" fill="none" stroke="#000000" stroke-linecap="round" stroke-linejoin="round" stroke-width="4.0"/>
    <path d="M468.8 509.7 L469.0 485.15 469.4 460.6 469.8 435.8 470.1 420.1 480.0 420.0" fill="none" stroke="#000000" stroke-linecap="round" stroke-linejoin="round" stroke-width="4.0"/>
    <path d="M480.0 420.0 L489.05 418.55 494.75 417.65 494.9 433.2 495.05 457.7 495.15 482.15 495.4 506.55 495.65 507.2 495.9 507.55 501.0 507.55 509.1 507.55 516.6 507.55 524.15 507.55" fill="none" stroke="#000000" stroke-linecap="round" stroke-linejoin="round" stroke-width="4.0"/>
    <path d="M497.65 513.1 L490.3 512.4 482.8 511.65 474.9 511.05 470.05 510.5 468.8 509.7" fill="none" stroke="#000000" stroke-linecap="round" stroke-linejoin="round" stroke-width="4.0"/>
    <path d="M482.8 270.0 L532.8 270.0 Q532.8 290.75 518.15 305.4 503.55 320.0 482.8 320.0 462.05 320.0 447.4 305.4 432.8 290.75 432.8 270.0 L482.8 270.0" fill="#ffffff" fill-rule="evenodd" stroke="none"/>
    <path d="M532.8 270.0 Q532.8 290.75 518.15 305.4 503.55 320.0 482.8 320.0 462.05 320.0 447.4 305.4 432.8 290.75 432.8 270.0" fill="none" stroke="#000000" stroke-linecap="round" stroke-linejoin="round" stroke-width="4.0"/>
    <path d="M482.8 220.0 Q493.4 220.0 503.05 224.25 511.6 228.05 518.15 234.6 524.75 241.2 528.5 249.75 532.8 259.35 532.8 270.0 L482.8 270.0 432.8 270.0 Q432.8 259.35 437.05 249.75 440.85 241.2 447.4 234.6 453.95 228.05 462.5 224.25 472.15 220.0 482.8 220.0" fill="#ffffff" fill-rule="evenodd" stroke="none"/>
    <path d="M432.8 270.0 Q432.8 259.35 437.05 249.75 440.85 241.2 447.4 234.6 453.95 228.05 462.5 224.25 472.15 220.0 482.8 220.0 493.4 220.0 503.05 224.25 511.6 228.05 518.15 234.6 524.75 241.2 528.5 249.75 532.8 259.35 532.8 270.0" fill="none" stroke="#000000" stroke-linecap="round" stroke-linejoin="round" stroke-width="4.0"/>
    <path d="M487.25 266.65 Q487.75 268.25 487.75 270.0 487.75 271.75 487.25 273.4 L486.1 276.1 484.2 278.55 481.75 280.45 479.0 281.65 475.65 282.1 472.3 281.65 469.55 280.45 467.15 278.55 Q465.9 277.3 465.2 276.1 464.45 274.75 464.05 273.4 463.55 271.75 463.55 270.0 463.55 268.25 464.05 266.65 464.45 265.25 465.2 263.9 465.9 262.7 467.15 261.5 468.35 260.25 469.55 259.6 470.9 258.8 472.3 258.4 L475.65 257.95 479.0 258.4 Q480.4 258.8 481.75 259.6 L484.2 261.5 486.1 263.9 Q486.85 265.25 487.25 266.65" fill="#ffffff" fill-rule="evenodd" stroke="none"/>
    <path d="M487.25 266.65 Q487.75 268.25 487.75 270.0 487.75 271.75 487.25 273.4 L486.1 276.1 484.2 278.55 481.75 280.45 479.0 281.65 475.65 282.1 472.3 281.65 469.55 280.45 467.15 278.55 Q465.9 277.3 465.2 276.1 464.45 274.75 464.05 273.4 463.55 271.75 463.55 270.0 463.55 268.25 464.05 266.65 464.45 265.25 465.2 263.9 465.9 262.7 467.15 261.5 468.35 260.25 469.55 259.6 470.9 258.8 472.3 258.4 L475.65 257.95 479.0 258.4 Q480.4 258.8 481.75 259.6 L484.2 261.5 486.1 263.9 Q486.85 265.25 487.25 266.65 Z" fill="none" stroke="#000000" stroke-linecap="round" stroke-linejoin="round" stroke-width="3.0"/>
    <path d="M525.05 266.65 Q525.55 268.25 525.55 270.0 525.55 271.75 525.05 273.4 L523.95 276.1 522.05 278.55 519.75 280.45 517.1 281.65 513.85 282.1 510.6 281.65 507.95 280.45 Q506.8 279.75 505.6 278.55 504.45 277.3 503.75 276.1 503.05 274.75 502.65 273.4 502.15 271.75 502.15 270.0 502.15 268.25 502.65 266.65 503.05 265.25 503.75 263.9 L505.6 261.5 Q506.8 260.25 507.95 259.6 509.25 258.8 510.6 258.4 L513.85 257.95 517.1 258.4 Q518.45 258.8 519.75 259.6 520.9 260.25 522.05 261.5 L523.95 263.9 525.05 266.65" fill="#ffffff" fill-rule="evenodd" stroke="none"/>
    <path d="M525.05 266.65 Q525.55 268.25 525.55 270.0 525.55 271.75 525.05 273.4 L523.95 276.1 522.05 278.55 519.75 280.45 517.1 281.65 513.85 282.1 510.6 281.65 507.95 280.45 Q506.8 279.75 505.6 278.55 504.45 277.3 503.75 276.1 503.05 274.75 502.65 273.4 502.15 271.75 502.15 270.0 502.15 268.25 502.65 266.65 503.05 265.25 503.75 263.9 L505.6 261.5 Q506.8 260.25 507.95 259.6 509.25 258.8 510.6 258.4 L513.85 257.95 517.1 258.4 Q518.45 258.8 519.75 259.6 520.9 260.25 522.05 261.5 L523.95 263.9 525.05 266.65 Z" fill="none" stroke="#000000" stroke-linecap="round" stroke-linejoin="round" stroke-width="3.0"/>
  </g>
</svg>
