<?xml version="1.0" encoding="UTF-8" standalone="no"?>
<svg xmlns:xlink="http://www.w3.org/1999/xlink" height="109.3px" width="80.3px" xmlns="http://www.w3.org/2000/svg">
  <g transform="matrix(1.0, 0.0, 0.0, 1.0, -441.85, -328.0)">
    <path d="M451.1 420.2 L451.0 400.25 450.95 380.3 450.95 355.7 450.95 340.15 484.15 330.0 512.85 340.0 512.85 355.6 512.8 380.3 512.85 400.3 512.85 420.35" fill="none" stroke="#000000" stroke-linecap="round" stroke-linejoin="round" stroke-width="4.0"/>
    <path d="M451.15 419.15 Q454.25 419.1 456.3 421.55 458.3 423.9 458.3 427.15 458.3 430.45 456.35 432.8 454.25 435.3 451.2 435.3 448.05 435.3 445.9 432.9 443.85 430.5 443.85 427.25 443.85 423.95 445.9 421.6 448.0 419.15 451.15 419.15" fill="#ffffff" fill-rule="evenodd" stroke="none"/>
    <path d="M451.15 419.15 Q454.25 419.1 456.3 421.55 458.3 423.9 458.3 427.15 458.3 430.45 456.35 432.8 454.25 435.3 451.2 435.3 448.05 435.3 445.9 432.9 443.85 430.5 443.85 427.25 443.85 423.95 445.9 421.6 448.0 419.15 451.15 419.15 Z" fill="none" stroke="#000000" stroke-linecap="round" stroke-linejoin="round" stroke-width="4.0"/>
    <path d="M513.3 418.8 Q516.45 419.05 518.45 421.6 520.4 424.1 520.1 427.35 519.75 430.7 517.4 432.9 515.0 435.15 511.75 434.95 508.8 434.75 507.05 432.1 505.4 429.6 505.75 426.4 506.05 423.15 508.1 420.95 510.25 418.65 513.3 418.8" fill="#ffffff" fill-rule="evenodd" stroke="none"/>
    <path d="M513.3 418.8 Q516.45 419.05 518.45 421.6 520.4 424.1 520.1 427.35 519.75 430.7 517.4 432.9 515.0 435.15 511.75 434.95 508.8 434.75 507.05 432.1 505.4 429.6 505.75 426.4 506.05 423.15 508.1 420.95 510.25 418.65 513.3 418.8 Z" fill="none" stroke="#000000" stroke-linecap="round" stroke-linejoin="round" stroke-width="4.0"/>
  </g>
</svg>
