<?xml version="1.0" encoding="UTF-8" standalone="no"?>
<svg xmlns:xlink="http://www.w3.org/1999/xlink" height="83.65px" width="116.05px" xmlns="http://www.w3.org/2000/svg">
  <g transform="matrix(1.0, 0.0, 0.0, 1.0, -431.15, -328.0)">
    <path d="M463.3 399.35 Q455.25 393.55 445.6 387.6 434.45 380.05 433.25 372.95 432.05 365.5 442.5 351.1 449.8 341.1 453.25 338.2 L484.15 330.0 512.8 340.0 Q510.15 343.15 502.65 353.9 493.0 369.15 495.5 376.25 497.9 383.1 511.0 387.25 522.25 390.3 531.7 393.65" fill="none" stroke="#000000" stroke-linecap="round" stroke-linejoin="round" stroke-width="4.0"/>
    <path d="M462.45 398.7 Q463.85 396.2 466.8 395.75 469.45 395.4 472.5 396.6 475.3 397.7 476.8 399.9 478.5 402.35 477.25 404.6 475.5 407.8 472.3 409.05 469.05 410.25 465.7 408.95 462.8 407.8 461.85 404.6 460.9 401.5 462.45 398.7" fill="#ffffff" fill-rule="evenodd" stroke="none"/>
    <path d="M462.45 398.7 Q463.85 396.2 466.8 395.75 469.45 395.4 472.5 396.6 475.3 397.7 476.8 399.9 478.5 402.35 477.25 404.6 475.5 407.8 472.3 409.05 469.05 410.25 465.7 408.95 462.8 407.8 461.85 404.6 460.9 401.5 462.45 398.7 Z" fill="none" stroke="#000000" stroke-linecap="round" stroke-linejoin="round" stroke-width="4.0"/>
    <path d="M544.9 395.65 Q545.75 398.85 544.05 401.65 542.5 404.15 539.35 404.4 536.4 404.6 533.75 402.85 531.0 401.0 530.0 398.2 528.95 395.2 530.5 392.6 532.15 389.9 535.35 389.35 538.5 388.8 541.2 390.6 544.05 392.5 544.9 395.65" fill="#ffffff" fill-rule="evenodd" stroke="none"/>
    <path d="M544.9 395.65 Q545.75 398.85 544.05 401.65 542.5 404.15 539.35 404.4 536.4 404.6 533.75 402.85 531.0 401.0 530.0 398.2 528.95 395.2 530.5 392.6 532.15 389.9 535.35 389.35 538.5 388.8 541.2 390.6 544.05 392.5 544.9 395.65 Z" fill="none" stroke="#000000" stroke-linecap="round" stroke-linejoin="round" stroke-width="4.0"/>
  </g>
</svg>
