<?xml version="1.0" encoding="UTF-8" standalone="no"?>
<svg xmlns:xlink="http://www.w3.org/1999/xlink" height="54.9px" width="106.65px" xmlns="http://www.w3.org/2000/svg">
  <g transform="matrix(1.0, 0.0, 0.0, 1.0, -440.85, -328.0)">
    <path d="M483.25 364.5 Q474.2 369.5 464.0 376.3 451.75 383.7 446.05 379.25 440.15 374.6 445.2 356.65 449.2 342.6 451.5 339.6 L484.15 330.0 512.8 340.0 Q509.55 343.4 500.9 354.6 490.0 370.25 494.95 375.95 499.75 381.4 512.7 374.4 523.6 367.85 533.1 363.25" fill="none" stroke="#000000" stroke-linecap="round" stroke-linejoin="round" stroke-width="4.0"/>
    <path d="M483.95 355.2 Q485.85 352.9 488.15 352.05 490.85 351.0 492.4 352.85 494.85 355.8 495.0 359.25 495.15 362.85 492.8 365.75 490.9 368.05 487.6 367.7 484.4 367.4 482.35 365.0 480.6 362.9 481.3 360.1 481.85 357.75 483.95 355.2" fill="#ffffff" fill-rule="evenodd" stroke="none"/>
    <path d="M483.95 355.2 Q485.85 352.9 488.15 352.05 490.85 351.0 492.4 352.85 494.85 355.8 495.0 359.25 495.15 362.85 492.8 365.75 490.9 368.05 487.6 367.7 484.4 367.4 482.35 365.0 480.6 362.9 481.3 360.1 481.85 357.75 483.95 355.2 Z" fill="none" stroke="#000000" stroke-linecap="round" stroke-linejoin="round" stroke-width="4.0"/>
    <path d="M531.6 363.55 Q530.15 361.15 531.3 358.35 532.3 356.0 534.95 353.9 537.25 352.0 539.8 351.7 542.75 351.4 544.0 353.5 545.9 356.65 545.4 360.05 544.9 363.5 542.1 365.75 539.7 367.7 536.45 367.0 533.25 366.3 531.6 363.55" fill="#ffffff" fill-rule="evenodd" stroke="none"/>
    <path d="M531.6 363.55 Q530.15 361.15 531.3 358.35 532.3 356.0 534.95 353.9 537.25 352.0 539.8 351.7 542.75 351.4 544.0 353.5 545.9 356.65 545.4 360.05 544.9 363.5 542.1 365.75 539.7 367.7 536.45 367.0 533.25 366.3 531.6 363.55 Z" fill="none" stroke="#000000" stroke-linecap="round" stroke-linejoin="round" stroke-width="4.0"/>
  </g>
</svg>
