<?xml version="1.0" encoding="UTF-8" standalone="no"?>
<svg xmlns:xlink="http://www.w3.org/1999/xlink" height="84.45px" width="152.55px" xmlns="http://www.w3.org/2000/svg">
  <g transform="matrix(1.0, 0.0, 0.0, 1.0, -404.05, -253.9)">
    <path d="M544.3 269.85 L533.4 286.65 522.35 303.4 508.3 323.6 499.25 336.35 484.15 330.0 463.95 336.0 453.4 324.6 Q441.95 312.0 437.5 305.9 433.25 300.1 426.9 289.05 L416.9 271.75" fill="none" stroke="#000000" stroke-linecap="round" stroke-linejoin="round" stroke-width="4.0"/>
    <path d="M417.35 272.65 Q414.6 274.15 411.55 273.1 408.5 272.05 407.05 269.15 405.5 266.2 406.3 263.05 407.15 259.9 410.0 258.35 412.65 256.9 415.55 258.15 418.3 259.4 419.8 262.25 421.3 265.15 420.7 268.1 420.05 271.2 417.35 272.65" fill="#ffffff" fill-rule="evenodd" stroke="none"/>
    <path d="M417.35 272.65 Q414.6 274.15 411.55 273.1 408.5 272.05 407.05 269.15 405.5 266.2 406.3 263.05 407.15 259.9 410.0 258.35 412.65 256.9 415.55 258.15 418.3 259.4 419.8 262.25 421.3 265.15 420.7 268.1 420.05 271.2 417.35 272.65 Z" fill="none" stroke="#000000" stroke-linecap="round" stroke-linejoin="round" stroke-width="4.0"/>
    <path d="M543.15 270.95 Q540.55 269.45 540.05 266.3 539.6 263.4 541.1 260.5 542.6 257.7 545.3 256.5 548.15 255.25 550.7 256.7 553.55 258.35 554.35 261.55 555.15 264.7 553.55 267.65 552.05 270.5 549.0 271.5 545.9 272.5 543.15 270.95" fill="#ffffff" fill-rule="evenodd" stroke="none"/>
    <path d="M543.15 270.95 Q540.55 269.45 540.05 266.3 539.6 263.4 541.1 260.5 542.6 257.7 545.3 256.5 548.15 255.25 550.7 256.7 553.55 258.35 554.35 261.55 555.15 264.7 553.55 267.65 552.05 270.5 549.0 271.5 545.9 272.5 543.15 270.95 Z" fill="none" stroke="#000000" stroke-linecap="round" stroke-linejoin="round" stroke-width="4.0"/>
  </g>
</svg>
