<?xml version="1.0" encoding="UTF-8" standalone="no"?>
<svg xmlns:xlink="http://www.w3.org/1999/xlink" height="38.05px" width="153.1px" xmlns="http://www.w3.org/2000/svg">
  <g transform="matrix(1.0, 0.0, 0.0, 1.0, -449.15, -328.0)">
    <path d="M528.2 356.0 Q518.7 356.1 508.15 356.5 495.35 356.8 488.25 355.35 480.9 353.8 465.3 346.85 L451.15 340.15 484.15 330.0 505.75 336.15 521.1 339.2 Q537.95 342.35 545.45 343.0 552.7 343.65 565.5 343.55 L585.55 343.4" fill="none" stroke="#000000" stroke-linecap="round" stroke-linejoin="round" stroke-width="4.0"/>
    <path d="M527.15 355.85 Q527.5 352.8 530.15 350.9 532.7 349.1 535.85 349.6 539.2 350.2 541.25 352.7 543.35 355.25 543.0 358.55 542.65 361.45 539.9 363.0 537.35 364.45 534.2 363.9 531.0 363.35 528.95 361.2 526.85 358.9 527.15 355.85" fill="#ffffff" fill-rule="evenodd" stroke="none"/>
    <path d="M527.15 355.85 Q527.5 352.8 530.15 350.9 532.7 349.1 535.85 349.6 539.2 350.2 541.25 352.7 543.35 355.25 543.0 358.55 542.65 361.45 539.9 363.0 537.35 364.45 534.2 363.9 531.0 363.35 528.95 361.2 526.85 358.9 527.15 355.85 Z" fill="none" stroke="#000000" stroke-linecap="round" stroke-linejoin="round" stroke-width="4.0"/>
    <path d="M600.25 343.5 Q600.2 346.6 597.65 348.6 595.2 350.55 591.95 350.45 588.65 350.35 586.35 348.25 583.95 346.1 584.0 343.0 584.1 339.9 586.65 337.85 589.05 335.95 592.35 336.05 595.65 336.15 597.95 338.25 600.35 340.4 600.25 343.5" fill="#ffffff" fill-rule="evenodd" stroke="none"/>
    <path d="M600.25 343.5 Q600.2 346.6 597.65 348.6 595.2 350.55 591.95 350.45 588.65 350.35 586.35 348.25 583.95 346.1 584.0 343.0 584.1 339.9 586.65 337.85 589.05 335.95 592.35 336.05 595.65 336.15 597.95 338.25 600.35 340.4 600.25 343.5 Z" fill="none" stroke="#000000" stroke-linecap="round" stroke-linejoin="round" stroke-width="4.0"/>
  </g>
</svg>
