<?xml version="1.0" encoding="UTF-8" standalone="no"?>
<svg xmlns:xlink="http://www.w3.org/1999/xlink" height="79.05px" width="136.9px" xmlns="http://www.w3.org/2000/svg">
  <g transform="matrix(1.0, 0.0, 0.0, 1.0, -449.1, -328.0)">
    <path d="M512.35 391.6 L497.35 378.45 482.25 365.45 463.25 349.9 451.1 340.15 484.15 330.0 508.3 336.95 521.0 346.05 540.85 360.7 Q546.6 365.15 556.4 373.35 L571.8 386.2" fill="none" stroke="#000000" stroke-linecap="round" stroke-linejoin="round" stroke-width="4.0"/>
    <path d="M511.65 390.85 Q514.0 388.8 517.25 389.2 520.4 389.55 522.3 392.1 524.35 394.9 524.05 398.2 523.75 401.55 521.2 403.8 519.1 405.65 516.1 404.8 513.3 404.05 511.5 401.55 509.5 398.9 509.45 395.95 509.4 392.85 511.65 390.85" fill="#ffffff" fill-rule="evenodd" stroke="none"/>
    <path d="M511.65 390.85 Q514.0 388.8 517.25 389.2 520.4 389.55 522.3 392.1 524.35 394.9 524.05 398.2 523.75 401.55 521.2 403.8 519.1 405.65 516.1 404.8 513.3 404.05 511.5 401.55 509.5 398.9 509.45 395.95 509.4 392.85 511.65 390.85 Z" fill="none" stroke="#000000" stroke-linecap="round" stroke-linejoin="round" stroke-width="4.0"/>
    <path d="M570.9 384.85 Q573.2 382.65 576.5 382.9 579.7 383.1 581.8 385.55 584.05 388.2 584.0 391.5 583.9 394.85 581.5 397.2 579.45 399.2 576.4 398.55 573.55 397.95 571.5 395.55 569.3 393.05 569.05 390.1 568.75 386.95 570.9 384.85" fill="#ffffff" fill-rule="evenodd" stroke="none"/>
    <path d="M570.9 384.85 Q573.2 382.65 576.5 382.9 579.7 383.1 581.8 385.55 584.05 388.2 584.0 391.5 583.9 394.85 581.5 397.2 579.45 399.2 576.4 398.55 573.55 397.95 571.5 395.55 569.3 393.05 569.05 390.1 568.75 386.95 570.9 384.85 Z" fill="none" stroke="#000000" stroke-linecap="round" stroke-linejoin="round" stroke-width="4.0"/>
  </g>
</svg>
