<?xml version="1.0" encoding="UTF-8" standalone="no"?>
<svg xmlns:xlink="http://www.w3.org/1999/xlink" height="90.85px" width="176.35px" xmlns="http://www.w3.org/2000/svg">
  <g transform="matrix(1.0, 0.0, 0.0, 1.0, -395.35, -328.0)">
    <path d="M409.0 403.35 L418.35 385.65 Q424.3 374.4 428.4 368.45 432.65 362.25 443.8 349.35 L454.1 337.65 484.15 330.0 509.65 337.6 519.75 349.55 Q530.7 362.65 535.25 368.7 L546.7 385.15 557.8 401.8" fill="none" stroke="#000000" stroke-linecap="round" stroke-linejoin="round" stroke-width="4.0"/>
    <path d="M405.9 416.65 Q402.65 417.35 399.9 415.5 397.5 413.85 397.35 410.7 397.2 407.7 399.1 405.15 401.1 402.5 404.0 401.65 407.05 400.75 409.6 402.45 412.2 404.25 412.6 407.45 413.05 410.65 411.1 413.25 409.1 416.0 405.9 416.65" fill="#ffffff" fill-rule="evenodd" stroke="none"/>
    <path d="M405.9 416.65 Q402.65 417.35 399.9 415.5 397.5 413.85 397.35 410.7 397.2 407.7 399.1 405.15 401.1 402.5 404.0 401.65 407.05 400.75 409.6 402.45 412.2 404.25 412.6 407.45 413.05 410.65 411.1 413.25 409.1 416.0 405.9 416.65 Z" fill="none" stroke="#000000" stroke-linecap="round" stroke-linejoin="round" stroke-width="4.0"/>
    <path d="M567.2 413.15 Q564.6 415.05 561.4 414.4 558.3 413.8 556.25 411.15 554.2 408.6 554.45 405.45 554.7 402.2 557.2 400.35 559.7 398.5 562.8 399.3 565.75 400.0 567.8 402.65 569.8 405.15 569.7 408.2 569.6 411.35 567.2 413.15" fill="#ffffff" fill-rule="evenodd" stroke="none"/>
    <path d="M567.2 413.15 Q564.6 415.05 561.4 414.4 558.3 413.8 556.25 411.15 554.2 408.6 554.45 405.45 554.7 402.2 557.2 400.35 559.7 398.5 562.8 399.3 565.75 400.0 567.8 402.65 569.8 405.15 569.7 408.2 569.6 411.35 567.2 413.15 Z" fill="none" stroke="#000000" stroke-linecap="round" stroke-linejoin="round" stroke-width="4.0"/>
  </g>
</svg>
