<?xml version="1.0" encoding="UTF-8" standalone="no"?>
<svg xmlns:xlink="http://www.w3.org/1999/xlink" height="95.7px" width="143.45px" xmlns="http://www.w3.org/2000/svg">
  <g transform="matrix(1.0, 0.0, 0.0, 1.0, -429.65, -328.0)">
    <path d="M450.65 406.8 Q445.35 398.65 438.85 389.75 431.35 378.85 431.65 371.6 432.0 364.1 442.75 350.3 450.55 340.35 453.5 338.0 L484.15 330.0 512.4 339.6 Q511.8 343.6 511.15 356.55 511.05 374.45 516.55 379.6 521.85 384.6 535.4 383.3 L556.7 381.1" fill="none" stroke="#000000" stroke-linecap="round" stroke-linejoin="round" stroke-width="4.0"/>
    <path d="M450.25 405.85 Q453.2 404.75 456.05 406.25 458.9 407.75 459.8 410.8 460.75 414.15 459.35 417.1 457.95 420.15 454.75 421.35 452.1 422.3 449.55 420.5 447.2 418.8 446.35 415.8 445.4 412.6 446.4 409.85 447.45 406.9 450.25 405.85" fill="#ffffff" fill-rule="evenodd" stroke="none"/>
    <path d="M450.25 405.85 Q453.2 404.75 456.05 406.25 458.9 407.75 459.8 410.8 460.75 414.15 459.35 417.1 457.95 420.15 454.75 421.35 452.1 422.3 449.55 420.5 447.2 418.8 446.35 415.8 445.4 412.6 446.4 409.85 447.45 406.9 450.25 405.85 Z" fill="none" stroke="#000000" stroke-linecap="round" stroke-linejoin="round" stroke-width="4.0"/>
    <path d="M555.2 380.55 Q555.8 377.45 558.55 375.75 561.35 374.05 564.45 374.85 567.8 375.75 569.7 378.5 571.55 381.3 570.95 384.65 570.45 387.4 567.55 388.6 L561.85 388.9 Q558.65 388.1 556.75 385.9 554.7 383.5 555.2 380.55" fill="#ffffff" fill-rule="evenodd" stroke="none"/>
    <path d="M555.2 380.55 Q555.8 377.45 558.55 375.75 561.35 374.05 564.45 374.85 567.8 375.75 569.7 378.5 571.55 381.3 570.95 384.65 570.45 387.4 567.55 388.6 L561.85 388.9 Q558.65 388.1 556.75 385.9 554.7 383.5 555.2 380.55 Z" fill="none" stroke="#000000" stroke-linecap="round" stroke-linejoin="round" stroke-width="4.0"/>
  </g>
</svg>
