<?xml version="1.0" encoding="UTF-8" standalone="no"?>
<svg xmlns:xlink="http://www.w3.org/1999/xlink" height="101.1px" width="128.65px" xmlns="http://www.w3.org/2000/svg">
  <g transform="matrix(1.0, 0.0, 0.0, 1.0, -436.85, -328.0)">
    <path d="M457.25 412.1 Q452.3 403.8 446.3 394.8 439.4 383.8 438.9 376.6 438.4 369.05 445.35 353.2 451.05 340.25 452.4 338.8 L484.15 330.0 511.6 339.0 Q511.55 343.5 512.75 357.3 515.35 375.9 522.7 377.55 529.8 379.15 537.5 366.95 543.6 356.15 549.5 347.55" fill="none" stroke="#000000" stroke-linecap="round" stroke-linejoin="round" stroke-width="4.0"/>
    <path d="M456.9 411.1 Q459.9 410.2 462.7 411.85 465.5 413.5 466.1 416.6 466.8 420.05 465.1 422.95 463.35 425.9 460.0 426.9 457.4 427.7 455.1 425.65 453.0 423.75 452.4 420.75 451.75 417.5 452.85 414.85 454.05 411.95 456.9 411.1" fill="#ffffff" fill-rule="evenodd" stroke="none"/>
    <path d="M456.9 411.1 Q459.9 410.2 462.7 411.85 465.5 413.5 466.1 416.6 466.8 420.05 465.1 422.95 463.35 425.9 460.0 426.9 457.4 427.7 455.1 425.65 453.0 423.75 452.4 420.75 451.75 417.5 452.85 414.85 454.05 411.95 456.9 411.1 Z" fill="none" stroke="#000000" stroke-linecap="round" stroke-linejoin="round" stroke-width="4.0"/>
    <path d="M562.55 346.4 Q561.1 348.6 558.3 349.8 555.25 351.15 552.65 350.9 549.65 350.65 548.1 348.25 546.4 345.55 547.2 342.4 548.0 339.2 550.85 337.95 554.25 336.5 557.6 337.6 560.9 338.65 562.9 341.85 564.25 343.95 562.55 346.4" fill="#ffffff" fill-rule="evenodd" stroke="none"/>
    <path d="M562.55 346.4 Q561.1 348.6 558.3 349.8 555.25 351.15 552.65 350.9 549.65 350.65 548.1 348.25 546.4 345.55 547.2 342.4 548.0 339.2 550.85 337.95 554.25 336.5 557.6 337.6 560.9 338.65 562.9 341.85 564.25 343.95 562.55 346.4 Z" fill="none" stroke="#000000" stroke-linecap="round" stroke-linejoin="round" stroke-width="4.0"/>
  </g>
</svg>
