<?xml version="1.0" encoding="UTF-8" standalone="no"?>
<svg xmlns:xlink="http://www.w3.org/1999/xlink" height="84.9px" width="206.85px" xmlns="http://www.w3.org/2000/svg">
  <g transform="matrix(1.0, 0.0, 0.0, 1.0, -395.3, -328.0)">
    <path d="M406.25 395.8 L413.2 376.85 Q417.65 364.75 422.3 359.25 427.1 353.45 441.85 344.6 451.1 339.0 455.6 336.9 L484.15 330.0 505.2 336.05 520.8 337.4 545.35 339.05 Q552.6 339.3 565.4 339.0 L585.45 338.6" fill="none" stroke="#000000" stroke-linecap="round" stroke-linejoin="round" stroke-width="4.0"/>
    <path d="M406.65 394.85 Q409.5 395.6 410.75 398.45 411.85 401.05 411.3 404.35 410.75 407.4 408.75 409.35 406.55 411.45 403.95 410.75 400.55 409.85 398.7 407.0 396.85 404.15 397.45 400.7 398.0 397.55 400.8 395.8 403.55 394.0 406.65 394.85" fill="#ffffff" fill-rule="evenodd" stroke="none"/>
    <path d="M406.65 394.85 Q409.5 395.6 410.75 398.45 411.85 401.05 411.3 404.35 410.75 407.4 408.75 409.35 406.55 411.45 403.95 410.75 400.55 409.85 398.7 407.0 396.85 404.15 397.45 400.7 398.0 397.55 400.8 395.8 403.55 394.0 406.65 394.85 Z" fill="none" stroke="#000000" stroke-linecap="round" stroke-linejoin="round" stroke-width="4.0"/>
    <path d="M583.9 338.25 Q583.9 335.15 586.35 333.05 588.7 331.05 592.0 331.05 595.25 331.0 597.65 332.95 600.15 335.0 600.15 338.1 600.2 341.2 597.75 343.35 595.4 345.4 592.1 345.45 588.8 345.45 586.45 343.45 583.95 341.35 583.9 338.25" fill="#ffffff" fill-rule="evenodd" stroke="none"/>
    <path d="M583.9 338.25 Q583.9 335.15 586.35 333.05 588.7 331.05 592.0 331.05 595.25 331.0 597.65 332.95 600.15 335.0 600.15 338.1 600.2 341.2 597.75 343.35 595.4 345.4 592.1 345.45 588.8 345.45 586.45 343.45 583.95 341.35 583.9 338.25 Z" fill="none" stroke="#000000" stroke-linecap="round" stroke-linejoin="round" stroke-width="4.0"/>
  </g>
</svg>
