<?xml version="1.0" encoding="UTF-8" standalone="no"?>
<svg xmlns:xlink="http://www.w3.org/1999/xlink" height="129.55px" width="105.6px" xmlns="http://www.w3.org/2000/svg">
  <g transform="matrix(1.0, 0.0, 0.0, 1.0, -440.8, -305.85)">
    <path d="M535.85 320.95 Q538.5 331.15 542.7 343.15 546.9 357.2 540.65 360.9 534.15 364.7 520.65 351.25 511.15 340.8 508.4 337.05 L484.15 330.0 451.75 339.4 448.2 354.65 Q444.6 371.3 444.35 378.85 444.1 386.05 446.0 398.7 L449.0 418.5" fill="none" stroke="#000000" stroke-linecap="round" stroke-linejoin="round" stroke-width="4.0"/>
    <path d="M446.2 431.85 Q443.6 429.9 442.95 426.6 442.35 423.45 444.05 420.75 445.75 418.0 448.9 417.45 451.9 416.95 454.3 419.05 456.55 421.0 457.2 424.2 457.8 427.35 456.45 430.0 454.95 432.8 452.05 433.3 448.85 433.85 446.2 431.85" fill="#ffffff" fill-rule="evenodd" stroke="none"/>
    <path d="M446.2 431.85 Q443.6 429.9 442.95 426.6 442.35 423.45 444.05 420.75 445.75 418.0 448.9 417.45 451.9 416.95 454.3 419.05 456.55 421.0 457.2 424.2 457.8 427.35 456.45 430.0 454.95 432.8 452.05 433.3 448.85 433.85 446.2 431.85 Z" fill="none" stroke="#000000" stroke-linecap="round" stroke-linejoin="round" stroke-width="4.0"/>
    <path d="M535.85 322.5 Q533.25 323.45 530.75 321.8 528.65 320.35 527.1 317.4 525.7 314.8 525.9 312.2 526.15 309.3 528.5 308.5 531.95 307.25 535.2 308.4 538.45 309.55 540.1 312.75 541.55 315.5 540.2 318.5 538.85 321.45 535.85 322.5" fill="#ffffff" fill-rule="evenodd" stroke="none"/>
    <path d="M535.85 322.5 Q533.25 323.45 530.75 321.8 528.65 320.35 527.1 317.4 525.7 314.8 525.9 312.2 526.15 309.3 528.5 308.5 531.95 307.25 535.2 308.4 538.45 309.55 540.1 312.75 541.55 315.5 540.2 318.5 538.85 321.45 535.85 322.5 Z" fill="none" stroke="#000000" stroke-linecap="round" stroke-linejoin="round" stroke-width="4.0"/>
  </g>
</svg>
