<?xml version="1.0" encoding="UTF-8" standalone="no"?>
<svg xmlns:xlink="http://www.w3.org/1999/xlink" height="18.85px" width="15.05px" xmlns="http://www.w3.org/2000/svg">
  <g transform="matrix(1.0, 0.0, 0.0, 1.0, -457.2, -9.7)">
    <path d="M468.05 11.85 Q468.45 11.85 468.45 12.7 L468.45 13.7 Q468.45 14.5 467.7 14.5 L460.75 14.5 Q459.95 14.5 459.95 13.7 L459.95 12.7 Q459.95 11.85 460.75 11.85 L458.7 11.85 Q457.7 11.85 457.7 12.85 L457.7 25.9 Q457.7 26.9 458.7 26.9 L462.6 26.9 462.6 18.85 470.65 18.85 470.65 12.85 Q470.65 11.85 469.65 11.85 L468.05 11.85 466.75 11.85 466.8 11.6 466.8 11.0 466.6 10.45 Q466.3 10.2 466.0 10.2 L462.35 10.2 Q462.05 10.2 461.8 10.45 L461.55 11.0 461.55 11.6 461.6 11.85 460.75 11.85 M462.6 26.9 L462.6 28.05 471.75 28.05 471.75 18.85 470.65 18.85" fill="none" stroke="#000000" stroke-linecap="round" stroke-linejoin="round" stroke-width="1.0"/>
    <path d="M464.2 11.35 L464.45 11.45 464.55 11.7 464.45 11.9 464.2 12.05 463.95 11.9 463.9 11.7 463.95 11.45 464.2 11.35" fill="none" stroke="#000000" stroke-linecap="round" stroke-linejoin="round" stroke-width="0.8"/>
  </g>
</svg>
