<?xml version="1.0" encoding="UTF-8" standalone="no"?>
<svg xmlns:xlink="http://www.w3.org/1999/xlink" height="18.9px" width="14.15px" xmlns="http://www.w3.org/2000/svg">
  <g transform="matrix(1.0, 0.0, 0.0, 1.0, 0.75, 0.75)">
    <path d="M10.9 7.8 L12.65 7.8 12.65 15.5 Q12.6 17.4 10.7 17.4 L2.0 17.4 Q0.05 17.4 0.0 15.5 L0.0 7.8 1.65 7.8 1.65 3.55 Q1.65 2.1 2.65 1.05 3.7 0.0 5.15 0.0 L7.4 0.0 Q8.85 0.0 9.85 1.05 10.9 2.1 10.9 3.55 L10.9 7.8 8.65 7.8 10.9 7.8 M3.85 7.8 L8.65 7.8 8.65 4.75 Q8.65 3.85 8.15 3.25 7.6 2.65 6.8 2.65 L5.65 2.65 Q4.9 2.65 4.4 3.25 3.85 3.85 3.85 4.75 L3.85 7.8 1.65 7.8 3.85 7.8 M6.3 11.3 Q6.05 11.3 5.85 11.45 5.7 11.65 5.7 11.9 L5.7 13.75 5.85 14.15 6.3 14.35 6.35 14.35 Q6.6 14.35 6.75 14.15 L6.95 13.75 6.95 11.9 6.75 11.45 6.35 11.3 6.3 11.3" fill="#cccccc" fill-rule="evenodd" stroke="none"/>
    <path d="M6.3 11.3 Q6.05 11.3 5.85 11.45 5.7 11.65 5.7 11.9 L5.7 13.75 5.85 14.15 6.3 14.35 6.35 14.35 Q6.6 14.35 6.75 14.15 L6.95 13.75 6.95 11.9 6.75 11.45 6.35 11.3 6.3 11.3" fill="none" stroke="#000000" stroke-linecap="round" stroke-linejoin="round" stroke-width="1.0"/>
    <path d="M10.9 7.8 L12.65 7.8 12.65 15.5 Q12.6 17.4 10.7 17.4 L2.0 17.4 Q0.05 17.4 0.0 15.5 L0.0 7.8 1.65 7.8 1.65 3.55 Q1.65 2.1 2.65 1.05 3.7 0.0 5.15 0.0 L7.4 0.0 Q8.85 0.0 9.85 1.05 10.9 2.1 10.9 3.55 L10.9 7.8 8.65 7.8 3.85 7.8 1.65 7.8 M3.85 7.8 L3.85 4.75 Q3.85 3.85 4.4 3.25 4.9 2.65 5.65 2.65 L6.8 2.65 Q7.6 2.65 8.15 3.25 8.65 3.85 8.65 4.75 L8.65 7.8" fill="none" stroke="#000000" stroke-linecap="round" stroke-linejoin="round" stroke-width="1.5"/>
  </g>
</svg>
