<?xml version="1.0" encoding="UTF-8" standalone="no"?>
<svg xmlns:xlink="http://www.w3.org/1999/xlink" height="19.9px" width="19.9px" xmlns="http://www.w3.org/2000/svg">
  <g transform="matrix(1.0, 0.0, 0.0, 1.0, 0.0, 0.0)">
    <path d="M16.05 9.95 L16.05 6.1 19.9 9.95 16.05 13.8 16.05 9.95 M9.95 16.05 L13.8 16.05 9.95 19.9 6.1 16.05 9.95 16.05 M3.85 9.95 L3.85 13.8 0.0 9.95 3.85 6.1 3.85 9.95 M9.95 3.85 L6.1 3.85 9.95 0.0 13.8 3.85 9.95 3.85" fill="#000000" fill-rule="evenodd" stroke="none"/>
    <path d="M16.05 9.95 L9.95 9.95 9.95 16.05 M3.85 9.95 L9.95 9.95 9.95 3.85" fill="none" stroke="#000000" stroke-linecap="round" stroke-linejoin="round" stroke-width="2.5"/>
  </g>
</svg>
