<?xml version="1.0" encoding="UTF-8" standalone="no"?>
<svg xmlns:xlink="http://www.w3.org/1999/xlink" height="19.9px" width="20.85px" xmlns="http://www.w3.org/2000/svg">
  <g transform="matrix(1.0, 0.0, 0.0, 1.0, 0.0, 0.0)">
    <path d="M7.8 1.75 L10.4 0.0 13.0 1.75 11.5 1.75 12.35 6.6 12.8 6.6 16.65 6.6 16.1 4.9 20.85 7.35 17.75 9.7 17.2 8.2 12.75 8.2 13.85 13.8 17.95 13.8 10.4 19.9 2.9 13.8 7.0 13.8 8.15 8.2 3.65 8.2 3.1 9.7 0.0 7.35 4.8 4.9 4.3 6.6 8.4 6.6 9.45 1.75 7.8 1.75" fill="#000000" fill-rule="evenodd" stroke="none"/>
  </g>
</svg>
