<?xml version="1.0" encoding="UTF-8" standalone="no"?>
<svg xmlns:xlink="http://www.w3.org/1999/xlink" height="111.05px" width="103.0px" xmlns="http://www.w3.org/2000/svg">
  <g transform="matrix(1.0, 0.0, 0.0, 1.0, 1.5, 1.5)">
    <path d="M0.0 49.95 L50.0 49.95 100.0 49.95 Q100.15 55.65 99.35 61.55 98.45 68.25 96.6 72.75 95.3 76.0 91.55 80.3 L85.15 86.95 76.35 95.85 Q70.8 101.15 66.65 103.65 63.4 105.6 58.6 106.85 53.95 108.05 50.05 108.05 46.1 108.05 41.45 106.85 36.7 105.6 33.45 103.65 29.35 101.15 23.8 95.85 L15.0 86.95 8.6 80.35 Q4.85 76.1 3.55 72.85 1.7 68.3 0.75 61.6 -0.1 55.6 0.0 49.95" fill="#ffffff" fill-rule="evenodd" stroke="none"/>
    <path d="M100.0 49.95 Q100.15 55.65 99.35 61.55 98.45 68.25 96.6 72.75 95.3 76.0 91.55 80.3 L85.15 86.95 76.35 95.85 Q70.8 101.15 66.65 103.65 63.4 105.6 58.6 106.85 53.95 108.05 50.05 108.05 46.1 108.05 41.45 106.85 36.7 105.6 33.45 103.65 29.35 101.15 23.8 95.85 L15.0 86.95 8.6 80.35 Q4.85 76.1 3.55 72.85 1.7 68.3 0.75 61.6 -0.1 55.6 0.0 49.95" fill="none" stroke="#000000" stroke-linecap="round" stroke-linejoin="round" stroke-width="3.0"/>
    <path d="M50.0 0.0 Q60.65 0.0 70.25 4.25 78.8 8.05 85.4 14.6 91.95 21.2 95.75 29.75 100.0 39.35 100.0 50.0 L50.0 50.0 0.0 50.0 Q0.0 39.35 4.25 29.75 8.05 21.2 14.6 14.6 21.2 8.05 29.75 4.25 39.35 0.0 50.0 0.0" fill="#ffffff" fill-rule="evenodd" stroke="none"/>
    <path d="M0.0 50.0 Q0.0 39.35 4.25 29.75 8.05 21.2 14.6 14.6 21.2 8.05 29.75 4.25 39.35 0.0 50.0 0.0 60.65 0.0 70.25 4.25 78.8 8.05 85.4 14.6 91.95 21.2 95.75 29.75 100.0 39.35 100.0 50.0" fill="none" stroke="#000000" stroke-linecap="round" stroke-linejoin="round" stroke-width="3.0"/>
    <path d="M36.85 44.45 L37.9 46.95 Q38.3 48.4 38.3 49.95 38.3 51.55 37.9 53.0 L36.85 55.45 35.1 57.65 32.95 59.4 30.5 60.4 27.45 60.85 24.4 60.4 21.9 59.4 19.75 57.65 Q18.65 56.55 18.05 55.45 L16.95 53.0 Q16.55 51.55 16.55 49.95 16.55 48.4 16.95 46.95 L18.05 44.45 Q18.65 43.4 19.75 42.25 L21.9 40.55 24.4 39.5 27.45 39.05 30.5 39.5 Q31.75 39.9 32.95 40.55 L35.1 42.25 36.85 44.45" fill="#ffffff" fill-rule="evenodd" stroke="none"/>
    <path d="M36.85 44.45 L37.9 46.95 Q38.3 48.4 38.3 49.95 38.3 51.55 37.9 53.0 L36.85 55.45 35.1 57.65 32.95 59.4 30.5 60.4 27.45 60.85 24.4 60.4 21.9 59.4 19.75 57.65 Q18.65 56.55 18.05 55.45 L16.95 53.0 Q16.55 51.55 16.55 49.95 16.55 48.4 16.95 46.95 L18.05 44.45 Q18.65 43.4 19.75 42.25 L21.9 40.55 24.4 39.5 27.45 39.05 30.5 39.5 Q31.75 39.9 32.95 40.55 L35.1 42.25 36.85 44.45 Z" fill="none" stroke="#000000" stroke-linecap="round" stroke-linejoin="round" stroke-width="3.0"/>
    <path d="M16.55 49.95 Q16.55 48.5 16.95 47.05 17.35 45.65 18.05 44.45 18.65 43.4 19.75 42.25 L21.9 40.55 24.4 39.5 27.45 39.05 30.5 39.5 Q31.75 39.9 32.95 40.55 L35.1 42.25 36.85 44.45 37.9 46.95 Q38.3 48.4 38.3 49.95" fill="none" stroke="#000000" stroke-linecap="round" stroke-linejoin="round" stroke-width="4.0"/>
    <path d="M41.6 42.55 Q42.6 44.25 43.1 46.0 43.7 48.0 43.7 50.2 43.7 52.4 43.1 54.45 L41.6 57.9 Q40.8 59.4 39.2 60.95 37.7 62.45 36.2 63.35 34.5 64.3 32.75 64.8 L28.55 65.4 Q26.35 65.4 24.3 64.8 L20.85 63.35 Q19.3 62.45 17.8 60.95 16.25 59.4 15.45 57.9 14.45 56.2 13.95 54.45 13.35 52.4 13.35 50.2 13.35 48.0 13.95 46.0 14.45 44.25 15.45 42.55 16.25 41.05 17.8 39.5 19.3 38.0 20.85 37.1 22.55 36.15 24.3 35.65 26.35 35.05 28.55 35.05 L32.75 35.65 Q34.5 36.15 36.2 37.1 37.7 38.0 39.2 39.5 40.8 41.05 41.6 42.55" fill="#ffffff" fill-rule="evenodd" stroke="none"/>
    <path d="M41.6 42.55 Q42.6 44.25 43.1 46.0 43.7 48.0 43.7 50.2 43.7 52.4 43.1 54.45 L41.6 57.9 Q40.8 59.4 39.2 60.95 37.7 62.45 36.2 63.35 34.5 64.3 32.75 64.8 L28.55 65.4 Q26.35 65.4 24.3 64.8 L20.85 63.35 Q19.3 62.45 17.8 60.95 16.25 59.4 15.45 57.9 14.45 56.2 13.95 54.45 13.35 52.4 13.35 50.2 13.35 48.0 13.95 46.0 14.45 44.25 15.45 42.55 16.25 41.05 17.8 39.5 19.3 38.0 20.85 37.1 22.55 36.15 24.3 35.65 26.35 35.05 28.55 35.05 L32.75 35.65 Q34.5 36.15 36.2 37.1 37.7 38.0 39.2 39.5 40.8 41.05 41.6 42.55 Z" fill="none" stroke="#000000" stroke-linecap="round" stroke-linejoin="round" stroke-width="3.0"/>
    <path d="M63.1 44.45 Q62.4 45.7 62.05 46.95 61.65 48.4 61.65 49.95 61.65 51.55 62.05 53.0 62.4 54.25 63.1 55.45 63.7 56.55 64.85 57.65 L67.0 59.4 Q68.2 60.05 69.45 60.4 L72.5 60.85 75.55 60.4 78.05 59.4 80.2 57.65 81.9 55.45 83.0 53.0 Q83.4 51.55 83.4 49.95 83.4 48.4 83.0 46.95 L81.9 44.45 80.2 42.25 78.05 40.55 75.55 39.5 72.5 39.05 69.45 39.5 Q68.2 39.9 67.0 40.55 L64.85 42.25 Q63.7 43.4 63.1 44.45" fill="#ffffff" fill-rule="evenodd" stroke="none"/>
    <path d="M63.1 44.45 Q62.4 45.7 62.05 46.95 61.65 48.4 61.65 49.95 61.65 51.55 62.05 53.0 62.4 54.25 63.1 55.45 63.7 56.55 64.85 57.65 L67.0 59.4 Q68.2 60.05 69.45 60.4 L72.5 60.85 75.55 60.4 78.05 59.4 80.2 57.65 81.9 55.45 83.0 53.0 Q83.4 51.55 83.4 49.95 83.4 48.4 83.0 46.95 L81.9 44.45 80.2 42.25 78.05 40.55 75.55 39.5 72.5 39.05 69.45 39.5 Q68.2 39.9 67.0 40.55 L64.85 42.25 Q63.7 43.4 63.1 44.45 Z" fill="none" stroke="#000000" stroke-linecap="round" stroke-linejoin="round" stroke-width="3.0"/>
    <path d="M83.4 49.95 Q83.4 48.5 83.0 47.05 L81.9 44.45 80.2 42.25 78.05 40.55 75.55 39.5 72.5 39.05 69.45 39.5 Q68.2 39.9 67.0 40.55 L64.85 42.25 Q63.7 43.4 63.1 44.45 62.4 45.7 62.05 46.95 61.65 48.4 61.65 49.95" fill="none" stroke="#000000" stroke-linecap="round" stroke-linejoin="round" stroke-width="4.0"/>
    <path d="M58.3 42.55 Q57.3 44.25 56.8 46.0 56.2 48.0 56.2 50.2 56.2 52.4 56.8 54.45 57.3 56.2 58.3 57.9 59.1 59.4 60.7 60.95 L63.7 63.35 67.15 64.8 71.35 65.4 Q73.55 65.4 75.6 64.8 77.35 64.3 79.05 63.35 L82.1 60.95 Q83.65 59.4 84.45 57.9 L85.95 54.45 Q86.55 52.4 86.55 50.2 86.55 48.0 85.95 46.0 85.45 44.25 84.45 42.55 83.65 41.05 82.1 39.5 L79.05 37.1 Q77.35 36.15 75.6 35.65 73.55 35.05 71.35 35.05 L67.15 35.65 Q65.4 36.15 63.7 37.1 L60.7 39.5 Q59.1 41.05 58.3 42.55" fill="#ffffff" fill-rule="evenodd" stroke="none"/>
    <path d="M58.3 42.55 Q57.3 44.25 56.8 46.0 56.2 48.0 56.2 50.2 56.2 52.4 56.8 54.45 57.3 56.2 58.3 57.9 59.1 59.4 60.7 60.95 L63.7 63.35 67.15 64.8 71.35 65.4 Q73.55 65.4 75.6 64.8 77.35 64.3 79.05 63.35 L82.1 60.95 Q83.65 59.4 84.45 57.9 L85.95 54.45 Q86.55 52.4 86.55 50.2 86.55 48.0 85.95 46.0 85.45 44.25 84.45 42.55 83.65 41.05 82.1 39.5 L79.05 37.1 Q77.35 36.15 75.6 35.65 73.55 35.05 71.35 35.05 L67.15 35.65 Q65.4 36.15 63.7 37.1 L60.7 39.5 Q59.1 41.05 58.3 42.55 Z" fill="none" stroke="#000000" stroke-linecap="round" stroke-linejoin="round" stroke-width="3.0"/>
  </g>
</svg>
