<?xml version="1.0" encoding="UTF-8" standalone="no"?>
<svg xmlns:xlink="http://www.w3.org/1999/xlink" height="22.0px" width="148.0px" xmlns="http://www.w3.org/2000/svg">
  <g transform="matrix(1.0, 0.0, 0.0, 1.0, 0.0, 0.0)">
    <path d="M148.0 18.6 Q147.7 22.0 144.0 22.0 L4.0 22.0 Q0.0 22.0 0.0 18.0 L0.0 4.0 0.2 2.4 Q0.45 1.55 1.0 1.0 2.0 0.0 4.0 0.0 L144.0 0.0 Q147.7 0.0 148.0 3.4 L148.0 4.0 148.0 18.0 148.0 18.6 M126.0 21.0 L144.15 21.0 Q147.0 20.9 147.0 18.0 L147.0 4.0 Q147.0 1.1 144.15 1.0 L126.0 1.0 125.0 1.0 3.9 1.0 Q1.05 1.05 1.0 3.9 L1.0 18.0 Q1.0 20.95 3.9 21.0 L125.0 21.0 126.0 21.0" fill="url(#gradient0)" fill-rule="evenodd" stroke="none"/>
    <path d="M126.0 1.0 L144.15 1.0 Q147.0 1.1 147.0 4.0 L147.0 18.0 Q147.0 20.9 144.15 21.0 L126.0 21.0 126.0 1.0" fill="url(#gradient1)" fill-rule="evenodd" stroke="none"/>
    <path d="M126.0 21.0 L125.0 21.0 125.0 1.0 126.0 1.0 126.0 21.0" fill="url(#gradient2)" fill-rule="evenodd" stroke="none"/>
    <path d="M125.0 1.0 L125.0 21.0 3.9 21.0 Q1.05 20.95 1.0 18.15 L1.0 3.9 Q1.05 1.05 3.9 1.0 L125.0 1.0" fill="url(#gradient3)" fill-rule="evenodd" stroke="none"/>
    <path d="M147.0 12.0 L126.0 12.0 126.0 1.0 144.0 1.0 Q146.95 1.0 147.0 4.0 L147.0 12.0" fill="url(#gradient4)" fill-rule="evenodd" stroke="none"/>
    <path d="M125.0 1.0 L125.0 12.0 1.0 12.0 1.0 4.0 Q1.0 1.0 4.0 1.0 L125.0 1.0" fill="url(#gradient5)" fill-rule="evenodd" stroke="none"/>
    <path d="M135.0 12.0 L134.0 12.0 134.0 11.0 133.0 11.0 133.0 10.0 132.0 10.0 132.0 9.0 139.0 9.0 139.0 10.0 138.0 10.0 138.0 11.0 137.0 11.0 137.0 12.0 136.0 12.0 136.0 13.0 135.0 13.0 135.0 12.0" fill="#000000" fill-rule="evenodd" stroke="none"/>
  </g>
  <defs>
    <linearGradient gradientTransform="matrix(0.0, -0.0134, 0.0134, 0.0, 137.0, 11.0)" gradientUnits="userSpaceOnUse" id="gradient0" spreadMethod="pad" x1="-819.2" x2="819.2">
      <stop offset="0.0" stop-color="#0075bf"/>
      <stop offset="0.9921568627450981" stop-color="#009dff"/>
    </linearGradient>
    <linearGradient gradientTransform="matrix(0.0, -0.0134, -0.0134, 0.0, 11.0, 11.0)" gradientUnits="userSpaceOnUse" id="gradient1" spreadMethod="pad" x1="-819.2" x2="819.2">
      <stop offset="0.0" stop-color="#eeeeee" stop-opacity="0.6509804"/>
      <stop offset="1.0" stop-color="#ffffff" stop-opacity="0.7529412"/>
    </linearGradient>
    <linearGradient gradientTransform="matrix(0.0, -0.0124, 0.0183, 0.0, 125.9, 11.0)" gradientUnits="userSpaceOnUse" id="gradient2" spreadMethod="pad" x1="-819.2" x2="819.2">
      <stop offset="0.0" stop-color="#0075c0"/>
      <stop offset="0.9921568627450981" stop-color="#009dff"/>
    </linearGradient>
    <linearGradient gradientTransform="matrix(0.0, -0.0134, -0.0134, 0.0, 11.0, 11.0)" gradientUnits="userSpaceOnUse" id="gradient3" spreadMethod="pad" x1="-819.2" x2="819.2">
      <stop offset="0.0" stop-color="#99d7fe"/>
      <stop offset="1.0" stop-color="#d9f0fe"/>
    </linearGradient>
    <linearGradient gradientTransform="matrix(0.0, -0.0064, 0.0183, 0.0, 61.5, 6.75)" gradientUnits="userSpaceOnUse" id="gradient4" spreadMethod="pad" x1="-819.2" x2="819.2">
      <stop offset="0.0" stop-color="#cccccc" stop-opacity="0.0"/>
      <stop offset="1.0" stop-color="#ffffff" stop-opacity="0.3019608"/>
    </linearGradient>
    <linearGradient gradientTransform="matrix(0.0, -0.0068, 0.0183, 0.0, 61.5, 6.75)" gradientUnits="userSpaceOnUse" id="gradient5" spreadMethod="pad" x1="-819.2" x2="819.2">
      <stop offset="0.0" stop-color="#cccccc" stop-opacity="0.0"/>
      <stop offset="1.0" stop-color="#ffffff" stop-opacity="0.3019608"/>
    </linearGradient>
  </defs>
</svg>
