<?xml version="1.0" encoding="UTF-8" standalone="no"?>
<svg xmlns:xlink="http://www.w3.org/1999/xlink" height="192.0px" width="273.0px" xmlns="http://www.w3.org/2000/svg">
  <g transform="matrix(1.0, 0.0, 0.0, 1.0, 0.0, 0.0)">
    <path d="M271.0 2.0 Q272.0 3.0 272.0 4.5 L272.0 191.0 1.0 191.0 1.0 4.5 Q1.0 3.0 2.0 2.0 3.0 1.0 4.5 1.0 L268.5 1.0 Q269.95 1.0 271.0 2.0" fill="#ffffff" fill-rule="evenodd" stroke="none"/>
    <path d="M268.5 0.0 Q270.35 0.0 271.7 1.3 273.0 2.6 273.0 4.5 L273.0 191.5 272.85 191.85 272.5 192.0 0.5 192.0 0.15 191.85 0.0 191.5 0.0 4.5 Q0.0 2.6 1.3 1.3 2.6 0.0 4.5 0.0 L268.5 0.0 M271.0 2.0 Q269.95 1.0 268.5 1.0 L4.5 1.0 Q3.0 1.0 2.0 2.0 1.0 3.0 1.0 4.5 L1.0 191.0 272.0 191.0 272.0 4.5 Q272.0 3.0 271.0 2.0" fill="#cccccc" fill-rule="evenodd" stroke="none"/>
  </g>
</svg>
