<?xml version="1.0" encoding="UTF-8" standalone="no"?>
<svg xmlns:xlink="http://www.w3.org/1999/xlink" height="111.05px" width="103.0px" xmlns="http://www.w3.org/2000/svg">
  <g transform="matrix(1.0, 0.0, 0.0, 1.0, 1.5, 1.5)">
    <path d="M0.0 49.95 L50.0 49.95 100.0 49.95 Q100.15 55.65 99.35 61.55 98.45 68.25 96.6 72.75 95.3 76.0 91.55 80.3 L85.15 86.95 76.35 95.85 Q70.8 101.15 66.65 103.65 63.4 105.6 58.6 106.85 53.95 108.05 50.05 108.05 46.1 108.05 41.45 106.85 36.7 105.6 33.45 103.65 29.35 101.15 23.8 95.85 L15.0 86.95 8.6 80.35 Q4.85 76.1 3.55 72.85 1.7 68.3 0.75 61.6 -0.1 55.6 0.0 49.95" fill="#ffffff" fill-rule="evenodd" stroke="none"/>
    <path d="M100.0 49.95 Q100.15 55.65 99.35 61.55 98.45 68.25 96.6 72.75 95.3 76.0 91.55 80.3 L85.15 86.95 76.35 95.85 Q70.8 101.15 66.65 103.65 63.4 105.6 58.6 106.85 53.95 108.05 50.05 108.05 46.1 108.05 41.45 106.85 36.7 105.6 33.45 103.65 29.35 101.15 23.8 95.85 L15.0 86.95 8.6 80.35 Q4.85 76.1 3.55 72.85 1.7 68.3 0.75 61.6 -0.1 55.6 0.0 49.95" fill="none" stroke="#000000" stroke-linecap="round" stroke-linejoin="round" stroke-width="3.0"/>
    <path d="M50.0 0.0 Q60.65 0.0 70.25 4.25 78.8 8.05 85.4 14.6 91.95 21.2 95.75 29.75 100.0 39.35 100.0 50.0 L50.0 50.0 0.0 50.0 Q0.0 39.35 4.25 29.75 8.05 21.2 14.6 14.6 21.2 8.05 29.75 4.25 39.35 0.0 50.0 0.0" fill="#ffffff" fill-rule="evenodd" stroke="none"/>
    <path d="M0.0 50.0 Q0.0 39.35 4.25 29.75 8.05 21.2 14.6 14.6 21.2 8.05 29.75 4.25 39.35 0.0 50.0 0.0 60.65 0.0 70.25 4.25 78.8 8.05 85.4 14.6 91.95 21.2 95.75 29.75 100.0 39.35 100.0 50.0" fill="none" stroke="#000000" stroke-linecap="round" stroke-linejoin="round" stroke-width="3.0"/>
    <path d="M29.95 71.4 L30.3 67.7 31.0 64.9 32.1 62.25 33.25 60.8 34.55 59.85 36.6 59.6 38.95 59.75 41.1 60.85 42.35 61.7 41.4 77.15 39.8 77.45 37.3 77.5 33.65 76.6 30.75 74.8 29.95 71.4" fill="#ffffff" fill-rule="evenodd" stroke="none"/>
    <path d="M41.4 77.15 L39.8 77.45 37.3 77.5 33.65 76.6 30.75 74.8 29.95 71.4 30.3 67.7 31.0 64.9 32.1 62.25 33.25 60.8 34.55 59.85 36.6 59.6 38.95 59.75 41.1 60.85 42.35 61.7" fill="none" stroke="#000000" stroke-linecap="round" stroke-linejoin="round" stroke-width="3.0"/>
    <path d="M61.3 59.75 L63.6 59.6 65.7 59.85 66.95 60.8 68.1 62.25 69.25 64.9 69.95 67.7 70.3 71.4 69.55 74.8 66.55 76.6 63.0 77.5 60.5 77.45 58.8 77.15 57.85 61.7 61.3 59.75" fill="#ffffff" fill-rule="evenodd" stroke="none"/>
    <path d="M57.85 61.7 L61.3 59.75 63.6 59.6 65.7 59.85 66.95 60.8 68.1 62.25 69.25 64.9 69.95 67.7 70.3 71.4 69.55 74.8 66.55 76.6 63.0 77.5 60.5 77.45 58.8 77.15" fill="none" stroke="#000000" stroke-linecap="round" stroke-linejoin="round" stroke-width="3.0"/>
    <path d="M57.0 29.95 L56.85 38.05 Q56.8 46.95 57.0 50.85 L57.7 56.15 58.7 61.35 60.5 69.85 Q61.7 75.3 61.6 77.0 L60.4 78.85 58.25 80.75 54.2 82.9 Q51.7 84.0 49.9 84.1 48.25 84.15 45.95 83.1 44.25 82.4 42.15 81.1 L39.65 78.95 38.2 76.7 Q38.2 75.1 39.55 69.75 L41.55 61.35 42.45 56.15 43.1 50.85 43.2 38.05 43.1 29.95 57.0 29.95" fill="#ffffff" fill-rule="evenodd" stroke="none"/>
    <path d="M57.0 29.95 L56.85 38.05 Q56.8 46.95 57.0 50.85 L57.7 56.15 58.7 61.35 M41.55 61.35 L42.45 56.15 43.1 50.85 43.2 38.05 43.1 29.95 M61.6 77.0 L60.4 78.85 58.25 80.75 54.2 82.9 Q51.7 84.0 49.9 84.1 48.25 84.15 45.95 83.1 44.25 82.4 42.15 81.1 L39.65 78.95 38.2 76.7" fill="none" stroke="#000000" stroke-linecap="round" stroke-linejoin="round" stroke-width="3.0"/>
  </g>
</svg>
