<?xml version="1.0" encoding="UTF-8" standalone="no"?>
<svg xmlns:xlink="http://www.w3.org/1999/xlink" height="111.05px" width="103.0px" xmlns="http://www.w3.org/2000/svg">
  <g transform="matrix(1.0, 0.0, 0.0, 1.0, 1.5, 1.5)">
    <path d="M0.0 49.95 L50.0 49.95 100.0 49.95 Q100.15 55.65 99.35 61.55 98.45 68.25 96.6 72.75 95.3 76.0 91.55 80.3 L85.15 86.95 76.35 95.85 Q70.8 101.15 66.65 103.65 63.4 105.6 58.6 106.85 53.95 108.05 50.05 108.05 46.1 108.05 41.45 106.85 36.7 105.6 33.45 103.65 29.35 101.15 23.8 95.85 L15.0 86.95 8.6 80.35 Q4.85 76.1 3.55 72.85 1.7 68.3 0.75 61.6 -0.1 55.6 0.0 49.95" fill="#ffffff" fill-rule="evenodd" stroke="none"/>
    <path d="M100.0 49.95 Q100.15 55.65 99.35 61.55 98.45 68.25 96.6 72.75 95.3 76.0 91.55 80.3 L85.15 86.95 76.35 95.85 Q70.8 101.15 66.65 103.65 63.4 105.6 58.6 106.85 53.95 108.05 50.05 108.05 46.1 108.05 41.45 106.85 36.7 105.6 33.45 103.65 29.35 101.15 23.8 95.85 L15.0 86.95 8.6 80.35 Q4.85 76.1 3.55 72.85 1.7 68.3 0.75 61.6 -0.1 55.6 0.0 49.95" fill="none" stroke="#000000" stroke-linecap="round" stroke-linejoin="round" stroke-width="3.0"/>
    <path d="M50.0 0.0 Q60.65 0.0 70.25 4.25 78.8 8.05 85.4 14.6 91.95 21.2 95.75 29.75 100.0 39.35 100.0 50.0 L50.0 50.0 0.0 50.0 Q0.0 39.35 4.25 29.75 8.05 21.2 14.6 14.6 21.2 8.05 29.75 4.25 39.35 0.0 50.0 0.0" fill="#ffffff" fill-rule="evenodd" stroke="none"/>
    <path d="M0.0 50.0 Q0.0 39.35 4.25 29.75 8.05 21.2 14.6 14.6 21.2 8.05 29.75 4.25 39.35 0.0 50.0 0.0 60.65 0.0 70.25 4.25 78.8 8.05 85.4 14.6 91.95 21.2 95.75 29.75 100.0 39.35 100.0 50.0" fill="none" stroke="#000000" stroke-linecap="round" stroke-linejoin="round" stroke-width="3.0"/>
    <path d="M60.55 73.95 L71.05 71.5 Q73.0 71.05 77.25 69.4 L81.2 67.95 80.65 72.75 80.35 73.95 78.8 77.05 75.0 79.45 69.4 81.5 59.9 83.45 50.2 84.5 40.5 83.65 30.9 81.9 25.0 80.25 21.3 77.25 20.65 76.25 19.3 73.15 18.8 68.0 22.7 69.6 Q26.95 71.3 28.9 71.7 L39.35 74.15 Q45.75 75.4 49.9 75.3 54.1 75.3 60.55 73.95" fill="#000000" fill-rule="evenodd" stroke="none"/>
    <path d="M50.2 78.5 L41.75 77.8 33.35 76.35 28.9 75.0 24.4 73.55 20.55 72.1 19.2 66.75 19.2 64.75 19.55 63.55 20.25 62.6 21.6 61.65 22.5 61.15 24.05 61.15 26.35 61.45 34.4 64.15 42.15 65.8 50.1 66.55 57.95 65.5 65.8 63.75 73.65 61.15 76.2 60.65 77.85 60.55 78.5 61.05 79.55 62.0 80.35 63.2 80.85 64.55 80.95 66.3 80.75 68.1 79.2 72.1 75.9 73.25 71.45 74.7 66.95 75.95 58.65 77.6 50.2 78.5" fill="#fafafa" fill-rule="evenodd" stroke="none"/>
    <path d="M56.6 66.0 L63.1 64.75 73.45 61.45 75.9 61.15 77.55 61.15 78.6 61.7 80.05 63.0 81.0 65.1 81.4 67.45 81.5 70.05 81.1 72.7 79.2 77.05 77.55 78.2 74.9 79.65 69.7 81.5 64.35 82.85 57.3 84.2 50.2 84.8 43.05 84.3 36.05 83.25 30.6 81.9 25.4 80.05 22.7 78.6 21.15 77.45 19.1 73.05 18.6 70.45 18.6 67.75 19.0 65.4 19.85 63.3 21.4 62.0 22.6 61.45 26.75 61.8 36.9 65.0 43.4 66.2 50.0 66.65 56.6 66.0 Z" fill="none" stroke="#000000" stroke-linecap="round" stroke-linejoin="round" stroke-width="3.0"/>
    <path d="M50.1 66.55 L50.2 78.5" fill="none" stroke="#000000" stroke-linecap="round" stroke-linejoin="round" stroke-width="1.0"/>
    <path d="M65.8 63.75 L66.4 69.85 66.95 75.95" fill="none" stroke="#000000" stroke-linecap="round" stroke-linejoin="round" stroke-width="1.0"/>
    <path d="M34.4 64.15 L33.9 70.25 33.35 76.35" fill="none" stroke="#000000" stroke-linecap="round" stroke-linejoin="round" stroke-width="1.0"/>
    <path d="M79.2 72.1 L75.9 73.25 71.45 74.7 66.95 75.95 58.65 77.6 50.2 78.5 41.75 77.8 33.35 76.35 28.9 75.0 24.4 73.55 20.55 72.1" fill="none" stroke="#000000" stroke-linecap="round" stroke-linejoin="round" stroke-width="1.0"/>
  </g>
</svg>
