<?xml version="1.0" encoding="UTF-8" standalone="no"?>
<svg xmlns:xlink="http://www.w3.org/1999/xlink" height="20.95px" width="24.6px" xmlns="http://www.w3.org/2000/svg">
  <g transform="matrix(1.0, 0.0, 0.0, 1.0, 12.3, 0.75)">
    <path d="M4.55 0.0 Q7.45 0.0 9.5 2.05 11.5 4.05 11.55 6.85 L11.55 7.25 Q11.5 10.0 9.5 12.0 7.45 14.05 4.55 14.05 L2.0 14.05 0.0 19.45 -1.95 14.05 -4.55 14.05 Q-7.45 14.05 -9.5 12.0 -11.55 9.95 -11.55 7.05 L-11.55 7.0 Q-11.55 4.1 -9.5 2.05 -7.45 0.0 -4.55 0.0 L4.55 0.0" fill="#ffffff" fill-rule="evenodd" stroke="none"/>
    <path d="M4.55 0.0 L-4.55 0.0 Q-7.45 0.0 -9.5 2.05 -11.55 4.1 -11.55 7.0 L-11.55 7.05 Q-11.55 9.95 -9.5 12.0 -7.45 14.05 -4.55 14.05 L-1.95 14.05 0.0 19.45 2.0 14.05 4.55 14.05 Q7.45 14.05 9.5 12.0 11.5 10.0 11.55 7.25 L11.55 6.85 Q11.5 4.05 9.5 2.05 7.45 0.0 4.55 0.0 Z" fill="none" stroke="#000000" stroke-linecap="round" stroke-linejoin="round" stroke-width="1.5"/>
  </g>
</svg>
