<?xml version="1.0" encoding="UTF-8" standalone="no"?>
<svg xmlns:xlink="http://www.w3.org/1999/xlink" height="25.35px" width="29.1px" xmlns="http://www.w3.org/2000/svg">
  <g transform="matrix(1.0, 0.0, 0.0, 1.0, 14.55, 0.75)">
    <path d="M11.4 2.35 Q13.8 4.75 13.8 8.1 13.8 11.5 11.4 13.85 9.45 15.85 6.85 16.2 L5.7 16.25 4.4 16.25 Q5.4 20.9 11.6 23.85 2.85 23.5 -0.65 16.5 -4.15 23.5 -12.9 23.85 -6.7 20.9 -5.7 16.25 L-7.0 16.15 Q-9.55 15.8 -11.45 13.85 -13.8 11.5 -13.8 8.1 -13.8 4.75 -11.45 2.35 -9.1 0.0 -5.7 0.0 L5.7 0.0 Q9.05 0.0 11.4 2.35" fill="#ffffff" fill-rule="evenodd" stroke="none"/>
    <path d="M11.4 2.35 Q9.05 0.0 5.7 0.0 L-5.7 0.0 Q-9.1 0.0 -11.45 2.35 -13.8 4.75 -13.8 8.1 -13.8 11.5 -11.45 13.85 -9.55 15.8 -7.0 16.15 L-5.7 16.25 Q-6.7 20.9 -12.9 23.85 -4.15 23.5 -0.65 16.5 2.85 23.5 11.6 23.85 5.4 20.9 4.4 16.25 L5.7 16.25 6.85 16.2 Q9.45 15.85 11.4 13.85 13.8 11.5 13.8 8.1 13.8 4.75 11.4 2.35 Z" fill="none" stroke="#000000" stroke-linecap="round" stroke-linejoin="round" stroke-width="1.5"/>
  </g>
</svg>
