<?xml version="1.0" encoding="UTF-8" standalone="no"?>
<svg xmlns:xlink="http://www.w3.org/1999/xlink" height="45.8px" width="121.3px" xmlns="http://www.w3.org/2000/svg">
  <g transform="matrix(1.0, 0.0, 0.0, 1.0, 0.0, 0.35)">
    <path d="M121.3 44.35 L28.0 44.35 Q34.15 43.85 39.1 40.8 32.95 42.0 25.0 42.0 16.1 42.0 10.2 39.65 15.8 43.75 23.05 44.35 L0.0 44.35 0.0 0.0 22.65 0.0 29.5 -0.3 33.25 0.0 121.3 0.0 121.3 44.35 M1.25 22.85 L1.4 25.4 2.0 17.4 Q1.25 20.0 1.25 22.85" fill="#48b700" fill-opacity="0.0" fill-rule="evenodd" stroke="none"/>
    <path d="M36.45 22.85 Q36.45 28.55 32.4 32.55 28.4 36.6 22.7 36.6 19.05 36.6 16.1 34.95 L34.8 16.3 Q36.45 19.25 36.45 22.85 M29.3 10.75 L10.6 29.45 Q8.95 26.45 8.95 22.85 8.95 17.15 12.95 13.1 17.0 9.1 22.7 9.1 26.35 9.1 29.3 10.75" fill="#48b700" fill-opacity="0.0" fill-rule="evenodd" stroke="none"/>
    <path d="M29.3 10.75 Q26.35 9.1 22.7 9.1 17.0 9.1 12.95 13.1 8.95 17.15 8.95 22.85 8.95 26.45 10.6 29.45 L29.3 10.75 M36.45 22.85 Q36.45 19.25 34.8 16.3 L16.1 34.95 Q19.05 36.6 22.7 36.6 28.4 36.6 32.4 32.55 36.45 28.55 36.45 22.85 M37.95 7.55 Q44.3 13.9 44.3 22.85 44.3 31.8 37.95 38.1 32.45 43.65 24.9 44.35 L22.7 44.45 20.5 44.35 Q12.95 43.65 7.4 38.1 1.1 31.8 1.1 22.85 1.1 13.9 7.4 7.55 13.75 1.25 22.7 1.25 31.65 1.25 37.95 7.55" fill="#cc0000" fill-rule="evenodd" stroke="none"/>
    <path d="M36.45 22.85 Q36.45 28.55 32.4 32.55 28.4 36.6 22.7 36.6 19.05 36.6 16.1 34.95 L34.8 16.3 Q36.45 19.25 36.45 22.85 M29.3 10.75 L10.6 29.45 Q8.95 26.45 8.95 22.85 8.95 17.15 12.95 13.1 17.0 9.1 22.7 9.1 26.35 9.1 29.3 10.75 M37.95 7.55 Q44.3 13.9 44.3 22.85 44.3 31.8 37.95 38.1 32.45 43.65 24.9 44.35 L22.7 44.45 20.5 44.35 Q12.95 43.65 7.4 38.1 1.1 31.8 1.1 22.85 1.1 13.9 7.4 7.55 13.75 1.25 22.7 1.25 31.65 1.25 37.95 7.55" fill="none" stroke="#000000" stroke-linecap="round" stroke-linejoin="round" stroke-width="2.0"/>
  </g>
</svg>
