<?xml version="1.0" encoding="UTF-8" standalone="no"?>
<svg xmlns:xlink="http://www.w3.org/1999/xlink" height="40.8px" width="56.0px" xmlns="http://www.w3.org/2000/svg">
  <g transform="matrix(1.0, 0.0, 0.0, 1.0, 1.0, 1.0)">
    <path d="M46.1 33.15 Q38.15 38.8 27.0 38.8 15.8 38.8 7.9 33.15 0.0 27.45 0.0 19.4 0.0 11.4 7.9 5.7 15.8 0.0 27.0 0.0 38.15 0.0 46.1 5.7 54.0 11.4 54.0 19.4 54.0 27.45 46.1 33.15" fill="#cc0000" fill-rule="evenodd" stroke="none"/>
    <path d="M46.1 33.15 Q38.15 38.8 27.0 38.8 15.8 38.8 7.9 33.15 0.0 27.45 0.0 19.4 0.0 11.4 7.9 5.7 15.8 0.0 27.0 0.0 38.15 0.0 46.1 5.7 54.0 11.4 54.0 19.4 54.0 27.45 46.1 33.15 Z" fill="none" stroke="#ffffff" stroke-linecap="round" stroke-linejoin="round" stroke-width="2.0"/>
  </g>
</svg>
