<?xml version="1.0" encoding="UTF-8" standalone="no"?>
<svg xmlns:xlink="http://www.w3.org/1999/xlink" height="37.0px" width="55.0px" xmlns="http://www.w3.org/2000/svg">
  <g transform="matrix(1.0, 0.0, 0.0, 1.0, 1.0, 1.0)">
    <path d="M53.0 35.0 L0.0 35.0 0.0 0.0 53.0 0.0 53.0 35.0 Z" fill="none" stroke="#000000" stroke-linecap="round" stroke-linejoin="round" stroke-width="2.0"/>
    <path d="M40.0 15.1 L33.35 15.1 34.35 27.8 18.65 27.8 19.65 15.1 13.0 15.1 13.0 9.8 21.95 7.2 Q26.35 10.15 31.1 7.2 L40.0 9.8 40.0 15.1" fill="#ffffff" fill-rule="evenodd" stroke="none"/>
    <path d="M40.0 15.1 L40.0 9.8 31.1 7.2 Q26.35 10.15 21.95 7.2 L13.0 9.8 13.0 15.1 19.65 15.1 18.65 27.8 34.35 27.8 33.35 15.1 40.0 15.1 Z" fill="none" stroke="#000000" stroke-linecap="round" stroke-linejoin="round" stroke-width="1.0"/>
  </g>
</svg>
