<?xml version="1.0" encoding="UTF-8" standalone="no"?>
<svg xmlns:xlink="http://www.w3.org/1999/xlink" height="49.5px" width="119.5px" xmlns="http://www.w3.org/2000/svg">
  <g transform="matrix(1.0, 0.0, 0.0, 1.0, 4.5, 3.5)">
    <path d="M115.0 -3.5 L115.0 46.0 -4.5 46.0 -4.5 -3.5 115.0 -3.5" fill="#010101" fill-opacity="0.0" fill-rule="evenodd" stroke="none"/>
    <path d="M0.0 0.0 L34.0 0.0 34.0 42.0 0.0 42.0 0.0 0.0" fill="#ffffff" fill-rule="evenodd" stroke="none"/>
    <path d="M0.0 0.0 L34.0 0.0 34.0 42.0 0.0 42.0 0.0 0.0 Z" fill="none" stroke="#000000" stroke-linecap="square" stroke-linejoin="miter" stroke-miterlimit="3.0" stroke-width="1.5"/>
    <path d="M72.0 42.0 L38.0 42.0 38.0 0.0 72.0 0.0 72.0 42.0" fill="#ffffff" fill-rule="evenodd" stroke="none"/>
    <path d="M72.0 42.0 L38.0 42.0 38.0 0.0 72.0 0.0 72.0 42.0 Z" fill="none" stroke="#000000" stroke-linecap="square" stroke-linejoin="miter" stroke-miterlimit="3.0" stroke-width="1.5"/>
    <path d="M76.0 0.0 L110.0 0.0 110.0 42.0 76.0 42.0 76.0 0.0" fill="#ffffff" fill-rule="evenodd" stroke="none"/>
    <path d="M76.0 0.0 L110.0 0.0 110.0 42.0 76.0 42.0 76.0 0.0 Z" fill="none" stroke="#000000" stroke-linecap="square" stroke-linejoin="miter" stroke-miterlimit="3.0" stroke-width="1.5"/>
  </g>
</svg>
