<?xml version="1.0" encoding="UTF-8" standalone="no"?>
<svg xmlns:xlink="http://www.w3.org/1999/xlink" height="37.0px" width="55.0px" xmlns="http://www.w3.org/2000/svg">
  <g transform="matrix(1.0, 0.0, 0.0, 1.0, 1.0, 1.0)">
    <path d="M53.0 35.0 L0.0 35.0 0.0 0.0 53.0 0.0 53.0 35.0 Z" fill="none" stroke="#000000" stroke-linecap="round" stroke-linejoin="round" stroke-width="2.0"/>
    <path d="M24.7 26.1 L19.95 26.1 19.0 24.6 8.05 25.6 8.95 24.1 7.35 23.6 15.65 9.6 18.3 10.15 21.55 9.45 Q27.6 7.75 29.4 11.6 32.75 8.2 37.9 9.65 42.15 10.4 45.0 9.6 L43.85 11.6 45.7 11.6 37.4 25.6 25.8 24.5 24.75 26.05 25.0 26.1 24.7 26.1 24.75 26.05 24.7 26.1 M8.95 24.1 L15.6 23.3 19.9 23.05 Q21.7 23.4 22.3 25.05 23.95 22.15 29.25 23.2 L36.7 23.6 43.85 11.6 36.7 23.6 29.25 23.2 Q23.95 22.15 22.3 25.05 21.7 23.4 19.9 23.05 L15.6 23.3 8.95 24.1 M29.4 11.6 L22.3 25.05 29.4 11.6" fill="#ffffff" fill-rule="evenodd" stroke="none"/>
    <path d="M24.7 26.1 L19.95 26.1 19.0 24.6 8.05 25.6 8.95 24.1 7.35 23.6 15.65 9.6 18.3 10.15 21.55 9.45 Q27.6 7.75 29.4 11.6 32.75 8.2 37.9 9.65 42.15 10.4 45.0 9.6 L43.85 11.6 45.7 11.6 37.4 25.6 25.8 24.5 24.75 26.05 M24.7 26.1 L24.75 26.05 M43.85 11.6 L36.7 23.6 29.25 23.2 Q23.95 22.15 22.3 25.05 21.7 23.4 19.9 23.05 L15.6 23.3 8.95 24.1" fill="none" stroke="#000000" stroke-linecap="round" stroke-linejoin="round" stroke-width="1.0"/>
    <path d="M22.3 25.05 L29.4 11.6" fill="none" stroke="#000000" stroke-linecap="round" stroke-linejoin="round" stroke-width="0.7000000000000001"/>
  </g>
</svg>
