<?xml version="1.0" encoding="UTF-8" standalone="no"?>
<svg xmlns:xlink="http://www.w3.org/1999/xlink" height="122.05px" width="110.75px" xmlns="http://www.w3.org/2000/svg">
  <g transform="matrix(1.0, 0.0, 0.0, 1.0, 1.5, 1.5)">
    <path d="M103.95 61.75 Q104.0 67.05 103.25 72.55 102.35 79.25 100.5 83.75 99.2 87.0 95.45 91.3 L89.05 97.95 80.25 106.85 Q74.7 112.15 70.55 114.65 67.3 116.6 62.5 117.85 57.85 119.05 53.95 119.05 50.0 119.05 45.35 117.85 40.6 116.6 37.35 114.65 33.25 112.15 27.7 106.85 L18.9 97.95 12.5 91.35 Q8.75 87.1 7.45 83.85 5.6 79.3 4.65 72.6 3.8 66.65 3.9 61.0 4.25 58.15 6.9 55.35 L11.05 51.0 13.3 47.65 15.3 44.2 17.75 36.95 Q19.25 32.2 21.0 30.25 23.25 27.7 26.9 25.65 30.65 23.55 33.85 23.15 36.95 22.7 43.15 24.25 50.1 26.0 53.9 26.0 57.7 26.0 64.65 24.25 70.85 22.7 73.95 23.15 77.15 23.55 80.9 25.65 84.55 27.7 86.8 30.25 88.55 32.2 90.05 36.95 L92.5 44.2 94.5 47.65 96.75 51.0 100.9 55.35 Q103.55 58.15 103.9 61.0 L102.1 60.2 102.2 61.0 103.45 61.0 103.7 62.55 103.85 62.1 103.95 61.75 M3.9 61.0 L5.35 61.0 5.35 60.6 3.9 61.0" fill="#ffffff" fill-rule="evenodd" stroke="none"/>
    <path d="M72.65 9.3 L81.65 9.0 84.3 9.5 86.25 10.4 87.3 11.15 88.25 12.05 89.4 14.1 90.45 16.25 92.3 20.1 94.25 23.95 98.9 31.35 103.6 38.8 105.6 42.3 107.2 46.0 107.7 48.7 107.6 51.45 Q107.35 52.75 106.35 54.95 L104.8 58.4 104.0 61.55 103.95 61.75 103.85 62.1 103.7 62.55 103.45 61.0 102.2 61.0 102.1 60.2 103.9 61.0 Q103.55 58.15 100.9 55.35 L96.75 51.0 94.5 47.65 92.5 44.2 90.05 36.95 Q88.55 32.2 86.8 30.25 84.55 27.7 80.9 25.65 77.15 23.55 73.95 23.15 70.85 22.7 64.65 24.25 57.7 26.0 53.9 26.0 50.1 26.0 43.15 24.25 36.95 22.7 33.85 23.15 30.65 23.55 26.9 25.65 23.25 27.7 21.0 30.25 19.25 32.2 17.75 36.95 L15.3 44.2 13.3 47.65 11.05 51.0 6.9 55.35 Q4.25 58.15 3.9 61.0 L5.35 60.6 5.35 61.0 3.9 61.0 3.9 60.95 3.9 60.5 3.75 60.95 2.3 56.9 Q0.8 52.45 0.35 50.4 0.05 49.1 0.0 47.35 0.0 45.75 0.15 44.3 L0.7 42.25 1.6 40.35 Q2.75 38.55 5.25 35.35 L8.95 30.4 11.0 27.45 12.9 24.45 14.95 19.7 16.0 17.4 17.15 15.2 18.8 12.95 20.7 11.0 Q21.85 10.15 23.65 9.2 L26.75 7.75 31.3 6.25 35.95 4.85 43.05 2.5 Q47.55 1.0 50.2 0.4 L53.2 0.05 56.3 0.0 60.25 0.55 62.2 1.2 64.0 2.15 70.65 7.6 72.05 8.8 72.6 9.3 72.65 9.3 74.75 11.15 72.65 9.3" fill="#666666" fill-rule="evenodd" stroke="none"/>
    <path d="M72.65 9.3 L81.65 9.0 84.3 9.5 86.25 10.4 87.3 11.15 88.25 12.05 89.4 14.1 90.45 16.25 92.3 20.1 94.25 23.95 98.9 31.35 103.6 38.8 105.6 42.3 107.2 46.0 107.7 48.7 107.6 51.45 Q107.35 52.75 106.35 54.95 L104.8 58.4 104.0 61.55 M103.95 61.75 Q104.0 67.05 103.25 72.55 102.35 79.25 100.5 83.75 99.2 87.0 95.45 91.3 L89.05 97.95 80.25 106.85 Q74.7 112.15 70.55 114.65 67.3 116.6 62.5 117.85 57.85 119.05 53.95 119.05 50.0 119.05 45.35 117.85 40.6 116.6 37.35 114.65 33.25 112.15 27.7 106.85 L18.9 97.95 12.5 91.35 Q8.75 87.1 7.45 83.85 5.6 79.3 4.65 72.6 3.8 66.65 3.9 61.0 L3.9 60.95 3.9 60.5 M3.75 60.95 L2.3 56.9 Q0.8 52.45 0.35 50.4 0.05 49.1 0.0 47.35 0.0 45.75 0.15 44.3 L0.7 42.25 1.6 40.35 Q2.75 38.55 5.25 35.35 L8.95 30.4 11.0 27.45 12.9 24.45 14.95 19.7 16.0 17.4 17.15 15.2 18.8 12.95 20.7 11.0 Q21.85 10.15 23.65 9.2 L26.75 7.75 31.3 6.25 35.95 4.85 43.05 2.5 Q47.55 1.0 50.2 0.4 L53.2 0.05 56.3 0.0 60.25 0.55 62.2 1.2 64.0 2.15 70.65 7.6 72.05 8.8 72.65 9.3 74.75 11.15 M103.9 61.0 Q103.55 58.15 100.9 55.35 L96.75 51.0 94.5 47.65 92.5 44.2 90.05 36.95 Q88.55 32.2 86.8 30.25 84.55 27.7 80.9 25.65 77.15 23.55 73.95 23.15 70.85 22.7 64.65 24.25 57.7 26.0 53.9 26.0 50.1 26.0 43.15 24.25 36.95 22.7 33.85 23.15 30.65 23.55 26.9 25.65 23.25 27.7 21.0 30.25 19.25 32.2 17.75 36.95 L15.3 44.2 13.3 47.65 11.05 51.0 6.9 55.35 Q4.25 58.15 3.9 61.0 M103.85 62.1 L103.7 62.55 M72.6 9.3 L72.65 9.3 Z" fill="none" stroke="#000000" stroke-linecap="round" stroke-linejoin="round" stroke-width="3.0"/>
  </g>
</svg>
