<?xml version="1.0" encoding="UTF-8" standalone="no"?>
<svg xmlns:xlink="http://www.w3.org/1999/xlink" height="95.3px" width="102.75px" xmlns="http://www.w3.org/2000/svg">
  <g transform="matrix(1.0, 0.0, 0.0, 1.0, 47.65, 47.65)">
    <path d="M32.95 -33.0 Q44.15 -21.8 46.2 -6.8 L54.1 -6.8 35.5 13.55 16.9 -6.8 26.0 -6.8 Q25.3 -9.55 24.0 -12.05 22.1 -15.75 18.9 -18.95 L17.8 -20.0 16.25 -21.3 Q14.25 -22.9 12.1 -24.0 6.65 -26.8 0.0 -26.8 L-3.3 -26.6 -5.3 -26.3 Q-13.05 -24.85 -18.95 -18.95 L-22.1 -15.25 -23.15 -13.6 Q-26.8 -7.55 -26.8 0.0 -26.8 2.75 -26.3 5.35 L-25.9 7.1 Q-25.2 9.7 -24.0 12.1 -22.1 15.75 -18.95 18.9 L-15.5 21.85 -14.05 22.85 -12.05 24.0 Q-6.6 26.8 0.0 26.8 L2.8 26.7 4.5 26.45 Q12.75 25.15 18.9 18.9 L19.8 18.0 20.25 17.5 20.95 16.65 22.75 14.25 36.4 29.2 35.35 30.4 33.7 32.25 32.95 32.95 Q22.25 43.65 8.15 46.0 L5.1 46.4 0.0 46.65 Q-14.2 46.65 -25.3 39.25 L-27.9 37.45 Q-30.55 35.4 -33.0 32.95 -42.7 23.25 -45.5 10.75 L-46.1 7.6 Q-46.65 3.9 -46.65 0.0 -46.65 -13.9 -39.55 -24.9 L-37.65 -27.6 Q-35.6 -30.4 -33.0 -33.0 -22.55 -43.4 -8.9 -45.85 L-5.55 -46.35 0.0 -46.65 Q15.6 -46.65 27.5 -37.75 L30.15 -35.6 32.95 -33.0 M29.85 -29.9 L27.4 -32.15 20.45 -23.35 21.85 -22.0 Q28.45 -15.4 30.3 -6.8 L41.75 -6.8 Q39.75 -20.0 29.85 -29.9 M18.65 -24.8 L25.0 -34.1 Q14.2 -42.25 0.0 -42.25 L-5.05 -41.95 -3.8 -30.9 -0.1 -31.1 Q10.55 -31.1 18.65 -24.8 M21.85 21.95 Q14.7 29.1 5.3 30.7 L7.35 41.7 Q20.15 39.55 29.85 29.85 L30.75 29.0 23.1 20.65 21.85 21.95 M0.0 42.25 L4.6 42.05 3.3 30.95 -0.1 31.1 Q-9.25 31.1 -16.55 26.45 L-22.85 35.65 Q-12.8 42.25 0.0 42.25 M-6.05 -30.55 L-8.1 -41.5 Q-20.5 -39.3 -29.9 -29.9 -32.3 -27.5 -34.2 -24.9 L-25.5 -17.95 -22.1 -22.0 Q-15.15 -28.9 -6.05 -30.55 M-26.75 -16.1 L-35.95 -22.4 Q-42.25 -12.5 -42.25 0.0 -42.25 3.65 -41.7 7.1 L-30.7 5.85 Q-31.2 3.0 -31.2 0.0 -31.2 -8.95 -26.75 -16.1 M-30.25 7.9 L-41.15 9.95 Q-38.6 21.15 -29.9 29.85 L-25.15 34.0 -18.25 25.3 -22.1 21.95 Q-28.25 15.8 -30.25 7.9" fill="#cccccc" fill-rule="evenodd" stroke="none"/>
    <path d="M21.85 21.95 L23.1 20.65 30.75 29.0 29.85 29.85 Q20.15 39.55 7.35 41.7 L5.3 30.7 Q14.7 29.1 21.85 21.95 M-6.05 -30.55 Q-15.15 -28.9 -22.1 -22.0 L-25.5 -17.95 -34.2 -24.9 Q-32.3 -27.5 -29.9 -29.9 -20.5 -39.3 -8.1 -41.5 L-6.05 -30.55" fill="#ffff00" fill-rule="evenodd" stroke="none"/>
    <path d="M-26.75 -16.1 Q-31.2 -8.95 -31.2 0.0 -31.2 3.0 -30.7 5.85 L-41.7 7.1 Q-42.25 3.65 -42.25 0.0 -42.25 -12.5 -35.95 -22.4 L-26.75 -16.1" fill="#02e302" fill-rule="evenodd" stroke="none"/>
    <path d="M29.85 -29.9 Q39.75 -20.0 41.75 -6.8 L30.3 -6.8 Q28.45 -15.4 21.85 -22.0 L20.45 -23.35 27.4 -32.15 29.85 -29.9 M-30.25 7.9 Q-28.25 15.8 -22.1 21.95 L-18.25 25.3 -25.15 34.0 -29.9 29.85 Q-38.6 21.15 -41.15 9.95 L-30.25 7.9" fill="#81ccfe" fill-rule="evenodd" stroke="none"/>
    <path d="M18.65 -24.8 Q10.55 -31.1 -0.1 -31.1 L-3.8 -30.9 -5.05 -41.95 0.0 -42.25 Q14.2 -42.25 25.0 -34.1 L18.65 -24.8 M0.0 42.25 Q-12.8 42.25 -22.85 35.65 L-16.55 26.45 Q-9.25 31.1 -0.1 31.1 L3.3 30.95 4.6 42.05 0.0 42.25" fill="#ec0202" fill-rule="evenodd" stroke="none"/>
    <path d="M32.95 -33.0 Q44.15 -21.8 46.2 -6.8 L54.1 -6.8 35.5 13.55 16.9 -6.8 26.0 -6.8 Q25.3 -9.55 24.0 -12.05 22.1 -15.75 18.9 -18.95 L17.8 -20.0 16.25 -21.3 Q14.25 -22.9 12.1 -24.0 6.65 -26.8 0.0 -26.8 L-3.3 -26.6 -5.3 -26.3 Q-13.05 -24.85 -18.95 -18.95 L-22.1 -15.25 -23.15 -13.6 Q-26.8 -7.55 -26.8 0.0 -26.8 2.75 -26.3 5.35 L-25.9 7.1 Q-25.2 9.7 -24.0 12.1 -22.1 15.75 -18.95 18.9 L-15.5 21.85 -14.05 22.85 -12.05 24.0 Q-6.6 26.8 0.0 26.8 L2.8 26.7 4.5 26.45 Q12.75 25.15 18.9 18.9 L19.8 18.0 20.25 17.5 20.95 16.65 22.75 14.25 36.4 29.2 35.35 30.4 33.7 32.25 32.95 32.95 Q22.25 43.65 8.15 46.0 L5.1 46.4 0.0 46.65 Q-14.2 46.65 -25.3 39.25 L-27.9 37.45 Q-30.55 35.4 -33.0 32.95 -42.7 23.25 -45.5 10.75 L-46.1 7.6 Q-46.65 3.9 -46.65 0.0 -46.65 -13.9 -39.55 -24.9 L-37.65 -27.6 Q-35.6 -30.4 -33.0 -33.0 -22.55 -43.4 -8.9 -45.85 L-5.55 -46.35 0.0 -46.65 Q15.6 -46.65 27.5 -37.75 L30.15 -35.6 32.95 -33.0 M29.85 -29.9 Q39.75 -20.0 41.75 -6.8 L30.3 -6.8 Q28.45 -15.4 21.85 -22.0 L20.45 -23.35 27.4 -32.15 29.85 -29.9 M18.65 -24.8 Q10.55 -31.1 -0.1 -31.1 L-3.8 -30.9 -5.05 -41.95 0.0 -42.25 Q14.2 -42.25 25.0 -34.1 L18.65 -24.8 M21.85 21.95 Q14.7 29.1 5.3 30.7 L7.35 41.7 Q20.15 39.55 29.85 29.85 L30.75 29.0 23.1 20.65 21.85 21.95 M0.0 42.25 Q-12.8 42.25 -22.85 35.65 L-16.55 26.45 Q-9.25 31.1 -0.1 31.1 L3.3 30.95 4.6 42.05 0.0 42.25 M-6.05 -30.55 Q-15.15 -28.9 -22.1 -22.0 L-25.5 -17.95 -34.2 -24.9 Q-32.3 -27.5 -29.9 -29.9 -20.5 -39.3 -8.1 -41.5 L-6.05 -30.55 M-26.75 -16.1 Q-31.2 -8.95 -31.2 0.0 -31.2 3.0 -30.7 5.85 L-41.7 7.1 Q-42.25 3.65 -42.25 0.0 -42.25 -12.5 -35.95 -22.4 L-26.75 -16.1 M-30.25 7.9 L-41.15 9.95 Q-38.6 21.15 -29.9 29.85 L-25.15 34.0 -18.25 25.3 -22.1 21.95 Q-28.25 15.8 -30.25 7.9" fill="none" stroke="#000000" stroke-linecap="round" stroke-linejoin="round" stroke-width="2.0"/>
  </g>
</svg>
