<?xml version="1.0" encoding="UTF-8" standalone="no"?>
<svg xmlns:xlink="http://www.w3.org/1999/xlink" height="32.9px" width="46.8px" xmlns="http://www.w3.org/2000/svg">
  <g transform="matrix(1.0, 0.0, 0.0, 1.0, 23.4, 16.5)">
    <path d="M2.3 -8.85 L2.35 -9.55 -2.35 -9.55 -1.5 2.35 -1.45 3.05 1.65 3.05 2.4 -8.85 2.3 -8.85 M-2.05 9.25 L-2.05 9.95 2.35 9.95 2.35 5.85 2.3 5.85 2.3 5.15 -2.1 5.15 -2.1 9.25 -2.05 9.25 M-18.8 -12.3 L18.75 -12.3 18.75 11.95 -18.8 11.95 -18.8 -12.3" fill="#ffffff" fill-rule="evenodd" stroke="none"/>
    <path d="M-18.8 -12.3 L-18.8 11.95 18.75 11.95 18.75 -12.3 -18.8 -12.3 M-22.9 -16.0 L22.9 -16.0 22.9 15.9 -22.9 15.9 -22.9 -16.0" fill="#cccccc" fill-rule="evenodd" stroke="none"/>
    <path d="M-1.5 2.35 L-2.35 -9.55 2.35 -9.55 2.3 -8.85 1.6 2.35 -1.5 2.35 M-2.05 9.25 L-2.1 9.25 -2.1 5.15 2.3 5.15 2.3 5.85 2.3 9.25 -2.05 9.25" fill="#ff0000" fill-rule="evenodd" stroke="none"/>
    <path d="M-18.8 -12.3 L-18.8 11.95 18.75 11.95 18.75 -12.3 -18.8 -12.3 M-22.9 -16.0 L-22.9 15.9 22.9 15.9 22.9 -16.0 -22.9 -16.0" fill="none" stroke="#000000" stroke-linecap="round" stroke-linejoin="round" stroke-width="1.0"/>
  </g>
</svg>
