<?xml version="1.0" encoding="UTF-8" standalone="no"?>
<svg xmlns:xlink="http://www.w3.org/1999/xlink" height="74.0px" width="41.0px" xmlns="http://www.w3.org/2000/svg">
  <g transform="matrix(1.0, 0.0, 0.0, 1.0, 0.5, 0.5)">
    <path d="M40.0 0.0 L40.0 73.0 0.0 73.0 0.0 0.0 40.0 0.0" fill="#cccccc" fill-rule="evenodd" stroke="none"/>
    <path d="M40.0 0.0 L40.0 73.0 0.0 73.0 0.0 0.0 40.0 0.0 Z" fill="none" stroke="#000000" stroke-linecap="round" stroke-linejoin="round" stroke-width="1.0"/>
    <path d="M34.2 47.2 L20.3 69.95 6.45 47.2 34.2 47.2 M6.5 29.75 L20.4 7.0 34.25 29.75 6.5 29.75" fill="#d8d8d8" fill-rule="evenodd" stroke="none"/>
    <path d="M34.2 47.2 L20.3 69.95 6.45 47.2 34.2 47.2 M6.5 29.75 L20.4 7.0 34.25 29.75 6.5 29.75" fill="none" stroke="#999999" stroke-linecap="round" stroke-linejoin="round" stroke-width="1.5"/>
  </g>
</svg>
