<?xml version="1.0" encoding="UTF-8" standalone="no"?>
<svg xmlns:xlink="http://www.w3.org/1999/xlink" height="111.05px" width="103.0px" xmlns="http://www.w3.org/2000/svg">
  <g transform="matrix(1.0, 0.0, 0.0, 1.0, 1.5, 1.5)">
    <path d="M95.75 29.75 Q100.0 39.35 100.0 49.95 L100.0 50.0 Q100.15 55.7 99.35 61.55 98.45 68.25 96.6 72.75 95.3 76.0 91.55 80.3 L85.15 86.95 76.35 95.85 Q70.8 101.15 66.65 103.65 63.4 105.6 58.6 106.85 53.95 108.05 50.05 108.05 46.1 108.05 41.45 106.85 36.7 105.6 33.45 103.65 29.35 101.15 23.8 95.85 L15.0 86.95 8.6 80.35 Q4.85 76.1 3.55 72.85 1.7 68.3 0.75 61.6 -0.1 55.65 0.0 50.0 L0.0 49.95 Q0.0 39.35 4.25 29.75 8.05 21.2 14.6 14.6 21.2 8.05 29.75 4.25 39.35 0.0 50.0 0.0 60.65 0.0 70.25 4.25 78.8 8.05 85.4 14.6 91.95 21.2 95.75 29.75" fill="#ffffff" fill-rule="evenodd" stroke="none"/>
    <path d="M95.75 29.75 Q100.0 39.35 100.0 49.95 L100.0 50.0 Q100.15 55.7 99.35 61.55 98.45 68.25 96.6 72.75 95.3 76.0 91.55 80.3 L85.15 86.95 76.35 95.85 Q70.8 101.15 66.65 103.65 63.4 105.6 58.6 106.85 53.95 108.05 50.05 108.05 46.1 108.05 41.45 106.85 36.7 105.6 33.45 103.65 29.35 101.15 23.8 95.85 L15.0 86.95 8.6 80.35 Q4.85 76.1 3.55 72.85 1.7 68.3 0.75 61.6 -0.1 55.65 0.0 50.0 L0.0 49.95 Q0.0 39.35 4.25 29.75 8.05 21.2 14.6 14.6 21.2 8.05 29.75 4.25 39.35 0.0 50.0 0.0 60.65 0.0 70.25 4.25 78.8 8.05 85.4 14.6 91.95 21.2 95.75 29.75 Z" fill="none" stroke="#000000" stroke-linecap="round" stroke-linejoin="round" stroke-width="3.0"/>
  </g>
</svg>
