<?xml version="1.0" encoding="UTF-8" standalone="no"?>
<svg xmlns:xlink="http://www.w3.org/1999/xlink" height="37.0px" width="55.0px" xmlns="http://www.w3.org/2000/svg">
  <g transform="matrix(1.0, 0.0, 0.0, 1.0, 1.0, 1.0)">
    <path d="M53.0 35.0 L0.0 35.0 0.0 0.0 53.0 0.0 53.0 35.0 Z" fill="none" stroke="#000000" stroke-linecap="round" stroke-linejoin="round" stroke-width="2.0"/>
    <path d="M23.15 20.6 L22.5 21.7 21.3 23.15 Q19.0 25.4 15.95 25.75 L15.95 26.15 17.5 26.15 18.4 26.55 Q18.75 26.9 18.75 27.4 L18.4 28.3 Q18.0 28.65 17.5 28.65 L15.95 28.65 15.95 30.35 15.6 31.25 Q15.2 31.6 14.7 31.6 14.2 31.6 13.85 31.25 L13.45 30.35 13.45 28.65 12.2 28.65 11.35 28.3 Q10.95 27.9 10.95 27.4 10.95 26.9 11.35 26.55 11.7 26.15 12.2 26.15 L13.45 26.15 13.45 25.7 Q10.6 25.3 8.45 23.15 5.75 20.45 5.75 16.7 5.75 12.95 8.45 10.3 11.1 7.6 14.85 7.6 16.65 7.6 18.25 8.25 L18.75 8.5 18.8 8.5 18.85 8.55 Q20.15 9.15 21.3 10.3 23.95 12.95 23.95 16.7 23.95 18.8 23.15 20.6 M20.9 19.5 L20.85 19.55 Q21.45 18.2 21.45 16.7 21.45 13.95 19.55 12.05 L17.75 10.8 17.6 10.75 17.3 10.55 14.85 10.1 Q12.1 10.1 10.2 12.05 8.25 13.95 8.25 16.7 8.25 19.45 10.2 21.4 12.1 23.3 14.85 23.3 17.6 23.3 19.55 21.4 L20.45 20.3 20.4 20.3 20.9 19.5 M41.35 21.4 Q43.25 19.45 43.25 16.7 43.25 13.95 41.35 12.05 39.4 10.1 36.65 10.1 33.9 10.1 32.0 12.05 L31.1 13.15 30.7 13.9 30.7 13.95 Q30.05 15.2 30.05 16.7 30.05 19.45 32.0 21.4 L33.8 22.7 34.25 22.9 36.65 23.3 Q39.4 23.3 41.35 21.4 M48.75 5.15 Q49.1 5.5 49.1 6.0 L49.1 6.2 49.1 6.4 49.1 10.1 48.75 11.0 Q48.35 11.35 47.85 11.35 47.35 11.35 47.0 11.0 46.6 10.6 46.6 10.1 L46.6 9.0 44.15 11.5 Q45.75 13.75 45.75 16.7 45.75 20.45 43.1 23.15 40.4 25.8 36.65 25.8 L33.35 25.25 33.25 25.2 32.8 24.95 32.7 24.95 30.25 23.15 Q27.55 20.45 27.55 16.7 27.55 14.6 28.45 12.85 L29.0 11.75 29.0 11.8 30.25 10.3 Q32.9 7.6 36.65 7.6 39.95 7.6 42.45 9.7 L44.85 7.25 44.15 7.25 Q43.65 7.25 43.3 6.9 42.9 6.5 42.9 6.0 42.9 5.5 43.3 5.15 43.65 4.75 44.15 4.75 L47.85 4.75 Q48.35 4.75 48.75 5.15" fill="#ffffff" fill-rule="evenodd" stroke="none"/>
    <path d="M48.75 5.15 Q48.35 4.75 47.85 4.75 L44.15 4.75 Q43.65 4.75 43.3 5.15 42.9 5.5 42.9 6.0 42.9 6.5 43.3 6.9 43.65 7.25 44.15 7.25 L44.85 7.25 42.45 9.7 Q39.95 7.6 36.65 7.6 32.9 7.6 30.25 10.3 L29.0 11.8 29.0 11.75 28.45 12.85 Q27.55 14.6 27.55 16.7 27.55 20.45 30.25 23.15 L32.7 24.95 32.8 24.95 33.25 25.2 33.35 25.25 36.65 25.8 Q40.4 25.8 43.1 23.15 45.75 20.45 45.75 16.7 45.75 13.75 44.15 11.5 L46.6 9.0 46.6 10.1 Q46.6 10.6 47.0 11.0 47.35 11.35 47.85 11.35 48.35 11.35 48.75 11.0 L49.1 10.1 49.1 6.4 49.1 6.2 49.1 6.0 Q49.1 5.5 48.75 5.15 M41.35 21.4 Q39.4 23.3 36.65 23.3 L34.25 22.9 33.8 22.7 32.0 21.4 Q30.05 19.45 30.05 16.7 30.05 15.2 30.7 13.95 L30.7 13.9 31.1 13.15 32.0 12.05 Q33.9 10.1 36.65 10.1 39.4 10.1 41.35 12.05 43.25 13.95 43.25 16.7 43.25 19.45 41.35 21.4 M20.9 19.5 L20.4 20.3 20.45 20.3 19.55 21.4 Q17.6 23.3 14.85 23.3 12.1 23.3 10.2 21.4 8.25 19.45 8.25 16.7 8.25 13.95 10.2 12.05 12.1 10.1 14.85 10.1 L17.3 10.55 17.6 10.75 17.75 10.8 19.55 12.05 Q21.45 13.95 21.45 16.7 21.45 18.2 20.85 19.55 L20.9 19.5 M23.15 20.6 Q23.95 18.8 23.95 16.7 23.95 12.95 21.3 10.3 20.15 9.15 18.85 8.55 L18.8 8.5 18.75 8.5 18.25 8.25 Q16.65 7.6 14.85 7.6 11.1 7.6 8.45 10.3 5.75 12.95 5.75 16.7 5.75 20.45 8.45 23.15 10.6 25.3 13.45 25.7 L13.45 26.15 12.2 26.15 Q11.7 26.15 11.35 26.55 10.95 26.9 10.95 27.4 10.95 27.9 11.35 28.3 L12.2 28.65 13.45 28.65 13.45 30.35 13.85 31.25 Q14.2 31.6 14.7 31.6 15.2 31.6 15.6 31.25 L15.95 30.35 15.95 28.65 17.5 28.65 Q18.0 28.65 18.4 28.3 L18.75 27.4 Q18.75 26.9 18.4 26.55 L17.5 26.15 15.95 26.15 15.95 25.75 Q19.0 25.4 21.3 23.15 L22.5 21.7 23.15 20.6" fill="none" stroke="#000000" stroke-linecap="round" stroke-linejoin="round" stroke-width="1.0"/>
  </g>
</svg>
