<?xml version="1.0" encoding="UTF-8" standalone="no"?>
<svg xmlns:xlink="http://www.w3.org/1999/xlink" height="37.0px" width="55.0px" xmlns="http://www.w3.org/2000/svg">
  <g transform="matrix(1.0, 0.0, 0.0, 1.0, 1.0, 1.0)">
    <path d="M53.0 35.0 L0.0 35.0 0.0 0.0 53.0 0.0 53.0 35.0 Z" fill="none" stroke="#000000" stroke-linecap="round" stroke-linejoin="round" stroke-width="2.0"/>
    <path d="M30.8 23.05 L31.05 23.6 31.05 23.7 30.8 23.05 M29.0 24.5 L28.95 24.45 28.7 23.85 29.0 24.5 M23.95 23.95 L23.65 24.45 23.6 24.5 23.95 23.95 M13.35 10.5 L14.15 10.1 14.2 10.1 13.35 10.5" fill="#ffffff" fill-rule="evenodd" stroke="none"/>
    <path d="M37.95 9.85 L38.75 10.15 39.75 10.6 40.6 11.35 41.4 12.1 42.1 12.5 42.6 12.7 43.1 13.1 43.2 13.35 43.25 13.65 43.25 13.95 43.15 14.2 42.9 14.5 42.7 14.65 42.4 14.7 42.15 14.7 41.55 14.5 41.1 14.2 40.4 13.75 39.3 13.45 38.25 13.05 37.25 12.35 36.55 11.7 36.35 11.55 36.05 11.4 35.35 10.95 34.75 10.55 33.95 9.7 32.85 8.5 32.6 10.15 31.3 11.7 Q30.15 12.75 29.95 13.2 29.8 13.6 30.0 14.8 L30.2 16.4 29.75 17.8 29.2 18.7 29.55 19.3 30.3 20.85 30.6 21.95 30.8 23.05 31.05 23.7 31.45 24.35 32.0 25.4 32.2 26.5 32.35 27.6 32.7 28.35 33.0 28.85 34.55 28.95 35.25 28.9 35.9 29.05 36.2 29.7 36.3 30.2 33.45 31.2 32.95 31.5 31.25 32.2 31.05 31.75 30.8 31.0 30.95 30.1 31.1 29.55 30.95 29.05 30.7 28.25 30.1 27.35 29.5 26.35 29.15 25.25 29.0 24.5 28.7 23.85 28.15 22.9 27.6 21.9 27.1 20.3 26.9 19.3 26.45 19.3 26.05 19.3 25.75 20.4 25.15 22.0 24.55 22.95 23.95 23.9 23.95 23.95 23.6 24.5 23.6 24.6 23.45 25.3 23.05 26.35 22.4 27.3 21.7 28.2 21.4 28.95 21.25 29.45 21.4 30.0 21.5 30.9 21.2 31.6 20.95 32.05 19.3 31.3 18.8 30.95 16.0 29.8 16.15 29.3 16.5 28.7 17.15 28.6 17.85 28.65 19.4 28.6 19.7 28.15 20.1 27.45 20.35 26.35 20.6 25.25 21.15 24.25 21.55 23.7 21.9 22.95 22.15 21.85 22.5 20.8 23.35 19.3 23.75 18.7 23.2 17.8 22.75 16.35 Q22.7 16.0 22.95 14.8 L23.0 13.2 21.65 11.7 20.35 10.15 Q20.1 9.4 20.1 8.5 L19.75 8.8 19.0 9.65 18.2 10.5 17.6 10.9 16.35 11.65 15.7 12.3 15.65 12.3 14.9 12.95 14.7 13.05 14.55 13.15 13.75 13.4 13.65 13.45 13.6 13.45 12.7 13.75 12.6 13.8 12.45 13.85 12.1 14.1 11.9 14.25 11.45 14.55 11.25 14.65 10.85 14.8 10.5 14.8 10.3 14.7 10.1 14.55 9.85 14.3 9.75 14.1 9.75 14.0 9.7 13.75 9.75 13.45 9.85 13.3 9.9 13.2 10.35 12.8 10.6 12.65 10.85 12.55 11.55 12.15 12.35 11.35 12.4 11.35 13.0 10.75 13.15 10.6 13.2 10.6 13.35 10.5 14.2 10.1 14.25 10.1 15.0 9.8 15.05 9.75 15.4 9.4 15.8 8.85 16.25 8.3 17.1 7.65 18.0 7.0 18.9 6.1 19.1 5.95 19.45 5.8 19.75 5.75 20.1 5.8 20.35 5.9 20.65 6.15 20.75 6.25 20.9 6.15 24.4 5.55 24.85 3.4 28.05 3.4 28.55 5.55 32.05 6.15 32.2 6.25 32.3 6.15 32.85 5.8 33.2 5.75 33.5 5.8 34.05 6.1 34.4 6.5 34.95 7.05 35.85 7.65 36.7 8.3 37.15 8.85 37.55 9.45 37.75 9.7 37.95 9.85 M24.3 6.15 L24.4 5.55 24.3 6.15 M28.65 6.15 L28.55 5.55 28.65 6.15" fill="#66ff00" fill-rule="evenodd" stroke="none"/>
    <path d="M37.95 9.85 L38.75 10.15 39.75 10.6 40.6 11.35 41.4 12.1 42.1 12.5 42.6 12.7 43.1 13.1 43.2 13.35 43.25 13.65 43.25 13.95 43.15 14.2 42.9 14.5 42.7 14.65 42.4 14.7 42.15 14.7 41.55 14.5 41.1 14.2 40.4 13.75 39.3 13.45 38.25 13.05 37.25 12.35 36.55 11.7 36.05 11.4 35.35 10.95 34.75 10.55 33.95 9.7 32.85 8.5 32.6 10.15 31.3 11.7 Q30.15 12.75 29.95 13.2 29.8 13.6 30.0 14.8 L30.2 16.4 29.75 17.8 29.2 18.7 29.55 19.3 30.3 20.85 30.6 21.95 30.8 23.05 31.05 23.6 31.05 23.7 31.45 24.35 32.0 25.4 32.2 26.5 32.35 27.6 32.7 28.35 33.0 28.85 34.55 28.95 35.25 28.9 35.9 29.05 36.2 29.7 36.3 30.2 33.45 31.2 32.95 31.5 31.25 32.2 31.05 31.75 30.8 31.0 30.95 30.1 31.1 29.55 30.95 29.05 30.7 28.25 30.1 27.35 29.5 26.35 29.15 25.25 29.0 24.5 28.95 24.45 28.7 23.85 28.15 22.9 27.6 21.9 27.1 20.3 26.9 19.3 26.45 19.3 26.05 19.3 25.75 20.4 25.15 22.0 24.55 22.95 23.95 23.9 23.95 23.95 23.65 24.45 23.6 24.5 23.6 24.6 23.45 25.3 23.05 26.35 22.4 27.3 21.7 28.2 21.4 28.95 21.25 29.45 21.4 30.0 21.5 30.9 21.2 31.6 20.95 32.05 19.3 31.3 18.8 30.95 16.0 29.8 16.15 29.3 16.5 28.7 17.15 28.6 17.85 28.65 19.4 28.6 19.7 28.15 20.1 27.45 20.35 26.35 20.6 25.25 21.15 24.25 21.55 23.7 21.9 22.95 22.15 21.85 22.5 20.8 23.35 19.3 23.75 18.7 23.2 17.8 22.75 16.35 Q22.7 16.0 22.95 14.8 L23.0 13.2 21.65 11.7 20.35 10.15 Q20.1 9.4 20.1 8.5 L19.75 8.8 19.0 9.65 18.2 10.5 17.6 10.9 16.35 11.65 15.7 12.3 15.65 12.3 14.9 12.95 14.7 13.05 14.55 13.15 13.75 13.4 13.65 13.45 13.6 13.45 12.7 13.75 12.6 13.8 12.45 13.85 12.1 14.1 11.9 14.25 11.45 14.55 11.25 14.65 10.9 14.8 10.85 14.8 10.5 14.8 10.3 14.7 10.1 14.55 9.85 14.3 9.75 14.1 9.75 14.0 9.7 13.75 9.75 13.45 9.85 13.3 9.9 13.2 10.15 12.95 10.35 12.8 10.6 12.65 10.85 12.55 11.55 12.15 12.35 11.35 12.4 11.35 13.0 10.75 13.15 10.6 13.2 10.6 13.35 10.5 14.2 10.1 14.25 10.1 15.05 9.75 15.4 9.4 15.8 8.85 16.25 8.3 17.1 7.65 18.0 7.0 18.9 6.1 19.1 5.95 19.45 5.8 19.75 5.75 20.1 5.8 20.35 5.9 20.65 6.15 20.75 6.25 20.9 6.15 24.4 5.55 24.85 3.4 28.05 3.4 28.55 5.55 32.05 6.15 32.2 6.25 32.3 6.15 32.85 5.8 33.2 5.75 33.5 5.8 34.05 6.1 34.4 6.5 34.95 7.05 35.85 7.65 36.7 8.3 37.15 8.85 37.55 9.45 37.95 9.85 37.75 9.7 37.55 9.45 M36.55 11.7 L36.35 11.55 36.05 11.4 M28.55 5.55 L28.65 6.15 M24.4 5.55 L24.3 6.15 M23.95 23.95 L23.6 24.5 M29.0 24.5 L28.7 23.85 M30.8 23.05 L31.05 23.7 M15.0 9.8 L15.05 9.75" fill="none" stroke="#000000" stroke-linecap="round" stroke-linejoin="round" stroke-width="1.0"/>
  </g>
</svg>
