<?xml version="1.0" encoding="UTF-8" standalone="no"?>
<svg xmlns:xlink="http://www.w3.org/1999/xlink" height="37.0px" width="55.0px" xmlns="http://www.w3.org/2000/svg">
  <g transform="matrix(1.0, 0.0, 0.0, 1.0, 1.0, 1.0)">
    <path d="M53.0 35.0 L0.0 35.0 0.0 0.0 53.0 0.0 53.0 35.0 Z" fill="none" stroke="#000000" stroke-linecap="round" stroke-linejoin="round" stroke-width="2.0"/>
    <path d="M17.4 8.3 L17.7 8.0 18.0 7.55 18.35 7.1 19.05 6.6 19.75 6.1 20.6 5.25 20.9 5.15 21.15 5.1 21.6 5.2 21.85 5.4 21.95 5.5 22.05 5.4 24.8 4.95 25.15 3.25 27.7 3.25 28.1 4.95 30.85 5.4 31.0 5.5 31.05 5.4 31.5 5.15 31.8 5.1 32.0 5.15 32.45 5.4 32.75 5.7 33.15 6.15 33.9 6.6 34.55 7.1 34.9 7.55 35.25 8.05 35.4 8.25 35.55 8.35 36.2 8.6 36.95 8.95 37.55 9.45 37.65 9.55 38.3 10.15 38.85 10.45 39.25 10.6 39.6 10.9 39.7 11.1 39.75 11.35 39.75 11.6 39.65 11.8 39.45 12.05 39.3 12.15 39.05 12.2 38.85 12.2 38.4 12.05 38.05 11.8 37.5 11.45 36.6 11.2 35.8 10.9 35.0 10.35 34.45 9.8 33.5 9.2 33.0 8.9 32.4 8.25 31.5 7.3 31.3 8.6 30.3 9.8 29.2 11.0 29.25 12.25 29.4 13.55 29.05 14.65 28.6 15.35 28.9 15.85 29.5 17.05 29.75 17.95 29.9 18.8 30.1 19.3 30.4 19.85 30.85 20.65 31.0 21.55 31.1 22.4 31.4 23.0 31.65 23.4 33.4 23.45 33.9 23.55 34.15 24.05 34.25 24.45 32.0 25.25 31.6 25.5 30.25 26.05 30.1 25.7 29.9 25.1 30.0 24.4 30.1 23.95 30.0 23.55 29.8 22.9 29.35 22.2 28.85 21.4 28.6 20.55 28.45 19.95 27.8 18.7 27.35 17.9 26.95 16.6 26.8 15.85 26.45 15.85 26.1 15.85 25.9 16.7 25.4 17.95 24.95 18.7 24.45 19.45 24.45 19.5 24.2 19.95 24.2 20.05 24.05 20.6 23.75 21.4 23.25 22.15 22.7 22.9 22.45 23.45 22.3 23.85 22.45 24.3 22.5 25.0 22.3 25.55 22.1 25.9 20.8 25.35 20.4 25.05 18.15 24.15 18.3 23.75 18.55 23.25 19.1 23.2 19.65 23.25 20.85 23.2 21.1 22.85 21.4 22.3 21.6 21.4 21.8 20.55 22.25 19.75 22.55 19.3 22.85 18.7 23.05 17.85 23.3 17.0 24.0 15.85 24.3 15.35 23.85 14.65 23.5 13.5 23.65 12.25 23.7 11.0 22.65 9.8 Q21.75 9.0 21.6 8.6 L21.4 7.3 21.15 7.5 20.55 8.2 19.9 8.85 19.45 9.2 18.45 9.75 17.95 10.3 17.9 10.3 17.3 10.8 17.15 10.9 17.0 10.95 16.4 11.15 16.3 11.2 16.25 11.2 15.55 11.45 15.5 11.5 15.35 11.5 15.1 11.7 14.9 11.85 14.4 12.15 14.1 12.25 13.8 12.25 13.65 12.2 13.5 12.05 13.3 11.85 13.2 11.7 13.2 11.65 13.2 11.45 13.2 11.2 13.3 11.1 13.35 11.0 13.7 10.7 13.9 10.55 14.1 10.5 14.65 10.15 15.1 9.8 15.3 9.55 15.8 9.05 15.9 8.95 15.95 8.95 16.05 8.85 16.75 8.55 16.8 8.55 17.4 8.3 M24.75 5.4 L24.8 4.95 24.75 5.4 M28.2 5.4 L28.1 4.95 28.2 5.4 M23.6 24.5 L23.95 23.95 23.65 24.45 23.6 24.5 M28.95 24.45 L28.7 23.85 29.0 24.5 28.95 24.45 M14.2 10.1 L13.35 10.5 14.15 10.1 14.2 10.1" fill="#ffffff" fill-rule="evenodd" stroke="none"/>
    <path d="M17.4 8.3 L17.7 8.0 18.0 7.55 18.35 7.1 19.05 6.6 19.75 6.1 20.6 5.25 20.9 5.15 21.15 5.1 21.6 5.2 21.85 5.4 21.95 5.5 22.05 5.4 24.8 4.95 25.15 3.25 27.7 3.25 28.1 4.95 30.85 5.4 31.0 5.5 31.05 5.4 31.5 5.15 31.8 5.1 32.0 5.15 32.45 5.4 32.75 5.7 33.15 6.15 33.9 6.6 34.55 7.1 34.9 7.55 35.25 8.05 35.4 8.25 35.55 8.35 36.2 8.6 36.95 8.95 37.55 9.45 37.65 9.55 38.3 10.15 38.85 10.45 39.25 10.6 39.6 10.9 39.7 11.1 39.75 11.35 39.75 11.6 39.65 11.8 39.45 12.05 39.3 12.15 39.05 12.2 38.85 12.2 38.4 12.05 38.05 11.8 37.5 11.45 36.6 11.2 35.8 10.9 35.0 10.35 34.45 9.8 33.5 9.2 33.0 8.9 32.4 8.25 31.5 7.3 31.3 8.6 30.3 9.8 29.2 11.0 29.25 12.25 29.4 13.55 29.05 14.65 28.6 15.35 28.9 15.85 29.5 17.05 29.75 17.95 29.9 18.8 30.1 19.3 30.4 19.85 30.85 20.65 31.0 21.55 31.1 22.4 31.4 23.0 31.65 23.4 33.4 23.45 33.9 23.55 34.15 24.05 34.25 24.45 32.0 25.25 31.6 25.5 30.25 26.05 30.1 25.7 29.9 25.1 30.0 24.4 30.1 23.95 30.0 23.55 29.8 22.9 29.35 22.2 28.85 21.4 28.6 20.55 28.45 19.95 27.8 18.7 27.35 17.9 26.95 16.6 26.8 15.85 26.45 15.85 26.1 15.85 25.9 16.7 25.4 17.95 24.95 18.7 24.45 19.45 24.45 19.5 24.2 19.95 24.2 20.05 24.05 20.6 23.75 21.4 23.25 22.15 22.7 22.9 22.45 23.45 22.3 23.85 22.45 24.3 22.5 25.0 22.3 25.55 22.1 25.9 20.8 25.35 20.4 25.05 18.15 24.15 18.3 23.75 18.55 23.25 19.1 23.2 19.65 23.25 20.85 23.2 21.1 22.85 21.4 22.3 21.6 21.4 21.8 20.55 22.25 19.75 22.55 19.3 22.85 18.7 23.05 17.85 23.3 17.0 24.0 15.85 24.3 15.35 23.85 14.65 23.5 13.5 23.65 12.25 23.7 11.0 22.65 9.8 Q21.75 9.0 21.6 8.6 L21.4 7.3 21.15 7.5 20.55 8.2 19.9 8.85 19.45 9.2 18.45 9.75 17.95 10.3 17.9 10.3 17.3 10.8 17.15 10.9 17.0 10.95 16.4 11.15 16.3 11.2 16.25 11.2 15.55 11.45 15.5 11.5 15.35 11.5 15.1 11.7 14.9 11.85 14.4 12.15 M14.1 12.25 L13.8 12.25 13.65 12.2 13.5 12.05 13.3 11.85 13.2 11.7 13.2 11.65 13.2 11.45 13.2 11.2 13.3 11.1 13.35 11.0 M13.7 10.7 L13.9 10.55 14.1 10.5 14.65 10.15 15.1 9.8 15.3 9.55 15.8 9.05 15.9 8.95 15.95 8.95 16.05 8.85 16.75 8.55 16.8 8.55 M28.1 4.95 L28.2 5.4 M24.8 4.95 L24.75 5.4 M37.0 32.05 L39.4 29.6 12.3 29.6 14.7 32.05 M14.6 27.1 L12.3 29.6 M39.4 29.6 L37.1 27.1" fill="none" stroke="#000000" stroke-linecap="round" stroke-linejoin="round" stroke-width="1.0"/>
  </g>
</svg>
