<?xml version="1.0" encoding="UTF-8" standalone="no"?>
<svg xmlns:xlink="http://www.w3.org/1999/xlink" height="37.0px" width="55.0px" xmlns="http://www.w3.org/2000/svg">
  <g transform="matrix(1.0, 0.0, 0.0, 1.0, 1.0, 1.0)">
    <path d="M53.0 35.0 L0.0 35.0 0.0 0.0 53.0 0.0 53.0 35.0 Z" fill="none" stroke="#000000" stroke-linecap="round" stroke-linejoin="round" stroke-width="2.0"/>
    <path d="M17.4 12.3 L17.7 12.0 18.0 11.55 18.35 11.1 19.05 10.6 19.75 10.1 20.6 9.25 20.9 9.15 21.15 9.1 21.6 9.2 21.85 9.4 21.95 9.5 22.05 9.4 24.8 8.95 25.15 7.25 27.7 7.25 28.1 8.95 30.85 9.4 31.0 9.5 31.05 9.4 31.5 9.15 31.8 9.1 32.0 9.15 32.45 9.4 32.75 9.7 33.15 10.15 33.9 10.6 34.55 11.1 34.9 11.55 35.25 12.05 35.4 12.25 35.55 12.35 36.2 12.6 36.95 12.95 37.55 13.45 37.65 13.55 38.3 14.15 38.85 14.45 39.25 14.6 39.6 14.9 39.7 15.1 39.75 15.35 39.75 15.6 39.65 15.8 39.45 16.05 39.3 16.15 39.05 16.2 38.85 16.2 38.4 16.05 38.05 15.8 37.5 15.45 36.6 15.2 35.8 14.9 35.0 14.35 34.45 13.8 33.5 13.2 33.0 12.9 32.4 12.25 31.5 11.3 31.3 12.6 30.3 13.8 29.2 15.0 29.25 16.25 29.4 17.55 29.05 18.65 28.6 19.35 28.9 19.85 29.5 21.05 29.75 21.95 29.9 22.8 30.1 23.3 30.4 23.85 30.85 24.65 31.0 25.55 31.1 26.4 31.4 27.0 31.65 27.4 33.4 27.45 33.9 27.55 34.15 28.05 34.25 28.45 32.0 29.25 31.6 29.5 30.25 30.05 30.1 29.7 29.9 29.1 30.0 28.4 30.1 27.95 30.0 27.55 29.8 26.9 29.35 26.2 28.85 25.4 28.6 24.55 28.45 23.95 27.8 22.7 27.35 21.9 26.95 20.6 26.8 19.85 26.45 19.85 26.1 19.85 25.9 20.7 25.4 21.95 24.95 22.7 24.45 23.45 24.45 23.5 24.2 23.95 24.2 24.05 24.05 24.6 23.75 25.4 23.25 26.15 22.7 26.9 22.45 27.45 22.3 27.85 22.45 28.3 22.5 29.0 22.3 29.55 22.1 29.9 20.8 29.35 20.4 29.05 18.15 28.15 18.3 27.75 18.55 27.25 19.1 27.2 19.65 27.25 20.85 27.2 21.1 26.85 21.4 26.3 21.6 25.4 21.8 24.55 22.25 23.75 22.55 23.3 22.85 22.7 23.05 21.85 23.3 21.0 24.0 19.85 24.3 19.35 23.85 18.65 23.5 17.5 23.65 16.25 23.7 15.0 22.65 13.8 Q21.75 13.0 21.6 12.6 L21.4 11.3 21.15 11.5 20.55 12.2 19.9 12.85 19.45 13.2 18.45 13.75 17.95 14.3 17.9 14.3 17.3 14.8 17.15 14.9 17.0 14.95 16.4 15.15 16.3 15.2 16.25 15.2 15.55 15.45 15.5 15.5 15.35 15.5 15.1 15.7 14.9 15.85 14.4 16.15 14.1 16.25 13.8 16.25 13.65 16.2 13.5 16.05 13.3 15.85 13.2 15.7 13.2 15.65 13.2 15.45 13.2 15.2 13.3 15.1 13.35 15.0 13.7 14.7 13.9 14.55 14.1 14.5 14.65 14.15 15.1 13.8 15.3 13.55 15.8 13.05 15.9 12.95 15.95 12.95 16.05 12.85 16.75 12.55 16.8 12.55 17.4 12.3 M28.2 9.4 L28.1 8.95 28.2 9.4 M24.75 9.4 L24.8 8.95 24.75 9.4 M14.2 10.1 L13.35 10.5 14.15 10.1 14.2 10.1" fill="#ffffff" fill-rule="evenodd" stroke="none"/>
    <path d="M41.4 28.8 L43.9 31.1 43.9 4.0 41.4 6.3 M43.9 31.1 L46.35 28.7 M46.35 6.4 L43.9 4.0 M17.4 12.3 L17.7 12.0 18.0 11.55 18.35 11.1 19.05 10.6 19.75 10.1 20.6 9.25 20.9 9.15 21.15 9.1 21.6 9.2 21.85 9.4 21.95 9.5 22.05 9.4 24.8 8.95 25.15 7.25 27.7 7.25 28.1 8.95 30.85 9.4 31.0 9.5 31.05 9.4 31.5 9.15 31.8 9.1 32.0 9.15 32.45 9.4 32.75 9.7 33.15 10.15 33.9 10.6 34.55 11.1 34.9 11.55 35.25 12.05 35.4 12.25 35.55 12.35 36.2 12.6 36.95 12.95 37.55 13.45 37.65 13.55 38.3 14.15 38.85 14.45 39.25 14.6 39.6 14.9 39.7 15.1 39.75 15.35 39.75 15.6 39.65 15.8 39.45 16.05 39.3 16.15 39.05 16.2 38.85 16.2 38.4 16.05 38.05 15.8 37.5 15.45 36.6 15.2 35.8 14.9 35.0 14.35 34.45 13.8 33.5 13.2 33.0 12.9 32.4 12.25 31.5 11.3 31.3 12.6 30.3 13.8 29.2 15.0 29.25 16.25 29.4 17.55 29.05 18.65 28.6 19.35 28.9 19.85 29.5 21.05 29.75 21.95 29.9 22.8 30.1 23.3 30.4 23.85 30.85 24.65 31.0 25.55 31.1 26.4 31.4 27.0 31.65 27.4 33.4 27.45 33.9 27.55 34.15 28.05 34.25 28.45 32.0 29.25 31.6 29.5 30.25 30.05 30.1 29.7 29.9 29.1 30.0 28.4 30.1 27.95 30.0 27.55 29.8 26.9 29.35 26.2 28.85 25.4 28.6 24.55 28.45 23.95 27.8 22.7 27.35 21.9 26.95 20.6 26.8 19.85 26.45 19.85 26.1 19.85 25.9 20.7 25.4 21.95 24.95 22.7 24.45 23.45 24.45 23.5 24.2 23.95 24.2 24.05 24.05 24.6 23.75 25.4 23.25 26.15 22.7 26.9 22.45 27.45 22.3 27.85 22.45 28.3 22.5 29.0 22.3 29.55 22.1 29.9 20.8 29.35 20.4 29.05 18.15 28.15 18.3 27.75 18.55 27.25 19.1 27.2 19.65 27.25 20.85 27.2 21.1 26.85 21.4 26.3 21.6 25.4 21.8 24.55 22.25 23.75 22.55 23.3 22.85 22.7 23.05 21.85 23.3 21.0 24.0 19.85 24.3 19.35 23.85 18.65 23.5 17.5 23.65 16.25 23.7 15.0 22.65 13.8 Q21.75 13.0 21.6 12.6 L21.4 11.3 21.15 11.5 20.55 12.2 19.9 12.85 19.45 13.2 18.45 13.75 17.95 14.3 17.9 14.3 17.3 14.8 17.15 14.9 17.0 14.95 16.4 15.15 16.3 15.2 16.25 15.2 15.55 15.45 15.5 15.5 15.35 15.5 15.1 15.7 14.9 15.85 14.4 16.15 M14.1 16.25 L13.8 16.25 13.65 16.2 13.5 16.05 13.3 15.85 13.2 15.7 13.2 15.65 13.2 15.45 13.2 15.2 13.3 15.1 13.35 15.0 M13.7 14.7 L13.9 14.55 14.1 14.5 14.65 14.15 15.1 13.8 15.3 13.55 15.8 13.05 15.9 12.95 15.95 12.95 16.05 12.85 16.75 12.55 16.8 12.55 M24.8 8.95 L24.75 9.4 M28.1 8.95 L28.2 9.4" fill="none" stroke="#000000" stroke-linecap="round" stroke-linejoin="round" stroke-width="1.0"/>
  </g>
</svg>
