<?xml version="1.0" encoding="UTF-8" standalone="no"?>
<svg xmlns:xlink="http://www.w3.org/1999/xlink" height="27.2px" width="27.15px" xmlns="http://www.w3.org/2000/svg">
  <g transform="matrix(1.0, 0.0, 0.0, 1.0, 13.55, 13.6)">
    <path d="M11.65 -3.35 L12.1 0.0 11.65 3.35 Q11.25 4.75 10.45 6.1 L8.55 8.55 Q7.35 9.75 6.15 10.45 4.8 11.2 3.4 11.6 L0.05 12.1 -3.35 11.6 -6.1 10.45 -8.5 8.55 Q-9.75 7.3 -10.4 6.1 L-11.6 3.35 Q-12.05 1.75 -12.05 0.0 -12.05 -1.75 -11.6 -3.35 L-10.4 -6.1 Q-9.75 -7.3 -8.5 -8.55 L-6.1 -10.45 -3.35 -11.6 0.05 -12.1 3.4 -11.6 Q4.8 -11.2 6.15 -10.45 7.35 -9.75 8.55 -8.55 L10.45 -6.1 Q11.25 -4.75 11.65 -3.35" fill="#ffffff" fill-rule="evenodd" stroke="none"/>
    <path d="M1.9 -1.85 Q2.7 -1.05 2.7 0.05 2.7 1.1 1.9 1.9 1.1 2.7 0.05 2.7 -1.05 2.7 -1.85 1.9 -2.6 1.1 -2.6 0.05 -2.6 -1.05 -1.85 -1.85 -1.05 -2.65 0.05 -2.6 1.1 -2.65 1.9 -1.85" fill="#000000" fill-rule="evenodd" stroke="none"/>
    <path d="M8.55 -8.55 L10.45 -6.1 Q11.25 -4.75 11.65 -3.35 L12.1 0.0 11.65 3.35 Q11.25 4.75 10.45 6.1 L8.55 8.55 Q7.35 9.75 6.15 10.45 4.8 11.2 3.4 11.6 L0.05 12.1 -3.35 11.6 -6.1 10.45 -8.5 8.55 Q-9.75 7.3 -10.4 6.1 L-11.6 3.35 Q-12.05 1.75 -12.05 0.0 -12.05 -1.75 -11.6 -3.35 L-10.4 -6.1 Q-9.75 -7.3 -8.5 -8.55 L-6.1 -10.45 -3.35 -11.6 0.05 -12.1 3.4 -11.6 Q4.8 -11.2 6.15 -10.45 7.35 -9.75 8.55 -8.55 Z" fill="none" stroke="#000000" stroke-linecap="round" stroke-linejoin="round" stroke-width="3.0"/>
  </g>
</svg>
