<?xml version="1.0" encoding="UTF-8" standalone="no"?>
<svg xmlns:xlink="http://www.w3.org/1999/xlink" height="3.7px" width="33.0px" xmlns="http://www.w3.org/2000/svg">
  <g transform="matrix(1.0, 0.0, 0.0, 1.0, 16.5, 1.85)">
    <path d="M7.2 -0.35 L15.0 -0.35 15.0 0.35 12.75 0.35 10.0 0.35 7.2 0.35 3.6 0.35 0.0 0.35 -3.6 0.35 -7.2 0.35 -15.0 0.35 -15.0 -0.35 -7.2 -0.35 -3.6 -0.35 0.0 -0.35 3.6 -0.35 7.2 -0.35" fill="#ffffff" fill-rule="evenodd" stroke="none"/>
    <path d="M7.2 -0.35 L15.0 -0.35 15.0 0.35 12.75 0.35 10.0 0.35 7.2 0.35 3.6 0.35 0.0 0.35 -3.6 0.35 -7.2 0.35 -15.0 0.35 -15.0 -0.35 -7.2 -0.35 -3.6 -0.35 0.0 -0.35 3.6 -0.35 7.2 -0.35 Z" fill="none" stroke="#000000" stroke-linecap="round" stroke-linejoin="round" stroke-width="3.0"/>
  </g>
</svg>
